<?xml version="1.0" encoding="utf-8"?>
<!-- Generator: Adobe Illustrator 21.0.2, SVG Export Plug-In . SVG Version: 6.00 Build 0)  -->
<svg version="1.1" id="Camada_1" xmlns="http://www.w3.org/2000/svg" xmlns:xlink="http://www.w3.org/1999/xlink" x="0px" y="0px"
	 viewBox="0 0 595 842" style="enable-background:new 0 0 595 842;" xml:space="preserve">
<style type="text/css">
	.st0{fill-rule:evenodd;clip-rule:evenodd;fill:#303C8C;}
	.st1{fill-rule:evenodd;clip-rule:evenodd;fill:#956433;}
	.st2{fill-rule:evenodd;clip-rule:evenodd;fill:#FFFFFF;}
	.st3{fill-rule:evenodd;clip-rule:evenodd;}
	.st4{fill-rule:evenodd;clip-rule:evenodd;fill:#D8D9DD;}
	.st5{fill-rule:evenodd;clip-rule:evenodd;fill:#FEEE00;}
	.st6{fill:#FEEE00;}
	.st7{fill-rule:evenodd;clip-rule:evenodd;fill:#BF0811;}
</style>
<g>
	<g>
		<path class="st0" d="M295.9,217.1c120.5,0,218.2,94,218.2,209.7s-97.7,209.7-218.2,209.7c-120.5,0-218.2-94-218.2-209.7
			S175.4,217.1,295.9,217.1z"/>
		<path d="M295.9,640.6c-122.5,0-222.2-95.9-222.2-213.7s99.7-213.7,222.2-213.7c122.5,0,222.2,95.9,222.2,213.7
			S418.4,640.6,295.9,640.6z M295.9,221.1c-118.1,0-214.2,92.3-214.2,205.7s96.1,205.7,214.2,205.7c118.1,0,214.2-92.3,214.2-205.7
			S414,221.1,295.9,221.1z"/>
	</g>
	<path class="st1" d="M295.9,237.6c108.7,0,196.9,84.7,196.9,189.3s-88.2,189.4-196.9,189.4c-108.8,0-197-84.8-197-189.4
		S187.1,237.6,295.9,237.6z"/>
	<path class="st0" d="M295.9,579.5c87.4,0,158.8-68.5,158.8-152.6c0-84-71.4-152.6-158.8-152.6c-87.5,0-158.8,68.6-158.8,152.6
		C137.1,510.9,208.4,579.5,295.9,579.5z"/>
	<g>
		<path class="st2" d="M295.9,284.1c81.9,0,148.5,63.9,148.5,142.7c0,78.8-66.5,142.7-148.5,142.7c-82,0-148.5-63.9-148.5-142.7
			C147.4,348.1,213.9,284.1,295.9,284.1z"/>
		<path d="M295.9,569.7c-20.1,0-39.5-3.8-57.8-11.2c-17.7-7.2-33.6-17.5-47.2-30.6c-13.7-13.1-24.4-28.4-31.9-45.4
			c-7.8-17.6-11.7-36.3-11.7-55.6c0-19.3,3.9-38,11.7-55.6c7.5-17,18.2-32.3,31.9-45.4c13.7-13.1,29.6-23.4,47.2-30.6
			c18.3-7.5,37.8-11.2,57.8-11.2c20,0,39.5,3.8,57.8,11.2c17.7,7.2,33.6,17.5,47.2,30.6c13.6,13.1,24.4,28.4,31.9,45.4
			c7.8,17.6,11.7,36.3,11.7,55.6c0,19.3-3.9,38-11.7,55.6c-7.5,17-18.2,32.3-31.9,45.4c-13.6,13.1-29.5,23.4-47.2,30.6
			C335.4,565.9,316,569.7,295.9,569.7z M295.9,284.3c-20,0-39.5,3.8-57.8,11.2c-17.7,7.2-33.5,17.5-47.2,30.6
			c-13.6,13.1-24.3,28.3-31.8,45.3c-7.7,17.6-11.7,36.2-11.7,55.5c0,19.3,3.9,37.9,11.7,55.5c7.5,17,18.2,32.2,31.8,45.3
			c13.6,13.1,29.5,23.4,47.2,30.6c18.3,7.4,37.7,11.2,57.8,11.2c20,0,39.4-3.8,57.7-11.2c17.7-7.2,33.5-17.5,47.2-30.6
			c13.6-13.1,24.3-28.3,31.8-45.3c7.7-17.6,11.7-36.3,11.7-55.5c0-19.2-3.9-37.9-11.7-55.5c-7.5-17-18.2-32.2-31.8-45.3
			c-13.6-13.1-29.5-23.4-47.2-30.6C335.3,288,315.9,284.3,295.9,284.3z"/>
	</g>
	<g>
		<path class="st3" d="M344.2,394.2c2.2,44.9,196.4,182.2,68.6,140c-41.6-13.8-90.1-8.3-136.3-8.3c-33.9,0-71.9,14-96.7,14
			s-33.9-100.8-13.2-110.7c7.5-3.3,11.6-14,24.8-18.1c33-10.7,55.3,1.2,85.1,9.1C293,424.5,329.3,395,344.2,394.2z"/>
		<path d="M447.6,550.2c-8.4,0-20.3-2.8-37.3-8.4c-31.1-10.3-67.5-9.3-102.7-8.4c-10.2,0.3-20.8,0.5-31.1,0.5
			c-17.5,0-36.1,3.9-54.1,7.7c-15.6,3.3-30.4,6.4-42.6,6.4c-12.8,0-22.6-13.3-28.3-38.6c-5.3-23.1-9.7-77.2,11.6-87.4l0.2-0.1
			c1.6-0.7,3.5-2.7,5.8-5c4.3-4.4,10.1-10.4,19.9-13.5c29-9.4,50.5-2.8,73.3,4.2c5.2,1.6,10.7,3.3,16.3,4.8
			c6.3,1.7,23.1-7.5,34.2-13.5c12.2-6.6,22.8-12.4,30.9-12.8l8-0.4l0.4,8c0.8,15.4,36,51.5,61.8,77.8c41.4,42.3,56.3,59.5,48.5,72
			C459.7,548,455.1,550.2,447.6,550.2z M338.4,516.8c26.5,0,52.8,1.8,77,9.8c19.3,6.4,28.2,7.5,32.1,7.6c-1.3-2.7-4.5-7.7-12.2-16.8
			c-8.7-10.1-20.3-22-32.7-34.7c-33.5-34.3-57.3-59.7-64.2-78.7c-5.2,2.2-12,5.9-17.8,9c-17.2,9.4-33.5,18.2-46,14.9
			c-5.9-1.6-11.5-3.3-16.9-5c-22-6.8-39.4-12.2-63.7-4.3c-6,1.9-9.6,5.5-13.3,9.4c-3.1,3.1-6.2,6.4-10.6,8.4
			c-1.4,0.7-5.3,6.5-6.5,23.5c-1,14.3,0.3,31.5,3.6,45.9c4.5,19.5,10.6,26.1,12.7,26.1c10.6,0,24.6-2.9,39.3-6
			c17.9-3.8,38.2-8,57.4-8c10.1,0,20.6-0.3,30.7-0.5C317.6,517.1,328,516.8,338.4,516.8z"/>
	</g>
	<path class="st4" d="M384.4,432.8v-7.5c2.9,0.4,5.8,0.8,8.8,1.1C391.8,429.7,388.4,432,384.4,432.8L384.4,432.8z M384.4,355.1v-31
		c4.3-2.6,8.7-8.1,8.8-11.8c0.1-4.1-3.2-5.8-6.8-8.9c0,1.9,3.4,2.9,3.8,6c0.6,3.7-1.3,7-4.7,8.1c-0.2-2.6,1.8-4.8,0.4-7.2
		c-0.5-0.2-1-0.3-1.6-0.3v-19.1c5.5,3.1,11.7,4.8,16.9,8.3c6.2,4.1,12.3,9,15.8,15.8C400.2,322.2,390.4,336.8,384.4,355.1
		L384.4,355.1z M384.4,287.9v-13c5.2,3.1,7.9,7.1,1.6,12.6C385.6,287.8,385,287.9,384.4,287.9z M384.4,274.9v13
		c-1.3,0.1-2.9-0.2-3.5,0.5c1.1,0.9,2.3,1.7,3.5,2.4v19.1c-6.7,0.1-13.5,15-4.4,15.6c1.3,0.1,2.9-0.5,4.4-1.4v31
		c-0.1,0.6-0.4,1.3-0.6,1.9c-8.6-1.5-16.9-3.1-25.6-4v-29c3.7-9.1,10.2-15.6,14.9-23.6c-6,2.9-10.8,2.4-14.9,0.4v-3.2
		c3.8,2.1,8,2.9,12.4,1c4.8-2.1,10.9-9.8,10.2-15.8c-0.8-6.7-8.9-8.3-13.7-12c-0.6,3.6,7.8,6,8.6,11.1c0.9,6.4-5.8,12.4-12,12.4
		c-2.1-0.1-3.9-0.6-5.5-1.6v-27.9c5.6,1.7,11,3.7,16.2,5.6C377.7,271.8,381.4,273.2,384.4,274.9L384.4,274.9z M384.4,425.3v7.5
		c-1.9,0.4-4,0.4-6.1,0c-5.9-1.2-13-9.2-18.3-13.1c-0.6-0.4-1.2-0.9-1.7-1.3v-16.3c3.1,2.4,6.3,4.8,9.4,7.3
		c3.9,3.2,8.7,6.1,10.7,11.1c-8.6,1.2-13.3-4.9-19.6-7.3C364.5,420.1,373.7,423.4,384.4,425.3L384.4,425.3z M358.3,313.8
		c0.4-1.8,0.4-3.5,0-5.2V313.8z M358.3,264.8v27.9c-5.5-3.2-9.3-10-14.9-9.9c2.7,3.6,8.2,11.1,14.9,14.8v3.2c-4.4-2-8.1-5.6-12-8.6
		c-3.5-2.7-7.2-4.9-11.1-6.8v-26.4C343.2,260.5,350.9,262.5,358.3,264.8L358.3,264.8z M358.3,308.6v5.2c-1.7,8.1-9.1,17.9-3,24.4
		c0.1-5.5,1.3-10.2,3-14.3v29c-7.3-0.8-14.8-1.2-23-0.6v-23.5c1.5-0.3,3.1-0.4,4.8-0.4c1.3,6-3,9.7-4.3,14.5c6.7-0.3,6-8.1,8.1-12.7
		c1.6-3.5,4.3-3.4,6-6.4v-1.3c-4.8,0.6-9.6,2.2-14.5,3.9v-4.5c4.3-1.1,8.2-2.4,10.7-4.9c4-3.8,5.2-8.8,8.6-13.2
		C356.6,305.2,357.8,306.8,358.3,308.6L358.3,308.6z M358.3,402.1v16.3c-7.4-5.5-15-10.8-23-15.7v-20.1c7.2,5.4,13.7,11.8,20.5,17.4
		C356.5,400.7,357.4,401.4,358.3,402.1L358.3,402.1z M335.2,493.8v-10.1c3.2,3.6,6.3,7.1,9.4,10.4c0.4,0.5,2.1,1.6,1.2,2.6
		C342.2,495.9,338.7,495,335.2,493.8L335.2,493.8z M335.2,469.3v-6c1.7,1.8,3.5,3.6,5.1,5.3c1.9,1.9,4.8,3.7,4.3,5.5
		C341.4,472.7,338.3,471.1,335.2,469.3z M335.2,258.9v26.4c-5.6-2.8-11.7-5-18.7-7.2c-5.9-1.9-13-4.2-19.5-3.8
		c4.4,4.4,14.3,3.4,18.2,8.5c-3.6-0.2-11-1.7-16.2-0.4c2.3,2.5,8.5,1.2,11.1,3.4c-7.1,9.6-8.4,34.8,8.1,34.6
		c-7.2,3.1-15.9,4.8-25.3,5.5v-31.2c2.6-1.1,4.8-2.7,5.6-5.5c0.5-1.3,2.9-0.6,3-2.2c-2.7-0.8-5.7-1.3-8.6-1.8V256
		C307.5,255,321.8,256.3,335.2,258.9L335.2,258.9z M335.2,321.8c-2.4,0.6-5,1.1-7.6,1.5c-11.7,2.2-23.8,4.6-34.6,7.6v28.2
		c14.8-0.7,28.6-5.9,42.3-6.8l0,0v-23.5c-5,0.9-9.4,3-14.5,2.2c4.9-1.2,9.7-3,14.5-4.7V321.8L335.2,321.8z M335.2,382.6v20.1
		c-7.9-4.9-16.1-9.4-24.7-12.9c-3.3-1.4-8-4.5-12-1.7c6.6,4.3,16.1,5.8,21.7,11.1c-8.3,1.1-18.6,1.2-27.4,1.8v-22.4
		c12.5,4.4,24.7,10.4,37.6,14.2c-2.4-3.6-7.9-6-12.7-8.6c-7.9-4.1-16.2-8.4-24.8-12.2v-6.8c14.8,3.3,28.2,7.6,39.3,15.3
		C333.3,381.1,334.3,381.8,335.2,382.6L335.2,382.6z M335.2,463.3v6c-10.1-5.9-19.3-13.2-28.1-18.6c8.6,11,18.5,22.4,28.1,33v10.1
		c-16.3-5.3-29.7-13.8-42.3-22.8V405c4.6,0.1,9.1,0.4,12.9,1.4c-1.7,9.6-6.8,19.7-3.8,31c1.5-5,0.6-12.5,4.2-15.3
		c7.3,8.1,11.3,19,17.9,28.2C327.5,454.8,331.4,459.2,335.2,463.3L335.2,463.3z M293,495.5c4.8,2.1,9.8,3.6,15.5,3.7
		c-2.1-3.2-5.8-3.7-8.6-5.9c-2.4-2.2-4.8-4.8-6.9-7.8V495.5L293,495.5z M293,290.3c0.2-0.4,0.4-0.9,0.6-1.4
		c-0.1-0.4-0.4-0.6-0.6-0.9V290.3z M293,256v29.3c-3-0.4-6-0.9-8.8-1.6c0.6,2.2,6.5,2,8.8,4.2v2.4c-1.9,3-6.3,3.5-7.9,6.6
		c2.7-0.6,5.5-1.2,7.9-2.2v31.2c-7.9,0.7-16.4,0.8-25,0.8c4.5,2.7,13.8,0.7,19.2,2.6c-5.5,4-15.8,5.2-18.4,10.7
		c6.7-3.5,15-6.5,24.1-9v28.2h-0.2c-8.6,0.4-16.7-1-25.6,0.9c9,1.7,17.6,3.3,25.8,5.2v6.8c-6.8-3-13.8-5.6-21.1-7.8h-0.4
		c-1.6,2.4,5,3.7,6,6.4c-3.2,1.5-7.7-0.9-10.7,0.4c4,3.9,10.9,3.1,17,4.7c3.1,0.8,6.2,1.8,9.2,2.9V401c-1.4,0.1-2.8,0.2-4.1,0.3
		c-3.8,0.4-8.3,0.1-10.7,2.6c4.4,0.9,9.6,0.9,14.8,1.1v66.1c-7.8-5.5-15.3-11.1-22.8-16.1c4.2,6.8,11,11.3,15.3,18.7
		c2.2,3.9,4.7,8.1,7.5,11.9v10c-5-2.2-9.6-5.1-13.9-7.8c-4.3-2.7-8.6-5.4-12.3-8.6c-4-3.2-6.7-7.3-10.7-9.8
		c5,9.4,13.5,15.1,18.7,24.3c-10.5-1.6-19.2-5.3-26.9-10.2v-62.8c0.6,0.4,1.2,0.9,1.7,1.4c-0.6-1-1.2-2.1-1.7-3.2v-23.3
		c4,3.9,8.1,7.7,12.8,10.9c-3.7-7.3-10.2-12-12-21.3c2.5-1.2,3.9,2,6.4,2.2c-1.9-2.7-4.5-4.8-7.3-6.6v-27c4.1,0.7,7.6,1.9,11.5,2.9
		c-1.9-2.7-6.4-2.7-8.1-5.5c1.7-3.6,8.9-1.9,11.4-4.7c-1.4-3-6.8-1.7-9.4-1.3c-1.7,0.2-3.6,0.4-5.5,0.6V263
		c14.5-1.2,29.9-1.4,43.1-4c-2.2-0.6-5.1-0.5-6.4-2.1C287.4,256.5,290.2,256.2,293,256z M190.4,394.4c-3.1-0.1-3-3.5-5.5-4.2v0.1
		v43.1c0.2,2.7,0.4,5.3,0.4,7.8c-0.1-0.4-0.3-0.7-0.4-1.2v45.6c9.8,11.6,22.5,20.4,38.4,25.8c0.1-1.7-1.4-3.5-2.6-5.1
		c-8.4-12-17.6-26.2-21.7-42.6c9.1,19.7,27.5,30.2,47.7,38.8c-5-7.8-10.1-16.7-14.9-25.6c-4.9-9.1-12.2-15.6-18.7-22.6
		c11.2,9.1,21.5,20.7,34.9,29v-62.8c-5.8-5.1-9.5-12.2-14.5-18.1c-0.4,7.1,2.1,13.8,1.3,19.9c-9.1-12.1-15.5-27.1-25.6-38.3
		c-2.4,5.6-2.8,13.2-3,20.9c-4.6-3.2-3.9-8.2-5.1-14.9c-1.4-8.1-7.8-16.9-8.5-27.6c-0.8-10.4,0.4-20.9,5.5-29
		c-4.8,16.7-4.3,42,6.3,51.6c0.5-6.6-1-15.2,0.9-20.4c3.3,7,6.6,14.3,10.2,21.3c3.6,6.7,7,14.5,13.7,18.4c-0.9-8-5-12.7-6.8-19.7
		c4.8,2.7,8,10.5,12.8,14.5c-3.7-11-8.9-22.8-9.4-35.4c5.4,8.6,9.1,18.9,17.9,23.9c-0.6-3.9-3.5-7.4-3-11.1c2.4,1.3,4.9,2.6,7.2,4.1
		v-27c-1.6-0.3-3.3-0.5-5.1-0.6c-0.4-3,2.7-2.7,3-5.1c-5-0.1-6.6,0.4-10.7,0.9c2.4-2.3,7.6-2.8,12.7-3.2V263
		c-7.6,0.6-15,1.6-21.7,3.2c1.2,3.2,5.9,2.9,8.6,4.7c-4.7,1.9-12.9,0.2-18.4,1.3c1.7,2.1,6.4,1,8.1,3c-4.7,3-13.6,1.8-17.5,5.5
		c6.3,1.4,13,2.4,17.5,5.5c-17.9,2.1-30.5,11.2-39.7,22.6v72.4C186.3,386.1,188.3,390.3,190.4,394.4L190.4,394.4z M248,395.5v23.3
		c-5.6-11-10.8-22.5-14-35.9C239,386.7,243.5,391.1,248,395.5z M184.9,390.3c-4.1,13-1.2,29.3,0,43.1V390.3L184.9,390.3z
		 M184.9,440.1v45.6c-4.4-5-8.1-10.7-11.5-16.8c-1.8,3.2-0.4,9.6-0.8,14c-10.7-9.1-13.7-35.4-9.9-54.1c-3.5,3.5-2.7,11.2-5.9,14.9
		c-9.3-30.1,4.2-66.7,11.9-89c-4.1,3.8-6.6,9.4-9.4,14.5c2.7-20.8,10.7-39.2,20.4-53.6c1.6-2.4,3.2-4.7,5.1-6.8v72.4
		c-0.1-0.4-0.3-0.9-0.4-1.3c-4.8,3.1-5.5,16.6-5.1,25.6C179.9,417.9,181.9,432.2,184.9,440.1z"/>
	<g>
		<path class="st2" d="M96.5,627.2l80.6-23.1l1.3-16.4c85.5-12.6,163.8-11.3,235.4,3.5l0.4,15.4l80.2,20.6
			c-4.2-13.5-10.8-23.5-18.9-31.7c10.7-7.4,18.4-14.3,18.9-19.7l-41.2-14.1v-22c-93.9-27.7-209-30.5-316.4,0v22.8l-40.3,13.3
			c-3.7,3.2,12,13.7,18,20.5C108.5,606.6,98.8,615.8,96.5,627.2z"/>
		<path d="M91.2,632.8l1.3-6.5c1.7-8.4,6.9-15.5,11.8-22.3c1.8-2.5,3.5-4.8,5.1-7.2c-1.7-1.6-3.8-3.4-5.8-5.2
			c-7.5-6.5-11.7-10.4-11.7-14.6c0-1.6,0.7-3.1,1.9-4.2l0.6-0.5l38.4-12.7v-22.9l2.9-0.8c103.1-29.3,219.2-29.3,318.6,0l2.9,0.8
			v22.1l41.5,14.2l-0.3,3.1c-0.5,5.6-5.6,11.7-16.8,20c7.6,8.6,13.1,18.4,16.6,29.9l2.1,6.8l-90.1-23.1l-0.4-15.2
			c-69.4-13.9-145.9-15.1-227.7-3.3l-1.3,16L91.2,632.8z M418.1,603.4l70,18c-3.6-8.8-8.7-16.4-15.4-23.1l-3.4-3.4l3.9-2.7
			c9.9-6.9,14.2-11.3,16-14l-40-13.7v-21.8c-96.4-27.8-208.4-27.8-308.4,0v22.6l-39.6,13.1c1.9,2.1,5.4,5.2,7.7,7.2
			c3.1,2.7,6.4,5.6,8.6,8.1l1.9,2.2l-1.4,2.5c-2.1,3.6-4.6,7.1-7.1,10.5c-3.1,4.2-6,8.3-8.1,12.4l70.5-20.2l1.3-16.8l3.2-0.5
			c85.1-12.5,164.8-11.3,236.8,3.6l3.1,0.6L418.1,603.4z"/>
	</g>
	<g>
		<path class="st3" d="M433.4,600.7c4.5-0.7,8.9-1.5,12.9-2.7l-12.9-2.7V592c6.8,1.6,13.4,3.3,19.7,5.1v-57.5
			c-6.3-1.8-12.9-3.5-19.7-5.1v-3.5c8.1,1.9,15.8,3.8,23.2,6v23.1c14.5,5.3,29.3,10.2,44.6,14.6c-6.2,8.1-15.3,13.3-21.5,21.4
			c6.9,12.2,15,23.3,21.5,36.1c-22-7.2-44.3-14.1-67.8-19.8v-3.1c21.3,4.9,41.5,10.9,60.9,17.7c-5.3-11.4-12.7-21-18.9-31.7
			c5.7-6.7,16.4-12.7,18.9-19.7c-13.2-3.1-23.9-8.7-37.7-11.2c-0.5,11.7,1.1,25.7-0.9,36c-7.8,0.9-15.8,1.6-22.3,2.5V600.7z
			 M413.8,604c6.2-1.5,13-2.3,19.7-3.3v2.4c-6.6,0.9-11.7,1.9-12.8,3.5c4.3,0.9,8.6,1.9,12.8,2.9v3.1c-7.6-1.9-15.3-3.5-23.1-5.1
			v-16.3c-66.7-14.5-161.9-13.2-229.8-0.9v17.1c-7.9,1.4-15.6,3.1-23.1,5v-3.2c4.3-1.2,8.6-2.3,12.8-3.5c-4.2-0.8-8.5-1.4-12.8-2
			v-3.2c6.6,1.2,13,2.5,19.7,3.5c-1-3.9,2-11.8-1.7-12.9c-5.5,1.9-11.9,2.9-18,4.2v-3.5c82.4-18.7,194-18.9,276,0.1v3.3l-19.7-4.2
			C413.4,594.5,413.6,601.2,413.8,604L413.8,604z M433.4,531.1v3.5c-81.8-19.2-194-19.1-276-0.2v-3.2
			C240,512.2,350.8,512.2,433.4,531.1z M157.4,531.1v3.2c-7.1,1.7-14,3.5-20.6,5.3v57.5c6.6-1.9,13.5-3.6,20.6-5.3v3.5
			c-4.5,0.9-9,1.9-12.9,3.5c4.5,0.4,8.7,1,12.9,1.7v3.2c-7.9-1.2-15.8-2.3-23.2-4v-35.1c-14,2.3-24.4,8.1-37.7,11.2
			c1.5,7.9,14.3,11.9,18,20.5c-5.4,10.4-14.7,21.3-18,30.9c18.9-7.3,40.1-12.4,60.9-17.9v3.2c-23.8,5.8-45.9,13.1-68.6,19.9
			c7.5-11.7,14-24.3,22.2-35.2c-5.3-9.2-15.8-13.4-21.4-22.2c15.5-4,28.5-10.4,44.6-13.8v-24C141.6,534.9,149.4,532.9,157.4,531.1z"
			/>
		<path d="M79.6,639.3l5.9-9.1c2.7-4.2,5.3-8.5,7.8-12.8c4.1-6.8,8.3-13.9,13-20.4c-2.3-3.1-5.4-5.7-8.7-8.4
			c-4-3.3-8.2-6.8-11.2-11.6l-3-4.7l5.3-1.4c6.8-1.7,13.2-4,19.5-6.2c7-2.5,14.2-5,22.1-6.9v-23.8l2.9-0.8
			c92.3-27.3,231.9-27.3,324.7,0l2.9,0.8v23.3c14.5,5.2,28.2,9.6,41.8,13.6l5.6,1.6l-3.5,4.6c-3.4,4.4-7.4,8-11.4,11.4
			c-3,2.6-5.9,5.2-8.4,8c2.5,4.2,5.1,8.3,7.6,12.4c4.3,6.8,8.7,13.9,12.6,21.5l4.4,8.6l-9.2-3c-27.8-9.1-57.7-18.4-90.5-24.8
			l-3.2-0.6v-16.3c-61.4-12.7-151.5-13-221.8-0.8v10.6l3.7,0.6l-3.7,1v4.9l-3.3,0.6c-26.4,4.8-50.7,12.3-74.2,19.6
			c-5.7,1.8-11.4,3.5-17.1,5.2L79.6,639.3z M438.5,606.5c16,3.8,31.9,8.4,47.6,13.6c-2.2-3.7-4.5-7.3-6.9-11.1
			c-2.4-3.7-4.9-7.6-7.2-11.5l-1.4-2.4l1.8-2.2c2.4-2.8,5.5-5.4,8.4-7.9c2.6-2.2,5.3-4.5,7.2-6.7c-4.1-1.2-8-2.5-11.7-3.8
			c-5.3-1.8-10.4-3.6-15.9-4.9c0,2.9,0.1,5.8,0.1,8.7c0.1,6.3,0.3,12.8-0.3,18.6l2.3,0.5l-2.4,0.7c-0.1,1.1-0.3,2.2-0.5,3.3
			l-0.5,2.9l-2.9,0.3c-2.4,0.3-4.8,0.5-7.2,0.8C445.7,605.7,442.1,606,438.5,606.5z M102.3,578.4c1.4,1.5,3.3,3,5.3,4.6
			c3.9,3.1,8.4,6.6,10.5,11.7l0.7,1.7l-0.9,1.7c-2.3,4.4-5.3,8.9-8.1,13.2c-2,3-3.9,5.9-5.5,8.7c13.6-4.6,28-8.4,42-12
			c1.5-0.4,3-0.8,4.5-1.2c-5.9-0.9-11.9-1.9-17.6-3.2l-3.1-0.7v-1.2l-2.7-0.2l2.7-1.1v-30.9c-5.5,1.3-10.5,3.1-15.8,4.9
			C110.6,575.7,106.6,577.2,102.3,578.4z M165,597.9c0.2,0,0.3,0.1,0.5,0.1c2.5,0.5,5,0.9,7.6,1.4c0-0.4,0.1-0.8,0.1-1.1
			c0.1-0.6,0.1-1.5,0.2-2.2C170.6,596.7,167.8,597.3,165,597.9z M417.6,596c0,1,0,2.1,0,3.1c2.7-0.5,5.5-1,8.3-1.4L417.6,596z
			 M140.8,542.7v49.2c89.6-24.2,219.8-24.2,308.4,0v-49.2c-42.3-11.9-96.7-18.5-153.8-18.5c-0.1,0-0.2,0-0.4,0
			C237.9,524.2,183.3,530.8,140.8,542.7z"/>
	</g>
	<path class="st3" d="M367.2,270.6c-0.7,3.6,7.8,6,8.5,11.1c0.9,6.4-5.8,12.4-12,12.3c-8.9-0.1-13.1-11.5-20.4-11.4
		c4.3,5.5,15.3,21,27.3,15.8c4.9-2.2,10.9-9.8,10.2-15.8C380,275.9,372,274.3,367.2,270.6z"/>
	<g>
		<path class="st5" d="M249.1,350.2c25.3-6.7,53.9-30.9,82.8-30.9c14.3,0,17.4-15.7,30.9-15.7c12.7,0,14.1-14.3,24.2-14.3
			c5.3,0,22.5,11.7,24.7,16.3c9.6,19.4,8.2,7-5.3,20.5c-10.4,10.4-17.1,36.9-29.7,32.3c-34.1-12.4-59.8,4.7-99.1-0.8
			c-23.6-3.3,26.2,9.4,32.9,12c24.8,9.7,50.8,27,68.8,45c8.4,8.4,31.8,20.4,1.1,20.4c-12.9,0-53.4-37.3-69.1-45.2
			C292.1,380.3,259,368,249.1,350.2z"/>
		<path class="st6" d="M380.2,435.2c-7.9,0-26.2-14-42.3-26.3c-10.6-8.1-20.7-15.8-26.8-18.9c-3.5-1.8-7.5-3.6-11.8-5.6
			c-18.8-8.7-42.2-19.6-50.2-34l-0.1-0.1l0.1,0c9.9-2.6,20.2-7.9,31.2-13.5c16.8-8.6,34.1-17.4,51.7-17.4c7.2,0,11.6-4.1,15.9-8
			c4.1-3.8,8.3-7.7,15-7.7c6.6,0,10.1-3.9,13.5-7.7c3-3.4,5.9-6.6,10.7-6.6c5.5,0,22.6,11.9,24.8,16.3c2,4.1,3.6,6.8,4.6,8.6
			c1.2,2.2,1.7,3,1.6,3.7c-0.2,0.5-0.7,0.8-1.7,1.2c-1.8,0.8-5,2.4-9.8,7.2c-3.6,3.6-6.9,9.3-10,14.9c-5.9,10.5-11.6,20.5-19.9,17.4
			c-19-6.9-35.4-4.6-52.8-2.3c-14.2,1.9-28.8,3.9-46.3,1.5c-5.3-0.8-6.1-0.6-6.2-0.4c0.1,0.8,13.6,4.7,23.5,7.5
			c7,2,13.5,3.9,15.7,4.7c24.1,9.5,50.5,26.7,68.8,45c1.7,1.7,4.2,3.7,6.6,5.5c5.3,4.2,10.8,8.6,9.8,11.5
			C394.7,434,389.7,435.2,380.2,435.2z M249.3,350.3c8.1,14.3,31.4,25.1,50.1,33.8c4.3,2,8.3,3.8,11.8,5.6
			c6.2,3.1,16.2,10.8,26.9,18.9c16.1,12.3,34.4,26.3,42.2,26.3c9.4,0,14.3-1.1,15.1-3.4c1-2.8-4.5-7.1-9.7-11.3
			c-2.4-1.9-4.8-3.8-6.6-5.6c-18.3-18.3-44.6-35.5-68.7-45c-2.1-0.8-8.7-2.7-15.7-4.7c-16.8-4.8-23.8-7-23.6-7.8
			c0-0.2,0.1-0.6,6.4,0.3c17.5,2.4,32.1,0.4,46.2-1.5c17.5-2.4,33.9-4.6,53,2.3c8.1,3,13.7-6.9,19.6-17.3c3.1-5.5,6.4-11.3,10-14.9
			c4.8-4.8,8.1-6.4,9.9-7.2c0.9-0.4,1.5-0.7,1.6-1.1c0.2-0.5-0.4-1.5-1.5-3.5c-1-1.8-2.6-4.5-4.6-8.6c-2.2-4.4-19.2-16.2-24.6-16.2
			c-4.7,0-7.5,3.2-10.5,6.5c-3.4,3.8-6.9,7.8-13.7,7.8c-6.6,0-10.6,3.7-14.8,7.6c-4.3,4-8.7,8.1-16,8.1c-17.5,0-34.8,8.8-51.6,17.4
			C269.5,342.4,259.2,347.7,249.3,350.3z"/>
	</g>
	<path class="st3" d="M326.9,313.8c6.6-0.2,11-6.3,9.1-12.1c-3.8-0.5-4.1,2.4-7.7,2.1c-1.2-1.2-0.9-4.1-0.4-5.9
		c9.1,0.7,5.8-6.8,2.2-9.8c6.6,2,13.3,4.1,15.3,9.8c1.9,5.5-0.9,15-4.2,17.4c-2.8,2-8.5,3-14.3,2.7v5l0.6-0.1
		c7.1-1.3,14.4-2.7,18.4-6.4c4-3.8,5.2-8.8,8.5-13.2c12.5,8.1-8.2,24.7,0.9,34.5c0.6-18,11-26.2,17.9-37.9
		c-12.5,6-19.3-2.4-26.9-8.1c-6-4.5-12.2-7.7-19.4-10.5V313.8z M324.6,313.7c0.8,0.1,1.6,0.1,2.4,0.1v-32.4
		c-3.3-1.2-6.8-2.4-10.5-3.6c-5.8-1.8-13-4.2-19.5-3.8c4.5,4.5,14.4,3.5,18.3,8.6c-3.6-0.2-11.1-1.7-16.2-0.4
		c2.3,2.5,8.4,1.2,11.1,3.4c-7.2,9.5-8.5,34.8,8.1,34.5c-13.1,5.8-31.3,6.4-50.2,6.4c4.5,2.7,13.8,0.7,19.2,2.6
		c-5.4,3.9-15.8,5.2-18.3,10.7c14.7-7.8,36.9-12.7,58.1-16.6v-5c-6.7-0.3-13.5-2.2-16.4-6.1c-6.5-8.6-1.4-28.1,12.7-24.7
		C314.6,291.3,313.6,311.6,324.6,313.7z"/>
	<path class="st3" d="M284.2,283.4c0.7,2.4,7.9,2,9.4,5.1c-1.2,4.4-6.6,4.5-8.6,8.1c5.9-1.3,11.8-2.4,13.6-7.7
		c0.4-1.2,2.9-0.5,3-2.1C296.2,285.2,289.7,284.8,284.2,283.4z"/>
	<path class="st2" d="M323.3,287.2c-14.2-3.4-19.2,16.1-12.7,24.7c5.4,7.3,24.6,7.6,30.7,3.4c3.4-2.4,6.2-11.9,4.2-17.4
		c-2-5.7-8.8-7.8-15.3-9.8c3.6,3,7,10.5-2.2,9.8c-0.4,1.8-0.8,4.7,0.4,5.9c3.6,0.4,3.9-2.6,7.7-2.1c2.1,6.4-3.7,13.3-11.5,12
		C313.6,311.6,314.6,291.3,323.3,287.2z"/>
	<path class="st3" d="M386.3,303c0.1,1.8,3.4,2.8,3.8,6c0.6,3.7-1.2,7-4.7,8.1c-0.2-2.6,1.9-4.8,0.4-7.3c-7.1-2.5-15.8,14.7-6,15.3
		c4.8,0.4,13.1-8.2,13.2-13.2C393.3,307.8,389.9,306.2,386.3,303z"/>
	<path class="st5" d="M431.9,357.5c-7.1-6.1-11.8-14.2-21.7-19.2c-2.6-1.3-7.6-3.7-10.2-3c-2.4,0.7-8.6,11.3-8.1,16.2
		c0.5,4.7,8.4,10.2,12.4,13.2c13.5,10.3,32.5,20.7,38.3,37.5c20.2-29.2,1.2-76.2-28.1-82.7c-2.5-0.5-9.6,5.9-9.8,7.3
		c-0.6,4.3,12.5,12,14.9,14C425.4,345.9,429.3,350.6,431.9,357.5z"/>
	<path class="st3" d="M320.8,330.7c6.6,1.2,12-2.7,19.2-2.5c1.4,6-3,9.7-4.2,14.5c6.6-0.4,6-8.2,8.1-12.7c1.6-3.5,4.4-3.4,6-6.4
		v-1.3C340.1,323.4,330.6,328.4,320.8,330.7z"/>
	<path class="st3" d="M235.1,398.8c-4.8-4-8.1-11.8-12.8-14.5c1.9,6.9,6,11.7,6.8,19.6c-6.7-3.7-10-11.6-13.6-18.3
		c-3.7-7-7-14.3-10.2-21.3c-1.9,5.3-0.4,13.8-0.9,20.4c-10.7-9.6-11.2-34.9-6.4-51.6c-5.1,8.1-6.3,18.6-5.5,28.9
		c0.8,10.8,7.1,19.6,8.6,27.7c1.2,6.6,0.5,11.7,5.1,14.9c0.2-7.7,0.6-15.3,3-20.9c10.1,11.2,16.4,26.2,25.6,38.3
		c0.8-6.2-1.6-12.8-1.3-19.9c5.5,6.4,9.5,14.4,16.2,19.5c-6.3-12-12.2-24.4-15.8-39.2c9.7,7.1,16.9,16.6,26.9,23.5
		c-3.7-7.4-10.1-12-12-21.3c2.5-1.2,3.9,2,6.4,2.2c-3.5-5-9-7.8-14.5-10.7c-0.6,3.7,2.3,7.2,3,11c-8.9-5-12.5-15.3-17.9-23.8
		C226.4,376.2,231.5,387.9,235.1,398.8z"/>
	<path class="st3" d="M235.1,348.6c4.1-0.5,5.7-1,10.7-0.9c-0.3,2.4-3.3,2.1-3,5.1c6.4,0.2,11.2,2.2,16.6,3.4
		c-1.8-2.7-6.3-2.7-8.1-5.5c1.8-3.6,8.9-1.8,11.5-4.7c-1.4-2.9-6.8-1.7-9.4-1.2C247.1,345.6,238.5,345.3,235.1,348.6z"/>
	<path class="st7" d="M338.2,355.9h-3.4c0.9,1.2,1.7,2.5,3.8,2.5C338.6,357.4,337.9,357.2,338.2,355.9z"/>
	<path class="st7" d="M329.7,359.2c8.9,5.5,18.9,10.1,28.2,15.3c-6.8-0.8-14.5-4.3-22.6-5.1c10.3,3.9,20.7,7.7,31.5,11.1
		c-6.6-9.4-21.3-14.5-32-21.3C333.1,360.2,331.8,359.1,329.7,359.2z"/>
	<path class="st3" d="M271.4,363.9c-1.5,2.3,5,3.7,6,6.4c-3.1,1.5-7.7-0.9-10.7,0.4c4.1,3.8,10.9,3,17.1,4.7
		c15.8,4.2,30.8,12.4,46.8,17c-2.4-3.5-8-6-12.8-8.5c-14-7.3-29.2-15.1-45.9-20H271.4z"/>
	<path class="st3" d="M184.5,379.7c-4.8,3-5.5,16.6-5.1,25.6c0.6,13,2.7,28.2,6,35.7c-0.4-15.2-5.4-35.6-0.4-51
		c2.6,0.6,2.4,4.1,5.5,4.2C188.1,389.6,185.9,385,184.5,379.7z"/>
	<path class="st3" d="M454.6,369.5v9.7c0,0.1,0,0.3,0,0.4c-0.9,13-5.4,24.1-12.8,31.5c-5.2-19-19.7-30.2-34.5-40
		c-0.9-0.6-1.8-1.2-2.8-1.9v-4c13.5,10.3,32.3,20.7,38.2,37.4c20.2-29.2,1.1-76.1-28.2-82.7c-2.4-0.6-9.6,5.8-9.8,7.2
		c-0.6,4.4,12.5,12,14.9,14.1c5.8,5,9.8,9.7,12.4,16.6c-7.1-6.2-11.9-14.3-21.7-19.2c-1.4-0.7-3.7-1.8-5.8-2.4v-13.6
		c3.7-3.1,7.8-5.8,12.6-7.8c-2.8-5.5-7.6-9.9-12.6-13.5v-3.7c1.9,1,3.8,2.1,5.8,3.2c6.9,4,17.9,7.6,15.8,17.9
		C440,328.4,453,346.3,454.6,369.5z M348.3,367c7.3,3.9,14.5,8.1,18.5,13.8c-6.3-1.9-12.5-4.1-18.5-6.3v2c10.5,2.9,19.4,9.9,30,13.2
		c-8.2-10.6-19.2-18.4-30-26.4V367L348.3,367z M348.3,372.6v-3c3.2,1.7,6.5,3.4,9.6,5.2C354.8,374.5,351.6,373.6,348.3,372.6
		L348.3,372.6z M404.5,297.5v3.7c-1.1-0.8-2.1-1.5-3.2-2.2c-6.4-4.3-14.4-5.9-20.4-10.7c0.9-1,4,0,5.1-0.9
		c10-8.6-2.6-13.6-11.5-17.1c-8.2-3.1-17-6-26.2-8.5v-3.4c10.4,2.4,20.2,5.3,29.2,8.9c5.4,2.1,16.7,6.6,17.5,12
		c0.6,4.2-3.7,8.1-2.2,11.4C396.1,292.9,400.1,295.1,404.5,297.5L404.5,297.5z M404.5,322.6v13.6c-1.7-0.6-3.3-0.9-4.5-0.5
		c-2.4,0.6-8.6,11.2-8.1,16.2c0.5,4.6,8.4,10.2,12.3,13.2l0.2,0.1v4c-5.4-3.7-13-8.9-18.1-8.8c-3.4,0.1-6.6,2.4-10.2,1.7
		c-4.7-0.9-8.7-4.8-13.7-6c-4.4-1.1-9.4-2.2-14.3-2v-1.9c12.4,0.5,23.7,2.8,35.6,4.8C388.1,343,394.6,331,404.5,322.6L404.5,322.6z
		 M348.3,499.8v-5c1.8,1.7,3.5,3.5,4.5,5.7C351.2,500.3,349.7,500.1,348.3,499.8L348.3,499.8z M348.3,478.5V472
		c4.5,4.1,8.8,7.9,12.2,11.4C356.2,482,352.1,480.3,348.3,478.5L348.3,478.5z M348.3,414.2v-3c4,2.7,7.8,5.5,11.7,8.4
		c5.3,3.9,12.4,11.9,18.3,13.1c6.1,1.3,12.8-1.4,14.9-6.4c-14.5-1.4-27.2-4.5-34.5-13.1c6.3,2.4,11,8.4,19.6,7.3
		c-1.9-5-6.8-7.9-10.7-11.1c-3.9-3.2-8.1-6.2-11.9-9.4c-2.5-2-5-4.2-7.5-6.4v-12.8c15.2,18.6,31.7,35.9,56,45.1
		c-4.8,7.5-15.1,11.4-24.3,10.2c-7.5-0.9-15-7-20.4-11.4C355.6,421.5,352,417.2,348.3,414.2z M336.7,360.8c3.6,2.2,7.6,4.2,11.5,6.3
		v-3.6c-2.7-2-5.3-4-7.9-6c0.3-2.7,3.2-2.8,4.3-3c1.2-0.2,2.4-0.3,3.6-0.3v-1.9c-3.7-0.1-7.6-0.1-11.5,0v4h1.5
		c-0.3,1.3,0.4,1.5,0.4,2.5c-0.8,0-1.4-0.1-1.9-0.5V360.8L336.7,360.8z M348.3,374.6c-3.9-1.4-7.7-2.8-11.5-4.2v13.4
		c4,3.1,7.8,6.5,11.5,9.9v-12.8c-1.4-1.7-2.7-3.4-4-5c1.4,0.2,2.7,0.5,4,0.9V374.6L348.3,374.6z M336.7,370v-6.3
		c3.8,2.1,7.6,4.1,11.5,6v3C344.6,371.6,340.7,370.5,336.7,370L336.7,370z M348.3,258.6v3.4c-3.7-1-7.6-1.9-11.5-2.7v-3
		C340.6,256.9,344.5,257.7,348.3,258.6L348.3,258.6z M348.3,411.2v3c-1.2-0.9-2.4-1.7-3.6-2.3c-2.6-1.2-5.3-1.9-7.9-2.7v-5.7
		C340.6,406,344.5,408.6,348.3,411.2L348.3,411.2z M348.3,472v6.6c-3.9-1.8-7.7-3.7-11.5-5.6v-2.8c2.6,1.4,5.2,2.8,7.9,4
		c0.4-1.8-2.4-3.6-4.3-5.5c-1.2-1.2-2.4-2.4-3.6-3.7v-3.6C340.6,465.1,344.5,468.6,348.3,472L348.3,472z M348.3,494.8v5
		c-4-0.7-7.8-1.7-11.5-2.7v-2.7c3,0.9,6,1.7,9.1,2.4c0.9-1-0.8-2.1-1.2-2.6c-2.6-2.8-5.3-5.7-7.9-8.7v-2.8c3,3.2,5.9,6.3,8.7,9.4
		C346.4,492.9,347.3,493.9,348.3,494.8z M334.9,359.5c0.6,0.4,1.2,0.8,1.9,1.2v-2.6c-0.8-0.5-1.3-1.3-1.9-2h1.9v-4
		c-0.5,0.1-1,0.1-1.5,0.1c-13.8,0.9-27.6,6.1-42.5,6.8c-8.6,0.4-16.7-1-25.6,0.9c25.2,5,47.8,8.5,65.2,20.4c1.5,1.1,3,2.2,4.5,3.3
		v-13.4l-1.5-0.6c0.5,0.1,1,0.1,1.5,0.2v-6.3c-2.4-1.3-4.8-2.7-7.1-4.1C331.8,359.4,333.1,360.5,334.9,359.5L334.9,359.5z
		 M336.7,256.2v3c-16.4-3.4-34.1-4.8-52.1-2.4c1.3,1.6,4.2,1.5,6.4,2.1c-20.1,4-45.6,2.5-64.8,7.3c1.2,3.2,5.9,2.9,8.6,4.7
		c-4.7,1.9-12.9,0.2-18.4,1.3c1.7,2.1,6.4,1,8.1,3c-4.7,3-13.6,1.8-17.5,5.5c6.3,1.4,13,2.4,17.5,5.5c-21.4,2.4-35.1,15-44.8,29.4
		c-9.7,14.4-17.7,32.8-20.4,53.6c2.8-5.1,5.3-10.7,9.4-14.5c-7.7,22.2-21.2,58.9-11.9,89c3.2-3.7,2.4-11.4,5.9-14.9
		c-3.8,18.7-0.9,45,9.9,54.1c0.4-4.5-1-10.9,0.8-14c10.9,19.9,26.9,34.7,49.9,42.6c0.1-1.7-1.4-3.5-2.6-5.1
		c-8.4-12-17.6-26.2-21.7-42.6c9.1,19.7,27.5,30.2,47.7,38.8c-5-7.8-10.1-16.7-14.9-25.6c-4.9-9.1-12.2-15.6-18.7-22.6
		c17.6,14.3,32.9,34.7,61.8,39.2c-5.2-9.1-13.8-14.9-18.7-24.3c4,2.5,6.7,6.6,10.7,9.8c3.7,3.2,8,5.8,12.3,8.6
		c8.4,5.2,17.9,11.3,29.4,11.4c-2.1-3.2-5.8-3.7-8.6-5.9c-5.8-4.8-10.4-12.7-14.4-19.7c-4.3-7.4-11.1-11.9-15.3-18.7
		c20.3,13.5,39.5,31,66.6,39.4v2.7c-15-4.5-27.5-11.5-41.5-17c5.2,10.3,14.7,16.2,24.6,21.7c-13.2,0.3-28.7-0.7-38.2-5.5
		c-2.3-0.1-2,2.3-3.9,2.5c-7.2-1.1-13.3-5.3-20-7.6c-1.3-0.4-3-0.1-4.2-0.4c-5.3-1.5-9.9-5.2-14.9-6.8c5.8,7.8,12,15.1,19.2,20.9
		c2.4,2,5.8,3.5,7.3,6.4c-23-4.5-41.1-16.3-55.4-28.2c5.7,12.7,14.2,24.1,23.8,32.4c3.4,3,8.4,4.6,9.4,8.6
		c-21.6-4.5-38.6-15-52.4-26.9c-4.8-4.1-8.6-9.1-14-12c2.5,8.4,8.1,16,11.1,22.6c-20.5-19.4-41.5-40.7-42.6-78.7v-5.8
		c0.1-3.5,0.4-7.1,0.8-10.9c0.4-3.2,1.9-6.2,2.5-9.4c1.4-7.3,1.9-14.8,3.9-22.2c1.9-7.6,2.4-14.8,3.8-22.2c2-10.8,8.1-23.3,12.3-32
		c5.2-10.4,13.9-17.7,18.8-26c3.5-1.1,6.5-4.8,9.8-7.6c3.5-3,7.8-5.1,9.8-8.1c-4.4-3.7-12.8-3.3-17.5-6.8c7.7-1.9,17.5-1.6,24.8-3.8
		c-4.5-2.5-13.1-0.9-17.1-3.9c6.3-2.7,17.4,1.7,23-1.7c-5.4-3.5-15.9-1.7-21.3-5.1c5.7-1.4,11.6,0.6,17.4,0.4
		c-1.2-1.7-6.7-3.4-5.5-4.7c22.3-0.9,42.3-1.9,64.4-2.5c-1.2-1.8-4.2-1.7-5.5-3.4C293.1,251.4,315.9,252.5,336.7,256.2L336.7,256.2z
		 M336.7,403.6c-8.4-5.3-17.1-10-26.2-13.8c-3.3-1.4-8-4.5-12-1.7c6.6,4.3,16.1,5.8,21.7,11.1c-9.6,1.2-21.8,1.2-31.5,2.1
		c-3.8,0.4-8.3,0.1-10.7,2.6c8.4,1.7,19.9,0.3,27.6,2.5c-1.7,9.6-6.8,19.7-3.8,31c1.5-5,0.6-12.5,4.2-15.3
		c7.3,8.1,11.3,19,17.9,28.2c3.7,5.2,8.2,10.1,12.5,14.6v-3.6c-11.4-11.2-22-24.5-23.2-40.4c-0.6-7.1,2.1-12.2,5.5-16.6
		c5.3,2.6,11.5,3.5,17.6,5V403.6L336.7,403.6z M336.7,470.1c-10.7-6-20.4-13.7-29.6-19.4c9,11.6,19.5,23.5,29.6,34.7v-2.8
		c-5.1-5.5-10.2-11.2-14.7-17c5,2.4,9.8,4.9,14.7,7.3V470.1z"/>
	<g>
		<polygon class="st5" points="383.8,356.6 411.5,368 439.9,362.6 435.2,332.4 416.6,314.7 391,324.2 		"/>
		<path class="st6" d="M411.5,368.1L411.5,368.1l-27.8-11.4l0-0.1l7.2-32.5l25.7-9.5l0,0l18.6,17.7l0,0l4.8,30.3L411.5,368.1z
			 M383.9,356.6l27.5,11.3l28.3-5.4l-4.7-30.1l-18.5-17.6l-25.4,9.5L383.9,356.6z"/>
	</g>
	<path d="M169.1,571l-1.3-3.3l-3.3,0.5v-4l1.7-0.2l-1.7-4.3v-6.8l2.1-0.3l8.6,17.6L169.1,571L169.1,571z M164.5,550v-3.1l3-0.4
		L164.5,550z M164.5,568.2l-2.2,0.3l-0.4,3.5l-6,0.8l3.7-19.2l4.8-0.7v6.8l-0.3-0.5c-0.2-0.7-0.5-1.4-0.6-2h-0.1c0.1,0.2,0,0.6,0,1
		c-0.1,0.5-0.3,2.6-0.7,6.3l1.8-0.2V568.2L164.5,568.2z M164.5,546.9v3.1l-1,1.2l-3.9,0.6l3.2-4.7L164.5,546.9z"/>
	<path d="M193.2,566.7c-0.6,0.5-1.7,1-3,1.4c-1.4,0.5-2.7,0.9-3.9,1c-3.2,0.4-5.8-0.1-7.8-1.5c-1.9-1.4-3.1-3.5-3.5-6.5
		c-0.2-1.9,0-3.7,0.7-5.3c0.6-1.7,1.8-3,3.3-4c1.5-1,3.4-1.6,5.5-1.9c1.6-0.2,3.4-0.2,5.3,0.1l0.6,4.8c-0.9-0.3-1.7-0.4-2.5-0.5
		c-0.9-0.1-1.7,0-2.6,0.1c-1.6,0.2-2.7,0.8-3.5,1.9c-0.8,1-1.1,2.3-0.9,3.9c0.1,1.6,0.7,2.7,1.6,3.5c0.9,0.8,1.9,1.1,3.3,0.9
		c0.6-0.1,1.2-0.1,1.4-0.3l-0.4-2.6l-3.5,0.4l-0.5-4.2l9.1-1.1L193.2,566.7z"/>
	<path d="M211.5,557.2c0.3,3-0.1,5.2-1.4,6.8c-1.2,1.6-3.2,2.5-6,2.8c-2.6,0.3-4.7-0.2-6.2-1.5c-1.5-1.3-2.4-3.4-2.7-6.3l-1.1-10.2
		l5.6-0.6l1.1,10.4c0.1,1.2,0.4,2,1,2.7c0.5,0.6,1.2,0.8,1.9,0.7c0.9-0.1,1.4-0.4,1.8-1.1c0.4-0.6,0.5-1.6,0.4-2.7l-1.2-10.4
		l5.6-0.6L211.5,557.2z"/>
	<polygon points="215.9,565.5 214.3,547 219.9,546.5 221.5,565 	"/>
	<path d="M236.9,563.7l-1.1-3.4l-3.1,0.2v-4l1.8-0.1l-1.7-5c-0.1-0.1-0.1-0.3-0.1-0.4v-5.7l2.9-0.2l7.3,18.1L236.9,563.7z
		 M232.7,560.6l-2.4,0.1l-0.6,3.5l-6,0.4l5.1-18.9l4-0.3v5.7c-0.1-0.6-0.3-1.1-0.4-1.6h-0.1c0,0.2-0.1,0.5-0.1,1
		c-0.1,0.5-0.4,2.6-1.2,6.2l1.8-0.1V560.6z"/>
	<path d="M266.1,561.4c-1.6,0.6-3.3,1-5.3,1.1c-2,0-3.7-0.3-5.2-1c-1.4-0.6-2.6-1.7-3.4-3.1c-0.8-1.4-1.2-3-1.3-4.8
		c-0.1-1.9,0.3-3.7,1.1-5.3c0.8-1.6,1.9-2.8,3.5-3.7c1.5-0.9,3.3-1.4,5.3-1.4c1.6-0.1,3.2,0.1,4.7,0.4l0.1,5.2
		c-0.5-0.3-1.2-0.5-1.9-0.6c-0.7-0.1-1.4-0.2-2.2-0.1c-1.5,0-2.7,0.5-3.5,1.4c-0.9,0.9-1.3,2.2-1.2,3.6c0.1,1.5,0.5,2.7,1.4,3.5
		c0.9,0.9,2.1,1.2,3.6,1.2c1.3-0.1,2.7-0.5,4-1.2L266.1,561.4z"/>
	<path d="M286.5,552.3c0.1,1.9-0.3,3.5-1.1,5s-1.9,2.7-3.3,3.5c-1.4,0.8-3,1.2-4.8,1.3h-0.1v-4.8h0.1c0.6,0,1.2-0.2,1.7-0.6
		s0.9-0.9,1.2-1.7c0.3-0.7,0.4-1.6,0.4-2.5c0-1.5-0.4-2.7-0.9-3.6c-0.6-0.9-1.4-1.3-2.4-1.3l0,0v-4.8l0,0c1.7,0,3.4,0.4,4.8,1.1
		c1.4,0.8,2.5,1.9,3.3,3.3C286,548.8,286.5,550.5,286.5,552.3z M277.2,562.1c-1.7,0-3.3-0.4-4.8-1.2c-1.4-0.7-2.5-1.8-3.4-3.2
		c-0.8-1.4-1.2-3-1.2-4.8c-0.1-1.9,0.3-3.6,1.1-5.1c0.8-1.5,1.9-2.7,3.3-3.6c1.4-0.8,3.1-1.3,5-1.3v4.8c-1.2,0.1-1.9,0.5-2.6,1.3
		c-0.6,0.9-0.9,2.1-0.9,3.7c0,1.4,0.4,2.7,1,3.5c0.6,0.9,1.4,1.2,2.4,1.2V562.1z"/>
	<path d="M306.3,561.4v-10.2c0-0.9,0-2,0.1-3.2l0.1-0.9h-0.1c-0.3,1.4-0.5,2.4-0.6,3l-2.7,11.2h-5.2l-2.9-11
		c-0.1-0.3-0.3-1.3-0.6-3.2H294c0.1,2.9,0.2,4.8,0.2,5.5v8.7h-5v-18.6h8.4l2.5,10.1c0,0.2,0.1,0.6,0.2,1.3c0.1,0.6,0.1,1.2,0.1,1.4
		h0.1c0.1-0.7,0.2-1.7,0.4-2.7l2.4-10.1h8.3v18.6H306.3z"/>
	<path d="M331.6,556.7c-0.1,1.8-0.8,3.2-2.1,4.1s-3.2,1.4-5.5,1.3h-0.6v-3.8c0.6,0,1.2-0.1,1.5-0.4c0.5-0.4,0.7-0.8,0.7-1.4
		c0-0.5-0.1-0.9-0.5-1.3c-0.4-0.4-0.9-0.6-1.5-0.6h-0.2v-3.8c0.5,0,0.9-0.1,1.3-0.4c0.4-0.3,0.6-0.7,0.6-1.2c0-1-0.6-1.6-1.9-1.8
		v-3.7h0.6c5,0.1,7.3,1.7,7.3,4.8c0,0.6-0.2,1.2-0.5,1.7c-0.4,0.6-0.9,1-1.5,1.4c-0.6,0.4-1.4,0.6-2.1,0.8v0.1
		c0.9,0.1,1.7,0.4,2.3,0.9c0.7,0.4,1.2,0.9,1.6,1.6C331.4,555.3,331.6,555.9,331.6,556.7z M323.3,562.1l-7.8-0.3l0.6-18.6l7.2,0.3
		v3.7c-0.2,0-0.4-0.1-0.7-0.1h-1l-0.1,3.5h1.6c0.1,0,0.2,0,0.3,0v3.8l-2-0.1l-0.1,3.7l1.9,0.1c0.1,0,0.2,0,0.3,0V562.1z"/>
	<path d="M345.4,563.2l-0.6-3.5l-2.6-0.1v-4l1.8,0.1l-1-5.1c-0.1-0.7-0.3-1.4-0.3-2.1h-0.1c0,0.2-0.1,0.5-0.2,1
		c0,0.1-0.1,0.2-0.1,0.4v-5.5l4.3,0.2l5,18.9L345.4,563.2z M342.2,559.6l-3-0.1l-1,3.4l-6-0.4l7.3-18.2l2.7,0.1v5.5
		c-0.2,0.8-0.8,2.7-1.7,5.6l1.7,0.1V559.6z"/>
	<polygon points="364.4,550.7 363.1,564.8 357.5,564.3 358.8,550.2 353.6,549.8 353.9,545.4 370,546.7 369.6,551.1 	"/>
	<polygon points="370.6,565.7 372.9,547.2 384.4,548.6 383.9,553 377.9,552.3 377.6,554.9 383.2,555.6 382.7,560 377.1,559.3 
		376.7,562 383.1,562.8 382.5,567.1 	"/>
	<path d="M397.9,569.3l-5.3-9.8c-0.4-0.8-0.8-1.4-1-2.1h-0.1c-0.1,0.9-0.2,1.9-0.4,3.1l-1.1,7.7l-5.1-0.7l2.6-18.4l5.2,0.7l5,9.3
		c0.1,0.1,0.1,0.3,0.3,0.4c0.1,0.1,0.1,0.4,0.2,0.5c0.1,0.2,0.2,0.4,0.3,0.6c0.1,0.1,0.1,0.3,0.1,0.4h0.1c0-0.4,0.1-1.1,0.2-1.9
		l1.2-8.3l5.1,0.7l-2.6,18.4L397.9,569.3z"/>
	<polygon points="418,558.7 415.6,572.6 410,571.7 412.5,557.7 407.4,556.8 408.2,552.5 424,555.3 423.2,559.6 	"/>
	<polygon points="422.9,574.2 426.5,556 437.9,558.2 437,562.5 431.2,561.4 430.6,564.1 436.2,565.1 435.3,569.4 429.8,568.3 
		429.3,571 435.6,572.2 434.7,576.5 	"/>
</g>
</svg>
