<?xml version="1.0" encoding="utf-8"?>
<!-- Generator: Adobe Illustrator 21.0.2, SVG Export Plug-In . SVG Version: 6.00 Build 0)  -->
<svg version="1.1" id="Camada_1" xmlns="http://www.w3.org/2000/svg" xmlns:xlink="http://www.w3.org/1999/xlink" x="0px" y="0px"
	 viewBox="0 0 595 842" style="enable-background:new 0 0 595 842;" xml:space="preserve">
<style type="text/css">
	.st0{fill-rule:evenodd;clip-rule:evenodd;fill:#303C8C;}
	.st1{fill-rule:evenodd;clip-rule:evenodd;fill:#956433;}
	.st2{fill-rule:evenodd;clip-rule:evenodd;fill:#FFFFFF;}
	.st3{fill-rule:evenodd;clip-rule:evenodd;}
	.st4{fill-rule:evenodd;clip-rule:evenodd;fill:#D8D9DD;}
	.st5{fill-rule:evenodd;clip-rule:evenodd;fill:#FEEE00;}
	.st6{fill:#FEEE00;}
	.st7{fill-rule:evenodd;clip-rule:evenodd;fill:#BF0811;}
</style>
<g>
	<path class="st0" d="M295.8,217.1c-120.5,0-218.2,94-218.2,209.7s97.7,209.7,218.2,209.7c120.5,0,218.2-94,218.2-209.7
		S416.4,217.1,295.8,217.1z"/>
	<path d="M73.7,426.8c0-117.9,99.7-213.7,222.2-213.7c122.5,0,222.2,95.9,222.2,213.7s-99.7,213.7-222.2,213.7
		C173.3,640.6,73.7,544.7,73.7,426.8z M81.7,426.8c0,113.4,96.1,205.7,214.2,205.7c118.1,0,214.2-92.3,214.2-205.7
		S414,221.1,295.8,221.1C177.8,221.1,81.7,313.4,81.7,426.8z"/>
</g>
<path class="st1" d="M295.8,237.6c-108.7,0-196.9,84.7-196.9,189.3s88.2,189.4,196.9,189.4c108.8,0,197-84.8,197-189.4
	S404.6,237.6,295.8,237.6z"/>
<path class="st0" d="M295.8,579.5c-87.4,0-158.8-68.5-158.8-152.6c0-84,71.4-152.6,158.8-152.6c87.5,0,158.8,68.6,158.8,152.6
	C454.7,510.9,383.3,579.5,295.8,579.5z"/>
<g>
	<path class="st2" d="M295.8,284.1c-81.9,0-148.5,63.9-148.5,142.7c0,78.8,66.5,142.7,148.5,142.7c82,0,148.5-63.9,148.5-142.7
		C444.4,348.1,377.8,284.1,295.8,284.1z"/>
	<path d="M238,558.4c-17.7-7.2-33.6-17.5-47.2-30.6c-13.7-13.1-24.4-28.4-31.9-45.4c-7.8-17.6-11.7-36.3-11.7-55.6
		c0-19.3,3.9-38,11.7-55.6c7.5-17,18.2-32.3,31.9-45.4c13.6-13.1,29.5-23.4,47.2-30.6c18.3-7.5,37.8-11.2,57.8-11.2
		c20.1,0,39.5,3.8,57.8,11.2c17.7,7.2,33.6,17.5,47.2,30.6c13.7,13.1,24.4,28.4,31.9,45.4c7.8,17.6,11.7,36.3,11.7,55.6
		c0,19.3-3.9,38-11.7,55.6c-7.5,17-18.2,32.3-31.9,45.4c-13.7,13.1-29.5,23.4-47.2,30.6c-18.3,7.4-37.8,11.2-57.8,11.2
		C275.8,569.7,256.3,565.9,238,558.4z M238.1,295.5c-17.7,7.2-33.5,17.5-47.2,30.6c-13.6,13.1-24.3,28.4-31.8,45.3
		c-7.7,17.6-11.7,36.2-11.7,55.5c0,19.3,3.9,37.9,11.7,55.5c7.5,17,18.2,32.2,31.8,45.3c13.6,13.1,29.5,23.4,47.2,30.6
		c18.3,7.4,37.7,11.2,57.7,11.2c20,0,39.5-3.8,57.8-11.2c17.7-7.2,33.5-17.5,47.2-30.6c13.6-13.1,24.3-28.3,31.8-45.3
		c7.7-17.6,11.7-36.3,11.7-55.5c0-19.2-3.9-37.9-11.7-55.5c-7.5-17-18.2-32.2-31.8-45.3c-13.6-13.1-29.5-23.4-47.2-30.6
		c-18.3-7.4-37.7-11.2-57.8-11.2C275.8,284.3,256.4,288,238.1,295.5z"/>
</g>
<g>
	<path class="st3" d="M247.5,394.2c-2.2,44.9-196.4,182.2-68.6,140c41.6-13.8,90.1-8.3,136.3-8.3c33.9,0,71.9,14,96.7,14
		s33.9-100.8,13.2-110.7c-7.5-3.3-11.6-14-24.8-18.1c-33-10.7-55.3,1.2-85.1,9.1C298.8,424.5,262.4,395,247.5,394.2z"/>
	<path d="M129.3,543.6c-7.8-12.5,7.1-29.6,48.5-72c25.7-26.4,61-62.4,61.8-77.8l0.4-8l8,0.4c8.2,0.4,18.7,6.2,30.9,12.8
		c11.1,6,27.9,15.2,34.2,13.5c5.6-1.5,11-3.2,16.3-4.8c22.8-7,44.3-13.7,73.3-4.2c9.8,3.1,15.6,9.1,19.9,13.5c2.2,2.3,4.2,4.3,5.8,5
		l0.2,0.1c21.2,10.2,16.9,64.3,11.6,87.4c-5.7,25.2-15.5,38.6-28.3,38.6c-12.2,0-27-3.1-42.6-6.4c-18-3.8-36.6-7.7-54.1-7.7
		c-10.3,0-20.9-0.3-31.1-0.5c-35.2-0.9-71.6-1.9-102.7,8.4c-17,5.6-28.9,8.4-37.3,8.4C136.6,550.2,132,548,129.3,543.6z
		 M284.5,517.4c10.1,0.3,20.6,0.5,30.7,0.5c19.1,0,39.4,4.3,57.4,8c14.8,3.1,28.8,6,39.3,6c2.1,0,8.3-6.6,12.7-26.1
		c3.3-14.4,4.7-31.6,3.6-45.9c-1.2-17-5.2-22.7-6.5-23.5c-4.4-2-7.5-5.2-10.6-8.4c-3.7-3.9-7.3-7.5-13.3-9.4
		c-24.2-7.9-41.7-2.5-63.7,4.3c-5.4,1.7-11,3.4-16.9,5c-12.5,3.3-28.8-5.6-46-14.9c-5.8-3.2-12.6-6.8-17.8-9
		c-7,19.1-30.7,44.4-64.2,78.7c-12.4,12.6-24,24.6-32.7,34.7c-7.8,9-10.9,14.1-12.2,16.8c3.9,0,12.8-1.2,32.1-7.6
		c24.2-8,50.5-9.8,77-9.8C263.8,516.8,274.2,517.1,284.5,517.4z"/>
</g>
<path class="st4" d="M207.4,432.8c-4-0.8-7.4-3-8.8-6.4c3-0.3,5.9-0.6,8.8-1.1V432.8L207.4,432.8z M207.4,355.1
	c-6-18.3-15.8-32.9-32.7-40.2c3.5-6.8,9.6-11.7,15.8-15.8c5.2-3.5,11.4-5.2,16.9-8.3v19.1c-0.6,0-1.1,0.1-1.6,0.3
	c-1.4,2.4,0.6,4.6,0.4,7.2c-3.4-1.1-5.3-4.3-4.7-8.1c0.4-3.1,3.8-4.1,3.8-6c-3.5,3.2-6.9,4.8-6.8,8.9c0.1,3.7,4.5,9.2,8.8,11.8
	V355.1L207.4,355.1z M205.8,287.5c-6.3-5.5-3.6-9.5,1.6-12.6v13C206.7,287.9,206.1,287.8,205.8,287.5z M207.4,274.9
	c3-1.7,6.7-3.2,9.9-4.5c5.2-1.9,10.6-3.9,16.2-5.6v27.9c-1.7,0.9-3.5,1.5-5.5,1.6c-6.1,0-12.8-6-12-12.4c0.7-5,9.2-7.5,8.6-11.1
	c-4.8,3.7-12.9,5.3-13.7,12c-0.6,6,5.4,13.7,10.2,15.8c4.4,1.9,8.6,1.1,12.4-1v3.2c-4.1,1.9-8.9,2.4-14.9-0.4
	c4.8,8.1,11.2,14.5,14.9,23.6v29c-8.6,0.9-17,2.5-25.6,4c-0.2-0.6-0.4-1.3-0.6-1.9v-31c1.5,0.9,3.1,1.5,4.4,1.4
	c9.1-0.6,2.3-15.6-4.4-15.6v-19.1c1.2-0.7,2.4-1.5,3.5-2.4c-0.6-0.7-2.2-0.4-3.5-0.5V274.9L207.4,274.9z M207.4,425.3
	c10.7-1.9,19.9-5.2,25.7-12c-6.3,2.4-11,8.4-19.6,7.3c1.9-5,6.8-7.9,10.7-11.1c3-2.5,6.3-4.9,9.4-7.3v16.3c-0.6,0.4-1.2,0.9-1.7,1.3
	c-5.3,3.9-12.4,11.9-18.3,13.1c-2.1,0.4-4.2,0.4-6.1,0V425.3L207.4,425.3z M233.5,308.6c-0.4,1.7-0.4,3.4,0,5.2V308.6z M233.5,264.8
	c7.3-2.3,15-4.3,23-5.9v26.4c-3.9,1.9-7.6,4.2-11.1,6.8c-3.9,3-7.6,6.6-12,8.6v-3.2c6.7-3.7,12.2-11.2,14.9-14.8
	c-5.6-0.1-9.4,6.8-14.9,9.9V264.8L233.5,264.8z M233.5,308.6c0.5-1.8,1.7-3.5,3.8-4.9c3.4,4.4,4.5,9.4,8.6,13.2
	c2.4,2.4,6.3,3.8,10.7,4.9v4.5c-4.9-1.7-9.7-3.2-14.5-3.9v1.3c1.7,3,4.4,3,6,6.4c2.2,4.6,1.4,12.5,8.1,12.7
	c-1.3-4.8-5.6-8.5-4.3-14.5c1.7,0,3.2,0.1,4.8,0.4v23.5c-8.2-0.6-15.7-0.1-23,0.6v-29c1.7,4.1,2.8,8.7,3,14.3
	c6.1-6.6-1.3-16.3-3-24.4V308.6L233.5,308.6z M233.5,402.1c0.9-0.6,1.7-1.4,2.5-2.1c6.8-5.6,13.3-12,20.5-17.4v20.1
	c-8,4.9-15.6,10.2-23,15.7V402.1L233.5,402.1z M256.5,493.8c-3.5,1.2-7,2.1-10.7,2.9c-0.9-1,0.8-2.1,1.2-2.6
	c3.1-3.3,6.2-6.8,9.4-10.4V493.8L256.5,493.8z M247.1,474.1c-0.4-1.8,2.4-3.6,4.3-5.5c1.7-1.7,3.4-3.5,5.1-5.3v6
	C253.4,471.1,250.3,472.7,247.1,474.1z M256.5,258.9c13.5-2.7,27.7-4,42.3-3v29.3c-3,0.5-5.9,1-8.6,1.8c0.1,1.6,2.5,0.9,3,2.2
	c0.9,2.7,3,4.4,5.6,5.5v31.2c-9.4-0.8-18.1-2.4-25.3-5.5c16.6,0.3,15.3-25,8.1-34.6c2.6-2.2,8.8-0.9,11.1-3.4
	c-5.2-1.3-12.6,0.2-16.2,0.4c3.9-5.1,13.8-4.1,18.2-8.5c-6.5-0.4-13.6,1.9-19.5,3.8c-7,2.2-13.1,4.4-18.7,7.2V258.9L256.5,258.9z
	 M256.5,321.8v4.5c4.8,1.7,9.6,3.5,14.5,4.7c-5.1,0.9-9.5-1.2-14.5-2.2v23.5l0,0c13.7,0.9,27.4,6,42.3,6.8v-28.2
	c-10.9-3-22.9-5.5-34.6-7.6C261.6,322.9,259,322.4,256.5,321.8L256.5,321.8z M256.5,382.6c0.9-0.7,1.9-1.4,3-2.2
	c11.2-7.7,24.6-12,39.3-15.3v6.8c-8.6,3.9-16.9,8.1-24.8,12.2c-4.8,2.6-10.4,5-12.7,8.6c12.9-3.7,25.1-9.8,37.6-14.2V401
	c-8.8-0.6-19.1-0.7-27.4-1.8c5.7-5.3,15.1-6.8,21.7-11.1c-4-2.9-8.6,0.3-12,1.7c-8.6,3.5-16.8,8-24.7,12.9V382.6L256.5,382.6z
	 M256.5,463.3c3.8-4.1,7.7-8.5,11-13c6.6-9.1,10.6-20.1,17.9-28.2c3.7,2.9,2.7,10.4,4.2,15.3c3-11.3-2.2-21.5-3.8-31
	c3.7-1.1,8.3-1.3,12.9-1.4v66.1c-12.5,8.9-26,17.5-42.3,22.8v-10.1c9.6-10.7,19.5-22,28.1-33c-8.8,5.5-18,12.7-28.1,18.6V463.3
	L256.5,463.3z M298.8,495.5v-10c-2.1,3-4.5,5.6-6.9,7.8c-2.8,2.2-6.5,2.7-8.6,5.9C289,499.1,294,497.6,298.8,495.5L298.8,495.5z
	 M298.8,287.9c-0.2,0.3-0.4,0.6-0.6,0.9c0.1,0.5,0.4,1,0.6,1.4V287.9z M307.1,256.9c-1.3,1.6-4.2,1.5-6.4,2.1
	c13.2,2.6,28.6,2.9,43.1,4v82.7c-1.9-0.1-3.8-0.4-5.5-0.6c-2.6-0.4-8-1.7-9.4,1.3c2.5,2.8,9.7,1.1,11.4,4.7
	c-1.7,2.8-6.2,2.8-8.1,5.5c3.9-0.9,7.4-2.2,11.5-2.9v27c-2.8,1.8-5.3,3.8-7.3,6.6c2.5-0.1,3.9-3.4,6.4-2.2c-1.8,9.3-8.2,14-12,21.3
	c4.7-3.2,8.8-7,12.8-10.9v23.3c-0.6,1.2-1.2,2.2-1.7,3.2c0.6-0.4,1.2-0.9,1.7-1.4v62.8c-7.7,4.8-16.3,8.6-26.9,10.2
	c5.2-9.1,13.8-14.9,18.7-24.3c-4,2.5-6.7,6.6-10.7,9.8c-3.7,3.2-8,5.8-12.3,8.6c-4.3,2.7-8.9,5.5-13.9,7.8v-10
	c2.8-3.8,5.3-8,7.5-11.9c4.3-7.4,11.1-11.9,15.3-18.7c-7.6,5-15,10.7-22.8,16.1V405c5.1-0.1,10.4-0.2,14.8-1.1
	c-2.4-2.4-6.8-2.2-10.7-2.6c-1.3-0.1-2.7-0.2-4.1-0.3v-22.4c3-1.1,6.1-2.1,9.2-2.9c6-1.6,13-0.8,17-4.7c-3-1.3-7.5,1.1-10.7-0.4
	c0.9-2.7,7.6-4,6-6.4h-0.4c-7.3,2.2-14.3,4.8-21.1,7.8v-6.8c8.2-1.9,16.8-3.5,25.8-5.2c-8.9-1.9-17-0.4-25.6-0.9h-0.2v-28.2
	c9.1,2.5,17.4,5.5,24.1,9c-2.5-5.5-12.9-6.7-18.4-10.7c5.4-1.9,14.7,0.1,19.2-2.6c-8.6,0-17.1-0.1-25-0.8v-31.2
	c2.4,1,5.2,1.6,7.9,2.2c-1.7-3.2-6-3.7-7.9-6.6v-2.4c2.3-2.2,8.1-2,8.8-4.2c-2.8,0.6-5.8,1.2-8.8,1.6V256
	C301.6,256.2,304.3,256.5,307.1,256.9z M401.3,394.4c2.1-4.1,4.1-8.4,5.5-13.2v-72.4c-9.2-11.4-21.7-20.5-39.7-22.6
	c4.5-3.2,11.2-4.1,17.5-5.5c-3.9-3.7-12.8-2.5-17.5-5.5c1.7-1.9,6.5-0.9,8.1-3c-5.5-1.1-13.7,0.6-18.4-1.3c2.7-1.8,7.3-1.5,8.6-4.7
	c-6.7-1.7-14.1-2.6-21.7-3.2v82.7c5.1,0.4,10.3,0.9,12.7,3.2c-4.1-0.5-5.7-1-10.7-0.9c0.3,2.4,3.4,2.1,3,5.1
	c-1.8,0.1-3.5,0.3-5.1,0.6v27c2.3-1.5,4.8-2.8,7.2-4.1c0.6,3.7-2.3,7.2-3,11.1c8.9-5,12.5-15.3,17.9-23.9
	c-0.6,12.7-5.8,24.4-9.4,35.4c4.8-4,8.1-11.9,12.8-14.5c-1.9,7-6,11.7-6.8,19.7c6.7-3.8,10.1-11.7,13.7-18.4
	c3.7-7,6.9-14.3,10.2-21.3c1.9,5.3,0.4,13.8,0.9,20.4c10.7-9.6,11.1-34.8,6.3-51.6c5.1,8.1,6.3,18.6,5.5,29
	c-0.7,10.7-7.1,19.5-8.5,27.6c-1.2,6.7-0.5,11.7-5.1,14.9c-0.2-7.7-0.6-15.3-3-20.9c-10.1,11.2-16.4,26.2-25.6,38.3
	c-0.8-6.1,1.7-12.8,1.3-19.9c-5,5.9-8.7,13-14.5,18.1v62.8c13.4-8.4,23.7-19.9,34.9-29c-6.5,7.1-13.8,13.5-18.7,22.6
	c-4.8,8.9-9.9,17.7-14.9,25.6c20.2-8.6,38.5-19.1,47.7-38.8c-4,16.4-13.3,30.6-21.7,42.6c-1.2,1.6-2.7,3.4-2.6,5.1
	c15.9-5.5,28.6-14.3,38.4-25.8v-45.6c-0.1,0.4-0.3,0.8-0.4,1.2c0.1-2.4,0.2-5,0.4-7.8v-43.1v-0.1
	C404.3,390.9,404.4,394.4,401.3,394.4L401.3,394.4z M357.8,383c-3.2,13.3-8.4,24.8-14,35.9v-23.3C348.3,391.1,352.7,386.7,357.8,383
	z M406.9,390.3v43.1C408.1,419.6,411,403.3,406.9,390.3L406.9,390.3z M412.4,405.5c0.4-9-0.3-22.5-5.1-25.6
	c-0.1,0.4-0.3,0.9-0.4,1.3v-72.4c1.9,2.2,3.5,4.5,5.1,6.8c9.7,14.4,17.7,32.8,20.4,53.6c-2.8-5.1-5.3-10.7-9.4-14.5
	c7.7,22.2,21.2,58.9,11.9,89c-3.2-3.7-2.4-11.4-5.9-14.9c3.8,18.7,0.9,45-9.9,54.1c-0.4-4.5,1-10.9-0.8-14
	c-3.4,6.1-7.1,11.7-11.5,16.8v-45.6C409.9,432.2,411.8,417.9,412.4,405.5z"/>
<g>
	<path class="st2" d="M495.3,627.2L414.6,604l-1.3-16.4c-85.5-12.6-163.8-11.3-235.4,3.5l-0.4,15.4l-80.2,20.6
		c4.2-13.5,10.8-23.5,18.9-31.7c-10.7-7.4-18.4-14.3-18.9-19.7l41.2-14.1v-22c93.9-27.7,209-30.5,316.4,0v22.8l40.3,13.3
		c3.7,3.2-12,13.7-18,20.5C483.3,606.6,493,615.8,495.3,627.2z"/>
	<path d="M410.9,607.1l-1.3-16c-81.8-11.7-158.4-10.6-227.7,3.3l-0.4,15.2l-90.1,23.1l2.1-6.8c3.6-11.5,9-21.3,16.6-29.9
		c-11.2-8.2-16.3-14.3-16.8-20l-0.3-3.1l41.5-14.2v-22.1l2.9-0.8c99.4-29.3,215.5-29.3,318.6,0l2.9,0.8v22.9l38.4,12.7l0.6,0.5
		c1.2,1.1,1.9,2.6,1.9,4.2c0,4.2-4.3,8.1-11.7,14.6c-2,1.8-4.1,3.6-5.8,5.2c1.5,2.4,3.3,4.8,5.1,7.2c5,6.9,10.1,13.9,11.8,22.3
		l1.3,6.5L410.9,607.1z M174.1,587.9l3.1-0.6c72-14.9,151.6-16.1,236.8-3.6l3.2,0.5l1.3,16.8l70.5,20.2c-2.1-4.2-5-8.2-8.1-12.4
		c-2.4-3.4-5-6.8-7.1-10.5l-1.4-2.5l1.9-2.2c2.2-2.5,5.4-5.3,8.6-8.1c2.3-2,5.8-5.1,7.7-7.2L451,565.3v-22.6
		c-100-27.8-212-27.8-308.4,0v21.8l-40,13.7c1.8,2.7,6.1,7.1,16,14l3.9,2.7l-3.4,3.4c-6.7,6.7-11.8,14.4-15.4,23.1l70-18
		L174.1,587.9z"/>
</g>
<g>
	<path class="st3" d="M158.3,603.1c-6.5-0.9-14.5-1.7-22.3-2.5c-1.9-10.3-0.4-24.3-0.9-36c-13.8,2.4-24.5,8.1-37.7,11.2
		c2.4,7,13.2,13,18.9,19.7c-6.2,10.7-13.5,20.2-18.9,31.7c19.4-6.8,39.6-12.8,60.9-17.7v3.1c-23.5,5.7-45.8,12.6-67.8,19.8
		c6.5-12.7,14.5-23.8,21.5-36.1c-6.2-8.1-15.3-13.2-21.5-21.4c15.3-4.5,30.1-9.4,44.6-14.6v-23.1c7.4-2.2,15.1-4.2,23.2-6v3.5
		c-6.8,1.6-13.4,3.3-19.7,5.1v57.5c6.3-1.8,12.9-3.5,19.7-5.1v3.3l-12.9,2.7c4,1.2,8.4,2,12.9,2.7V603.1z M178,604
		c0.2-2.8,0.4-9.6,0-12.9l-19.7,4.2V592c82.1-19,193.7-18.9,276-0.1v3.5c-6.1-1.3-12.5-2.3-18-4.2c-3.7,1.1-0.7,9-1.7,12.9
		c6.8-1,13.2-2.4,19.7-3.5v3.2c-4.3,0.6-8.6,1.2-12.8,2c4.2,1.2,8.5,2.3,12.8,3.5v3.2c-7.5-1.9-15.2-3.5-23.1-5v-17.1
		c-68-12.3-163.2-13.6-229.8,0.9v16.3c-7.8,1.6-15.6,3.2-23.1,5.1v-3.1c4.2-1,8.5-1.9,12.8-2.9c-1.2-1.5-6.2-2.6-12.8-3.5v-2.4
		C164.9,601.7,171.8,602.5,178,604L178,604z M434.4,531.1v3.2c-82.1-18.9-194.3-18.9-276,0.2v-3.5
		C240.9,512.2,351.8,512.2,434.4,531.1z M457.6,537.2v24c16.1,3.4,29.1,9.8,44.6,13.8c-5.6,8.9-16.1,13-21.4,22.2
		c8.2,10.9,14.8,23.5,22.2,35.2c-22.7-6.8-44.9-14.2-68.6-19.9v-3.2c20.8,5.5,42,10.6,60.9,17.9c-3.3-9.6-12.6-20.5-18-30.9
		c3.7-8.6,16.5-12.6,18-20.5c-13.3-3-23.8-8.9-37.7-11.2v35.1c-7.3,1.7-15.3,2.9-23.2,4v-3.2c4.2-0.6,8.4-1.3,12.9-1.7
		c-3.9-1.6-8.4-2.6-12.9-3.5v-3.5c7.1,1.7,14,3.4,20.6,5.3v-57.5c-6.6-1.9-13.5-3.7-20.6-5.3v-3.2
		C442.4,532.9,450.1,534.9,457.6,537.2z"/>
	<path d="M501.8,636.2c-5.7-1.7-11.4-3.5-17.1-5.2c-23.5-7.3-47.8-14.8-74.2-19.6l-3.3-0.6v-4.9l-3.7-1l3.7-0.6v-10.6
		c-70.4-12.2-160.4-11.9-221.8,0.8v16.3l-3.2,0.6c-32.8,6.4-62.7,15.7-90.5,24.8l-9.2,3l4.4-8.6c3.9-7.6,8.3-14.7,12.6-21.5
		c2.5-4,5.1-8.2,7.6-12.4c-2.5-2.8-5.4-5.3-8.4-8c-3.9-3.4-8-7-11.4-11.4l-3.5-4.6l5.6-1.6c13.6-4,27.3-8.4,41.8-13.6v-23.3l2.9-0.8
		c92.8-27.3,232.4-27.3,324.7,0l2.9,0.8v23.8c7.9,1.9,15.1,4.4,22.1,6.9c6.2,2.2,12.7,4.5,19.5,6.2l5.3,1.4l-3,4.7
		c-3.1,4.8-7.2,8.3-11.2,11.6c-3.2,2.7-6.3,5.3-8.7,8.4c4.7,6.5,8.9,13.6,13,20.4c2.5,4.2,5.1,8.6,7.8,12.8l5.9,9.1L501.8,636.2z
		 M142.8,605.3c-2.4-0.2-4.8-0.5-7.2-0.8l-2.9-0.3l-0.5-2.9c-0.2-1.1-0.4-2.2-0.5-3.3l-2.4-0.7l2.3-0.5c-0.6-5.8-0.4-12.3-0.3-18.6
		c0.1-2.9,0.1-5.9,0.1-8.7c-5.5,1.3-10.6,3.1-15.9,4.9c-3.8,1.3-7.7,2.7-11.7,3.8c1.9,2.2,4.6,4.5,7.2,6.7c3,2.5,6.1,5.1,8.4,7.9
		l1.8,2.2l-1.4,2.4c-2.3,4-4.8,7.8-7.2,11.5c-2.4,3.7-4.7,7.4-6.9,11.1c15.6-5.2,31.6-9.8,47.6-13.6
		C149.7,606,146,605.7,142.8,605.3z M477.3,574.4c-5.2-1.9-10.3-3.6-15.8-4.9v30.9l2.7,1.1l-2.7,0.2v1.2l-3.1,0.7
		c-5.6,1.3-11.6,2.3-17.6,3.2c1.5,0.4,3,0.8,4.5,1.2c14,3.7,28.5,7.4,42,12c-1.7-2.8-3.6-5.7-5.5-8.7c-2.9-4.3-5.8-8.8-8.1-13.2
		l-0.9-1.7l0.7-1.7c2.2-5.1,6.6-8.6,10.5-11.7c2-1.6,3.9-3.1,5.3-4.6C485.2,577.2,481.2,575.7,477.3,574.4z M418.5,596
		c0,0.8,0.1,1.6,0.2,2.2c0,0.4,0.1,0.8,0.1,1.1c2.6-0.4,5.1-0.9,7.6-1.4c0.2,0,0.3-0.1,0.5-0.1C424,597.3,421.2,596.7,418.5,596z
		 M165.9,597.8c2.8,0.4,5.5,0.8,8.3,1.4c0-1,0-2.1,0-3.1L165.9,597.8z M296.7,524.2c-0.1,0-0.2,0-0.4,0
		c-57.1,0-111.5,6.6-153.8,18.5v49.2c88.5-24.2,218.8-24.2,308.4,0v-49.2C408.4,530.8,353.8,524.2,296.7,524.2z"/>
</g>
<path class="st3" d="M224.6,270.6c0.7,3.6-7.8,6-8.5,11.1c-0.9,6.4,5.8,12.4,12,12.3c8.9-0.1,13.1-11.5,20.4-11.4
	c-4.3,5.5-15.3,21-27.3,15.8c-4.9-2.2-10.9-9.8-10.2-15.8C211.7,275.9,219.7,274.3,224.6,270.6z"/>
<g>
	<path class="st5" d="M342.6,350.2c-25.3-6.7-53.9-30.9-82.8-30.9c-14.3,0-17.4-15.7-30.9-15.7c-12.7,0-14.1-14.3-24.2-14.3
		c-5.3,0-22.5,11.7-24.7,16.3c-9.6,19.4-8.2,7,5.3,20.5c10.4,10.4,17.1,36.9,29.7,32.3c34.1-12.4,59.8,4.7,99.1-0.8
		c23.6-3.3-26.2,9.4-32.9,12c-24.8,9.7-50.8,27-68.8,45c-8.4,8.4-31.8,20.4-1.1,20.4c12.9,0,53.4-37.3,69.1-45.2
		C299.7,380.3,332.8,368,342.6,350.2z"/>
	<path class="st6" d="M196.2,431.6c-1-3,4.5-7.3,9.8-11.5c2.4-1.9,4.8-3.8,6.6-5.5c18.3-18.3,44.7-35.6,68.8-45
		c2.1-0.8,8.7-2.7,15.7-4.7c9.9-2.8,23.3-6.7,23.5-7.5c-0.1-0.1-0.8-0.3-6.2,0.4c-17.5,2.4-32.1,0.4-46.3-1.5
		c-17.4-2.4-33.9-4.6-52.8,2.3c-8.3,3.1-13.9-6.9-19.9-17.4c-3.1-5.5-6.3-11.2-10-14.9c-4.8-4.8-8-6.3-9.8-7.2
		c-1-0.5-1.5-0.7-1.7-1.2c-0.2-0.6,0.3-1.5,1.6-3.7c1-1.8,2.6-4.5,4.6-8.6c2.2-4.4,19.3-16.3,24.8-16.3c4.8,0,7.6,3.2,10.7,6.6
		c3.4,3.8,6.9,7.7,13.5,7.7c6.7,0,10.9,3.9,15,7.7c4.3,3.9,8.7,8,15.9,8c17.6,0,34.9,8.9,51.7,17.4c10.9,5.6,21.2,10.8,31.2,13.5
		l0.1,0l-0.1,0.1c-8.1,14.5-31.4,25.3-50.2,34c-4.3,2-8.3,3.8-11.8,5.6c-6.2,3.1-16.2,10.8-26.8,18.9
		c-16.2,12.3-34.5,26.3-42.3,26.3C202,435.2,197,434,196.2,431.6z M311.4,336.9c-16.7-8.6-34-17.4-51.6-17.4c-7.3,0-11.8-4.1-16-8.1
		c-4.2-3.9-8.3-7.6-14.8-7.6c-6.7,0-10.3-4-13.7-7.8c-3-3.4-5.8-6.5-10.5-6.5c-5.4,0-22.4,11.8-24.6,16.2c-2,4.1-3.6,6.8-4.6,8.6
		c-1.2,2-1.7,3-1.5,3.5c0.1,0.4,0.6,0.6,1.6,1.1c1.8,0.8,5.1,2.4,9.9,7.2c3.7,3.7,6.9,9.4,10,14.9c5.9,10.4,11.5,20.3,19.6,17.3
		c19-6.9,35.5-4.7,53-2.3c14.1,1.9,28.8,3.9,46.2,1.5c6.3-0.9,6.4-0.5,6.4-0.3c0.2,0.8-6.8,3-23.6,7.8c-7,2-13.5,3.9-15.7,4.7
		c-24.1,9.5-50.4,26.7-68.7,45c-1.8,1.7-4.2,3.7-6.6,5.6c-5.3,4.2-10.7,8.5-9.7,11.3c0.8,2.3,5.7,3.4,15.1,3.4
		c7.8,0,26.1-14,42.2-26.3c10.6-8.1,20.7-15.8,26.9-18.9c3.5-1.8,7.5-3.6,11.8-5.6c18.7-8.7,42-19.5,50.1-33.8
		C332.6,347.7,322.3,342.4,311.4,336.9z"/>
</g>
<path class="st3" d="M264.8,281.4c-7.1,2.8-13.4,6-19.4,10.5c-7.6,5.7-14.4,14-26.9,8.1c6.9,11.7,17.3,19.9,17.9,37.9
	c9.1-9.8-11.7-26.4,0.9-34.5c3.3,4.4,4.5,9.4,8.5,13.2c4,3.7,11.2,5.1,18.4,6.4l0.6,0.1v-5c-5.8,0.2-11.4-0.7-14.3-2.7
	c-3.4-2.4-6.2-11.9-4.2-17.4c2-5.7,8.8-7.8,15.3-9.8c-3.6,3-7,10.5,2.2,9.8c0.4,1.8,0.8,4.7-0.4,5.9c-3.6,0.4-3.9-2.6-7.7-2.1
	c-1.9,5.8,2.6,11.9,9.1,12.1V281.4z M268.5,287.2c14.2-3.4,19.2,16.1,12.7,24.7c-2.9,3.9-9.7,5.8-16.4,6.1v5
	c21.2,3.9,43.4,8.8,58.1,16.6c-2.4-5.5-12.9-6.8-18.3-10.7c5.4-1.9,14.7,0.1,19.2-2.6c-18.9,0-37.1-0.6-50.2-6.4
	c16.6,0.4,15.3-25,8.1-34.5c2.7-2.2,8.8-0.9,11.1-3.4c-5.1-1.3-12.6,0.2-16.2,0.4c3.9-5.1,13.8-4.1,18.3-8.6
	c-6.5-0.4-13.7,2-19.5,3.8c-3.7,1.2-7.2,2.4-10.5,3.6v32.4c0.8,0,1.6,0,2.4-0.1C278.2,311.6,277.2,291.3,268.5,287.2z"/>
<path class="st3" d="M307.6,283.4c-0.7,2.4-7.9,2-9.4,5.1c1.2,4.4,6.6,4.5,8.6,8.1c-5.9-1.3-11.8-2.4-13.6-7.7
	c-0.4-1.2-2.9-0.5-3-2.1C295.6,285.2,302,284.8,307.6,283.4z"/>
<path class="st2" d="M268.5,287.2c14.2-3.4,19.2,16.1,12.7,24.7c-5.4,7.3-24.6,7.6-30.7,3.4c-3.4-2.4-6.2-11.9-4.2-17.4
	c2-5.7,8.8-7.8,15.3-9.8c-3.6,3-7,10.5,2.2,9.8c0.4,1.8,0.8,4.7-0.4,5.9c-3.6,0.4-3.9-2.6-7.7-2.1c-2.1,6.4,3.7,13.3,11.5,12
	C278.2,311.6,277.2,291.3,268.5,287.2z"/>
<path class="st3" d="M205.4,303c-0.1,1.8-3.4,2.8-3.8,6c-0.6,3.7,1.2,7,4.7,8.1c0.2-2.6-1.9-4.8-0.4-7.3c7.1-2.5,15.8,14.7,6,15.3
	c-4.8,0.4-13.1-8.2-13.2-13.2C198.5,307.8,201.8,306.2,205.4,303z"/>
<path class="st5" d="M159.8,357.5c7.1-6.1,11.8-14.2,21.7-19.2c2.6-1.3,7.6-3.7,10.2-3c2.4,0.7,8.6,11.3,8.1,16.2
	c-0.5,4.7-8.4,10.2-12.4,13.2c-13.5,10.3-32.5,20.7-38.3,37.5c-20.2-29.2-1.2-76.2,28.1-82.7c2.5-0.5,9.6,5.9,9.8,7.3
	c0.6,4.3-12.5,12-14.9,14C166.4,345.9,162.4,350.6,159.8,357.5z"/>
<path class="st3" d="M271,330.7c-6.6,1.2-12-2.7-19.2-2.5c-1.4,6,3,9.7,4.2,14.5c-6.6-0.4-6-8.2-8.1-12.7c-1.6-3.5-4.4-3.4-6-6.4
	v-1.3C251.6,323.4,261.1,328.4,271,330.7z"/>
<path class="st3" d="M356.6,398.8c4.8-4,8.1-11.8,12.8-14.5c-1.9,6.9-6,11.7-6.8,19.6c6.7-3.7,10-11.6,13.6-18.3
	c3.7-7,7-14.3,10.2-21.3c1.9,5.3,0.4,13.8,0.9,20.4c10.7-9.6,11.2-34.9,6.4-51.6c5.1,8.1,6.3,18.6,5.5,28.9
	c-0.8,10.8-7.1,19.6-8.6,27.7c-1.2,6.6-0.5,11.7-5.1,14.9c-0.2-7.7-0.6-15.3-3-20.9c-10.1,11.2-16.4,26.2-25.6,38.3
	c-0.8-6.2,1.6-12.8,1.3-19.9c-5.5,6.4-9.5,14.4-16.2,19.5c6.3-12,12.2-24.4,15.8-39.2c-9.7,7.1-16.9,16.6-26.9,23.5
	c3.7-7.4,10.1-12,12-21.3c-2.5-1.2-3.9,2-6.4,2.2c3.5-5,9-7.8,14.5-10.7c0.6,3.7-2.3,7.2-3,11c8.9-5,12.5-15.3,17.9-23.8
	C365.4,376.2,360.3,387.9,356.6,398.8z"/>
<path class="st3" d="M356.6,348.6c-4.1-0.5-5.7-1-10.7-0.9c0.3,2.4,3.3,2.1,3,5.1c-6.4,0.2-11.2,2.2-16.6,3.4
	c1.8-2.7,6.3-2.7,8.1-5.5c-1.8-3.6-8.9-1.8-11.5-4.7c1.4-2.9,6.8-1.7,9.4-1.2C344.7,345.6,353.2,345.3,356.6,348.6z"/>
<path class="st7" d="M253.6,355.9h3.4c-0.9,1.2-1.7,2.5-3.8,2.5C253.1,357.4,253.9,357.2,253.6,355.9z"/>
<path class="st7" d="M262.1,359.2c-8.9,5.5-18.9,10.1-28.2,15.3c6.8-0.8,14.5-4.3,22.6-5.1c-10.3,3.9-20.7,7.7-31.5,11.1
	c6.6-9.4,21.3-14.5,32-21.3C258.7,360.2,260,359.1,262.1,359.2z"/>
<path class="st3" d="M320.4,363.9c1.5,2.3-5,3.7-6,6.4c3.1,1.5,7.7-0.9,10.7,0.4c-4.1,3.8-10.9,3-17.1,4.7
	c-15.8,4.2-30.8,12.4-46.8,17c2.4-3.5,8-6,12.8-8.5c14-7.3,29.2-15.1,45.9-20H320.4z"/>
<path class="st3" d="M407.3,379.7c4.8,3,5.5,16.6,5.1,25.6c-0.6,13-2.7,28.2-6,35.7c0.4-15.2,5.4-35.6,0.4-51
	c-2.6,0.6-2.4,4.1-5.5,4.2C403.6,389.6,405.9,385,407.3,379.7z"/>
<path class="st3" d="M165.7,318.6c-2.2-10.3,8.9-13.9,15.8-17.9c1.9-1.1,3.9-2.2,5.8-3.2v3.7c-5,3.7-9.8,8-12.6,13.5
	c4.8,2,8.9,4.7,12.6,7.8v13.6c-2.1,0.6-4.3,1.7-5.8,2.4c-9.9,5-14.6,13-21.7,19.2c2.6-6.9,6.6-11.7,12.4-16.6
	c2.4-2.2,15.6-9.7,14.9-14.1c-0.2-1.4-7.3-7.8-9.8-7.2c-29.2,6.6-48.4,53.5-28.2,82.7c5.8-16.6,24.6-27.1,38.2-37.4v4
	c-1,0.6-1.9,1.3-2.8,1.9c-14.8,9.9-29.3,21-34.5,40c-7.4-7.4-11.9-18.6-12.8-31.5c0-0.1,0-0.2,0-0.4v-9.7
	C138.7,346.3,151.8,328.4,165.7,318.6z M243.5,367v-3.6c-10.8,8-21.8,15.8-30,26.4c10.7-3.3,19.5-10.3,30-13.2v-2
	c-6,2.2-12.2,4.3-18.5,6.3C229,375.1,236.2,370.9,243.5,367L243.5,367z M243.5,372.6c-3.4,1-6.6,1.9-9.6,2.2
	c3.1-1.8,6.3-3.5,9.6-5.2V372.6L243.5,372.6z M187.3,297.5c4.4-2.4,8.4-4.6,11.7-6.6c1.6-3.3-2.8-7.3-2.2-11.4
	c0.8-5.4,12.1-9.9,17.5-12c9-3.6,18.8-6.6,29.2-8.9v3.4c-9.2,2.4-18,5.4-26.2,8.5c-8.9,3.5-21.5,8.4-11.5,17.1
	c1.2,0.9,4.2-0.1,5.1,0.9c-6,4.8-14,6.3-20.4,10.7c-1.1,0.7-2.1,1.4-3.2,2.2V297.5L187.3,297.5z M187.3,322.6
	c9.9,8.4,16.3,20.4,20.7,34.4c11.9-2,23.2-4.3,35.6-4.8v1.9c-4.8-0.1-9.9,0.9-14.3,2c-5,1.2-9,5.1-13.7,6c-3.6,0.6-6.8-1.7-10.2-1.7
	c-5.1-0.1-12.7,5-18.1,8.8v-4l0.2-0.1c4-3,11.8-8.6,12.3-13.2c0.6-5-5.6-15.6-8.1-16.2c-1.2-0.4-2.8-0.1-4.5,0.5V322.6L187.3,322.6z
	 M243.5,499.8c-1.4,0.3-3,0.5-4.5,0.7c1-2.2,2.7-4,4.5-5.7V499.8L243.5,499.8z M243.5,478.5c-3.9,1.8-7.9,3.5-12.2,4.9
	c3.4-3.5,7.6-7.3,12.2-11.4V478.5L243.5,478.5z M232.2,424.7c-5.5,4.5-13,10.5-20.4,11.4c-9.1,1.2-19.5-2.7-24.3-10.2
	c24.3-9.3,40.8-26.6,56-45.1v12.8c-2.4,2.2-5,4.4-7.5,6.4c-3.8,3.2-8,6.2-11.9,9.4c-3.9,3.2-8.7,6.1-10.7,11.1
	c8.6,1.2,13.3-4.9,19.6-7.3c-7.3,8.6-20,11.7-34.5,13.1c2.1,5,8.8,7.7,14.9,6.4c5.9-1.2,13-9.2,18.3-13.1c3.9-2.9,7.8-5.7,11.7-8.4
	v3C239.8,417.2,236.2,421.5,232.2,424.7z M255,360.8v-2.6c-0.5,0.4-1.2,0.5-1.9,0.5c0-1,0.7-1.2,0.4-2.5h1.5v-4
	c-4-0.1-7.8-0.1-11.5,0v1.9c1.2,0,2.4,0.1,3.6,0.3c1.2,0.2,4,0.3,4.3,3c-2.6,2-5.3,4-7.9,6v3.6C247.4,364.9,251.4,362.9,255,360.8
	L255,360.8z M243.5,374.6v2c1.3-0.4,2.7-0.6,4-0.9c-1.3,1.7-2.7,3.4-4,5v12.8c3.7-3.4,7.6-6.8,11.5-9.9v-13.4
	C251.2,371.8,247.4,373.2,243.5,374.6L243.5,374.6z M255,370c-4,0.5-7.8,1.7-11.5,2.7v-3c3.9-1.9,7.7-4,11.5-6V370L255,370z
	 M243.5,258.6c3.7-0.9,7.6-1.7,11.5-2.4v3c-3.9,0.8-7.8,1.7-11.5,2.7V258.6L243.5,258.6z M243.5,411.2c3.7-2.7,7.6-5.2,11.5-7.6v5.7
	c-2.7,0.7-5.3,1.5-7.9,2.7c-1.2,0.6-2.4,1.4-3.6,2.3V411.2L243.5,411.2z M243.5,472c3.7-3.4,7.7-6.9,11.5-10.7v3.6
	c-1.2,1.2-2.4,2.5-3.6,3.7c-1.9,1.9-4.8,3.7-4.3,5.5c2.7-1.2,5.3-2.5,7.9-4v2.8c-3.8,1.9-7.6,3.8-11.5,5.6V472L243.5,472z
	 M246.3,492c2.8-3.1,5.8-6.2,8.7-9.4v2.8c-2.7,3-5.3,5.9-7.9,8.7c-0.4,0.5-2.1,1.6-1.2,2.6c3.1-0.7,6.2-1.5,9.1-2.4v2.7
	c-3.7,1.1-7.5,2-11.5,2.7v-5C244.4,493.9,245.4,492.9,246.3,492z M256.9,359.5c1.7,0.9,3.1-0.1,5.2,0c-2.3,1.4-4.7,2.8-7.1,4.1v6.3
	c0.5-0.1,1-0.1,1.5-0.2l-1.5,0.6v13.4c1.4-1.2,3-2.2,4.5-3.3c17.4-12,40-15.5,65.2-20.4c-8.9-1.9-17-0.4-25.6-0.9
	c-14.9-0.6-28.7-5.9-42.5-6.8c-0.5-0.1-1-0.1-1.5-0.1v4h1.9c-0.6,0.7-1.1,1.5-1.9,2v2.6C255.7,360.3,256.3,360,256.9,359.5
	L256.9,359.5z M255,256.2c20.8-3.7,43.6-4.8,67.5-2.7c-1.3,1.7-4.3,1.6-5.5,3.4c22,0.6,42,1.7,64.4,2.5c1.2,1.3-4.3,3-5.5,4.7
	c5.8,0.2,11.7-1.8,17.4-0.4c-5.4,3.4-15.9,1.7-21.3,5.1c5.7,3.4,16.7-1.1,23,1.7c-4,3-12.5,1.4-17.1,3.9c7.3,2.2,17.1,1.9,24.8,3.8
	c-4.7,3.5-13.1,3.1-17.5,6.8c1.9,3,6.3,5.2,9.8,8.1c3.3,2.8,6.3,6.6,9.8,7.6c4.9,8.3,13.6,15.6,18.8,26c4.2,8.7,10.3,21.2,12.3,32
	c1.4,7.4,1.9,14.6,3.8,22.2c1.9,7.3,2.4,14.8,3.9,22.2c0.6,3.2,2.2,6.1,2.5,9.4c0.4,3.8,0.7,7.4,0.8,10.9v5.8
	c-1,38-22,59.3-42.6,78.7c3-6.6,8.6-14.2,11.1-22.6c-5.4,2.9-9.3,7.8-14,12c-13.8,11.8-30.8,22.4-52.4,26.9c0.9-4,6-5.6,9.4-8.6
	c9.6-8.3,18.1-19.7,23.8-32.4c-14.3,11.9-32.3,23.6-55.4,28.2c1.5-3,4.8-4.4,7.3-6.4c7.1-5.8,13.4-13.1,19.2-20.9
	c-5,1.7-9.6,5.3-14.9,6.8c-1.3,0.4-3,0-4.2,0.4c-6.7,2.3-12.8,6.6-20,7.6c-1.9-0.2-1.6-2.7-3.9-2.5c-9.5,4.8-25.1,5.8-38.2,5.5
	c9.9-5.5,19.4-11.4,24.6-21.7c-14,5.5-26.5,12.5-41.5,17v-2.7c27.1-8.4,46.3-25.8,66.6-39.4c-4.2,6.8-11,11.3-15.3,18.7
	c-4,6.9-8.6,14.8-14.4,19.7c-2.8,2.2-6.5,2.7-8.6,5.9c11.4-0.1,21-6.3,29.4-11.4c4.3-2.7,8.6-5.4,12.3-8.6c4-3.2,6.7-7.3,10.7-9.8
	c-5,9.4-13.5,15.1-18.7,24.3c28.9-4.5,44.1-24.9,61.8-39.2c-6.5,7.1-13.8,13.5-18.7,22.6c-4.8,8.9-9.9,17.7-14.9,25.6
	c20.2-8.6,38.5-19.1,47.7-38.8c-4,16.4-13.3,30.6-21.7,42.6c-1.2,1.6-2.7,3.4-2.6,5.1c23-7.9,39-22.7,49.9-42.6
	c1.8,3.2,0.4,9.6,0.8,14c10.7-9.1,13.7-35.4,9.9-54.1c3.5,3.5,2.7,11.2,5.9,14.9c9.3-30.1-4.2-66.7-11.9-89
	c4.1,3.8,6.6,9.4,9.4,14.5c-2.7-20.8-10.7-39.2-20.4-53.6c-9.6-14.4-23.4-27-44.8-29.4c4.5-3.2,11.2-4.1,17.5-5.5
	c-3.9-3.7-12.8-2.5-17.5-5.5c1.7-1.9,6.5-0.9,8.1-3c-5.5-1.1-13.7,0.6-18.4-1.3c2.7-1.8,7.3-1.5,8.6-4.7
	c-19.2-4.8-44.7-3.3-64.8-7.3c2.2-0.6,5.1-0.5,6.4-2.1c-18.1-2.4-35.7-1-52.1,2.4V256.2L255,256.2z M255,403.6v5.7
	c6.1-1.5,12.3-2.4,17.6-5c3.5,4.3,6.1,9.4,5.5,16.6c-1.2,15.9-11.7,29.2-23.2,40.4v3.6c4.3-4.5,8.8-9.4,12.5-14.6
	c6.6-9.1,10.6-20.1,17.9-28.2c3.7,2.9,2.7,10.4,4.2,15.3c3-11.3-2.2-21.5-3.8-31c7.8-2.2,19.3-0.8,27.6-2.5
	c-2.4-2.4-6.8-2.2-10.7-2.6c-9.6-0.9-21.9-0.9-31.5-2.1c5.7-5.3,15.1-6.8,21.7-11.1c-4-2.9-8.6,0.3-12,1.7
	C272.2,393.6,263.4,398.3,255,403.6L255,403.6z M255,472.9c4.9-2.4,9.7-5,14.7-7.3c-4.5,5.8-9.6,11.5-14.7,17v2.8
	c10.1-11.2,20.6-23.1,29.6-34.7c-9.2,5.8-18.9,13.5-29.6,19.4V472.9z"/>
<g>
	<polygon class="st5" points="207.9,356.6 180.3,368 151.8,362.6 156.6,332.4 175.2,314.7 200.7,324.2 	"/>
	<path class="st6" d="M151.7,362.7l4.8-30.3l0,0l18.6-17.7l0,0l25.7,9.5l7.2,32.5l0,0.1l-27.7,11.4l0,0L151.7,362.7z M200.6,324.3
		l-25.4-9.5l-18.5,17.6l-4.7,30.1l28.3,5.4l27.5-11.3L200.6,324.3z"/>
</g>
<path d="M169.1,571l-1.3-3.3l-3.3,0.5v-4l1.7-0.2l-1.7-4.3v-6.8l2.1-0.3l8.6,17.6L169.1,571L169.1,571z M164.5,550v-3.1l3-0.4
	L164.5,550z M164.5,568.2l-2.2,0.3l-0.4,3.5l-6,0.8l3.7-19.2l4.8-0.7v6.8l-0.3-0.5c-0.2-0.7-0.5-1.4-0.6-2h-0.1c0.1,0.2,0,0.6,0,1
	c-0.1,0.5-0.3,2.6-0.7,6.3l1.8-0.2V568.2L164.5,568.2z M164.5,546.9v3.1l-1,1.2l-3.9,0.6l3.2-4.7L164.5,546.9z"/>
<path d="M193.2,566.7c-0.6,0.5-1.7,1-3,1.4c-1.4,0.5-2.7,0.9-3.9,1c-3.2,0.4-5.8-0.1-7.8-1.5c-1.9-1.4-3.1-3.5-3.5-6.5
	c-0.2-1.9,0-3.7,0.7-5.3c0.6-1.7,1.8-3,3.3-4c1.5-1,3.4-1.6,5.5-1.9c1.6-0.2,3.4-0.2,5.3,0.1l0.6,4.8c-0.9-0.3-1.7-0.4-2.5-0.5
	c-0.9-0.1-1.7,0-2.6,0.1c-1.6,0.2-2.7,0.8-3.5,1.9c-0.8,1-1.1,2.3-0.9,3.9c0.1,1.6,0.7,2.7,1.6,3.5c0.9,0.8,1.9,1.1,3.3,0.9
	c0.6-0.1,1.2-0.1,1.4-0.3l-0.4-2.6l-3.5,0.4l-0.5-4.2l9.1-1.1L193.2,566.7z"/>
<path d="M211.5,557.2c0.3,3-0.1,5.2-1.4,6.8c-1.2,1.6-3.2,2.5-6,2.8c-2.6,0.3-4.7-0.2-6.2-1.5c-1.5-1.3-2.4-3.4-2.7-6.3l-1.1-10.2
	l5.6-0.6l1.1,10.4c0.1,1.2,0.4,2,1,2.7c0.5,0.6,1.2,0.8,1.9,0.7c0.9-0.1,1.4-0.4,1.8-1.1c0.4-0.6,0.5-1.6,0.4-2.7l-1.2-10.4l5.6-0.6
	L211.5,557.2z"/>
<polygon points="215.9,565.5 214.3,547 219.9,546.5 221.5,565 "/>
<path d="M236.9,563.7l-1.1-3.4l-3.1,0.2v-4l1.8-0.1l-1.7-5c-0.1-0.1-0.1-0.3-0.1-0.4v-5.7l2.9-0.2l7.3,18.1L236.9,563.7z
	 M232.7,560.6l-2.4,0.1l-0.6,3.5l-6,0.4l5.1-18.9l4-0.3v5.7c-0.1-0.6-0.3-1.1-0.4-1.6h-0.1c0,0.2-0.1,0.5-0.1,1
	c-0.1,0.5-0.4,2.6-1.2,6.2l1.8-0.1V560.6z"/>
<path d="M266.1,561.4c-1.6,0.6-3.3,1-5.3,1.1c-2,0-3.7-0.3-5.2-1c-1.4-0.6-2.6-1.7-3.4-3.1c-0.8-1.4-1.2-3-1.3-4.8
	c-0.1-1.9,0.3-3.7,1.1-5.3c0.8-1.6,1.9-2.8,3.5-3.7c1.5-0.9,3.3-1.4,5.3-1.4c1.6-0.1,3.2,0.1,4.7,0.4l0.1,5.2
	c-0.5-0.3-1.2-0.5-1.9-0.6c-0.7-0.1-1.4-0.2-2.2-0.1c-1.5,0-2.7,0.5-3.5,1.4c-0.9,0.9-1.3,2.2-1.2,3.6c0.1,1.5,0.5,2.7,1.4,3.5
	c0.9,0.9,2.1,1.2,3.6,1.2c1.3-0.1,2.7-0.5,4-1.2L266.1,561.4z"/>
<path d="M286.5,552.3c0.1,1.9-0.3,3.5-1.1,5s-1.9,2.7-3.3,3.5c-1.4,0.8-3,1.2-4.8,1.3h-0.1v-4.8h0.1c0.6,0,1.2-0.2,1.7-0.6
	s0.9-0.9,1.2-1.7c0.3-0.7,0.4-1.6,0.4-2.5c0-1.5-0.4-2.7-0.9-3.6c-0.6-0.9-1.4-1.3-2.4-1.3l0,0v-4.8l0,0c1.7,0,3.4,0.4,4.8,1.1
	c1.4,0.8,2.5,1.9,3.3,3.3C286,548.8,286.5,550.5,286.5,552.3z M277.2,562.1c-1.7,0-3.3-0.4-4.8-1.2c-1.4-0.7-2.5-1.8-3.4-3.2
	c-0.8-1.4-1.2-3-1.2-4.8c-0.1-1.9,0.3-3.6,1.1-5.1c0.8-1.5,1.9-2.7,3.3-3.6c1.4-0.8,3.1-1.3,5-1.3v4.8c-1.2,0.1-1.9,0.5-2.6,1.3
	c-0.6,0.9-0.9,2.1-0.9,3.7c0,1.4,0.4,2.7,1,3.5c0.6,0.9,1.4,1.2,2.4,1.2V562.1z"/>
<path d="M306.3,561.4v-10.2c0-0.9,0-2,0.1-3.2l0.1-0.9h-0.1c-0.3,1.4-0.5,2.4-0.6,3l-2.7,11.2h-5.2l-2.9-11
	c-0.1-0.3-0.3-1.3-0.6-3.2H294c0.1,2.9,0.2,4.8,0.2,5.5v8.7h-5v-18.6h8.4l2.5,10.1c0,0.2,0.1,0.6,0.2,1.3c0.1,0.6,0.1,1.2,0.1,1.4
	h0.1c0.1-0.7,0.2-1.7,0.4-2.7l2.4-10.1h8.3v18.6H306.3z"/>
<path d="M331.6,556.7c-0.1,1.8-0.8,3.2-2.1,4.1s-3.2,1.4-5.5,1.3h-0.6v-3.8c0.6,0,1.2-0.1,1.5-0.4c0.5-0.4,0.7-0.8,0.7-1.4
	c0-0.5-0.1-0.9-0.5-1.3c-0.4-0.4-0.9-0.6-1.5-0.6h-0.2v-3.8c0.5,0,0.9-0.1,1.3-0.4c0.4-0.3,0.6-0.7,0.6-1.2c0-1-0.6-1.6-1.9-1.8
	v-3.7h0.6c5,0.1,7.3,1.7,7.3,4.8c0,0.6-0.2,1.2-0.5,1.7c-0.4,0.6-0.9,1-1.5,1.4c-0.6,0.4-1.4,0.6-2.1,0.8v0.1
	c0.9,0.1,1.7,0.4,2.3,0.9c0.7,0.4,1.2,0.9,1.6,1.6C331.4,555.3,331.6,555.9,331.6,556.7z M323.3,562.1l-7.8-0.3l0.6-18.6l7.2,0.3
	v3.7c-0.2,0-0.4-0.1-0.7-0.1h-1l-0.1,3.5h1.6c0.1,0,0.2,0,0.3,0v3.8l-2-0.1l-0.1,3.7l1.9,0.1c0.1,0,0.2,0,0.3,0V562.1z"/>
<path d="M345.4,563.2l-0.6-3.5l-2.6-0.1v-4l1.8,0.1l-1-5.1c-0.1-0.7-0.3-1.4-0.3-2.1h-0.1c0,0.2-0.1,0.5-0.2,1
	c0,0.1-0.1,0.2-0.1,0.4v-5.5l4.3,0.2l5,18.9L345.4,563.2z M342.2,559.6l-3-0.1l-1,3.4l-6-0.4l7.3-18.2l2.7,0.1v5.5
	c-0.2,0.8-0.8,2.7-1.7,5.6l1.7,0.1V559.6z"/>
<polygon points="364.4,550.7 363.1,564.8 357.5,564.3 358.8,550.2 353.6,549.8 353.9,545.4 370,546.7 369.6,551.1 "/>
<polygon points="370.6,565.7 372.9,547.2 384.4,548.6 383.9,553 377.9,552.3 377.6,554.9 383.2,555.6 382.7,560 377.1,559.3 
	376.7,562 383.1,562.8 382.5,567.1 "/>
<path d="M397.9,569.3l-5.3-9.8c-0.4-0.8-0.8-1.4-1-2.1h-0.1c-0.1,0.9-0.2,1.9-0.4,3.1l-1.1,7.7l-5.1-0.7l2.6-18.4l5.2,0.7l5,9.3
	c0.1,0.1,0.1,0.3,0.3,0.4c0.1,0.1,0.1,0.4,0.2,0.5c0.1,0.2,0.2,0.4,0.3,0.6c0.1,0.1,0.1,0.3,0.1,0.4h0.1c0-0.4,0.1-1.1,0.2-1.9
	l1.2-8.3l5.1,0.7l-2.6,18.4L397.9,569.3z"/>
<polygon points="418,558.7 415.6,572.6 410,571.7 412.5,557.7 407.4,556.8 408.2,552.5 424,555.3 423.2,559.6 "/>
<polygon points="422.9,574.2 426.5,556 437.9,558.2 437,562.5 431.2,561.4 430.6,564.1 436.2,565.1 435.3,569.4 429.8,568.3 
	429.3,571 435.6,572.2 434.7,576.5 "/>
</svg>
