<?xml version="1.0" encoding="utf-8"?>
<!-- Generator: Adobe Illustrator 21.0.2, SVG Export Plug-In . SVG Version: 6.00 Build 0)  -->
<svg version="1.1" id="Camada_1" xmlns="http://www.w3.org/2000/svg" xmlns:xlink="http://www.w3.org/1999/xlink" x="0px" y="0px"
	 viewBox="0 0 595 842" style="enable-background:new 0 0 595 842;" xml:space="preserve">
<style type="text/css">
	.st0{fill-rule:evenodd;clip-rule:evenodd;fill:#303C8C;}
	.st1{fill-rule:evenodd;clip-rule:evenodd;fill:#349061;}
	.st2{fill-rule:evenodd;clip-rule:evenodd;fill:#FFFFFF;}
	.st3{fill-rule:evenodd;clip-rule:evenodd;}
	.st4{fill-rule:evenodd;clip-rule:evenodd;fill:#CBB36D;}
	.st5{fill-rule:evenodd;clip-rule:evenodd;fill:#D8D9DD;}
	.st6{fill:#C2C3C9;}
	.st7{fill-rule:evenodd;clip-rule:evenodd;fill:#E2AC52;}
</style>
<g>
	<path class="st0" d="M305.6,175.4c-144.2,0-261.2,112.4-261.2,251s117,251,261.2,251c144.1,0,261.1-112.4,261.1-251
		S449.8,175.4,305.6,175.4z"/>
	<path d="M118.2,606.7C68,558.5,40.4,494.5,40.4,426.3c0-68.1,27.6-132.2,77.8-180.4c50.1-48.1,116.7-74.6,187.5-74.6
		c70.8,0,137.3,26.5,187.4,74.6c50.1,48.2,77.7,112.2,77.7,180.4S543.1,558.5,493,606.7c-50.1,48.1-116.6,74.6-187.4,74.6
		C234.8,681.3,168.3,654.8,118.2,606.7z M48.4,426.3c0,136.2,115.4,247,257.2,247c68.7,0,133.2-25.7,181.8-72.4
		c48.5-46.7,75.3-108.7,75.3-174.6c0-65.9-26.7-127.9-75.3-174.6c-48.6-46.7-113.1-72.4-181.8-72.4
		C163.8,179.4,48.4,290.2,48.4,426.3z"/>
</g>
<path class="st1" d="M305.6,199.8c-130.2,0-235.8,101.5-235.8,226.6c0,125.1,105.6,226.6,235.8,226.6
	c130.1,0,235.7-101.4,235.7-226.6C541.4,301.3,435.7,199.8,305.6,199.8z"/>
<path class="st0" d="M305.6,609c-104.7,0-190.1-82.1-190.1-182.7s85.4-182.7,190.1-182.7c104.6,0,190,82.1,190,182.7
	S410.2,609,305.6,609z"/>
<g>
	<path class="st2" d="M305.6,255.6c-98.1,0-177.8,76.5-177.8,170.8c0,94.3,79.6,170.9,177.8,170.9c98.1,0,177.6-76.5,177.6-170.9
		C483.3,332.1,403.7,255.6,305.6,255.6z"/>
	<path d="M236.4,583.9c-21.2-8.6-40.2-20.9-56.5-36.6c-16.3-15.7-29.2-34-38.1-54.3c-9.3-21.1-14-43.5-14-66.5
		c0-23.1,4.7-45.4,14-66.5c9-20.3,21.8-38.6,38.1-54.3c16.3-15.7,35.4-28,56.5-36.6c21.9-8.9,45.2-13.4,69.2-13.4
		c24,0,47.3,4.5,69.2,13.4c21.2,8.6,40.2,20.9,56.5,36.6c16.3,15.7,29.1,34,38.1,54.3c9.3,21.1,14,43.4,14,66.5
		c0,23.1-4.7,45.5-14,66.5c-9,20.4-21.8,38.6-38.1,54.3c-16.3,15.7-35.3,28-56.5,36.6c-21.9,8.9-45.2,13.4-69.2,13.4
		C281.6,597.3,258.3,592.8,236.4,583.9z M236.5,269.1c-21.2,8.6-40.2,20.9-56.5,36.6c-16.3,15.7-29.1,33.9-38.1,54.3
		c-9.3,21-14,43.4-14,66.4c0,23,4.7,45.4,14,66.4c9,20.3,21.8,38.6,38.1,54.3c16.3,15.7,35.3,28,56.5,36.6
		c21.9,8.9,45.2,13.4,69.1,13.4c24,0,47.2-4.5,69.1-13.4c21.1-8.6,40.1-20.9,56.4-36.6c16.3-15.7,29.1-33.9,38.1-54.3
		c9.3-21,14-43.4,14-66.4c0-23-4.7-45.4-14-66.4c-8.9-20.3-21.7-38.6-38.1-54.3c-16.3-15.7-35.3-28-56.4-36.6
		c-21.9-8.9-45.1-13.4-69.1-13.4C281.7,255.7,258.4,260.2,236.5,269.1z"/>
</g>
<g>
	<path class="st3" d="M270.1,388.5c9.4,53.9-218.9,226-82.1,167.5c48.2-20.6,107.8-9.9,163.1-9.9c40.5,0,89.9,2.2,115.7,16.8
		c52.8,29.9,61.3-104.2-115.7-143.4C331.3,415.2,287.9,389.5,270.1,388.5z"/>
	<path d="M138.4,570.8c-5.6-7.9,0.2-18.2,11.3-32.2c9-11.3,22.1-25.6,36-40.7c18.4-20,39.2-42.6,54.5-62.8
		c20.2-26.7,23.2-39.3,22.1-45.2l-1.7-9.9l10.1,0.6c11.4,0.6,28.9,8.7,47.6,17.3c13.1,6,26.7,12.3,34.7,14.1
		c46.3,10.2,83.8,27.5,111.6,51.3c22.4,19.2,37.4,42.1,42.1,64.5c4,19-0.1,35.1-10.9,42.9c-5.2,3.8-16.3,8.7-32.9-0.7
		c-24.9-14.2-75.7-15.8-111.7-15.8c-14.3,0-29-0.7-43.2-1.4c-40.6-2-82.5-4-116.7,10.6c-14,6-24.5,9.7-32.2,11.4
		c-1.9,0.4-5.2,1.2-8.7,1.2C146,576,141.3,574.9,138.4,570.8z M308.7,536.8c14,0.7,28.6,1.4,42.5,1.4c41.1,0,91.8,2,119.6,17.9
		c3.7,2.1,10.7,5.2,15.5,1.7c4.4-3.2,7.6-12.8,4.6-26.7c-11.7-55.9-83.6-90.7-141.6-103.5c-9.7-2.2-23.4-8.5-37.9-15.1
		c-11.6-5.3-24.4-11.2-33.6-14.1c-4.7,26.2-36.9,63.1-80.4,110.4c-15.9,17.3-36.8,40-43.2,50.9c4.8-1,13.8-3.6,30.7-10.9
		c24.8-10.6,52.4-13.3,80.5-13.3C279.8,535.4,294.3,536.1,308.7,536.8z"/>
</g>
<g>
	<path class="st2" d="M544.2,666.1l-96.5-27.7l-1.5-19.7c-102.3-15-196.1-13.5-281.7,4.2l-0.4,18.4l-96,24.7c5-16.1,13-28.2,22.6-38
		c-12.7-8.9-22-17-22.6-23.5l49.2-16.8v-26.3c112.4-33.2,250.3-36.6,378.7,0v27.2l48.2,15.9c4.4,3.9-14.3,16.4-21.5,24.6
		C529.9,641.5,541.5,652.6,544.2,666.1z"/>
	<path d="M444,641.5l-1.5-19.2c-98.6-14.2-190.8-12.8-274.1,4l-0.4,18.3L62.1,671.8l2.1-6.9c4.4-13.9,11-25.8,20.4-36.2
		c-13.7-9.9-19.9-17.2-20.5-23.8l-0.3-3.2l49.5-16.9v-26.4l2.9-0.8c118.9-35.1,257.7-35.1,380.9,0l2.9,0.8v27.3l46.3,15.3l0.6,0.5
		c1.3,1.2,2,2.7,2,4.5c0,4.7-5,9.3-13.8,17c-2.6,2.3-5.2,4.6-7.3,6.7c1.9,3,4.1,6,6.4,9.1c5.9,8.2,12.1,16.6,14.1,26.5l1.3,6.5
		L444,641.5z M160.6,619.7l3.1-0.6c85.9-17.8,181.2-19.3,283.1-4.3l3.2,0.5l1.5,20.1l86.6,24.9c-2.5-5.6-6.4-11.1-10.5-16.7
		c-2.9-4-5.9-8.1-8.4-12.3l-1.5-2.5l1.9-2.2c2.6-2.9,6.4-6.3,10.1-9.5c3.2-2.8,8.1-7,10.2-9.7L492,591.5v-27.1
		c-120.1-33.6-254.9-33.6-370.7,0v26.1L73.1,607c2,3.5,7.3,9.1,19.8,17.8l3.9,2.7l-3.3,3.4c-8.4,8.6-14.7,18.2-19.2,29.5l85.9-22.1
		L160.6,619.7z"/>
</g>
<g>
	<path class="st3" d="M140.9,637.2c-7.7-1-17.4-1.9-26.6-3c-2.4-12.4-0.4-29-1.1-43.1c-16.6,3-29.3,9.7-45.1,13.4
		c3,8.4,15.8,15.6,22.6,23.5c-7.4,12.8-16.2,24.3-22.6,38c23.2-8.2,47.4-15.4,72.9-21.2v3.7c-28.1,6.8-54.7,15.2-81.1,23.8
		c7.7-15.3,17.4-28.5,25.6-43.1c-7.4-9.6-18.3-16-25.6-25.7c18.3-5.3,36-11.2,53.4-17.4v-27.7c8.9-2.6,18.1-5,27.7-7.2v4.1
		c-8.1,1.9-16,4-23.6,6.2v68.8c7.6-2.2,15.5-4.2,23.6-6.1v3.9l-15.4,3.2c4.8,1.4,10.1,2.4,15.4,3.2V637.2z M164.5,638.4
		c0.2-3.3,0.4-11.4,0-15.4l-23.6,5v-3.9c98.3-22.8,231.9-22.6,330.5-0.1v4c-7.3-1.4-15-2.7-21.5-5c-4.5,1.3-0.9,10.7-2.1,15.4
		c8.1-1.2,15.7-2.8,23.6-4.2v3.9c-5.2,0.7-10.4,1.4-15.4,2.4c5.1,1.4,10.2,2.8,15.4,4.2v3.7c-9-2.2-18.2-4.2-27.7-5.9V622
		c-81.4-14.8-195.3-16.3-275,1v19.5c-9.4,1.8-18.6,3.9-27.7,6v-3.7c5.1-1.2,10.2-2.3,15.4-3.4c-1.4-1.9-7.4-3.1-15.4-4.2v-2.8
		C148.9,635.6,157.1,636.6,164.5,638.4L164.5,638.4z M471.4,551.1v3.9c-98.2-22.5-232.6-22.7-330.5,0.2v-4.1
		C239.8,528.6,372.5,528.5,471.4,551.1z M499.1,558.3V587c19.2,4.1,34.8,11.7,53.4,16.4c-6.8,10.7-19.2,15.7-25.6,26.7
		c9.9,13,17.7,28.2,26.7,42.1c-27.2-8.2-53.7-17-82.2-23.9v-3.7c24.8,6.6,50.2,12.7,72.9,21.5c-3.9-11.4-15-24.6-21.5-36.9
		c4.4-10.4,19.7-15.1,21.5-24.6c-15.9-3.6-28.4-10.6-45.1-13.4v42.1c-8.8,2-18.3,3.4-27.7,4.8v-3.9c5-0.8,10-1.6,15.4-1.9
		c-4.7-1.9-9.9-3.2-15.4-4.3v-4c8.5,1.9,16.7,4,24.6,6.3v-68.8c-7.9-2.3-16.1-4.4-24.6-6.4v-3.9C481,553.3,490.2,555.7,499.1,558.3z
		"/>
	<path d="M552.4,676.1c-6.7-2-13.4-4.1-19.9-6.1c-28.4-8.8-57.7-17.8-89.5-23.6l-3.3-0.6V640l-1.6-0.5l1.6-0.3v-14
		c-84.5-14.8-193.2-14.5-267,0.9v19.6l-3.2,0.6c-39.4,7.6-75.1,18.9-108.3,29.7l-9.1,3l4.3-8.6c4.6-9.2,10-17.7,15.2-25.9
		c3.1-4.9,6.2-9.9,9.2-15c-3.1-3.6-6.7-6.8-10.5-10.1c-4.7-4.1-9.5-8.4-13.5-13.6l-3.5-4.6l5.6-1.6c15.9-4.6,32.5-9.9,50.5-16.4
		v-27.9l2.9-0.8c53.3-15.7,122.3-24.3,194.1-24.3c0.1,0,0.2,0,0.2,0c71.8,0,140.7,8.6,193.9,24.3l2.9,0.8v28.5
		c9.5,2.3,18.2,5.3,26.6,8.2c7.6,2.7,15.5,5.4,23.7,7.5l5.4,1.4l-3,4.7c-3.6,5.7-8.6,9.8-13.3,13.8c-4.1,3.4-7.9,6.6-10.8,10.6
		c5.8,7.9,10.9,16.5,15.8,24.8c3,5.1,6.2,10.3,9.4,15.3l5.9,9.1L552.4,676.1z M122.8,639.2c-3-0.3-6-0.6-9-1l-2.9-0.3l-0.6-2.9
		c-0.3-1.4-0.5-2.9-0.7-4.4l-0.5-0.1l0.4-0.1c-0.8-7.1-0.6-15-0.5-22.8c0.1-3.9,0.2-7.8,0.1-11.6c-7,1.6-13.3,3.8-19.9,6.1
		c-4.9,1.7-10,3.5-15.3,5c2.4,3,6.1,6.1,9.7,9.2c3.5,2.9,7.1,6,9.9,9.2l1.9,2.2l-1.4,2.5c-2.8,4.8-5.8,9.4-8.7,13.9
		c-3.1,4.9-6.3,9.8-9.3,15c21.2-7.1,42-13.1,63.1-18C133.9,640.4,127.8,639.7,122.8,639.2z M522.9,602.1c-6.6-2.3-12.8-4.6-19.8-6.1
		v38.7l0.6,0.3l-0.6,0.1v1.4l-3.1,0.7c-7.9,1.8-16.5,3.2-24.8,4.4c2.9,0.8,5.8,1.5,8.7,2.3c17.6,4.6,35.8,9.3,52.7,15.2
		c-2.3-4.1-5.1-8.4-7.9-12.6c-3.3-5.1-6.8-10.3-9.5-15.4l-0.9-1.7l0.7-1.7c2.5-5.9,7.7-10.1,12.4-13.8c2.8-2.2,5.5-4.4,7.2-6.6
		C533.1,605.7,527.9,603.9,522.9,602.1z M466.2,631c-4.9-1-10-1.9-14.7-3.3c0,1.2,0.1,2.8,0.2,3.8c0.1,0.7,0.1,1.4,0.2,2.2
		c3.3-0.6,6.6-1.2,9.9-1.8c1.5-0.3,3.1-0.6,4.6-0.9C466.3,631.1,466.2,631,466.2,631z M145.5,631.1c0.7,0.1,1.4,0.2,2.1,0.3
		c4.3,0.6,8.8,1.3,13.1,2.1c0-1.8,0.1-3.8,0-5.6L145.5,631.1z M306.6,542.1c-0.2,0-0.3,0-0.5,0c-68.7,0-134.1,7.9-184.9,22.3v60.5
		c106.3-29.3,263.3-29.3,370.7,0v-60.5C440.9,550.1,375.2,542.1,306.6,542.1z"/>
</g>
<g>
	<path class="st3" d="M348.7,256.1c-3.8,0-7-2.8-7-6.3c0-3.5,3.2-6.3,7-6.3c3.7,0,6.9,2.8,6.9,6.3
		C355.6,253.3,352.4,256.1,348.7,256.1z"/>
	<path d="M341.6,249.8c0-3.6,3.2-6.4,7.1-6.4c3.9,0,7,2.9,7,6.4c0,3.5-3.1,6.4-7,6.4C344.8,256.2,341.6,253.3,341.6,249.8z
		 M341.8,249.8c0,3.4,3.1,6.2,6.9,6.2c3.7,0,6.8-2.8,6.8-6.2c0-3.4-3.1-6.2-6.8-6.2C344.9,243.6,341.8,246.4,341.8,249.8z"/>
</g>
<g>
	<path class="st2" d="M349.6,249.9c-1.2,0-2.2-0.9-2.2-2.1c0-1.2,1-2,2.2-2c1.2,0,2.2,0.9,2.2,2
		C351.8,248.9,350.8,249.9,349.6,249.9z"/>
	<path d="M347.4,247.8c0-1.2,1-2.1,2.3-2.1c1.3,0,2.3,0.9,2.3,2.1c0,1.2-1,2.2-2.3,2.2C348.4,250,347.4,249,347.4,247.8z
		 M347.6,247.8c0,1.1,0.9,2,2.1,2c1.2,0,2.1-0.9,2.1-2c0-1.1-0.9-1.9-2.1-1.9C348.5,245.9,347.6,246.7,347.6,247.8z"/>
</g>
<g>
	<path class="st4" d="M405.6,343.3c0,17.8-15.1,41,0.9,57c21.5,21.3-10.7,17.9,7.1,23.1c17,5.3,25,14.3,49,38.3
		c9.9,9.8,21.4,25.8,31.2,35.6c0.9,0.9-70.4,17.9-88.3,17.9c-12.5,0-32.1,4.5-48.1,4.5c-23.2,0,13.3,12.5-21.5,12.5
		c-24.8,0-53.4-5.3-66.7-11.6c-12.5-6.2-33-17.8-33-27.6c0-8-14.3,19.7-14.3,2.7c0-58.8-15.2-121.2-15.2-186.3
		C206.8,232.8,405.6,252.4,405.6,343.3z"/>
	<path d="M267.5,524.2c-18.9-9.4-30.1-17.8-33.8-25.6c-3.6,4-7.3,7.9-11.5,6.3c-4.2-1.6-4.2-7.1-4.2-9.2c0-28.4-3.5-57.3-7.3-87.9
		c-3.9-31.8-7.9-64.7-7.9-98.3c0-16.6,8.6-30.2,24.8-39.3c14.1-7.9,33.2-12.1,55.3-12.1c30.2,0,60.9,7.8,84.4,21.5
		c27.7,16.1,42.3,38.2,42.3,63.9c0,6.2-1.6,12.8-3.2,19.3c-3.3,13.2-6.3,25.6,2.9,34.9c6.5,6.5,9.3,11.7,8.8,16.4
		c-0.3,2.6-1.5,4.5-2.8,5.9c16.4,5.3,24.9,13.8,45.2,34.2c1.6,1.6,3.2,3.2,5,5c5.1,5,10.6,11.7,15.9,18.1
		c5.2,6.3,10.6,12.8,15.4,17.5l1.9,2.1l-1,2.4c-0.9,2-1,2.3-14.2,5.6c-7.5,1.9-17.1,4.1-26.3,6.1c-14.7,3.2-40.9,8.5-51.4,8.5
		c-5.6,0-12.9,1-20.6,2c-9.2,1.2-18.7,2.5-27.5,2.5c-1.3,0-2.2,0-3,0.1c1.1,1.9,2.3,4.5,0.8,7.3c-2,3.7-7.2,5-19.2,5
		C311.6,536.2,282.2,531,267.5,524.2z M347.1,527.2c-1.1-1.7-3-4.6-1.3-7.6c1.7-3.2,5.9-3.8,11.7-3.8c8.2,0,17.5-1.2,26.4-2.4
		c8-1.1,15.6-2.1,21.7-2.1c14.6,0,64.2-11.3,81-15.7c-3.7-4.1-7.6-8.8-11.4-13.4c-5.2-6.3-10.6-12.8-15.4-17.5c-1.7-1.7-3.4-3.4-5-5
		c-20.1-20.1-27.6-27.7-42.4-32.3c-3.9-1.1-7.9-2.3-8.4-5.9c-0.5-3.1,2-4.7,3.5-5.7c1.5-1,2.5-1.7,2.6-2.6c0.1-0.7-0.2-3.6-6.5-9.9
		c-12.5-12.5-8.5-28.5-5-42.5c1.5-6.2,3-12.1,3-17.3c0-15.8-6.6-38.5-38.3-57c-22-12.8-52-20.4-80.4-20.4
		c-20.4,0-38.6,3.9-51.4,11.1c-13.7,7.7-20.7,18.6-20.7,32.3c0,33.1,4,65.8,7.9,97.4c3.8,30.7,7.3,59.6,7.3,88.4
		c0.8-0.8,1.5-1.7,2.1-2.3c3.2-3.6,5.7-6.4,9.1-5.1c1.1,0.4,3.1,1.7,3.1,5.2c0,4.2,8.1,12.8,30.7,24c11.8,5.5,39.3,11.2,65,11.2
		c6.4,0,9.6-0.5,11.2-0.8C347.2,527.3,347.2,527.2,347.1,527.2z"/>
</g>
<g>
	<path class="st5" d="M400,372.6c-1.9-0.9-21.4,17.6-27.6,19.4c-5.7,1.9-4.8,3.4-4.8-5.2c0-1.9-35.6,7.1-43.3,9.5
		c-1.4,0.4,16.6-15.2,4.3-10.4c-9.5,3.7-17.6,6.1-17.6-2.9c0-10-28.5,0.9-42.3,0.9c-10.9,0,18.1-11.9,1.9-11.9
		c-10.9,0-8.6,2.9-8.6-12.8c0-5.7-9,6.6-9,6.6c-10,17.1-6.7-18.1-11.9-18.1c-2.9,0-3.8,19.1-7.1,17.1c-3.3-2.4-1.4-17.1-3.3-20.9
		c-2.9-6.2-1.4,14.7-6.2,7.1c-45.6-69,24.7-79.8,91.7-79.8c38.5,0,47.5,23.8,73.2,43.2C425.2,341.2,392.4,348.9,400,372.6z"/>
	<path class="st6" d="M322.6,397.4c-0.9-1.4-0.1-2.2,2.4-4.8c1-1,3-3.1,4.5-4.8c0,0,0,0-0.1,0c-6.9,2.7-13.4,4.9-17.3,2.3
		c-2-1.3-3-3.7-3-7c0-0.8-0.3-1.1-0.5-1.3c-2.7-2.2-13.2-0.1-21.7,1.6c-6.5,1.3-13.1,2.6-18.1,2.6c-1.1,0-3.7,0-4.4-2.1
		c-0.8-2.3,1.5-4,5-6.6c1.1-0.8,2.8-2.1,3.8-3.1c-0.5-0.1-1.3-0.1-2.4-0.1c-1.7,0-3.1,0.1-4.2,0.1c-2.5,0.1-4.2,0.2-5.4-1
		c-1.3-1.3-1.3-3.1-1.1-7.1c0.1-1.5,0.1-3.2,0.1-5.3c-1.4,1.3-3.5,3.7-5.3,6.2c-1.8,3.1-4,6.1-6.8,5.5c-3.5-0.7-4.3-6.3-5.2-13.4
		c-0.3-2.4-0.8-6-1.4-8c-0.5,1.5-1,3.9-1.4,5.6c-1.3,5.9-2.1,9.3-4.3,10.2c-0.8,0.4-1.8,0.3-2.6-0.2l-0.2-0.1
		c-2.5-1.8-2.9-6.3-3.1-13.5c0-0.6,0-1.1-0.1-1.7c-0.5,1.8-1.3,3.2-2.8,3.5c-2.2,0.4-3.6-1.8-4-2.5c-14.7-22.2-18.5-40.3-11.3-53.8
		c14.1-26.2,66.5-29.2,104.6-29.2c28.5,0,41.1,12.5,55.8,26.9c5.6,5.5,11.5,11.3,18.6,16.7c23.3,17.4,18.6,28,14,38.3
		c-2.7,6.1-5.5,12.4-2.8,20.7l1.5,4.5l-3.6-1.8c-1.6,0.9-6,4.4-9.6,7.3c-7.9,6.4-13.8,11-17.1,12c-0.9,0.3-1.7,0.6-2.3,0.9
		c-1.4,0.6-2.7,1.1-3.9,0.3c-1.3-0.9-1.3-2.2-1.2-5.1c0-0.4,0-0.8,0-1.3c-6.8,0.7-33.4,7.4-40.7,9.6l-1.6,0.4L322.6,397.4z
		 M368.8,385.1c0.6,0.4,0.9,1.1,0.9,1.7c0,1.3,0,2.3,0,3.2c0,0.3,0,0.6,0,0.9c0.6-0.2,1.3-0.5,2.2-0.8c2.9-0.9,10.4-6.9,15.8-11.3
		c5.1-4.1,8-6.4,9.9-7.5c-2.2-8.9,0.8-15.7,3.5-21.7c4.5-10,8-18-12.7-33.5c-7.4-5.6-13.3-11.4-19-17c-14-13.8-26.2-25.8-53-25.8
		c-58.2,0-91.3,8.9-101.1,27.1c-6.4,12-2.8,28.5,10.9,49.3c0.2-1,0.4-2.2,0.6-3.1c0.5-3.3,0.9-5.5,2.9-5.8c1.9-0.3,2.8,1.7,3,2.2
		c1,2,1.1,5.6,1.3,9.7c0.1,2.5,0.2,6.5,0.7,8.8c0.5-1.7,1.1-4.2,1.5-6c1.3-6,2.2-10,5.2-10c3.8,0,4.5,5.6,5.5,12.8
		c0.4,3.2,1.1,8.4,2,9.8c0.4-0.3,1.3-1.2,2.6-3.5l0.1-0.2c7.2-9.9,9.7-9.1,10.6-8.8c0.7,0.2,2,1,2,3.4c0,2.9-0.1,5.2-0.1,7
		c-0.1,1.7-0.1,3.3,0,4c0.5,0,1.5,0,2.3-0.1c1.2-0.1,2.6-0.1,4.4-0.1c3,0,6.1,0.3,6.9,2.6c0.9,2.7-2.2,5-5.8,7.8
		c-0.6,0.4-1.3,1-1.9,1.5c4.4-0.2,10.4-1.4,16.2-2.5c11.2-2.2,20.9-4.2,25-0.8c1.3,1.1,2,2.6,2,4.4c0,1.9,0.4,3.2,1.2,3.7
		c2.5,1.7,10-1.3,13.6-2.7c1.8-0.7,5.2-2,6.6,0.2c1.3,1.9-0.2,4.2-4,8.3c4.8-1.3,11.1-2.9,17-4.3c12.1-2.9,17-3.6,19.2-3.6
		C368.1,384.6,368.5,384.9,368.8,385.1z M274.2,374.5L274.2,374.5L274.2,374.5z M260.2,359L260.2,359L260.2,359z"/>
</g>
<g>
	<path class="st3" d="M490.4,376.9c15.4-35.3,8.9-66.2-37.7-80.9c-24.8-51.1-147.7-47.6-259.4-93c0.1,12.6,7.3,23.8,21.7,33.5
		l-26.4-3.5c2.8,8.4,9.9,15.3,26,18.9l-12.8,0.7c1.1,5.8,4.5,9.9,13.2,10l-6.4,9.9l4.2,7.8v13.2c32.1,8.9,64.2,10.2,96.3,0
		l27.4,16.8c9.5,9.9,15.7,21.2,18.5,33.8l20.7,11.8c32-4.6,71.1-3,112.7,1.1L490.4,376.9z"/>
	<path d="M486.5,358.8c-48-4.6-83.2-4.9-110.6-0.9l-0.7,0.1l-22-12.6l-0.2-0.9c-2.7-12.2-8.7-23.2-17.8-32.7l-26.4-16.2
		c-30.4,9.4-62,9.3-96.5-0.3l-1.5-0.4v-14.2l-4.6-8.4l5.2-8.1c-6.6-1-10.4-4.8-11.7-11.4l-0.4-2.2l4.1-0.2
		c-8.8-3.8-14.3-9.3-16.8-16.8l-1-3l21.9,2.9c-10.8-9-16.3-19.2-16.4-30.5l0-3l2.8,1.1c44.8,18.2,91.6,28.6,132.9,37.7
		c62.2,13.8,111.5,24.7,127.2,55.5c21.2,6.9,35.3,17.5,41.7,31.7c6.4,14.2,5.2,31.6-3.6,51.7l-3,6.9L486.5,358.8z M216.1,234.8
		l7.1,4.8l-31.3-4.2c3.7,7.1,11.2,11.8,23.2,14.5l14.1,3.1l-24.8,1.4c1.1,3.2,3.7,6,10.7,6.1l3.6,0.1l-7.7,12l3.9,7.3v12.2
		c33.5,9.1,64.2,8.9,93.7-0.4l0.9-0.3l28.4,17.4l0.2,0.2c9.5,9.9,15.9,21.3,18.8,33.9l19.3,11c27.9-3.9,63.7-3.6,112.5,1.2l1.6,0.2
		l1.4,13.4c5.6-15.9,5.8-29.6,0.6-40.9c-6-13.3-19.5-23.3-40.1-29.8l-0.8-0.3l-0.4-0.8c-14.4-29.7-63.2-40.5-124.9-54.1
		c-40.5-9-86.3-19.1-130.6-36.7C196.6,216.6,203.6,226.3,216.1,234.8z"/>
</g>
<g>
	<path class="st7" d="M430.9,277.8c0.8,7.1-11.7,16.6-18.4,16.6c-21.3,0-23.8-17.9-43-17.9c-10,0-17.1-2.9-28.4,1.3
		c-7.5,2.4-28.4,9.6-28.4,16.3c0,2.4,20.4,13.8,24.2,15.4c13,6.3,16.7,44.6,27.9,44.6h44.6c7.1,0,33,0.4,24.6-7.9
		c-23-23,14.6-17.9,20.9-33.4C460.9,298.3,447.1,279,430.9,277.8z"/>
	<path d="M410.6,356.1l-45.6,0c-7.1,0-10.9-10.1-15.4-21.7c-3.6-9.5-7.8-20.4-13.4-23.1c-2.1-0.9-8.2-4.2-13.7-7.5
		c-11.7-7-11.7-8.5-11.7-9.7c0-3.6,3.1-9.5,29.7-18.1c8.4-3.1,14.5-2.5,20.9-1.9c2.6,0.2,5.3,0.5,8.2,0.5c10.1,0,15.9,4.6,21.5,9
		c5.8,4.6,11.2,8.9,21.5,8.9c3.5,0,9.4-3.4,13.2-7.6c2.2-2.5,3.4-5,3.2-6.8l-0.3-2.4l2.4,0.2c8.8,0.7,17.6,6.4,22.9,14.9
		c4.7,7.6,5.8,15.9,3,22.9c-2.7,6.8-10.4,9.9-17.1,12.7c-5.3,2.2-10.3,4.2-10.9,7.3c-0.5,2.5,1.7,6.3,6.7,11.3
		c2.6,2.6,2.5,4.6,1.9,5.9c-1.9,4.5-11.8,5.4-26.2,5.4C411.1,356.1,410.9,356.1,410.6,356.1z M428.7,287.5c-4.6,5.1-11.5,9-16.2,9
		c-11.6,0-18.2-5.2-24-9.7c-5.3-4.2-10.4-8.2-19-8.2c-3.1,0-5.8-0.3-8.5-0.5c-6.2-0.6-11.6-1.1-19.2,1.7
		c-23.4,7.6-26.6,12.5-26.9,14c2.3,2.7,18.6,12,23,14c7.1,3.4,11.3,14.5,15.4,25.3c3.4,9,7.3,19.2,11.6,19.2h44.6l1,0
		c21.2,0.1,23.1-2.5,23.3-3c0,0,0-0.5-1.1-1.5c-6.1-6.1-8.6-10.9-7.8-14.9c1-5.2,7-7.6,13.3-10.2c6.3-2.6,12.8-5.3,14.9-10.5
		c2.3-5.8,1.3-12.8-2.7-19.2c-4.2-6.8-10.9-11.5-17.7-12.7C432.3,283,430.4,285.6,428.7,287.5z"/>
</g>
<g>
	<path class="st2" d="M486.1,356.8c-4.9-6.5-17.1-11.3-25.5-11.3c-8.1,0-15.8-3.2-24.3-3.2c-1.6,0-10.3-1.3-7.7-1.3
		c8.4,0,17.7,5.8,27.1,5.8C461.2,346.8,483.5,352.3,486.1,356.8z"/>
	<path d="M485.3,356c-4.4-4.3-24.3-9.2-29.6-9.2c-4.8,0-9.7-1.5-14.3-3c-1.7-0.5-3.3-1-4.9-1.5c-0.1,0-0.1,0-0.2,0
		c-0.7,0-2.9-0.3-4.6-0.5c-3.7-0.5-3.7-0.7-3.7-0.8c0-0.1,0.2-0.2,0.6-0.2c2.6,0,5.2,0.5,7.9,1.3c4.2,0,8.3,0.9,12.2,1.6
		c3.9,0.8,7.9,1.6,11.8,1.6c7.7,0,19.5,4.3,24.9,10.5c0.3,0.3,0.5,0.6,0.7,0.9l-0.2,0.1C485.8,356.6,485.6,356.3,485.3,356z
		 M441.4,343.6c4.7,1.5,9.5,3,14.3,3c2.9,0,9.9,1.4,16.3,3.3c3.6,1.1,9.2,2.9,12.3,5c-5.7-5.6-16.5-9.4-23.7-9.4
		c-4,0-8-0.8-11.9-1.6c-3.7-0.7-7.5-1.5-11.4-1.6C438.7,342.8,440,343.2,441.4,343.6z M428.5,341.1c1.2,0.3,5.1,0.9,7,1
		C433.2,341.5,430.9,341.1,428.5,341.1C428.6,341.1,428.6,341.1,428.5,341.1z"/>
</g>
<g>
	<path class="st3" d="M428.6,341c-3.2-1.6-13.9-3.9-17.4-3.9c-4.2,0-9.7-1.9-14.5-1.9c-6.1,0-20-2.5-23.8,1.3
		c-1.7,1.7,2.2,5.2,3.2,5.2c3,0-0.3-4.2,1.9-4.2C395.2,337.4,411.6,339.3,428.6,341z"/>
	<path d="M372.5,338.4c-0.3-0.8-0.3-1.5,0.2-2c2.9-2.9,11.3-2.2,18-1.7c2.2,0.2,4.4,0.3,5.9,0.3c2.5,0,5.2,0.5,7.8,1
		c2.4,0.5,4.7,0.9,6.7,0.9c3.4,0,14.1,2.3,17.5,3.9l0.5,0.3l-0.6-0.1c-2.1-0.2-4.2-0.4-6.2-0.6c-15.1-1.5-29.3-2.9-44.5-2.9
		c-0.3,0-0.5,0.1-0.6,0.2c-0.2,0.3-0.2,0.9,0,1.5c0.1,0.8,0.2,1.5-0.2,2c-0.2,0.3-0.6,0.4-1.2,0.4
		C375.3,341.7,373.2,339.9,372.5,338.4z M422.4,340.2c1.8,0.2,3.7,0.4,5.6,0.5c-3.9-1.6-13.5-3.6-16.8-3.6c-2,0-4.3-0.4-6.8-0.9
		c-2.6-0.5-5.3-1-7.8-1c-1.6,0-3.7-0.2-5.9-0.3c-6.7-0.5-15-1.2-17.8,1.6c-0.4,0.4-0.5,1-0.2,1.8c0.6,1.6,2.7,3.2,3.3,3.2
		c0.5,0,0.8-0.1,1-0.3c0.3-0.4,0.2-1.1,0.1-1.8c-0.1-0.7-0.2-1.3,0.1-1.7c0.2-0.2,0.4-0.3,0.7-0.3
		C393.1,337.3,407.3,338.7,422.4,340.2z"/>
</g>
<g>
	<path class="st3" d="M367.8,311.3c-8.6,0-15.7-6.7-15.7-15c0-8.2,7.1-15,15.7-15c8.6,0,15.7,6.8,15.7,15
		C383.5,304.6,376.5,311.3,367.8,311.3z"/>
	<path d="M352,296.3c0-8.3,7.1-15.1,15.8-15.1s15.8,6.8,15.8,15.1s-7.1,15.1-15.8,15.1S352,304.6,352,296.3z M352.3,296.3
		c0,8.2,7,14.9,15.6,14.9s15.6-6.7,15.6-14.9s-7-14.9-15.6-14.9S352.3,288.1,352.3,296.3z"/>
</g>
<g>
	<path class="st3" d="M438.6,300.4l0.4,0.9c0,0.4,0.6,1.2,0.6,1.6c0,0.6,1.1,1.7,1.3,2.9c0,0.2,0.2,2.4,0.2,2.4c0,0.2-3.7,1.2-4,1.2
		c-1.1,0-2.2,0-3.3,0c-1.1,0-9.9-0.2-10.2-1.2c0-0.2,0-1.5,0-1.7c0-1.4,2-1.6,2.9-1.8c0.2,0,0.9-0.9,1.3-0.9c0.7,0,0.2-0.4,0.9-0.4
		c1.5,0,3.5-2.2,5-2.2c0.2,0,0.4-0.4,0.9-0.4C436,300.6,437,300.6,438.6,300.4z"/>
	<path d="M423.7,308.1v-1.7c0-1.3,1.6-1.6,2.6-1.8c0.1,0,0.3-0.1,0.4-0.1c0.1,0,0.2-0.2,0.4-0.3c0.3-0.3,0.6-0.6,0.9-0.6
		c0.3,0,0.3-0.1,0.4-0.2c0.1-0.2,0.2-0.3,0.6-0.3c0.7,0,1.6-0.6,2.5-1.1c0.9-0.6,1.8-1.1,2.6-1.1c0.1,0,0.1-0.1,0.2-0.1
		c0.2-0.1,0.4-0.3,0.6-0.3c1.1,0,2.2,0,3.8-0.2l0.1,0l0.5,0.9l0,0c0,0.2,0.2,0.5,0.3,0.7c0.2,0.3,0.3,0.6,0.3,0.8
		c0,0.3,0.2,0.7,0.5,1.1c0.3,0.5,0.7,1.1,0.8,1.8c0,0.2,0.1,1.6,0.2,2.4c0,0.4-4,1.3-4.1,1.3h-3.3
		C433.8,309.4,423.9,309.3,423.7,308.1z M440.9,305.8c-0.1-0.6-0.5-1.2-0.8-1.7c-0.3-0.5-0.5-0.9-0.5-1.2c0-0.2-0.2-0.5-0.3-0.7
		c-0.2-0.3-0.3-0.6-0.3-0.8l-0.4-0.8c-1.5,0.2-2.6,0.2-3.8,0.2c-0.2,0-0.4,0.1-0.5,0.2c-0.1,0.1-0.2,0.2-0.4,0.2
		c-0.7,0-1.6,0.6-2.5,1.1c-0.9,0.6-1.8,1.1-2.6,1.1c-0.3,0-0.3,0.1-0.4,0.2c-0.1,0.2-0.2,0.3-0.6,0.3c-0.2,0-0.5,0.3-0.8,0.5
		c-0.3,0.2-0.4,0.3-0.5,0.3c0,0,0,0,0,0c-0.1,0-0.3,0.1-0.4,0.1c-1,0.2-2.4,0.5-2.4,1.6l0,1.7c0.2,0.7,7.2,1.1,10,1.1h3.3
		c0.3,0,3.5-0.8,3.8-1.1C441.1,307.8,440.9,305.9,440.9,305.8z"/>
</g>
<g>
	<path class="st2" d="M365.8,294.2c-2.2,0-4-1.7-4-3.7c0-2.1,1.8-3.8,4-3.8c2.2,0,4,1.7,4,3.8C369.8,292.6,368,294.2,365.8,294.2z"
		/>
	<path d="M361.6,290.5c0-2.2,1.9-3.9,4.1-3.9s4.1,1.8,4.1,3.9c0,2.1-1.9,3.9-4.1,3.9S361.6,292.6,361.6,290.5z M361.8,290.5
		c0,2,1.8,3.6,3.9,3.6c2.2,0,3.9-1.6,3.9-3.6c0-2-1.8-3.7-3.9-3.7C363.6,286.8,361.8,288.4,361.8,290.5z"/>
</g>
<g>
	<path class="st3" d="M393,407.3c0,16.2-54.7,19-67,17.4c-6-0.9-14-0.3-19.1-2.9c-3.1-1.4-8.6-4.8-3.7,0
		C319.1,437.7,401.8,424.3,393,407.3z"/>
	<path d="M303.2,421.8c-2-2-2.1-2.3-1.9-2.5c0.2-0.3,1.2,0.1,3.5,1.3c0.8,0.4,1.6,0.8,2.2,1.1c3.5,1.8,8.2,2.1,12.9,2.3
		c2.2,0.1,4.3,0.3,6.2,0.5c5.4,0.7,18.5,0.6,31.2-1c20.2-2.5,28.7-6.8,32.4-9.9c2.2-1.9,3.3-4,3.3-6.3v-0.4l0.2,0.4
		c1.6,3.1,0.3,6.3-3.8,9.3c-7.8,5.7-25.6,10.5-44.4,12c-4.1,0.3-8.1,0.5-11.8,0.5C318.6,429,307.8,426.5,303.2,421.8z M389.7,413.7
		c-3.7,3.2-12.3,7.5-32.5,10c-12.7,1.5-25.8,1.7-31.2,1c-1.9-0.3-4-0.4-6.2-0.5c-4.6-0.3-9.4-0.6-12.9-2.4c-0.7-0.3-1.5-0.7-2.2-1.1
		c-1.2-0.6-3-1.5-3.2-1.3c0,0.1,0,0.4,1.9,2.3c5.8,5.8,21.3,8.3,41.5,6.6c18.7-1.5,36.5-6.3,44.2-12c3.9-2.8,5.2-5.7,3.9-8.6
		C392.9,409.9,391.8,411.9,389.7,413.7z"/>
</g>
<g>
	<path class="st3" d="M399.7,421.4c0,16.3-54.8,19.2-67,17.4c-6-0.9-14-0.3-19.1-2.9c-3.1-1.4-8.5-4.8-3.7,0
		C325.9,452,408.6,438.6,399.7,421.4z"/>
	<path d="M309.9,436.1c-2-2-2-2.4-1.9-2.6c0.2-0.3,1.2,0.1,3.4,1.2c0.8,0.4,1.6,0.8,2.3,1.1c3.5,1.8,8.2,2,12.9,2.3
		c2.2,0.1,4.3,0.3,6.2,0.5c5.3,0.7,18.4,0.6,31.1-1c20.2-2.5,28.8-6.8,32.4-10c2.2-1.9,3.4-4.1,3.4-6.4V421l0.2,0.4
		c1.6,3.2,0.3,6.3-3.8,9.3c-7.8,5.7-25.6,10.5-44.4,12c-4.1,0.3-8.1,0.5-11.8,0.5C325.4,443.3,314.5,440.7,309.9,436.1z M396.4,428
		c-3.7,3.2-12.3,7.5-32.5,10c-12.7,1.6-25.9,1.7-31.2,1c-1.9-0.3-4-0.4-6.2-0.5c-4.6-0.3-9.5-0.6-12.9-2.4c-0.7-0.3-1.5-0.7-2.3-1.1
		c-1.2-0.6-2.9-1.5-3.1-1.3c0,0.1,0,0.4,1.9,2.3c5.8,5.8,21.3,8.3,41.6,6.6c18.7-1.5,36.5-6.4,44.3-12c3.9-2.8,5.2-5.8,4-8.7
		C399.7,424.1,398.5,426.1,396.4,428z"/>
</g>
<g>
	<path class="st3" d="M411.8,428.4c3.2,16-49.8,29.7-62.2,30.5c-6,0.3-13.8,2.4-19.3,1c-3.3-0.8-9.4-3.1-3.6,0.7
		C345.5,473,423.9,443.4,411.8,428.4z"/>
	<path d="M326.7,460.6c-2.4-1.6-2.5-2-2.4-2.2c0.2-0.4,1.2-0.1,3.8,0.6c0.8,0.2,1.6,0.5,2.3,0.6c3.7,1,8.3,0.3,12.8-0.3
		c2.3-0.3,4.4-0.6,6.4-0.7c5.4-0.3,18.2-3.1,30.3-7.2c19.3-6.4,26.8-12.4,29.8-16.2c1.8-2.3,2.5-4.7,2-6.9l-0.1-0.4l0.3,0.3
		c2.2,2.8,1.6,6.1-1.9,9.9c-6.5,7.1-23,15.4-41.1,20.6c-11,3.2-20.7,4.8-28.4,4.8C334.5,463.6,329.7,462.6,326.7,460.6z
		 M409.9,435.5c-3,3.9-10.6,9.8-29.9,16.3c-12.1,4.1-25,6.8-30.4,7.2c-2,0.1-4.2,0.4-6.4,0.7c-4.5,0.6-9.2,1.3-12.9,0.3
		c-0.7-0.2-1.5-0.4-2.3-0.6c-1.3-0.4-3.4-1-3.5-0.7c0,0,0,0.4,2.3,1.9c6.8,4.5,22.6,3.9,42.1-1.8c18.1-5.2,34.5-13.5,41-20.6
		c3.2-3.6,4-6.7,2.2-9.3C412.3,431,411.6,433.2,409.9,435.5z"/>
</g>
<g>
	<path class="st3" d="M425.3,442.1c3.2,15.9-49.8,29.6-62.2,30.4c-6,0.4-13.8,2.5-19.3,1c-3.4-0.8-9.4-3-3.6,0.7
		C359,486.7,437.4,457.1,425.3,442.1z"/>
	<path d="M340.1,474.3c-2.4-1.6-2.5-1.9-2.4-2.1c0.2-0.4,1.2-0.1,3.8,0.6c0.8,0.2,1.6,0.5,2.3,0.6c3.8,1,8.5,0.4,13.1-0.3
		c2.2-0.3,4.2-0.6,6.1-0.7c5.4-0.3,18.2-3.1,30.4-7.2c19.3-6.4,26.8-12.4,29.8-16.2c1.8-2.3,2.5-4.6,2-6.9l-0.1-0.4l0.3,0.3
		c2.2,2.7,1.6,6.1-1.9,9.8c-6.4,7.1-23,15.4-41.1,20.6c-11,3.2-20.8,4.8-28.5,4.8C347.9,477.3,343.2,476.3,340.1,474.3z
		 M423.4,449.2c-3,3.9-10.5,9.8-29.9,16.3c-12.2,4.1-25,6.8-30.4,7.2c-1.9,0.1-4,0.4-6.1,0.7c-4.6,0.7-9.4,1.3-13.2,0.3
		c-0.7-0.2-1.5-0.4-2.3-0.6c-1.3-0.4-3.4-0.9-3.5-0.7c0,0.1,0.1,0.4,2.4,1.9c6.8,4.5,22.6,3.9,42.1-1.8c18.1-5.2,34.6-13.5,41-20.6
		c3.2-3.5,3.9-6.6,2.1-9.2C425.8,444.7,425.1,446.9,423.4,449.2z"/>
</g>
<g>
	<path class="st3" d="M440.7,457.1c3.2,15.9-49.8,29.7-62.2,30.4c-6,0.4-13.8,2.5-19.3,1c-3.3-0.7-9.3-3-3.6,0.8
		C374.4,501.7,452.8,472.1,440.7,457.1z"/>
	<path d="M355.5,489.4c-2.4-1.6-2.5-2-2.4-2.2c0.2-0.4,1.2-0.1,3.6,0.5c0.9,0.2,1.7,0.5,2.5,0.6c3.8,1,8.5,0.4,13.1-0.3
		c2.2-0.3,4.2-0.6,6.1-0.7c5.3-0.3,18.1-3.1,30.3-7.1c8.7-2.9,24.1-8.9,29.8-16.2c1.8-2.3,2.5-4.7,2-6.9l-0.1-0.4l0.3,0.3
		c2.2,2.8,1.6,6.1-1.9,9.9c-6.5,7.1-23,15.4-41.1,20.6c-11,3.2-20.7,4.8-28.4,4.8C363.3,492.4,358.6,491.4,355.5,489.4z
		 M438.7,464.2c-3,3.9-10.6,9.8-29.9,16.3c-12.7,4.2-25.1,6.8-30.4,7.1c-1.9,0.1-4,0.4-6.1,0.7c-4.6,0.7-9.4,1.3-13.2,0.3
		c-0.8-0.2-1.6-0.4-2.5-0.6c-1.3-0.4-3.2-0.9-3.3-0.7c0,0,0,0.4,2.3,1.9c6.8,4.5,22.6,3.9,42.1-1.8c18.1-5.2,34.5-13.5,41-20.6
		c3.2-3.6,4-6.7,2.2-9.3C441.2,459.7,440.5,461.9,438.7,464.2z"/>
</g>
<g>
	<path class="st3" d="M458,473.4c3.2,16-49.9,29.7-62.2,30.4c-6,0.4-13.8,2.5-19.3,1c-3.4-0.7-9.4-3-3.7,0.8
		C391.7,518,470,488.4,458,473.4z"/>
	<path d="M372.7,505.6c-2.4-1.6-2.5-2-2.4-2.2c0.2-0.4,1.2-0.1,3.6,0.5c0.9,0.2,1.8,0.5,2.6,0.7c3.8,1,8.5,0.4,13.1-0.3
		c2.2-0.3,4.2-0.6,6.1-0.7c5.3-0.3,18.1-3.1,30.2-7.1c8.7-2.9,24.1-8.8,29.8-16.2c1.8-2.4,2.5-4.7,2.1-7l-0.1-0.4l0.3,0.3
		c2.2,2.8,1.6,6.1-1.9,9.9c-6.5,7.1-23,15.4-41.1,20.6c-11,3.2-20.7,4.8-28.4,4.8C380.6,508.6,375.8,507.6,372.7,505.6z M456,480.5
		c-3,3.9-10.6,9.8-29.9,16.3c-12.2,4.1-25,6.8-30.3,7.1c-1.9,0.1-4,0.4-6.1,0.7c-4.6,0.7-9.4,1.3-13.2,0.3c-0.8-0.2-1.7-0.4-2.6-0.7
		c-1.3-0.3-3.2-0.9-3.3-0.6c0,0,0,0.4,2.3,1.9c6.9,4.5,22.6,3.9,42.1-1.8c18.1-5.2,34.5-13.5,41-20.6c3.3-3.6,4-6.7,2.2-9.3
		C458.5,476,457.7,478.2,456,480.5z"/>
</g>
<g>
	<path class="st3" d="M278.8,419.9c-2.9,0-6.7,0-9.5,0c-6.2,0-18.1-6.1-23.3-9.5c-1.9-1.4-3.8-3.8-5.7-4.8
		c-3.3-2.4-7.1-7.6-9.1-11.4l-3.7-7.6c1.9,0,3.7,9.5,4.2,10.9c0.9,1.9,0.9,6.6,1.4,9c2.4,7.6,14.3,16.1,22.8,18
		c2.8,0.5,9.9,1.4,12.3,0.5c1.9-0.9,4.3-0.9,5.3-2.9C274,421.2,276.4,418.9,278.8,419.9z"/>
	<path d="M255.9,424.6c-8.4-1.8-20.5-10.3-22.9-18.1c-0.2-0.9-0.3-2.1-0.4-3.4c-0.2-2.2-0.4-4.4-1-5.6c-0.1-0.3-0.3-1-0.5-1.9
		c-0.2-0.8-0.5-1.9-0.8-3.1l-3-6.1h0.2c1.1,0,2.1,2.8,3,6.1l0.8,1.6c1.9,3.7,5.7,8.9,9,11.3c1.2,0.6,2.4,1.7,3.5,2.8
		c0.7,0.7,1.5,1.4,2.2,1.9c5.9,3.8,17.4,9.5,23.3,9.5h7.1c0.8-0.3,1.6-0.3,2.4,0l0.5,0.2h-2.9c-1.3,0.5-2.4,1.6-2.8,2.2
		c-0.7,1.4-2,1.8-3.4,2.3c-0.6,0.2-1.3,0.4-1.9,0.7c-0.8,0.3-2,0.4-3.3,0.4C261.8,425.6,257.7,425,255.9,424.6z M269.3,420
		c-6.4,0-18.8-6.5-23.4-9.5c-0.7-0.6-1.5-1.3-2.2-2c-1.1-1.1-2.3-2.2-3.5-2.8c-3.4-2.4-7.2-7.7-9.1-11.4l-0.3-0.6
		c0.2,0.7,0.3,1.3,0.5,2c0.2,0.9,0.4,1.6,0.5,1.9c0.6,1.2,0.8,3.4,1,5.6c0.1,1.3,0.2,2.5,0.4,3.4c2.4,7.7,14.4,16.1,22.7,17.9
		c2.4,0.4,9.8,1.5,12.2,0.5c0.6-0.3,1.3-0.5,1.9-0.7c1.4-0.4,2.7-0.8,3.3-2.1c0.3-0.6,1.2-1.6,2.4-2.1H269.3z M277.5,419.8h0.3
		C277.7,419.8,277.6,419.8,277.5,419.8z M229.9,391.4c-0.7-2.3-1.5-4.4-2.3-4.7L229.9,391.4z"/>
</g>
<g>
	<path class="st3" d="M286.8,444.1c-9.1,0-18.1,0-26.6-1.4c-1.9,0-4.2-1.9-6.2-1.9c-3.7,0-7.6-1.4-9.5-4.3c-0.9-1.9-5.2-5.2-7.1-5.7
		c0,0-1.4-1.9-0.4-0.9c0.4,0.5,3.3,1.9,3.8,2.4c1.4,1.4,3.3,5.3,4.8,6.6c0.9,1,9.9,8.6,10.4,8.6c4.8,0,9.9,1.9,15.7,1.9
		c2.4,0,6.6,0,8.5-1C280.6,447.9,286.8,445,286.8,444.1z"/>
	<path d="M263,448.4c-2.5-0.5-4.8-0.9-7.1-0.9c-0.6,0-9.6-7.6-10.5-8.6c-0.8-0.7-1.7-2.2-2.6-3.5c-0.4-0.7-0.9-1.3-1.2-1.9
		c-1.5-1.2-3.2-2.3-4.3-2.6l0,0l0,0c-0.9-1.2-0.8-1.3-0.8-1.3c0.1-0.1,0.2,0,0.5,0.3c0.2,0.2,1.1,0.8,2,1.2c0.8,0.5,1.6,0.9,1.9,1.1
		c0.3,0.3,0.6,0.7,1,1.2c1.3,1.1,2.4,2.2,2.8,3c1.8,2.6,5.4,4.3,9.4,4.3c1,0,2.1,0.5,3.2,1c1,0.4,2.1,0.9,3,0.9
		c8.6,1.4,17.7,1.4,26.6,1.4h0.1v0.1c0,0.7-2.3,1.9-5.1,3.4c-0.8,0.4-1.5,0.8-1.6,0.9c-1.9,1-6.2,1-8.5,1
		C268.6,449.4,265.8,448.9,263,448.4z M260.2,442.7c-0.9,0-2-0.5-3.1-0.9c-1.1-0.5-2.2-0.9-3.1-0.9c-4.1,0-7.8-1.7-9.6-4.4
		c-0.3-0.7-1.2-1.6-2.2-2.5c0.3,0.4,0.5,0.8,0.8,1.2c0.9,1.4,1.8,2.8,2.5,3.5c1,1.1,9.8,8.4,10.4,8.5c2.3,0,4.6,0.4,7.1,0.9
		c2.7,0.5,5.6,1,8.6,1c2.3,0,6.6,0,8.4-1c0.2-0.1,0.8-0.5,1.7-0.9c1.7-0.9,4.6-2.5,5-3.1C277.9,444.2,268.7,444.2,260.2,442.7z
		 M237.4,430.6c1,0.3,2.4,1.1,3.7,2.2c-0.2-0.2-0.3-0.4-0.5-0.5c-0.2-0.2-1-0.7-1.8-1.1c-0.9-0.5-1.7-0.9-2-1.2
		C237.1,430.1,237.3,430.4,237.4,430.6z"/>
</g>
<g>
	<path class="st3" d="M299.7,461.2c-18.5,6.6-38,11.4-57.5,5.2c-1.4-0.4-8.6-4.8-8.6-4.8c0.5,0,17.1,11.4,17.1,11.4
		c2.4,2.4,24.3,1.4,27.1-0.5C285.4,467.8,290.7,464,299.7,461.2z"/>
	<path d="M250.6,473.2c-5.1-3.5-12.2-8.4-15.4-10.4c-0.9-0.5-1.6-1-1.7-1l-0.3-0.2h0.4c0.1,0,0.7,0.3,1.6,0.9c2.2,1.3,6.1,3.5,7,3.8
		c10.8,3.4,25.6,5.6,53.7-3.9c1.2-0.5,2.4-0.9,3.7-1.3l0.1,0.2c-1.3,0.5-2.6,0.9-3.9,1.4c-5.6,2.2-9.8,4.8-14.8,8
		c-1,0.6-2.1,1.3-3.2,2c-1.6,1.1-9.8,1.9-16.8,1.9C256.1,474.6,251.6,474.2,250.6,473.2z M242.1,466.5c-0.6-0.2-2.1-1-3.7-1.9
		c4.5,3,10.6,7.2,12.4,8.4c2.4,2.4,24.2,1.4,26.9-0.5c1.1-0.7,2.1-1.3,3.2-2c4.2-2.7,7.9-5,12.2-6.9
		C277.4,468.6,259.7,472.1,242.1,466.5z"/>
</g>
<g>
	<path class="st3" d="M313.4,469.8c-13.2,16.1-30.4,22.8-50.8,22.8c-4.2,0-9,0-13.3,0c-2.8,0,4.3,0,4.8,0.5
		c4.8,3.3,35.7,9.5,39.5,1.9c1-2.4,12.4-8.1,13.8-11.4C308.2,481.1,313.4,470.7,313.4,469.8z"/>
	<path d="M253.9,493.1L253.9,493.1c-0.1-0.1-0.8-0.4-5.1-0.5c-0.1,0-0.2,0-0.3,0c0,0,0,0,0,0v0c-0.1,0-0.1,0-0.1-0.1
		c0-0.1,0-0.1,0.1-0.1l0,0c0,0,0,0,0.1,0c0.1,0,0.3,0,0.6,0h13.3c21.6,0,38.2-7.4,50.7-22.7l0.2-0.2v0.3c0,0.6-1.5,3.8-3.7,8.4
		c-1.1,2.3-2.1,4.5-2.5,5.4c-0.8,1.8-4.4,4.2-7.9,6.6c-2.8,1.9-5.5,3.7-6,4.8c-0.7,1.4-2.2,2.4-4.6,3c-2,0.5-4.5,0.8-7.2,0.8
		C271,498.7,256.9,495.2,253.9,493.1z M262.6,492.6h-9.9c1,0.1,1.3,0.2,1.4,0.3c3.7,2.6,24.8,7.4,34.8,4.8c2.3-0.6,3.8-1.6,4.4-2.9
		c0.5-1.1,3.1-2.9,6-4.9c3.3-2.2,7-4.7,7.8-6.5c0.4-0.9,1.4-3.1,2.5-5.4c1.4-3,3.1-6.6,3.5-7.9C300.6,485.3,284.1,492.6,262.6,492.6
		z"/>
</g>
<g>
	<path class="st3" d="M332.8,487.8c-0.9,3.4-4.2,6.7-6.6,9.5c-5.3,6.7-12.4,10.9-20.9,12c-1.9,0-28.5,1.4-30,0
		c-0.4-0.5-2.4-0.5,1.4,0c7.1,1.4,32.3,8.1,38.4,1.9c3.3-3.3,12.4-7.6,14.3-11.9C330.5,497.3,330.5,487.8,332.8,487.8z"/>
	<path d="M280.6,510.1c-0.4-0.1-0.8-0.2-1.2-0.3c-2.3-0.1-3.8-0.3-4.1-0.6c-0.1-0.1-0.3-0.2-0.5-0.3c-0.4-0.1-0.4-0.1-0.4-0.2l0-0.1
		l0.1,0c0,0,0.2,0,0.4,0.1c0.3,0.1,0.9,0.2,2,0.3c0.7,0.1,1.6,0.3,2.6,0.5c6.1,0.2,17.5-0.2,22.6-0.4c1.7-0.1,2.9-0.1,3.2-0.1
		c0,0,0,0,0,0c8.3-1,15.5-5.1,20.8-11.9c0.4-0.5,0.8-1,1.3-1.5c1.1-1.3,2.3-2.6,3.3-4.1c0.4-2.2,1-4,2.1-4h0.1l0,0.1
		c-0.4,1.3-1.1,2.7-2,4c-0.2,1.1-0.4,2.3-0.5,3.4c-0.2,1.8-0.5,3.4-0.8,4.1c-1.2,2.7-5.2,5.4-8.8,7.8c-2.2,1.5-4.2,2.9-5.5,4.1
		c-1.9,1.9-5.6,2.6-10,2.6C297.3,513.8,286.8,511.5,280.6,510.1z M327.6,495.9c-0.4,0.5-0.9,1-1.3,1.5c-5.4,6.9-12.6,11-21,12
		c-0.3,0-1.6,0-3.3,0.1c-8.1,0.3-16.3,0.6-21.5,0.5c0,0,0.1,0,0.1,0c9.5,2.1,29.3,6.4,34.5,1.1c1.3-1.3,3.3-2.6,5.5-4.1
		c3.6-2.4,7.6-5.1,8.7-7.7c0.3-0.7,0.5-2.3,0.8-4c0.1-1,0.3-2,0.4-3C329.7,493.5,328.6,494.7,327.6,495.9z M275.5,509.1
		c0.2,0.2,1.2,0.4,2.7,0.5c-0.5-0.1-1-0.2-1.4-0.3C276.2,509.2,275.8,509.2,275.5,509.1C275.5,509.1,275.5,509.1,275.5,509.1z
		 M331,491.2c0.7-1.1,1.3-2.2,1.7-3.3C331.9,488,331.4,489.4,331,491.2z"/>
</g>
<path d="M204.1,599.8c-3,1.4-6.4,2.4-10.4,2.8c-4,0.4-7.4,0-10.4-1.2c-3-1.2-5.4-3.1-7.2-5.7c-1.8-2.6-2.9-5.8-3.2-9.4
	c-0.4-3.9,0.1-7.4,1.4-10.7c1.4-3.2,3.5-5.8,6.4-7.7c2.9-2,6.3-3.2,10.3-3.6c3.2-0.4,6.3-0.3,9.4,0.1l1.1,10.3
	c-1.2-0.6-2.4-0.9-3.9-1.1c-1.4-0.2-2.9-0.2-4.3-0.1c-3,0.3-5.3,1.4-6.9,3.4c-1.5,1.9-2.2,4.3-1.9,7.3c0.3,3,1.4,5.2,3.4,6.7
	c1.9,1.5,4.3,2.2,7.3,1.9c2.7-0.3,5.3-1.3,7.9-3L204.1,599.8z"/>
<path d="M233.3,598l-2.1-6.7l-6.1,0.4v-7.9l3.5-0.3l-3.3-9.9c-0.1-0.3-0.1-0.5-0.2-0.8v-11.4l5.8-0.4l14.5,36.1L233.3,598z
	 M225.1,591.7l-4.9,0.4l-1.3,6.9l-12,0.9l10.2-37.9l8.1-0.6v11.4c-0.4-1.2-0.6-2.2-0.8-3.3h-0.3c0,0.4-0.1,1.2-0.2,2.1
	c-0.1,0.9-0.9,5.1-2.3,12.4l3.6-0.2V591.7z"/>
<path d="M268.6,596.4l-3-7.8c-0.6-1.6-1.4-2.8-2.2-3.7c-0.1-0.1-0.1-0.1-0.3-0.2v-9.1c0.9-0.1,1.7-0.6,2.3-1.2
	c0.9-0.9,1.4-1.9,1.3-3.2c-0.1-1.3-0.4-2.2-1.2-3c-0.6-0.5-1.4-0.8-2.4-0.9v-7.8c5.1-0.1,8.9,0.6,11.4,2.2c2.5,1.6,3.8,4.1,4,7.5
	c0.1,2.5-0.6,4.7-1.9,6.5c-1.4,1.8-3.5,3.1-6.3,4v0.1c1.6,0.4,2.9,1.2,4,2.2c1.1,1.1,2.1,2.7,3,4.8l4,9.3L268.6,596.4z M263.1,584.7
	c-0.8-0.7-1.7-1-2.5-1h-0.4l0.4,13l-11.2,0.4l-1.3-37l14.8-0.5h0.1v7.8c-0.4-0.1-0.8-0.1-1.2-0.1l-2.3,0.1l0.3,8.5l2-0.1
	c0.4-0.1,0.9-0.1,1.2-0.2V584.7z"/>
<path d="M313,594.6c-3,1.1-6.6,1.7-10.6,1.7c-3.9,0-7.3-0.7-10.2-2.2c-2.9-1.5-5-3.7-6.6-6.5c-1.5-2.7-2.3-6-2.3-9.6
	c0-4,0.9-7.4,2.5-10.4c1.7-3.1,4.1-5.4,7.2-7.1c3.1-1.7,6.6-2.5,10.6-2.5c3.2,0,6.3,0.4,9.3,1.2v10.3c-1-0.6-2.2-1.1-3.7-1.4
	c-1.4-0.4-2.9-0.5-4.3-0.5c-3.1,0-5.5,0.9-7.1,2.6c-1.7,1.7-2.7,4.1-2.7,7.1c0,3,0.9,5.3,2.7,7c1.7,1.7,4,2.6,6.9,2.6
	c2.7,0,5.5-0.7,8.2-2.1V594.6z"/>
<path d="M342.1,596.6l-1.4-6.8l-5.3-0.2v-7.9l3.5,0.1l-2.2-10.2c-0.3-1.4-0.5-2.9-0.6-4.2h-0.3c-0.1,0.4-0.2,1.1-0.4,2v0.1v-10.2
	l8.1,0.3l10.7,37.4L342.1,596.6z M335.4,589.5l-5.8-0.2l-1.9,6.8l-12.1-0.4l14-36.6l5.8,0.2v10.2c-0.3,1-1.4,5-3.5,12l3.5,0.1V589.5
	z"/>
<path d="M377.8,599.2l-2.1-8.2c-0.1-0.5-0.3-1-0.4-1.5v-11.7c0.7-0.1,1.4-0.4,2-0.9c0.9-0.8,1.5-1.8,1.7-3c0.1-1.2-0.2-2.3-0.9-3
	c-0.6-0.7-1.5-1.2-2.7-1.4v-7.8l1.4,0.1c5.2,0.4,8.9,1.7,11.2,3.5c2.3,1.9,3.3,4.5,3,7.9c-0.2,2.5-1.2,4.6-2.7,6.2
	c-1.6,1.6-3.8,2.7-6.7,3.2v0.1c1.5,0.6,2.7,1.5,3.7,2.7s1.7,2.9,2.4,5l2.8,9.7L377.8,599.2z M375.3,589.5c-0.4-0.9-0.8-1.7-1.3-2.4
	c-0.8-0.9-1.7-1.4-2.7-1.6h-0.4l-1.2,13l-11.2-0.9l3.2-36.9l13.5,1.2v7.8c-0.2,0-0.4-0.1-0.7-0.1l-2.2-0.2l-0.8,8.5l2,0.1
	c0.6,0.1,1.2,0,1.7-0.1V589.5z"/>
<path d="M417.8,604.2l-0.8-7l-4.6-0.6v-7.9l3.5,0.4l-1.4-10.3c-0.1-1.5-0.2-2.9-0.2-4.2l-0.3-0.1c-0.1,0.4-0.3,1.1-0.6,2
	c-0.1,0.4-0.5,1.3-1.1,2.8v-13.1l10,1.2l7.4,38.2L417.8,604.2L417.8,604.2z M412.4,562.8v-3l5.7-4.8l9.1,1.2l-10.2,7.1L412.4,562.8z
	 M412.4,596.6l-6.4-0.7l-2.6,6.6l-12-1.5l17.2-35.2l3.7,0.5v13.1c-0.8,1.9-1.9,5-3.5,8.9l3.5,0.4V596.6L412.4,596.6z M412.4,559.8v3
	l-3-0.4L412.4,559.8z"/>
</svg>
