<?xml version="1.0" encoding="utf-8"?>
<!-- Generator: Adobe Illustrator 21.0.2, SVG Export Plug-In . SVG Version: 6.00 Build 0)  -->
<svg version="1.1" id="Camada_1" xmlns="http://www.w3.org/2000/svg" xmlns:xlink="http://www.w3.org/1999/xlink" x="0px" y="0px"
	 viewBox="0 0 595 842" style="enable-background:new 0 0 595 842;" xml:space="preserve">
<style type="text/css">
	.st0{fill-rule:evenodd;clip-rule:evenodd;fill:#303C8C;}
	.st1{fill-rule:evenodd;clip-rule:evenodd;fill:#349061;}
	.st2{fill-rule:evenodd;clip-rule:evenodd;fill:#FFFFFF;}
	.st3{fill-rule:evenodd;clip-rule:evenodd;}
	.st4{fill-rule:evenodd;clip-rule:evenodd;fill:#CBB36D;}
	.st5{fill-rule:evenodd;clip-rule:evenodd;fill:#D8D9DD;}
	.st6{fill:#C2C3C9;}
	.st7{fill-rule:evenodd;clip-rule:evenodd;fill:#E2AC52;}
</style>
<g>
	<g>
		<path class="st0" d="M305.5,175.4c144.2,0,261.2,112.4,261.2,251s-117,251-261.2,251c-144.1,0-261.1-112.4-261.1-251
			S161.3,175.4,305.5,175.4z"/>
		<path d="M305.5,681.3c-70.8,0-137.3-26.5-187.4-74.6C68,558.5,40.4,494.5,40.4,426.3S68,294.2,118.1,246
			c50.1-48.1,116.6-74.6,187.4-74.6c70.8,0,137.4,26.5,187.5,74.6c50.1,48.2,77.8,112.2,77.8,180.4c0,68.1-27.6,132.2-77.8,180.4
			C442.9,654.8,376.3,681.3,305.5,681.3z M305.5,179.4c-68.7,0-133.2,25.7-181.8,72.4c-48.5,46.7-75.3,108.7-75.3,174.6
			c0,65.9,26.7,127.9,75.3,174.6c48.6,46.7,113.1,72.4,181.8,72.4c141.8,0,257.2-110.8,257.2-247S447.3,179.4,305.5,179.4z"/>
	</g>
	<path class="st1" d="M305.5,199.8c130.2,0,235.8,101.5,235.8,226.6c0,125.1-105.6,226.6-235.8,226.6
		c-130.1,0-235.7-101.4-235.7-226.6C69.8,301.3,175.4,199.8,305.5,199.8z"/>
	<path class="st0" d="M305.5,609c104.7,0,190.1-82.1,190.1-182.7s-85.4-182.7-190.1-182.7c-104.6,0-190,82.1-190,182.7
		S200.9,609,305.5,609z"/>
	<g>
		<path class="st2" d="M305.5,255.6c98.1,0,177.8,76.5,177.8,170.8c0,94.3-79.6,170.9-177.8,170.9c-98.1,0-177.6-76.5-177.6-170.9
			C127.9,332.1,207.4,255.6,305.5,255.6z"/>
		<path d="M305.5,597.3c-24,0-47.3-4.5-69.2-13.4c-21.2-8.6-40.2-20.9-56.5-36.6c-16.3-15.7-29.1-34-38.1-54.3
			c-9.3-21.1-14-43.5-14-66.5c0-23.1,4.7-45.4,14-66.5c9-20.3,21.8-38.6,38.1-54.3c16.3-15.7,35.3-28,56.5-36.6
			c21.9-8.9,45.2-13.4,69.2-13.4c24,0,47.3,4.5,69.2,13.4c21.2,8.6,40.2,20.9,56.5,36.6c16.3,15.7,29.2,34,38.1,54.3
			c9.3,21.1,14,43.4,14,66.5c0,23.1-4.7,45.5-14,66.5c-9,20.4-21.8,38.6-38.1,54.3c-16.3,15.7-35.4,28-56.5,36.6
			C352.8,592.8,329.5,597.3,305.5,597.3z M305.5,255.7c-24,0-47.2,4.5-69.1,13.4c-21.1,8.6-40.1,20.9-56.4,36.6
			c-16.3,15.7-29.1,33.9-38.1,54.3c-9.3,21-14,43.4-14,66.4c0,23,4.7,45.4,14,66.4c8.9,20.3,21.7,38.6,38.1,54.3
			c16.3,15.7,35.3,28,56.4,36.6c21.9,8.9,45.1,13.4,69.1,13.4c24,0,47.2-4.5,69.1-13.4c21.2-8.6,40.2-20.9,56.5-36.6
			c16.3-15.7,29.1-33.9,38.1-54.3c9.3-21,14-43.4,14-66.4c0-23-4.7-45.4-14-66.4c-9-20.3-21.8-38.6-38.1-54.3
			c-16.3-15.7-35.3-28-56.5-36.6C352.7,260.2,329.5,255.7,305.5,255.7z"/>
	</g>
	<g>
		<path class="st3" d="M341,388.5c-9.4,53.9,218.9,226,82.1,167.5c-48.2-20.6-107.8-9.9-163.1-9.9c-40.5,0-89.9,2.2-115.7,16.8
			C91.5,592.9,83,458.8,260,419.6C279.9,415.2,323.2,389.5,341,388.5z"/>
		<path d="M460.8,576c-3.5,0-6.8-0.7-8.7-1.2c-7.7-1.7-18.2-5.5-32.2-11.4c-34.2-14.6-76.1-12.6-116.7-10.6
			c-14.2,0.7-29,1.4-43.2,1.4c-36.1,0-86.9,1.6-111.7,15.8c-16.6,9.4-27.7,4.4-32.9,0.7c-10.8-7.9-14.9-23.9-10.9-42.9
			c4.7-22.4,19.6-45.3,42.1-64.5c27.8-23.8,65.4-41.1,111.6-51.3c8-1.8,21.6-8,34.7-14.1c18.6-8.6,36.2-16.6,47.6-17.3l10.1-0.6
			l-1.7,9.9c-1,5.9,2,18.5,22.1,45.2c15.3,20.2,36.1,42.8,54.5,62.8c13.9,15.1,27.1,29.4,36,40.7c11.1,14,16.9,24.3,11.3,32.2
			C469.8,574.9,465.2,576,460.8,576z M345.8,535.4c28.1,0,55.6,2.7,80.5,13.3c16.9,7.2,25.9,9.9,30.7,10.9
			c-6.4-10.8-27.3-33.6-43.2-50.9c-43.5-47.3-75.8-84.2-80.4-110.4c-9.2,2.9-22,8.7-33.6,14.1c-14.5,6.7-28.2,13-37.9,15.1
			c-58,12.8-129.8,47.6-141.6,103.5c-2.9,14,0.2,23.5,4.6,26.7c4.8,3.5,11.8,0.5,15.5-1.7c27.8-15.9,78.6-17.9,119.6-17.9
			c13.9,0,28.4-0.7,42.5-1.4C316.8,536.1,331.4,535.4,345.8,535.4z"/>
	</g>
	<g>
		<path class="st2" d="M66.9,666.1l96.5-27.7l1.5-19.7c102.3-15,196.1-13.5,281.7,4.2l0.4,18.4l96,24.7c-5-16.1-13-28.2-22.6-38
			c12.7-8.9,22-17,22.6-23.5l-49.2-16.8v-26.3c-112.4-33.2-250.3-36.6-378.7,0v27.2l-48.2,15.9c-4.4,3.9,14.3,16.4,21.5,24.6
			C81.2,641.5,69.6,652.6,66.9,666.1z"/>
		<path d="M61.7,671.8l1.3-6.5c2-9.9,8.1-18.3,14.1-26.5c2.3-3.1,4.4-6.1,6.4-9.1c-2.1-2.1-4.8-4.4-7.3-6.7
			c-8.8-7.7-13.8-12.3-13.8-17c0-1.7,0.7-3.3,2-4.5l0.6-0.5l46.3-15.3v-27.3l2.9-0.8c123.2-35.1,262.1-35.1,380.9,0l2.9,0.8v26.4
			l49.5,16.9l-0.3,3.2c-0.7,6.6-6.8,13.8-20.5,23.8c9.3,10.4,16,22.3,20.4,36.2l2.1,6.9l-105.9-27.2l-0.4-18.3
			c-83.3-16.9-175.5-18.2-274.1-4l-1.5,19.2L61.7,671.8z M451,638.3l85.9,22.1c-4.4-11.2-10.8-20.9-19.2-29.5l-3.3-3.4l3.9-2.7
			c12.5-8.7,17.8-14.3,19.8-17.8l-48.2-16.5v-26.1c-115.9-33.6-250.6-33.6-370.7,0v27.1l-47.9,15.8c2.1,2.6,7,6.9,10.2,9.7
			c3.7,3.2,7.5,6.6,10.1,9.5l1.9,2.2l-1.5,2.5c-2.5,4.3-5.5,8.4-8.4,12.3c-4.1,5.6-8,11-10.5,16.7l86.6-24.9l1.5-20.1l3.2-0.5
			c102-15,197.2-13.6,283.1,4.3l3.1,0.6L451,638.3z"/>
	</g>
	<g>
		<path class="st3" d="M470.2,634.4c5.3-0.9,10.6-1.8,15.4-3.2l-15.4-3.2v-3.9c8.1,1.9,16,3.9,23.6,6.1v-68.8
			c-7.6-2.2-15.5-4.3-23.6-6.2v-4.1c9.6,2.2,18.8,4.6,27.7,7.2V586c17.4,6.3,35.1,12.2,53.4,17.4c-7.3,9.7-18.2,16.1-25.6,25.7
			c8.3,14.6,17.9,27.9,25.6,43.1c-26.4-8.6-53-16.9-81.1-23.8v-3.7c25.5,5.8,49.7,13,72.9,21.2c-6.4-13.8-15.2-25.2-22.6-38
			c6.8-7.9,19.7-15.1,22.6-23.5c-15.8-3.7-28.6-10.4-45.1-13.4c-0.6,14.1,1.3,30.7-1.1,43.1c-9.3,1-18.9,1.9-26.6,3V634.4z
			 M446.6,638.4c7.4-1.8,15.6-2.7,23.6-4v2.8c-8,1.2-14,2.4-15.4,4.2c5.2,1.1,10.3,2.2,15.4,3.4v3.7c-9.1-2.2-18.3-4.2-27.7-6V623
			c-79.8-17.3-193.7-15.8-275-1v20.5c-9.5,1.7-18.7,3.7-27.7,5.9v-3.7c5.2-1.4,10.3-2.7,15.4-4.2c-5-0.9-10.2-1.7-15.4-2.4v-3.9
			c7.9,1.4,15.5,3,23.6,4.2c-1.2-4.7,2.4-14.1-2.1-15.4c-6.6,2.2-14.2,3.5-21.5,5v-4c98.6-22.5,232.2-22.7,330.5,0.1v3.9l-23.6-5
			C446.2,627,446.4,635.1,446.6,638.4L446.6,638.4z M470.2,551.1v4.1c-97.9-22.9-232.3-22.8-330.5-0.2v-3.9
			C238.6,528.5,371.3,528.6,470.2,551.1z M139.7,551.1v3.9c-8.5,2-16.7,4.1-24.6,6.4v68.8c7.9-2.2,16.1-4.3,24.6-6.3v4
			c-5.5,1.2-10.7,2.4-15.4,4.3c5.4,0.4,10.4,1.2,15.4,1.9v3.9c-9.4-1.4-18.9-2.8-27.7-4.8v-42.1c-16.7,2.8-29.2,9.8-45.1,13.4
			c1.8,9.5,17.1,14.3,21.5,24.6c-6.5,12.3-17.6,25.5-21.5,36.9c22.7-8.8,48-14.9,72.9-21.5v3.7c-28.4,6.9-54.9,15.7-82.2,23.9
			c9-14,16.8-29.1,26.7-42.1c-6.4-11-18.9-16.1-25.6-26.7c18.5-4.7,34.2-12.3,53.4-16.4v-28.7C120.9,555.7,130.2,553.3,139.7,551.1z
			"/>
		<path d="M48.3,679.3l5.9-9.1c3.2-5,6.3-10.2,9.4-15.3c5-8.3,10.1-16.9,15.8-24.8c-2.9-4-6.8-7.2-10.8-10.6
			c-4.8-4-9.7-8.1-13.3-13.8l-3-4.7l5.4-1.4c8.2-2.1,16.1-4.8,23.7-7.5c8.5-3,17.2-6,26.6-8.2v-28.5l2.9-0.8
			c53.2-15.7,122-24.3,193.9-24.3c0.1,0,0.2,0,0.2,0c71.8,0,140.7,8.6,194.1,24.3l2.9,0.8v27.9c18,6.4,34.5,11.8,50.5,16.4l5.6,1.6
			l-3.5,4.6c-4,5.2-8.8,9.5-13.5,13.6c-3.8,3.3-7.4,6.5-10.5,10.1c3,5.1,6.1,10.1,9.2,15c5.2,8.2,10.5,16.8,15.2,25.9l4.3,8.6
			l-9.1-3c-33.2-10.8-68.9-22-108.3-29.7l-3.2-0.6v-19.6c-73.9-15.4-182.5-15.7-267-0.9v14l1.6,0.3l-1.6,0.5v5.8l-3.3,0.6
			c-31.8,5.8-61.2,14.8-89.5,23.6c-6.5,2-13.2,4.1-19.9,6.1L48.3,679.3z M471.8,641.1c21.1,4.9,42,10.8,63.1,18
			c-2.9-5.2-6.1-10.2-9.3-15c-2.9-4.5-5.9-9.1-8.7-13.9l-1.4-2.5l1.9-2.2c2.8-3.2,6.4-6.3,9.9-9.2c3.6-3,7.3-6.1,9.7-9.2
			c-5.3-1.5-10.4-3.3-15.3-5c-6.6-2.3-13-4.5-19.9-6.1c0,3.8,0,7.8,0.1,11.6c0.2,7.7,0.3,15.7-0.5,22.8l0.4,0.1l-0.5,0.1
			c-0.2,1.5-0.4,3-0.7,4.4l-0.6,2.9l-2.9,0.3c-3,0.3-6,0.6-9,1C483.4,639.7,477.3,640.4,471.8,641.1z M72.5,607.3
			c1.7,2.2,4.4,4.4,7.2,6.6c4.6,3.7,9.9,7.9,12.4,13.8l0.7,1.7l-0.9,1.7c-2.7,5.1-6.1,10.4-9.5,15.4c-2.8,4.2-5.6,8.5-7.9,12.6
			c16.9-5.9,35-10.6,52.7-15.2c2.9-0.7,5.8-1.5,8.7-2.3c-8.3-1.2-16.9-2.5-24.8-4.4l-3.1-0.7V635l-0.6-0.1l0.6-0.3V596
			c-6.9,1.5-13.2,3.8-19.8,6.1C83.2,603.9,78,605.7,72.5,607.3z M144.7,631.1c1.5,0.3,3.1,0.6,4.6,0.9c3.2,0.6,6.5,1.2,9.9,1.8
			c0.1-0.7,0.1-1.4,0.2-2.2c0.1-1.1,0.2-2.7,0.2-3.8c-4.7,1.4-9.8,2.4-14.7,3.3C144.9,631,144.8,631.1,144.7,631.1z M450.4,627.9
			c0,1.8,0,3.8,0,5.6c4.3-0.8,8.7-1.5,13.1-2.1c0.7-0.1,1.4-0.2,2.1-0.3L450.4,627.9z M119.1,564.4v60.5
			c107.4-29.3,264.5-29.3,370.7,0v-60.5C439.1,550,373.7,542.1,305,542.1c-0.2,0-0.3,0-0.5,0C235.9,542.1,170.2,550.1,119.1,564.4z"
			/>
	</g>
	<g>
		<path class="st3" d="M262.4,256.1c3.8,0,7-2.8,7-6.3c0-3.5-3.2-6.3-7-6.3c-3.7,0-6.9,2.8-6.9,6.3
			C255.5,253.3,258.7,256.1,262.4,256.1z"/>
		<path d="M262.4,256.2c-3.9,0-7-2.9-7-6.4c0-3.6,3.1-6.4,7-6.4c3.9,0,7.1,2.9,7.1,6.4C269.5,253.3,266.3,256.2,262.4,256.2z
			 M262.4,243.6c-3.8,0-6.8,2.8-6.8,6.2c0,3.3,3.1,6.2,6.8,6.2c3.8,0,6.9-2.8,6.9-6.2C269.3,246.4,266.2,243.6,262.4,243.6z"/>
	</g>
	<g>
		<path class="st2" d="M261.5,249.9c1.2,0,2.2-0.9,2.2-2.1c0-1.2-1-2-2.2-2c-1.2,0-2.2,0.9-2.2,2
			C259.3,248.9,260.3,249.9,261.5,249.9z"/>
		<path d="M261.5,250c-1.3,0-2.3-1-2.3-2.2c0-1.2,1-2.1,2.3-2.1c1.3,0,2.3,1,2.3,2.1C263.8,249,262.7,250,261.5,250z M261.5,245.9
			c-1.2,0-2.1,0.8-2.1,1.9c0,1.1,0.9,2,2.1,2c1.1,0,2.1-0.9,2.1-2C263.5,246.7,262.6,245.9,261.5,245.9z"/>
	</g>
	<g>
		<path class="st4" d="M205.6,343.3c0,17.8,15.1,41-0.9,57c-21.5,21.3,10.7,17.9-7.1,23.1c-17,5.3-25,14.3-49,38.3
			c-9.9,9.8-21.4,25.8-31.2,35.6c-0.9,0.9,70.4,17.9,88.3,17.9c12.5,0,32.1,4.5,48.1,4.5c23.2,0-13.3,12.5,21.5,12.5
			c24.8,0,53.4-5.3,66.7-11.6c12.5-6.2,33-17.8,33-27.6c0-8,14.3,19.7,14.3,2.7c0-58.8,15.2-121.2,15.2-186.3
			C404.3,232.8,205.6,252.4,205.6,343.3z"/>
		<path d="M275.1,536.2c-12.1,0-17.3-1.4-19.2-5c-1.5-2.8-0.3-5.5,0.8-7.3c-0.8-0.1-1.7-0.1-3-0.1c-8.8,0-18.3-1.3-27.5-2.5
			c-7.7-1-15-2-20.6-2c-10.5,0-36.7-5.4-51.4-8.5c-9.2-2-18.8-4.2-26.3-6.1c-13.2-3.3-13.4-3.6-14.2-5.6l-1-2.4l1.9-2.1
			c4.8-4.8,10.2-11.3,15.4-17.5c5.3-6.4,10.8-13.1,15.9-18.1c1.7-1.7,3.4-3.4,5-5c20.3-20.4,28.8-28.9,45.2-34.2
			c-1.4-1.4-2.6-3.3-2.8-5.9c-0.5-4.7,2.3-9.9,8.8-16.4c9.3-9.3,6.2-21.8,2.9-34.9c-1.6-6.4-3.2-13.1-3.2-19.3
			c0-25.7,14.6-47.8,42.3-63.9c23.5-13.7,54.2-21.5,84.4-21.5c22.1,0,41.2,4.2,55.3,12.1c16.2,9.1,24.8,22.7,24.8,39.3
			c0,33.6-4,66.5-7.9,98.3c-3.7,30.6-7.3,59.5-7.3,87.9c0,2.1,0,7.6-4.2,9.2c-4.2,1.6-7.9-2.3-11.5-6.3
			c-3.7,7.8-14.9,16.2-33.8,25.6C329,531,299.5,536.2,275.1,536.2z M263.9,527.4c1.6,0.4,4.8,0.8,11.2,0.8c25.7,0,53.3-5.7,65-11.2
			c22.6-11.2,30.7-19.8,30.7-24c0-3.5,1.9-4.8,3.1-5.2c3.4-1.3,5.9,1.5,9.1,5.1c0.6,0.6,1.3,1.5,2.1,2.3c0-28.7,3.6-57.7,7.3-88.4
			c3.9-31.6,7.9-64.2,7.9-97.4c0-13.7-7-24.6-20.7-32.3c-12.7-7.2-31-11.1-51.4-11.1c-28.4,0-58.4,7.6-80.4,20.4
			c-31.7,18.4-38.3,41.1-38.3,57c0,5.2,1.5,11.1,3,17.3c3.5,14.1,7.4,30-5,42.5c-6.4,6.3-6.6,9.2-6.5,9.9c0.1,0.9,1.1,1.7,2.6,2.6
			c1.5,1,4,2.6,3.5,5.7c-0.5,3.5-4.5,4.7-8.4,5.9c-14.8,4.6-22.3,12.2-42.4,32.3c-1.6,1.6-3.2,3.2-5,5c-4.8,4.8-10.2,11.3-15.4,17.5
			c-3.8,4.6-7.7,9.3-11.4,13.4c16.8,4.4,66.4,15.7,81,15.7c6.1,0,13.7,1,21.7,2.1c8.9,1.2,18.2,2.4,26.4,2.4c5.8,0,9.9,0.6,11.7,3.8
			c1.7,3.1-0.2,5.9-1.3,7.6C263.9,527.2,263.9,527.3,263.9,527.4z"/>
	</g>
	<g>
		<path class="st5" d="M211.1,372.6c1.9-0.9,21.4,17.6,27.6,19.4c5.7,1.9,4.8,3.4,4.8-5.2c0-1.9,35.6,7.1,43.3,9.5
			c1.4,0.4-16.6-15.2-4.3-10.4c9.5,3.7,17.6,6.1,17.6-2.9c0-10,28.5,0.9,42.3,0.9c10.9,0-18.1-11.9-1.9-11.9
			c10.9,0,8.6,2.9,8.6-12.8c0-5.7,9,6.6,9,6.6c10,17.1,6.7-18.1,11.9-18.1c2.9,0,3.8,19.1,7.1,17.1c3.3-2.4,1.4-17.1,3.3-20.9
			c2.9-6.2,1.4,14.7,6.2,7.1c45.6-69-24.7-79.8-91.7-79.8c-38.5,0-47.5,23.8-73.2,43.2C185.9,341.2,218.7,348.9,211.1,372.6z"/>
		<path class="st6" d="M287.7,398.7l-1.6-0.4c-7.3-2.3-33.9-8.9-40.7-9.6c0,0.5,0,0.9,0,1.3c0.1,2.9,0.1,4.3-1.2,5.1
			c-1.2,0.8-2.5,0.3-3.9-0.3c-0.6-0.3-1.4-0.6-2.3-0.9c-3.3-1-9.2-5.6-17.1-12c-3.6-2.9-7.9-6.4-9.6-7.3l-3.6,1.8l1.5-4.5
			c2.7-8.4-0.1-14.6-2.8-20.7c-4.6-10.3-9.3-20.9,14-38.3c7.1-5.4,13-11.1,18.6-16.7c14.7-14.4,27.3-26.9,55.8-26.9
			c38.2,0,90.6,3,104.6,29.2c7.2,13.4,3.4,31.5-11.3,53.8c-0.4,0.7-1.9,3-4,2.5c-1.5-0.3-2.3-1.6-2.8-3.5c0,0.6,0,1.2-0.1,1.7
			c-0.2,7.2-0.6,11.7-3.1,13.5l-0.2,0.1c-0.8,0.5-1.7,0.5-2.6,0.2c-2.2-0.9-3-4.3-4.3-10.2c-0.4-1.7-0.9-4-1.4-5.6
			c-0.6,2-1.1,5.6-1.4,8c-0.9,7.1-1.7,12.7-5.2,13.4c-2.8,0.6-5-2.5-6.8-5.5c-1.8-2.5-3.9-4.9-5.3-6.2c0,2.1,0.1,3.9,0.1,5.3
			c0.1,4,0.2,5.8-1.1,7.1c-1.2,1.2-2.9,1.1-5.4,1c-1.1-0.1-2.5-0.1-4.2-0.1c-1.1,0-1.9,0.1-2.4,0.1c0.9,0.9,2.7,2.3,3.8,3.1
			c3.4,2.6,5.7,4.3,5,6.6c-0.7,2.1-3.3,2.1-4.4,2.1c-4.9,0-11.6-1.3-18.1-2.6c-8.5-1.7-19-3.8-21.7-1.6c-0.3,0.2-0.5,0.5-0.5,1.3
			c0,3.3-1,5.7-3,7c-3.9,2.7-10.4,0.4-17.3-2.3c0,0,0,0-0.1,0c1.4,1.7,3.5,3.8,4.5,4.8c2.5,2.6,3.3,3.4,2.4,4.8L287.7,398.7z
			 M244.3,384.6c2.2,0,7,0.8,19.2,3.6c6,1.4,12.2,3,17,4.3c-3.8-4.1-5.3-6.4-4-8.3c1.4-2.2,4.8-0.9,6.6-0.2
			c3.6,1.4,11.1,4.4,13.6,2.7c0.8-0.6,1.2-1.8,1.2-3.7c0-1.8,0.7-3.3,2-4.4c4.2-3.4,13.8-1.5,25,0.8c5.8,1.2,11.7,2.3,16.2,2.5
			c-0.6-0.5-1.3-1-1.9-1.5c-3.6-2.7-6.7-5.1-5.8-7.8c0.8-2.3,3.9-2.6,6.9-2.6c1.8,0,3.3,0.1,4.4,0.1c0.9,0,1.8,0.1,2.3,0.1
			c0.1-0.7,0-2.3,0-4c-0.1-1.8-0.1-4.1-0.1-7c0-2.4,1.2-3.1,2-3.4c0.9-0.3,3.4-1.1,10.6,8.8l0.1,0.2c1.4,2.3,2.2,3.2,2.6,3.5
			c0.9-1.5,1.6-6.6,2-9.8c0.9-7.1,1.7-12.8,5.5-12.8c3,0,3.8,4,5.2,10c0.4,1.7,0.9,4.3,1.5,6c0.5-2.3,0.7-6.4,0.7-8.8
			c0.1-4.2,0.3-7.8,1.3-9.7c0.3-0.6,1.2-2.5,3-2.2c2,0.3,2.4,2.5,2.9,5.8c0.1,0.8,0.3,2.1,0.6,3.1c13.7-20.8,17.3-37.4,10.9-49.3
			c-9.8-18.2-42.9-27.1-101.1-27.1c-26.8,0-39,11.9-53,25.8c-5.7,5.6-11.6,11.5-19,17c-20.7,15.5-17.2,23.4-12.7,33.5
			c2.7,6,5.7,12.8,3.5,21.7c1.9,1.1,4.8,3.4,9.9,7.5c5.4,4.4,12.9,10.4,15.8,11.3c0.9,0.3,1.6,0.6,2.2,0.8c0-0.3,0-0.6,0-0.9
			c0-0.9,0-1.9,0-3.2c0-0.7,0.3-1.3,0.9-1.7C242.7,384.9,243,384.6,244.3,384.6z M336.9,374.5C336.9,374.5,336.9,374.5,336.9,374.5
			C336.9,374.5,336.9,374.5,336.9,374.5z M350.9,359L350.9,359L350.9,359z"/>
	</g>
	<g>
		<path class="st3" d="M120.7,376.9c-15.4-35.3-8.9-66.2,37.7-80.9c24.8-51.1,147.7-47.6,259.4-93c-0.1,12.6-7.3,23.8-21.7,33.5
			l26.4-3.5c-2.8,8.4-9.9,15.3-26,18.9l12.8,0.7c-1.1,5.8-4.5,9.9-13.2,10l6.4,9.9l-4.2,7.8v13.2c-32.1,8.9-64.2,10.2-96.3,0
			l-27.4,16.8c-9.5,9.9-15.7,21.2-18.5,33.8l-20.7,11.8c-32-4.6-71.1-3-112.7,1.1L120.7,376.9z"/>
		<path d="M121.9,384.6l-3-6.9c-8.8-20.2-10-37.6-3.6-51.7c6.4-14.2,20.5-24.8,41.7-31.7c15.7-30.8,65-41.7,127.2-55.5
			c41.3-9.1,88.1-19.5,132.9-37.7l2.8-1.1l0,3c-0.1,11.3-5.6,21.5-16.4,30.5l21.9-2.9l-1,3c-2.5,7.5-8.1,13.1-16.8,16.8l4.1,0.2
			l-0.4,2.2c-1.2,6.6-5,10.4-11.7,11.4l5.2,8.1l-4.6,8.4V295l-1.5,0.4c-34.5,9.6-66.1,9.7-96.5,0.3l-26.4,16.2
			c-9.1,9.5-15.1,20.5-17.8,32.7l-0.2,0.9l-22,12.6l-0.7-0.1c-27.4-3.9-62.6-3.6-110.6,0.9L121.9,384.6z M415.7,206
			c-44.2,17.6-90,27.8-130.6,36.7c-61.7,13.7-110.4,24.5-124.9,54.1l-0.4,0.8l-0.8,0.3c-20.6,6.5-34.1,16.5-40.1,29.8
			c-5.2,11.3-4.9,25.1,0.6,40.9l1.4-13.4l1.6-0.2c48.8-4.7,84.5-5.1,112.5-1.2l19.3-11c3-12.6,9.3-24,18.8-33.9l0.2-0.2l28.4-17.4
			l0.9,0.3c29.5,9.3,60.2,9.5,93.7,0.4v-12.2l3.9-7.3l-7.7-12l3.6-0.1c7-0.1,9.6-2.9,10.7-6.1l-24.8-1.4l14.1-3.1
			c12.1-2.7,19.6-7.3,23.2-14.5l-31.3,4.2l7.1-4.8C407.5,226.3,414.5,216.6,415.7,206z"/>
	</g>
	<g>
		<path class="st7" d="M180.2,277.8c-0.8,7.1,11.7,16.6,18.4,16.6c21.3,0,23.8-17.9,43-17.9c10,0,17.1-2.9,28.4,1.3
			c7.5,2.4,28.4,9.6,28.4,16.3c0,2.4-20.4,13.8-24.2,15.4c-13,6.3-16.7,44.6-27.9,44.6h-44.6c-7.1,0-33,0.4-24.6-7.9
			c23-23-14.6-17.9-20.9-33.4C150.2,298.3,164,279,180.2,277.8z"/>
		<path d="M199.7,356.1c-14.4,0-24.3-1-26.2-5.4c-0.5-1.3-0.6-3.3,1.9-5.9c5-5,7.2-8.8,6.7-11.3c-0.6-3.1-5.6-5.1-10.9-7.3
			c-6.7-2.8-14.4-5.9-17.1-12.7c-2.8-7-1.7-15.3,3-22.9c5.3-8.5,14.1-14.2,22.9-14.9l2.4-0.2l-0.3,2.4c-0.2,1.8,1,4.3,3.2,6.8
			c3.8,4.2,9.7,7.6,13.2,7.6c10.2,0,15.7-4.3,21.5-8.9c5.6-4.4,11.5-9,21.5-9c2.9,0,5.6-0.3,8.2-0.5c6.4-0.6,12.5-1.2,20.9,1.9
			c26.6,8.7,29.7,14.5,29.7,18.1c0,1.2,0,2.7-11.7,9.7c-5.5,3.3-11.6,6.6-13.7,7.5c-5.6,2.7-9.7,13.5-13.4,23.1
			c-4.4,11.7-8.3,21.7-15.4,21.7l-45.6,0C200.2,356.1,200,356.1,199.7,356.1z M178.3,280.1c-6.9,1.2-13.5,6-17.7,12.7
			c-4,6.5-5,13.5-2.7,19.2c2.1,5.2,8.6,7.9,14.9,10.5c6.3,2.6,12.3,5,13.3,10.2c0.8,4-1.7,8.8-7.8,14.9c-1,1-1.1,1.5-1.1,1.5
			c0.2,0.5,2,3,23.3,3l1,0h44.6c4.3,0,8.2-10.2,11.6-19.2c4.1-10.7,8.3-21.9,15.4-25.3c4.4-1.9,20.7-11.2,23-14
			c-0.4-1.5-3.6-6.4-26.9-14c-7.6-2.8-13-2.3-19.2-1.7c-2.7,0.3-5.5,0.5-8.5,0.5c-8.7,0-13.7,4-19,8.2c-5.8,4.6-12.3,9.7-24,9.7
			c-4.6,0-11.6-3.9-16.2-9C180.7,285.6,178.9,283,178.3,280.1z"/>
	</g>
	<g>
		<path class="st2" d="M125.1,356.8c4.9-6.5,17.1-11.3,25.5-11.3c8.1,0,15.8-3.2,24.3-3.2c1.6,0,10.3-1.3,7.7-1.3
			c-8.4,0-17.7,5.8-27.1,5.8C149.9,346.8,127.6,352.3,125.1,356.8z"/>
		<path d="M125.1,356.9l-0.2-0.1c0.2-0.3,0.4-0.6,0.7-0.9c5.4-6.2,17.2-10.5,24.9-10.5c4,0,8-0.8,11.8-1.6c3.9-0.8,8-1.6,12.2-1.6
			c2.7-0.8,5.3-1.3,7.9-1.3c0.4,0,0.6,0,0.6,0.2c0,0.1,0,0.3-3.7,0.8c-1.7,0.3-3.9,0.5-4.6,0.5c-0.1,0-0.1,0-0.2,0
			c-1.6,0.4-3.2,1-4.9,1.5c-4.7,1.5-9.5,3-14.3,3c-5.3,0-25.2,4.9-29.6,9.2C125.6,356.3,125.3,356.6,125.1,356.9z M173.8,342.4
			c-3.9,0.1-7.7,0.9-11.4,1.6c-3.9,0.8-7.9,1.6-11.9,1.6c-7.2,0-18,3.8-23.7,9.4c3-2.1,8.7-3.9,12.3-5c6.4-1.9,13.4-3.3,16.3-3.3
			c4.8,0,9.6-1.5,14.3-3C171.1,343.2,172.5,342.8,173.8,342.4z M182.5,341.1c-2.2,0-4.5,0.4-6.9,1
			C177.5,341.9,181.4,341.4,182.5,341.1C182.6,341.1,182.5,341.1,182.5,341.1z"/>
	</g>
	<g>
		<path class="st3" d="M182.5,341c3.2-1.6,13.9-3.9,17.4-3.9c4.2,0,9.7-1.9,14.5-1.9c6.1,0,20-2.5,23.8,1.3c1.7,1.7-2.2,5.2-3.2,5.2
			c-3,0,0.3-4.2-1.9-4.2C215.9,337.4,199.5,339.3,182.5,341z"/>
		<path d="M235.1,341.7c-0.5,0-0.9-0.1-1.2-0.4c-0.4-0.5-0.3-1.3-0.2-2c0.1-0.6,0.2-1.2,0-1.5c-0.1-0.1-0.3-0.2-0.6-0.2
			c-15.2,0-29.4,1.4-44.5,2.9c-2.1,0.2-4.1,0.4-6.2,0.6l-0.6,0.1l0.5-0.3c3.4-1.6,14-3.9,17.5-3.9c2,0,4.3-0.4,6.7-0.9
			c2.6-0.5,5.3-1,7.8-1c1.6,0,3.7-0.2,5.9-0.3c6.7-0.5,15.1-1.2,18,1.7c0.5,0.5,0.6,1.2,0.2,2C238,339.9,235.9,341.7,235.1,341.7z
			 M233.2,337.3c0.3,0,0.6,0.1,0.7,0.3c0.3,0.4,0.2,1,0.1,1.7c-0.1,0.7-0.2,1.4,0.1,1.8c0.2,0.2,0.5,0.3,1,0.3
			c0.6,0,2.6-1.6,3.3-3.2c0.3-0.8,0.3-1.4-0.2-1.8c-2.8-2.8-11.1-2.1-17.8-1.6c-2.2,0.2-4.4,0.3-5.9,0.3c-2.5,0-5.2,0.5-7.8,1
			c-2.4,0.5-4.8,0.9-6.8,0.9c-3.2,0-12.9,2-16.8,3.6c1.9-0.2,3.7-0.4,5.6-0.5C203.8,338.7,218,337.3,233.2,337.3z"/>
	</g>
	<g>
		<path class="st3" d="M243.3,311.3c8.6,0,15.7-6.7,15.7-15c0-8.2-7.1-15-15.7-15s-15.7,6.8-15.7,15
			C227.6,304.6,234.6,311.3,243.3,311.3z"/>
		<path d="M243.3,311.4c-8.7,0-15.8-6.8-15.8-15.1s7.1-15.1,15.8-15.1s15.8,6.8,15.8,15.1S252,311.4,243.3,311.4z M243.3,281.4
			c-8.6,0-15.6,6.7-15.6,14.9s7,14.9,15.6,14.9s15.6-6.7,15.6-14.9S251.9,281.4,243.3,281.4z"/>
	</g>
	<g>
		<path class="st3" d="M172.5,300.4l-0.4,0.9c0,0.4-0.6,1.2-0.6,1.6c0,0.6-1.1,1.7-1.3,2.9c0,0.2-0.2,2.4-0.2,2.4
			c0,0.2,3.7,1.2,4,1.2c1.1,0,2.2,0,3.3,0c1.1,0,9.9-0.2,10.2-1.2c0-0.2,0-1.5,0-1.7c0-1.4-2-1.6-2.9-1.8c-0.2,0-0.9-0.9-1.3-0.9
			c-0.7,0-0.2-0.4-0.9-0.4c-1.5,0-3.5-2.2-5-2.2c-0.2,0-0.4-0.4-0.9-0.4C175.2,300.6,174.1,300.6,172.5,300.4z"/>
		<path d="M177.2,309.4h-3.3c0,0-4.1-0.9-4.1-1.3c0.1-0.8,0.2-2.2,0.2-2.4c0.1-0.6,0.5-1.2,0.8-1.8c0.3-0.5,0.5-0.8,0.5-1.1
			c0-0.2,0.2-0.5,0.3-0.8c0.2-0.3,0.3-0.6,0.3-0.7l0,0l0.5-0.9l0.1,0c1.6,0.2,2.7,0.2,3.8,0.2c0.3,0,0.5,0.2,0.6,0.3
			c0.1,0.1,0.2,0.1,0.2,0.1c0.8,0,1.7,0.6,2.6,1.1c0.9,0.5,1.7,1.1,2.5,1.1c0.4,0,0.5,0.1,0.6,0.3c0,0.1,0.1,0.2,0.4,0.2
			c0.3,0,0.6,0.3,0.9,0.6c0.1,0.1,0.3,0.3,0.4,0.3c0.1,0,0.3,0.1,0.4,0.1c1,0.2,2.6,0.5,2.6,1.8v1.7
			C187.2,309.3,177.3,309.4,177.2,309.4z M170,308.1c0.4,0.2,3.6,1.1,3.8,1.1h3.3c2.8,0,9.9-0.4,10-1.1l0-1.7c0-1.1-1.4-1.4-2.4-1.6
			c-0.2,0-0.3-0.1-0.4-0.1c0,0,0,0,0,0c-0.1,0-0.2-0.1-0.5-0.3c-0.2-0.2-0.6-0.5-0.8-0.5c-0.4,0-0.5-0.1-0.6-0.3
			c0-0.1-0.1-0.2-0.4-0.2c-0.8,0-1.7-0.6-2.6-1.1c-0.9-0.5-1.7-1.1-2.5-1.1c-0.1,0-0.2-0.1-0.4-0.2c-0.1-0.1-0.3-0.2-0.5-0.2
			c-1.1,0-2.2,0-3.8-0.2l-0.4,0.8c0,0.2-0.2,0.5-0.3,0.8c-0.2,0.3-0.3,0.6-0.3,0.7c0,0.3-0.2,0.8-0.5,1.2c-0.3,0.5-0.6,1.1-0.8,1.7
			C170.2,305.9,170.1,307.8,170,308.1z"/>
	</g>
	<g>
		<path class="st2" d="M245.4,294.2c2.2,0,4-1.7,4-3.7c0-2.1-1.8-3.8-4-3.8c-2.2,0-4,1.7-4,3.8C241.3,292.6,243.1,294.2,245.4,294.2
			z"/>
		<path d="M245.4,294.3c-2.3,0-4.1-1.7-4.1-3.9c0-2.2,1.9-3.9,4.1-3.9s4.1,1.8,4.1,3.9C249.5,292.6,247.7,294.3,245.4,294.3z
			 M245.4,286.8c-2.2,0-3.9,1.7-3.9,3.7c0,2,1.8,3.6,3.9,3.6c2.2,0,3.9-1.6,3.9-3.6C249.3,288.4,247.5,286.8,245.4,286.8z"/>
	</g>
	<g>
		<path class="st3" d="M218.2,407.3c0,16.2,54.7,19,67,17.4c6-0.9,14-0.3,19.1-2.9c3.1-1.4,8.6-4.8,3.7,0
			C292,437.7,209.3,424.3,218.2,407.3z"/>
		<path d="M278,429c-3.7,0-7.6-0.2-11.8-0.5c-18.8-1.5-36.6-6.4-44.4-12c-4.2-3-5.4-6.2-3.8-9.3l0.2-0.4v0.4c0,2.3,1.1,4.4,3.3,6.3
			c3.6,3.2,12.2,7.5,32.4,9.9c12.7,1.5,25.8,1.7,31.2,1c1.9-0.3,4-0.4,6.2-0.5c4.6-0.3,9.4-0.6,12.9-2.3c0.7-0.3,1.5-0.7,2.2-1.1
			c2.3-1.2,3.3-1.6,3.5-1.3c0.1,0.2,0.1,0.5-1.9,2.5C303.3,426.5,292.5,429,278,429z M218.1,407.7c-1.3,2.9,0.1,5.8,3.9,8.6
			c7.7,5.6,25.5,10.4,44.2,12c20.3,1.7,35.8-0.8,41.5-6.6c1.9-1.8,1.9-2.2,1.9-2.3c-0.2-0.2-2,0.7-3.2,1.3c-0.8,0.4-1.6,0.8-2.2,1.1
			c-3.5,1.8-8.3,2.1-12.9,2.4c-2.2,0.1-4.3,0.3-6.2,0.5c-5.4,0.7-18.5,0.6-31.2-1c-20.2-2.5-28.8-6.8-32.5-10
			C219.3,411.9,218.2,409.9,218.1,407.7z"/>
	</g>
	<g>
		<path class="st3" d="M211.4,421.4c0,16.3,54.8,19.2,67,17.4c6-0.9,14-0.3,19.1-2.9c3.1-1.4,8.5-4.8,3.7,0
			C285.3,452,202.5,438.6,211.4,421.4z"/>
		<path d="M271.3,443.3c-3.7,0-7.6-0.2-11.8-0.5c-18.8-1.5-36.6-6.4-44.4-12c-4.2-3-5.5-6.2-3.8-9.3l0.2-0.4v0.4
			c0,2.3,1.1,4.5,3.4,6.4c3.7,3.2,12.3,7.5,32.4,10c12.7,1.6,25.8,1.7,31.1,1c1.9-0.3,4-0.4,6.2-0.5c4.6-0.3,9.4-0.6,12.9-2.3
			c0.7-0.3,1.5-0.7,2.3-1.1c2.2-1.1,3.1-1.6,3.4-1.2c0.1,0.2,0.1,0.5-1.9,2.6C296.6,440.7,285.7,443.3,271.3,443.3z M211.3,421.9
			c-1.3,2.9,0.1,5.8,4,8.7c7.7,5.6,25.5,10.5,44.3,12c20.2,1.7,35.8-0.8,41.6-6.6c1.9-1.9,1.9-2.2,1.9-2.3c-0.2-0.2-1.9,0.7-3.1,1.3
			c-0.8,0.4-1.6,0.8-2.3,1.1c-3.5,1.8-8.3,2.1-12.9,2.4c-2.2,0.1-4.3,0.3-6.2,0.5c-5.3,0.8-18.4,0.6-31.2-1
			c-20.2-2.5-28.8-6.8-32.5-10C212.6,426.1,211.4,424.1,211.3,421.9z"/>
	</g>
	<g>
		<path class="st3" d="M199.3,428.4c-3.2,16,49.8,29.7,62.2,30.5c6,0.3,13.8,2.4,19.3,1c3.3-0.8,9.4-3.1,3.6,0.7
			C265.6,473,187.2,443.4,199.3,428.4z"/>
		<path d="M270.6,463.6c-7.7,0-17.5-1.6-28.4-4.8c-18.1-5.2-34.6-13.5-41.1-20.6c-3.5-3.8-4.1-7.2-1.9-9.9l0.3-0.3l-0.1,0.4
			c-0.5,2.3,0.2,4.6,2,6.9c2.9,3.9,10.5,9.8,29.8,16.2c12.1,4,24.9,6.8,30.3,7.2c2,0.1,4.2,0.4,6.4,0.7c4.5,0.6,9.1,1.3,12.8,0.3
			c0.7-0.2,1.5-0.4,2.3-0.6c2.6-0.7,3.6-1,3.8-0.6c0.1,0.2,0,0.6-2.4,2.2C281.4,462.6,276.7,463.6,270.6,463.6z M199.1,428.8
			c-1.8,2.6-1.1,5.7,2.2,9.3c6.5,7.1,22.9,15.3,41,20.6c19.5,5.7,35.3,6.3,42.1,1.8c2.3-1.5,2.4-1.9,2.3-1.9
			c-0.2-0.2-2.2,0.4-3.5,0.7c-0.8,0.2-1.6,0.5-2.3,0.6c-3.7,1-8.4,0.3-12.9-0.3c-2.3-0.3-4.4-0.6-6.4-0.7
			c-5.4-0.3-18.2-3.1-30.4-7.2c-19.3-6.4-26.9-12.4-29.9-16.3C199.5,433.2,198.8,431,199.1,428.8z"/>
	</g>
	<g>
		<path class="st3" d="M185.8,442.1c-3.2,15.9,49.8,29.6,62.2,30.4c6,0.4,13.8,2.5,19.3,1c3.4-0.8,9.4-3,3.6,0.7
			C252.1,486.7,173.7,457.1,185.8,442.1z"/>
		<path d="M257.1,477.3c-7.7,0-17.5-1.6-28.5-4.8c-18.1-5.3-34.6-13.5-41.1-20.6c-3.4-3.8-4.1-7.1-1.9-9.8l0.3-0.3l-0.1,0.4
			c-0.5,2.2,0.2,4.6,2,6.9c2.9,3.8,10.5,9.8,29.8,16.2c12.1,4,25,6.8,30.4,7.2c1.9,0.1,4,0.4,6.1,0.7c4.6,0.7,9.4,1.3,13.1,0.3
			c0.7-0.2,1.5-0.4,2.3-0.6c2.6-0.7,3.6-1,3.8-0.6c0.1,0.2,0,0.6-2.4,2.1C268,476.3,263.2,477.3,257.1,477.3z M185.6,442.5
			c-1.8,2.6-1.1,5.7,2.1,9.2c6.4,7.1,22.9,15.3,41,20.6c19.5,5.7,35.3,6.3,42.1,1.8c2.2-1.5,2.4-1.8,2.4-1.9
			c-0.2-0.2-2.2,0.4-3.5,0.7c-0.8,0.2-1.6,0.5-2.3,0.6c-3.8,1-8.6,0.4-13.2-0.3c-2.2-0.3-4.2-0.6-6.1-0.7
			c-5.4-0.3-18.3-3.1-30.4-7.2c-19.3-6.4-26.9-12.4-29.9-16.3C186.1,446.9,185.3,444.7,185.6,442.5z"/>
	</g>
	<g>
		<path class="st3" d="M170.4,457.1c-3.2,15.9,49.8,29.7,62.2,30.4c6,0.4,13.8,2.5,19.3,1c3.3-0.7,9.3-3,3.6,0.8
			C236.7,501.7,158.3,472.1,170.4,457.1z"/>
		<path d="M241.7,492.4c-7.7,0-17.5-1.6-28.4-4.8c-18.1-5.2-34.6-13.5-41.1-20.6c-3.5-3.8-4.1-7.2-1.9-9.9l0.3-0.3l-0.1,0.4
			c-0.5,2.3,0.2,4.6,2,6.9c5.6,7.3,21.1,13.3,29.8,16.2c12.2,4.1,25,6.8,30.3,7.1c1.9,0.1,4,0.4,6.1,0.7c4.6,0.7,9.4,1.3,13.1,0.3
			c0.8-0.2,1.6-0.4,2.5-0.6c2.4-0.7,3.4-0.9,3.6-0.5c0.1,0.2,0,0.6-2.4,2.2C252.5,491.4,247.8,492.4,241.7,492.4z M170.2,457.5
			c-1.8,2.6-1.1,5.7,2.2,9.3c6.5,7.1,22.9,15.3,41,20.6c19.5,5.7,35.3,6.3,42.1,1.8c2.3-1.5,2.3-1.9,2.3-1.9
			c-0.1-0.2-2.1,0.3-3.3,0.7c-0.9,0.2-1.7,0.5-2.5,0.6c-3.8,1-8.6,0.4-13.2-0.3c-2.2-0.3-4.2-0.6-6.1-0.7
			c-5.3-0.3-17.7-2.9-30.4-7.1c-19.3-6.4-26.9-12.4-29.9-16.3C170.7,461.9,169.9,459.7,170.2,457.5z"/>
	</g>
	<g>
		<path class="st3" d="M153.1,473.4c-3.2,16,49.9,29.7,62.2,30.4c6,0.4,13.8,2.5,19.3,1c3.4-0.7,9.4-3,3.7,0.8
			C219.4,518,141.1,488.4,153.1,473.4z"/>
		<path d="M224.5,508.6c-7.7,0-17.5-1.6-28.4-4.8c-18.1-5.2-34.6-13.5-41.1-20.6c-3.5-3.8-4.1-7.1-1.9-9.9l0.3-0.3l-0.1,0.4
			c-0.5,2.3,0.2,4.6,2.1,7c5.7,7.3,21.1,13.3,29.8,16.2c12.2,4,24.9,6.8,30.2,7.1c1.9,0.1,4,0.4,6.1,0.7c4.6,0.7,9.4,1.3,13.1,0.3
			c0.8-0.2,1.7-0.4,2.6-0.7c2.4-0.7,3.4-0.9,3.6-0.5c0.1,0.2,0,0.6-2.4,2.2C235.3,507.6,230.6,508.6,224.5,508.6z M153,473.8
			c-1.8,2.6-1.1,5.7,2.2,9.3c6.5,7.1,22.9,15.3,41,20.6c19.5,5.7,35.3,6.3,42.1,1.8c2.3-1.5,2.3-1.9,2.3-1.9c-0.1-0.2-2,0.3-3.3,0.6
			c-0.9,0.2-1.8,0.5-2.6,0.7c-3.8,1-8.6,0.4-13.2-0.3c-2.2-0.3-4.2-0.6-6.1-0.7c-5.3-0.3-18.1-3.1-30.3-7.1
			c-19.3-6.4-26.9-12.4-29.9-16.3C153.4,478.2,152.7,476,153,473.8z"/>
	</g>
	<g>
		<path class="st3" d="M332.3,419.9c2.9,0,6.7,0,9.5,0c6.2,0,18.1-6.1,23.3-9.5c1.9-1.4,3.8-3.8,5.7-4.8c3.3-2.4,7.1-7.6,9.1-11.4
			l3.7-7.6c-1.9,0-3.7,9.5-4.2,10.9c-0.9,1.9-0.9,6.6-1.4,9c-2.4,7.6-14.3,16.1-22.8,18c-2.8,0.5-9.9,1.4-12.3,0.5
			c-1.9-0.9-4.3-0.9-5.3-2.9C337.1,421.2,334.7,418.9,332.3,419.9z"/>
		<path d="M346.2,425.6c-1.4,0-2.6-0.1-3.3-0.4c-0.6-0.3-1.2-0.5-1.9-0.7c-1.4-0.4-2.8-0.9-3.4-2.3c-0.3-0.6-1.4-1.8-2.8-2.2h-2.9
			l0.5-0.2c0.8-0.3,1.7-0.3,2.4,0h7.1c5.8,0,17.3-5.7,23.3-9.5c0.7-0.5,1.5-1.3,2.2-1.9c1.2-1.1,2.4-2.2,3.5-2.8
			c3.3-2.4,7.1-7.6,9-11.3l0.8-1.6c0.9-3.3,1.9-6.1,3-6.1h0.2l-3,6.1c-0.3,1.1-0.6,2.2-0.8,3.1c-0.2,0.9-0.4,1.6-0.5,1.9
			c-0.6,1.2-0.8,3.4-1,5.6c-0.1,1.3-0.2,2.5-0.4,3.4c-2.4,7.8-14.5,16.2-22.9,18.1C353.4,425,349.3,425.6,346.2,425.6z M335.3,420
			c1.2,0.6,2.1,1.5,2.4,2.1c0.6,1.3,1.9,1.7,3.3,2.1c0.6,0.2,1.3,0.4,1.9,0.7c2.4,0.9,9.8-0.1,12.2-0.5c8.3-1.8,20.3-10.2,22.7-17.9
			c0.2-0.9,0.3-2.1,0.4-3.4c0.2-2.2,0.4-4.4,1-5.6c0.1-0.3,0.3-1,0.5-1.9c0.2-0.7,0.3-1.3,0.5-2l-0.3,0.6c-1.9,3.7-5.7,9-9.1,11.4
			c-1.1,0.6-2.3,1.7-3.5,2.8c-0.7,0.7-1.5,1.4-2.2,2c-4.6,3-17,9.5-23.4,9.5H335.3z M333.4,419.8h0.3
			C333.6,419.8,333.5,419.8,333.4,419.8z M383.5,386.7c-0.8,0.3-1.6,2.4-2.3,4.7L383.5,386.7z"/>
	</g>
	<g>
		<path class="st3" d="M324.3,444.1c9.1,0,18.1,0,26.6-1.4c1.9,0,4.2-1.9,6.2-1.9c3.7,0,7.6-1.4,9.5-4.3c0.9-1.9,5.2-5.2,7.1-5.7
			c0,0,1.4-1.9,0.4-0.9c-0.4,0.5-3.3,1.9-3.8,2.4c-1.4,1.4-3.3,5.3-4.8,6.6c-0.9,1-9.9,8.6-10.4,8.6c-4.8,0-9.9,1.9-15.7,1.9
			c-2.4,0-6.6,0-8.5-1C330.5,447.9,324.3,445,324.3,444.1z"/>
		<path d="M339.5,449.4c-2.3,0-6.7,0-8.5-1c-0.2-0.1-0.8-0.5-1.6-0.9c-2.8-1.5-5.1-2.8-5.1-3.4v-0.1h0.1c8.9,0,18.1,0,26.6-1.4
			c0.9,0,2-0.5,3-0.9c1.1-0.5,2.2-1,3.2-1c4,0,7.6-1.6,9.4-4.3c0.4-0.8,1.5-2,2.8-3c0.3-0.5,0.7-0.9,1-1.2c0.3-0.3,1-0.7,1.9-1.1
			c0.8-0.5,1.7-1,2-1.2c0.3-0.3,0.4-0.4,0.5-0.3c0.1,0.1,0.2,0.1-0.8,1.3l0,0l0,0c-1.1,0.3-2.8,1.4-4.3,2.6
			c-0.4,0.6-0.8,1.2-1.2,1.9c-0.9,1.4-1.8,2.8-2.6,3.5c-0.9,1-9.9,8.6-10.5,8.6c-2.3,0-4.6,0.4-7.1,0.9
			C345.3,448.9,342.5,449.4,339.5,449.4z M324.4,444.2c0.3,0.7,3.3,2.3,5,3.1c0.9,0.5,1.5,0.8,1.7,0.9c1.8,1,6.1,1,8.4,1
			c3,0,5.8-0.5,8.6-1c2.5-0.5,4.8-0.9,7.1-0.9c0.6-0.1,9.3-7.4,10.4-8.5c0.8-0.7,1.7-2.1,2.5-3.5c0.3-0.4,0.5-0.8,0.8-1.2
			c-1,0.9-1.8,1.8-2.2,2.5c-1.8,2.7-5.5,4.4-9.6,4.4c-1,0-2.1,0.5-3.1,0.9c-1,0.5-2.1,0.9-3.1,0.9
			C342.4,444.2,333.3,444.2,324.4,444.2z M374.2,429.9c-0.3,0.3-1.1,0.7-2,1.2c-0.8,0.4-1.6,0.9-1.8,1.1c-0.1,0.2-0.3,0.3-0.5,0.5
			c1.3-1,2.7-1.9,3.7-2.2C373.9,430.4,374.1,430.1,374.2,429.9z"/>
	</g>
	<g>
		<path class="st3" d="M311.5,461.2c18.5,6.6,38,11.4,57.5,5.2c1.4-0.4,8.6-4.8,8.6-4.8c-0.5,0-17.1,11.4-17.1,11.4
			c-2.4,2.4-24.3,1.4-27.1-0.5C325.7,467.8,320.5,464,311.5,461.2z"/>
		<path d="M350.1,474.6c-7,0-15.2-0.8-16.8-1.9c-1.1-0.7-2.1-1.3-3.2-2c-5-3.2-9.2-5.8-14.8-8c-1.3-0.4-2.6-0.9-3.9-1.4l0.1-0.2
			c1.3,0.4,2.6,0.8,3.7,1.3c28.1,9.5,42.9,7.3,53.7,3.9c1-0.3,4.8-2.6,7-3.8c0.9-0.6,1.5-0.9,1.6-0.9h0.4l-0.3,0.2
			c-0.1,0.1-0.8,0.5-1.7,1c-3.2,2.1-10.3,6.9-15.4,10.4C359.5,474.2,355.1,474.6,350.1,474.6z M318,463.5c4.4,2,8,4.2,12.2,6.9
			c1,0.6,2.1,1.3,3.2,2c2.7,1.9,24.6,2.9,26.9,0.5c1.8-1.2,8-5.5,12.4-8.4c-1.6,0.9-3.2,1.8-3.7,1.9
			C351.4,472.1,333.7,468.6,318,463.5z"/>
	</g>
	<g>
		<path class="st3" d="M297.7,469.8c13.2,16.1,30.4,22.8,50.8,22.8c4.2,0,9,0,13.3,0c2.8,0-4.3,0-4.8,0.5
			c-4.8,3.3-35.7,9.5-39.5,1.9c-1-2.4-12.4-8.1-13.8-11.4C302.9,481.1,297.7,470.7,297.7,469.8z"/>
		<path d="M329.4,498.7c-2.7,0-5.2-0.2-7.2-0.8c-2.4-0.6-3.9-1.6-4.6-3c-0.5-1.1-3.1-2.9-6-4.8c-3.5-2.3-7.1-4.8-7.9-6.6
			c-0.4-0.9-1.4-3.1-2.5-5.4c-2.1-4.6-3.7-7.8-3.7-8.4v-0.3l0.2,0.2c12.6,15.3,29.2,22.7,50.7,22.7h13.3c0.3,0,0.5,0,0.6,0
			c0,0,0.1,0,0.1,0l0,0c0.1,0,0.1,0,0.1,0.1c0,0.1,0,0.1-0.1,0.1v0c0,0,0,0,0,0c-0.1,0-0.1,0-0.3,0c-4.3,0.1-5,0.4-5,0.5l0,0
			C354.2,495.2,340.1,498.7,329.4,498.7z M297.9,470.2c0.4,1.3,2.1,4.9,3.5,7.9c1.1,2.3,2.1,4.5,2.5,5.4c0.8,1.8,4.5,4.3,7.8,6.5
			c3,2,5.6,3.8,6,4.9c0.6,1.3,2.1,2.3,4.4,2.9c10,2.6,31.1-2.2,34.8-4.8c0.1-0.1,0.4-0.2,1.4-0.3h-9.9
			C327.1,492.6,310.5,485.3,297.9,470.2z"/>
	</g>
	<g>
		<path class="st3" d="M278.3,487.8c0.9,3.4,4.2,6.7,6.6,9.5c5.3,6.7,12.4,10.9,20.9,12c1.9,0,28.5,1.4,30,0c0.4-0.5,2.4-0.5-1.4,0
			c-7.1,1.4-32.3,8.1-38.4,1.9c-3.3-3.3-12.4-7.6-14.3-11.9C280.6,497.3,280.6,487.8,278.3,487.8z"/>
		<path d="M305.8,513.8c-4.4,0-8.1-0.7-10-2.6c-1.2-1.2-3.3-2.6-5.5-4.1c-3.6-2.4-7.6-5.1-8.8-7.8c-0.3-0.7-0.5-2.3-0.8-4.1
			c-0.1-1.1-0.3-2.3-0.5-3.4c-0.9-1.3-1.6-2.6-2-4l0-0.1h0.1c1.1,0,1.7,1.8,2.1,4c1,1.4,2.2,2.8,3.3,4.1c0.4,0.5,0.9,1,1.3,1.5
			c5.3,6.8,12.5,10.9,20.8,11.9c0,0,0,0,0,0c0.3,0,1.5,0,3.2,0.1c5.1,0.2,16.5,0.6,22.6,0.4c1-0.2,1.9-0.4,2.6-0.5
			c1-0.1,1.6-0.2,2-0.3c0.2-0.1,0.4-0.1,0.4-0.1l0.1,0l0,0.1c0,0,0,0.1-0.4,0.2c-0.2,0.1-0.4,0.1-0.5,0.3c-0.3,0.3-1.8,0.5-4.1,0.6
			c-0.4,0.1-0.8,0.2-1.2,0.3C324.3,511.5,313.9,513.8,305.8,513.8z M280.5,492.2c0.2,1,0.3,2,0.4,3c0.2,1.7,0.4,3.4,0.8,4
			c1.2,2.6,5.2,5.3,8.7,7.7c2.2,1.5,4.2,2.9,5.5,4.1c5.2,5.3,25,1,34.5-1.1c0,0,0.1,0,0.1,0c-5.2,0.1-13.4-0.2-21.5-0.5
			c-1.7-0.1-2.9-0.1-3.3-0.1c-8.3-1-15.6-5.1-21-12c-0.4-0.5-0.8-1-1.3-1.5C282.5,494.7,281.4,493.5,280.5,492.2z M335.7,509.1
			c-0.3,0.1-0.8,0.1-1.4,0.2c-0.4,0.1-0.9,0.2-1.4,0.3C334.4,509.5,335.4,509.4,335.7,509.1C335.7,509.1,335.7,509.1,335.7,509.1z
			 M278.4,487.9c0.3,1.1,0.9,2.2,1.7,3.3C279.7,489.4,279.2,488,278.4,487.9z"/>
	</g>
	<path d="M204.1,599.8c-3,1.4-6.4,2.4-10.4,2.8c-4,0.4-7.4,0-10.4-1.2c-3-1.2-5.4-3.1-7.2-5.7c-1.8-2.6-2.9-5.8-3.2-9.4
		c-0.4-3.9,0.1-7.4,1.4-10.7c1.4-3.2,3.5-5.8,6.4-7.7c2.9-2,6.3-3.2,10.3-3.6c3.2-0.4,6.3-0.3,9.4,0.1l1.1,10.3
		c-1.2-0.6-2.4-0.9-3.9-1.1c-1.4-0.2-2.9-0.2-4.3-0.1c-3,0.3-5.3,1.4-6.9,3.4c-1.5,1.9-2.2,4.3-1.9,7.3c0.3,3,1.4,5.2,3.4,6.7
		c1.9,1.5,4.3,2.2,7.3,1.9c2.7-0.3,5.3-1.3,7.9-3L204.1,599.8z"/>
	<path d="M233.3,598l-2.1-6.7l-6.1,0.4v-7.9l3.5-0.3l-3.3-9.9c-0.1-0.3-0.1-0.5-0.2-0.8v-11.4l5.8-0.4l14.5,36.1L233.3,598z
		 M225.1,591.7l-4.9,0.4l-1.3,6.9l-12,0.9l10.2-37.9l8.1-0.6v11.4c-0.4-1.2-0.6-2.2-0.8-3.3h-0.3c0,0.4-0.1,1.2-0.2,2.1
		c-0.1,0.9-0.9,5.1-2.3,12.4l3.6-0.2V591.7z"/>
	<path d="M268.6,596.4l-3-7.8c-0.6-1.6-1.4-2.8-2.2-3.7c-0.1-0.1-0.1-0.1-0.3-0.2v-9.1c0.9-0.1,1.7-0.6,2.3-1.2
		c0.9-0.9,1.4-1.9,1.3-3.2c-0.1-1.3-0.4-2.2-1.2-3c-0.6-0.5-1.4-0.8-2.4-0.9v-7.8c5.1-0.1,8.9,0.6,11.4,2.2c2.5,1.6,3.8,4.1,4,7.5
		c0.1,2.5-0.6,4.7-1.9,6.5c-1.4,1.8-3.5,3.1-6.3,4v0.1c1.6,0.4,2.9,1.2,4,2.2c1.1,1.1,2.1,2.7,3,4.8l4,9.3L268.6,596.4z
		 M263.1,584.7c-0.8-0.7-1.7-1-2.5-1h-0.4l0.4,13l-11.2,0.4l-1.3-37l14.8-0.5h0.1v7.8c-0.4-0.1-0.8-0.1-1.2-0.1l-2.3,0.1l0.3,8.5
		l2-0.1c0.4-0.1,0.9-0.1,1.2-0.2V584.7z"/>
	<path d="M313,594.6c-3,1.1-6.6,1.7-10.6,1.7c-3.9,0-7.3-0.7-10.2-2.2c-2.9-1.5-5-3.7-6.6-6.5c-1.5-2.7-2.3-6-2.3-9.6
		c0-4,0.9-7.4,2.5-10.4c1.7-3.1,4.1-5.4,7.2-7.1c3.1-1.7,6.6-2.5,10.6-2.5c3.2,0,6.3,0.4,9.3,1.2v10.3c-1-0.6-2.2-1.1-3.7-1.4
		c-1.4-0.4-2.9-0.5-4.3-0.5c-3.1,0-5.5,0.9-7.1,2.6c-1.7,1.7-2.7,4.1-2.7,7.1c0,3,0.9,5.3,2.7,7c1.7,1.7,4,2.6,6.9,2.6
		c2.7,0,5.5-0.7,8.2-2.1V594.6z"/>
	<path d="M342.1,596.6l-1.4-6.8l-5.3-0.2v-7.9l3.5,0.1l-2.2-10.2c-0.3-1.4-0.5-2.9-0.6-4.2h-0.3c-0.1,0.4-0.2,1.1-0.4,2v0.1v-10.2
		l8.1,0.3l10.7,37.4L342.1,596.6z M335.4,589.5l-5.8-0.2l-1.9,6.8l-12.1-0.4l14-36.6l5.8,0.2v10.2c-0.3,1-1.4,5-3.5,12l3.5,0.1
		V589.5z"/>
	<path d="M377.8,599.2l-2.1-8.2c-0.1-0.5-0.3-1-0.4-1.5v-11.7c0.7-0.1,1.4-0.4,2-0.9c0.9-0.8,1.5-1.8,1.7-3c0.1-1.2-0.2-2.3-0.9-3
		c-0.6-0.7-1.5-1.2-2.7-1.4v-7.8l1.4,0.1c5.2,0.4,8.9,1.7,11.2,3.5c2.3,1.9,3.3,4.5,3,7.9c-0.2,2.5-1.2,4.6-2.7,6.2
		c-1.6,1.6-3.8,2.7-6.7,3.2v0.1c1.5,0.6,2.7,1.5,3.7,2.7s1.7,2.9,2.4,5l2.8,9.7L377.8,599.2z M375.3,589.5c-0.4-0.9-0.8-1.7-1.3-2.4
		c-0.8-0.9-1.7-1.4-2.7-1.6h-0.4l-1.2,13l-11.2-0.9l3.2-36.9l13.5,1.2v7.8c-0.2,0-0.4-0.1-0.7-0.1l-2.2-0.2l-0.8,8.5l2,0.1
		c0.6,0.1,1.2,0,1.7-0.1V589.5z"/>
	<path d="M417.8,604.2l-0.8-7l-4.6-0.6v-7.9l3.5,0.4l-1.4-10.3c-0.1-1.5-0.2-2.9-0.2-4.2l-0.3-0.1c-0.1,0.4-0.3,1.1-0.6,2
		c-0.1,0.4-0.5,1.3-1.1,2.8v-13.1l10,1.2l7.4,38.2L417.8,604.2L417.8,604.2z M412.4,562.8v-3l5.7-4.8l9.1,1.2l-10.2,7.1L412.4,562.8
		z M412.4,596.6l-6.4-0.7l-2.6,6.6l-12-1.5l17.2-35.2l3.7,0.5v13.1c-0.8,1.9-1.9,5-3.5,8.9l3.5,0.4V596.6L412.4,596.6z M412.4,559.8
		v3l-3-0.4L412.4,559.8z"/>
</g>
</svg>
