<?xml version="1.0" encoding="utf-8"?>
<!-- Generator: Adobe Illustrator 21.0.2, SVG Export Plug-In . SVG Version: 6.00 Build 0)  -->
<svg version="1.1" id="Camada_1" xmlns="http://www.w3.org/2000/svg" xmlns:xlink="http://www.w3.org/1999/xlink" x="0px" y="0px"
	 viewBox="0 0 595 842" style="enable-background:new 0 0 595 842;" xml:space="preserve">
<style type="text/css">
	.st0{fill-rule:evenodd;clip-rule:evenodd;fill:#303C8C;}
	.st1{fill-rule:evenodd;clip-rule:evenodd;fill:#316190;}
	.st2{fill-rule:evenodd;clip-rule:evenodd;fill:#FFFFFF;}
	.st3{fill-rule:evenodd;clip-rule:evenodd;}
	.st4{fill-rule:evenodd;clip-rule:evenodd;fill:#BF9262;}
	.st5{fill:#BF9262;}
	.st6{fill-rule:evenodd;clip-rule:evenodd;fill:#FEEE00;}
	.st7{fill:#FEEE00;}
	.st8{fill-rule:evenodd;clip-rule:evenodd;fill:#FEF48A;}
	.st9{fill:#050006;}
</style>
<g>
	<g>
		<path class="st0" d="M313.6,165.7c115,0,208.2,89.6,208.2,200.2c0,110.4-93.2,200-208.2,200c-114.8,0-208.1-89.6-208.1-200
			C105.5,255.3,198.8,165.7,313.6,165.7z"/>
		<path d="M313.6,569.9c-116.9,0-212.1-91.5-212.1-204c0-112.6,95.1-204.2,212.1-204.2c117,0,212.2,91.6,212.2,204.2
			C525.8,478.4,430.6,569.9,313.6,569.9z M313.6,169.7c-112.5,0-204.1,88-204.1,196.2c0,108.1,91.5,196,204.1,196
			c112.6,0,204.2-87.9,204.2-196C517.8,257.7,426.2,169.7,313.6,169.7z"/>
	</g>
	<path class="st1" d="M313.6,185.2c103.8,0,188,80.9,188,180.6c0,99.6-84.2,180.6-188,180.6c-103.7,0-187.8-80.9-187.8-180.6
		C125.8,266.1,209.9,185.2,313.6,185.2z"/>
	<path class="st0" d="M313.6,511.4c83.5,0,151.6-65.4,151.6-145.6c0-80.2-68-145.7-151.6-145.7c-83.4,0-151.4,65.4-151.4,145.7
		C162.2,446,230.2,511.4,313.6,511.4z"/>
	<g>
		<path class="st2" d="M313.6,229.6c78.3,0,141.7,61,141.7,136.2c0,75.1-63.4,136.1-141.7,136.1c-78.1,0-141.6-61-141.6-136.1
			C172.1,290.6,235.5,229.6,313.6,229.6z"/>
		<path d="M313.6,502.1c-19.1,0-37.7-3.6-55.1-10.7c-16.9-6.9-32-16.7-45-29.2c-13-12.5-23.2-27.1-30.4-43.3
			c-7.4-16.8-11.1-34.6-11.1-53c0-18.4,3.7-36.3,11.1-53.1c7.1-16.2,17.4-30.8,30.4-43.3c13-12.5,28.2-22.3,45-29.2
			c17.5-7.1,36-10.7,55.1-10.7c19.1,0,37.7,3.6,55.2,10.7c16.9,6.9,32.1,16.7,45.1,29.2c13,12.5,23.2,27.1,30.4,43.3
			c7.4,16.8,11.1,34.7,11.1,53.1c0,18.4-3.7,36.2-11.1,53c-7.1,16.2-17.4,30.8-30.4,43.3c-13,12.5-28.2,22.3-45.1,29.2
			C351.3,498.4,332.8,502.1,313.6,502.1z M313.6,229.7c-19.1,0-37.6,3.6-55,10.7c-16.8,6.9-32,16.7-45,29.2
			c-13,12.5-23.2,27.1-30.3,43.3c-7.4,16.8-11.1,34.6-11.1,53c0,18.3,3.7,36.1,11.1,52.9c7.1,16.2,17.3,30.7,30.3,43.2
			c13,12.5,28.1,22.3,45,29.2c17.4,7.1,36,10.7,55,10.7c19.1,0,37.7-3.6,55.1-10.7c16.9-6.9,32-16.7,45-29.2
			c13-12.5,23.2-27,30.3-43.2c7.4-16.8,11.1-34.6,11.1-52.9c0-18.4-3.7-36.2-11.1-53c-7.1-16.2-17.3-30.8-30.3-43.3
			s-28.1-22.3-45-29.2C351.3,233.3,332.7,229.7,313.6,229.7z"/>
	</g>
	<g>
		<path class="st3" d="M341.9,335.6c25.1,19.9,197.4,163.8,65.4,133.6c-40.7-9.4-85.9-7.9-130-7.9c-32.3,0-68.6,13.5-92.3,13.5
			c-31.5,0-34.5-108.7,11.1-123c31.5-10.2,52.7,1.1,81.2,8.7C293.1,364.6,327.7,336.4,341.9,335.6z"/>
		<path d="M185.1,482.7c-15,0-26.2-15.1-30.1-40.4c-2.8-18.5-1.3-40,4.1-57.3c6.8-21.8,18.8-35.9,34.6-40.9c27.8-9,48.3-2.7,70.1,4
			c5,1.5,10.2,3.1,15.6,4.6c5.9,1.6,21.9-7.1,32.5-12.9c11.6-6.3,21.7-11.8,29.5-12.2l3-0.2l2.4,1.9c12.7,10.1,43.5,36,69.4,61.8
			c39.4,39.2,53.7,63.4,46.4,78.4c-8,16.5-36.5,12.1-57.2,7.4c-35-8.1-74.4-7.9-112.6-7.8c-5.2,0-10.4,0-15.6,0
			c-16.6,0-34.3,3.7-51.5,7.3C211,479.8,196.9,482.7,185.1,482.7z M221.1,355.7c-7,0-14.3,1.1-22.4,3.7
			c-14.2,4.4-21.2,20.9-24.2,30.4c-4.7,15.2-6.1,33.9-3.6,50.1c2.4,15.8,8.3,26.8,14.2,26.8c10.1,0,23.4-2.8,37.5-5.8
			c17.1-3.6,36.5-7.7,54.8-7.7c5.2,0,10.4,0,15.5,0c39-0.2,79.4-0.3,116.2,8.2c34.9,8,39.2,1.4,39.2,1.3c0.2-0.5,5-12.1-43.3-60.1
			c-23.7-23.6-51.5-47.3-65.3-58.4c-5,1.5-13.3,6-20.1,9.8c-16.5,9-32.2,17.5-44.3,14.3c-5.7-1.5-11-3.2-16.2-4.7
			C245.6,359.3,233.9,355.7,221.1,355.7z"/>
	</g>
	<g>
		<path class="st2" d="M123.4,556.9l77-22l1.2-15.7c81.6-12,156.3-10.8,224.6,3.4l0.3,14.7l76.6,19.7c-4-12.8-10.4-22.5-18-30.2
			c10.2-7.1,17.5-13.6,18-18.9l-39.3-13.4v-21c-89.6-26.4-199.4-29.1-301.8,0v21.7l-38.5,12.7c-3.5,3.2,11.5,13.1,17.2,19.7
			C134.9,537.3,125.6,546.2,123.4,556.9z"/>
		<path d="M118.1,562.5l1.3-6.5c1.6-7.9,6.5-14.7,11.3-21.2c1.7-2.4,3.4-4.6,4.8-6.9c-1.6-1.5-3.5-3.2-5.4-4.9
			c-7.2-6.2-11.2-10-11.3-14.1c0-1.6,0.6-3.1,1.8-4.2l0.6-0.6l36.6-12v-21.8l2.9-0.8c98.4-28,209.2-28,304,0l2.9,0.8v21.1l39.6,13.5
			l-0.3,3.1c-0.5,5.5-5.4,11.3-16,19.1c7.2,8.2,12.4,17.6,15.8,28.4l2.2,6.9l-86.5-22.2l-0.3-14.5c-65.8-13.2-138.7-14.3-216.9-3.2
			l-1.2,15.3L118.1,562.5z M430.4,534.1l66.3,17c-3.5-8.2-8.2-15.3-14.5-21.7l-3.3-3.4l3.9-2.7c9.2-6.4,13.3-10.5,15.1-13.1
			l-38.1-13v-20.8c-91.8-26.4-198.5-26.4-293.8,0V498l-37.7,12.4c1.8,2,5,4.8,7.2,6.7c3,2.6,6.1,5.4,8.2,7.8l1.9,2.2l-1.4,2.5
			c-2,3.5-4.5,6.9-6.9,10.2c-2.8,3.8-5.5,7.5-7.4,11.3l66.8-19.1l1.3-16.1l3.2-0.5c81.5-11.9,157.5-10.8,226,3.4l3.1,0.6
			L430.4,534.1z"/>
	</g>
	<g>
		<path class="st3" d="M445,531.7c4.2-0.7,8.4-1.4,12.2-2.6l-12.2-2.6v-3.1c6.5,1.5,12.7,3.1,18.8,4.9v-54.9
			c-6-1.7-12.3-3.4-18.8-4.9v-3.2c7.6,1.7,15,3.6,22.1,5.7v22.1c13.8,5,27.9,9.6,42.6,13.9c-5.9,7.8-14.5,12.7-20.4,20.4
			c6.6,11.7,14.3,22.2,20.4,34.4c-21-6.8-42.3-13.5-64.7-18.9v-3c20.3,4.7,39.6,10.4,58.1,16.9c-5.1-10.9-12.1-20-18-30.2
			c5.4-6.4,15.6-12.1,18-18.9c-12.7-2.9-22.8-8.3-36-10.6c-0.5,11.2,1,24.5-0.9,34.3c-7.3,0.9-15,1.5-21.2,2.4V531.7z M426.2,534.8
			c5.9-1.4,12.5-2.2,18.8-3.2v2.2c-6.4,0.9-11.2,1.9-12.2,3.4c4.1,0.8,8.2,1.7,12.2,2.7v3c-7.2-1.7-14.6-3.4-22.1-4.8v-15.6
			c-63.6-13.8-154.4-12.5-219.2-0.8v16.3c-7.6,1.4-14.9,3-22.1,4.7v-3c4.2-1.1,8.3-2.2,12.3-3.4c-4-0.6-8.1-1.3-12.3-1.9v-3
			c6.3,1.1,12.4,2.4,18.9,3.3c-0.9-3.7,1.9-11.2-1.7-12.3c-5.3,1.8-11.3,2.8-17.2,4v-3.2c78.6-17.9,185.1-18,263.4,0.1v3.1l-18.8-4
			C425.8,525.7,425.9,532.1,426.2,534.8L426.2,534.8z M445,465.3v3.2c-78-18.3-185.1-18.1-263.4-0.1v-3.2
			C260.3,447.2,366.1,447.3,445,465.3z M181.5,465.2v3.2c-6.8,1.5-13.3,3.2-19.6,5v54.9c6.3-1.8,12.8-3.5,19.6-5v3.2
			c-4.3,0.9-8.6,1.9-12.2,3.4c4.2,0.4,8.4,0.9,12.2,1.7v3c-7.5-1.1-15-2.2-22-3.8v-33.6c-13.4,2.2-23.3,7.8-36.1,10.6
			c1.5,7.6,13.7,11.4,17.2,19.7c-5.2,9.9-14,20.3-17.2,29.4c18.1-7,38.3-11.8,58.1-17.1v3c-22.6,5.5-43.8,12.5-65.4,19.1
			c7.2-11.2,13.4-23.2,21.3-33.6c-5.1-8.9-15-12.8-20.4-21.3c14.8-3.7,27.2-9.9,42.6-13.1V471C166.5,468.9,173.9,467,181.5,465.2z"
			/>
		<path d="M106.8,568.8l5.9-9.1c2.5-4,5-8.1,7.4-12.1c3.9-6.5,7.9-13.2,12.4-19.4c-2.2-2.9-5.1-5.4-8.2-7.9
			c-3.8-3.2-7.8-6.5-10.8-11.1l-3-4.7l5.4-1.4c6.5-1.6,12.7-3.8,18.7-5.9c6.6-2.3,13.4-4.7,20.9-6.5V468l2.9-0.8
			c88.2-26,221.4-26,309.8,0l2.9,0.8v22.3c13.9,4.9,26.9,9.2,39.7,12.9l5.6,1.6l-3.5,4.6c-3.2,4.2-7.1,7.6-10.9,10.9
			c-2.9,2.5-5.6,4.9-7.9,7.5c2.3,3.9,4.7,7.7,7,11.4c4.1,6.6,8.4,13.4,12.2,20.8l4.4,8.6l-9.2-3c-26.4-8.6-54.7-17.5-86.3-23.6
			l-3.2-0.6v-15.6c-58.5-12-144.2-12.3-211.2-0.7v9.6l4.3,0.7l-4.3,1.2v4.7l-3.3,0.6c-25,4.5-48.1,11.7-70.5,18.6
			c-5.5,1.7-11.1,3.4-16.6,5.1L106.8,568.8z M450.7,537.2c14.7,3.5,29.3,7.7,44.1,12.6c-2-3.3-4.1-6.6-6.2-9.9
			c-2.3-3.6-4.7-7.4-7-11.2l-1.4-2.4l1.8-2.1c2.3-2.7,5.2-5.2,8.1-7.6c2.4-2,4.9-4.1,6.7-6.1c-3.9-1.1-7.5-2.4-11.1-3.6
			c-4.9-1.7-9.6-3.3-14.7-4.6c0,2.7,0,5.4,0.1,8.1c0.1,6,0.3,12.1-0.3,17.6l2.7,0.6l-2.8,0.8c-0.1,1-0.3,2-0.5,3l-0.6,2.9l-2.9,0.3
			c-2.3,0.3-4.6,0.5-6.9,0.7C456.9,536.5,453.8,536.9,450.7,537.2z M129.4,510.4c1.3,1.4,3.1,2.8,4.9,4.2c3.7,3,8,6.4,10.1,11.2
			l0.8,1.8l-0.9,1.7c-2.2,4.2-5,8.4-7.7,12.5c-1.8,2.7-3.6,5.4-5.1,8c12.8-4.3,26.4-7.9,39.6-11.3c1.1-0.3,2.3-0.6,3.4-0.9
			c-5.4-0.8-10.7-1.7-15.8-2.9l-3.1-0.7v-1.2l-3.2-0.3l3.2-1.3v-29.1c-5.1,1.2-9.8,2.8-14.6,4.6
			C137.2,507.9,133.4,509.3,129.4,510.4z M189.7,529c2.2,0.4,4.4,0.8,6.6,1.2c0-0.3,0.1-0.6,0.1-0.9c0.1-0.5,0.1-1.2,0.2-1.9
			C194.3,528,192,528.5,189.7,529z M429.9,527.4c0,0.8,0,1.7,0,2.5c2.2-0.4,4.5-0.8,6.7-1.1L429.9,527.4z M165.9,476.5V523
			c85.4-23.1,209.4-23.1,293.8,0v-46.6c-40.3-11.4-92.1-17.6-146.5-17.6c-0.1,0-0.2,0-0.4,0C258.5,458.9,206.5,465.1,165.9,476.5z"
			/>
	</g>
	<g>
		<path class="st4" d="M407.3,287.5c21.8-18.9,2.7-45.9-16.6-59.8c-2.5-1.8-3.6-5.1-5.5-7.7c-28.7-40-140.3-50.1-175.7,79.6
			c-5.7,20.7-12.1,49.2-5.5,47c14.6-4.8-22.5,75.5-28.4,85.8c-27.6,49.5-3.7,16.9,26.7-11.4c17.4-16.2,33.1-11.4,49-19.4
			c21.2-10.6,47.2-35.8,72.9-45.9c22.1-8.9,34.3-0.8,55.7,8c4.5,1.8-30.6-37.9-24.3-61.5C361.7,279.1,406.8,284.4,407.3,287.5z"/>
		<path class="st5" d="M163.9,458c-0.1,0-0.2,0-0.3-0.1c-0.9-0.7,0-4.2,11.9-25.7c2.5-4.5,11.8-24,19.8-43.5
			c12.5-30.6,13-39.6,11.2-41.8c-0.5-0.7-1.3-0.8-2.5-0.4c-0.7,0.2-1.3,0.1-1.7-0.3c-1.6-1.6-1.5-7.6,0.3-17.8
			c1.4-7.7,3.8-18,6.9-29c8.7-31.8,22.5-57.2,41-75.4c15.7-15.5,34.8-25.6,55.2-29.3c16.1-2.9,32.5-1.8,47.4,3.1
			c14,4.7,25.4,12.5,32.2,21.9c0.6,0.9,1.2,1.9,1.7,2.8c1.1,1.9,2.1,3.7,3.7,4.8c6.9,5,13.2,11.2,17.8,17.5
			c5.3,7.4,8.3,14.8,8.6,21.5c0.4,8-2.9,15-9.7,20.9l-0.1,0.1l0-0.2c-0.2-1-5.4-2.3-12.6-2.6c-4.9-0.2-14.5-0.2-23.2,2.7
			c-8.6,2.9-13.9,7.8-15.7,14.5c-4.6,17,12.4,42.3,20.5,54.4c3.2,4.7,4.4,6.7,4.1,7.1c-0.1,0.2-0.4,0.1-0.5,0
			c-2.8-1.2-5.5-2.3-8.1-3.4c-16.5-7.1-28.4-12.2-47.5-4.6c-14.6,5.8-29.1,16.3-43.2,26.5c-10.6,7.6-20.5,14.9-29.7,19.4
			c-6.1,3.1-12.3,4.3-18.3,5.5c-9.8,1.9-20,4-30.7,14c-8.3,7.7-16.1,15.8-22.5,22.3C170.7,452.8,165.5,458,163.9,458z M205.1,346.2
			c0.6,0,1.2,0.2,1.5,0.7c6.2,7.5-25.6,76-31,85.5c-6.3,11.3-13.4,24.4-12,25.4c0.1,0,0.1,0.1,0.2,0.1c1.6,0,7.9-6.5,15.8-14.7
			c6.3-6.5,14.2-14.6,22.5-22.4c10.8-10,21-12.1,30.9-14c6.2-1.2,12.2-2.4,18.2-5.4c9.1-4.6,19.1-11.8,29.6-19.4
			c14.1-10.2,28.6-20.7,43.2-26.5c19.2-7.7,31.1-2.6,47.7,4.6c2.6,1.1,5.2,2.3,8.1,3.4c0.2,0.1,0.2,0.1,0.2,0
			c0.3-0.3-1.8-3.3-4.1-6.8c-8.2-12.2-25.1-37.6-20.6-54.6c1.8-6.8,7.1-11.7,15.8-14.6c8.7-2.9,18.3-3,23.3-2.7
			c6.5,0.3,12.1,1.5,12.7,2.6c6.7-5.8,9.9-12.8,9.5-20.6c-0.3-6.7-3.2-14.1-8.5-21.4c-4.6-6.3-10.9-12.5-17.7-17.5
			c-1.7-1.2-2.7-3.1-3.8-4.9c-0.5-1-1.1-1.9-1.7-2.8c-6.8-9.4-18.2-17.2-32.1-21.9c-14.9-5-31.2-6-47.3-3.1
			c-20.4,3.7-39.5,13.8-55.1,29.2c-18.5,18.2-32.2,43.6-40.9,75.3c-2.7,9.9-11.3,42.7-7.2,46.6c0.4,0.4,0.9,0.5,1.5,0.3
			C204.4,346.3,204.8,346.2,205.1,346.2z"/>
	</g>
	<g>
		<path class="st6" d="M385.6,223.4c-5.6,0-16.5-6.8-16.5,2.8c0,4.4,7.7,28.2,4.5,29.7c-2.4,1.2-4.8,6.8-8.9,6.8
			c-3.2,0-22.1,7.6-25.7,9.3c-0.4,0-21.3,4-16.1,6.4c3.7,1.6,18.1,0.4,22.1,0.4c10.9,0,26.6,3.7,35.4,6.5c2.4,0.8,28.9,4.8,28.9,1.2
			c0-14.1,2.8-27.8-3.2-39.8c-3.2-6.5-7.2-9.3-10.9-12.9C392.9,231.4,386.1,221.4,385.6,223.4z"/>
		<path class="st7" d="M403.5,288.1c-8,0-21.4-2.1-23.1-2.7c-9.8-3.1-25.1-6.5-35.4-6.5c-1,0-2.6,0.1-4.4,0.2
			c-5.9,0.3-14.9,0.7-17.7-0.5c-0.7-0.3-1-0.7-0.9-1.1c0.6-2.5,16.2-5.4,17-5.5c3.5-1.6,22.4-9.3,25.7-9.3c2.5,0,4.3-2.2,6-4.1
			c1-1.1,1.9-2.2,2.8-2.7c2-1-0.6-11.8-2.5-19.6c-1.1-4.5-2-8.5-2-10c0-2.2,0.5-3.6,1.6-4.5c2.1-1.6,5.7-0.6,9.3,0.4
			c2.1,0.6,4,1.1,5.6,1.1c0.1-0.2,0.2-0.2,0.3-0.3c0.8-0.2,2.9,2.4,6,6.5c1.4,1.8,2.7,3.5,3.5,4.3c0.7,0.7,1.5,1.4,2.2,2.1
			c3,2.8,6.1,5.6,8.6,10.8c4.6,9.1,4.1,19.1,3.6,29.6c-0.2,3.3-0.3,6.8-0.3,10.2c0,0.3-0.1,0.5-0.4,0.7
			C408.2,287.9,406.2,288.1,403.5,288.1z M345,278.7c10.3,0,25.6,3.4,35.5,6.5c1.1,0.4,7.6,1.4,13.8,2.1c8.1,0.8,13.3,0.8,14.6-0.2
			c0.2-0.2,0.3-0.4,0.3-0.6c0-3.4,0.2-6.9,0.3-10.2c0.5-10.5,1-20.5-3.6-29.5c-2.5-5.2-5.6-8-8.6-10.7c-0.7-0.7-1.5-1.4-2.2-2.1
			c-0.8-0.8-2.1-2.5-3.5-4.3c-2.2-2.8-5-6.4-5.8-6.4c0,0,0,0-0.1,0c0,0-0.1,0-0.1,0.2l0,0.1h-0.1c-1.6,0-3.6-0.6-5.8-1.1
			c-3.5-1-7.1-2-9.1-0.4c-1,0.8-1.5,2.2-1.5,4.3c0,1.5,0.9,5.4,2,10c2.1,8.8,4.5,18.8,2.4,19.9c-0.9,0.4-1.8,1.5-2.8,2.6
			c-1.7,2-3.6,4.2-6.1,4.2c-3.2,0-22.3,7.7-25.7,9.3l0,0c-0.2,0-16.3,3-16.8,5.3c-0.1,0.3,0.2,0.6,0.8,0.9
			c2.8,1.2,11.7,0.8,17.6,0.5C342.4,278.8,344.1,278.7,345,278.7z"/>
	</g>
	<path class="st8" d="M311.9,237.1c1.6,0,1.9,1.2,4,0.7c-6.3,9.2,11.2,19.5,12.5,5.9c-0.8-0.4-6.3,0.9-5.3-3.3
		c1.4-1.9,5-1.7,7.9-1.9C341.5,260,300.4,258.5,311.9,237.1z"/>
	<path class="st3" d="M384.8,243.8c1.7,4.4-3,7.5-6.6,8.6C378.6,247.7,380.2,244.3,384.8,243.8z"/>
	<path class="st3" d="M290.7,329.7c3-2.6,6.1-5,9.4-7.1c0.4,0,0.7-0.6,0-0.7c-3.2,1.4-6.3,2.8-9.4,4.5v-24.9c0.5-0.2,1-0.5,1.4-0.7
		c-0.4,0.1-0.9,0.2-1.4,0.4v-28.4c1.7-2.6,2.8-5.5,2.8-7.7c-0.1-3.2-1.1-5.7-2.8-7.6v-11.8c3.7,12.8,21.6,17.1,38.5,18
		c-5,3.9-17,3.6-15.3,12c1.4,6.8,28,8.9,39.7,7.3c-0.9,1.4-1.2,3.2-1.9,4.7c3.4-0.1,5.8-1.2,9.2-1.4c1.3,2.3-3.7,4.7-5.3,7.3
		c-6,10.2-5,27.5,0,38.4c-3.2-2.2-6.3-4.3-12-4c10.7,9.9,24.8,22.1,35.8,33.8c-6.8-16.8-33-31.2-25.2-57.7
		c4.5-15.1,25.1-23.1,45.1-17.9c1.1-2.2-3.2-4.8-5.3-5.9c6-0.5,14.9,1.8,16.6,7.9c-22.8-4-45.6-2.3-52.3,14.5
		c-11.8,29.7,28,48.4,26.5,75.6c-7.3-10.2-19.4-15.6-30.5-21.9c2,6.2,2.3,14,2,22.5c-3-3.8-4.2-9.4-9.3-11.3
		c-9.4,8.6-13.5,22.2-21.9,31.8c-1.7-5.8,4.2-19.7-1.9-23.8c-10.5,3.9-19.5,24.3-21.2,37.7c-0.6,4.9,0.2,9.6,0.7,14.5
		c-4.5-4.1-3.5-13.6-4.6-21.2c-2.3,3.7-4.8,7.1-7.4,10.5v-52.8c7.2-5.8,14-12.2,19.9-16.7c-4,7.9-10.4,17-13.2,23.9
		c11.4-16.3,26.6-32.6,27.1-57.7c-5.8,20.9-20.3,35.4-33.8,48.2V329.7L290.7,329.7z M290.7,200.5v-5.4c15-4.5,32.7-4.8,53.3,0.4
		c18.4,3.3,37.3,8.8,41.5,27.7c-8-23.4-45.6-27.6-80.2-25.2C300.2,198.4,295.3,199.3,290.7,200.5z M236.4,382.9
		c8.1-9.3,17.2-21.2,26.5-27.1c-7.1,10.4-11.7,24.9-15.9,37.1c-0.6,1.9-7.7,21.7-1.9,8.6c11.6-26.6,24.8-53.9,45.6-71.8v32.5
		c-3.4,3.2-6.7,6.3-9.8,9.4c3.3-2.2,6.6-4.6,9.8-7.2v52.8c-5,6.2-10.5,11.9-17.1,16.6c4.2-9.4,5-29.2,0-38.4
		c-2.7,8.4-7.6,14.5-12.6,20.5c-1.7-2.4,0.3-8.6-1.4-11.2c-5.1,10.2-12.7,17.6-16.6,29.1c-1.5-3.7-0.2-10.4-0.6-15.2
		c-21.1,60.8-56.6,52.3-22.5,5.3c-13.7,8.4-24.7,19.4-33.1,33.1c4.6-11.5,9.7-28.2,15.3-41c-14.5,13.3-27.6,33.8-46.4,45
		c23.2-28.5,37.1-72,48.4-114.6c-3.2,1.7-6.4,9.1-7.9,14.5c0.9-19.9,8.4-38.8,15.9-54.3c-1.8-1.8-4.7,7.4-6,4
		c14-46.6,36.9-101.5,84.7-115.6v5.4c-46.1,12.2-70.9,64.4-81.4,105.6c1.8-3.9,5.8-5.7,8.6-8.6c-7.4,14.4-16.5,33-19.9,53.6
		c3.4-3.7,5.1-9.1,9.3-11.9c-10.4,38.4-22.1,81.2-42.4,111.9c6.7-4,11.2-9.9,16.6-15.3c-0.9,0.7-2.4,0.6-2.7,2
		c11.4-18.4,21.4-44,41.1-56.2c-1.9-2.5-8-0.9-12-1.4c6.4-5.4,13.4-8.5,18.6-15.2c5.8-7.6,6.7-19.1,13.2-26.6
		c3.4-3.7,7.1-5.8,11.3-9.2c-2.4,4.2-8.7,10.2-10.7,17.2c14.5-14.7,29.7-34.1,50.3-45v24.9C266.5,339.3,249.1,361,236.4,382.9
		L236.4,382.9z M290.7,245.6c-0.6-2.1-0.8-4.5-0.5-7.1c-8,5.2-20.6,8.1-32.5,7.3c8.6,5.9,26.2,4.2,33,11.7V245.6L290.7,245.6z
		 M290.7,272.7c-0.9,1.6-2.1,3.1-3.2,4.2c-11.7,12.2-40.5,19.3-43.8,35.8c2.5-1.5,7.5-4,11.3-2c-9.2,5.3-17.9,14.8-18.6,26.5
		c13.9-15.7,32-30.7,54.2-36.1V272.7z"/>
	<path class="st3" d="M286.1,217.9c1.7,0.9-1.9,1.9-1.9,3.3c6.2,0,12.5-0.1,17.8,0.7c-6,1.6-15.5-0.1-21.1,1.9
		C279.9,221.8,285,220.1,286.1,217.9z"/>
	<path class="st3" d="M375.5,221.9c1.3,0.9-3.9,0.9-4.7,1.9c-4.1,12.5,6.7,22.2,3.4,35.8c-10.8,10.7-34.1,8.8-49.1,15.3
		c0.4,1.3-2,2.9,0.7,2.7c-5.8-2.5,3.3-5.7,8.6-7.3c7.5-2.3,16.1-2.3,20.6-5.3c7-0.9,12.9-3,17.2-6.6c3.6-11.7-10.8-29.9,2-36.4
		H375.5z"/>
	<path class="st3" d="M331.1,238.5c-3,0.3-6.5,0.1-7.9,1.9c-1.1,4.2,4.5,2.9,5.3,3.3c-0.6,5.6-3.9,7.1-7.1,6.4v-13
		c7.9-0.2,14.5-1.8,20.4-4c-4-3.5-11.4-3.7-17.9-4.6c8.1-3,16.3,3,22.5,1.9c3.2,0.4-2,2.4-2,4c7.4-0.9,5.3,7.9,2.7,10.6
		c-1.3-1.1-0.5-4.4-2.7-4.7c-5.8,0.1-4,7.4-6.6,12c-3.3,5.8-8.1,6.2-15.2,9.3c-2.2-0.7,4.4-1.7,1.9-2.7c7.6-1.8,17.5-13.3,9.3-20.5
		c3.5,12.2-4.5,17.8-12.5,17.6v-2.2C328.8,254.2,336.3,249.2,331.1,238.5z M321.3,250.2c-4.6-1.2-9.1-6.9-5.4-12.3
		c-2.1,0.4-2.4-0.7-4-0.7c-5.8,10.8,1.9,16.6,9.4,16.8v2.2c-8.7-0.1-17.4-7.1-11.4-19.6c-3.6-3.6-9.5,0.9-11.9,2.7
		c-0.1-8.1,14.5-6,19.8-2c1.2,0.1,2.4,0,3.5,0V250.2z"/>
	<path class="st3" d="M396.1,232.5c12.6,8.3,31.4,26,28.5,53c-0.9,8.9-5.2,14.3-8.6,21.9c-1.5-11-1.4-16.5-5.3-21.9
		c-4.7-6.4-10-4-17.9-7.3c-4.2-1.7-6.7-8.2-11.9-7.9c4.5-1.2,7.3,2.8,11.2,2.6c8.6-0.4,6.8-8.5,7.9-18.5c0.5-4,3-7.7,2.7-11.3
		C402.3,237.7,397.7,234.5,396.1,232.5z"/>
	<path class="st3" d="M345.1,272.9c14.5,0.9,36.7-7.6,45,4c-10.7-2.2-28.3-5-43.7-2.7c0.5-1.5,3.7-0.3,5.3-0.6
		C350.8,272.1,347.1,273.3,345.1,272.9z"/>
	<path class="st3" d="M389.4,245.8c0.4-1,0.7-0.1,0.6,0.6c1.4,3.7-11.4,16.6-5.3,9.9C386.1,252.6,389.2,250.7,389.4,245.8z"/>
	<path class="st3" d="M251.7,256.4c-4.5,5.1-13.2,11.5-19.2,17.3c-0.6-3.6,1.2-10.3,2.7-14c1.9,1.8-0.9,4.4,0,7.3
		C242,264.8,245.7,259.4,251.7,256.4z"/>
	<path class="st3" d="M251.1,288.8c-1.1-3.7,6-19.2,2.6-6.6c5.6-1.9,11.4-9.3,19.2-11.2C265.5,276.9,257.5,282,251.1,288.8z"/>
	<path class="st3" d="M335.8,273.6c2.1,0.7-1.8,0.7-2.7,0.6c0.7,1.5,4.2,0.2,6,0.6c-1.7,2.7-8.1,0.8-11.3,2
		C329.5,274.8,332.2,273.8,335.8,273.6z"/>
	<path class="st3" d="M384.8,282.8c-1.8,1.1-6.4-0.6-9.9,0c-1.4-1.2,4.8-0.4,6.6-0.6c-5.5-5.3-17.1-5.9-27.2-4.6
		C364.9,274.5,379.1,277,384.8,282.8z"/>
	<path class="st3" d="M217.9,323.3c0.9-8.6,5.5-19.2,10-26.5c0.6,4.8-4,10.2-4.7,15.9c6.3-2.6,9.6-8.1,15.9-10.7
		C231.4,308.5,224.1,315.3,217.9,323.3z"/>
	<path class="st4" d="M310.6,347.8c-8.7,6.6-19.2,17.1-29.7,23.9c15.6-15.5,36.4-31.6,43.6-57.7c-0.5,25.1-15.7,41.3-27.1,57.7
		C300.2,364.8,306.6,355.7,310.6,347.8z"/>
	<path class="st4" d="M300,321.9c0.7,0.1,0.4,0.7,0,0.7c-26.3,17.1-41.7,48.5-54.9,78.8c-5.8,13.1,1.3-6.7,1.9-8.6
		c4.2-12.2,8.9-26.6,15.9-37.1c-9.3,5.9-18.4,17.9-26.5,27.1C250.7,358.3,270.9,333.9,300,321.9z"/>
	<path class="st3" d="M220.5,342.5c0.4,3.3-3.7,7.7-4,12.6c4-3.2,7.2-6.9,9.9-11.3c-1.4,7.7-9.8,14-13.9,21.2
		C212.5,357.4,216.6,348.3,220.5,342.5z"/>
	<g>
		<path class="st4" d="M202,334.4c0.1,0.8-1.4,4.5-1.7,5.8c-0.6,2.4-1.5,5.8-1.5,8.4c0,0.6,0,6.7,0.4,6.2c2.2-3.4,1.6-8.6,3.6-12
			c0.6-0.9,0.8-3.5,1.5-4.1C205.3,337.8,203.9,333.2,202,334.4z"/>
		<path class="st5" d="M199.2,354.9C199.1,354.9,199.1,354.9,199.2,354.9c-0.2,0-0.5-0.2-0.5-6.3c0-2.2,0.7-5,1.2-7.2
			c0.1-0.4,0.2-0.8,0.3-1.2c0.1-0.5,0.4-1.3,0.7-2.1c0.5-1.4,1.1-3.1,1-3.6l0-0.1l0.1,0c0.6-0.4,1.3-0.3,1.8,0.4
			c0.9,1.1,1.3,3.4,0.6,4.1c-0.4,0.3-0.6,1.3-0.9,2.2c-0.2,0.7-0.4,1.5-0.6,1.9c-1,1.6-1.3,3.7-1.7,5.8c-0.4,2.2-0.8,4.4-1.9,6.2
			C199.3,354.9,199.2,354.9,199.2,354.9z M202.1,334.5c0,0.6-0.5,2.1-1,3.6c-0.3,0.9-0.6,1.7-0.7,2.1c-0.1,0.4-0.2,0.8-0.3,1.2
			c-0.5,2.2-1.2,4.9-1.2,7.2c0,3.2,0.1,5.6,0.3,6.1c1.1-1.7,1.4-3.9,1.8-6c0.4-2.1,0.7-4.2,1.7-5.9c0.2-0.4,0.4-1.1,0.6-1.8
			c0.2-0.9,0.5-1.9,0.9-2.3c0.6-0.6,0.2-2.7-0.7-3.8C203.3,334.5,202.8,334.1,202.1,334.5z"/>
	</g>
	<g>
		<path class="st3" d="M202.2,414.5c-4.5,5.3-13.5,10.7-18.1,15.3c-0.9,0.9-2.7,4-2.7,6.1c0,5.8-16.2,13.2-18.4,20.1
			c-0.9,2.6,2.7,3.4,5,3.1c8.7-1.1,20.7-20.3,26.2-26.7C198.5,427.4,202.2,420.7,202.2,414.5z"/>
		<path d="M167.1,459.2c-1.5,0-3.1-0.4-3.9-1.3c-0.4-0.5-0.5-1.2-0.3-2c1.1-3.4,5.4-6.9,9.7-10.2c4.5-3.5,8.7-6.9,8.7-9.9
			c0-2.1,1.8-5.2,2.8-6.2c2-2,4.8-4.1,7.7-6.3c3.8-2.9,7.8-5.9,10.4-8.9l0.2-0.2v0.3c0,2.6-0.8,9.6-8,17.9c-1.3,1.5-2.9,3.7-4.8,6.2
			c-6.2,8.3-14.7,19.7-21.4,20.5C167.8,459.2,167.5,459.2,167.1,459.2z M202.1,414.8c-2.6,3-6.4,5.9-10.2,8.7
			c-2.9,2.2-5.7,4.3-7.7,6.3c-0.9,0.9-2.7,4-2.7,6c0,3.1-4.3,6.4-8.8,10c-4.2,3.3-8.5,6.8-9.6,10.1c-0.2,0.7-0.1,1.3,0.3,1.8
			c0.9,1,3,1.4,4.6,1.2c6.6-0.8,15.1-12.1,21.3-20.4c1.9-2.5,3.6-4.7,4.9-6.3C201.1,424.3,202.1,417.6,202.1,414.8z"/>
	</g>
	<polygon class="st9" points="246.2,483.2 246.7,488.4 255.4,487.7 256.1,494.6 247.3,495.4 248.2,505.6 239.4,506.4 236.8,477 
		255.2,475.4 255.9,482.3 	"/>
	<path class="st9" d="M280.7,503.5l-1.6-5.4l-4.8,0.3V492l2.8-0.1l-2.5-7.9c-0.1-0.4-0.2-0.9-0.3-1.2v-8.5l4.9-0.3l11.1,29
		L280.7,503.5z M274.4,498.3l-4,0.2l-1.2,5.5l-9.6,0.5l8.6-30l6.1-0.3v8.5c-0.2-0.7-0.4-1.4-0.4-2.1h-0.2c0,0.4-0.1,0.9-0.2,1.7
		c-0.1,0.8-0.8,4-2,9.9l2.9-0.1V498.3z"/>
	<polygon class="st9" points="293.5,502.8 293,473.3 301.8,473.1 302.2,495.7 312.4,495.5 312.5,502.4 	"/>
	<path class="st9" d="M338.2,501.7c-2.4,0.9-5.3,1.3-8.4,1.3s-5.9-0.6-8.1-1.8c-2.3-1.2-4-2.9-5.3-5.1c-1.2-2.2-1.8-4.8-1.8-7.7
		c0-3.1,0.6-5.9,2-8.3c1.4-2.4,3.2-4.3,5.7-5.7c2.4-1.3,5.3-1.9,8.5-1.9c2.6,0,5,0.3,7.4,0.9v8.2c-0.8-0.5-1.8-0.9-3-1.2
		c-1.1-0.3-2.2-0.4-3.5-0.4c-2.4,0-4.3,0.7-5.7,2.1c-1.4,1.4-2.1,3.2-2.1,5.6c0,2.4,0.6,4.2,2.1,5.6c1.4,1.4,3.2,2,5.6,2
		c2.2,0,4.3-0.5,6.5-1.6V501.7z"/>
	<path class="st9" d="M361.4,504l-1-5.5l-4.1-0.2v-6.3l2.8,0.1l-1.7-8.1c-0.2-1.2-0.4-2.3-0.4-3.3h-0.1c-0.1,0.3-0.2,0.9-0.4,1.6
		c0,0.1-0.1,0.4-0.1,0.6v-8.6l6.8,0.4l8.1,30L361.4,504L361.4,504z M356.2,469.4v-4.8c0.7,0.3,1.4,0.6,2.1,1.2
		c0.4,0.2,0.7,0.5,1.1,0.7c0.4,0.2,0.7,0.3,1.2,0.4c0.5,0,0.9-0.2,1.2-0.6c0.3-0.4,0.4-1,0.5-1.8l3.6,0.1c-0.1,2.3-0.6,4-1.5,5.2
		c-0.9,1.2-2.1,1.7-3.7,1.6c-1.2-0.1-2.3-0.4-3.4-1.2C356.9,469.9,356.5,469.7,356.2,469.4z M356.2,498.3l-4.7-0.2l-1.7,5.3
		l-9.6-0.5l11.7-28.9l4.2,0.2v8.6c-0.4,1.4-1.4,4.3-2.8,9l2.8,0.1V498.3L356.2,498.3z M356.2,464.6v4.8l-0.2-0.1
		c-0.4-0.3-0.8-0.4-1.2-0.4c-0.5-0.1-0.9,0.1-1.2,0.6c-0.4,0.4-0.5,1-0.6,1.7l-3.6-0.1c0.1-2.4,0.6-4.1,1.6-5.2
		c0.9-1.2,2.1-1.7,3.5-1.6C355.1,464.4,355.7,464.4,356.2,464.6z"/>
	<path class="st9" d="M404.1,493c-0.3,3-1.2,5.5-2.7,7.7c-1.5,2.2-3.5,3.8-5.9,4.9c-1.9,0.8-4,1.2-6.1,1.2v-7.6
		c0.7,0,1.4-0.2,2.1-0.6c0.9-0.5,1.6-1.3,2.2-2.4c0.6-1.1,0.9-2.4,1.1-3.9c0.3-2.4,0-4.4-0.8-5.9c-0.7-1.4-1.9-2.3-3.6-2.4
		c-0.3-0.1-0.6-0.1-0.9-0.1v-7.6c0.6,0,1.2,0,1.9,0.1c2.8,0.3,5.3,1.2,7.3,2.7c2.1,1.5,3.6,3.5,4.6,5.9
		C404.1,487.4,404.4,490.1,404.1,493z M389.3,506.8c-0.6,0-1.2-0.1-1.7-0.1c-2.8-0.3-5.3-1.2-7.3-2.7c-2.2-1.4-3.7-3.4-4.8-5.8
		c-1-2.4-1.4-5-1.1-7.9c0.4-3,1.2-5.6,2.7-7.8c1.6-2.2,3.5-3.9,6-5c1.9-0.9,4-1.2,6.2-1.2v7.6c-1.4,0.1-2.4,0.6-3.4,1.7
		c-1.1,1.2-1.8,3-2.1,5.5c-0.2,2.4,0.1,4.3,0.9,5.8c0.8,1.4,2.1,2.2,3.7,2.4c0.3,0,0.5,0,0.8,0V506.8z"/>
	<polygon points="165.1,451 164.9,450.8 173.5,436.3 173.7,436.4 	"/>
</g>
</svg>
