<?xml version="1.0" encoding="utf-8"?>
<!-- Generator: Adobe Illustrator 21.0.2, SVG Export Plug-In . SVG Version: 6.00 Build 0)  -->
<svg version="1.1" id="Camada_1" xmlns="http://www.w3.org/2000/svg" xmlns:xlink="http://www.w3.org/1999/xlink" x="0px" y="0px"
	 viewBox="0 0 595 842" style="enable-background:new 0 0 595 842;" xml:space="preserve">
<style type="text/css">
	.st0{fill-rule:evenodd;clip-rule:evenodd;fill:#303C8C;}
	.st1{fill-rule:evenodd;clip-rule:evenodd;fill:#316190;}
	.st2{fill-rule:evenodd;clip-rule:evenodd;fill:#FFFFFF;}
	.st3{fill-rule:evenodd;clip-rule:evenodd;}
	.st4{fill-rule:evenodd;clip-rule:evenodd;fill:#BF9262;}
	.st5{fill:#BF9262;}
	.st6{fill-rule:evenodd;clip-rule:evenodd;fill:#FEEE00;}
	.st7{fill:#FEEE00;}
	.st8{fill-rule:evenodd;clip-rule:evenodd;fill:#FEF48A;}
	.st9{fill:#050006;}
</style>
<g>
	<path class="st0" d="M313.8,165.7c-115,0-208.2,89.6-208.2,200.2c0,110.4,93.2,200,208.2,200c114.8,0,208.1-89.6,208.1-200
		C521.8,255.3,428.6,165.7,313.8,165.7z"/>
	<path d="M101.5,365.9c0-112.6,95.2-204.2,212.2-204.2c116.9,0,212.1,91.6,212.1,204.2c0,112.5-95.1,204-212.1,204
		C196.7,569.9,101.5,478.4,101.5,365.9z M109.5,365.9c0,108.1,91.6,196,204.2,196c112.5,0,204.1-87.9,204.1-196
		c0-108.2-91.5-196.2-204.1-196.2C201.2,169.7,109.5,257.7,109.5,365.9z"/>
</g>
<path class="st1" d="M313.8,185.2c-103.8,0-188,80.9-188,180.6c0,99.6,84.2,180.6,188,180.6c103.7,0,187.8-80.9,187.8-180.6
	C501.6,266.1,417.4,185.2,313.8,185.2z"/>
<path class="st0" d="M313.8,511.4c-83.5,0-151.6-65.4-151.6-145.6c0-80.2,68-145.7,151.6-145.7c83.4,0,151.4,65.4,151.4,145.7
	C465.2,446,397.1,511.4,313.8,511.4z"/>
<g>
	<path class="st2" d="M313.8,229.6c-78.3,0-141.7,61-141.7,136.2c0,75.1,63.4,136.1,141.7,136.1c78.1,0,141.6-61,141.6-136.1
		C455.3,290.6,391.9,229.6,313.8,229.6z"/>
	<path d="M258.6,491.3c-16.9-6.9-32-16.7-45.1-29.2c-13-12.5-23.2-27.1-30.4-43.3c-7.4-16.8-11.1-34.6-11.1-53
		c0-18.4,3.7-36.3,11.1-53.1c7.1-16.2,17.4-30.8,30.4-43.3c13-12.5,28.2-22.3,45.1-29.2c17.5-7.1,36.1-10.7,55.2-10.7
		c19.1,0,37.7,3.6,55.1,10.7c16.9,6.9,32,16.7,45,29.2c13,12.5,23.2,27.1,30.4,43.3c7.4,16.8,11.1,34.7,11.1,53.1
		c0,18.4-3.7,36.2-11.1,53c-7.1,16.2-17.4,30.8-30.4,43.3c-13,12.5-28.2,22.3-45,29.2c-17.5,7.1-36,10.7-55.1,10.7
		C294.6,502.1,276.1,498.4,258.6,491.3z M258.7,240.4c-16.9,6.9-32,16.7-45,29.2s-23.2,27.1-30.3,43.3c-7.4,16.8-11.1,34.6-11.1,53
		c0,18.3,3.7,36.1,11.1,52.9c7.1,16.2,17.3,30.7,30.3,43.2c13,12.5,28.1,22.3,45,29.2c17.5,7.1,36,10.7,55.1,10.7
		c19.1,0,37.6-3.6,55-10.7c16.8-6.9,32-16.7,45-29.2c13-12.5,23.2-27,30.3-43.2c7.4-16.8,11.1-34.6,11.1-52.9
		c0-18.4-3.7-36.2-11.1-53c-7.1-16.2-17.3-30.8-30.3-43.3c-13-12.5-28.1-22.3-45-29.2c-17.4-7.1-36-10.7-55-10.7
		C294.7,229.7,276.1,233.3,258.7,240.4z"/>
</g>
<g>
	<path class="st3" d="M285.5,335.6C260.4,355.6,88,499.4,220,469.2c40.7-9.4,85.9-7.9,130-7.9c32.3,0,68.6,13.5,92.3,13.5
		c31.5,0,34.5-108.7-11.1-123c-31.5-10.2-52.7,1.1-81.2,8.7C334.3,364.6,299.7,336.4,285.5,335.6z"/>
	<path d="M401.4,476.6c-17.1-3.6-34.9-7.3-51.5-7.3c-5.2,0-10.4,0-15.6,0c-38.1-0.1-77.6-0.3-112.6,7.8c-20.7,4.8-49.2,9.2-57.2-7.4
		c-7.2-15.1,7.1-39.2,46.4-78.4c26-25.9,56.8-51.8,69.4-61.8l2.4-1.9l3,0.2c7.8,0.4,17.9,5.9,29.5,12.2
		c10.6,5.8,26.6,14.5,32.5,12.9c5.4-1.4,10.6-3,15.6-4.6c21.8-6.7,42.3-13,70.1-4c15.8,5,27.8,19.1,34.6,40.9
		c5.4,17.4,7,38.8,4.1,57.3c-3.9,25.3-15.1,40.4-30.1,40.4C430.5,482.7,416.4,479.8,401.4,476.6z M368.2,363.4
		c-5.2,1.6-10.5,3.2-16.2,4.7c-12.1,3.2-27.7-5.3-44.3-14.3c-6.9-3.7-15.1-8.2-20.1-9.8c-13.8,11.1-41.6,34.8-65.3,58.4
		c-48.3,48.1-43.5,59.7-43.3,60.1c0,0.1,4.3,6.7,39.2-1.3c36.8-8.5,77.2-8.3,116.2-8.2c5.2,0,10.4,0,15.5,0
		c18.3,0,37.6,4.1,54.8,7.7c14.1,3,27.5,5.8,37.5,5.8c6,0,11.8-11,14.2-26.8c2.5-16.2,1.1-35-3.6-50.1c-3-9.4-10-26-24.2-30.4
		c-8.1-2.6-15.4-3.7-22.4-3.7C393.5,355.7,381.8,359.3,368.2,363.4z"/>
</g>
<g>
	<path class="st2" d="M504,556.9l-77-22l-1.2-15.7c-81.6-12-156.3-10.8-224.6,3.4l-0.3,14.7l-76.6,19.7c4-12.8,10.4-22.5,18-30.2
		c-10.2-7.1-17.5-13.6-18-18.9l39.3-13.4v-21c89.6-26.4,199.4-29.1,301.8,0v21.7l38.5,12.7c3.5,3.2-11.5,13.1-17.2,19.7
		C492.5,537.3,501.8,546.2,504,556.9z"/>
	<path d="M423.3,537.9l-1.2-15.3c-78.2-11.1-151.1-10.1-216.9,3.2l-0.3,14.5l-86.5,22.2l2.2-6.9c3.4-10.9,8.6-20.2,15.8-28.4
		c-10.6-7.8-15.4-13.6-16-19.1l-0.3-3.1l39.6-13.5v-21.1l2.9-0.8c94.8-28,205.6-28,304,0l2.9,0.8v21.8l36.6,12l0.6,0.6
		c1.2,1.1,1.8,2.6,1.8,4.2c0,4.1-4.1,7.8-11.3,14.1c-1.9,1.7-3.8,3.4-5.4,4.9c1.5,2.3,3.1,4.6,4.8,6.9c4.7,6.5,9.6,13.2,11.3,21.2
		l1.3,6.5L423.3,537.9z M197.3,519.3l3.1-0.6c68.4-14.2,144.4-15.4,226-3.4l3.2,0.5l1.3,16.1l66.8,19.1c-1.9-3.8-4.6-7.5-7.4-11.3
		c-2.4-3.3-4.8-6.6-6.9-10.2l-1.4-2.5l1.9-2.2c2.1-2.4,5.2-5.1,8.2-7.8c2.1-1.9,5.3-4.6,7.2-6.7L461.5,498v-21.5
		c-95.3-26.5-202-26.5-293.8,0v20.8l-38.1,13c1.8,2.6,5.9,6.7,15.1,13.1l3.9,2.7l-3.3,3.4c-6.2,6.4-11,13.5-14.5,21.7l66.3-17
		L197.3,519.3z"/>
</g>
<g>
	<path class="st3" d="M182.4,533.9c-6.2-0.9-13.9-1.5-21.2-2.4c-1.9-9.9-0.4-23.2-0.9-34.3c-13.2,2.3-23.3,7.7-36,10.6
		c2.4,6.8,12.6,12.5,18,18.9c-5.9,10.2-12.9,19.3-18,30.2c18.5-6.5,37.8-12.2,58.1-16.9v3c-22.4,5.4-43.6,12.1-64.7,18.9
		c6.2-12.2,13.8-22.8,20.4-34.4c-5.9-7.7-14.5-12.7-20.4-20.4c14.6-4.2,28.7-8.9,42.6-13.9V471c7.1-2.1,14.5-4,22.1-5.7v3.2
		c-6.5,1.5-12.7,3.2-18.8,4.9v54.9c6-1.8,12.3-3.4,18.8-4.9v3.1l-12.2,2.6c3.8,1.2,8,1.9,12.2,2.6V533.9z M201.2,534.8
		c0.2-2.7,0.4-9.1,0-12.3l-18.8,4v-3.1c78.3-18.1,184.8-18.1,263.4-0.1v3.2c-5.9-1.2-12-2.2-17.2-4c-3.6,1.1-0.7,8.6-1.7,12.3
		c6.5-0.9,12.5-2.2,18.9-3.3v3c-4.2,0.6-8.3,1.2-12.3,1.9c4,1.2,8.1,2.3,12.3,3.4v3c-7.2-1.7-14.5-3.3-22.1-4.7v-16.3
		c-64.9-11.7-155.7-13-219.2,0.8v15.6c-7.5,1.4-14.9,3.1-22.1,4.8v-3c4-0.9,8.1-1.9,12.2-2.7c-1.1-1.5-5.8-2.5-12.2-3.4v-2.2
		C188.8,532.6,195.3,533.4,201.2,534.8L201.2,534.8z M445.9,465.2v3.2c-78.3-18-185.4-18.1-263.4,0.1v-3.2
		C261.3,447.3,367,447.2,445.9,465.2z M467.9,471v22.9c15.3,3.2,27.8,9.4,42.6,13.1c-5.4,8.5-15.3,12.5-20.4,21.3
		c7.9,10.4,14.1,22.4,21.3,33.6c-21.7-6.6-42.8-13.5-65.4-19.1v-3c19.8,5.3,40,10.1,58.1,17.1c-3.2-9.1-12-19.6-17.2-29.4
		c3.5-8.2,15.7-12,17.2-19.7c-12.7-2.8-22.7-8.4-36.1-10.6v33.6c-7,1.7-14.5,2.7-22,3.8v-3c3.9-0.7,8-1.3,12.2-1.7
		c-3.7-1.5-7.9-2.5-12.2-3.4v-3.2c6.8,1.5,13.3,3.2,19.6,5v-54.9c-6.3-1.8-12.8-3.5-19.6-5v-3.2C453.5,467,460.9,468.9,467.9,471z"
		/>
	<path d="M510.2,565.7c-5.6-1.7-11.1-3.4-16.6-5.1c-22.3-6.9-45.5-14-70.5-18.6l-3.3-0.6v-4.7l-4.3-1.2l4.3-0.7v-9.6
		c-67-11.6-152.7-11.3-211.2,0.7v15.6l-3.2,0.6c-31.5,6.1-59.9,15-86.3,23.6l-9.2,3l4.4-8.6c3.7-7.3,8-14.2,12.2-20.8
		c2.3-3.7,4.7-7.5,7-11.4c-2.4-2.7-5.1-5-7.9-7.5c-3.8-3.3-7.6-6.7-10.9-10.9l-3.5-4.6l5.6-1.6c12.8-3.7,25.8-7.9,39.7-12.9V468
		l2.9-0.8c88.5-26,221.7-26,309.8,0l2.9,0.8v22.7c7.4,1.8,14.3,4.2,20.9,6.5c6,2.1,12.2,4.3,18.7,5.9l5.4,1.4l-3,4.7
		c-2.9,4.6-6.9,7.9-10.8,11.1c-3.1,2.5-6,5-8.2,7.9c4.5,6.2,8.5,12.9,12.4,19.4c2.4,4,4.9,8.2,7.4,12.1l5.9,9.1L510.2,565.7z
		 M167.7,536.2c-2.3-0.2-4.6-0.5-6.9-0.7l-2.9-0.3l-0.6-2.9c-0.2-1-0.3-2-0.5-3l-2.8-0.8l2.7-0.6c-0.6-5.5-0.4-11.7-0.3-17.6
		c0.1-2.7,0.1-5.5,0.1-8.1c-5.1,1.2-9.8,2.9-14.7,4.6c-3.6,1.2-7.3,2.5-11.1,3.6c1.8,2,4.3,4.1,6.7,6.1c2.9,2.4,5.8,4.9,8.1,7.6
		l1.8,2.1l-1.4,2.4c-2.2,3.9-4.7,7.6-7,11.2c-2.2,3.4-4.3,6.6-6.2,9.9c14.8-4.9,29.4-9.1,44.1-12.6
		C173.6,536.9,170.5,536.5,167.7,536.2z M486.5,506.6c-4.9-1.7-9.5-3.4-14.6-4.6v29.1l3.2,1.3l-3.2,0.3v1.2l-3.1,0.7
		c-5.1,1.2-10.4,2.1-15.8,2.9c1.1,0.3,2.3,0.6,3.4,0.9c13.2,3.5,26.8,7,39.6,11.3c-1.5-2.6-3.3-5.2-5.1-8c-2.7-4.1-5.5-8.3-7.7-12.5
		l-0.9-1.7l0.8-1.8c2.1-4.8,6.3-8.2,10.1-11.2c1.8-1.4,3.6-2.9,4.9-4.2C494,509.3,490.2,507.9,486.5,506.6z M430.8,527.4
		c0,0.7,0.1,1.4,0.2,1.9c0,0.3,0.1,0.6,0.1,0.9c2.2-0.4,4.4-0.8,6.6-1.2C435.4,528.5,433.1,528,430.8,527.4z M190.7,528.8
		c2.2,0.3,4.5,0.7,6.7,1.1c0-0.8,0-1.7,0-2.5L190.7,528.8z M314.5,458.8c-0.1,0-0.2,0-0.4,0c-54.4,0-106.3,6.2-146.5,17.6V523
		c84.4-23.1,208.4-23.1,293.8,0v-46.6C420.9,465.1,368.9,458.9,314.5,458.8z"/>
</g>
<g>
	<path class="st4" d="M220.1,287.5c-21.8-18.9-2.7-45.9,16.6-59.8c2.5-1.8,3.6-5.1,5.5-7.7c28.7-40,140.3-50.1,175.7,79.6
		c5.7,20.7,12.1,49.2,5.5,47c-14.6-4.8,22.5,75.5,28.4,85.8c27.6,49.5,3.7,16.9-26.7-11.4c-17.4-16.2-33.1-11.4-49-19.4
		c-21.2-10.6-47.2-35.8-72.9-45.9c-22.1-8.9-34.3-0.8-55.7,8c-4.5,1.8,30.6-37.9,24.3-61.5C265.7,279.1,220.6,284.4,220.1,287.5z"/>
	<path class="st5" d="M447.5,443.3c-6.3-6.5-14.2-14.6-22.5-22.3c-10.7-10-20.9-12-30.7-14c-6-1.2-12.2-2.4-18.3-5.5
		c-9.1-4.6-19.1-11.8-29.7-19.4c-14.1-10.2-28.6-20.7-43.2-26.5c-19.1-7.7-31-2.5-47.5,4.6c-2.6,1.1-5.2,2.3-8.1,3.4
		c-0.1,0-0.4,0.1-0.5,0c-0.3-0.4,0.9-2.4,4.1-7.1c8.1-12.2,25.1-37.5,20.5-54.4c-1.8-6.7-7.1-11.6-15.7-14.5
		c-8.7-2.9-18.3-2.9-23.2-2.7c-7.2,0.4-12.4,1.7-12.6,2.6l0,0.2l-0.1-0.1c-6.8-5.9-10.1-12.9-9.7-20.9c0.3-6.7,3.3-14.2,8.6-21.5
		c4.6-6.3,10.9-12.6,17.8-17.5c1.6-1.2,2.6-3,3.7-4.8c0.5-1,1.1-1.9,1.7-2.8c6.8-9.5,18.3-17.3,32.2-21.9c14.9-5,31.3-6.1,47.4-3.1
		c20.5,3.7,39.6,13.8,55.2,29.3c18.5,18.2,32.3,43.6,41,75.4c3,11,5.5,21.3,6.9,29c1.8,10.3,1.9,16.2,0.3,17.8
		c-0.5,0.4-1,0.5-1.7,0.3c-1.1-0.4-1.9-0.2-2.5,0.4c-1.8,2.2-1.3,11.2,11.2,41.8c7.9,19.5,17.2,38.9,19.8,43.5
		c12,21.4,12.8,25,11.9,25.7c-0.1,0.1-0.2,0.1-0.3,0.1C461.8,458,456.7,452.8,447.5,443.3z M423.5,346.4c0.6,0.2,1.1,0.1,1.5-0.3
		c4.1-3.9-4.5-36.7-7.2-46.6c-8.7-31.8-22.4-57.1-40.9-75.3c-15.6-15.4-34.7-25.5-55.1-29.2c-16.1-2.9-32.5-1.8-47.3,3.1
		c-13.9,4.7-25.3,12.4-32.1,21.9c-0.6,0.9-1.2,1.9-1.7,2.8c-1,1.8-2.1,3.7-3.8,4.9c-6.9,4.9-13.2,11.2-17.7,17.5
		c-5.3,7.3-8.2,14.7-8.5,21.4c-0.3,7.9,2.9,14.8,9.5,20.6c0.7-1.2,6.2-2.3,12.7-2.6c4.9-0.2,14.5-0.2,23.3,2.7
		c8.7,2.9,14,7.8,15.8,14.6c4.6,17.1-12.4,42.4-20.6,54.6c-2.3,3.5-4.4,6.5-4.1,6.8c0,0,0.1,0,0.2,0c2.8-1.2,5.5-2.3,8.1-3.4
		c16.5-7.1,28.4-12.3,47.7-4.6c14.6,5.8,29.2,16.3,43.2,26.5c10.5,7.6,20.5,14.9,29.6,19.4c6.1,3,12,4.2,18.2,5.4
		c9.9,2,20.1,4,30.9,14c8.3,7.7,16.1,15.8,22.5,22.4c7.9,8.1,14.2,14.7,15.8,14.7c0.1,0,0.2,0,0.2-0.1c1.4-1-5.7-14.1-12-25.4
		c-5.3-9.4-37.1-78-31-85.5c0.4-0.5,0.9-0.7,1.5-0.7C422.6,346.2,423,346.3,423.5,346.4z"/>
</g>
<g>
	<path class="st6" d="M241.8,223.4c5.6,0,16.5-6.8,16.5,2.8c0,4.4-7.7,28.2-4.5,29.7c2.4,1.2,4.8,6.8,8.9,6.8
		c3.2,0,22.1,7.6,25.7,9.3c0.4,0,21.3,4,16.1,6.4c-3.7,1.6-18.1,0.4-22.1,0.4c-10.9,0-26.6,3.7-35.4,6.5c-2.4,0.8-28.9,4.8-28.9,1.2
		c0-14.1-2.8-27.8,3.2-39.8c3.2-6.5,7.2-9.3,10.9-12.9C234.5,231.4,241.3,221.4,241.8,223.4z"/>
	<path class="st7" d="M218.3,287.3c-0.3-0.2-0.4-0.5-0.4-0.7c0-3.4-0.2-6.9-0.3-10.2c-0.5-10.6-1-20.5,3.6-29.6
		c2.5-5.2,5.6-8,8.6-10.8c0.7-0.7,1.5-1.4,2.2-2.1c0.8-0.8,2.1-2.5,3.5-4.3c3.1-4,5.2-6.6,6-6.5c0.1,0,0.2,0.1,0.3,0.3
		c1.6,0,3.5-0.6,5.6-1.1c3.5-1,7.2-2,9.3-0.4c1.1,0.8,1.6,2.3,1.6,4.5c0,1.6-0.9,5.5-2,10c-1.9,7.9-4.5,18.6-2.5,19.6
		c0.9,0.5,1.8,1.5,2.8,2.7c1.6,1.9,3.5,4.1,6,4.1c3.3,0,22.2,7.7,25.7,9.3c0.8,0.1,16.4,3,17,5.5c0.1,0.4-0.2,0.8-0.9,1.1
		c-2.8,1.2-11.8,0.8-17.7,0.5c-1.9-0.1-3.5-0.2-4.4-0.2c-10.3,0-25.6,3.4-35.4,6.5c-1.7,0.6-15.1,2.7-23.1,2.7
		C221.2,288.1,219.2,287.9,218.3,287.3z M286.8,278.9c5.9,0.3,14.9,0.7,17.6-0.5c0.6-0.3,0.8-0.6,0.8-0.9
		c-0.5-2.3-16.7-5.3-16.8-5.3l0,0c-3.4-1.5-22.4-9.3-25.7-9.3c-2.6,0-4.5-2.2-6.1-4.2c-1-1.1-1.9-2.2-2.8-2.6
		c-2.2-1.1,0.2-11.1,2.4-19.9c1.1-4.5,2-8.4,2-10c0-2.1-0.5-3.5-1.5-4.3c-2-1.5-5.6-0.5-9.1,0.4c-2.1,0.6-4.1,1.1-5.8,1.1h-0.1
		l0-0.1c0-0.2-0.1-0.2-0.1-0.2c0,0,0,0-0.1,0c-0.8,0-3.5,3.5-5.8,6.4c-1.4,1.8-2.7,3.5-3.5,4.3c-0.7,0.7-1.5,1.4-2.2,2.1
		c-3,2.7-6.1,5.6-8.6,10.7c-4.6,9.1-4.1,19-3.6,29.5c0.2,3.3,0.3,6.8,0.3,10.2c0,0.2,0.1,0.4,0.3,0.6c1.4,1,6.5,1.1,14.6,0.2
		c6.3-0.7,12.7-1.7,13.8-2.1c9.9-3.1,25.1-6.5,35.5-6.5C283.3,278.7,285,278.8,286.8,278.9z"/>
</g>
<path class="st8" d="M315.5,237.1c-1.6,0-1.9,1.2-4,0.7c6.3,9.2-11.2,19.5-12.5,5.9c0.8-0.4,6.3,0.9,5.3-3.3c-1.4-1.9-5-1.7-7.9-1.9
	C285.9,260,326.9,258.5,315.5,237.1z"/>
<path class="st3" d="M242.6,243.8c-1.7,4.4,3,7.5,6.6,8.6C248.8,247.7,247.2,244.3,242.6,243.8z"/>
<path class="st3" d="M336.7,329.7v32.5c-13.5-12.9-28-27.4-33.8-48.2c0.5,25.1,15.7,41.3,27.1,57.7c-2.8-6.9-9.1-16-13.2-23.9
	c6,4.5,12.7,10.9,19.9,16.7v52.8c-2.7-3.4-5.1-6.8-7.4-10.5c-1.1,7.6-0.1,17.1-4.6,21.2c0.5-5,1.3-9.6,0.7-14.5
	c-1.7-13.5-10.7-33.8-21.2-37.7c-6.1,4.1-0.3,18-1.9,23.8c-8.4-9.6-12.5-23.3-21.9-31.8c-5,1.9-6.3,7.5-9.3,11.3
	c-0.3-8.5,0-16.3,2-22.5c-11.2,6.3-23.2,11.7-30.5,21.9c-1.5-27.2,38.3-45.9,26.5-75.6c-6.7-16.8-29.6-18.5-52.3-14.5
	c1.7-6.1,10.6-8.4,16.6-7.9c-2.1,1.2-6.3,3.7-5.3,5.9c19.9-5.2,40.6,2.8,45.1,17.9c7.8,26.4-18.4,40.8-25.2,57.7
	c11-11.7,25.1-24,35.8-33.8c-5.7-0.4-8.8,1.8-12,4c5-10.9,6-28.2,0-38.4c-1.5-2.7-6.6-5-5.3-7.3c3.4,0.1,5.8,1.3,9.2,1.4
	c-0.7-1.5-1.1-3.3-1.9-4.7c11.7,1.7,38.3-0.4,39.7-7.3c1.7-8.4-10.3-8.1-15.3-12c16.9-0.9,34.8-5.2,38.5-18v11.8
	c-1.7,1.9-2.7,4.3-2.8,7.6c0,2.2,1.2,5.1,2.8,7.7v28.4c-0.5-0.1-1-0.3-1.4-0.4c0.4,0.2,0.9,0.5,1.4,0.7v24.9c-3-1.7-6.2-3.1-9.4-4.5
	c-0.7,0.1-0.4,0.7,0,0.7C330.6,324.8,333.7,327.1,336.7,329.7L336.7,329.7z M322.1,198c-34.6-2.4-72.2,1.8-80.2,25.2
	c4.2-18.9,23.2-24.4,41.5-27.7c20.6-5.3,38.2-4.9,53.3-0.4v5.4C332.1,199.3,327.2,198.4,322.1,198z M391,382.9
	c-12.7-21.9-30-43.6-54.2-56.5v-24.9c20.5,10.9,35.8,30.3,50.3,45c-1.9-7-8.3-13-10.7-17.2c4.2,3.4,7.9,5.5,11.3,9.2
	c6.6,7.5,7.4,18.9,13.2,26.6c5.2,6.7,12.2,9.8,18.6,15.2c-4,0.5-10.1-1.2-12,1.4c19.7,12.2,29.7,37.8,41.1,56.2
	c-0.2-1.4-1.8-1.3-2.7-2c5.3,5.3,9.9,11.3,16.6,15.3c-20.3-30.7-32-73.5-42.4-111.9c4.2,2.8,5.9,8.2,9.3,11.9
	c-3.4-20.7-12.5-39.2-19.9-53.6c2.8,2.9,6.8,4.7,8.6,8.6c-10.4-41.1-35.3-93.3-81.4-105.6v-5.4c47.7,14.1,70.7,69,84.7,115.6
	c-1.3,3.5-4.2-5.8-6-4c7.6,15.5,15,34.4,15.9,54.3c-1.5-5.5-4.8-12.9-7.9-14.5c11.3,42.6,25.2,86,48.4,114.6
	c-18.8-11.2-32-31.7-46.4-45c5.5,12.8,10.7,29.5,15.3,41c-8.4-13.7-19.4-24.7-33.1-33.1c34.1,47.1-1.4,55.6-22.5-5.3
	c-0.4,4.8,0.9,11.4-0.6,15.2c-3.8-11.4-11.4-18.9-16.6-29.1c-1.7,2.6,0.4,8.8-1.4,11.2c-5-6-9.9-12.2-12.6-20.5
	c-5,9.1-4.2,29,0,38.4c-6.6-4.8-12.1-10.4-17.1-16.6v-52.8c3.2,2.6,6.5,5,9.8,7.2c-3.1-3.1-6.4-6.2-9.8-9.4v-32.5
	c20.7,17.9,34,45.2,45.6,71.8c5.8,13.1-1.3-6.7-1.9-8.6c-4.2-12.2-8.9-26.6-15.9-37.1C373.7,361.7,382.8,373.6,391,382.9L391,382.9z
	 M336.7,245.6v11.8c6.8-7.4,24.4-5.8,33-11.7c-11.9,0.9-24.5-2.1-32.5-7.3C337.5,241.2,337.3,243.5,336.7,245.6L336.7,245.6z
	 M336.7,301.1c22.2,5.4,40.3,20.4,54.2,36.1c-0.6-11.7-9.4-21.2-18.6-26.5c3.8-2,8.8,0.5,11.3,2c-3.2-16.5-32-23.5-43.8-35.8
	c-1.1-1.2-2.2-2.7-3.2-4.2V301.1z"/>
<path class="st3" d="M341.3,217.9c-1.7,0.9,1.9,1.9,1.9,3.3c-6.2,0-12.5-0.1-17.8,0.7c6,1.6,15.5-0.1,21.1,1.9
	C347.5,221.8,342.4,220.1,341.3,217.9z"/>
<path class="st3" d="M251.8,221.9c-1.3,0.9,3.9,0.9,4.7,1.9c4.1,12.5-6.7,22.2-3.4,35.8c10.8,10.7,34.1,8.8,49.1,15.3
	c-0.4,1.3,2,2.9-0.7,2.7c5.8-2.5-3.3-5.7-8.6-7.3c-7.5-2.3-16.1-2.3-20.6-5.3c-7-0.9-12.9-3-17.2-6.6c-3.6-11.7,10.8-29.9-2-36.4
	H251.8z"/>
<path class="st3" d="M306.1,253.9v2.2c-8,0.2-16-5.3-12.5-17.6c-8.2,7.2,1.7,18.7,9.3,20.5c-2.4,1,4.1,1.9,1.9,2.7
	c-7.1-3.1-11.9-3.5-15.2-9.3c-2.6-4.5-0.9-11.8-6.6-12c-2.2,0.3-1.4,3.6-2.7,4.7c-2.7-2.7-4.8-11.5,2.7-10.6c0-1.6-5.2-3.6-2-4
	c6.2,1,14.5-4.9,22.5-1.9c-6.6,0.9-13.9,1.2-17.9,4.6c6,2.2,12.5,3.7,20.4,4v13c-3.2,0.7-6.6-0.8-7.1-6.4c0.8-0.4,6.3,0.9,5.3-3.3
	c-1.4-1.9-5-1.7-7.9-1.9C291.1,249.2,298.6,254.2,306.1,253.9z M306.1,237.1c1.1,0,2.2,0.1,3.5,0c5.3-4,19.9-6.1,19.8,2
	c-2.4-1.8-8.3-6.3-11.9-2.7c6,12.5-2.7,19.4-11.4,19.6v-2.2c7.6-0.2,15.2-6,9.4-16.8c-1.6,0-1.9,1.2-4,0.7
	c3.7,5.4-0.8,11.2-5.4,12.3V237.1z"/>
<path class="st3" d="M231.3,232.5c-12.6,8.3-31.4,26-28.5,53c0.9,8.9,5.2,14.3,8.6,21.9c1.5-11,1.4-16.5,5.3-21.9
	c4.7-6.4,10-4,17.9-7.3c4.2-1.7,6.7-8.2,11.9-7.9c-4.5-1.2-7.3,2.8-11.2,2.6c-8.6-0.4-6.8-8.5-7.9-18.5c-0.5-4-3-7.7-2.7-11.3
	C225.1,237.7,229.7,234.5,231.3,232.5z"/>
<path class="st3" d="M282.3,272.9c-14.5,0.9-36.7-7.6-45,4c10.7-2.2,28.3-5,43.7-2.7c-0.5-1.5-3.7-0.3-5.3-0.6
	C276.6,272.1,280.3,273.3,282.3,272.9z"/>
<path class="st3" d="M238,245.8c-0.4-1-0.7-0.1-0.6,0.6c-1.4,3.7,11.4,16.6,5.3,9.9C241.3,252.6,238.2,250.7,238,245.8z"/>
<path class="st3" d="M375.7,256.4c4.5,5.1,13.2,11.5,19.2,17.3c0.6-3.6-1.2-10.3-2.7-14c-1.9,1.8,0.9,4.4,0,7.3
	C385.4,264.8,381.7,259.4,375.7,256.4z"/>
<path class="st3" d="M376.3,288.8c1.1-3.7-6-19.2-2.6-6.6c-5.6-1.9-11.4-9.3-19.2-11.2C361.9,276.9,369.9,282,376.3,288.8z"/>
<path class="st3" d="M291.6,273.6c-2.1,0.7,1.8,0.7,2.7,0.6c-0.7,1.5-4.2,0.2-6,0.6c1.7,2.7,8.1,0.8,11.3,2
	C297.9,274.8,295.2,273.8,291.6,273.6z"/>
<path class="st3" d="M242.6,282.8c1.8,1.1,6.4-0.6,9.9,0c1.4-1.2-4.8-0.4-6.6-0.6c5.5-5.3,17.1-5.9,27.2-4.6
	C262.5,274.5,248.3,277,242.6,282.8z"/>
<path class="st3" d="M409.5,323.3c-0.9-8.6-5.5-19.2-10-26.5c-0.6,4.8,4,10.2,4.7,15.9c-6.3-2.6-9.6-8.1-15.9-10.7
	C396,308.5,403.3,315.3,409.5,323.3z"/>
<path class="st4" d="M316.8,347.8c8.7,6.6,19.2,17.1,29.7,23.9c-15.6-15.5-36.4-31.6-43.6-57.7c0.5,25.1,15.7,41.3,27.1,57.7
	C327.2,364.8,320.8,355.7,316.8,347.8z"/>
<path class="st4" d="M327.4,321.9c-0.7,0.1-0.4,0.7,0,0.7c26.3,17.1,41.7,48.5,54.9,78.8c5.8,13.1-1.3-6.7-1.9-8.6
	c-4.2-12.2-8.9-26.6-15.9-37.1c9.3,5.9,18.4,17.9,26.5,27.1C376.7,358.3,356.5,333.9,327.4,321.9z"/>
<path class="st3" d="M406.9,342.5c-0.4,3.3,3.7,7.7,4,12.6c-4-3.2-7.2-6.9-9.9-11.3c1.4,7.7,9.8,14,13.9,21.2
	C414.9,357.4,410.8,348.3,406.9,342.5z"/>
<g>
	<path class="st4" d="M425.4,334.4c-0.1,0.8,1.4,4.5,1.7,5.8c0.6,2.4,1.5,5.8,1.5,8.4c0,0.6,0,6.7-0.4,6.2c-2.2-3.4-1.6-8.6-3.6-12
		c-0.6-0.9-0.8-3.5-1.5-4.1C422.1,337.8,423.5,333.2,425.4,334.4z"/>
	<path class="st5" d="M428.1,354.8c-1.1-1.8-1.5-4-1.9-6.2c-0.4-2-0.7-4.1-1.7-5.8c-0.3-0.4-0.4-1.1-0.6-1.9
		c-0.2-0.9-0.5-1.9-0.9-2.2c-0.7-0.7-0.2-3,0.6-4.1c0.5-0.7,1.2-0.8,1.8-0.4l0.1,0l0,0.1c-0.1,0.5,0.5,2.2,1,3.6
		c0.3,0.9,0.6,1.7,0.7,2.1c0.1,0.4,0.2,0.8,0.3,1.2c0.5,2.2,1.2,5,1.2,7.2c0,6.2-0.3,6.3-0.4,6.3c0,0,0,0,0,0
		C428.2,354.9,428.1,354.9,428.1,354.8z M423.8,334.9c-0.9,1.1-1.2,3.2-0.7,3.8c0.4,0.4,0.7,1.4,0.9,2.3c0.2,0.7,0.4,1.4,0.6,1.8
		c1,1.7,1.4,3.8,1.7,5.9c0.4,2.1,0.8,4.3,1.8,6c0.2-0.5,0.3-2.8,0.3-6.1c0-2.2-0.7-5-1.2-7.2c-0.1-0.4-0.2-0.8-0.3-1.2
		c-0.1-0.4-0.4-1.3-0.7-2.1c-0.5-1.5-1.1-3-1-3.6C424.6,334.1,424.1,334.5,423.8,334.9z"/>
</g>
<g>
	<path class="st3" d="M425.2,414.5c4.5,5.3,13.5,10.7,18.1,15.3c0.9,0.9,2.7,4,2.7,6.1c0,5.8,16.2,13.2,18.4,20.1
		c0.9,2.6-2.7,3.4-5,3.1c-8.7-1.1-20.7-20.3-26.2-26.7C428.9,427.4,425.2,420.7,425.2,414.5z"/>
	<path d="M459.3,459.1c-6.7-0.8-15.2-12.2-21.4-20.5c-1.9-2.5-3.5-4.7-4.8-6.2c-7.2-8.3-8-15.3-8-17.9v-0.3l0.2,0.2
		c2.5,3,6.5,6,10.4,8.9c2.9,2.2,5.7,4.3,7.7,6.3c1,1,2.8,4.1,2.8,6.2c0,2.9,4.2,6.3,8.7,9.9c4.2,3.4,8.6,6.8,9.7,10.2
		c0.3,0.8,0.2,1.4-0.3,2c-0.7,0.9-2.4,1.3-3.9,1.3C459.9,459.2,459.6,459.2,459.3,459.1z M433.2,432.2c1.3,1.5,3,3.7,4.9,6.3
		c6.2,8.3,14.7,19.6,21.3,20.4c1.6,0.2,3.7-0.1,4.6-1.2c0.4-0.5,0.5-1.1,0.3-1.8c-1-3.3-5.4-6.8-9.6-10.1c-4.5-3.6-8.8-7-8.8-10
		c0-2-1.8-5.1-2.7-6c-2-2-4.8-4.1-7.7-6.3c-3.8-2.8-7.6-5.8-10.2-8.7C425.3,417.6,426.3,424.3,433.2,432.2z"/>
</g>
<polygon points="462.3,451 462.5,450.8 453.9,436.3 453.7,436.4 "/>
<polygon class="st9" points="246.2,483.2 246.7,488.4 255.4,487.7 256.1,494.6 247.3,495.4 248.2,505.6 239.4,506.4 236.8,477 
	255.2,475.4 255.9,482.3 "/>
<path class="st9" d="M280.7,503.5l-1.6-5.4l-4.8,0.3V492l2.8-0.1l-2.5-7.9c-0.1-0.4-0.2-0.9-0.3-1.2v-8.5l4.9-0.3l11.1,29
	L280.7,503.5z M274.4,498.3l-4,0.2l-1.2,5.5l-9.6,0.5l8.6-30l6.1-0.3v8.5c-0.2-0.7-0.4-1.4-0.4-2.1h-0.2c0,0.4-0.1,0.9-0.2,1.7
	c-0.1,0.8-0.8,4-2,9.9l2.9-0.1V498.3z"/>
<polygon class="st9" points="293.5,502.8 293,473.3 301.8,473.1 302.2,495.7 312.4,495.5 312.5,502.4 "/>
<path class="st9" d="M338.2,501.7c-2.4,0.9-5.3,1.3-8.4,1.3s-5.9-0.6-8.1-1.8c-2.3-1.2-4-2.9-5.3-5.1c-1.2-2.2-1.8-4.8-1.8-7.7
	c0-3.1,0.6-5.9,2-8.3c1.4-2.4,3.2-4.3,5.7-5.7c2.4-1.3,5.3-1.9,8.5-1.9c2.6,0,5,0.3,7.4,0.9v8.2c-0.8-0.5-1.8-0.9-3-1.2
	c-1.1-0.3-2.2-0.4-3.5-0.4c-2.4,0-4.3,0.7-5.7,2.1c-1.4,1.4-2.1,3.2-2.1,5.6c0,2.4,0.6,4.2,2.1,5.6c1.4,1.4,3.2,2,5.6,2
	c2.2,0,4.3-0.5,6.5-1.6V501.7z"/>
<path class="st9" d="M361.4,504l-1-5.5l-4.1-0.2v-6.3l2.8,0.1l-1.7-8.1c-0.2-1.2-0.4-2.3-0.4-3.3h-0.1c-0.1,0.3-0.2,0.9-0.4,1.6
	c0,0.1-0.1,0.4-0.1,0.6v-8.6l6.8,0.4l8.1,30L361.4,504L361.4,504z M356.2,469.4v-4.8c0.7,0.3,1.4,0.6,2.1,1.2
	c0.4,0.2,0.7,0.5,1.1,0.7c0.4,0.2,0.7,0.3,1.2,0.4c0.5,0,0.9-0.2,1.2-0.6c0.3-0.4,0.4-1,0.5-1.8l3.6,0.1c-0.1,2.3-0.6,4-1.5,5.2
	c-0.9,1.2-2.1,1.7-3.7,1.6c-1.2-0.1-2.3-0.4-3.4-1.2C356.9,469.9,356.5,469.7,356.2,469.4z M356.2,498.3l-4.7-0.2l-1.7,5.3l-9.6-0.5
	l11.7-28.9l4.2,0.2v8.6c-0.4,1.4-1.4,4.3-2.8,9l2.8,0.1V498.3L356.2,498.3z M356.2,464.6v4.8l-0.2-0.1c-0.4-0.3-0.8-0.4-1.2-0.4
	c-0.5-0.1-0.9,0.1-1.2,0.6c-0.4,0.4-0.5,1-0.6,1.7l-3.6-0.1c0.1-2.4,0.6-4.1,1.6-5.2c0.9-1.2,2.1-1.7,3.5-1.6
	C355.1,464.4,355.7,464.4,356.2,464.6z"/>
<path class="st9" d="M404.1,493c-0.3,3-1.2,5.5-2.7,7.7c-1.5,2.2-3.5,3.8-5.9,4.9c-1.9,0.8-4,1.2-6.1,1.2v-7.6
	c0.7,0,1.4-0.2,2.1-0.6c0.9-0.5,1.6-1.3,2.2-2.4c0.6-1.1,0.9-2.4,1.1-3.9c0.3-2.4,0-4.4-0.8-5.9c-0.7-1.4-1.9-2.3-3.6-2.4
	c-0.3-0.1-0.6-0.1-0.9-0.1v-7.6c0.6,0,1.2,0,1.9,0.1c2.8,0.3,5.3,1.2,7.3,2.7c2.1,1.5,3.6,3.5,4.6,5.9
	C404.1,487.4,404.4,490.1,404.1,493z M389.3,506.8c-0.6,0-1.2-0.1-1.7-0.1c-2.8-0.3-5.3-1.2-7.3-2.7c-2.2-1.4-3.7-3.4-4.8-5.8
	c-1-2.4-1.4-5-1.1-7.9c0.4-3,1.2-5.6,2.7-7.8c1.6-2.2,3.5-3.9,6-5c1.9-0.9,4-1.2,6.2-1.2v7.6c-1.4,0.1-2.4,0.6-3.4,1.7
	c-1.1,1.2-1.8,3-2.1,5.5c-0.2,2.4,0.1,4.3,0.9,5.8c0.8,1.4,2.1,2.2,3.7,2.4c0.3,0,0.5,0,0.8,0V506.8z"/>
</svg>
