<?xml version="1.0" encoding="utf-8"?>
<!-- Generator: Adobe Illustrator 21.0.2, SVG Export Plug-In . SVG Version: 6.00 Build 0)  -->
<svg version="1.1" id="Camada_1" xmlns="http://www.w3.org/2000/svg" xmlns:xlink="http://www.w3.org/1999/xlink" x="0px" y="0px"
	 viewBox="0 0 595 842" style="enable-background:new 0 0 595 842;" xml:space="preserve">
<style type="text/css">
	.st0{fill-rule:evenodd;clip-rule:evenodd;fill:#303C8C;}
	.st1{fill-rule:evenodd;clip-rule:evenodd;fill:#639239;}
	.st2{fill-rule:evenodd;clip-rule:evenodd;fill:#FFFFFF;}
	.st3{fill-rule:evenodd;clip-rule:evenodd;}
	.st4{fill-rule:evenodd;clip-rule:evenodd;fill:#CA6372;}
	.st5{fill:#FFFFFF;}
	.st6{fill-rule:evenodd;clip-rule:evenodd;fill:#FEEE00;}
	.st7{fill-rule:evenodd;clip-rule:evenodd;fill:#888577;}
	.st8{fill-rule:evenodd;clip-rule:evenodd;fill:#BD0048;}
	.st9{fill-rule:evenodd;clip-rule:evenodd;fill:#807258;}
	.st10{fill-rule:evenodd;clip-rule:evenodd;fill:#915D44;}
</style>
<g>
	<g>
		<path class="st0" d="M305.3,128.9c141.6,0,256.3,110.3,256.3,246.3S446.9,621.5,305.3,621.5c-141.5,0-256.2-110.3-256.2-246.3
			S163.9,128.9,305.3,128.9z"/>
		<path d="M305.3,625.5c-69.5,0-134.8-26-184-73.3c-49.2-47.3-76.3-110.2-76.3-177s27.1-129.8,76.3-177
			c49.2-47.2,114.5-73.3,184-73.3c69.5,0,134.8,26,184,73.3c49.2,47.3,76.3,110.2,76.3,177c0,66.9-27.1,129.8-76.3,177
			C440.2,599.5,374.8,625.5,305.3,625.5z M305.3,132.9c-139.1,0-252.2,108.7-252.2,242.3s113.2,242.3,252.2,242.3
			c67.4,0,130.8-25.2,178.5-71c47.6-45.8,73.8-106.6,73.8-171.3c0-64.7-26.2-125.5-73.8-171.3C436.1,158.1,372.8,132.9,305.3,132.9z
			"/>
	</g>
	<path class="st1" d="M305.3,152.8c127.8,0,231.4,99.6,231.4,222.4S433.1,597.6,305.3,597.6C177.6,597.6,74,498,74,375.2
		S177.6,152.8,305.3,152.8z"/>
	<path class="st0" d="M305.3,554.5c102.7,0,186.6-80.6,186.6-179.3s-83.8-179.3-186.6-179.3c-102.7,0-186.5,80.6-186.5,179.3
		S202.7,554.5,305.3,554.5z"/>
	<g>
		<path class="st2" d="M305.3,207.6c96.3,0,174.5,75.1,174.5,167.6s-78.1,167.6-174.5,167.6c-96.3,0-174.4-75.1-174.4-167.6
			S209.1,207.6,305.3,207.6z"/>
		<path d="M305.3,542.9c-23.5,0-46.4-4.4-67.9-13.2c-20.8-8.5-39.4-20.5-55.5-36s-28.6-33.3-37.4-53.3
			c-9.1-20.7-13.7-42.6-13.7-65.3s4.6-44.6,13.7-65.3c8.8-20,21.4-37.9,37.4-53.3s34.7-27.5,55.5-36c21.5-8.8,44.4-13.2,67.9-13.2
			c23.6,0,46.4,4.4,67.9,13.2c20.8,8.5,39.5,20.5,55.5,36c16,15.4,28.6,33.3,37.4,53.3c9.1,20.7,13.7,42.6,13.7,65.3
			s-4.6,44.6-13.7,65.3c-8.8,20-21.4,37.9-37.4,53.3c-16,15.4-34.7,27.5-55.5,36C351.8,538.5,328.9,542.9,305.3,542.9z M305.3,207.7
			c-23.5,0-46.3,4.4-67.8,13.2c-20.8,8.4-39.4,20.5-55.4,35.9c-16,15.4-28.6,33.3-37.4,53.2c-9.1,20.6-13.7,42.6-13.7,65.2
			s4.6,44.5,13.7,65.2c8.8,19.9,21.4,37.9,37.4,53.2c16,15.4,34.6,27.5,55.4,35.9c21.5,8.7,44.3,13.2,67.8,13.2
			c23.5,0,46.4-4.4,67.9-13.2c20.8-8.4,39.4-20.5,55.4-35.9c16-15.4,28.6-33.3,37.4-53.2c9.1-20.6,13.7-42.6,13.7-65.2
			s-4.6-44.5-13.7-65.2c-8.8-19.9-21.4-37.9-37.4-53.2c-16-15.4-34.7-27.5-55.4-35.9C351.7,212.1,328.9,207.7,305.3,207.7z"/>
	</g>
	<g>
		<path class="st3" d="M340.2,338c2.6,52.8,230.7,214.1,80.6,164.5c-48.9-16.2-105.8-9.7-160.1-9.7c-39.8,0-84.5,16.5-113.5,16.5
			c-29.2,0-39.8-118.4-15.6-130c8.8-3.8,13.6-16.5,29.2-21.3c38.8-12.6,64.9,1.3,99.9,10.7C280,373.8,322.7,339,340.2,338z"/>
		<path d="M461.5,519.8c-9.7,0-23.6-3.2-43.3-9.7c-36.7-12.2-79.6-11-121-10c-12,0.3-24.5,0.6-36.6,0.6c-20.6,0-42.6,4.6-63.8,9
			c-18.3,3.8-35.5,7.4-49.8,7.4c-14.3,0-25.3-15.3-31.9-44.2c-4.2-18.5-6-40.6-4.6-59c1.6-23.1,7.5-37.2,17.5-42l0.3-0.1
			c2.1-0.9,4.5-3.3,7.2-6.1c5.2-5.3,11.6-12,22.8-15.5c33.7-10.9,58.8-3.2,85.3,4.9c6.2,1.9,12.5,3.8,19.1,5.6
			c8.1,2.2,27.4-8.4,41.5-16c14.1-7.7,26.3-14.3,35.5-14.8l8.1-0.5l0.4,8.1c0.3,5.3,4.5,16.4,23,38.7c14.1,16.9,32.3,35.7,50,53.8
			c44.6,45.7,65.7,68.3,56.7,82.8C474.9,517.5,469.8,519.8,461.5,519.8z M333.4,483.5c30.9,0,61.6,2.1,89.8,11.4
			c26.6,8.8,36.7,9.3,40.2,8.9c-0.9-2.6-4.1-8.7-14.8-21.2c-10.3-12-24.2-26.3-39-41.4c-33.1-33.9-67.2-68.8-75.6-93.5
			c-6.2,2.4-14.6,7-22.3,11.1c-19.2,10.4-39.1,21.2-53.3,17.4c-6.9-1.8-13.4-3.8-19.7-5.8c-26.1-8-46.8-14.4-75.7-5l-0.1,0
			c-7.3,2.3-11.5,6.7-16.1,11.3c-3.5,3.6-7.2,7.4-12.1,9.6c-2.3,1.2-7,8.7-8.4,28.7c-1.2,16.9,0.4,37.3,4.3,54.4
			c5.3,23.1,12.8,31.7,16.3,31.7c12.6,0,29-3.5,46.5-7.1c21-4.4,44.8-9.4,67.1-9.4c11.9,0,24.3-0.3,36.2-0.6
			C309,483.8,321.2,483.5,333.4,483.5z"/>
	</g>
	<g>
		<path class="st2" d="M71.1,610.5l94.7-27.2l1.5-19.3c100.4-14.8,192.5-13.2,276.5,4.2l0.4,18.1l94.2,24.3
			c-4.9-15.8-12.7-27.7-22.2-37.3c12.5-8.7,21.6-16.7,22.2-23.2l-48.3-16.5v-25.8c-110.3-32.6-245.6-35.9-371.7,0v26.6L71.1,550
			c-4.2,3.9,14.1,16.1,21.2,24.2C85.2,586.3,73.8,597.2,71.1,610.5z"/>
		<path d="M65.9,616.2l1.3-6.4c1.9-9.7,8-18,13.8-26c2.2-3.1,4.4-6,6.3-8.9c-2.1-2-4.7-4.3-7.2-6.5c-8.6-7.6-13.5-12.1-13.6-16.7
			c0-1.7,0.7-3.3,1.9-4.5l0.6-0.6l45.4-15v-26.8l2.9-0.8c121-34.5,257.3-34.5,373.9,0l2.9,0.8v25.9l48.6,16.6l-0.3,3.1
			c-0.6,6.5-6.6,13.6-20.1,23.4c9.2,10.3,15.7,21.9,19.9,35.5l2.1,6.8l-104.1-26.8l-0.4-17.9c-81.7-16.5-172.1-17.9-268.8-4
			l-1.5,18.9L65.9,616.2z M448.2,583.1l84.1,21.6c-4.3-10.9-10.5-20.3-18.8-28.7l-3.3-3.4l3.9-2.7c10.6-7.3,17.1-13.2,19.5-17.4
			l-47.3-16.1v-25.6c-113.6-33-245.8-32.9-363.7,0v26.5l-47,15.5c2.1,2.6,6.8,6.7,9.9,9.4c3.6,3.2,7.4,6.5,9.9,9.4l1.9,2.2l-1.4,2.5
			c-2.5,4.2-5.4,8.3-8.3,12.2c-4,5.5-7.8,10.7-10.3,16.2l84.8-24.4l1.5-19.7l3.2-0.5c100-14.7,193.5-13.3,277.9,4.2l3.1,0.6
			L448.2,583.1z"/>
	</g>
	<g>
		<path class="st3" d="M467,579.4c5.3-0.9,10.4-1.8,15.1-3.2l-15.1-3.2v-3.8c7.9,1.8,15.7,3.8,23.2,6v-67.5
			c-7.5-2.2-15.2-4.2-23.2-6.1v-4c9.4,2.1,18.5,4.5,27.2,7.1v27.1c17,6.2,34.4,12,52.3,17.1c-7.2,9.6-17.9,15.7-25.2,25.2
			c8.2,14.3,17.6,27.4,25.2,42.3c-25.8-8.4-52-16.6-79.6-23.3v-3.6c25,5.8,48.7,12.8,71.5,20.9c-6.3-13.5-14.9-24.7-22.2-37.3
			c6.7-7.8,19.3-14.9,22.2-23.2c-15.6-3.6-28.1-10.2-44.3-13.1c-0.6,13.8,1.3,30.2-1,42.3c-9.1,1-18.6,1.9-26.2,3V579.4z
			 M443.8,583.3c7.3-1.7,15.3-2.7,23.2-3.9v2.8c-7.8,1-13.8,2.3-15.1,4.1c5.1,1,10.2,2.2,15.1,3.3v3.6c-8.9-2.1-18-4.1-27.2-5.9
			v-19.2c-78.3-17-190.1-15.5-269.9-1v20.2c-9.3,1.7-18.4,3.7-27.2,5.8v-3.7c5.1-1.4,10.2-2.7,15.1-4.1c-5-0.9-10-1.6-15.1-2.4v-3.7
			c7.8,1.4,15.3,3,23.2,4.1c-1.2-4.6,2.4-13.8-2-15.1c-6.5,2.2-13.9,3.5-21.2,4.9v-4c96.8-22,227.9-22.2,324.4,0.2v3.8l-23.2-4.9
			C443.4,572.1,443.6,580,443.8,583.3L443.8,583.3z M467,497.7v4c-96.1-22.5-228-22.3-324.4-0.1v-3.9
			C239.7,475.4,369.9,475.5,467,497.7z M142.6,497.6v3.9c-8.3,1.9-16.4,4-24.1,6.3v67.5c7.8-2.2,15.8-4.2,24.1-6.2v4
			c-5.3,1.1-10.5,2.3-15,4.2c5.3,0.4,10.2,1.2,15,1.9v3.7c-9.3-1.3-18.6-2.7-27.1-4.7v-41.3c-16.4,2.7-28.7,9.6-44.4,13.1
			c1.8,9.4,16.8,14,21.2,24.2c-6.4,12.1-17.3,25-21.2,36.3c22.2-8.6,47.2-14.6,71.5-21.1v3.7c-27.9,6.8-53.9,15.4-80.6,23.5
			c8.8-13.7,16.5-28.5,26.2-41.3C82,564.4,69.8,559.5,63.1,549c18.2-4.6,33.6-12.1,52.4-16.1v-28.2
			C124.2,502.2,133.3,499.8,142.6,497.6z"/>
		<path d="M52.8,623.5l5.9-9.1c3.1-4.8,6.1-9.8,9-14.7c4.9-8.3,10-16.8,15.7-24.6c-2.8-4-6.7-7.1-10.7-10.5
			c-4.7-3.9-9.5-7.9-13-13.4l-3-4.7l5.4-1.4c8.1-2,15.8-4.7,23.2-7.3c8.3-2.9,16.8-5.9,26.1-8.1v-27.9l2.9-0.8
			c52.2-15.4,119.7-23.9,190.2-23.9c0.1,0,0.2,0,0.2,0c70.5,0,138.1,8.5,190.5,23.9l2.9,0.8v27.3c16.7,6,33.3,11.4,49.5,16.1
			l5.6,1.6l-3.5,4.6c-3.9,5.2-8.7,9.4-13.3,13.4c-3.7,3.2-7.2,6.3-10.2,9.8c2.8,4.8,5.8,9.5,8.7,14.1c5.2,8.3,10.6,16.8,15.2,26
			l4.3,8.6l-9.1-3c-32.5-10.6-67.5-21.6-106.3-29.1l-3.2-0.6v-19.2c-72.4-15.1-178.9-15.4-261.9-0.9v13.5l1.9,0.3l-1.9,0.5v5.8
			l-3.3,0.6c-31.1,5.6-59.7,14.5-87.4,23c-6.5,2-13.3,4.1-20,6.1L52.8,623.5z M468.9,586c20.7,4.8,41,10.6,61.4,17.5
			c-2.8-4.9-5.8-9.6-9-14.5c-2.9-4.4-5.8-9-8.5-13.8l-1.4-2.4l1.8-2.1c2.8-3.2,6.3-6.3,9.8-9.2c3.5-2.9,7-5.9,9.3-8.8
			c-5.2-1.5-10.1-3.2-14.9-4.8c-6.5-2.3-12.6-4.4-19.4-6c0,3.8,0.1,7.7,0.1,11.5c0.2,7.5,0.3,15.3-0.4,22.2l0.6,0.1l-0.6,0.2
			c-0.2,1.5-0.4,2.9-0.6,4.2l-0.5,2.9l-2.9,0.3c-3.2,0.4-6.4,0.7-9.5,1C479.4,584.8,473.9,585.3,468.9,586z M76.8,552.8
			c1.7,2.1,4.3,4.2,7,6.4c4.5,3.6,9.7,7.7,12.2,13.5l0.7,1.8l-0.9,1.7c-2.6,5-6,10.1-9.3,15c-2.7,4.1-5.5,8.3-7.7,12.3
			c16.5-5.8,34.2-10.4,51.4-14.9c2.7-0.7,5.5-1.4,8.2-2.2c-8.1-1.2-16.3-2.5-23.9-4.2l-3.1-0.7V580l-0.9-0.1l0.9-0.4v-37.8
			c-6.7,1.5-12.8,3.7-19.2,5.9C87.3,549.5,82.2,551.3,76.8,552.8z M148,576.1c1.5,0.3,2.9,0.5,4.3,0.8c3.1,0.6,6.2,1.2,9.4,1.7
			c0.1-0.7,0.1-1.4,0.2-2.1c0.1-1,0.2-2.5,0.2-3.6C157.6,574.2,152.7,575.2,148,576.1z M447.6,573.1c0,1.7,0,3.6,0,5.3
			c4.3-0.8,8.7-1.5,13-2.1c0.4-0.1,0.9-0.1,1.3-0.2L447.6,573.1z M122.5,510.8V570c105.4-28.8,259.4-28.8,363.7,0v-59.2
			c-49.8-14.2-114.1-21.9-181.5-21.9c-0.1,0-0.2,0-0.4,0C237,488.9,172.6,496.7,122.5,510.8z"/>
	</g>
	<g>
		<path class="st4" d="M240.5,191.3c0.6-6-8.6-9.3-2.3-17.6c5.7-7.7,23.7-17.9,32.9-20.2c14.2-3.5,21.4-10.4,32.1-17.7
			c7.4-4.9,14.5,19.6,14.5,25.4c0,29.8-18.5,17.7-37.3,17.7c-7.3,0-21.9,5.5-28.7,8.9c-2.2,1-5.8-0.2-8,0.9L240.5,191.3z"/>
		<path class="st5" d="M240.4,191.5l0-0.3c0.2-2.3-0.9-4.1-2.2-6.1c-2-3.1-4.1-6.4-0.1-11.5c5.6-7.6,23.3-17.8,33-20.2
			c11.2-2.8,18-7.7,25.8-13.3c2-1.4,4.1-2.9,6.3-4.4c1.2-0.8,2.6-0.9,3.9-0.2c5.9,3.2,10.8,20.8,10.8,25.7c0,8.9-1.7,14.6-5.1,17.6
			c-4.5,3.8-11.3,2.8-19.2,1.6c-4.2-0.6-8.6-1.3-13.1-1.3c-7.4,0-22.3,5.7-28.6,8.9c-1.1,0.5-2.6,0.5-4,0.4c-1.4,0-2.9-0.1-4,0.4
			L240.4,191.5z M305.2,135.3c-0.7,0-1.3,0.2-1.9,0.6c-2.2,1.5-4.3,3-6.3,4.4c-7.8,5.6-14.6,10.5-25.9,13.3
			c-9.6,2.4-27.3,12.6-32.8,20.1c-3.9,5-1.8,8.2,0.1,11.3c1.2,1.8,2.4,3.7,2.2,6l3-2.4c1.1-0.6,2.7-0.5,4.1-0.5
			c1.4,0,2.8,0.1,3.9-0.4c6.3-3.2,21.2-8.9,28.7-8.9c4.5,0,8.8,0.7,13.1,1.3c7.9,1.2,14.7,2.2,19.1-1.5c3.4-2.9,5-8.6,5-17.4
			c0-4.8-4.8-22.3-10.6-25.5C306.4,135.4,305.8,135.3,305.2,135.3z"/>
	</g>
	<g>
		<path class="st3" d="M310.7,182.7c10.4-12.9,19.6-32.5,4.5-47.5c-10.8-10.8-19.5,2.5-30.3,9.6c-8,5-66,25.1-50,40.9
			c3.3,3.3,8.3,10,15.4,7.9c8.7-3,1.2,0.4-0.9-1.7c-0.4-0.4-16.6-9.2-10-15.8c3.7-3.7,18.8-7.1,18.8-13.8c0-4.2,20.4-7.1,25.4-9.6
			c8.8-4.1,12.5-7.5,19.2-14.1c4.1-4.2,2.9,14.5,0,17.5c-1.3,1.2-20.8,14.2-9.6,6.6c3.4-2.1,14.1-3.7,14.1-9.1
			c0-22.1,12.1,9.1,6.3,13c-3.7,2.4-2.5,1.7-1.7,1.7c6.3,0-4.6,14.5-9.1,14.5H289c-5.4,0-21.2-2.9-12.9-11.2c3.7-3.7,0,1.2-3.7,1.2
			c-4.6,0-2.1,11.3-10.9,7.1c-0.4,0,0.9-4.2,0.9-4.6c0.8-3.7,2.5-2.1-3,1.3c-3.7,2.4-5,8.7-7.1,9.6c-0.9,0.4,2.5-2.5,10-2.5
			C289.9,183.6,314.4,188.6,310.7,182.7z"/>
		<path d="M247.6,194.1c-4.9,0-8.6-3.9-11.4-6.9c-0.5-0.5-0.9-1-1.4-1.4c-2.2-2.2-3.1-4.7-2.7-7.3c2-10.9,27.5-22.3,42.8-29.1
			c4.7-2.1,8.3-3.7,10-4.7c2.5-1.7,5-3.7,7.3-5.6c7.6-6.3,14.8-12.2,23.1-3.9c6.8,6.8,9.3,15.1,7.3,24.7
			c-1.9,9.2-7.4,17.5-11.8,22.9c0.4,0.6,0.5,1.2,0.2,1.6c-1.2,2-8.9,1.4-20.6,0.6c-7.9-0.6-17.8-1.3-28-1.3c-4.7,0-7.8,1.2-9.2,1.9
			c-0.3,0.3-0.5,0.5-0.8,0.6c-0.1,0-0.2,0.1-0.2,0l-0.1,0l0-0.1c0-0.1,0.4-0.4,0.9-0.7c0.6-0.7,1.2-1.8,1.8-3c1.1-2.2,2.4-4.7,4.5-6
			c1.8-1.1,2.8-2,3.3-2.6c0.2-0.5,0.4-0.8,0.6-0.8l0.1,0l0,0.1c0,0.1-0.1,0.4-0.5,0.9c-0.1,0.3-0.3,0.7-0.4,1.3
			c0,0.1-0.1,0.6-0.3,1.4c-0.3,1-0.7,2.8-0.6,3.1l0,0c1.9,0.9,3.4,1.1,4.6,0.7c1.5-0.6,2.2-2.4,2.9-4.1c0.8-1.9,1.5-3.8,3.4-3.8
			c1.5,0,3-0.8,4-1.5c1.2-1.2,1.3-1.1,1.3-1.1l0.1,0l0,0.1c0,0.1-0.5,0.6-1.2,1.1c-0.1,0.1-0.2,0.2-0.3,0.3
			c-2.1,2.1-2.8,3.9-2.1,5.6c1.6,3.8,10.6,5.5,14.9,5.5h13.8c3.4,0,10.9-8.8,10.9-12.7c0-0.5-0.1-0.9-0.4-1.2
			c-0.3-0.3-0.8-0.4-1.4-0.4c-0.2,0-0.4,0-0.6,0.1c-0.2,0.1-0.4,0.1-0.4,0c-0.1-0.2-0.1-0.2,2.6-1.9c2.9-1.9,1.3-10.4-0.9-15.9
			c-1.3-3.1-2.6-4.9-3.5-4.7c-0.6,0.1-1.6,1.3-1.6,7.7c0,3.9-5.5,5.9-9.9,7.5c-1.5,0.6-2.9,1-3.9,1.5c-2.4,1.6-3.3,2.2-3.7,2.5
			c-0.1,0.1-0.2,0.1-0.2,0.1l0,0c-0.1,0-0.1,0-0.1,0l-0.1,0l0-0.1c0,0,0,0,0.1-0.1l0,0c0,0,0,0,0.1-0.1c0.3-0.2,1.1-0.8,3.3-2.3
			c0.1-0.1,0.2-0.1,0.4-0.2c3.6-2.4,8.5-5.8,9.2-6.4c2.3-2.4,3.6-15.8,1.6-17.7c-0.4-0.4-0.9-0.3-1.5,0.4
			c-6.9,6.9-10.6,10.1-19.2,14.1c-1.8,0.9-5.5,1.9-9.5,2.9c-7.1,1.8-15.9,4.1-15.9,6.7c0,4.3-6.3,7.3-11.8,9.8c-2.9,1.4-5.7,2.7-7,4
			c-1.2,1.2-1.7,2.5-1.5,4c0.4,3.2,4,7,10.9,11.3c0.4,0.3,0.6,0.4,0.7,0.4c1,1,3.2,0.7,4.3,0.5c0.2-0.1,0.4-0.1,0.5-0.1
			c0,0,0.1,0,0.1,0l0,0c0.1,0,0.1,0,0.1,0l0,0.1l-0.1,0.1c0,0-0.2,0.1-0.6,0.2c-0.6,0.2-1.7,0.5-3.6,1.1
			C249.3,193.9,248.4,194.1,247.6,194.1z M306.9,131.2c-1.1,0-2.2,0.2-3.3,0.6c-3.7,1.2-7.4,4.2-11.2,7.4c-2.4,2-4.8,4-7.4,5.7
			c-1.6,1-5.3,2.7-10,4.8c-15.2,6.8-40.7,18.1-42.6,28.9c-0.5,2.5,0.4,4.9,2.6,7.1c0.4,0.4,0.9,0.9,1.4,1.4
			c3.3,3.5,7.8,8.3,13.9,6.5c0.9-0.3,1.7-0.6,2.2-0.7c-1.1,0.1-2.4,0-3.1-0.7c0,0-0.3-0.2-0.6-0.4c-6.9-4.3-10.6-8.2-11-11.4
			c-0.2-1.5,0.4-2.9,1.6-4.1c1.3-1.3,4.1-2.6,7.1-4c5.5-2.6,11.7-5.4,11.7-9.6c0-2.8,8.5-5,16-6.9c4-1,7.7-2,9.5-2.9
			c8.6-4,12.2-7.2,19.1-14.1c0.9-0.9,1.4-0.7,1.8-0.4c2.1,2,0.8,15.5-1.6,18c-0.5,0.5-4.1,2.9-6.9,4.9c-0.4,0.3-0.8,0.6-1.2,0.8
			c0.8-0.3,1.7-0.7,2.7-1c4.3-1.5,9.7-3.5,9.7-7.2c0-5,0.6-7.7,1.8-7.9c1.5-0.3,3.1,3.3,3.8,4.8c2.2,5.5,3.8,14.2,0.8,16.1
			c-1.2,0.8-2,1.3-2.3,1.5c0.2,0,0.4-0.1,0.6-0.1c0.7,0,1.2,0.2,1.5,0.5c0.3,0.3,0.5,0.8,0.5,1.3c0,1.8-1.7,4.9-4.2,7.9
			c-2.1,2.4-5,5-6.9,5H289c-3.4,0-13.3-1.3-15.1-5.6c-0.7-1.6-0.1-3.4,1.8-5.4c-1,0.6-2.1,1-3.3,1c-1.8,0-2.5,1.8-3.2,3.6
			c-0.7,1.7-1.4,3.5-3,4.2c-1.2,0.5-2.7,0.2-4.7-0.7c0,0-0.1,0-0.1-0.1c-0.2-0.2,0-1.2,0.6-3.3c0.2-0.6,0.3-1.2,0.3-1.4
			c0.1-0.3,0.2-0.6,0.2-0.9c-0.6,0.6-1.6,1.4-3,2.3c-2,1.3-3.3,3.8-4.4,5.9c-0.5,1-1,2-1.5,2.6c1.6-0.8,4.6-1.7,8.8-1.7
			c10.2,0,20.1,0.7,28,1.3c11.2,0.8,19.3,1.4,20.4-0.5c0.2-0.4,0.1-0.9-0.2-1.5l0-0.1l0-0.1c4.3-5.4,9.9-13.7,11.8-22.9
			c1.9-9.5-0.5-17.7-7.2-24.5C312.4,132.5,309.7,131.2,306.9,131.2z"/>
	</g>
	<path class="st6" d="M404.4,206.7c-0.4-10.6-6.8-22.8-15.9-26.8c-7.3-3.2-15.6-2.7-24-2.7v-5.4c20.6-2,41.8,4.5,44.3,24.6v8.6
		c0,0.1,0,0.1,0,0.1c-1.7,14.4-10.2,29.7-18.8,36.8c-3.2-13.6-13.1-18.6-25.5-19.2v-32.9c15.7-1.9,30.9,2.8,34.1,18.2
		c1.7,8-1.5,10.9-2.2,19.5C403.5,223.9,404.7,214,404.4,206.7z M364.5,177.2c-4.5,0.1-9.1-0.1-13.5-0.9c-8.5,5.6-18.9,15.9-23.8,26
		c-1.7,3.4-3.5,8.2-2.2,11.6c4.1-2.7,6.6-9.1,11.6-13c7.4-5.7,17.8-9.7,27.9-10.9v32.9c-19.4-0.9-45.1,8.6-61.2,12
		c7.5-7.4,21.2-8.7,31.8-13c-7.1-0.6-17.7,1.7-23.8,4.4c4-11,9-27.1,15.8-37.6c6.8-8.9,22-15.2,37.4-16.8V177.2z"/>
	<path class="st3" d="M396.4,227.6c0.6-8.6,3.9-11.5,2.2-19.5c-5.4-25.4-43.1-21.7-62.1-7.3c-5,3.9-7.5,10.4-11.6,13
		c-1.4-3.4,0.5-8.2,2.2-11.6c5-10.1,15.3-20.4,23.8-26c12.8,2.5,26.4-1.3,37.6,3.6c9.1,4,15.5,16.2,15.9,26.8
		C404.7,214,403.5,223.9,396.4,227.6z"/>
	<path class="st3" d="M302,183.2c-0.4,24.2-34.3,37.4-54.6,20.5C246.3,178.2,286.9,171.5,302,183.2z"/>
	<path class="st3" d="M320.6,186.4c-0.4,8.2-5.5,11.8-9.4,16.6c-0.6-0.6-1.7-0.8-3-0.8C306.9,194.8,311.7,183.6,320.6,186.4z"/>
	<path class="st3" d="M278.1,191.5c-1.4,4.9-9,1.7-13,2.2c-8.8,1.1-13.7,7.3-19.5,10.2C247.6,190.9,267.3,189.1,278.1,191.5z"/>
	<path class="st3" d="M292.5,198.6c1.3-0.3,2.1-1.2,2.2-2.8c-0.9-0.1-1.6-0.1-2.2,0.1v-1.7c1.2,0.1,2.4,0.4,3.6,0.9
		c-0.1,3.4-1.3,5.5-3.6,6.6V198.6z M290.4,198.7c0.8,0.1,1.5,0.1,2.2-0.1v3c-1.4,0.6-3,0.8-5,0.6c-4.6-3.9-0.1-8.3,5-8.1v1.7
		C291.2,196.2,290.4,197.1,290.4,198.7z"/>
	<path class="st3" d="M304.7,195.1c2.5,1.4,1.1,6.6,1.4,10.2c1.9,2.1,5.1-0.9,6.6,0.7c-1.5,9.8-6,16.6-12.3,21.7
		c0.3-4.8,5.7-10.7,7.2-16.6C303.5,207.8,300.9,200.6,304.7,195.1z"/>
	<path class="st3" d="M266.3,201.8c1,0.6,1.4,1.9,1.7,3.4c3.1-1,6.3-2.7,7.2,1.4c1.6-2.9,0.1-5.5-0.7-8c-2.8-0.9-5.6-0.6-8.1,0.3
		v-2.5c4.8-1.2,9.4-0.4,11,3.7c0.4,1.2,0.7,2.4,0.8,3.6v1.2c-0.3,6.5-5.4,13.7-11.8,17.3v-4.4c1.2-0.8,1.9-1.7,1.7-2.5
		c-0.6,0.4-1.2,0.6-1.7,0.9V201.8z M265.8,201.6c0.1,0.1,0.3,0.1,0.5,0.3v14.3C256.6,220.4,256.4,201.6,265.8,201.6L265.8,201.6z
		 M266.3,199v-2.5c-7.1,1.7-14.9,7.4-15,13.1c1.7,0.3,1.6-1.4,3.6-0.7c-2.4,3.8,2.5,9.9,1.4,12.2c-2.2,0.1-3.7-0.6-4.3-2.2
		c-0.4-1.5,0.9-4.8-0.7-5c-0.6,2.4-3.6,2.7-2.9,6.5c5.4,5.5,12.1,5,17.9,1.9v-4.4c-1.5,1-3.7,1.8-5.6,1.8
		C252.6,213.7,257.9,202.2,266.3,199z"/>
	<path class="st7" d="M289,192.8c-0.1,1.9-1.4,2.7-3.6,2.4C285.5,193.3,286.8,192.5,289,192.8z"/>
	<path class="st2" d="M177,206c3.7-1.6,12.4-4.8,20.2-3.7c3.5,0.6-0.3,0.1-3,0.8C190.1,204,184.2,204.8,177,206z"/>
	<path class="st3" d="M234.2,226.3c0.9-0.9,1.9-1.9,1.9-3.7c-0.6,0.1-1.4,0.4-1.9,0.9v-2.7c1.7-0.6,3.4-0.6,4.8,0.4
		c-1.3,3.1-2.5,6.3-4.8,8.4V226.3z M232.6,228.3c0.4-0.9,1-1.4,1.7-2.1v3.2c-1.3,1.2-3,2.2-5.3,2.4c-1.9-4.5,1.4-9.6,5.3-11.2v2.7
		C232.6,224.7,231.7,227.3,232.6,228.3z"/>
	<path class="st8" d="M236.2,222.5c-0.1,3.1-2.6,3.7-3.6,5.8C231.4,226.8,233.6,222.7,236.2,222.5z"/>
	<path class="st3" d="M280.9,227.6c3.5,2.4-4.5,4.1-5,7.2c5.7-0.9,10.9-2.1,16.6-2.9c-9.1,9.5-33.6,3.5-36.1,19.5
		c4.3,0.6,15-0.5,17.4,4.3c-0.1,0.9-1.3,0.6-2.2,0.7c-0.1,3,3.5,2.2,2.9,5.8c-4-0.5-4-5.2-8.6-6.5c-6.1-1.7-14.1,2.6-13.8-7.3
		C252.4,237.9,273.6,235.5,280.9,227.6z"/>
	<path class="st9" d="M326.4,260.8c-1-4.7,2.2-21.8-8.6-21c-1.1,0.4-1.8,1.2-2.2,2.2c3.2,5.4,7.5,10.4,5.8,18.8
		c-3.2,1.9-5.3,0.4-10.1,0.7c3-2.1,6.8-3.3,8.6-6.5c-2.7-2.2-1.8-7.8-5-9.4c-2.4-0.7-1.2,2.3-1.4,3.7c-1.3-1.7-1.7-4.1-2.9-5.8
		c-2.7-0.7-2.1,1.8-4.4,1.4c1.4-6.3,9.3-6.1,16.6-6.5C328.5,240.5,329.5,254.8,326.4,260.8z"/>
	<path class="st2" d="M203.7,243.5c-3.8,2.3-14.7-3-21.7,0C186.5,239.5,200.2,236.3,203.7,243.5z"/>
	<path class="st6" d="M329.2,239.9c4,0.4,3.9,4.8,8.7,4.3c-0.9,6-1.8,11.7-2.2,18.1c-3.1-2.4-0.7-10.4-1.4-15.2
		c-2.3-1.2-3,2.7-3.7,0.7C329.8,245.6,329.6,242.7,329.2,239.9z"/>
	<path class="st2" d="M189.2,252.9c-5.6-0.1-10.2,0.8-15.1,1.4C177.2,252.2,186.9,249,189.2,252.9z"/>
	<path class="st3" d="M226.8,255.1c0.5,4.3-7.8,10.6-3.6,16.6c5.7-0.4,10.9-1.2,17.3-0.8c0.3,2.2-2.3,1.5-3.6,2.2
		c-0.4,3.2,0.4,5.4,0.7,7.9c12.7,14.4,37.1-6.3,53.5,3.6c-2.2,3.1-6.7,4-10.2,5.8c0.7,1.8,2.8-1,5,0c-3.2,7.8-8.6,13.5-17.3,15.9
		c-0.1-3.4,3.5-3.2,3.6-6.5c-6.1,0.1-8.3,4.2-14.5,4.3c-0.9-5.9,2.6-7.6,4.3-10.9c-15.3,6.8-31.9-2.1-35.4-15.8
		c-2.3-0.9-4.8-1.4-7.2-2.2C214.8,267.9,219.9,257.2,226.8,255.1z"/>
	<path class="st2" d="M185.6,265.1c-1.4,4.1-9.1,1.9-10.1,6.6c8.5-1.7,24.7-4.5,26.7,7.2c-3-1.4-6-2.7-10.9-2.2
		c0.1-1.9,2.8-1.1,2.9-2.9c-14.3,0.3-28.1,7.5-40.4,12.2C162.2,276.9,169.3,266.4,185.6,265.1z"/>
	<path class="st10" d="M323.5,280.3c1.3-0.1,1.5,0.9,2.9,0.7c-0.6,3.5,2.1,3.7,1.4,7.2C325.7,286.3,323.8,284,323.5,280.3z"/>
	<path class="st2" d="M178.4,285.4c-1.2,1.4-4.2,1.2-5,2.9c5.4,3,15.7-4.8,23.8-1.4c-11.5,4.7-27.4,4.9-34.7,13.8h6.5
		c-0.9,4.5-4,9.5-8.6,7.9c0.4-2.3,3.7-1.6,3.6-4.3c-7.8-1.8-12.8,5.5-18.1,8.6C147.5,297.3,160.3,286.8,178.4,285.4z"/>
	<path class="st6" d="M332.9,285.4c2-0.6,1.8,1,3.6,0.7c1.5,5.5,0.4,13.6,0.7,20.2c-5.3-0.7-8.7-3.3-10.9-7.2c2.7,0.2,4,1.7,6.6,2.2
		C336.7,297.5,332.5,290.5,332.9,285.4z"/>
	<path class="st6" d="M304.7,288.2c10.4,9.6,20.7,19.2,35.4,24.6c-14.9,3.7-26.4-8.2-35.4-15.1C305.9,294.2,304.8,292.1,304.7,288.2
		z"/>
	<path class="st3" d="M226.8,301.3c6.3-1.8,6.6,4.8,5,8.6C225.7,311.8,225.2,304.8,226.8,301.3z"/>
	<path class="st3" d="M244.1,308.5c0.5,2.2-0.8,2.7-0.7,4.3c-2.1,0.1-3.7-0.1-4.4-1.4C239.5,309.2,241,308,244.1,308.5z"/>
	<path class="st3" d="M268,311.4c-0.6,8.6,1.7,19.7,2.2,26.7c-6.8-1.6-9.6-7.3-10.9-14.4c3.3-0.7,3,2.3,4.3,3.6
		C265.7,322.7,266.3,316.5,268,311.4z"/>
	<path class="st2" d="M313.4,316.4c2,0.6,3.7,1.7,4.3,3.7c-3.4-0.4-4.4,0.9-6.5,0C311.9,318.8,313,317.9,313.4,316.4z"/>
	<path class="st2" d="M338,325.1c4.2-0.4,5.5,2.1,6.5,5C341.2,329.6,339.3,327.6,338,325.1z"/>
	<path class="st2" d="M335.1,332.3c-9.6,3.7-15.3,11.2-22.4,17.4C315.4,339.1,324.3,334.8,335.1,332.3z"/>
	<path class="st2" d="M347.3,341c-15,3.2-17.2,19.3-24.6,30.3c1.2-13.5,8.1-27.5,19.5-33.3C344,339,347,338.7,347.3,341z"/>
	<path class="st2" d="M360.4,347.5c3.7,3.5,3.2,11.2,3.6,18.1C361.9,360.4,361.5,353.6,360.4,347.5z"/>
	<path class="st2" d="M304.7,380c2.7,1.2,1.9,5.8,2.2,9.4C305,387.5,304.8,383.7,304.7,380z"/>
	<path class="st2" d="M306.9,429c2.4,1.9,2.5,6.2,3.7,9.4c1.2,0.2,1.3-0.6,1.4-1.4c3.6,5.3-1.9,13.3-4.4,17.3
		C306.1,446.1,306.9,437.2,306.9,429z"/>
	<path class="st2" d="M299.6,455.1c-0.2-1.2,0.4-1.4,0.6-2.2c0.9,0.1,1.2,0.9,1,2.2H299.6z"/>
	<path class="st2" d="M309.7,452.9c-0.3,1.2,0.6,3.5-0.5,3.7C307.2,456.9,307.7,452.1,309.7,452.9z"/>
	<path class="st2" d="M314.4,454.6c-0.8,0.8-3,0.7-2.6-1.1C312.6,452.6,314.8,452.7,314.4,454.6z"/>
	<path class="st2" d="M318.2,452.9c0.1,1.4,0.1,2.7-1.6,2.2C316.4,453.7,316.7,452.8,318.2,452.9z"/>
	<path class="st2" d="M321.3,452.9c1.9-0.6,2.1,3.2,1.1,3.7C320.4,457.1,321.7,454.1,321.3,452.9z"/>
	<path class="st8" d="M310.4,218v-3.5c1-2.6,1.8-5.4,2.3-8.5c-0.6-0.6-1.4-0.6-2.3-0.4v-3c0.3,0.1,0.6,0.3,0.9,0.5
		c3.8-4.8,8.9-8.4,9.4-16.6c-4.6-1.4-8.1,0.9-10.2,4.4v-9.5c1.7-1,3.7-1.8,5.9-2.2c5.2-0.8,10.5,1.7,15.1-1.4
		C320.2,189.8,317,204.9,310.4,218z M310.4,181.3v9.5c-2,3.4-2.7,7.8-2.1,11.4c0.8,0,1.5,0.1,2.1,0.3v3c-1.4,0.4-3.1,0.9-4.2-0.3
		c-0.4-3.5,1.1-8.8-1.4-10.2c-3.8,5.5-1.2,12.7,2.9,15.9c-1.5,5.9-6.9,11.8-7.2,16.6c4.3-3.5,7.8-7.7,10-13.2v3.5
		c-2.2,4.2-4.6,8.2-7.8,11.8c-3.2,3.6-7.2,6-11.7,7.8v-4.2c0.6-0.4,1.2-0.9,1.7-1.4c-0.6,0.1-1.2,0.1-1.7,0.2v-30
		c3.5-0.6,5.3-3,5.3-7.1c-1.7-0.9-3.6-1.1-5.3-0.8v-16.8c3-1.4,6.1-2.3,10.3-1.2c-2.4,3.9-9.1,3.3-10,8.7c4.3,2.2,7.4-2.5,11.4-2.9
		c2.9,1.2-3.6,4.8-4.2,7.2C302.1,188.4,305.6,184.1,310.4,181.3L310.4,181.3z M290.8,293.9v-9c0.1-0.1,0.2-0.1,0.3-0.3
		c-0.1-0.1-0.1-0.1-0.3-0.1v-2.6c1.7,2.2,3.3,4.5,4.6,7.1C294.3,291.1,292.7,292.6,290.8,293.9L290.8,293.9z M290.8,271.1
		c4.7,7.2,5.3,20.4,12.5,22.2c-5.3-11.7-5.3-27-12.2-36.8c-0.1-0.1-0.1-0.2-0.3-0.4V271.1z M290.8,177.5v16.8
		c-4.3,0.6-7.4,4.5-3.3,8c1.2,0.1,2.4,0.1,3.3-0.1v30c-5,0.9-9.8,1.9-14.9,2.7c0.6-3.1,8.6-4.8,5-7.2c-2.2,2.4-5.6,4.2-9.4,6v-15.4
		c5.1-5.2,8.1-12.5,5.8-18.1c-1-2.4-3.2-3.7-5.8-4.1v-1.9c3,0.3,5.7,0.1,6.5-2.7c-1.9-0.4-4.1-0.7-6.5-0.9v-12.9c0.2,0,0.4,0,0.7,0
		c3.4,0.1-0.8,1.1,0,3c5.5-1.2,9.2-4.3,14.4-5.8c-1.3,4-5.5,5-7.9,8C283.7,182.3,287,179.4,290.8,177.5L290.8,177.5z M290.8,233.4
		c-4.8,3.6-12.4,4.4-19.2,6v3.9c6.7-1.9,13.4-3.3,19.2-5.7V233.4L290.8,233.4z M290.8,256.1v15c-0.6-0.9-1.2-1.7-1.9-2.4
		c-2.1,1.2,1,3.3,0,5.8c-4.9-3.4-6.3-10.2-11.6-13c2.6,8.7,8.6,14,13.5,20.4v2.6c-5.7-3.3-12.4-3-19.2-1.8v-22
		c0.7,0.8,1.6,1.4,2.9,1.5c0.6-3.4-2.8-2.8-2.9-5.5v-0.3c0.9-0.1,2,0.1,2.2-0.7c-0.4-0.9-1.2-1.7-2.2-2.2v-6.8
		C280,248.1,286.3,249.9,290.8,256.1L290.8,256.1z M290.8,284.9v9c-2.7,2-5.7,3.8-7,7.3c-0.3,1.5,1.1,1.4,2.2,1.4
		c-10.9,7.4-10.9,25.3-8.6,42.6c-1.9-1.1-3.8-2.1-5.8-3.1v-36.9c7.1-2.7,11.5-8.1,14.4-15c-2.2-1-4.3,1.8-5,0
		C284.3,288.7,288.6,287.8,290.8,284.9L290.8,284.9z M271.6,302c0.4-0.6,0.7-1.2,0.7-2.2c-0.3,0-0.5,0-0.7,0V302z M264.7,335.3
		c1.4,1.3,3.2,2.2,5.4,2.7c-0.4-7.1-2.7-18.1-2.2-26.7c-1.4,4.1-1.9,8.9-3.2,13v-22.2c2-1,4-2.2,6.8-2.4v2.2c-1.1,1.3-3,1.9-2.9,4.3
		c1-0.3,1.9-0.6,2.9-0.9v36.9c-2.3-1.2-4.6-2.4-6.8-3.5V335.3L264.7,335.3z M271.6,177.7v12.9c-2.2-0.1-4.5-0.1-6.8,0.2v-11.3
		C266.8,178.5,269.1,177.8,271.6,177.7L271.6,177.7z M271.6,194.1v1.9c-2.1-0.2-4.5,0.1-6.8,0.9v-3.2c0.1,0,0.2-0.1,0.4-0.1
		C266.8,193.4,269.3,193.9,271.6,194.1L271.6,194.1z M271.6,218.2v15.4c-2.2,1.1-4.6,2-6.8,3.1V223
		C267.2,221.9,269.6,220.2,271.6,218.2L271.6,218.2z M271.6,239.4v3.9c-2.3,0.6-4.6,1.4-6.8,2.2v-4
		C266.8,240.5,269.1,239.9,271.6,239.4L271.6,239.4z M271.6,246.8v6.8c-1.8-1-4.3-1.5-6.8-1.7v-6.2
		C267.1,246.1,269.4,246.4,271.6,246.8L271.6,246.8z M271.6,256.5v0.3C271.6,256.7,271.6,256.6,271.6,256.5L271.6,256.5z
		 M271.6,260.7c-1.6-1.6-2.6-4.1-5.8-5c-0.4-0.1-0.7-0.2-1.1-0.3v28.7c2.2-0.5,4.5-1,6.8-1.4V260.7z M263.6,327.3
		c-0.9-0.9-1-2.7-2.2-3.4v-20.3c1.2-0.4,2.2-0.9,3.3-1.4v22.2C264.4,325.4,264,326.3,263.6,327.3L263.6,327.3z M261.4,330.9
		c0.9,1.7,1.9,3.2,3.3,4.5v3.4c-1.2-0.6-2.2-1.2-3.3-1.7V330.9L261.4,330.9z M264.7,179.5v11.3c-1.2,0.1-2.2,0.2-3.3,0.4v-3.4
		c1.6-0.2,2.9-1.4,3-2.9c-0.7-0.5-1.8-0.7-3-0.6v-3C262.5,180.7,263.6,180.1,264.7,179.5L264.7,179.5z M264.7,193.7v3.2
		c-1.2,0.3-2.2,0.8-3.3,1.3v-3.7C262.5,194.1,263.6,193.9,264.7,193.7L264.7,193.7z M264.7,223v13.7c-1.2,0.5-2.2,1-3.3,1.5v-14
		C262.6,223.9,263.7,223.5,264.7,223L264.7,223z M264.7,241.4v4l-0.4,0.1l0.4,0.1v6.2c-1.2-0.1-2.2-0.1-3.3-0.1v-8.5
		C262.4,242.5,263.5,242,264.7,241.4L264.7,241.4z M264.7,255.5v28.7c-1.2,0.3-2.2,0.5-3.3,0.7v-29.6
		C262.5,255.3,263.7,255.3,264.7,255.5L264.7,255.5z M261.4,294.5v-0.9c0.3-0.1,0.5-0.2,0.7-0.4
		C261.9,293.7,261.7,294.2,261.4,294.5z M261.4,323.9c-0.4-0.3-1.2-0.4-2.2-0.2c0.5,2.6,1.2,5,2.2,7.2v6.1
		c-6.8-3.5-13.5-7.2-19.8-11.3v-12.9c0.6,0.1,1.2,0.1,1.8,0c-0.1-1.7,1.2-2.1,0.7-4.3c-1-0.1-1.8-0.1-2.5,0.1v-14.8
		c6,2.4,13,2.7,19.8-0.1v0.9c-1.8,2.6-4.3,4.5-3.6,9.6c1.4,0,2.6-0.2,3.6-0.6V323.9L261.4,323.9z M261.4,181.4v3
		c-1.5,0.3-3,1.2-2.9,2.7c0.9,0.7,1.9,0.9,2.9,0.7v3.4c-7.7,1.4-14.7,5.1-15.8,12.5c5-2.4,9.3-7.3,15.8-9.4v3.7
		c-5.3,2.5-10,7-10.1,11.4c1.7,0.3,1.6-1.4,3.6-0.7c-2.4,3.8,2.5,9.9,1.4,12.2c-2.2,0.1-3.7-0.6-4.3-2.2c-0.4-1.5,0.9-4.8-0.7-5
		c-0.6,2.4-3.6,2.7-2.9,6.5c3.9,4,8.6,4.8,13,3.8v14c-5.1,2.7-9.2,5.7-9.4,10.3c-0.3,7.6,4.5,6.8,9.4,6.8v29.6
		c-7.3,1.6-14.2,2.5-19.8-0.6v-95.9c1.9-1.4,3.8-2.4,6.1-2.7c0.9-0.1,3.2,1,4.3,0.7C255.4,185.5,258.3,183.3,261.4,181.4
		L261.4,181.4z M261.4,243.2c-2.6,1.8-4.4,4.4-5,8.2c1.3,0.1,3.1,0.1,5,0.3V243.2z M241.6,188.4v95.9c-1.4-0.8-2.7-1.9-4-3.2
		c-0.4-2.5-1.1-4.7-0.7-7.9c1.3-0.7,3.9,0,3.6-2.2c-4-0.2-7.6,0-11.2,0.3v-39.3c5.9-0.9,7.7-6,9.7-10.8c-3.2-2.2-7.8,0.4-9.7,4.4
		v-9.6c1.8-1.9,3.6-3.7,5.4-5.6c-4.5-2.9-1.9-8.8-2.2-15.2C235.9,193.5,238.6,190.5,241.6,188.4L241.6,188.4z M241.6,293.8
		c-5.2-2.1-9.6-5.8-12.3-10.4V301c3.8,0.5,3.8,5.7,2.5,8.9c-1,0.3-1.8,0.4-2.5,0.3v4.6c2.3,3,5,5.8,8.3,8.1c1.4,0.9,2.7,1.8,4,2.7
		v-12.9c-1.2-0.1-2.1-0.6-2.6-1.4c0.4-1.4,1.2-2.4,2.6-2.8V293.8z M229.3,215.9v9.6c-1,2-1.3,4.3-0.4,6.5c0.1,0,0.2-0.1,0.4-0.1
		v39.3c-2,0.1-4,0.4-6.1,0.5c-4.2-6,4.1-12.3,3.6-16.6c-6.9,2.2-12,12.9-7.2,20.2c2.4,0.7,4.9,1.3,7.2,2.2c0.5,2.1,1.4,4.2,2.5,6
		V301c-0.7-0.1-1.5,0-2.5,0.3c-1.4,3-1.2,8.4,2.5,8.9v4.6c-8.3-11-11-26.4-16.3-43.1c3.2-13.5,4-29.4,10.9-39c-0.9-3-3.6,0.1-5.8,0
		C220.5,225.7,224.8,220.6,229.3,215.9z"/>
	<path class="st2" d="M268,215.3c0.7,1.7-4,4.2-7.3,4.3c-10.5-7.8,1.6-24.8,13.8-21c0.9,2.4,2.3,5.1,0.7,8c-0.9-4.1-4.1-2.4-7.2-1.4
		c-0.3-1.7-0.8-3.2-2.2-3.7C255.9,201.6,256.7,222.5,268,215.3z"/>
	<path class="st10" d="M330,266.6c8.9,3.9,19.2,12.6,29.7,17.4c-17.9,4-31.9-5.5-44.1-11.5c-2.7-0.8-2.1,1.7-4.3,1.4
		c-1.4-3-4.8-4-4.4-8.7c8.1-4,18.3,3.7,24.6,3.6C331.5,267.5,330.9,266.9,330,266.6z"/>
	<path class="st2" d="M205.8,359c8.4-3.6,14.2-9.9,23.8-12.2c-2.9,3.6-6.8,6.2-11.6,7.9c0.4,6.8-6.6,10.1-9.4,15.9
		c9.8-1.5,18.1-10.8,28.9-13.8c3.5,1.3-4,2.9-2.9,6.6c5.2,0.8,8.8-6.2,16.6-5.1c-10.3,5.4-19.6,11.7-21.7,25.3
		c8.7-6.4,13.9-16.4,26-19.4c-9.1,13.3-30.2,21.2-23.1,46.2c6.1-6.8,7.9-14.6,13.8-21c8.3-9.2,21.5-10.6,31-18.8
		c0.1-1.6-2.6-0.4-3.6-0.7c1.2-6.3,11.9-3.5,11.5,2.2c-9.8,3.4-17.8,8.6-20.2,19.5c3.9-1.4,5.7-6.6,10.8-8
		c4.8-1.3,10.2-0.3,15.2,1.4c0.6,2.4-2.4,1.1-2.9,2.2c6.6,8.2,15.3,14.4,15,29.6c-6,2.7-1.6,16.1-5,21.6c-1.9-6-1.2-14.7-3.6-20.2
		c-4,1.5-3.7,7.3-4.3,12.2c-6-5-2.8-19.3-3.7-29.5c-3.5,1.3-3.1,6.6-4.3,10.2c-1.3-0.1-0.4-2.4-1.4-3c-3.6,1.5-1.7,8.4-2.2,13
		c3.2,9,6.3,18.4,7.9,28.9c-3.5-2.2-3-8.5-7.9-9.4c-2.2,3.7,0.9,8.2,0,13c-2.6-2.7-2.7-7.9-5.8-10.1c-2.6-0.4-1.8,2.6-4.3,2.2
		c-16.1-7.1-15.3-39.4-1.4-48.3c-8.6,4.2-13,12.6-18.8,19.5c1.2-10.8,10.7-19.7,14.4-30.3c-11.3,5.7-20.6,19.8-26,33.9
		c-1.6-0.6-1.8-2.5-2.9-3.6c-2,0.1-0.9,3.5-3.6,2.9c-9.1-6.7-4.8-24.3-2.9-35.4c-6.1,1.6-6.9,8.5-9.4,13.8c-2.3,0.6-0.9-2.4-2.9-2.2
		c-2.4,3.3-2.3,9.2-2.9,14.5c-2.8-2.7-3.3-7.8-4.3-12.3c-3.9,0.4-1.4,7.3-5,7.9v-7.2c-3.2-0.5-3.7,1.6-4.3,3.6
		c-4-15.5,22.1-19.2,28.9-30.3c-15.4,4.1-27.4,11.6-40.5,18.1c0.6-8.4,8.9-9,10.9-15.9c-3.7-1.2-6.2,4.9-10.9,5
		c3.5-9.1,11.5-13.5,17.4-20.2c-15,0.9-24.9,13.2-34.7,21.7c0.4-7.6,6.5-9.4,10.2-13.7c-0.5-2.3-1.9-0.9-3.6-0.7
		c6.8-7.7,14.9-14,29.6-13.8c-18.7-9.2-40,4.9-49.8,15.9c-3.9-8.1,1.2-18.8,4.3-24.6c-3.5,0.9-4.6,4-6.5,6.5
		c3-19.7,24.9-26.6,35.4-41.2c-16.8,6.5-30.5,16.1-41.9,28.2c7.8-20.4,27.6-35,55.7-37.5c0.4,3.5-4.8,1.4-5.8,3.6
		c4.6,2.1,14.7-1.2,15.8,4.3c-16,8.5-34.8,14.3-44.8,28.9c4.8,0.9,8-6,13.8-6.5c-1.3,4.2-4.7,6.4-5,11.6
		c10.7-5.7,16.5-16.3,28.9-20.2c-4.5,3.9-10.7,6.1-13.8,11.5c2.2,1.5,4.3-2.2,7.3-2.2c-1.6,4.8-9.3,7-6.6,13.8
		c6.7-0.8,9.3-5.7,13.8-8.7c2,2.5-3.8,3.4-3.6,6.6c6.5,0.4,12.3-6,20.2-6.6c-5.3,4-11.4,7-16.6,10.9c-0.3,1.9,2.7,0.6,2.9,2.2
		C209.4,353.6,206.6,355.3,205.8,359z"/>
	<path class="st3" d="M362.2,408.1v-49.2c0.4,2.4,1,4.7,1.8,6.7c-0.4-5.5-0.1-11.5-1.8-15.5v-39.9c5,10.2,9.6,20.8,14,31.5
		c0.2,1.9-0.9,2.3-2.9,2.2c4.9,16.1,2.4,37.2-0.7,53.4c-2.6-0.1-1.5-3.8-2.9-5c-0.9,3.6-1.2,8-3.6,10.1c-2.3,0.6-1.5-1.9-2.9-2.2
		C362.8,402.7,362.5,405.5,362.2,408.1L362.2,408.1z M362.2,286.8v-5.9c1.5,0.6,3,1.1,4.7,1.6C365.9,284.6,364.2,285.9,362.2,286.8
		L362.2,286.8z M362.2,227.5v-4.8c13.5,0.1,24.3,4.8,27.8,19.3c8.6-7.1,17.1-22.4,18.8-36.8c3.2-28-22.5-36.3-46.6-33.1v-3.9
		c1.3,0,2.7,0,4,0.1h3.6c21.7,2.3,41,7.2,42.6,29.6v2.2c-3.2,21.6-10.7,38.9-25.3,49.2C388.4,234,374.9,226.4,362.2,227.5z
		 M362.2,168.2v3.9c-7.5,1-14.8,3-21,6v-6.4C348,169.9,355.1,168.3,362.2,168.2L362.2,168.2z M362.2,222.7v4.8
		c-4.5,0.4-9,1.8-12.7,4.5c1.2,2.4,0.8,4.9-1.4,5.8c1.9,1.5,4.8,1.9,5.8,4.3c0.2,1.9-0.9,2.4-2.9,2.2c0.4,3,3.7,3.1,2.9,7.3h-4.3
		c1.2,3.9,5.3,4.8,8,7.2c-0.2,2.4-3.2,2.1-3.7,4.3c0.6,2.5,1.3,5,3,6.5c-1.4,1.4-4.4,0.9-5.8,2.2c2.3,4.5,6.3,7.3,11.2,9.2v5.9
		c-3.2,1.4-7.5,1.9-11.2,2.9c4,6.6,7.8,13.4,11.2,20.5v39.9c-0.4-1-1.1-1.9-1.8-2.6c0.7,3.7,1.1,7.6,1.8,11.4v49.2
		c-0.7,5-1.7,9.6-4.7,12.4c-1.6,0.1-2.3-0.6-2.2-2.2c-4.3,7.3-8,15.8-11.5,23.8c-0.8,1.8-1.4,4.4-2.5,6.3v-37.9
		c0.2-2.9,0.1-5.9,0-8.9v-22.8c9.2,5.9,4.4,25.7,6.1,37.4c1.2-2.7,2.8-4.9,4.3-7.2c0.6-2.4-2.4-1-2.2-3c4.5-15.6,1.5-38.4-5-49.8
		c-0.9,0.6-2,1.2-3.2,1.9v-14.7c1.8-1.1,3.8-1.9,6.1-2.4c-0.4-2.3-3.3-2-5-3c-0.4,0.2-0.7,0.4-1.1,0.6v-9.8c0.9,0.6,1.9,1.1,3.2,1.3
		c-0.6-2-1.4-3.7-3.2-4.6v-41.8c5.7,1.4,11.7,1.7,18.4,0.2c-6.3-2.9-12.5-7.1-18.4-10.9v-47.8C348.4,223.7,355.6,222.7,362.2,222.7
		L362.2,222.7z M341.2,362.9c0.4-0.6,0.7-1.2,1.1-1.7c-0.2-0.3-0.6-0.4-1.1-0.4V362.9z M341.2,171.7v6.4c-2.2,1-4.2,2.2-6.1,3.4
		v-8.1C337.1,172.8,339.1,172.2,341.2,171.7L341.2,171.7z M341.2,225.2V273c-2.1-1.4-4.2-2.7-6.1-3.8v-7.7c0.1,0.3,0.4,0.6,0.7,0.8
		c0.4-6.3,1.3-12.1,2.2-18.1c-1.2,0.1-2.2-0.1-2.9-0.4v-17.2C337.1,226.1,339.1,225.6,341.2,225.2L341.2,225.2z M341.2,283.7v41.8
		c-0.9-0.4-1.9-0.6-3.2-0.4c0.8,1.5,1.8,2.9,3.2,3.7v9.8c-2.2,1.3-4.3,2.9-6.1,4.7v-11l0,0l0,0v-18.8c1.6-0.1,3.3-0.3,5-0.7
		c-1.7-0.6-3.5-1.3-5-2.1v-4.8c0.6,0.2,1.4,0.4,2.2,0.4c-0.4-6.6,0.8-14.8-0.7-20.2c-0.7,0.1-1.2-0.1-1.4-0.3v-4
		C337,282.6,339.1,283.2,341.2,283.7L341.2,283.7z M341.2,343.4v14.7c-2.4,1.4-4.9,3-4.7,4.5c0.6-0.9,3.1-1.9,4.7-1.9v2.2
		c-1.9,2.8-4,5.3-6.1,7.9v-21.9C336.7,346.8,338.8,344.8,341.2,343.4L341.2,343.4z M341.2,378.8v22.8c-0.4-8.1-1.6-16.3-0.4-23
		C341,378.6,341.1,378.7,341.2,378.8L341.2,378.8z M341.2,410.4v37.9c-0.9,1.6-2.1,2.7-4,3v-7.2c-0.7,1-1.4,2.1-2.2,3.2v-38.7
		c0.2-0.9,0.4-1.9,0.7-2.8c2.2,4.1,1.9,10.6,2.2,16.6C340,418.9,340.8,414.8,341.2,410.4L341.2,410.4z M335.1,386.5v-4.2
		c1.5-0.4,3-0.1,4.3,1.4C337.9,384.5,336.4,385.4,335.1,386.5L335.1,386.5z M335.1,221.8L335.1,221.8L335.1,221.8z M335.1,173.3v8.1
		c-1.7,1.2-3.3,2.4-4.8,3.6V179c0.4-0.4,0.7-0.8,1.1-1.2c-0.4,0.3-0.7,0.5-1.1,0.6v-3.8C331.9,174.2,333.5,173.8,335.1,173.3
		L335.1,173.3z M335.1,226.5v17.2c-1.9-0.9-2.7-3-4.8-3.7v-12.3C331.9,227.3,333.5,227,335.1,226.5L335.1,226.5z M335.1,261.5v7.7
		c-1.7-0.9-3.2-1.7-4.8-2.4v2c0.4,0,0.8,0,1.1,0c0.1-1-0.4-1.7-1.1-2v-19.9c0.1,0.4,0.3,0.7,0.4,1c0.7,2,1.4-1.9,3.7-0.7
		C335,251.5,333.1,258.4,335.1,261.5L335.1,261.5z M335.1,281.8v4c-0.6-0.4-1-0.8-2.2-0.4c-0.4,5.1,3.7,12.2,0,15.9
		c-1-0.1-1.8-0.5-2.6-0.9v-20.5C331.9,280.5,333.4,281.2,335.1,281.8L335.1,281.8z M335.1,305.9v4.8c-1.7-0.7-3.2-1.5-4.8-2.4v-4.6
		C331.7,304.7,333.2,305.4,335.1,305.9L335.1,305.9z M335.1,313.5v18.8c-1.7,0.6-3.2,1.4-4.8,2.2V349c1.4-2.1,3-4,4.8-5.7v-11
		c-1.7,0.4-3.2,0.8-4.8,1.3v-20.5C331.9,313.4,333.4,313.5,335.1,313.5L335.1,313.5z M335.1,348.9c-1.9,2.4-3.3,5-4.8,7.7v20.1
		c1.5-2,3.1-4,4.8-5.9V348.9L335.1,348.9z M335.1,382.2v4.2c-1.7,1.2-3.2,2.5-4.8,4v-5.8C332,383.6,333.6,382.6,335.1,382.2
		L335.1,382.2z M335.1,408.8v38.7c-1.6,2.4-3.2,5-4.8,7.6v-16.1C333.6,430.5,333,418.4,335.1,408.8L335.1,408.8z M330.3,223.5v-1.7
		c1.7-0.1,3.3-0.1,4.8,0C333.6,222.4,332,223,330.3,223.5z M330.3,174.6v3.8c-1,0.5-2.1,0.8-3.2,0.9v-4
		C328.2,175.1,329.2,174.8,330.3,174.6L330.3,174.6z M330.3,179c-1.2,1.3-2.2,2.7-3.2,4v5.5c0.9-1.2,2-2.3,3.2-3.5V179L330.3,179z
		 M330.3,221.8v1.7c-1,0.3-2.1,0.6-3.2,0.9v-2.4C328.2,221.9,329.3,221.9,330.3,221.8L330.3,221.8z M330.3,227.8v12.3
		c-0.3-0.1-0.6-0.1-1.1-0.2c0.3,2.4,0.5,4.8,1.1,6.9v19.9c-0.1,0-0.2-0.1-0.4-0.1c0.1,0.1,0.3,0.1,0.4,0.1v2c-0.9-0.1-2-0.4-3.2-0.7
		v-9.1c1.2-4,1.3-9.9,0-14.3v-16C328.2,228.3,329.2,228,330.3,227.8L330.3,227.8z M330.3,279.9v20.5c-1-0.4-1.9-0.9-3.2-1.2v-11.6
		c0.2,0.2,0.4,0.4,0.6,0.6c0.3-1.7-0.1-2.6-0.6-3.5v-6.3C328.2,278.9,329.2,279.4,330.3,279.9L330.3,279.9z M330.3,303.7
		c-1.2-0.9-2.3-2.1-3.2-3.4v6.1c1,0.6,2.1,1.3,3.2,1.9V303.7L330.3,303.7z M330.3,313.1v20.5c-1.1,0.3-2.2,0.6-3.2,1.1v-22.4
		C328.2,312.7,329.2,312.9,330.3,313.1L330.3,313.1z M330.3,334.5c-1.1,0.6-2.2,1.4-3.2,2.1v18.1c0.9-2,2-4,3.2-5.8V334.5
		L330.3,334.5z M330.3,356.6v20.1c-1.1,1.5-2.2,3.1-3.2,4.8v-18.2C328.2,361.1,329.2,358.9,330.3,356.6L330.3,356.6z M330.3,384.7
		v5.8c-1.1,1.1-2.2,2.2-3.2,3.4v-7.1C328.2,386.2,329.3,385.4,330.3,384.7L330.3,384.7z M330.3,438.9v16.1c-1,1.8-2.1,3.5-3.2,5.3
		v-16.1C328.5,442.8,329.5,441,330.3,438.9z M327.2,175.4v4c-3.5,0.4-7.3-0.7-10.9-0.1c-0.6,0.1-1.2,0.3-1.8,0.4v-2.5
		C318.4,177.1,322.7,176.4,327.2,175.4L327.2,175.4z M327.2,183v5.5l-0.1,0.1c-5.1,7.8-9.2,18.7-12.6,28.4v-8.1
		C318.1,200.2,321.3,191.1,327.2,183L327.2,183z M327.2,222.1v2.4c-4.2,1.3-8.6,2.4-12.7,3.9v-3.5
		C318.2,223.6,322.8,222.6,327.2,222.1L327.2,222.1z M327.2,228.6v16c-0.9-3-2.3-5.4-4.4-6.1c-2.8,0.1-5.7,0.2-8.3,0.6v-7
		C318.4,230.9,322.8,229.7,327.2,228.6L327.2,228.6z M327.2,258.9c-0.2,0.7-0.5,1.4-0.8,1.9c-1-4.7,2.2-21.8-8.6-21
		c-1.1,0.4-1.8,1.2-2.2,2.2c3.2,5.4,7.5,10.4,5.8,18.8c-2.4,1.4-4.2,0.9-6.8,0.7v2.6c4.4,0.6,8.9,2.7,12.7,3.9V258.9L327.2,258.9z
		 M327.2,278.4v6.3c-0.5-0.9-1.1-1.9-0.8-3.7c-1.4,0.1-1.6-0.8-2.9-0.7c0.4,3.3,1.9,5.5,3.7,7.3v11.6c-0.3,0-0.5-0.1-0.8-0.1
		c0.3,0.4,0.5,0.9,0.8,1.2v6.1c-4.5-2.8-8.7-6-12.7-9.4v-24.8c0.3-0.1,0.6,0,1.1,0.1C319.2,274.2,323.1,276.4,327.2,278.4
		L327.2,278.4z M327.2,312.3c-4.6-1.4-8.9-4-12.7-6.9v11.4c1.5,0.6,2.7,1.6,3.2,3.2c-1.4-0.2-2.4-0.1-3.2,0.1v24.8
		c2.7-5,7.2-8.1,12.7-10.2V312.3L327.2,312.3z M327.2,336.6v18.1c-2.4,5.2-3.9,10.9-4.4,16.6c1.7-2.4,3-5.2,4.4-8v18.2
		c-1.2,1.9-2.2,4-3,6.4c0.9-0.2,1.9-0.6,3-1.2v7.1c-4.2,5.2-7.3,11.4-8.7,19.4c3.3-0.6,1.7-6,5-6.6c4.5,10.1,0.6,27.8,2.2,39
		c0.6-0.4,1.1-0.9,1.5-1.4v16.1c-3.8,6-7.8,11.8-12.7,15.4V348.1C318.7,344.3,322.5,340,327.2,336.6L327.2,336.6z M314.5,259.6v-14
		c0.1,0,0.2,0.1,0.4,0.1c3.2,1.6,2.4,7.2,5,9.4C318.7,257.1,316.6,258.4,314.5,259.6z M310,450.5c2.4-4.2,4.7-9.6,2-13.5
		c-0.1,0.9-0.2,1.7-1.4,1.4c-0.3-0.6-0.4-1.4-0.6-2V301.9c1.4,1.2,3,2.4,4.5,3.5v11.4c-0.4-0.1-0.7-0.3-1.1-0.4
		c-0.4,1.5-1.5,2.4-2.2,3.7c1.2,0.6,2.1,0.3,3.2,0.1v24.8c-0.8,1.4-1.4,3-1.8,4.8c0.6-0.5,1.2-1.1,1.8-1.6v127.7
		c-0.9,0.6-1.7,1.2-2.5,1.7c-1.4-1.7,0.5-4.9,0.7-7.3c-1.1,0.6-2,1.1-2.7,1.6V450.5L310,450.5z M314.5,177.1v2.5
		c-1.7,0.4-3.2,1.2-4.5,2v-5c1.1,0.2,2.2,0.4,3.5,0.4C313.8,177.1,314.1,177.1,314.5,177.1L314.5,177.1z M314.5,208.8v8.1
		c-1.2,3.2-2.2,6.4-3.2,9.2c0.9-0.5,2-0.9,3.2-1.3v3.5c-1.6,0.6-3.1,1.2-4.5,1.9v-11.4C311.6,215.6,313,212.3,314.5,208.8
		L314.5,208.8z M314.5,232v7c-1.7,0.2-3.2,0.6-4.5,1.3v-7.1C311.4,232.9,312.9,232.4,314.5,232L314.5,232z M314.5,245.6v14
		c-1.2,0.6-2.2,1.2-3.2,1.9c1.2-0.1,2.3-0.1,3.2,0v2.6c-1.6-0.1-3.1-0.2-4.5,0.1v-20.8c0.1,0,0.4,0,0.6,0.1c1.2,1.7,1.6,4.2,2.9,5.8
		C313.7,248,312.5,245.2,314.5,245.6L314.5,245.6z M314.5,272.3V297c-1.6-1.3-3.1-2.7-4.5-4v-21.1c0.4,0.6,0.9,1.2,1.3,1.9
		C313.1,274.1,313,272.3,314.5,272.3z M307.6,454.3c0.6-1,1.5-2.3,2.4-3.7v21.2c-1.8,1-3,1.8-4.2,2.4v-86.4c0.3,0.6,0.6,1.2,1.1,1.7
		c-0.2-3,0.4-6.8-1.1-8.6v-82.4c1.4,1.1,2.7,2.2,4.2,3.4v134.6c-0.7-2.8-1.2-5.8-3.1-7.4C306.9,437.2,306.1,446.1,307.6,454.3
		L307.6,454.3z M310,176.6v5c-1.5,0.9-2.9,1.9-4.2,2.9v-9.1C307.1,175.8,308.5,176.2,310,176.6L310,176.6z M310,218.8v11.4
		c-1.5,0.7-2.9,1.6-4.2,2.4v-7C307.4,223.4,308.7,221.1,310,218.8L310,218.8z M310,233.2v7.1c-1.9,0.9-3.3,2.3-3.8,4.6
		c2.1,0.4,1.7-1.8,3.8-1.5v20.8c-1.1,0.1-2.1,0.4-3.1,0.9c-0.3,3.6,1.6,5,3.1,6.8V293c-1.4-1.2-2.8-2.4-4.2-3.7v-55
		C307.1,234,308.5,233.6,310,233.2z M305.8,175.4v9.1c-2.7,2.2-5,4.2-7.5,4.8c0.6-2.4,7.1-6,4.2-7.2c-4,0.4-7.1,5-11.4,2.9
		c0.9-5.4,7.6-4.8,10-8.7c-9.8-2.6-13.8,5.5-22.3,6.6c2.4-3,6.6-4,7.9-8c-5.2,1.5-8.9,4.7-14.4,5.8c-0.8-1.9,3.4-2.8,0-3
		c-5.6-0.1-9.9,3-14.1,5.7v-4.2c11.9-4.5,24.8-7.3,40.1-5.8C300.7,173.6,303.2,174.6,305.8,175.4L305.8,175.4z M305.8,225.7v7
		c-0.9,0.6-1.7,1.4-2.5,2.2c0.9-0.2,1.7-0.4,2.5-0.6v55l-1.1-1c0.1,3.8,1.2,6,0,9.4c0.4,0.2,0.7,0.5,1.1,0.8v82.4
		c-0.3-0.4-0.6-0.6-1.1-0.9c0.1,2.9,0.2,5.7,1.1,7.8v86.4c-1.7,0.9-3.7,1.6-8.3,2.5c0-4-2.9,1.4-5.9-1.1c-3.5,1.7-2.9,2.1-7.8,2.2
		c-2.6-15-8.9-13.7-16.6-23.5c0.7,4.9,2.5,11.5,0.7,16.6c-3.2-5.2-6.3-10.5-9.8-15.3v-23.2c1.8,6,5.3,10.9,10.5,13.2
		c2.5,0.4,1.7-2.5,4.3-2.2c3.1,2.2,3.2,7.4,5.8,10.1c0.9-4.8-2.2-9.3,0-13c4.9,0.9,4.4,7.2,7.9,9.4c-1.7-10.5-4.7-19.9-7.9-28.9
		c0.5-4.5-1.4-11.4,2.2-13c1,0.5,0.1,2.8,1.4,3c1.2-3.6,0.8-8.9,4.3-10.2c0.9,10.2-2.4,24.5,3.7,29.5c0.6-4.9,0.3-10.7,4.3-12.2
		c2.4,5.5,1.7,14.1,3.6,20.2c3.4-5.5-1.1-18.9,5-21.6c0.2-15.2-8.4-21.4-15-29.6c0.5-1.2,3.5,0.1,2.9-2.2c-5-1.7-10.4-2.7-15.2-1.4
		c-5.1,1.4-6.9,6.6-10.8,8c2.4-10.9,10.4-16.1,20.2-19.5c0.4-5.7-10.3-8.4-11.5-2.2c1,0.4,3.7-0.9,3.6,0.7
		c-5.7,4.9-12.7,7.3-19.2,10.5v-45.9c6.3,3.4,12.8,6.6,19.2,10.1c-2.3-17.3-2.3-35.2,8.6-42.6c-1.1-0.1-2.4,0.1-2.2-1.4
		c2.2-5.8,9-7,11.6-12.3c-5-10.1-14.5-15.8-18.1-27.4c5.3,2.9,6.7,9.6,11.6,13c1-2.5-2.1-4.7,0-5.8c6.5,6,6.3,22.6,14.3,24.6
		c-5.3-11.7-5.3-27-12.2-36.8c-5.8-8.1-14.5-8.9-26.7-10.9c14.1-5.4,29.2-5.7,38.2-15.8C303.8,228.4,304.8,227,305.8,225.7
		L305.8,225.7z M258.2,411.1c1.7-5.9,4.8-10.9,9.1-13.8c-3.7,1.8-6.5,4.3-9.1,7.1V411.1L258.2,411.1z M258.2,396
		c1.9-3.1,3.5-6.2,4.7-9.4c-1.6,0.8-3.2,1.8-4.7,2.9V396z M258.2,179.2v4.2c-1.9,1.3-4,2.4-6.1,3c-1.1,0.3-3.5-0.9-4.3-0.7
		c-6.2,0.8-9.9,6.8-15.2,9.4c0.3,6.4-2.4,12.3,2.2,15.2c-6.3,6.7-13.3,12.7-16.6,22.4c2.2,0.1,5-3,5.8,0c-6.9,9.6-7.6,25.6-10.9,39
		c6.7,21.5,9.4,40.5,24.6,51.3c6.5,4.5,13.5,8.6,20.6,12.3v45.9c-4.4,2.1-8.6,4.5-11.9,8.3c-5.8,6.3-7.6,14.2-13.8,21
		c-7.1-25,14-32.9,23.1-46.2c-12.1,3-17.3,13-26,19.4c2.1-13.5,11.4-19.9,21.7-25.3c-7.8-1.1-11.4,5.9-16.6,5.1
		c-1.2-3.7,6.4-5.3,2.9-6.6c-10.7,3-19.1,12.2-28.9,13.8c2.8-5.8,9.7-9.1,9.4-15.9c4.8-1.7,8.7-4.3,11.6-7.9
		c-9.6,2.4-15.4,8.6-23.8,12.2c0.8-3.7,3.6-5.5,3.6-10.1c-0.2-1.5-3.2-0.2-2.9-2.2c5.3-3.9,11.4-6.9,16.6-10.9
		c-7.9,0.6-13.8,7-20.2,6.6c-0.2-3.2,5.6-4,3.6-6.6c-4.5,3-7.1,7.9-13.8,8.7v-5.3c1.5-3.2,5.5-5.2,6.6-8.5c-2.7,0-4.6,3-6.6,2.5
		v-1.5c3.2-4.6,8.9-6.8,13-10.4c-5.3,1.7-9.3,4.5-13,7.6v-11.5c6.7-3.4,13.7-6.4,20.2-9.9c-1.2-5.5-11.2-2.2-15.8-4.3
		c0.9-2.2,6.1-0.1,5.8-3.6c-3.5,0.3-6.9,0.8-10.2,1.5v-13c1.5-0.4,3-0.9,4.4-1.5c-1.4-0.6-2.9-0.8-4.4-0.8v-9.4
		c4.1-0.1,6.8,1.1,9.4,2.3c-0.9-5.3-4.8-7.6-9.4-8.5V243c4.5,0.6,8.8,1.7,10.9,0.4c-1.8-3.7-6.3-4.6-10.9-4.1v-36
		c0.5-0.1,1-0.2,1.4-0.3c2.7-0.6,6.5-0.2,3-0.8c-1.4-0.1-3-0.2-4.4-0.2v-5.5c1.2-0.3,2.4-0.5,3.7-0.7c-1.2-0.6-2.4-1-3.7-1.2v-8.3
		c9.4-1.2,19.7,0.6,26.1,5.2c-0.3-4-3.4-5.3-5.1-7.9c6.7-3.7,13.4,4.2,15.9,9.4C239,188,248.2,183,258.2,179.2L258.2,179.2z
		 M258.2,389.4c-9.1,6.8-16.6,18.9-21.3,31c-1.6-0.6-1.8-2.5-2.9-3.6c-2,0.1-0.9,3.5-3.6,2.9c-9.1-6.7-4.8-24.3-2.9-35.4
		c-6.1,1.6-6.9,8.5-9.4,13.8c-2.3,0.6-0.9-2.4-2.9-2.2c-2.4,3.3-2.3,9.2-2.9,14.5c-2.8-2.7-3.3-7.8-4.3-12.3c-3.9,0.4-1.4,7.3-5,7.9
		v-7.2c-3.2-0.5-3.7,1.6-4.3,3.6c-4-15.5,22.1-19.2,28.9-30.3c-13.1,3.5-23.8,9.4-34.7,15.1v24.9c2.9,3.7,6.8,6,10.2,8.4
		c7.3,5.3,12.3,12.7,19.5,18c0.3-1.9-2.6-4.1-0.7-5c6.3,9.8,14.4,17.8,26.7,21.7c-0.3-5.3-5.9-9-5-13c6.1,3.2,10.8,8.1,14.8,13.5
		v-23.2c-1.9-6.6-1.9-14.5,0-21.3v-6.6c-3.5,3.9-6.3,8.4-9.7,12.4c0.9-7.5,5.6-14,9.7-20.9V389.4L258.2,389.4z M192.8,417.3v-2.7
		c0.5,0.8,0.9,1.6,0.7,3C193.3,417.5,193.1,417.4,192.8,417.3L192.8,417.3z M192.8,380.9c2.2-1.8,4.2-3.7,5.1-6.7
		c-1.9-0.6-3.4,0.6-5.1,2V380.9L192.8,380.9z M192.8,370.3c3.7-4,8.1-7.1,11.6-11.2c-4.2,0.3-8.1,1.4-11.6,3.2V370.3L192.8,370.3z
		 M192.8,354.4c3.7-1.3,8-1.9,13-1.9c-4.2-2.1-8.6-3-13-3V354.4L192.8,354.4z M192.8,275.3c0.7-0.3,1.4-0.6,1.4-1.4
		c-0.4,0-0.9,0-1.4,0V275.3z M192.8,186.3v8.3c-3.5-0.6-7.4-0.1-11.2,0.5v-5.7C185,187.8,188.8,186.8,192.8,186.3L192.8,186.3z
		 M192.8,196.5v5.5c-4,0.1-8,1.2-11.2,2.2v-2.1c0.6-0.1,1.2-0.4,1.8-0.6c-0.2-0.8-1.2-0.9-1.8-1.3v-1.6
		C185.7,198.3,189.2,197.3,192.8,196.5L192.8,196.5z M192.8,203.4c-3,0.6-6.8,1.2-11.2,1.9v6.3c0.6,0.1,1.2,0.1,1.8,0.2
		c-0.6,0.4-1.2,0.6-1.8,0.9v5.6c0.4,0.1,0.7,0.4,1.1,0.6l-1.1,0.4v11.2c0.4-0.1,0.7-0.1,1.1-0.1c-0.4,0.2-0.7,0.4-1.1,0.6v20.3
		c3.2-0.7,6.4-0.6,7.6,1.4c-2.7-0.1-5.2,0.1-7.6,0.4v12.5c1.2-0.3,2.6-0.4,4-0.6c-0.6,1.7-2.2,2.3-4,2.8v2.6
		c3.7-0.5,7.6-0.7,11.2-0.1V243c-3.7-0.6-7.6-0.9-10.8,0.4c2.2-1.9,6.6-3.6,10.8-4.1V203.4L192.8,203.4z M192.8,273.8v1.4
		c-0.6,0.2-1.4,0.5-1.4,1.4c0.5-0.1,1-0.1,1.4-0.1v9.4c-3.7-0.1-7.6,1.2-11.2,2.1v-12.4C185.3,274.8,189.1,274.1,192.8,273.8
		L192.8,273.8z M192.8,288.3v13c-3.9,0.8-7.6,1.9-11.2,3.2v-13.4C185.4,290.3,189.2,289.4,192.8,288.3L192.8,288.3z M192.8,317.6
		v11.5c-3.7,3.2-7.2,6.7-11.2,9.6v-7.6c0.1-0.4,0.2-0.6,0.4-1c-0.1,0-0.2,0-0.4,0.1V324C185.2,321.7,188.9,319.6,192.8,317.6
		L192.8,317.6z M192.8,331.9c-0.2,0.4-0.5,0.8-0.7,1.2c0.3,0.1,0.5,0.3,0.7,0.4V331.9L192.8,331.9z M192.8,339.4v5.3l0,0
		C191.9,342.5,192.2,340.8,192.8,339.4L192.8,339.4z M192.8,349.6v4.8c-4.4,1.4-8,3.7-11.2,6.4v-9.4
		C185.2,350.2,189.1,349.6,192.8,349.6L192.8,349.6z M192.8,362.2v8.1c-2.3,2.6-4.4,5.5-5.8,9c2.3-0.1,4.1-1.7,5.8-3v4.7
		c-2.7,2.3-5.4,4.5-5.8,9.2c1.9-1,3.9-1.9,5.8-3v24.9c-0.2-0.4-0.4-0.7-0.7-1c-0.4,1.7,0.2,2.7,0.7,3.5v2.7
		c-5.3-1.7-8.1-6.1-11.2-10.1v-37.4C185.1,366.9,188.8,364.1,192.8,362.2L192.8,362.2z M181.6,317.3v-4.9c2.4-1.2,5-2.2,7.6-3.2
		C187.1,312.2,184.5,314.8,181.6,317.3z M181.6,189.4v5.7c-3,0.6-5.8,1.2-8.3,1.4C175.1,193.5,178,191.1,181.6,189.4L181.6,189.4z
		 M181.6,198.7v1.6c-0.4-0.2-0.6-0.6-0.4-1.6H181.6L181.6,198.7z M181.6,202.1v2.1c-1.9,0.6-3.5,1.2-4.7,1.7
		c1.6-0.3,3.2-0.5,4.7-0.7v6.3c-3.3-0.1-6.4,0.4-9.4,1.3v-7.9C175.3,203.9,178.6,203.1,181.6,202.1L181.6,202.1z M181.6,212.6
		c-3.6,1.5-7.8,2.4-8.3,7c2.2,1.9,5.4-2.4,8.3-1.4V212.6L181.6,212.6z M181.6,219.3v11.2c-3.3,0.4-6.4,1.7-9.4,3.4v-10.6
		C175.2,221.9,178.4,220.6,181.6,219.3L181.6,219.3z M181.6,231.2c-3.2,2.1-6.3,4.2-9.4,6.5V269c2.8-1.5,5.8-2.7,9.4-3.3v-12.5
		c-2.6,0.4-5,0.7-7.6,1.1c1.4-1,4.5-2.3,7.6-2.9V231.2L181.6,231.2z M181.6,267.9v2.6c-2.2,0.4-4.4,0.7-6.1,1.2
		C176.1,269,179.1,268.6,181.6,267.9L181.6,267.9z M181.6,275.7v12.4c-3.2,0.9-6.2,1.4-8.3,0.1c0.9-1.7,3.8-1.4,5-2.9
		c-2.2,0.1-4.2,0.4-6.2,0.9v-7.6C175.3,277.5,178.5,276.5,181.6,275.7L181.6,275.7z M181.6,291.2v13.4c-3.3,1.2-6.5,2.7-9.4,4.3
		v-14.8C175.2,292.9,178.4,292.1,181.6,291.2L181.6,291.2z M181.6,312.4v4.9c-3,2.7-6.2,5.1-9.4,7.6v-7.6
		C175.2,315.6,178.4,314,181.6,312.4L181.6,312.4z M181.6,324c-3.5,2.2-6.6,4.8-9.4,7.7v4c2.9-1.7,5.6-5,9.4-5.5V324L181.6,324z
		 M181.6,331.2v7.6c-1.5,1.1-3,2.1-4.7,3C177.3,337,180.1,334.8,181.6,331.2L181.6,331.2z M181.6,351.4v9.4
		c-1.9,1.7-3.7,3.5-5.4,5.5c1.7-0.2,3.1-1.6,3.6,0.7c-2.2,2.6-5.4,4.3-7.6,7v-18.5C175.2,353.8,178.4,352.5,181.6,351.4L181.6,351.4
		z M181.6,369.8c-3.3,2.8-6.3,5.8-9.4,8.6v30.7c1.3,1.9,2.6,3.7,4,5.5c2.4-3.2-1.9-9,0.7-12.3c1.8,1.4,3.2,3.1,4.7,4.9V369.8z
		 M172.2,204.9v7.9c-6.5,1.9-12.5,5.5-19.1,6.8C155.8,211.1,163.6,207.5,172.2,204.9L172.2,204.9z M172.2,223.4V234
		c-5.2,3-10.2,7.2-15.5,9.5C158.1,233,164.4,227.4,172.2,223.4L172.2,223.4z M172.2,237.6c-11.2,8.3-21.4,17.4-32.8,25.3
		c4.4,2.7,10.7-2.1,13.8-0.7c-5.8,6.7-14.6,14.3-16.6,22.4c3.6-2.2,7.2-4.3,11.5-5.8c-7.1,12.1-15.2,23.3-20.9,36.8
		c2.6,0.2,4-4.6,5.8-2.9c-3,9.8-2.1,23.5-2.2,36.1c4.3,0.5,4.5-7,7.2-5.8c-2.2,6.8-2.2,19.9,0,26.7c3.2,1,1.9-2.4,4.3-2.2
		c3,14.8,8.4,27.3,17.4,36.1c1-4.5,1.9-9.1,3.6-13c2.4,6.6,5.4,12.8,9,18.3v-30.7c-0.8,0.8-1.7,1.5-2.5,2.2c0.1-2.9,1.2-5,2.5-6.7
		v-18.5c-6.6,3.7-12.3,8.6-16.2,13c-3.9-8.1,1.2-18.8,4.3-24.6c-3.5,0.9-4.6,4-6.5,6.5c1.7-11.4,9.8-18.6,18.4-25.4v-7.6
		c-9.4,5.5-17.6,12.2-24.9,19.9c4.5-11.8,13.1-21.7,24.9-28.4v-14.8c-3.9,1.5-7.3,3.5-9.7,6.5h6.5c-0.9,4.5-4,9.5-8.6,7.9
		c0.4-2.3,3.7-1.6,3.6-4.3c-7.8-1.8-12.8,5.5-18.1,8.6c1.4-13.6,11.6-23.5,26.4-26.6v-7.6c-6.3,2.4-12.5,5.2-18.4,7.4
		c5.6-6.2,10.7-13,18.4-17.1V237.6L172.2,237.6z M172.2,331.7v4c-1.2,0.8-2.5,1.2-4,0.9C169.5,334.9,170.8,333.2,172.2,331.7z"/>
	<path class="st2" d="M344.4,356.1c6.6,11.4,9.5,34.2,5,49.8c-0.2,1.9,2.8,0.6,2.2,3c-1.5,2.3-3.2,4.5-4.3,7.2
		c-1.7-11.8,3.2-32-6.5-37.6c-2.4,13,4.2,31.2-2.9,44c-0.2-6,0-12.5-2.2-16.6c-3.9,12.7-0.8,32.4-10.2,39.7
		c-1.5-11.2,2.3-28.9-2.2-39c-3.3,0.6-1.7,6-5,6.6c2.5-14.3,10.4-23.3,21-29.7c-4.2-5-10.2,3.5-15.2,4.4
		c3.8-11.2,12.4-17.5,18.1-26.8c-0.8-1.2-5,0.3-5.8,1.4C336.2,360.4,341.8,357.9,344.4,356.1z"/>
	<path d="M227,541.5c-3,1.4-6.3,2.2-10.3,2.5c-3.8,0.4-7.3-0.1-10.2-1.3c-3-1.2-5.3-3.2-7-5.8c-1.7-2.6-2.7-5.6-3-9.2
		c-0.4-3.8,0.2-7.3,1.6-10.4c1.4-3.2,3.5-5.7,6.4-7.6c2.9-1.9,6.3-3,10.2-3.3c3.2-0.3,6.3-0.1,9.2,0.3l0.9,10.1
		c-1.1-0.5-2.4-0.9-3.7-1.1c-1.4-0.2-2.9-0.2-4.3-0.1c-3,0.3-5.3,1.3-6.8,3.2c-1.6,1.9-2.2,4.2-2,7.1c0.3,3,1.4,5.1,3.2,6.7
		c1.9,1.5,4.2,2.2,7.1,1.9c2.7-0.2,5.3-1.2,7.8-2.7L227,541.5z"/>
	<path d="M266,521.3c0.1,3.7-0.4,7-1.9,9.9c-1.4,3-3.5,5.3-6.3,7.1c-2.7,1.7-5.8,2.7-9.3,2.9c-0.3,0-0.6,0-0.9,0v-9.4
		c0.1,0,0.4,0,0.6,0c1.2-0.1,2.4-0.5,3.3-1.3c1-0.8,1.7-1.9,2.2-3.3c0.4-1.4,0.6-3,0.6-5c-0.1-3-0.9-5.3-2.1-7
		c-1.2-1.6-2.7-2.4-4.6-2.3v-9.4c3.2-0.1,6.2,0.5,8.8,1.9c2.9,1.4,5.1,3.5,6.8,6.3C264.8,514.5,265.7,517.7,266,521.3z M247.7,541.2
		c-3.1,0.1-6-0.6-8.6-1.8c-2.8-1.4-5.1-3.5-6.8-6.2c-1.7-2.7-2.7-5.8-2.8-9.4c-0.2-3.7,0.4-7.1,1.8-10.1c1.4-3,3.5-5.5,6.3-7.2
		c2.7-1.8,6-2.7,9.6-3c0.2,0,0.4,0,0.6,0v9.4c-0.1,0-0.1,0-0.3,0c-2.2,0.1-3.8,1-5,2.7c-1.1,1.7-1.6,4.1-1.4,7.1
		c0.1,3,0.9,5.2,2.2,6.8c1.2,1.4,2.7,2.2,4.5,2.2V541.2z"/>
	<path d="M297.6,538.5l-13.2-17.4c-1-1.4-1.9-2.6-2.5-3.7h-0.1c0.1,1.7,0.2,3.7,0.3,6l0.2,15.3l-10.1,0.2l-0.6-36.4l10.3-0.2
		l12.7,16.5c0.1,0.2,0.3,0.5,0.5,0.8c0.3,0.3,0.5,0.6,0.7,0.9c0.2,0.3,0.4,0.6,0.6,0.9c0.2,0.3,0.4,0.5,0.4,0.8h0.1
		c-0.1-0.8-0.1-2-0.2-3.9l-0.3-16.3l10.1-0.2l0.6,36.4L297.6,538.5z"/>
	<path d="M348.9,520.5c-0.1,3.7-0.9,6.9-2.4,9.7c-1.7,2.8-3.9,5-6.8,6.4c-2.5,1.3-5.3,2-8.4,2.2v-9c1.3-0.4,2.5-1.1,3.5-2.2
		c1.6-1.8,2.4-4.2,2.4-7.3c0.1-1.7-0.3-3.4-1-4.8c-0.6-1.4-1.7-2.6-3-3.4c-0.6-0.4-1.2-0.6-1.9-0.9v-8.9
		C343.2,503.1,349.1,509.1,348.9,520.5z M331.3,538.8c-0.6,0-1.1,0-1.7,0l-15.4-0.3l0.6-36.4l15,0.3c0.5,0,0.9,0,1.4,0.1v8.9
		c-0.9-0.2-1.8-0.4-2.8-0.4l-2.8-0.1l-0.4,19.2l3.1,0.1c1,0,2-0.1,2.9-0.4V538.8z"/>
	<path d="M389.3,523.3c-0.2,3.7-1.2,6.8-2.9,9.6c-1.7,2.8-4,4.9-7,6.3c-2.6,1.4-5.4,1.9-8.4,1.9v-9.4c1.1,0,2.1-0.3,3-0.9
		c1.1-0.6,1.9-1.7,2.5-3c0.6-1.4,1-3,1.1-4.9c0.1-3-0.3-5.4-1.4-7.2c-1-1.7-2.5-2.7-4.5-2.8c-0.3,0-0.5,0-0.7,0v-9.4
		c0.4,0,0.9,0,1.3,0.1c3.5,0.1,6.6,1.1,9.2,2.8c2.7,1.7,4.7,4,6,6.9C388.9,516.3,389.4,519.7,389.3,523.3z M371,541.2
		c-0.4,0-0.8,0-1.2,0c-3.4-0.2-6.5-1.2-9.2-2.8c-2.7-1.7-4.8-4-6.2-6.8c-1.4-2.9-2-6.1-1.8-9.6c0.2-3.7,1.2-6.9,2.9-9.8s4-5,7-6.6
		c2.5-1.2,5.4-1.9,8.5-1.9v9.4c-1.9,0.1-3.4,0.8-4.5,2.2c-1.3,1.6-2,3.9-2.2,6.9c-0.1,3,0.3,5.3,1.4,7c1.2,1.7,2.7,2.7,4.8,2.7
		c0.1,0,0.3,0,0.4,0V541.2z"/>
	<path d="M412.3,544.9l-1.7-7.8v-13.2c0.7-0.1,1.4-0.4,1.9-0.8c0.9-0.7,1.5-1.7,1.7-3c0.1-1.2-0.1-2.2-0.8-3
		c-0.6-0.7-1.6-1.2-2.9-1.4V508l1.8,0.2c5,0.6,8.7,1.9,10.9,3.9c2.2,1.9,3.1,4.5,2.7,7.8c-0.3,2.5-1.3,4.5-2.9,6
		c-1.6,1.5-3.8,2.5-6.7,2.9v0.1c1.4,0.6,2.6,1.6,3.5,2.7c0.9,1.2,1.6,2.9,2.2,5l2.4,9.6L412.3,544.9z M410.6,537.1l-0.1-0.4
		c-0.4-1.6-0.9-2.9-1.6-3.8c-0.7-1-1.6-1.5-2.6-1.7l-0.4-0.1l-1.5,12.7l-10.9-1.3l4.4-36.1l12.7,1.5v7.7c-0.1-0.1-0.3-0.1-0.4-0.1
		l-2.3-0.3l-1,8.2l2,0.3c0.6,0.1,1.2,0.1,1.7,0V537.1z"/>
</g>
</svg>
