<?xml version="1.0" encoding="utf-8"?>
<!-- Generator: Adobe Illustrator 21.0.2, SVG Export Plug-In . SVG Version: 6.00 Build 0)  -->
<svg version="1.1" id="Camada_1" xmlns="http://www.w3.org/2000/svg" xmlns:xlink="http://www.w3.org/1999/xlink" x="0px" y="0px"
	 viewBox="0 0 595 842" style="enable-background:new 0 0 595 842;" xml:space="preserve">
<style type="text/css">
	.st0{fill-rule:evenodd;clip-rule:evenodd;fill:#303C8C;}
	.st1{fill-rule:evenodd;clip-rule:evenodd;fill:#639239;}
	.st2{fill-rule:evenodd;clip-rule:evenodd;fill:#FFFFFF;}
	.st3{fill-rule:evenodd;clip-rule:evenodd;}
	.st4{fill-rule:evenodd;clip-rule:evenodd;fill:#CA6372;}
	.st5{fill:#FFFFFF;}
	.st6{fill-rule:evenodd;clip-rule:evenodd;fill:#FEEE00;}
	.st7{fill-rule:evenodd;clip-rule:evenodd;fill:#888577;}
	.st8{fill-rule:evenodd;clip-rule:evenodd;fill:#BD0048;}
	.st9{fill-rule:evenodd;clip-rule:evenodd;fill:#807258;}
	.st10{fill-rule:evenodd;clip-rule:evenodd;fill:#915D44;}
</style>
<g>
	<path class="st0" d="M305.4,128.9c-141.6,0-256.3,110.3-256.3,246.3s114.8,246.3,256.3,246.3c141.5,0,256.2-110.3,256.2-246.3
		S446.9,128.9,305.4,128.9z"/>
	<path d="M121.4,552.3c-49.2-47.3-76.3-110.2-76.3-177c0-66.9,27.1-129.8,76.3-177c49.2-47.2,114.5-73.3,184-73.3
		c69.5,0,134.8,26,184,73.3c49.2,47.3,76.3,110.2,76.3,177s-27.1,129.8-76.3,177c-49.2,47.2-114.5,73.3-184,73.3
		C235.9,625.5,170.6,599.5,121.4,552.3z M126.9,203.9c-47.6,45.8-73.8,106.6-73.8,171.3c0,64.7,26.2,125.5,73.8,171.3
		c47.7,45.8,111.1,71,178.5,71c139.1,0,252.2-108.7,252.2-242.3S444.5,132.9,305.4,132.9C238,132.9,174.6,158.1,126.9,203.9z"/>
</g>
<path class="st1" d="M305.4,152.8C177.6,152.8,74,252.5,74,375.2s103.6,222.4,231.4,222.4c127.7,0,231.3-99.6,231.3-222.4
	S433.1,152.8,305.4,152.8z"/>
<path class="st0" d="M305.4,554.5c-102.7,0-186.6-80.6-186.6-179.3s83.8-179.3,186.6-179.3c102.7,0,186.5,80.6,186.5,179.3
	S408.1,554.5,305.4,554.5z"/>
<g>
	<path class="st2" d="M305.4,207.6c-96.3,0-174.5,75.1-174.5,167.6s78.1,167.6,174.5,167.6c96.3,0,174.4-75.1,174.4-167.6
		S401.7,207.6,305.4,207.6z"/>
	<path d="M237.5,529.8c-20.8-8.5-39.5-20.5-55.5-36c-16-15.4-28.6-33.3-37.4-53.3c-9.1-20.7-13.7-42.6-13.7-65.3s4.6-44.6,13.7-65.3
		c8.8-20,21.4-37.9,37.4-53.3c16-15.4,34.7-27.5,55.5-36c21.5-8.8,44.4-13.2,67.9-13.2c23.5,0,46.4,4.4,67.9,13.2
		c20.8,8.5,39.4,20.5,55.5,36s28.6,33.3,37.4,53.3c9.1,20.7,13.7,42.6,13.7,65.3s-4.6,44.6-13.7,65.3c-8.8,20-21.4,37.9-37.4,53.3
		s-34.7,27.5-55.5,36c-21.5,8.8-44.4,13.2-67.9,13.2C281.9,542.9,259,538.5,237.5,529.8z M237.6,220.9
		c-20.8,8.4-39.4,20.5-55.4,35.9c-16,15.4-28.6,33.3-37.4,53.2c-9.1,20.6-13.7,42.6-13.7,65.2s4.6,44.5,13.7,65.2
		c8.8,19.9,21.4,37.9,37.4,53.2c16,15.4,34.7,27.5,55.4,35.9c21.5,8.7,44.3,13.2,67.9,13.2c23.5,0,46.3-4.4,67.8-13.2
		c20.8-8.4,39.4-20.5,55.4-35.9c16-15.4,28.6-33.3,37.4-53.2c9.1-20.6,13.7-42.6,13.7-65.2s-4.6-44.5-13.7-65.2
		c-8.8-19.9-21.4-37.9-37.4-53.2c-16-15.4-34.6-27.5-55.4-35.9c-21.5-8.7-44.3-13.2-67.8-13.2C281.9,207.7,259.1,212.1,237.6,220.9z
		"/>
</g>
<g>
	<path class="st3" d="M270.6,338C268,390.8,39.9,552.1,190,502.5c48.9-16.2,105.8-9.7,160.1-9.7c39.8,0,84.5,16.5,113.5,16.5
		c29.2,0,39.8-118.4,15.6-130c-8.8-3.8-13.6-16.5-29.2-21.3c-38.8-12.6-64.9,1.3-99.9,10.7C330.8,373.8,288.1,339,270.6,338z"/>
	<path d="M132.9,512.8c-9-14.4,12-37.1,56.7-82.8c17.7-18.1,35.9-36.8,50-53.8c18.5-22.3,22.7-33.3,23-38.7l0.4-8.1l8.1,0.5
		c9.2,0.5,21.4,7.2,35.5,14.8c14.1,7.7,33.5,18.2,41.5,16c6.6-1.8,13-3.7,19.1-5.6c26.5-8.2,51.6-15.9,85.3-4.9
		c11.2,3.5,17.6,10.1,22.8,15.5c2.7,2.8,5.1,5.2,7.2,6.1l0.3,0.1c10,4.8,15.9,18.9,17.5,42c1.3,18.4-0.4,40.5-4.6,59
		c-6.6,28.9-17.6,44.2-31.9,44.2c-14.2,0-31.5-3.6-49.8-7.4c-21.2-4.4-43.1-9-63.8-9c-12.2,0-24.6-0.3-36.6-0.6
		c-41.4-1.1-84.3-2.2-121,10c-19.7,6.5-33.6,9.7-43.3,9.7C141,519.8,135.8,517.5,132.9,512.8z M313.9,484.2
		c11.9,0.3,24.3,0.6,36.2,0.6c22.3,0,46.1,5,67.1,9.4c17.4,3.7,33.9,7.1,46.5,7.1c3.5,0,11-8.6,16.3-31.7
		c3.9-17.1,5.5-37.4,4.3-54.4c-1.4-20-6.1-27.5-8.4-28.7c-4.9-2.2-8.6-6-12.1-9.6c-4.5-4.7-8.8-9.1-16.1-11.3l-0.1,0
		c-28.9-9.4-49.6-3-75.7,5c-6.3,1.9-12.8,3.9-19.7,5.8c-14.2,3.8-34.1-7-53.3-17.4c-7.6-4.2-16-8.7-22.3-11.1
		c-8.4,24.7-42.5,59.6-75.6,93.5c-14.8,15.1-28.7,29.4-39,41.4c-10.7,12.5-13.9,18.6-14.8,21.2c3.5,0.4,13.6-0.1,40.2-8.9
		c28.2-9.3,58.9-11.4,89.8-11.4C289.5,483.5,301.8,483.8,313.9,484.2z"/>
</g>
<g>
	<path class="st2" d="M539.6,610.5L445,583.3l-1.5-19.3C343,549.2,251,550.8,167,568.2l-0.4,18.1l-94.2,24.3
		c4.9-15.8,12.7-27.7,22.2-37.3c-12.5-8.7-21.6-16.7-22.2-23.2l48.3-16.5v-25.8c110.3-32.6,245.6-35.9,371.7,0v26.6l47.4,15.6
		c4.2,3.9-14.1,16.1-21.2,24.2C525.5,586.3,537,597.2,539.6,610.5z"/>
	<path d="M441.2,586.4l-1.5-18.9c-96.7-13.9-187.1-12.6-268.8,4l-0.4,17.9L66.3,616.2l2.1-6.8c4.2-13.6,10.7-25.3,19.9-35.5
		c-13.5-9.8-19.5-16.9-20.1-23.4l-0.3-3.1l48.6-16.6v-25.9l2.9-0.8c116.6-34.5,252.9-34.5,373.9,0l2.9,0.8v26.8l45.4,15l0.6,0.6
		c1.3,1.2,1.9,2.7,1.9,4.5c-0.1,4.6-4.9,9.2-13.6,16.7c-2.5,2.2-5.1,4.5-7.2,6.5c1.9,3,4,5.9,6.3,8.9c5.8,8,11.9,16.3,13.8,26
		l1.3,6.4L441.2,586.4z M163,564.9l3.1-0.6c84.4-17.5,177.9-18.9,277.9-4.2l3.2,0.5l1.5,19.7l84.8,24.4c-2.4-5.5-6.3-10.7-10.3-16.2
		c-2.9-3.9-5.8-8-8.3-12.2l-1.4-2.5l1.9-2.2c2.5-2.9,6.3-6.2,9.9-9.4c3.1-2.7,7.8-6.8,9.9-9.4l-47-15.5v-26.5
		c-117.8-33-250-33-363.7,0v25.6l-47.3,16.1c2.4,4.2,8.9,10,19.5,17.4l3.9,2.7l-3.3,3.4c-8.3,8.4-14.5,17.9-18.8,28.7l84.1-21.6
		L163,564.9z"/>
</g>
<g>
	<path class="st3" d="M143.8,582.2c-7.6-1.1-17.1-1.9-26.2-3c-2.3-12.2-0.4-28.5-1-42.3c-16.2,2.9-28.7,9.5-44.3,13.1
		c2.9,8.3,15.5,15.3,22.2,23.2c-7.3,12.6-15.9,23.8-22.2,37.3c22.8-8.1,46.5-15.1,71.5-20.9v3.6c-27.6,6.7-53.7,14.9-79.6,23.3
		c7.6-15,17-28,25.2-42.3c-7.3-9.5-18-15.6-25.2-25.2c17.9-5.2,35.4-10.9,52.3-17.1v-27.1c8.7-2.6,17.9-5,27.2-7.1v4
		c-8,1.9-15.7,3.9-23.2,6.1v67.5c7.5-2.2,15.3-4.2,23.2-6v3.8l-15.1,3.2c4.8,1.4,9.9,2.3,15.1,3.2V582.2z M167,583.3
		c0.2-3.3,0.4-11.2,0-15.1l-23.2,4.9v-3.8c96.5-22.4,227.6-22.2,324.4-0.2v4c-7.3-1.4-14.7-2.7-21.2-4.9c-4.5,1.3-0.9,10.5-2,15.1
		c7.9-1.2,15.4-2.7,23.2-4.1v3.7c-5.1,0.8-10.2,1.5-15.1,2.4c5,1.4,10,2.7,15.1,4.1v3.7c-8.9-2.1-17.9-4.1-27.2-5.8v-20.2
		c-79.8-14.5-191.7-16-269.9,1v19.2c-9.2,1.8-18.3,3.8-27.2,5.9v-3.6c5-1.2,10-2.3,15.1-3.3c-1.4-1.8-7.3-3.1-15.1-4.1v-2.8
		C151.6,580.6,159.7,581.6,167,583.3L167,583.3z M468.1,497.6v3.9c-96.4-22.2-228.2-22.3-324.4,0.1v-4
		C240.8,475.5,371.1,475.4,468.1,497.6z M495.3,504.8v28.2c18.9,4,34.2,11.5,52.4,16.1c-6.7,10.4-18.9,15.3-25.2,26.2
		c9.7,12.8,17.4,27.6,26.2,41.3c-26.6-8.1-52.7-16.7-80.6-23.5v-3.7c24.3,6.5,49.2,12.5,71.5,21.1c-3.9-11.3-14.8-24.2-21.2-36.3
		c4.3-10.2,19.4-14.8,21.2-24.2c-15.6-3.5-27.9-10.4-44.4-13.1v41.3c-8.6,2-17.9,3.4-27.1,4.7v-3.7c4.8-0.8,9.8-1.5,15-1.9
		c-4.5-1.9-9.7-3.1-15-4.2v-4c8.3,1.9,16.3,4,24.1,6.2v-67.5c-7.7-2.3-15.8-4.4-24.1-6.3v-3.9C477.5,499.8,486.6,502.2,495.3,504.8z
		"/>
	<path d="M547.6,620.4c-6.7-2-13.4-4.1-20-6.1c-27.7-8.6-56.3-17.4-87.4-23l-3.3-0.6v-5.8l-1.9-0.5l1.9-0.3v-13.5
		c-83-14.5-189.6-14.2-261.9,0.9v19.2l-3.2,0.6C133,598.8,98,609.8,65.5,620.4l-9.1,3l4.3-8.6c4.6-9.2,10-17.7,15.2-26
		c2.9-4.6,5.9-9.3,8.7-14.1c-3-3.5-6.5-6.6-10.2-9.8c-4.6-4-9.4-8.2-13.3-13.4l-3.5-4.6l5.6-1.6c16.2-4.7,32.8-10.1,49.5-16.1v-27.3
		l2.9-0.8c52.4-15.4,120-23.8,190.5-23.9c0.1,0,0.2,0,0.2,0c70.5,0,138.1,8.5,190.2,23.9l2.9,0.8v27.9c9.3,2.2,17.9,5.2,26.1,8.1
		c7.5,2.6,15.2,5.3,23.2,7.3l5.4,1.4l-3,4.7c-3.6,5.5-8.4,9.6-13,13.4c-4,3.3-7.8,6.5-10.7,10.5c5.7,7.8,10.8,16.4,15.7,24.6
		c2.9,4.9,5.9,9.9,9,14.7l5.9,9.1L547.6,620.4z M126.7,584.3c-3.2-0.3-6.4-0.7-9.5-1l-2.9-0.3l-0.5-2.9c-0.3-1.4-0.5-2.8-0.6-4.2
		l-0.6-0.2l0.6-0.1c-0.8-6.9-0.6-14.7-0.4-22.2c0.1-3.8,0.2-7.7,0.1-11.5c-6.8,1.5-12.9,3.7-19.4,6c-4.8,1.7-9.7,3.4-14.9,4.8
		c2.3,2.9,5.9,5.9,9.3,8.8c3.5,2.9,7,5.9,9.8,9.2l1.8,2.1l-1.4,2.4c-2.7,4.7-5.7,9.3-8.5,13.8c-3.1,4.9-6.2,9.6-9,14.5
		c20.4-6.9,40.7-12.7,61.4-17.5C136.9,585.3,131.4,584.8,126.7,584.3z M518.5,547.7c-6.4-2.3-12.5-4.4-19.2-5.9v37.8l0.9,0.4
		l-0.9,0.1v1.4l-3.1,0.7c-7.6,1.8-15.9,3-23.9,4.2c2.8,0.7,5.5,1.4,8.2,2.2c17.2,4.5,34.9,9.1,51.4,14.9c-2.3-4-5-8.2-7.7-12.3
		c-3.3-4.9-6.6-10-9.3-15l-0.9-1.7l0.7-1.8c2.5-5.8,7.6-9.9,12.2-13.5c2.7-2.2,5.3-4.3,7-6.4C528.5,551.3,523.4,549.5,518.5,547.7z
		 M448.7,572.9c0,1.1,0.1,2.6,0.2,3.6c0.1,0.7,0.1,1.4,0.2,2.1c3.2-0.5,6.3-1.1,9.4-1.7c1.4-0.3,2.9-0.5,4.3-0.8
		C458.1,575.2,453.2,574.2,448.7,572.9z M148.8,576.1c0.4,0.1,0.9,0.1,1.3,0.2c4.3,0.6,8.7,1.3,13,2.1c0-1.7,0-3.6,0-5.3
		L148.8,576.1z M306.4,488.9c-0.1,0-0.2,0-0.4,0c-67.4,0-131.7,7.8-181.5,21.9V570c104.3-28.7,258.3-28.7,363.7,0v-59.2
		C438.2,496.7,373.8,488.9,306.4,488.9z"/>
</g>
<g>
	<path class="st4" d="M370.2,191.3c-0.6-6,8.6-9.3,2.3-17.6c-5.7-7.7-23.7-17.9-32.9-20.2c-14.2-3.5-21.4-10.4-32.1-17.7
		c-7.4-4.9-14.5,19.6-14.5,25.4c0,29.8,18.5,17.7,37.3,17.7c7.3,0,21.9,5.5,28.7,8.9c2.2,1,5.8-0.2,8,0.9L370.2,191.3z"/>
	<path class="st5" d="M366.9,188.8c-1.1-0.5-2.6-0.5-4-0.4c-1.4,0-2.9,0.1-4-0.4c-6.3-3.2-21.2-8.9-28.6-8.9
		c-4.4,0-8.8,0.7-13.1,1.3c-7.9,1.2-14.8,2.3-19.2-1.6c-3.4-2.9-5.1-8.7-5.1-17.6c0-4.9,4.8-22.5,10.8-25.7c1.3-0.7,2.6-0.7,3.9,0.2
		c2.2,1.5,4.3,3,6.3,4.4c7.8,5.6,14.6,10.5,25.8,13.3c9.7,2.4,27.4,12.6,33,20.2c4,5.2,1.9,8.4-0.1,11.5c-1.2,2-2.4,3.8-2.2,6.1
		l0,0.3L366.9,188.8z M303.8,135.8c-5.9,3.1-10.6,20.6-10.6,25.5c0,8.8,1.6,14.5,5,17.4c4.4,3.8,11.2,2.7,19.1,1.5
		c4.2-0.6,8.6-1.3,13.1-1.3c7.5,0,22.4,5.7,28.7,8.9c1,0.5,2.5,0.4,3.9,0.4c1.5,0,3-0.1,4.1,0.5l3,2.4c-0.1-2.2,1.1-4.1,2.2-6
		c2-3.1,4-6.2,0.1-11.3c-5.6-7.5-23.2-17.7-32.8-20.1c-11.3-2.8-18-7.7-25.9-13.3c-2-1.4-4.1-2.9-6.3-4.4c-0.6-0.4-1.3-0.6-1.9-0.6
		C304.9,135.3,304.4,135.4,303.8,135.8z"/>
</g>
<g>
	<path class="st3" d="M300.1,182.7c-10.4-12.9-19.6-32.5-4.5-47.5c10.8-10.8,19.5,2.5,30.3,9.6c8,5,66,25.1,50,40.9
		c-3.3,3.3-8.3,10-15.4,7.9c-8.7-3-1.2,0.4,0.9-1.7c0.4-0.4,16.6-9.2,10-15.8c-3.7-3.7-18.8-7.1-18.8-13.8c0-4.2-20.4-7.1-25.4-9.6
		c-8.8-4.1-12.5-7.5-19.2-14.1c-4.1-4.2-2.9,14.5,0,17.5c1.3,1.2,20.8,14.2,9.6,6.6c-3.4-2.1-14.1-3.7-14.1-9.1
		c0-22.1-12.1,9.1-6.3,13c3.7,2.4,2.5,1.7,1.7,1.7c-6.3,0,4.6,14.5,9.1,14.5h13.8c5.4,0,21.2-2.9,12.9-11.2c-3.7-3.7,0,1.2,3.7,1.2
		c4.6,0,2.1,11.3,10.9,7.1c0.4,0-0.9-4.2-0.9-4.6c-0.8-3.7-2.5-2.1,3,1.3c3.7,2.4,5,8.7,7.1,9.6c0.9,0.4-2.5-2.5-10-2.5
		C320.9,183.6,296.3,188.6,300.1,182.7z"/>
	<path d="M360.5,193.7c-1.9-0.6-3-1-3.6-1.1c-0.3-0.1-0.6-0.1-0.6-0.2l-0.1-0.1l0-0.1c0,0,0,0,0.1,0l0,0c0,0,0,0,0.1,0
		c0.1,0,0.3,0.1,0.5,0.1c1.1,0.2,3.3,0.5,4.3-0.5c0.1-0.1,0.2-0.2,0.7-0.4c6.8-4.3,10.5-8.1,10.9-11.3c0.2-1.4-0.3-2.8-1.5-4
		c-1.3-1.3-4.1-2.6-7-4c-5.5-2.6-11.8-5.5-11.8-9.8c0-2.6-8.8-4.9-15.9-6.7c-4-1-7.7-2-9.5-2.9c-8.6-4-12.3-7.2-19.2-14.1
		c-0.6-0.6-1.1-0.7-1.5-0.4c-1.9,1.9-0.7,15.3,1.6,17.7c0.7,0.6,5.6,4,9.2,6.4c0.1,0.1,0.3,0.1,0.4,0.2c2.2,1.5,3,2,3.3,2.3
		c0.1,0,0.1,0.1,0.1,0.1l0,0c0.1,0.1,0.1,0.1,0.1,0.1l0,0.1l-0.1,0c0,0,0,0-0.1,0l0,0c0,0-0.1,0-0.2-0.1c-0.4-0.2-1.3-0.9-3.7-2.5
		c-1-0.5-2.3-1-3.9-1.5c-4.4-1.6-9.9-3.5-9.9-7.5c0-6.4-1-7.6-1.6-7.7c-0.9-0.2-2.3,1.6-3.5,4.7c-2.2,5.5-3.8,14-0.9,15.9
		c2.7,1.7,2.7,1.7,2.6,1.9c0,0.1-0.2,0.1-0.4,0c-0.2,0-0.4-0.1-0.6-0.1c-0.6,0-1.1,0.1-1.4,0.4c-0.3,0.3-0.4,0.7-0.4,1.2
		c0,3.9,7.6,12.7,10.9,12.7h13.8c4.3,0,13.3-1.7,14.9-5.5c0.7-1.6,0-3.5-2.1-5.6c-0.1-0.1-0.2-0.2-0.3-0.3c-0.7-0.5-1.2-1-1.2-1.1
		l0-0.1l0.1,0c0.1,0,0.2-0.1,1.3,1.1c1,0.7,2.5,1.5,4,1.5c1.9,0,2.6,1.8,3.4,3.8c0.7,1.7,1.3,3.4,2.9,4.1c1.1,0.5,2.6,0.2,4.6-0.7
		l0,0c0.1-0.3-0.4-2.1-0.6-3.1c-0.2-0.8-0.3-1.3-0.3-1.4c-0.1-0.6-0.3-1-0.4-1.3c-0.4-0.4-0.5-0.8-0.5-0.9l0-0.1l0.1,0
		c0.1,0,0.3,0.3,0.6,0.8c0.5,0.6,1.5,1.5,3.3,2.6c2.1,1.4,3.4,3.8,4.5,6c0.6,1.2,1.2,2.3,1.8,3c0.6,0.3,0.9,0.6,0.9,0.7l0,0.1
		l-0.1,0c-0.1,0.1-0.2,0-0.2,0c-0.3-0.1-0.5-0.3-0.8-0.6c-1.4-0.7-4.5-1.9-9.2-1.9c-10.2,0-20.1,0.7-28,1.3
		c-11.7,0.8-19.5,1.4-20.6-0.6c-0.3-0.4-0.2-1,0.2-1.6c-4.3-5.4-9.9-13.8-11.8-22.9c-2-9.6,0.5-17.9,7.3-24.7
		c8.3-8.3,15.5-2.4,23.1,3.9c2.4,2,4.8,4,7.3,5.6c1.6,1,5.3,2.7,10,4.7c15.2,6.8,40.8,18.2,42.8,29.1c0.5,2.6-0.4,5-2.7,7.3
		c-0.4,0.4-0.9,0.9-1.4,1.4c-2.8,3-6.5,6.9-11.4,6.9C362.3,194.1,361.4,193.9,360.5,193.7z M295.6,135.3c-6.7,6.7-9.2,15-7.2,24.5
		c1.9,9.2,7.4,17.5,11.8,22.9l0,0.1l0,0.1c-0.4,0.6-0.5,1.1-0.2,1.5c1.1,1.9,9.2,1.3,20.4,0.5c8-0.6,17.8-1.3,28-1.3
		c4.2,0,7.2,1,8.8,1.7c-0.5-0.7-1-1.6-1.5-2.6c-1.1-2.2-2.4-4.6-4.4-5.9c-1.4-0.9-2.4-1.7-3-2.3c0.1,0.3,0.2,0.6,0.2,0.9
		c0,0.1,0.2,0.7,0.3,1.4c0.5,2.1,0.7,3,0.6,3.3c0,0-0.1,0.1-0.1,0.1c-2,0.9-3.5,1.2-4.7,0.7c-1.6-0.6-2.3-2.4-3-4.2
		c-0.7-1.9-1.4-3.6-3.2-3.6c-1.2,0-2.4-0.5-3.3-1c1.9,2,2.5,3.8,1.8,5.4c-1.8,4.3-11.7,5.6-15.1,5.6H308c-2,0-4.9-2.6-6.9-5
		c-2.6-3-4.2-6.1-4.2-7.9c0-0.6,0.2-1,0.5-1.3c0.3-0.3,0.9-0.5,1.5-0.5c0.2,0,0.4,0,0.6,0.1c-0.4-0.3-1.1-0.8-2.3-1.5
		c-3-1.9-1.4-10.6,0.8-16.1c0.6-1.6,2.3-5.1,3.8-4.8c1.2,0.2,1.8,2.9,1.8,7.9c0,3.8,5.4,5.7,9.7,7.2c1,0.4,1.9,0.7,2.7,1
		c-0.4-0.2-0.8-0.5-1.2-0.8c-2.9-1.9-6.4-4.4-6.9-4.9c-2.5-2.5-3.7-16-1.6-18c0.3-0.3,0.9-0.5,1.8,0.4c6.9,6.9,10.5,10.1,19.1,14.1
		c1.7,0.9,5.5,1.8,9.5,2.9c7.5,1.9,16,4.1,16,6.9c0,4.2,6.2,7.1,11.7,9.6c3,1.4,5.8,2.7,7.1,4c1.2,1.2,1.8,2.6,1.6,4.1
		c-0.4,3.3-4.1,7.1-11,11.4c-0.3,0.2-0.6,0.4-0.6,0.4c-0.7,0.7-2,0.8-3.1,0.7c0.6,0.2,1.3,0.4,2.2,0.7c6.2,1.8,10.7-3,13.9-6.5
		c0.5-0.5,0.9-1,1.4-1.4c2.2-2.2,3.1-4.6,2.6-7.1c-2-10.8-27.4-22.1-42.6-28.9c-4.7-2.1-8.4-3.7-10-4.8c-2.6-1.7-5-3.7-7.4-5.7
		c-3.9-3.2-7.5-6.2-11.2-7.4c-1.1-0.4-2.2-0.6-3.3-0.6C301,131.2,298.3,132.5,295.6,135.3z"/>
</g>
<path class="st6" d="M214.3,227.6c-0.6-8.6-3.9-11.5-2.2-19.5c3.2-15.4,18.4-20.2,34.1-18.2v32.9c-12.4,0.6-22.2,5.6-25.5,19.2
	c-8.6-7.1-17.1-22.4-18.8-36.8c0-0.1,0-0.1,0-0.1v-8.6c2.5-20.2,23.7-26.6,44.3-24.6v5.4c-8.4,0-16.7-0.5-24,2.7
	c-9.1,4-15.5,16.2-15.9,26.8C206.1,214,207.3,223.9,214.3,227.6z M246.3,171.8c15.4,1.6,30.5,7.8,37.4,16.8
	c6.8,10.4,11.9,26.6,15.8,37.6c-6.1-2.7-16.7-5-23.8-4.4c10.7,4.3,24.3,5.6,31.8,13c-16.1-3.4-41.8-13-61.2-12v-32.9
	c10.2,1.2,20.5,5.3,27.9,10.9c5,3.9,7.5,10.4,11.6,13c1.4-3.4-0.5-8.2-2.2-11.6c-5-10.1-15.3-20.4-23.8-26c-4.5,0.9-9,1-13.5,0.9
	V171.8z"/>
<path class="st3" d="M214.3,227.6c-0.6-8.6-3.9-11.5-2.2-19.5c5.4-25.4,43.1-21.7,62.1-7.3c5,3.9,7.5,10.4,11.6,13
	c1.4-3.4-0.5-8.2-2.2-11.6c-5-10.1-15.3-20.4-23.8-26c-12.8,2.5-26.4-1.3-37.6,3.6c-9.1,4-15.5,16.2-15.9,26.8
	C206.1,214,207.3,223.9,214.3,227.6z"/>
<path class="st3" d="M308.8,183.2c0.4,24.2,34.3,37.4,54.6,20.5C364.5,178.2,323.8,171.5,308.8,183.2z"/>
<path class="st3" d="M290.2,186.4c0.4,8.2,5.5,11.8,9.4,16.6c0.6-0.6,1.7-0.8,3-0.8C303.8,194.8,299.1,183.6,290.2,186.4z"/>
<path class="st3" d="M332.7,191.5c1.4,4.9,9,1.7,13,2.2c8.8,1.1,13.7,7.3,19.5,10.2C363.2,190.9,343.4,189.1,332.7,191.5z"/>
<path class="st3" d="M318.2,201.6c-2.3-1-3.5-3.2-3.6-6.6c1.2-0.6,2.4-0.9,3.6-0.9v1.7c-0.6-0.1-1.3-0.1-2.2-0.1
	c0.1,1.6,0.9,2.5,2.2,2.8V201.6z M318.2,195.9v-1.7c5.2-0.1,9.6,4.2,5,8.1c-2,0.1-3.7-0.1-5-0.6v-3c0.6,0.1,1.4,0.2,2.2,0.1
	C320.3,197.1,319.6,196.2,318.2,195.9z"/>
<path class="st3" d="M306.1,195.1c-2.5,1.4-1.1,6.6-1.4,10.2c-1.9,2.1-5.1-0.9-6.6,0.7c1.5,9.8,6,16.6,12.3,21.7
	c-0.3-4.8-5.7-10.7-7.2-16.6C307.3,207.8,309.9,200.6,306.1,195.1z"/>
<path class="st3" d="M344.4,216.2c-0.5-0.2-1.1-0.5-1.7-0.9c-0.3,0.8,0.4,1.7,1.7,2.5v4.4c-6.4-3.6-11.5-10.8-11.8-17.3v-1.2
	c0.1-1.2,0.4-2.4,0.8-3.6c1.7-4,6.2-4.8,11-3.7v2.5c-2.5-0.9-5.3-1.2-8.1-0.3c-0.9,2.4-2.3,5.1-0.7,8c0.9-4.1,4.1-2.4,7.2-1.4
	c0.2-1.5,0.6-2.8,1.7-3.4V216.2z M344.9,201.6c9.4,0,9.2,18.9-0.5,14.6v-14.3C344.7,201.7,344.8,201.6,344.9,201.6L344.9,201.6z
	 M350.1,219.6c-1.9,0-4.1-0.8-5.6-1.8v4.4c5.8,3.2,12.5,3.6,17.9-1.9c0.7-3.8-2.2-4-2.9-6.5c-1.6,0.3-0.3,3.5-0.7,5
	c-0.6,1.5-2.2,2.2-4.3,2.2c-1.1-2.4,3.8-8.4,1.4-12.2c2-0.6,1.9,1,3.6,0.7c-0.1-5.7-7.8-11.4-15-13.1v2.5
	C352.9,202.2,358.1,213.7,350.1,219.6z"/>
<path class="st7" d="M321.8,192.8c0.1,1.9,1.4,2.7,3.6,2.4C325.3,193.3,324,192.5,321.8,192.8z"/>
<path class="st2" d="M433.8,206c-3.7-1.6-12.4-4.8-20.2-3.7c-3.5,0.6,0.3,0.1,3,0.8C420.7,204,426.5,204.8,433.8,206z"/>
<path class="st3" d="M376.6,229.5c-2.3-2.1-3.5-5.3-4.8-8.4c1.4-1,3.2-1,4.8-0.4v2.7c-0.6-0.5-1.3-0.8-1.9-0.9c0,1.9,1,2.8,1.9,3.7
	V229.5z M376.6,223.4v-2.7c3.8,1.6,7.2,6.8,5.3,11.2c-2.2-0.3-4-1.2-5.3-2.4v-3.2c0.6,0.6,1.2,1.2,1.7,2.1
	C379.1,227.3,378.1,224.7,376.6,223.4z"/>
<path class="st8" d="M374.6,222.5c0.1,3.1,2.6,3.7,3.6,5.8C379.4,226.8,377.2,222.7,374.6,222.5z"/>
<path class="st3" d="M329.8,227.6c-3.5,2.4,4.5,4.1,5,7.2c-5.7-0.9-10.9-2.1-16.6-2.9c9.1,9.5,33.6,3.5,36.1,19.5
	c-4.3,0.6-15-0.5-17.4,4.3c0.1,0.9,1.3,0.6,2.2,0.7c0.1,3-3.5,2.2-2.9,5.8c4-0.5,4-5.2,8.6-6.5c6.1-1.7,14.1,2.6,13.8-7.3
	C358.3,237.9,337.2,235.5,329.8,227.6z"/>
<path class="st9" d="M284.4,260.8c1-4.7-2.2-21.8,8.6-21c1.1,0.4,1.8,1.2,2.2,2.2c-3.2,5.4-7.5,10.4-5.8,18.8
	c3.2,1.9,5.3,0.4,10.1,0.7c-3-2.1-6.8-3.3-8.6-6.5c2.7-2.2,1.8-7.8,5-9.4c2.4-0.7,1.2,2.3,1.4,3.7c1.3-1.7,1.7-4.1,2.9-5.8
	c2.7-0.7,2.1,1.8,4.4,1.4c-1.4-6.3-9.3-6.1-16.6-6.5C282.3,240.5,281.3,254.8,284.4,260.8z"/>
<path class="st2" d="M407.1,243.5c3.8,2.3,14.7-3,21.7,0C424.2,239.5,410.5,236.3,407.1,243.5z"/>
<path class="st6" d="M281.5,239.9c-4,0.4-3.9,4.8-8.7,4.3c0.9,6,1.8,11.7,2.2,18.1c3.1-2.4,0.7-10.4,1.4-15.2c2.3-1.2,3,2.7,3.7,0.7
	C280.9,245.6,281.2,242.7,281.5,239.9z"/>
<path class="st2" d="M421.6,252.9c5.6-0.1,10.2,0.8,15.1,1.4C433.6,252.2,423.9,249,421.6,252.9z"/>
<path class="st3" d="M384,255.1c-0.5,4.3,7.8,10.6,3.6,16.6c-5.7-0.4-10.9-1.2-17.3-0.8c-0.3,2.2,2.3,1.5,3.6,2.2
	c0.4,3.2-0.4,5.4-0.7,7.9c-12.7,14.4-37.1-6.3-53.5,3.6c2.2,3.1,6.7,4,10.2,5.8c-0.7,1.8-2.8-1-5,0c3.2,7.8,8.6,13.5,17.3,15.9
	c0.1-3.4-3.5-3.2-3.6-6.5c6.1,0.1,8.3,4.2,14.5,4.3c0.9-5.9-2.6-7.6-4.3-10.9c15.3,6.8,31.9-2.1,35.4-15.8c2.3-0.9,4.8-1.4,7.2-2.2
	C396,267.9,390.9,257.2,384,255.1z"/>
<path class="st2" d="M425.2,265.1c1.4,4.1,9.1,1.9,10.1,6.6c-8.5-1.7-24.7-4.5-26.7,7.2c3-1.4,6-2.7,10.9-2.2
	c-0.1-1.9-2.8-1.1-2.9-2.9c14.3,0.3,28.1,7.5,40.4,12.2C448.6,276.9,441.4,266.4,425.2,265.1z"/>
<path class="st10" d="M287.3,280.3c-1.3-0.1-1.5,0.9-2.9,0.7c0.6,3.5-2.1,3.7-1.4,7.2C285,286.3,286.9,284,287.3,280.3z"/>
<path class="st2" d="M432.4,285.4c1.2,1.4,4.2,1.2,5,2.9c-5.4,3-15.7-4.8-23.8-1.4c11.5,4.7,27.4,4.9,34.7,13.8h-6.5
	c0.9,4.5,4,9.5,8.6,7.9c-0.4-2.3-3.7-1.6-3.6-4.3c7.8-1.8,12.8,5.5,18.1,8.6C463.2,297.3,450.4,286.8,432.4,285.4z"/>
<path class="st6" d="M277.8,285.4c-2-0.6-1.8,1-3.6,0.7c-1.5,5.5-0.4,13.6-0.7,20.2c5.3-0.7,8.7-3.3,10.9-7.2
	c-2.7,0.2-4,1.7-6.6,2.2C274.1,297.5,278.3,290.5,277.8,285.4z"/>
<path class="st6" d="M306.1,288.2c-10.4,9.6-20.7,19.2-35.4,24.6c14.9,3.7,26.4-8.2,35.4-15.1C304.8,294.2,305.9,292.1,306.1,288.2z
	"/>
<path class="st3" d="M384,301.3c-6.3-1.8-6.6,4.8-5,8.6C385,311.8,385.6,304.8,384,301.3z"/>
<path class="st3" d="M366.6,308.5c-0.5,2.2,0.8,2.7,0.7,4.3c2.1,0.1,3.7-0.1,4.4-1.4C371.2,309.2,369.7,308,366.6,308.5z"/>
<path class="st3" d="M342.8,311.4c0.6,8.6-1.7,19.7-2.2,26.7c6.8-1.6,9.6-7.3,10.9-14.4c-3.3-0.7-3,2.3-4.3,3.6
	C345,322.7,344.4,316.5,342.8,311.4z"/>
<path class="st2" d="M297.4,316.4c-2,0.6-3.7,1.7-4.3,3.7c3.4-0.4,4.4,0.9,6.5,0C298.9,318.8,297.8,317.9,297.4,316.4z"/>
<path class="st2" d="M272.8,325.1c-4.2-0.4-5.5,2.1-6.5,5C269.6,329.6,271.5,327.6,272.8,325.1z"/>
<path class="st2" d="M275.7,332.3c9.6,3.7,15.3,11.2,22.4,17.4C295.4,339.1,286.5,334.8,275.7,332.3z"/>
<path class="st2" d="M263.4,341c15,3.2,17.2,19.3,24.6,30.3c-1.2-13.5-8.1-27.5-19.5-33.3C266.8,339,263.8,338.7,263.4,341z"/>
<path class="st2" d="M250.4,347.5c-3.7,3.5-3.2,11.2-3.6,18.1C248.9,360.4,249.3,353.6,250.4,347.5z"/>
<path class="st2" d="M306.1,380c-2.7,1.2-1.9,5.8-2.2,9.4C305.8,387.5,305.9,383.7,306.1,380z"/>
<path class="st2" d="M303.9,429c-2.4,1.9-2.5,6.2-3.7,9.4c-1.2,0.2-1.3-0.6-1.4-1.4c-3.6,5.3,1.9,13.3,4.4,17.3
	C304.6,446.1,303.8,437.2,303.9,429z"/>
<path class="st2" d="M311.2,455.1c0.2-1.2-0.4-1.4-0.6-2.2c-0.9,0.1-1.2,0.9-1,2.2H311.2z"/>
<path class="st2" d="M301.1,452.9c0.3,1.2-0.6,3.5,0.5,3.7C303.5,456.9,303,452.1,301.1,452.9z"/>
<path class="st2" d="M296.3,454.6c0.8,0.8,3,0.7,2.6-1.1C298.1,452.6,295.9,452.7,296.3,454.6z"/>
<path class="st2" d="M292.6,452.9c-0.1,1.4-0.1,2.7,1.6,2.2C294.3,453.7,294,452.8,292.6,452.9z"/>
<path class="st2" d="M289.4,452.9c-1.9-0.6-2.1,3.2-1.1,3.7C290.4,457.1,289.1,454.1,289.4,452.9z"/>
<path class="st8" d="M279.4,177.7c4.6,3.2,9.9,0.6,15.1,1.4c2.2,0.4,4.2,1.2,5.9,2.2v9.5c-2.1-3.5-5.6-5.8-10.2-4.4
	c0.4,8.2,5.5,11.8,9.4,16.6c0.3-0.2,0.6-0.4,0.9-0.5v3c-0.9-0.1-1.7-0.2-2.3,0.4c0.5,3.1,1.3,5.9,2.3,8.5v3.5
	C293.8,204.9,290.5,189.8,279.4,177.7z M300.4,181.3c4.8,2.7,8.3,7.1,12.1,8c-0.6-2.4-7.1-6-4.2-7.2c4,0.4,7.1,5,11.4,2.9
	c-0.9-5.4-7.6-4.8-10-8.7c4.2-1.1,7.3-0.2,10.3,1.2v16.8c-1.7-0.3-3.6-0.1-5.3,0.8c0.1,4,1.9,6.4,5.3,7.1v30
	c-0.6-0.1-1.2-0.1-1.7-0.2c0.5,0.5,1.1,1,1.7,1.4v4.2c-4.5-1.8-8.5-4.2-11.7-7.8c-3.2-3.6-5.7-7.6-7.8-11.8v-3.5
	c2.2,5.5,5.7,9.7,10,13.2c-0.3-4.8-5.7-10.7-7.2-16.6c4.1-3.2,6.7-10.4,2.9-15.9c-2.5,1.4-1.1,6.6-1.4,10.2
	c-1.2,1.2-2.8,0.6-4.2,0.3v-3c0.6-0.2,1.3-0.3,2.1-0.3c0.6-3.6-0.1-8.1-2.1-11.4V181.3L300.4,181.3z M320,293.9
	c-1.9-1.4-3.5-2.8-4.6-5c1.3-2.6,2.9-4.8,4.6-7.1v2.6c-0.1,0.1-0.2,0.1-0.3,0.1c0.1,0.1,0.1,0.2,0.3,0.3V293.9L320,293.9z
	 M320,256.1c-0.1,0.1-0.2,0.2-0.3,0.4c-6.9,9.8-6.8,25.1-12.2,36.8c7.1-1.7,7.8-15,12.5-22.2V256.1z M320,177.5
	c3.8,1.9,7.1,4.8,12,5.3c-2.4-3-6.6-4-7.9-8c5.2,1.5,8.9,4.7,14.4,5.8c0.8-1.9-3.4-2.8,0-3c0.3,0,0.5,0,0.7,0v12.9
	c-2.4,0.1-4.5,0.4-6.5,0.9c0.8,2.7,3.5,3,6.5,2.7v1.9c-2.6,0.4-4.8,1.7-5.8,4.1c-2.3,5.6,0.6,12.9,5.8,18.1v15.4
	c-3.7-1.7-7.2-3.6-9.4-6c-3.5,2.4,4.5,4.1,5,7.2c-5.1-0.8-9.9-1.8-14.9-2.7v-30c0.9,0.2,2.1,0.3,3.3,0.1c4.1-3.5,1-7.3-3.3-8V177.5
	L320,177.5z M320,233.4v4.2c5.8,2.4,12.5,3.7,19.2,5.7v-3.9C332.3,237.8,324.8,237,320,233.4L320,233.4z M320,256.1
	c4.5-6.2,10.8-8,19.2-9.4v6.8c-0.9,0.5-1.7,1.2-2.2,2.2c0.1,0.9,1.3,0.6,2.2,0.7v0.3c-0.1,2.7-3.5,2.1-2.9,5.5
	c1.3-0.1,2.2-0.7,2.9-1.5v22c-6.8-1.2-13.5-1.5-19.2,1.8v-2.6c4.9-6.3,10.9-11.7,13.5-20.4c-5.3,2.9-6.7,9.6-11.6,13
	c-1-2.5,2.1-4.7,0-5.8c-0.7,0.7-1.3,1.5-1.9,2.4V256.1L320,256.1z M320,284.9c2.2,2.9,6.5,3.7,9.9,5.5c-0.7,1.8-2.8-1-5,0
	c2.9,6.9,7.3,12.2,14.4,15v36.9c-1.9,1-3.8,2-5.8,3.1c2.3-17.3,2.3-35.2-8.6-42.6c1.1-0.1,2.4,0.1,2.2-1.4c-1.3-3.5-4.3-5.3-7-7.3
	V284.9L320,284.9z M339.2,299.8c-0.2,0-0.4,0-0.7,0c0,0.9,0.3,1.6,0.7,2.2V299.8z M346,335.3v3.4c-2.2,1.2-4.5,2.4-6.8,3.5v-36.9
	c0.9,0.4,1.9,0.6,2.9,0.9c0.1-2.4-1.8-3-2.9-4.3v-2.2c2.9,0.2,4.8,1.4,6.8,2.4v22.2c-1.3-4.1-1.9-8.9-3.2-13
	c0.6,8.6-1.7,19.7-2.2,26.7C342.9,337.6,344.6,336.6,346,335.3L346,335.3z M339.2,177.7c2.5,0.1,4.8,0.8,6.8,1.8v11.3
	c-2.3-0.3-4.6-0.3-6.8-0.2V177.7L339.2,177.7z M339.2,194.1c2.3-0.2,4.8-0.7,6.5-0.5c0.1,0,0.3,0.1,0.4,0.1v3.2
	c-2.4-0.8-4.8-1.1-6.8-0.9V194.1L339.2,194.1z M339.2,218.2c2,2,4.4,3.7,6.8,4.8v13.7c-2.2-1.1-4.6-2-6.8-3.1V218.2L339.2,218.2z
	 M339.2,239.4c2.4,0.5,4.8,1.2,6.8,2.1v4c-2.2-0.9-4.5-1.6-6.8-2.2V239.4L339.2,239.4z M339.2,246.8c2.2-0.4,4.5-0.7,6.8-1.1v6.2
	c-2.5,0.2-5,0.7-6.8,1.7V246.8L339.2,246.8z M339.2,256.5c0,0.1,0,0.2,0,0.3V256.5L339.2,256.5z M339.2,282.7
	c2.3,0.4,4.6,0.9,6.8,1.4v-28.7c-0.4,0.1-0.7,0.1-1.1,0.3c-3.2,0.9-4.2,3.4-5.8,5V282.7z M347.2,327.3c-0.4-0.9-0.8-1.9-1.2-2.9
	v-22.2c1.1,0.5,2.1,1,3.3,1.4v20.3C348.2,324.6,348.1,326.3,347.2,327.3L347.2,327.3z M349.3,330.9v6.1c-1.1,0.6-2.2,1.2-3.3,1.7
	v-3.4C347.4,334.1,348.5,332.6,349.3,330.9L349.3,330.9z M346,179.5c1.2,0.6,2.2,1.2,3.3,1.9v3c-1.2-0.1-2.2,0.1-3,0.6
	c0.1,1.5,1.4,2.7,3,2.9v3.4c-1.1-0.2-2.2-0.4-3.3-0.4V179.5L346,179.5z M346,193.7c1.2,0.1,2.2,0.4,3.3,0.7v3.7
	c-1.1-0.5-2.2-1-3.3-1.3V193.7L346,193.7z M346,223c1.1,0.5,2.2,0.9,3.3,1.2v14c-1.1-0.5-2.2-1-3.3-1.5V223L346,223z M346,241.4
	c1.2,0.5,2.3,1.1,3.3,1.8v8.5c-1.1,0-2.2,0.1-3.3,0.1v-6.2l0.4-0.1l-0.4-0.1V241.4L346,241.4z M346,255.5c1.1-0.1,2.2-0.2,3.3-0.2
	v29.6c-1.1-0.2-2.2-0.4-3.3-0.7V255.5L346,255.5z M348.6,293.3c0.2,0.1,0.4,0.2,0.7,0.4v0.9C349,294.2,348.8,293.7,348.6,293.3z
	 M349.3,323.9v-20.3c1,0.4,2.2,0.6,3.6,0.6c0.7-5.2-1.8-7.1-3.6-9.6v-0.9c6.8,2.8,13.8,2.5,19.8,0.1v14.8c-0.7-0.1-1.5-0.2-2.5-0.1
	c-0.5,2.2,0.8,2.7,0.7,4.3c0.6,0.1,1.2,0.1,1.8,0v12.9c-6.3,4.1-13,7.8-19.8,11.3v-6.1c1-2.2,1.7-4.6,2.2-7.2
	C350.5,323.5,349.8,323.6,349.3,323.9L349.3,323.9z M349.3,181.4c3.1,1.9,6,4.1,9.4,5c1.1,0.3,3.5-0.9,4.3-0.7
	c2.3,0.3,4.2,1.3,6.1,2.7v95.9c-5.6,3.1-12.5,2.2-19.8,0.6v-29.6c4.9,0,9.6,0.9,9.4-6.8c-0.1-4.6-4.2-7.6-9.4-10.3v-14
	c4.4,1,9.1,0.1,13-3.8c0.7-3.8-2.2-4-2.9-6.5c-1.6,0.3-0.3,3.5-0.7,5c-0.6,1.5-2.2,2.2-4.3,2.2c-1.1-2.4,3.8-8.4,1.4-12.2
	c2-0.6,1.9,1,3.6,0.7c-0.1-4.4-4.8-8.9-10.1-11.4v-3.7c6.6,2,10.9,6.9,15.8,9.4c-1.2-7.4-8.1-11.2-15.8-12.5v-3.4
	c0.9,0.1,2,0,2.9-0.7c0.1-1.6-1.4-2.4-2.9-2.7V181.4L349.3,181.4z M349.3,251.7c1.9-0.1,3.7-0.1,5-0.3c-0.6-3.8-2.4-6.4-5-8.2V251.7
	z M369.1,188.4c3,2.2,5.8,5.1,9.1,6.7c-0.3,6.4,2.4,12.3-2.2,15.2c1.8,1.9,3.6,3.7,5.4,5.6v9.6c-1.9-4-6.6-6.6-9.7-4.4
	c2,4.8,3.8,9.9,9.7,10.8v39.3c-3.5-0.3-7.1-0.5-11.2-0.3c-0.3,2.2,2.3,1.5,3.6,2.2c0.4,3.2-0.4,5.4-0.7,7.9c-1.3,1.4-2.6,2.4-4,3.2
	V188.4L369.1,188.4z M369.1,308.6c1.4,0.4,2.2,1.4,2.6,2.8c-0.5,0.9-1.4,1.3-2.6,1.4v12.9c1.4-0.9,2.7-1.8,4-2.7
	c3.3-2.4,6-5.1,8.3-8.1v-4.6c-0.7,0.1-1.5,0-2.5-0.3c-1.3-3.2-1.3-8.4,2.5-8.9v-17.6c-2.7,4.6-7.1,8.3-12.3,10.4V308.6z
	 M392.7,232.7c-2.2,0.1-5-3-5.8,0c6.9,9.6,7.6,25.6,10.9,39c-5.3,16.8-8,32.1-16.3,43.1v-4.6c3.7-0.6,3.9-6,2.5-8.9
	c-1-0.3-1.8-0.4-2.5-0.3v-17.6c1.2-1.8,2-3.9,2.5-6c2.3-0.9,4.8-1.4,7.2-2.2c4.8-7.3-0.3-18.1-7.2-20.2c-0.5,4.3,7.8,10.6,3.6,16.6
	c-2.1-0.1-4.1-0.4-6.1-0.5v-39.3c0.1,0,0.2,0.1,0.4,0.1c0.9-2.2,0.6-4.5-0.4-6.5v-9.6C386,220.6,390.3,225.7,392.7,232.7z"/>
<path class="st2" d="M342.8,215.3c-0.7,1.7,4,4.2,7.3,4.3c10.5-7.8-1.6-24.8-13.8-21c-0.9,2.4-2.3,5.1-0.7,8
	c0.9-4.1,4.1-2.4,7.2-1.4c0.3-1.7,0.8-3.2,2.2-3.7C354.9,201.6,354.1,222.5,342.8,215.3z"/>
<path class="st10" d="M280.8,266.6c-8.9,3.9-19.2,12.6-29.7,17.4c17.9,4,31.9-5.5,44.1-11.5c2.7-0.8,2.1,1.7,4.3,1.4
	c1.4-3,4.8-4,4.4-8.7c-8.1-4-18.3,3.7-24.6,3.6C279.3,267.5,279.9,266.9,280.8,266.6z"/>
<path class="st2" d="M404.9,359c-8.4-3.6-14.2-9.9-23.8-12.2c2.9,3.6,6.8,6.2,11.6,7.9c-0.4,6.8,6.6,10.1,9.4,15.9
	c-9.8-1.5-18.1-10.8-28.9-13.8c-3.5,1.3,4,2.9,2.9,6.6c-5.2,0.8-8.8-6.2-16.6-5.1c10.3,5.4,19.6,11.7,21.7,25.3
	c-8.7-6.4-13.9-16.4-26-19.4c9.1,13.3,30.2,21.2,23.1,46.2c-6.1-6.8-7.9-14.6-13.8-21c-8.3-9.2-21.5-10.6-31-18.8
	c-0.1-1.6,2.6-0.4,3.6-0.7c-1.2-6.3-11.9-3.5-11.5,2.2c9.8,3.4,17.8,8.6,20.2,19.5c-3.9-1.4-5.7-6.6-10.8-8
	c-4.8-1.3-10.2-0.3-15.2,1.4c-0.6,2.4,2.4,1.1,2.9,2.2c-6.6,8.2-15.3,14.4-15,29.6c6,2.7,1.6,16.1,5,21.6c1.9-6,1.2-14.7,3.6-20.2
	c4,1.5,3.7,7.3,4.3,12.2c6-5,2.8-19.3,3.7-29.5c3.5,1.3,3.1,6.6,4.3,10.2c1.3-0.1,0.4-2.4,1.4-3c3.6,1.5,1.7,8.4,2.2,13
	c-3.2,9-6.3,18.4-7.9,28.9c3.5-2.2,3-8.5,7.9-9.4c2.2,3.7-0.9,8.2,0,13c2.6-2.7,2.7-7.9,5.8-10.1c2.6-0.4,1.8,2.6,4.3,2.2
	c16.1-7.1,15.3-39.4,1.4-48.3c8.6,4.2,13,12.6,18.8,19.5c-1.2-10.8-10.7-19.7-14.4-30.3c11.3,5.7,20.6,19.8,26,33.9
	c1.6-0.6,1.8-2.5,2.9-3.6c2,0.1,0.9,3.5,3.6,2.9c9.1-6.7,4.8-24.3,2.9-35.4c6.1,1.6,6.9,8.5,9.4,13.8c2.3,0.6,0.9-2.4,2.9-2.2
	c2.4,3.3,2.3,9.2,2.9,14.5c2.8-2.7,3.3-7.8,4.3-12.3c3.9,0.4,1.4,7.3,5,7.9v-7.2c3.2-0.5,3.7,1.6,4.3,3.6
	c4-15.5-22.1-19.2-28.9-30.3c15.4,4.1,27.4,11.6,40.5,18.1c-0.6-8.4-8.9-9-10.9-15.9c3.7-1.2,6.2,4.9,10.9,5
	c-3.5-9.1-11.5-13.5-17.4-20.2c15,0.9,24.9,13.2,34.7,21.7c-0.4-7.6-6.5-9.4-10.2-13.7c0.5-2.3,1.9-0.9,3.6-0.7
	c-6.8-7.7-14.9-14-29.6-13.8c18.7-9.2,40,4.9,49.8,15.9c3.9-8.1-1.2-18.8-4.3-24.6c3.5,0.9,4.6,4,6.5,6.5
	c-3-19.7-24.9-26.6-35.4-41.2c16.8,6.5,30.5,16.1,41.9,28.2c-7.8-20.4-27.6-35-55.7-37.5c-0.4,3.5,4.8,1.4,5.8,3.6
	c-4.6,2.1-14.7-1.2-15.8,4.3c16,8.5,34.8,14.3,44.8,28.9c-4.8,0.9-8-6-13.8-6.5c1.3,4.2,4.7,6.4,5,11.6
	c-10.7-5.7-16.5-16.3-28.9-20.2c4.5,3.9,10.7,6.1,13.8,11.5c-2.2,1.5-4.3-2.2-7.3-2.2c1.6,4.8,9.3,7,6.6,13.8
	c-6.7-0.8-9.3-5.7-13.8-8.7c-2,2.5,3.8,3.4,3.6,6.6c-6.5,0.4-12.3-6-20.2-6.6c5.3,4,11.4,7,16.6,10.9c0.3,1.9-2.7,0.6-2.9,2.2
	C401.3,353.6,404.1,355.3,404.9,359z"/>
<path class="st3" d="M248.6,408.1c-0.4-2.6-0.6-5.3-1.1-7.8c-1.4,0.3-0.6,2.8-2.9,2.2c-2.4-2.1-2.7-6.5-3.6-10.1
	c-1.4,1.2-0.3,5-2.9,5c-3.1-16.2-5.6-37.3-0.7-53.4c-1.9,0.1-3.1-0.3-2.9-2.2c4.5-10.7,9.1-21.4,14-31.5v39.9
	c-1.7,4-1.4,10-1.8,15.5c0.8-2,1.4-4.3,1.8-6.7V408.1L248.6,408.1z M248.6,286.8c-2.1-0.9-3.7-2.2-4.7-4.3c1.7-0.5,3.2-1,4.7-1.6
	V286.8L248.6,286.8z M223.7,249.3c-14.5-10.3-22-27.6-25.3-49.2V198c1.7-22.4,20.9-27.3,42.6-29.6h3.6c1.3-0.1,2.7-0.1,4-0.1v3.9
	c-24-3.2-49.8,5.1-46.6,33.1c1.7,14.4,10.2,29.7,18.8,36.8c3.5-14.5,14.3-19.2,27.8-19.3v4.8C235.9,226.4,222.4,234,223.7,249.3z
	 M248.6,168.2c7.1,0.1,14.1,1.7,21,3.5v6.4c-6.2-3-13.5-5-21-6V168.2L248.6,168.2z M248.6,222.7c6.6,0,13.8,1,21,2.4V273
	c-5.9,3.8-12.1,8.1-18.4,10.9c6.7,1.5,12.7,1.2,18.4-0.2v41.8c-1.8,0.9-2.6,2.6-3.2,4.6c1.3-0.2,2.3-0.6,3.2-1.3v9.8
	c-0.4-0.1-0.7-0.4-1.1-0.6c-1.7,0.9-4.7,0.6-5,3c2.3,0.5,4.3,1.3,6.1,2.4v14.7c-1.2-0.7-2.4-1.4-3.2-1.9c-6.6,11.4-9.5,34.2-5,49.8
	c0.2,1.9-2.8,0.6-2.2,3c1.5,2.3,3.2,4.5,4.3,7.2c1.7-11.7-3.1-31.5,6.1-37.4v22.8c-0.1,3-0.2,6,0,8.9v37.9c-1.1-1.9-1.7-4.5-2.5-6.3
	c-3.5-8-7.2-16.5-11.5-23.8c0.1,1.6-0.6,2.3-2.2,2.2c-3-2.7-4-7.4-4.7-12.4v-49.2c0.7-3.7,1.1-7.7,1.8-11.4
	c-0.7,0.7-1.4,1.6-1.8,2.6v-39.9c3.5-7.1,7.2-14,11.2-20.5c-3.7-0.9-8-1.4-11.2-2.9v-5.9c4.9-1.9,8.9-4.7,11.2-9.2
	c-1.4-1.3-4.5-0.9-5.8-2.2c1.7-1.4,2.3-4,3-6.5c-0.4-2.2-3.5-1.9-3.7-4.3c2.7-2.4,6.8-3.3,8-7.2H257c-0.8-4.2,2.4-4.2,2.9-7.3
	c-1.9,0.2-3.1-0.2-2.9-2.2c0.9-2.4,3.9-2.8,5.8-4.3c-2.2-0.9-2.7-3.4-1.4-5.8c-3.7-2.7-8.1-4.1-12.7-4.5V222.7L248.6,222.7z
	 M269.6,360.8c-0.5,0.1-0.9,0.1-1.1,0.4c0.4,0.6,0.7,1.2,1.1,1.7V360.8z M269.6,171.7c2.1,0.5,4.1,1.1,6.1,1.7v8.1
	c-1.9-1.2-3.9-2.4-6.1-3.4V171.7L269.6,171.7z M269.6,225.2c2.1,0.4,4.1,0.9,6.1,1.4v17.2c-0.7,0.4-1.7,0.6-2.9,0.4
	c0.9,6,1.8,11.7,2.2,18.1c0.3-0.2,0.6-0.5,0.7-0.8v7.7c-1.9,1.2-4,2.4-6.1,3.8V225.2L269.6,225.2z M269.6,283.7
	c2.1-0.5,4.2-1.2,6.1-1.9v4c-0.3,0.2-0.7,0.4-1.4,0.3c-1.5,5.5-0.4,13.6-0.7,20.2c0.8-0.1,1.5-0.2,2.2-0.4v4.8
	c-1.6,0.8-3.3,1.4-5,2.1c1.7,0.4,3.5,0.6,5,0.7v18.8l0,0l0,0v11c-1.8-1.8-3.9-3.4-6.1-4.7v-9.8c1.4-0.9,2.4-2.2,3.2-3.7
	c-1.3-0.1-2.4,0.1-3.2,0.4V283.7L269.6,283.7z M269.6,343.4c2.4,1.4,4.5,3.4,6.1,5.5v21.9c-2.1-2.6-4.2-5.1-6.1-7.9v-2.2
	c1.6-0.1,4.1,1,4.7,1.9c0.2-1.5-2.2-3.1-4.7-4.5V343.4L269.6,343.4z M269.6,378.8c0.1-0.1,0.2-0.1,0.4-0.2c1.2,6.7,0.1,14.9-0.4,23
	V378.8L269.6,378.8z M269.6,410.4c0.4,4.3,1.2,8.5,3.2,12.1c0.2-6,0-12.5,2.2-16.6c0.3,0.9,0.5,1.9,0.7,2.8v38.7
	c-0.7-1.2-1.4-2.2-2.2-3.2v7.2c-1.9-0.3-3.1-1.4-4-3V410.4L269.6,410.4z M275.7,386.5c-1.4-1-2.8-1.9-4.3-2.9
	c1.3-1.5,2.8-1.8,4.3-1.4V386.5L275.7,386.5z M275.7,221.8L275.7,221.8L275.7,221.8z M275.7,173.3c1.6,0.4,3.2,0.9,4.8,1.2v3.8
	c-0.4-0.1-0.7-0.4-1.1-0.6c0.4,0.4,0.7,0.9,1.1,1.2v6.1c-1.4-1.2-3-2.4-4.8-3.6V173.3L275.7,173.3z M275.7,226.5
	c1.6,0.4,3.2,0.8,4.8,1.2v12.3c-2.1,0.7-2.9,2.7-4.8,3.7V226.5L275.7,226.5z M275.7,261.5c1.9-3.1,0.1-10,0.7-14.4
	c2.3-1.2,3,2.7,3.7,0.7c0.1-0.3,0.2-0.6,0.4-1v19.9c-0.7,0.4-1.2,1-1.1,2c0.3,0,0.6,0,1.1,0v-2c-1.6,0.7-3.1,1.5-4.8,2.4V261.5
	L275.7,261.5z M275.7,281.8c1.7-0.6,3.2-1.3,4.8-1.9v20.5c-0.8,0.4-1.6,0.7-2.6,0.9c-3.7-3.7,0.4-10.8,0-15.9
	c-1.2-0.4-1.6,0.1-2.2,0.4V281.8L275.7,281.8z M275.7,305.9c1.9-0.5,3.4-1.2,4.8-2.2v4.6c-1.5,0.9-3.1,1.7-4.8,2.4V305.9
	L275.7,305.9z M275.7,313.5c1.7,0,3.2-0.1,4.8-0.4v20.5c-1.5-0.5-3.1-0.9-4.8-1.3v11c1.7,1.7,3.3,3.6,4.8,5.7v-14.5
	c-1.5-0.9-3-1.6-4.8-2.2V313.5L275.7,313.5z M275.7,348.9v21.9c1.7,1.9,3.2,3.9,4.8,5.9v-20.1C279,353.9,277.6,351.3,275.7,348.9
	L275.7,348.9z M275.7,382.2c1.5,0.4,3.1,1.4,4.8,2.4v5.8c-1.5-1.4-3.1-2.7-4.8-4V382.2L275.7,382.2z M275.7,408.8
	c2.1,9.6,1.4,21.7,4.8,30.2v16.1c-1.6-2.6-3.2-5.2-4.8-7.6V408.8L275.7,408.8z M275.7,221.8c1.4-0.1,3-0.1,4.8,0v1.7
	C278.8,223,277.2,222.4,275.7,221.8z M280.4,174.6c1.1,0.3,2.1,0.6,3.2,0.8v4c-1.1-0.1-2.2-0.4-3.2-0.9V174.6L280.4,174.6z
	 M280.4,179v6.1c1.2,1.2,2.2,2.2,3.2,3.5V183C282.6,181.6,281.6,180.2,280.4,179L280.4,179z M280.4,221.8c1,0.1,2.1,0.1,3.2,0.3v2.4
	c-1.1-0.3-2.2-0.6-3.2-0.9V221.8L280.4,221.8z M280.4,227.8c1.1,0.2,2.1,0.5,3.2,0.8v16c-1.3,4.5-1.2,10.3,0,14.3v9.1
	c-1.2,0.3-2.2,0.6-3.2,0.7v-2c0.1,0,0.2-0.1,0.4-0.1c-0.1,0.1-0.3,0.1-0.4,0.1v-19.9c0.6-2.1,0.8-4.5,1.1-6.9
	c-0.4,0.1-0.8,0.1-1.1,0.2V227.8L280.4,227.8z M280.4,279.9c1.1-0.5,2.1-1,3.2-1.5v6.3c-0.5,0.9-0.9,1.9-0.6,3.5
	c0.2-0.2,0.4-0.4,0.6-0.6v11.6c-1.2,0.3-2.2,0.8-3.2,1.2V279.9L280.4,279.9z M280.4,303.7v4.6c1.1-0.6,2.2-1.2,3.2-1.9v-6.1
	C282.7,301.6,281.7,302.8,280.4,303.7L280.4,303.7z M280.4,313.1c1.1-0.1,2.2-0.4,3.2-0.8v22.4c-1-0.4-2.1-0.8-3.2-1.1V313.1
	L280.4,313.1z M280.4,334.5V349c1.2,1.8,2.2,3.7,3.2,5.8v-18.1C282.6,335.9,281.5,335.2,280.4,334.5L280.4,334.5z M280.4,356.6
	c1.1,2.2,2.1,4.5,3.2,6.7v18.2c-1-1.7-2.1-3.3-3.2-4.8V356.6L280.4,356.6z M280.4,384.7c1,0.7,2.1,1.5,3.2,2.1v7.1
	c-1-1.2-2.1-2.3-3.2-3.4V384.7L280.4,384.7z M283.6,444.3v16.1c-1.1-1.8-2.2-3.5-3.2-5.3v-16.1C281.2,441,282.2,442.8,283.6,444.3z
	 M283.6,175.4c4.5,1.1,8.7,1.7,12.7,1.7v2.5c-0.6-0.1-1.2-0.3-1.8-0.4c-3.6-0.6-7.3,0.5-10.9,0.1V175.4L283.6,175.4z M283.6,183
	c5.8,8.1,9.1,17.2,12.7,25.8v8.1c-3.4-9.6-7.5-20.6-12.6-28.4l-0.1-0.1V183L283.6,183z M283.6,222.1c4.4,0.5,8.9,1.5,12.7,2.8v3.5
	c-4-1.5-8.4-2.6-12.7-3.9V222.1L283.6,222.1z M283.6,228.6c4.4,1.2,8.7,2.4,12.7,3.5v7c-2.6-0.4-5.5-0.4-8.3-0.6
	c-2.1,0.7-3.5,3.1-4.4,6.1V228.6L283.6,228.6z M283.6,258.9v9.1c3.8-1.2,8.3-3.2,12.7-3.9v-2.6c-2.7,0.2-4.5,0.6-6.8-0.7
	c-1.7-8.4,2.6-13.4,5.8-18.8c-0.4-1-1.1-1.7-2.2-2.2c-10.9-0.9-7.6,16.3-8.6,21C284.1,260.2,283.8,259.6,283.6,258.9L283.6,258.9z
	 M283.6,278.4c4.1-2,7.9-4.2,11.6-6c0.4-0.1,0.8-0.2,1.1-0.1V297c-4,3.4-8.1,6.6-12.7,9.4v-6.1c0.3-0.4,0.5-0.8,0.8-1.2
	c-0.3,0-0.5,0.1-0.8,0.1v-11.6c1.8-1.8,3.3-4,3.7-7.3c-1.3-0.1-1.5,0.9-2.9,0.7c0.3,1.8-0.3,2.7-0.8,3.7V278.4L283.6,278.4z
	 M283.6,312.3v22.4c5.5,2.2,10,5.3,12.7,10.2v-24.8c-0.8-0.1-1.8-0.3-3.2-0.1c0.6-1.7,1.7-2.7,3.2-3.2v-11.4
	C292.5,308.3,288.2,310.9,283.6,312.3L283.6,312.3z M283.6,336.6c4.7,3.4,8.5,7.6,12.7,11.4v127.7c-4.8-3.6-8.9-9.4-12.7-15.4v-16.1
	c0.4,0.5,0.9,0.9,1.5,1.4c1.5-11.2-2.3-28.9,2.2-39c3.3,0.6,1.7,6,5,6.6c-1.4-8-4.5-14.3-8.7-19.4v-7.1c1,0.6,2,1,3,1.2
	c-0.8-2.4-1.8-4.5-3-6.4v-18.2c1.4,2.8,2.7,5.5,4.4,8c-0.5-5.7-1.9-11.4-4.4-16.6V336.6L283.6,336.6z M290.9,255.1
	c2.7-2.2,1.8-7.8,5-9.4c0.1,0,0.3-0.1,0.4-0.1v14C294.2,258.4,292.1,257.1,290.9,255.1z M300.8,450.5v21.2c-0.7-0.5-1.7-1-2.7-1.6
	c0.2,2.4,2.1,5.5,0.7,7.3c-0.9-0.5-1.7-1.1-2.5-1.7V348.1c0.6,0.5,1.2,1.1,1.8,1.6c-0.4-1.7-1-3.3-1.8-4.8v-24.8
	c1.2,0.2,2,0.5,3.2-0.1c-0.6-1.3-1.7-2.2-2.2-3.7c-0.4,0.1-0.7,0.3-1.1,0.4v-11.4c1.6-1.2,3.1-2.4,4.5-3.5v134.6
	c-0.1,0.6-0.3,1.4-0.6,2c-1.2,0.2-1.3-0.6-1.4-1.4C296.1,441,298.4,446.4,300.8,450.5L300.8,450.5z M296.3,177.1
	c0.4,0,0.7,0,1.1-0.1c1.2,0,2.4-0.2,3.5-0.4v5c-1.4-0.9-2.9-1.6-4.5-2V177.1L296.3,177.1z M296.3,208.8c1.4,3.5,2.9,6.8,4.5,10v11.4
	c-1.4-0.6-3-1.3-4.5-1.9v-3.5c1.2,0.4,2.3,0.8,3.2,1.3c-1-2.8-2.1-6-3.2-9.2V208.8L296.3,208.8z M296.3,232c1.6,0.4,3.1,0.9,4.5,1.2
	v7.1c-1.3-0.6-2.8-1.1-4.5-1.3V232L296.3,232z M296.3,245.6c1.9-0.4,0.8,2.4,1.1,3.7c1.3-1.7,1.7-4.1,2.9-5.8
	c0.2-0.1,0.4-0.1,0.6-0.1v20.8c-1.4-0.3-3-0.2-4.5-0.1v-2.6c0.9-0.1,2-0.1,3.2,0c-1-0.7-2.1-1.3-3.2-1.9V245.6L296.3,245.6z
	 M299.5,273.8c0.4-0.7,0.9-1.4,1.3-1.9V293c-1.4,1.4-3,2.7-4.5,4v-24.8C297.8,272.3,297.6,274.1,299.5,273.8z M303.2,454.3
	c1.4-8.2,0.6-17.1,0.7-25.3c-1.9,1.6-2.4,4.6-3.1,7.4V301.9c1.4-1.2,2.8-2.3,4.2-3.4v82.4c-1.4,1.8-0.9,5.5-1.1,8.6
	c0.4-0.5,0.8-1.1,1.1-1.7v86.4c-1.2-0.6-2.4-1.4-4.2-2.4v-21.2C301.7,452,302.5,453.3,303.2,454.3L303.2,454.3z M300.8,176.6
	c1.4-0.4,2.8-0.8,4.2-1.2v9.1c-1.3-1-2.7-2-4.2-2.9V176.6L300.8,176.6z M300.8,218.8c1.3,2.3,2.6,4.6,4.2,6.8v7
	c-1.3-0.9-2.7-1.7-4.2-2.4V218.8L300.8,218.8z M305,234.2v55c-1.4,1.3-2.7,2.5-4.2,3.7v-21.1c1.5-1.7,3.4-3.2,3.1-6.8
	c-1-0.5-2-0.8-3.1-0.9v-20.8c2.1-0.3,1.7,1.9,3.8,1.5c-0.5-2.3-1.9-3.7-3.8-4.6v-7.1C302.2,233.6,303.6,234,305,234.2z M305,175.4
	c2.6-0.8,5.1-1.7,7.5-1.9c15.3-1.4,28.2,1.3,40.1,5.8v4.2c-4.2-2.7-8.5-5.8-14.1-5.7c-3.4,0.1,0.8,1.1,0,3
	c-5.5-1.2-9.2-4.3-14.4-5.8c1.3,4,5.5,5,7.9,8c-8.6-1-12.5-9.1-22.3-6.6c2.4,3.9,9.1,3.3,10,8.7c-4.3,2.2-7.4-2.5-11.4-2.9
	c-2.9,1.2,3.6,4.8,4.2,7.2c-2.5-0.6-4.8-2.7-7.5-4.8V175.4L305,175.4z M305,225.7c1,1.4,2,2.7,3.2,4.1c8.9,10.2,24,10.4,38.2,15.8
	c-12.2,1.9-21,2.7-26.7,10.9c-6.9,9.8-6.8,25.1-12.2,36.8c8.1-1.9,7.8-18.5,14.3-24.6c2.1,1.2-1,3.3,0,5.8c4.9-3.4,6.3-10.2,11.6-13
	c-3.5,11.7-13,17.4-18.1,27.4c2.6,5.3,9.4,6.5,11.6,12.3c0.3,1.5-1.1,1.4-2.2,1.4c10.9,7.4,10.9,25.3,8.6,42.6
	c6.3-3.5,12.8-6.7,19.2-10.1v45.9c-6.5-3.2-13.5-5.6-19.2-10.5c-0.1-1.6,2.6-0.4,3.6-0.7c-1.2-6.3-11.9-3.5-11.5,2.2
	c9.8,3.4,17.8,8.6,20.2,19.5c-3.9-1.4-5.7-6.6-10.8-8c-4.8-1.3-10.2-0.3-15.2,1.4c-0.6,2.4,2.4,1.1,2.9,2.2
	c-6.6,8.2-15.3,14.4-15,29.6c6,2.7,1.6,16.1,5,21.6c1.9-6,1.2-14.7,3.6-20.2c4,1.5,3.7,7.3,4.3,12.2c6-5,2.8-19.3,3.7-29.5
	c3.5,1.3,3.1,6.6,4.3,10.2c1.3-0.1,0.4-2.4,1.4-3c3.6,1.5,1.7,8.4,2.2,13c-3.2,9-6.3,18.4-7.9,28.9c3.5-2.2,3-8.5,7.9-9.4
	c2.2,3.7-0.9,8.2,0,13c2.6-2.7,2.7-7.9,5.8-10.1c2.6-0.4,1.8,2.6,4.3,2.2c5.3-2.3,8.7-7.3,10.5-13.2v23.2
	c-3.5,4.8-6.6,10.2-9.8,15.3c-1.8-5.1,0-11.7,0.7-16.6c-7.7,9.9-14,8.5-16.6,23.5c-4.9-0.1-4.3-0.6-7.8-2.2c-3,2.5-5.9-2.9-5.9,1.1
	c-4.5-0.9-6.6-1.6-8.3-2.5v-86.4c0.9-2.1,0.9-4.9,1.1-7.8c-0.5,0.2-0.8,0.5-1.1,0.9v-82.4c0.4-0.3,0.7-0.6,1.1-0.8
	c-1.2-3.5-0.1-5.6,0-9.4l-1.1,1v-55c0.9,0.2,1.7,0.4,2.5,0.6c-0.8-0.8-1.7-1.5-2.5-2.2V225.7L305,225.7z M352.6,411.1v-6.6
	c-2.6-2.8-5.4-5.3-9.1-7.1C347.8,400.1,350.9,405.2,352.6,411.1L352.6,411.1z M352.6,389.4c-1.5-1.1-3.1-2.1-4.7-2.9
	c1.2,3.2,2.8,6.3,4.7,9.4V389.4z M352.6,179.2c9.9,3.7,19.2,8.8,28.5,13.7c2.5-5.2,9.2-13,15.9-9.4c-1.7,2.6-4.8,3.9-5.1,7.9
	c6.3-4.6,16.6-6.3,26.1-5.2v8.3c-1.3,0.2-2.5,0.6-3.7,1.2c1.3,0.2,2.4,0.4,3.7,0.7v5.5c-1.4,0-3,0.1-4.4,0.2c-3.5,0.6,0.3,0.1,3,0.8
	c0.4,0.1,0.9,0.1,1.4,0.3v36c-4.6-0.5-9.1,0.4-10.9,4.1c2.1,1.3,6.3,0.2,10.9-0.4v27.4c-4.7,0.9-8.5,3.2-9.4,8.5
	c2.7-1.2,5.3-2.4,9.4-2.3v9.4c-1.5,0-3,0.2-4.4,0.8c1.4,0.6,2.9,1.1,4.4,1.5v13c-3.2-0.7-6.6-1.2-10.2-1.5c-0.4,3.5,4.8,1.4,5.8,3.6
	c-4.6,2.1-14.7-1.2-15.8,4.3c6.6,3.5,13.5,6.5,20.2,9.9v11.5c-3.7-3.2-7.8-6-13-7.6c4.2,3.6,9.8,5.8,13,10.4v1.5
	c-1.9,0.4-3.9-2.5-6.6-2.5c1.1,3.3,5,5.3,6.6,8.5v5.3c-6.7-0.8-9.3-5.7-13.8-8.7c-2,2.5,3.8,3.4,3.6,6.6c-6.5,0.4-12.3-6-20.2-6.6
	c5.3,4,11.4,7,16.6,10.9c0.3,1.9-2.7,0.6-2.9,2.2c0,4.6,2.8,6.3,3.6,10.1c-8.4-3.6-14.2-9.9-23.8-12.2c2.9,3.6,6.8,6.2,11.6,7.9
	c-0.4,6.8,6.6,10.1,9.4,15.9c-9.8-1.5-18.1-10.8-28.9-13.8c-3.5,1.3,4,2.9,2.9,6.6c-5.2,0.8-8.8-6.2-16.6-5.1
	c10.3,5.4,19.6,11.7,21.7,25.3c-8.7-6.4-13.9-16.4-26-19.4c9.1,13.3,30.2,21.2,23.1,46.2c-6.1-6.8-7.9-14.6-13.8-21
	c-3.3-3.7-7.5-6.2-11.9-8.3v-45.9c7.1-3.7,14.1-7.8,20.6-12.3c15.2-10.8,17.9-29.8,24.6-51.3c-3.2-13.5-4-29.4-10.9-39
	c0.9-3,3.6,0.1,5.8,0c-3.3-9.7-10.4-15.7-16.6-22.4c4.5-2.9,1.9-8.8,2.2-15.2c-5.3-2.6-9-8.6-15.2-9.4c-0.9-0.1-3.2,1-4.3,0.7
	c-2.2-0.6-4.2-1.7-6.1-3V179.2L352.6,179.2z M352.6,389.4v6.6c4.1,6.8,8.9,13.4,9.7,20.9c-3.4-4-6.3-8.5-9.7-12.4v6.6
	c1.9,6.8,1.9,14.7,0,21.3v23.2c4-5.5,8.6-10.3,14.8-13.5c0.9,4-4.8,7.7-5,13c12.3-3.9,20.4-11.9,26.7-21.7c1.9,0.9-1,3.2-0.7,5
	c7.2-5.3,12.2-12.7,19.5-18c3.3-2.4,7.3-4.7,10.2-8.4v-24.9c-10.9-5.7-21.6-11.6-34.7-15.1c6.8,11.1,32.9,14.8,28.9,30.3
	c-0.6-2-1.2-4.1-4.3-3.6v7.2c-3.7-0.6-1.2-7.5-5-7.9c-1,4.5-1.5,9.6-4.3,12.3c-0.6-5.3-0.5-11.2-2.9-14.5c-1.9-0.2-0.6,2.8-2.9,2.2
	c-2.5-5.3-3.3-12.2-9.4-13.8c1.9,11.2,6.3,28.7-2.9,35.4c-2.7,0.6-1.6-2.7-3.6-2.9c-1.1,1.1-1.3,3-2.9,3.6
	C369.2,408.3,361.7,396.2,352.6,389.4L352.6,389.4z M418,417.3c-0.3,0.1-0.5,0.1-0.7,0.2c-0.2-1.4,0.2-2.2,0.7-3V417.3L418,417.3z
	 M418,380.9v-4.7c-1.7-1.4-3.2-2.6-5.1-2C413.7,377.2,415.8,379.1,418,380.9L418,380.9z M418,370.3v-8.1c-3.5-1.7-7.3-2.9-11.6-3.2
	C409.9,363.1,414.3,366.3,418,370.3L418,370.3z M418,354.4v-4.8c-4.4,0-8.8,0.9-13,3C410,352.5,414.2,353.1,418,354.4L418,354.4z
	 M418,273.8c-0.5,0-1,0-1.4,0c0,0.9,0.7,1.2,1.4,1.4V273.8z M418,186.3c4,0.5,7.8,1.5,11.2,3.1v5.7c-3.7-0.6-7.7-1.2-11.2-0.5V186.3
	L418,186.3z M418,196.5c3.6,0.8,7.1,1.8,11.2,2.2v1.6c-0.6,0.4-1.6,0.5-1.8,1.3c0.6,0.2,1.2,0.4,1.8,0.6v2.1c-3.2-1-7.1-2-11.2-2.2
	V196.5L418,196.5z M418,203.4v36c4.2,0.5,8.6,2.2,10.8,4.1c-3.2-1.4-7.1-1-10.8-0.4v27.4c3.5-0.6,7.5-0.4,11.2,0.1v-2.6
	c-1.8-0.5-3.4-1.2-4-2.8c1.4,0.1,2.7,0.3,4,0.6v-12.5c-2.4-0.2-4.8-0.4-7.6-0.4c1.2-2,4.3-2.2,7.6-1.4v-20.3
	c-0.4-0.2-0.7-0.4-1.1-0.6c0.4,0,0.7,0,1.1,0.1v-11.2l-1.1-0.4c0.4-0.3,0.7-0.5,1.1-0.6v-5.6c-0.6-0.3-1.2-0.6-1.8-0.9
	c0.6-0.1,1.2-0.1,1.8-0.2v-6.3C424.7,204.5,421,203.9,418,203.4L418,203.4z M418,273.8c3.7,0.2,7.5,0.9,11.2,1.9v12.4
	c-3.5-0.9-7.5-2.2-11.2-2.1v-9.4c0.4,0,0.9,0.1,1.4,0.1c-0.1-0.9-0.8-1.2-1.4-1.4V273.8L418,273.8z M418,288.3
	c3.6,1.1,7.4,1.9,11.2,2.9v13.4c-3.5-1.4-7.3-2.4-11.2-3.2V288.3L418,288.3z M418,317.6c3.9,1.9,7.6,4,11.2,6.4v6.2
	c-0.1-0.1-0.2-0.1-0.4-0.1c0.1,0.4,0.2,0.6,0.4,1v7.6c-4-2.9-7.4-6.4-11.2-9.6V317.6L418,317.6z M418,331.9v1.5
	c0.2-0.1,0.4-0.2,0.7-0.4C418.5,332.7,418.2,332.2,418,331.9L418,331.9z M418,339.4c0.6,1.4,0.9,3.1,0,5.3l0,0V339.4L418,339.4z
	 M418,349.6c3.7,0,7.6,0.6,11.2,1.8v9.4c-3.2-2.7-6.8-5-11.2-6.4V349.6L418,349.6z M418,362.2c4,1.9,7.7,4.7,11.2,7.6v37.4
	c-3.1,4-5.8,8.4-11.2,10.1v-2.7c0.5-0.9,1.1-1.8,0.7-3.5c-0.3,0.3-0.5,0.6-0.7,1v-24.9c1.9,1,3.8,1.9,5.8,3
	c-0.4-4.7-3.1-6.9-5.8-9.2v-4.7c1.7,1.4,3.5,3,5.8,3c-1.4-3.5-3.5-6.4-5.8-9V362.2L418,362.2z M421.6,309.2c2.6,1,5.1,2.1,7.6,3.2
	v4.9C426.3,314.8,423.6,312.2,421.6,309.2z M429.1,189.4c3.7,1.7,6.6,4.1,8.3,7.1c-2.4-0.3-5.3-0.9-8.3-1.4V189.4L429.1,189.4z
	 M429.1,198.7h0.4c0.3,0.9,0,1.4-0.4,1.6V198.7L429.1,198.7z M429.1,202.1c3.1,0.9,6.3,1.8,9.4,2.7v7.9c-3-0.9-6.1-1.4-9.4-1.3v-6.3
	c1.5,0.2,3.1,0.4,4.7,0.7c-1.2-0.5-2.7-1.2-4.7-1.7V202.1L429.1,202.1z M429.1,212.6v5.6c2.9-1,6.1,3.3,8.3,1.4
	C436.9,215,432.7,214.2,429.1,212.6L429.1,212.6z M429.1,219.3c3.2,1.2,6.4,2.5,9.4,4V234c-3-1.7-6.1-3-9.4-3.4V219.3L429.1,219.3z
	 M429.1,231.2v20.3c3,0.6,6.1,1.9,7.6,2.9c-2.5-0.4-5-0.7-7.6-1.1v12.5c3.6,0.6,6.6,1.8,9.4,3.3v-31.4
	C435.4,235.4,432.4,233.2,429.1,231.2L429.1,231.2z M429.1,267.9c2.6,0.6,5.5,1,6.1,3.7c-1.7-0.4-3.9-0.8-6.1-1.2V267.9L429.1,267.9
	z M429.1,275.7c3.2,0.8,6.3,1.8,9.4,3v7.6c-2-0.4-4-0.7-6.2-0.9c1.2,1.4,4.2,1.2,5,2.9c-2.1,1.2-5,0.7-8.3-0.1V275.7L429.1,275.7z
	 M429.1,291.2c3.2,0.9,6.5,1.7,9.4,2.9v14.8c-3-1.7-6.1-3.1-9.4-4.3V291.2L429.1,291.2z M429.1,312.4c3.2,1.5,6.4,3.2,9.4,5v7.6
	c-3.2-2.5-6.4-5-9.4-7.6V312.4L429.1,312.4z M429.1,324v6.2c3.8,0.5,6.6,3.8,9.4,5.5v-4C435.7,328.8,432.6,326.3,429.1,324
	L429.1,324z M429.1,331.2c1.5,3.6,4.3,5.8,4.7,10.6c-1.7-0.9-3.2-1.9-4.7-3V331.2L429.1,331.2z M429.1,351.4
	c3.2,1.1,6.4,2.4,9.4,4.1V374c-2.2-2.7-5.4-4.4-7.6-7c0.5-2.3,1.9-0.9,3.6-0.7c-1.7-1.9-3.5-3.7-5.4-5.5V351.4L429.1,351.4z
	 M429.1,407.3c1.4-1.8,2.9-3.5,4.7-4.9c2.6,3.3-1.7,9.1,0.7,12.3c1.4-1.8,2.7-3.6,4-5.5v-30.7c-3.1-2.8-6.1-5.8-9.4-8.6V407.3z
	 M438.5,204.9c8.6,2.7,16.4,6.2,19.1,14.8c-6.6-1.3-12.6-4.9-19.1-6.8V204.9L438.5,204.9z M438.5,223.4c7.8,4,14.1,9.6,15.5,20.1
	c-5.3-2.3-10.3-6.5-15.5-9.5V223.4L438.5,223.4z M438.5,237.6V269c7.6,4.1,12.7,10.9,18.4,17.1c-5.8-2.2-12-5-18.4-7.4v7.6
	c14.8,3.1,24.9,13,26.4,26.6c-5.3-3.2-10.3-10.4-18.1-8.6c-0.1,2.7,3.2,2,3.6,4.3c-4.7,1.6-7.8-3.5-8.6-7.9h6.5
	c-2.4-3-5.8-5-9.7-6.5v14.8c11.8,6.8,20.4,16.6,24.9,28.4c-7.3-7.7-15.6-14.4-24.9-19.9v7.6c8.6,6.8,16.7,14,18.4,25.4
	c-1.9-2.4-3-5.6-6.5-6.5c3.1,5.8,8.2,16.5,4.3,24.6c-3.9-4.4-9.6-9.2-16.2-13V374c1.4,1.7,2.4,3.8,2.5,6.7c-0.9-0.7-1.7-1.4-2.5-2.2
	v30.7c3.6-5.5,6.6-11.7,9-18.3c1.7,3.9,2.6,8.4,3.6,13c9-8.8,14.3-21.2,17.4-36.1c2.4-0.3,1.2,3.2,4.3,2.2c2.2-6.8,2.2-19.9,0-26.7
	c2.7-1.2,2.9,6.3,7.2,5.8c-0.1-12.7,0.9-26.4-2.2-36.1c1.8-1.7,3.2,3.1,5.8,2.9c-5.7-13.5-13.8-24.7-20.9-36.8
	c4.3,1.4,7.9,3.6,11.5,5.8c-2-8.1-10.8-15.7-16.6-22.4c3-1.4,9.4,3.5,13.8,0.7C459.9,255.1,449.7,245.9,438.5,237.6L438.5,237.6z
	 M442.5,336.6c-1.4,0.3-2.7-0.1-4-0.9v-4C439.9,333.2,441.3,334.9,442.5,336.6z"/>
<path class="st2" d="M266.3,356.1c-6.6,11.4-9.5,34.2-5,49.8c0.2,1.9-2.8,0.6-2.2,3c1.5,2.3,3.2,4.5,4.3,7.2
	c1.7-11.8-3.2-32,6.5-37.6c2.4,13-4.2,31.2,2.9,44c0.2-6,0-12.5,2.2-16.6c3.9,12.7,0.8,32.4,10.2,39.7c1.5-11.2-2.3-28.9,2.2-39
	c3.3,0.6,1.7,6,5,6.6c-2.5-14.3-10.4-23.3-21-29.7c4.2-5,10.2,3.5,15.2,4.4c-3.8-11.2-12.4-17.5-18.1-26.8c0.8-1.2,5,0.3,5.8,1.4
	C274.6,360.4,268.9,357.9,266.3,356.1z"/>
<path d="M227,541.5c-3,1.4-6.3,2.2-10.3,2.5c-3.8,0.4-7.3-0.1-10.2-1.3c-3-1.2-5.3-3.2-7-5.8c-1.7-2.6-2.7-5.6-3-9.2
	c-0.4-3.8,0.2-7.3,1.6-10.4c1.4-3.2,3.5-5.7,6.4-7.6c2.9-1.9,6.3-3,10.2-3.3c3.2-0.3,6.3-0.1,9.2,0.3l0.9,10.1
	c-1.1-0.5-2.4-0.9-3.7-1.1c-1.4-0.2-2.9-0.2-4.3-0.1c-3,0.3-5.3,1.3-6.8,3.2c-1.6,1.9-2.2,4.2-2,7.1c0.3,3,1.4,5.1,3.2,6.7
	c1.9,1.5,4.2,2.2,7.1,1.9c2.7-0.2,5.3-1.2,7.8-2.7L227,541.5z"/>
<path d="M266,521.3c0.1,3.7-0.4,7-1.9,9.9c-1.4,3-3.5,5.3-6.3,7.1c-2.7,1.7-5.8,2.7-9.3,2.9c-0.3,0-0.6,0-0.9,0v-9.4
	c0.1,0,0.4,0,0.6,0c1.2-0.1,2.4-0.5,3.3-1.3c1-0.8,1.7-1.9,2.2-3.3c0.4-1.4,0.6-3,0.6-5c-0.1-3-0.9-5.3-2.1-7
	c-1.2-1.6-2.7-2.4-4.6-2.3v-9.4c3.2-0.1,6.2,0.5,8.8,1.9c2.9,1.4,5.1,3.5,6.8,6.3C264.8,514.5,265.7,517.7,266,521.3z M247.7,541.2
	c-3.1,0.1-6-0.6-8.6-1.8c-2.8-1.4-5.1-3.5-6.8-6.2c-1.7-2.7-2.7-5.8-2.8-9.4c-0.2-3.7,0.4-7.1,1.8-10.1c1.4-3,3.5-5.5,6.3-7.2
	c2.7-1.8,6-2.7,9.6-3c0.2,0,0.4,0,0.6,0v9.4c-0.1,0-0.1,0-0.3,0c-2.2,0.1-3.8,1-5,2.7c-1.1,1.7-1.6,4.1-1.4,7.1
	c0.1,3,0.9,5.2,2.2,6.8c1.2,1.4,2.7,2.2,4.5,2.2V541.2z"/>
<path d="M297.6,538.5l-13.2-17.4c-1-1.4-1.9-2.6-2.5-3.7h-0.1c0.1,1.7,0.2,3.7,0.3,6l0.2,15.3l-10.1,0.2l-0.6-36.4l10.3-0.2
	l12.7,16.5c0.1,0.2,0.3,0.5,0.5,0.8c0.3,0.3,0.5,0.6,0.7,0.9c0.2,0.3,0.4,0.6,0.6,0.9c0.2,0.3,0.4,0.5,0.4,0.8h0.1
	c-0.1-0.8-0.1-2-0.2-3.9l-0.3-16.3l10.1-0.2l0.6,36.4L297.6,538.5z"/>
<path d="M348.9,520.5c-0.1,3.7-0.9,6.9-2.4,9.7c-1.7,2.8-3.9,5-6.8,6.4c-2.5,1.3-5.3,2-8.4,2.2v-9c1.3-0.4,2.5-1.1,3.5-2.2
	c1.6-1.8,2.4-4.2,2.4-7.3c0.1-1.7-0.3-3.4-1-4.8c-0.6-1.4-1.7-2.6-3-3.4c-0.6-0.4-1.2-0.6-1.9-0.9v-8.9
	C343.2,503.1,349.1,509.1,348.9,520.5z M331.3,538.8c-0.6,0-1.1,0-1.7,0l-15.4-0.3l0.6-36.4l15,0.3c0.5,0,0.9,0,1.4,0.1v8.9
	c-0.9-0.2-1.8-0.4-2.8-0.4l-2.8-0.1l-0.4,19.2l3.1,0.1c1,0,2-0.1,2.9-0.4V538.8z"/>
<path d="M389.3,523.3c-0.2,3.7-1.2,6.8-2.9,9.6c-1.7,2.8-4,4.9-7,6.3c-2.6,1.4-5.4,1.9-8.4,1.9v-9.4c1.1,0,2.1-0.3,3-0.9
	c1.1-0.6,1.9-1.7,2.5-3c0.6-1.4,1-3,1.1-4.9c0.1-3-0.3-5.4-1.4-7.2c-1-1.7-2.5-2.7-4.5-2.8c-0.3,0-0.5,0-0.7,0v-9.4
	c0.4,0,0.9,0,1.3,0.1c3.5,0.1,6.6,1.1,9.2,2.8c2.7,1.7,4.7,4,6,6.9C388.9,516.3,389.4,519.7,389.3,523.3z M371,541.2
	c-0.4,0-0.8,0-1.2,0c-3.4-0.2-6.5-1.2-9.2-2.8c-2.7-1.7-4.8-4-6.2-6.8c-1.4-2.9-2-6.1-1.8-9.6c0.2-3.7,1.2-6.9,2.9-9.8s4-5,7-6.6
	c2.5-1.2,5.4-1.9,8.5-1.9v9.4c-1.9,0.1-3.4,0.8-4.5,2.2c-1.3,1.6-2,3.9-2.2,6.9c-0.1,3,0.3,5.3,1.4,7c1.2,1.7,2.7,2.7,4.8,2.7
	c0.1,0,0.3,0,0.4,0V541.2z"/>
<path d="M412.3,544.9l-1.7-7.8v-13.2c0.7-0.1,1.4-0.4,1.9-0.8c0.9-0.7,1.5-1.7,1.7-3c0.1-1.2-0.1-2.2-0.8-3
	c-0.6-0.7-1.6-1.2-2.9-1.4V508l1.8,0.2c5,0.6,8.7,1.9,10.9,3.9c2.2,1.9,3.1,4.5,2.7,7.8c-0.3,2.5-1.3,4.5-2.9,6
	c-1.6,1.5-3.8,2.5-6.7,2.9v0.1c1.4,0.6,2.6,1.6,3.5,2.7c0.9,1.2,1.6,2.9,2.2,5l2.4,9.6L412.3,544.9z M410.6,537.1l-0.1-0.4
	c-0.4-1.6-0.9-2.9-1.6-3.8c-0.7-1-1.6-1.5-2.6-1.7l-0.4-0.1l-1.5,12.7l-10.9-1.3l4.4-36.1l12.7,1.5v7.7c-0.1-0.1-0.3-0.1-0.4-0.1
	l-2.3-0.3l-1,8.2l2,0.3c0.6,0.1,1.2,0.1,1.7,0V537.1z"/>
</svg>
