<?xml version="1.0" standalone="no"?>
<!DOCTYPE svg PUBLIC "-//W3C//DTD SVG 20010904//EN"
 "http://www.w3.org/TR/2001/REC-SVG-20010904/DTD/svg10.dtd">
<svg version="1.0" xmlns="http://www.w3.org/2000/svg"
 width="300.000000pt" height="312.000000pt" viewBox="0 0 300.000000 312.000000"
 preserveAspectRatio="xMidYMid meet">
<metadata>
Created by potrace 1.10, written by Peter Selinger 2001-2011
</metadata>
<g transform="translate(0.000000,312.000000) scale(0.100000,-0.100000)"
fill="#ff0000" stroke="none">
<path d="M146 2768 l1 -243 85 -145 c79 -136 498 -859 620 -1070 30 -52 101
-173 156 -268 56 -96 102 -175 102 -177 0 -2 17 -32 38 -66 44 -72 252 -433
320 -554 63 -111 63 -112 105 -35 13 25 49 88 79 140 30 52 61 106 69 120 8
14 19 32 25 40 6 8 25 40 41 70 28 52 48 87 92 163 10 17 35 61 56 97 21 36
45 79 55 95 10 17 66 113 124 215 58 102 110 192 116 200 17 27 152 264 174
304 12 22 25 45 29 50 14 17 83 136 122 206 32 60 60 108 106 185 10 17 37 64
61 105 23 41 47 83 53 92 5 10 36 63 68 118 l57 101 0 227 c0 125 -3 237 -6
250 l-6 22 -1372 0 -1372 0 2 -242z m65 198 c15 9 10 -2 -9 -19 -18 -16 -19
-16 -16 5 3 32 5 35 11 20 2 -6 9 -10 14 -6z m2665 -206 l1 -215 -42 -75 c-34
-61 -172 -301 -255 -445 -10 -16 -34 -59 -55 -95 -21 -36 -45 -78 -55 -95 -9
-16 -43 -75 -75 -130 -32 -55 -89 -154 -128 -220 -38 -66 -122 -210 -185 -320
-63 -110 -130 -225 -147 -255 -18 -30 -57 -98 -87 -150 -198 -342 -253 -439
-270 -470 -11 -19 -28 -46 -38 -60 l-19 -25 -7 33 c-4 17 -10 32 -15 32 -10 0
-39 53 -39 72 0 7 11 0 25 -17 25 -29 25 -28 -4 32 -17 34 -55 101 -84 150
-29 48 -66 113 -83 143 -16 30 -32 57 -35 60 -3 3 -28 46 -56 95 -28 50 -66
117 -85 150 -86 147 -252 433 -334 573 -49 83 -105 181 -124 216 -19 35 -40
70 -46 77 -7 8 -22 32 -34 54 -18 33 -73 127 -120 205 -31 53 -152 263 -175
305 -15 28 -42 75 -60 105 l-32 56 1 199 1 200 1270 1 c699 1 1282 2 1297 3
18 1 26 5 22 14 -3 10 6 13 33 12 l38 -1 1 -214z m-2678 -98 c0 -21 -4 -44 -9
-52 -7 -11 -8 -7 -3 12 3 14 1 34 -4 45 -10 20 -5 46 8 38 4 -3 8 -22 8 -43z
m-1 -98 c-6 -7 23 -66 68 -139 39 -63 56 -95 50 -95 -3 0 3 -10 14 -21 11 -12
36 -51 56 -88 59 -108 82 -149 114 -201 34 -55 36 -60 21 -60 -5 0 -10 7 -10
15 0 8 -4 15 -10 15 -5 0 -10 7 -10 15 0 8 -9 20 -19 27 -10 6 -17 17 -14 24
2 6 0 15 -6 19 -6 3 -11 15 -11 26 0 11 -7 19 -16 19 -8 0 -12 4 -9 10 8 13
-19 52 -29 42 -4 -4 -7 -2 -5 3 4 19 -23 75 -34 68 -5 -3 -7 -2 -4 4 3 5 -5
26 -18 45 -13 20 -21 38 -18 42 4 3 1 6 -6 6 -7 0 -9 5 -6 10 3 6 1 10 -4 10
-6 0 -17 16 -25 35 -8 19 -19 35 -24 35 -5 0 -17 20 -26 45 -10 25 -21 43 -24
41 -4 -2 -8 9 -9 25 -1 16 3 29 9 29 6 0 9 -3 5 -6z m374 -667 c-1 -12 -15 -9
-19 4 -3 6 1 10 8 8 6 -3 11 -8 11 -12z m60 -87 c6 0 7 -4 4 -10 -3 -5 14 -42
39 -80 26 -39 46 -74 46 -78 0 -4 11 -23 24 -42 13 -19 26 -46 29 -60 4 -14 4
-19 1 -12 -3 6 -11 9 -16 6 -6 -4 -8 -3 -5 3 3 5 -5 26 -18 46 -14 20 -25 40
-25 46 0 13 -34 71 -42 71 -3 0 -12 16 -18 35 -6 19 -16 35 -21 35 -11 0 -49
78 -49 99 1 9 10 -1 21 -21 11 -21 24 -38 30 -38z m223 -403 c49 -85 57 -100
53 -104 -3 -2 -11 10 -18 26 -8 17 -17 31 -20 31 -4 0 -16 18 -27 40 -23 48
-15 53 12 7z m94 -157 c25 -45 28 -56 8 -38 -8 7 -12 16 -9 21 2 4 1 7 -4 7
-4 0 -13 11 -20 25 -18 40 0 29 25 -15z m47 -90 c9 -16 12 -30 7 -30 -4 0 -13
14 -19 30 -6 17 -10 30 -7 30 2 0 10 -13 19 -30z m70 -120 c0 -3 4 -12 10 -20
8 -13 7 -13 -8 -1 -9 7 -14 17 -11 22 3 5 -2 12 -10 15 -9 3 -13 11 -10 16 6
9 28 -16 29 -32z m39 -65 c9 -14 12 -25 7 -25 -5 0 -13 9 -16 20 -4 11 -11 18
-16 15 -5 -4 -9 -1 -9 4 0 19 17 12 34 -14z m47 -76 c13 -25 -12 -16 -29 11
-10 16 -9 18 3 13 9 -3 20 -14 26 -24z m207 -361 c7 -7 12 -16 12 -20 0 -15
-15 -8 -28 12 -13 22 -3 27 16 8z"/>
<path d="M2802 2928 c-8 -8 -12 -67 -12 -198 l0 -186 -30 -47 c-16 -26 -30
-50 -30 -52 0 -2 -17 -32 -39 -67 -21 -35 -160 -274 -309 -533 -290 -505 -334
-582 -480 -835 -204 -353 -360 -626 -376 -657 -14 -29 -15 -33 -1 -33 8 0 15
7 15 16 0 9 5 12 12 8 7 -4 8 -3 4 4 -10 16 12 54 26 46 7 -5 8 -2 3 5 -9 16
15 62 28 54 6 -3 7 -1 3 5 -3 6 -2 13 4 17 6 4 8 11 5 16 -4 5 1 9 10 9 9 0
13 4 10 10 -3 6 -1 10 5 10 6 0 9 4 6 8 -2 4 9 32 26 62 17 30 42 76 56 102
18 33 29 43 35 35 6 -8 7 -8 4 3 -6 22 31 92 45 84 7 -4 8 -3 4 4 -8 13 24 73
35 67 4 -3 6 3 5 13 0 9 4 16 10 15 6 -1 11 8 10 20 -1 13 5 22 14 22 8 0 15
7 15 15 0 8 9 34 19 57 13 29 24 40 35 36 12 -4 13 -2 3 4 -10 8 -8 15 8 35
11 15 20 32 20 40 1 17 25 49 33 43 4 -3 5 -2 2 1 -7 10 15 45 24 40 4 -3 7 3
7 12 -1 22 155 292 166 286 4 -3 5 2 2 10 -3 8 4 24 15 35 12 12 21 23 21 26
0 3 0 10 0 16 0 5 5 7 10 4 6 -4 10 -3 9 2 -3 20 2 34 11 28 6 -4 7 1 3 11 -5
13 -3 15 7 9 9 -5 11 -4 6 4 -5 7 20 60 62 129 38 64 122 210 187 324 66 114
123 204 128 201 6 -3 7 -1 4 4 -4 6 20 58 53 116 l60 104 0 187 c0 117 4 186
10 186 6 0 10 5 10 10 0 14 -13 13 -28 -2z"/>
<path d="M297 2882 c-15 -3 -17 -20 -17 -138 l0 -134 1225 0 1225 0 0 130 c0
72 -1 133 -2 137 -3 7 -2396 12 -2431 5z m2412 -104 c0 -53 -4 -86 -10 -83 -5
4 -9 -5 -9 -19 0 -14 -9 -31 -22 -40 -24 -17 -91 -20 -123 -5 -14 6 -7 7 23 3
59 -8 100 10 110 50 11 40 6 53 -27 71 -24 13 -24 14 -5 15 12 0 28 7 35 16
11 14 10 20 -14 40 -53 45 -138 25 -152 -36 -7 -32 1 -41 53 -64 43 -19 60
-49 22 -39 -11 3 -20 1 -20 -5 0 -14 36 -22 48 -10 18 18 1 45 -41 64 -74 33
-56 94 27 94 44 0 74 -19 61 -40 -10 -16 -45 -12 -45 6 0 10 -7 14 -22 12 -38
-5 -26 -32 25 -56 36 -17 47 -28 47 -45 0 -44 -21 -58 -80 -55 -48 3 -55 6
-58 26 -3 18 1 22 23 22 15 0 24 4 20 10 -10 16 -55 12 -61 -5 -5 -11 -18 -15
-45 -13 -50 4 -53 28 -4 28 19 0 35 4 35 8 0 5 -19 6 -42 3 -38 -5 -43 -9 -43
-31 0 -23 3 -25 48 -25 36 0 49 -4 53 -17 9 -31 -5 -38 -77 -38 l-69 0 0 95
c0 52 -1 98 -2 103 -2 4 31 9 72 12 83 6 84 16 3 19 -73 3 -91 -9 -95 -66 -2
-29 -8 -48 -17 -51 -10 -3 -12 0 -7 14 5 11 10 31 13 47 4 24 0 29 -31 42 -44
18 -120 19 -134 2 -6 -7 -12 -56 -13 -108 -2 -108 5 -101 -95 -102 -38 -1 -68
4 -78 12 -13 11 -19 11 -31 1 -8 -7 -47 -15 -85 -18 l-70 -5 0 107 0 106 50 0
c27 0 60 -5 73 -11 23 -10 24 -15 19 -78 -2 -36 -9 -71 -14 -78 -5 -7 -35 -14
-66 -16 l-57 -3 61 -2 c73 -2 94 14 90 68 -1 19 1 50 5 68 6 28 4 35 -17 48
-33 22 -136 31 -151 12 -7 -7 -13 -52 -15 -98 l-3 -85 -30 0 c-20 0 -30 5 -30
15 0 9 -11 16 -28 18 -22 3 -30 -1 -34 -17 -3 -11 -15 -22 -27 -24 -17 -4 -17
-4 5 -6 19 -1 28 5 32 19 3 13 10 18 21 14 25 -10 -22 -54 -56 -54 -35 0 -35
7 -1 121 l27 89 39 0 c30 0 38 -3 33 -15 -3 -8 6 -47 19 -87 21 -64 23 -67 18
-28 -3 25 -9 49 -14 54 -5 6 -9 24 -9 41 0 17 -5 36 -12 43 -21 21 -69 14 -94
-13 -13 -14 -19 -25 -14 -25 4 0 6 -9 3 -20 -3 -11 -10 -17 -15 -14 -6 4 -8
-2 -3 -15 3 -11 2 -21 -3 -21 -6 0 -8 -10 -4 -22 3 -13 1 -19 -5 -15 -7 5 -9
-1 -6 -15 4 -19 3 -20 -7 -8 -10 13 -11 12 -7 -6 3 -13 -3 -25 -14 -32 -23
-15 -76 -16 -84 -2 -4 6 9 10 33 10 l38 0 26 85 c14 47 22 85 18 85 -4 0 -18
-36 -31 -80 -22 -78 -24 -80 -54 -80 -30 0 -32 3 -52 73 -12 39 -25 80 -28 90
-6 14 -2 17 24 17 17 0 31 5 31 10 0 12 -40 13 -58 1 -16 -10 -9 -56 19 -140
18 -51 18 -55 1 -67 -20 -15 -68 -18 -77 -5 -3 5 9 11 26 13 27 2 33 7 33 30
1 14 -2 24 -6 22 -7 -4 -13 33 -10 58 1 3 -5 11 -13 18 -7 6 -11 18 -8 26 3 8
0 14 -6 14 -15 0 -14 -9 13 -89 l24 -71 -29 0 c-22 0 -29 5 -29 20 0 26 -44
27 -62 2 -7 -11 -20 -21 -28 -25 -10 -3 -7 -6 8 -6 12 -1 25 6 28 14 4 8 15
15 26 15 10 0 16 -5 13 -10 -4 -6 -10 -8 -15 -5 -4 3 -10 -4 -13 -15 -5 -18
-14 -20 -76 -20 l-71 0 0 44 c0 47 -17 70 -44 60 -10 -4 -16 -18 -16 -39 0
-23 -5 -35 -17 -39 -11 -3 -7 -4 7 -3 21 2 25 7 25 35 0 19 5 32 12 32 18 0
17 -65 -1 -79 -8 -7 -27 -11 -42 -9 l-27 3 0 100 0 100 59 3 c41 2 65 -2 79
-12 19 -15 20 -16 2 -47 -14 -25 -15 -34 -6 -40 7 -4 13 -22 13 -41 1 -24 -4
-35 -19 -40 -14 -4 -9 -6 18 -7 21 -1 37 4 37 10 0 6 12 49 26 96 l26 85 43
-4 c34 -2 41 0 33 9 -13 17 -59 17 -81 1 -9 -7 -28 -51 -42 -98 -20 -67 -25
-76 -22 -44 2 30 -1 40 -10 37 -15 -6 -18 13 -4 21 5 3 11 17 14 32 6 36 -35
60 -109 63 -68 3 -74 -4 -74 -77 0 -48 -2 -52 -15 -38 -12 11 -13 21 -5 41 5
14 10 30 10 35 0 29 -137 53 -166 30 -9 -8 -14 -31 -14 -61 l0 -48 -30 17 -30
17 25 3 c14 2 25 7 25 12 0 4 -9 6 -20 3 -13 -4 -26 1 -34 12 -13 19 -47 17
-53 -2 -3 -7 15 -22 39 -34 24 -12 51 -28 60 -37 25 -22 23 -67 -4 -86 -24
-17 -90 -20 -123 -6 -13 6 -4 7 30 4 65 -6 99 11 103 51 l2 30 -14 -31 c-16
-36 -50 -47 -102 -32 -46 12 -49 48 -3 48 17 0 28 4 24 10 -3 6 1 7 9 4 20 -8
21 -24 1 -24 -19 0 -20 -16 -1 -23 18 -7 38 16 31 35 -3 8 -26 24 -50 36 -48
23 -56 43 -28 74 20 23 95 25 113 3 7 -9 15 -13 18 -10 3 3 -3 14 -13 25 -29
32 -113 23 -137 -14 -18 -26 -8 -65 20 -80 l27 -15 -27 -1 c-15 0 -31 -6 -35
-12 -4 -7 -25 -13 -45 -13 -24 0 -38 5 -38 13 0 7 14 12 35 12 19 0 35 4 35 8
0 5 -19 6 -42 3 -38 -5 -43 -9 -43 -31 0 -23 4 -25 53 -28 48 -3 53 -5 50 -25
-3 -20 -10 -22 -75 -25 l-73 -3 0 106 0 105 71 0 c87 0 83 17 -4 19 -45 1 -68
-3 -76 -13 -8 -10 -11 -47 -9 -115 2 -65 0 -97 -7 -91 -5 4 -19 4 -30 -1 -11
-4 -46 -8 -77 -8 l-58 -1 0 106 0 107 65 -5 c36 -3 72 -11 80 -18 13 -11 14
-10 9 3 -7 19 -23 26 -84 33 -29 3 -57 1 -70 -6 -20 -11 -21 -17 -18 -111 3
-89 1 -99 -14 -99 -10 0 -18 3 -19 8 -5 59 -4 201 2 213 7 14 123 16 1208 16
l1200 0 0 -89z m-1704 40 c29 -13 29 -14 11 -50 -12 -23 -12 -29 0 -39 40 -33
0 -76 -76 -82 l-55 -3 61 -2 c64 -2 86 10 97 53 4 16 5 15 6 -6 2 -47 -19 -61
-97 -67 l-72 -5 0 107 0 106 50 0 c27 0 61 -5 75 -12z m1316 -5 c8 -8 7 -20
-5 -44 -12 -24 -13 -35 -5 -40 7 -4 12 -23 13 -43 1 -28 -3 -36 -19 -40 -11
-2 -5 -4 14 -3 18 1 33 -2 32 -8 -1 -5 -18 -10 -38 -10 -37 0 -38 1 -35 35 4
42 -16 74 -41 64 -11 -4 -17 -17 -17 -39 0 -23 -5 -35 -17 -39 -11 -3 -7 -4 7
-3 21 2 25 7 25 31 0 40 20 44 23 5 3 -41 -13 -59 -52 -59 l-31 0 2 97 c1 54
2 102 2 107 1 12 129 2 142 -11z m29 -124 c0 -16 -4 -28 -9 -25 -5 4 -8 14 -6
24 2 9 4 20 4 25 1 4 3 7 6 7 3 0 5 -14 5 -31z m-560 -54 c0 -10 -11 -15 -35
-15 -44 0 -46 17 -2 23 17 2 33 5 35 5 1 1 2 -5 2 -13z"/>
<path d="M1530 2831 c-5 -11 -14 -37 -19 -58 l-8 -38 -8 42 c-4 24 -11 40 -16
37 -4 -2 -6 -10 -4 -17 2 -7 9 -31 15 -54 6 -24 14 -43 19 -43 4 0 13 29 20
65 13 62 14 65 43 65 17 0 27 4 23 10 -11 17 -54 11 -65 -9z"/>
<path d="M1995 2825 c-22 -21 -25 -33 -25 -93 0 -84 9 -94 85 -96 71 -1 87 14
93 91 2 32 2 56 -1 53 -4 -3 -8 -27 -11 -53 -5 -63 -19 -77 -71 -77 -72 0 -75
3 -75 86 0 62 3 75 19 84 33 17 99 12 121 -10 14 -14 20 -16 20 -6 0 22 -46
46 -90 46 -30 0 -47 -7 -65 -25z"/>
<path d="M400 2740 c0 -68 1 -71 23 -68 20 3 22 8 22 68 0 60 -2 65 -22 68
-22 3 -23 0 -23 -68z m30 0 c0 -27 -4 -50 -10 -50 -5 0 -10 23 -10 50 0 28 5
50 10 50 6 0 10 -22 10 -50z"/>
<path d="M589 2793 c-21 -25 -2 -43 46 -43 25 0 45 5 45 10 0 6 -18 10 -40 10
-22 0 -40 5 -40 10 0 6 15 10 34 10 19 0 37 4 40 8 8 14 -74 9 -85 -5z"/>
<path d="M1117 2803 c-4 -3 -7 -17 -7 -30 0 -18 6 -23 24 -23 30 0 40 13 31
40 -6 19 -35 27 -48 13z"/>
<path d="M1849 2803 c0 -4 -1 -35 -2 -68 -1 -57 0 -60 24 -60 23 0 24 3 24 65
0 60 -2 65 -22 68 -13 2 -23 0 -24 -5z m31 -63 c0 -27 -4 -50 -10 -50 -5 0
-10 23 -10 50 0 28 5 50 10 50 6 0 10 -22 10 -50z"/>
<path d="M2036 2795 c-3 -9 -6 -38 -6 -63 0 -36 5 -50 19 -59 30 -19 43 6 39
74 -3 50 -6 58 -24 61 -13 2 -24 -4 -28 -13z m33 -50 c1 -41 -3 -55 -13 -55
-10 0 -13 12 -11 48 3 60 3 62 14 62 4 0 9 -25 10 -55z"/>
<path d="M2420 2795 c-21 -26 -4 -45 40 -45 22 0 40 5 40 10 0 6 -16 10 -35
10 -19 0 -35 5 -35 10 0 6 16 10 35 10 19 0 35 4 35 8 0 15 -68 12 -80 -3z"/>
<path d="M1315 2773 c-4 -16 -8 -35 -9 -45 -4 -16 27 -32 38 -20 10 9 7 50 -4
57 -5 3 -7 12 -3 20 3 8 0 15 -6 15 -6 0 -13 -12 -16 -27z"/>
<path d="M1670 2776 c-15 -41 -12 -63 10 -69 26 -7 31 3 20 42 -5 17 -9 34 -9
37 1 19 -12 13 -21 -10z"/>
<path d="M501 2780 c-2 -8 -3 -33 -2 -55 2 -59 -9 -69 -81 -76 l-63 -6 61 -1
c81 -3 96 13 91 94 -2 33 -5 52 -6 44z"/>
<path d="M610 2650 l-65 -7 68 -1 c39 -1 67 2 67 8 0 6 -1 9 -2 8 -2 -1 -32
-4 -68 -8z"/>
<path d="M2435 2650 l-60 -7 63 -1 c36 -1 62 2 62 8 0 6 -1 9 -2 8 -2 -1 -30
-4 -63 -8z"/>
<path d="M925 2790 c-8 -25 1 -40 25 -40 20 0 32 22 24 45 -9 22 -42 18 -49
-5z"/>
<path d="M925 2720 c-12 -20 6 -51 28 -48 31 4 31 52 0 56 -11 2 -24 -2 -28
-8z m35 -15 c0 -8 -4 -15 -10 -15 -5 0 -10 7 -10 15 0 8 5 15 10 15 6 0 10 -7
10 -15z"/>
<path d="M2227 2803 c-4 -3 -7 -17 -7 -30 0 -18 6 -23 24 -23 30 0 40 13 31
40 -6 19 -35 27 -48 13z m25 -35 c-9 -9 -12 -7 -12 12 0 19 3 21 12 12 9 -9 9
-15 0 -24z"/>
<path d="M291 2546 c-9 -10 -6 -17 11 -28 13 -9 30 -28 38 -44 8 -16 17 -31
20 -34 16 -16 60 -113 55 -121 -4 -5 -1 -8 7 -7 7 2 12 -5 12 -14 -1 -10 2
-16 7 -15 8 2 99 -149 99 -165 0 -4 4 -8 8 -8 5 0 19 -21 32 -47 13 -27 32
-60 42 -75 11 -16 16 -28 11 -28 -4 0 -3 -4 3 -8 6 -4 16 -16 22 -27 9 -16 11
-17 12 -4 0 9 -8 27 -19 40 -10 13 -20 29 -22 34 -3 9 -81 141 -124 213 -6 10
-37 64 -69 122 -33 58 -73 124 -88 148 -16 23 -25 42 -21 42 4 0 1 5 -7 10
-10 6 405 10 1182 10 962 0 1196 -2 1194 -13 -1 -7 -13 -28 -28 -47 -14 -19
-33 -51 -42 -70 -21 -47 -46 -90 -74 -124 -12 -16 -22 -34 -22 -40 0 -7 -23
-47 -51 -90 -28 -43 -55 -90 -62 -105 -6 -14 -17 -34 -25 -43 -18 -21 -44 -67
-82 -146 -20 -40 -35 -60 -43 -56 -7 4 -9 4 -5 -1 11 -12 -21 -67 -34 -59 -6
4 -8 3 -5 -3 7 -12 -14 -63 -26 -63 -5 0 -5 -4 -2 -10 3 -5 1 -10 -4 -10 -6 0
-11 -5 -11 -11 0 -6 -11 -25 -25 -43 -14 -18 -25 -38 -25 -44 0 -7 -5 -12 -11
-12 -5 0 -8 -4 -5 -8 2 -4 -9 -28 -26 -52 -26 -39 -72 -117 -131 -223 -10 -18
-26 -45 -37 -62 -11 -16 -26 -45 -34 -63 -9 -18 -20 -31 -25 -28 -5 4 -7 -3
-3 -16 3 -15 2 -19 -7 -14 -7 5 -10 2 -9 -6 2 -7 -2 -12 -9 -11 -8 2 -10 -4
-6 -14 4 -9 0 -21 -8 -27 -9 -6 -18 -19 -22 -28 -4 -13 -17 -18 -42 -18 -19 0
-35 -4 -35 -9 0 -5 11 -8 25 -6 14 1 25 -1 25 -6 0 -16 -23 -59 -32 -59 -4 0
-7 -3 -7 -7 3 -20 -2 -34 -11 -28 -5 3 -10 -3 -10 -15 0 -12 -4 -19 -9 -15 -6
3 -8 -4 -6 -15 2 -11 0 -20 -5 -20 -5 0 -12 -9 -15 -20 -4 -11 -10 -18 -14
-15 -5 2 -13 -7 -20 -21 -6 -15 -7 -23 -1 -19 15 9 12 -4 -4 -20 -7 -8 -17
-11 -21 -7 -5 4 -5 2 -2 -4 4 -7 -2 -23 -13 -36 -11 -14 -16 -28 -13 -32 3 -3
1 -6 -5 -6 -7 0 -11 -4 -10 -9 2 -5 -6 -17 -17 -26 -11 -9 -13 -13 -5 -9 11 6
10 2 -3 -13 -9 -11 -14 -23 -10 -26 3 -4 -1 -7 -10 -7 -10 0 -17 -6 -17 -12 0
-9 -3 -8 -9 2 -6 8 -7 18 -5 22 3 4 -2 8 -10 8 -9 0 -17 5 -17 10 -1 6 -2 13
-3 18 -1 4 -18 33 -39 65 -21 32 -34 63 -31 69 4 6 3 8 -3 5 -8 -5 -38 41 -34
51 1 1 -5 10 -14 18 -8 9 -13 20 -10 25 4 5 2 9 -2 9 -9 0 -58 75 -58 88 0 5
-8 17 -18 27 -10 9 -16 24 -13 31 3 8 1 13 -5 11 -6 -1 -22 18 -36 43 -14 25
-46 81 -73 125 -26 44 -50 87 -53 95 -4 8 -27 47 -52 85 -24 39 -44 76 -45 83
0 6 -4 12 -10 12 -5 0 -10 6 -10 13 0 12 -39 67 -40 55 0 -18 178 -330 192
-336 4 -2 8 -8 8 -13 0 -5 21 -46 47 -90 90 -152 103 -174 109 -189 4 -8 12
-22 19 -30 7 -8 26 -40 42 -70 16 -30 44 -78 61 -106 18 -28 32 -56 32 -63 0
-6 4 -11 9 -11 5 0 11 -8 15 -17 10 -31 51 -96 59 -97 7 -1 264 428 348 582
17 30 54 94 84 143 30 50 55 92 55 94 0 2 21 39 47 82 25 43 110 188 188 323
199 343 266 459 388 667 59 100 107 187 107 192 0 7 -391 10 -1214 11 -1009 0
-1216 -3 -1225 -14z"/>
<path d="M676 2422 c-16 -26 75 -444 118 -537 27 -60 33 -91 16 -80 -5 3 -10
1 -10 -5 0 -10 36 -6 48 5 2 2 -10 32 -26 67 -17 35 -39 93 -51 131 -29 95
-88 417 -77 417 3 0 17 -5 31 -10 14 -6 81 -22 148 -36 196 -41 355 -34 573
27 52 14 79 17 97 10 13 -5 82 -22 153 -37 209 -43 356 -35 593 32 102 29 42
25 -101 -7 -191 -42 -318 -44 -498 -5 -184 40 -185 40 -300 12 -228 -55 -334
-55 -575 -1 -120 27 -131 29 -139 17z"/>
<path d="M2312 2333 c-9 -63 -8 -83 2 -72 8 8 23 139 15 139 -4 0 -11 -30 -17
-67z"/>
<path d="M1430 2339 c-206 -52 -324 -57 -544 -23 -55 9 -102 12 -107 7 -9 -9
18 -160 51 -281 23 -83 78 -203 114 -246 21 -25 26 -27 47 -16 13 7 26 14 28
16 2 1 -6 15 -17 31 -27 39 -57 100 -75 155 -24 69 -70 248 -66 253 2 2 27 -1
54 -7 28 -5 115 -10 195 -11 134 -2 154 1 273 32 l127 33 133 -33 c117 -29
147 -33 267 -32 74 0 162 5 194 12 65 12 80 8 50 -14 -23 -18 -15 -19 23 -3
15 6 33 10 40 9 11 -1 38 97 29 107 -3 2 -54 -4 -113 -14 -159 -26 -308 -24
-470 9 -72 15 -138 29 -145 31 -7 2 -47 -5 -88 -15z m191 -20 c136 -29 204
-39 289 -39 67 0 231 19 307 35 24 5 26 4 13 -7 -8 -7 -14 -25 -12 -40 3 -24
0 -28 -22 -28 -14 0 -26 5 -26 11 0 8 -13 9 -38 5 -21 -3 -81 -8 -133 -12 -52
-3 -104 -7 -116 -9 -13 -2 -25 0 -28 5 -2 4 14 8 36 8 23 1 44 3 47 6 3 3 -25
6 -61 6 -37 0 -67 -4 -67 -8 0 -4 -9 -8 -20 -8 -25 0 -26 13 -2 19 9 2 -5 7
-31 12 -26 4 -51 5 -54 1 -4 -3 5 -6 20 -6 14 0 29 -5 32 -11 8 -11 -34 -7
-68 6 -15 6 -16 10 -5 16 10 7 9 9 -4 9 -9 0 -18 -5 -20 -11 -2 -7 -26 -5 -75
7 -49 12 -70 21 -66 30 6 16 -39 6 -49 -12 -8 -12 -105 -40 -114 -32 -2 3 22
11 53 18 32 7 53 15 46 17 -6 2 -37 -3 -70 -11 -97 -25 -220 -39 -296 -34 -62
4 -68 3 -44 -7 16 -6 56 -10 90 -8 34 2 57 0 50 -4 -16 -12 -133 -7 -285 12
-53 6 -51 8 -52 -62 -1 -24 3 -43 8 -43 4 0 2 -8 -5 -17 -9 -11 -10 -14 -2
-10 12 7 18 -5 28 -59 2 -10 4 -20 4 -21 1 -2 1 -5 1 -8 0 -3 7 -21 15 -41 8
-20 15 -45 15 -55 0 -11 5 -19 11 -19 6 0 8 -9 4 -20 -3 -11 -2 -20 3 -20 16
0 41 -46 33 -59 -10 -15 -58 63 -67 108 -4 18 -11 28 -17 24 -6 -3 -7 -1 -3 5
3 6 -2 26 -12 44 -11 18 -18 41 -16 51 1 9 -3 17 -9 17 -7 0 -3 8 8 17 15 12
16 14 3 10 -19 -7 -26 6 -24 45 1 14 -1 25 -5 22 -7 -4 -12 20 -25 110 -7 48
-6 49 17 42 13 -3 74 -14 134 -22 139 -20 291 -13 435 20 132 30 128 30 241 5z"/>
<path d="M2145 2280 l-30 -8 32 -1 c17 0 35 4 38 9 7 11 3 11 -40 0z"/>
<path d="M915 2271 c31 -9 102 -14 94 -7 -2 2 -31 6 -64 9 -39 4 -50 3 -30 -2z"/>
<path d="M2040 2272 c-19 -2 -38 -7 -42 -11 -7 -6 31 -5 82 2 30 5 -6 12 -40
9z"/>
<path d="M2335 2255 c-15 -23 -228 -106 -595 -231 -184 -64 -371 -127 -415
-141 -44 -14 -100 -35 -124 -45 -63 -28 -34 -40 40 -18 32 10 59 16 59 13 0
-3 6 -1 13 5 6 5 48 22 92 37 44 14 87 29 95 32 8 3 20 7 25 9 6 1 26 9 46 18
20 8 39 12 43 9 3 -4 6 -2 6 3 0 7 65 33 100 39 3 1 23 9 44 18 22 10 41 16
43 14 2 -2 -54 -31 -124 -64 -418 -198 -473 -227 -473 -243 0 -9 17 -50 39
-91 30 -58 43 -74 60 -73 19 1 20 -1 7 -20 -7 -12 -22 -22 -33 -24 -28 -4 -74
-54 -64 -70 6 -9 15 -6 36 14 l28 26 41 -31 c22 -17 74 -51 114 -76 l74 -46
46 27 c271 157 518 392 582 554 20 51 60 180 74 240 6 28 76 71 76 47 0 -31
-54 -217 -82 -284 -75 -181 -270 -375 -581 -577 l-118 -77 -123 80 c-125 83
-151 96 -116 61 11 -11 25 -20 30 -20 6 0 15 -10 20 -22 5 -13 9 -17 9 -10 1
11 4 11 16 0 32 -29 42 -36 63 -42 12 -4 22 -12 22 -17 0 -5 7 -9 16 -9 9 0
12 -5 8 -12 -5 -7 -3 -8 6 -3 8 5 18 2 25 -8 11 -15 21 -11 101 37 320 195
573 443 644 633 25 66 70 237 70 264 0 12 10 23 26 29 14 6 23 14 19 19 -3 5
-1 12 5 16 12 7 14 25 2 25 -4 0 -12 -7 -17 -15z m-135 -108 c0 -23 -66 -219
-90 -267 -34 -68 -126 -190 -143 -190 -6 0 -1 10 11 23 12 13 22 29 22 36 0 7
4 10 8 7 4 -2 13 8 20 23 7 15 22 38 35 51 12 14 20 25 18 25 -2 0 7 20 19 45
13 25 25 52 26 60 2 8 9 41 18 73 8 31 10 57 5 57 -4 0 -16 -26 -25 -57 -66
-226 -190 -372 -493 -581 -96 -67 -135 -85 -128 -63 3 14 -122 94 -138 87 -26
-10 -17 -21 56 -66 86 -55 118 -79 64 -50 -70 38 -174 105 -175 111 0 4 9 9
21 12 12 3 18 10 15 16 -4 5 6 11 21 13 37 4 38 33 1 33 -14 -1 -24 3 -22 7 6
9 -31 29 -40 21 -3 -3 -6 -1 -6 6 0 6 -16 37 -35 67 -41 64 -43 74 -12 72 12
-1 96 33 186 76 90 43 201 95 245 116 45 20 138 65 207 98 70 33 142 67 161
75 18 8 41 22 51 31 9 10 17 13 17 7 0 -6 15 -2 33 9 29 18 47 25 47 17z
m-261 -493 c-13 -14 -33 -30 -44 -36 -11 -5 -3 7 17 26 43 41 63 49 27 10z
m-124 -109 c-35 -28 -58 -34 -29 -7 18 17 39 29 54 31 3 1 -8 -10 -25 -24z"/>
<path d="M2105 2048 c-31 -95 -66 -171 -105 -227 -74 -110 -267 -279 -438
-385 -24 -15 -42 -30 -39 -33 3 -2 41 19 84 48 220 147 378 300 442 428 38 74
85 210 77 218 -2 2 -12 -20 -21 -49z"/>
<path d="M2306 2110 c-4 -28 -9 -58 -12 -68 -5 -15 -4 -15 5 -1 11 16 27 119
19 119 -3 0 -8 -23 -12 -50z"/>
<path d="M1144 2057 c-25 -26 -139 -59 -173 -50 -21 5 -22 4 -12 -15 6 -11 25
-23 42 -27 17 -4 32 -12 34 -18 20 -70 50 -137 62 -137 27 0 1 -20 -73 -56
-74 -35 -99 -62 -46 -50 34 9 101 43 125 64 19 17 25 88 5 76 -8 -5 -9 -2 -5
9 3 9 2 19 -4 22 -5 4 -7 10 -4 15 3 5 0 12 -6 15 -5 4 -8 13 -5 20 2 7 -1 16
-8 18 -13 5 -30 47 -17 45 3 -1 14 2 24 7 26 11 34 -1 51 -84 9 -41 18 -76 20
-79 13 -13 17 57 6 105 -11 49 -10 59 6 89 23 43 9 63 -22 31z"/>
<path d="M2247 1916 c-4 -10 -5 -21 -2 -24 9 -9 17 6 13 25 -3 17 -4 17 -11
-1z"/>
<path d="M722 1818 c27 -46 54 -92 59 -103 5 -11 13 -27 19 -35 5 -8 32 -53
60 -100 27 -47 50 -80 50 -74 0 5 -25 52 -55 103 -30 51 -55 97 -55 101 0 5
-17 35 -39 67 -21 32 -46 73 -55 91 -9 17 -21 32 -26 32 -5 0 14 -37 42 -82z"/>
<path d="M2210 1833 c-82 -155 -296 -357 -560 -528 -121 -78 -133 -88 -105
-83 11 1 29 11 39 21 11 9 23 17 28 17 19 0 252 170 326 237 19 18 39 30 44
27 5 -3 7 -1 6 4 -2 6 23 36 54 69 83 85 117 123 112 123 -3 0 1 7 8 15 26 29
34 40 41 58 4 10 11 16 16 13 5 -3 7 3 4 14 -3 11 -1 20 4 20 5 0 9 9 10 20 1
11 1 20 0 20 -1 0 -13 -21 -27 -47z"/>
<path d="M890 1785 c0 -10 -10 -15 -31 -15 l-30 0 20 -37 c11 -21 30 -64 42
-96 11 -32 23 -56 26 -53 3 3 -6 35 -21 71 -31 78 -31 77 -6 93 18 11 21 9 30
-13 12 -31 15 -31 17 -4 2 23 -24 69 -38 69 -5 0 -9 -7 -9 -15z"/>
<path d="M1047 1672 l-69 -25 6 -41 c6 -38 4 -42 -24 -58 -36 -21 -42 -53 -7
-42 50 16 68 36 64 68 -3 17 -8 40 -13 50 -6 16 -4 18 19 14 15 -3 24 -1 21 3
-3 5 2 9 10 9 8 0 48 -29 88 -65 39 -36 80 -65 90 -65 24 0 23 1 -14 62 -18
29 -40 67 -49 83 -21 38 -38 39 -122 7z m124 -34 c12 -24 22 -45 22 -48 0 -3
7 -11 14 -18 7 -7 13 -18 13 -24 0 -9 -60 35 -113 83 -18 17 -18 17 2 24 12 3
21 11 21 16 0 23 21 5 41 -33z"/>
<path d="M1046 1566 c3 -9 12 -16 20 -16 7 0 20 -12 28 -27 8 -16 15 -23 16
-18 0 6 3 6 8 0 12 -18 72 -57 72 -48 0 9 -123 115 -141 121 -5 2 -6 -3 -3
-12z"/>
<path d="M1246 1141 c-12 -14 -16 -35 -15 -82 l2 -64 32 0 c18 0 31 3 28 8 -2
4 -13 7 -24 7 -17 0 -19 7 -19 58 0 62 11 82 46 82 29 0 61 -30 43 -40 -8 -6
-6 -9 7 -12 17 -4 16 -6 -6 -15 -23 -10 -25 -8 -28 19 -2 21 -8 28 -20 26 -31
-6 -22 -108 9 -108 5 0 9 7 9 15 0 8 9 15 20 15 18 0 19 -3 10 -20 -6 -11 -16
-20 -22 -20 -6 0 -8 -3 -5 -7 4 -3 16 2 26 11 19 17 19 17 14 -3 -3 -11 -14
-23 -24 -26 -10 -4 -19 -11 -19 -16 0 -6 6 -6 18 0 9 5 22 9 27 10 6 0 11 39
13 86 2 58 7 85 15 85 19 0 34 -14 40 -35 4 -19 5 -19 6 1 2 33 -18 41 -95 42
-58 1 -75 -2 -88 -17z m54 -61 c0 -22 -3 -40 -7 -40 -5 0 -7 17 -6 37 2 44 2
43 8 43 3 0 5 -18 5 -40z"/>
<path d="M1455 1152 c-3 -3 -5 -27 -5 -53 0 -26 -5 -51 -12 -55 -7 -5 -9 -2
-6 8 4 8 2 21 -4 29 -8 11 -9 11 -5 -2 3 -9 1 -22 -3 -29 -9 -14 -14 -1 -23
60 -3 14 -5 2 -6 -27 -1 -51 -1 -52 32 -55 24 -2 33 -8 35 -25 3 -21 -1 -23
-37 -23 -23 0 -41 -3 -41 -7 0 -5 20 -8 44 -8 24 0 44 2 44 5 -1 21 4 30 20
31 13 0 11 3 -6 9 -21 9 -23 15 -20 72 3 57 5 63 26 64 20 1 22 -3 20 -55 l-1
-56 -7 50 -7 50 1 -55 c1 -42 5 -55 16 -55 12 0 15 14 16 60 1 52 4 60 20 60
17 0 19 -8 19 -75 0 -68 -2 -75 -23 -86 -16 -8 -19 -13 -10 -17 32 -12 47 18
50 98 3 72 5 78 25 81 12 2 34 -1 48 -6 22 -8 24 -12 13 -35 -9 -20 -8 -28 5
-43 36 -40 11 -82 -48 -82 -14 0 -24 -4 -20 -9 3 -5 18 -6 33 -2 15 4 36 6 47
5 19 -1 20 5 20 85 l0 86 42 0 c24 0 43 3 43 8 0 4 -22 7 -50 7 -30 0 -50 -4
-50 -11 0 -8 -4 -8 -13 -1 -13 11 -211 15 -222 4z m226 -75 c-8 -8 -11 -7 -11
4 0 20 13 34 18 19 3 -7 -1 -17 -7 -23z"/>
<path d="M1552 1078 c-2 -42 -6 -60 -19 -67 -10 -6 -13 -11 -7 -11 24 0 35 29
31 82 l-3 53 -2 -57z"/>
<path d="M1610 1110 c0 -11 6 -20 13 -20 19 0 27 10 20 26 -8 21 -33 17 -33
-6z"/>
<path d="M1727 1115 c-7 -17 -2 -20 43 -29 31 -5 36 -4 36 14 0 13 -4 16 -10
10 -13 -13 -56 -13 -56 -1 0 5 10 12 23 14 20 4 19 4 -4 6 -15 0 -29 -5 -32
-14z"/>
<path d="M1610 1045 c0 -28 24 -34 34 -9 8 20 -1 34 -20 34 -8 0 -14 -10 -14
-25z"/>
<path d="M1724 1059 c-3 -6 -2 -14 2 -19 14 -12 74 -20 74 -10 0 6 -13 10 -30
10 -35 0 -40 17 -7 23 19 4 19 4 -5 6 -15 0 -30 -4 -34 -10z"/>
<path d="M1666 1033 c-5 -16 -17 -23 -44 -26 l-37 -4 36 -1 c38 -2 64 17 57
40 -3 8 -8 4 -12 -9z"/>
<path d="M1398 1003 c12 -2 30 -2 40 0 9 3 -1 5 -23 4 -22 0 -30 -2 -17 -4z"/>
<path d="M1728 1003 c12 -2 32 -2 45 0 12 2 2 4 -23 4 -25 0 -35 -2 -22 -4z"/>
<path d="M1260 971 c0 -10 26 -9 36 2 4 4 -2 7 -14 7 -12 0 -22 -4 -22 -9z"/>
</g>
</svg>
