<?xml version="1.0" encoding="utf-8"?>
<!-- Generator: Adobe Illustrator 21.0.2, SVG Export Plug-In . SVG Version: 6.00 Build 0)  -->
<svg version="1.1" id="Camada_1" xmlns="http://www.w3.org/2000/svg" xmlns:xlink="http://www.w3.org/1999/xlink" x="0px" y="0px"
	 viewBox="0 0 595 842" style="enable-background:new 0 0 595 842;" xml:space="preserve">
<style type="text/css">
	.st0{fill-rule:evenodd;clip-rule:evenodd;fill:#C33739;}
	.st1{fill-rule:evenodd;clip-rule:evenodd;fill:#D07770;}
	.st2{fill-rule:evenodd;clip-rule:evenodd;fill:#FFFFFF;}
	.st3{fill-rule:evenodd;clip-rule:evenodd;}
	.st4{fill-rule:evenodd;clip-rule:evenodd;fill:#EDEEF0;}
	.st5{fill-rule:evenodd;clip-rule:evenodd;fill:#FEEE00;}
	.st6{fill:#FEEE00;}
</style>
<g>
	<g>
		<path class="st0" d="M312.5,188.7c144.4,0,261.6,112.6,261.6,251.4S456.9,691.6,312.5,691.6S50.9,579,50.9,440.2
			S168,188.7,312.5,188.7z"/>
		<path d="M312.5,695.6c-70.9,0-137.6-26.6-187.7-74.8c-50.2-48.3-77.9-112.4-77.9-180.7s27.6-132.4,77.9-180.7
			c50.2-48.2,116.8-74.8,187.7-74.8s137.6,26.6,187.7,74.8c50.2,48.3,77.9,112.4,77.9,180.7s-27.6,132.4-77.9,180.7
			C450,669,383.4,695.6,312.5,695.6z M312.5,192.7c-142,0-257.6,111-257.6,247.4s115.5,247.4,257.6,247.4S570,576.6,570,440.2
			S454.5,192.7,312.5,192.7z"/>
	</g>
	<path class="st1" d="M312.5,213.2c130.4,0,236.2,101.7,236.2,226.9c0,125.4-105.8,227-236.2,227S76.3,565.5,76.3,440.2
		C76.3,314.9,182.1,213.2,312.5,213.2z"/>
	<path class="st0" d="M312.5,623.1c104.8,0,190.4-82.2,190.4-183c0-100.7-85.5-183-190.4-183s-190.4,82.2-190.4,183
		C122.1,541,207.6,623.1,312.5,623.1z"/>
	<g>
		<path class="st2" d="M312.5,269.1c98.3,0,178,76.6,178,171.1s-79.7,171.1-178,171.1s-178-76.6-178-171.1S214.2,269.1,312.5,269.1z
			"/>
		<path d="M312.5,611.3c-24,0-47.4-4.5-69.3-13.5c-21.2-8.6-40.3-21-56.6-36.7c-16.4-15.7-29.2-34-38.2-54.4
			c-9.3-21.1-14-43.5-14-66.6s4.7-45.5,14-66.6c9-20.4,21.8-38.7,38.2-54.4c16.4-15.7,35.4-28.1,56.6-36.7
			c22-8.9,45.3-13.5,69.3-13.5s47.4,4.5,69.3,13.5c21.2,8.6,40.3,21,56.6,36.7c16.4,15.7,29.2,34,38.2,54.4
			c9.3,21.1,14,43.5,14,66.6s-4.7,45.5-14,66.6c-9,20.4-21.8,38.7-38.2,54.4c-16.4,15.7-35.4,28.1-56.6,36.7
			C359.8,606.8,336.5,611.3,312.5,611.3z M312.5,269.2c-24,0-47.3,4.5-69.2,13.4c-21.2,8.6-40.2,20.9-56.5,36.6
			c-16.3,15.7-29.2,34-38.1,54.3c-9.3,21.1-14,43.5-14,66.5s4.7,45.5,14,66.5c9,20.4,21.8,38.6,38.1,54.3
			c16.3,15.7,35.4,28,56.5,36.6c21.9,8.9,45.2,13.4,69.2,13.4c24,0,47.3-4.5,69.2-13.4c21.2-8.6,40.2-20.9,56.5-36.6
			s29.2-34,38.1-54.3c9.3-21.1,14-43.5,14-66.5s-4.7-45.5-14-66.5c-9-20.4-21.8-38.6-38.1-54.3c-16.3-15.7-35.4-28-56.5-36.6
			C359.8,273.7,336.5,269.2,312.5,269.2z"/>
	</g>
	<g>
		<path class="st3" d="M191.4,469.9c-46.2-6.2-43.7-21.8-57.4,20.6c-5,15.6,6.2,56.7,9.4,73c6.8,35.5,17.4,31.8,46.7,31.8l266.3-5
			c39.3,0,17.5-23,3.7-51.1c-16.8-33.7-64.2-59.9-98.6-76.8c-19.3-9.4-39.9-18.1-64.7-9.4c-18.7,6.3-53.1,10.7-72.4,10.7
			C217.5,463.7,188.2,464.9,191.4,469.9z"/>
		<path d="M176.6,603.4c-9.8,0-17.8-0.6-24.6-5.1c-8.2-5.4-13-15-16.5-33.3c-0.6-3-1.5-6.9-2.5-11.5c-6-26.8-11-51.9-6.6-65.5
			c5.7-17.5,8.7-25.7,14.3-30.4c7.1-5.8,15.1-3.7,25.3-1.1c5.6,1.5,12.5,3.2,21.5,4.7c3.3-2.3,8.8-3.6,18-4.5c7.4-0.8,15.4-1,18.9-1
			c18.5,0,51.7-4.2,69.8-10.2c27.2-9.5,49.9-0.4,70.8,9.7c35.3,17.3,84.3,44.5,102.2,80.4c2.5,5,5.2,9.9,7.8,14.6
			c8.3,14.7,15.4,27.5,9.4,37.8c-5.4,9.2-18.5,10.3-28,10.3l-266.3,5c-2.7,0-5.2,0-7.5,0.1C180.5,603.3,178.5,603.4,176.6,603.4z
			 M151.6,469.9c-0.3,0-0.5,0-0.7,0.1c-2.4,1.4-6.9,15.4-9.3,23c-3.4,10.6,3.4,40.8,7,57.1c1,4.7,2,8.7,2.6,11.9
			c2.5,13.2,5.5,20.3,9.6,22.9c4,2.6,11.4,2.5,21.6,2.4c2.4,0,5-0.1,7.7-0.1l266.3-5c12.1,0,14.3-2.4,14.3-2.4
			c1.1-2.9-5.5-14.8-9.5-21.9c-2.7-4.9-5.6-9.9-8.2-15.3c-15.8-31.5-61.7-56.8-94.9-73.1c-19.3-9.4-37.1-16.5-58.6-9l-0.1,0
			c-19.8,6.6-54.7,11.1-74.9,11.1c-6.5,0-15.3,0.6-21.5,1.4l4.4,7l-17.1-2.3c-12.5-1.7-21.7-4-28.3-5.8
			C158.2,471.1,153.6,469.9,151.6,469.9z"/>
	</g>
	<g>
		<path class="st2" d="M73.4,680.3l96.6-27.7l1.6-19.7c102.5-15.1,196.4-13.6,282.1,4.2l0.5,18.4l96.2,24.7c-5-16.1-13-28.2-22.6-38
			c12.7-8.9,22-17.1,22.6-23.6L501,601.8v-26.4c-112.5-33.3-250.6-36.6-379.3,0v27.2l-48.3,16c-4.4,3.9,14.4,16.4,21.6,24.6
			C87.8,655.7,76.2,666.8,73.4,680.3z"/>
		<path d="M68.2,685.9l1.3-6.5c2-9.9,8.1-18.3,14-26.4c2.2-3,4.5-6.2,6.5-9.3c-2.1-2.1-4.8-4.4-7.4-6.7c-8.8-7.7-13.8-12.3-13.9-17
			c0-1.7,0.7-3.3,2-4.5l0.6-0.5l46.3-15.3v-27.3l2.9-0.8c123.5-35.2,262.5-35.2,381.5,0l2.9,0.8v26.5l49.7,16.9l-0.3,3.2
			c-0.7,6.7-6.9,13.9-20.5,23.8c9.4,10.5,16.1,22.4,20.4,36.2l2.1,6.9l-106.1-27.2l-0.5-18.3c-83.4-16.9-175.7-18.3-274.5-4
			l-1.6,19.2L68.2,685.9z M458.2,652.5l86,22.1c-4.4-11.1-10.7-20.8-19.2-29.5l-3.3-3.4l3.9-2.7c12.5-8.7,17.8-14.3,19.9-17.8
			L497,604.7v-26.2c-116-33.6-251-33.6-371.3,0v27.1l-48,15.9c2.1,2.6,7,6.9,10.2,9.7c3.7,3.2,7.6,6.6,10.2,9.5l1.9,2.2l-1.4,2.5
			c-2.5,4.3-5.5,8.5-8.5,12.5c-4.1,5.6-8,11-10.5,16.6l86.7-24.9l1.6-20.1l3.1-0.5c102.1-15.1,197.5-13.6,283.5,4.3l3.1,0.6
			L458.2,652.5z"/>
	</g>
	<g>
		<path class="st4" d="M355.7,278.4c39.5,26.3,107.1,68.2,121.2,111.1c5.1,16.2,3,25.8-3,38.4c-9.6,19.7-3-18.6-37.4-18.6
			c-4.5,0-24.3-15.1-28.8-17.2c-18.1-9.1-7.1,3.1-7.6,3.1c-57.1,28.2,18.7,89.3,1,107c-6.6,6.6-20.2,5.5-34.3,19.7
			c-5.5,5.5-25.8,33.8-26.3,31.8c-4-16.7-3.5-15.2-8.6-4.5c-7.1,14.6-20.7-9.6-20.7-19.7c0-3-2.5-8.1-2.5-11.1c0-1-3,29.8-15.1,11.6
			c-6.6-9.6-11.1-38.9-11.1-19.2c0,19.7-6,24.3-12.6,37.9c-5.5,11.6-11.2-18.7-15.7-23.3c-8.1-8.1-15.1,24.8-43.9-4
			c-14.7-14.7-14.7-1-14.7-40.5c0-25.7-10.1,26.8-10.1-18.6c0-16.7,6-36.9,6-52c0-13.1-24.3,30.2-4.5-9.6
			c30.3-60.6-1-64.7,38.4-104.1C254.7,267.2,345.6,272.8,355.7,278.4z"/>
		<path d="M340.8,555.8c-0.2,0-0.4,0-0.6-0.1c-0.8-0.2-1.4-0.8-1.6-1.6l-0.2-0.9c-0.9-3.5-1.6-6.6-2.2-8.5c-0.4,0.7-0.8,1.6-1.2,2.5
			c-0.4,0.8-0.8,1.7-1.3,2.7c-2.9,5.9-6.8,6-8.8,5.5c-7.9-1.8-15.7-17.9-15.7-26.1c0-0.6-0.1-1.3-0.3-2c-1.7,6.1-4.1,9.5-7.2,10.2
			c-3.2,0.7-6.4-1.4-9.8-6.5c-3-4.3-5.4-12.1-7.4-18.4c0-0.1,0-0.1-0.1-0.2c-0.3,14.2-3.8,20.6-8.3,28.5c-1.5,2.6-3,5.3-4.5,8.5
			c-1.2,2.6-2.8,3.9-4.6,3.8c-3.8-0.2-6.1-6.1-9.6-15.7c-1.6-4.4-3.4-9.5-4.7-10.7c-1.3-1.3-2.2-1-6.3,2.2
			c-6.6,5.2-17.5,13.8-37.6-6.3c-3.6-3.6-6.4-5.5-8.4-6.9c-6.9-4.7-6.9-5.2-6.9-35c0-1.3,0-2.3-0.1-3.1c-0.1,0.1-0.1,0.2-0.2,0.3
			c-1.7,3.1-3.4,6.1-6,5.4c-2.2-0.6-3.9-2.5-3.9-21.2c0-8.7,1.6-18.3,3.2-27.6c1.5-8.8,2.9-17.2,2.9-24.4c0,0,0,0,0-0.1
			c-1.6,1.2-4.2,4.3-5.5,5.8c-2.9,3.4-4,4.8-5.8,3.6c-1.8-1.2-0.8-3.3,0.6-6.4c1.2-2.8,3.2-7,6.4-13.4
			c13.7-27.5,14.7-43.2,15.4-55.9c0.9-15.6,1.5-26.9,23.4-48.8c9-9,29-20.2,73.6-22.7c26.6-1.5,53.1,1,59,4.2l0.1,0.1
			c3,2,6.2,4.1,9.5,6.3c39.5,26.1,99.3,65.6,112.5,105.8c5.3,16.9,3,27.1-3.1,39.9c-2.1,4.3-3.7,6.7-6.1,6.7c0,0,0,0,0,0
			c-2.4,0-3.7-2.5-5.4-5.8c-3.5-6.9-9.3-18.4-27.6-18.4c-3.3,0-10.2-4.6-20.5-11.5c-3.9-2.7-7.7-5.2-9.2-5.9c-3.8-1.9-5.9-2.7-7.1-3
			c0.3,0.6,0.8,1.3,1.4,2.2c0.7,1,1.3,1.8,0.7,3l-0.6,1.1l-0.8,0c-10.1,5.1-16.2,11.3-18.8,19.1c-5,15.2,4.7,33.8,13.2,50.1
			c8.2,15.8,15.3,29.4,7.5,37.1c-3,3-7,4.5-11.7,6.2c-6.5,2.4-14.5,5.4-22.6,13.5c-2.3,2.3-7.6,9.2-12.7,15.8
			C344.2,553.7,342.4,555.8,340.8,555.8z M308.7,516.3c0.1,0,0.1,0,0.2,0l1.9,0.1l0,1.9c0,1.2,0.6,3.1,1.2,4.9
			c0.7,2.1,1.4,4.3,1.4,6.1c0,8.3,7.9,21.1,12.6,22.2c0.6,0.1,2.4,0.6,4.3-3.4c0.5-1,0.9-1.9,1.3-2.7c2.1-4.6,3.1-6.7,5.3-6.4
			c2.3,0.2,2.9,2.1,5,10.9c2.6-3,7.1-8.9,10.6-13.4c5.4-7,10.5-13.6,13.1-16.2c8.7-8.8,17.2-11.9,24.1-14.4
			c4.4-1.6,7.9-2.9,10.3-5.3c5.7-5.7-0.8-18.1-8.3-32.5c-8.9-17.1-19-36.4-13.5-53.2c2.7-8.3,9.2-15.3,19.2-20.7
			c-1.4-2.1-2.9-4.8-1.3-6.6c1.7-2,5.1-1.3,12.7,2.5c1.7,0.8,5.2,3.2,9.7,6.2c5.6,3.8,15.9,10.8,18.2,10.8
			c20.8,0,27.6,13.4,31.2,20.6c0.6,1.2,1.4,2.7,1.9,3.4c0.4-0.5,1.2-1.6,2.5-4.2c5.8-12.1,7.9-21.2,2.9-36.9
			c-12.8-38.9-71.9-77.9-110.9-103.7c-3.3-2.2-6.4-4.3-9.4-6.2c-4.7-2.5-29.6-5.3-56.8-3.7c-19.6,1.1-54.9,5.4-71,21.6
			c-20.7,20.8-21.4,31.4-22.2,46.2c-0.7,13-1.7,29.2-15.8,57.4c-1.3,2.6-2.5,5-3.4,7c2.3-2.3,4.2-3.3,6-2.7c1.5,0.5,2.2,2,2.2,4.4
			c0,7.5-1.4,16-2.9,25.1c-1.5,9.1-3.1,18.5-3.1,26.9c0,10,0.5,14.4,0.9,16.3c0.5-0.8,1-1.7,1.4-2.4c1.6-2.9,2.9-5.2,5.1-4.6
			c2,0.5,2.6,2.7,2.6,9.4c0,28.2,0,28.2,5.1,31.7c2.1,1.4,5.1,3.4,9,7.3c17.6,17.6,25.7,11.1,32.3,5.9c3.5-2.8,7.6-6,11.6-1.9
			c1.9,1.9,3.6,6.7,5.6,12.2c1.5,4.2,4.3,11.9,6,13c0.2-0.2,0.5-0.6,0.9-1.4c1.6-3.4,3.2-6.2,4.6-8.7c4.5-8.1,7.8-13.9,7.8-28.3
			c0-5.9,0.2-8.3,2.4-8.6c2.4-0.4,3.1,1.9,5.4,9.4c1.8,5.7,4.2,13.5,6.9,17.3c2.2,3.3,4.3,5.2,5.6,4.9c1.7-0.4,4.3-4.6,5.8-15.2
			C306.9,516.7,307.9,516.3,308.7,516.3z"/>
	</g>
	<path class="st2" d="M346.6,333c-1.7,3.5-5.3,4.9-5.6,9.6C338.5,338.4,341.6,332.5,346.6,333z"/>
	<g>
		<path class="st5" d="M341.9,376.6c39.1,5.2,74.4,17.9,107.1,35.9c4.5,2.5,17.9,18.4,21.3,15c12.9-12.8,6.6-36,0.4-51.7
			c-8.2-20.4-36.4-54.3-59.3-31.4c-7.2,7.2,8.1,30.5-12.5,30.5c-14.2,0-28.3-1.6-42.4-1.6C353.6,373.2,341.9,377.8,341.9,376.6z"/>
		<path class="st6" d="M469,428c-3,0-8.4-5.1-13.2-9.6c-2.7-2.6-5.3-5-6.9-5.9c-34.7-19-69.4-30.7-105.9-35.7
			c-0.6,0.1-0.9,0.1-1.1,0c-0.1-0.1-0.1-0.1-0.1-0.2v-0.1l0.1,0c0.4,0,0.7,0.1,1.1,0.1c1.3-0.2,3.7-1,5.9-1.6c3-0.9,6.2-1.9,7.5-1.9
			c7,0,14.2,0.4,21.2,0.8c7,0.4,14.2,0.8,21.3,0.8c4.3,0,7.2-1,9-3c2.9-3.3,2.3-8.8,1.8-14.2c-0.6-5.4-1.1-10.4,1.7-13.2
			c6.4-6.4,13.6-8.8,21.5-7.2c16.9,3.4,32.4,24.7,38,38.6c4,10.1,6.4,19.2,7,27c0.8,10.8-1.6,19.1-7.4,24.9
			C470,427.9,469.6,428,469,428z M343.7,376.7c36.4,5,70.9,16.7,105.4,35.6c1.5,0.9,4,3.2,6.9,5.9c5.4,5,12.1,11.3,14.3,9.1
			c5.7-5.7,8.2-14,7.3-24.7c-0.6-7.7-3-16.8-7-26.9c-5.6-13.9-21.1-35.1-37.9-38.5c-7.8-1.6-14.9,0.8-21.3,7.1
			c-2.7,2.7-2.2,7.7-1.6,13c0.6,5.4,1.2,11-1.8,14.4c-1.8,2.1-4.8,3.1-9.2,3.1c-7.1,0-14.3-0.4-21.3-0.8c-6.9-0.4-14.1-0.8-21.1-0.8
			c-1.3,0-4.4,1-7.4,1.9C346.7,375.9,344.9,376.5,343.7,376.7z"/>
	</g>
	<g>
		<path class="st5" d="M353.9,335.6c-1.6-1.2-3.5-2.8-5.6-1.9c-0.6,0.3-5.3,5-5.3,6.3c0,1.3-0.9,5-0.4,6.3c1.3,2.5,4.8,6.9,6.6,7.8
			c5,2.5,14.4,1.9,14.4-5.6c0-3.5,0-5.7-1.5-8.8C360.8,337.1,356.7,334.6,353.9,335.6z"/>
		<path d="M355.2,355.5c-2.2,0-4.4-0.5-6.1-1.3c-1.9-1-5.4-5.5-6.7-7.9c-0.4-0.8-0.1-2.8,0.1-4.4c0.1-0.8,0.2-1.5,0.2-1.9
			c0-1.3,4.7-6.1,5.4-6.4c2.1-0.9,4,0.5,5.5,1.7l0.2,0.1c2.8-0.9,6.9,1.6,8.3,4.2c1.5,3.1,1.5,5.4,1.5,8.8c0,2.5-1,4.5-3,5.7
			C359.1,355.1,357.1,355.5,355.2,355.5z M349.6,333.5c-0.4,0-0.8,0.1-1.3,0.3c-0.7,0.3-5.3,5-5.3,6.2c0,0.4-0.1,1.1-0.2,2
			c-0.2,1.5-0.5,3.5-0.1,4.3c1.2,2.4,4.7,6.8,6.6,7.8c3,1.5,8,2,11.3,0c1.9-1.2,2.9-3.1,2.9-5.5c0-3.4,0-5.7-1.5-8.7
			c-1.3-2.5-5.4-5-8.1-4l-0.1,0l-0.3-0.2C352.4,334.5,351.1,333.5,349.6,333.5z"/>
	</g>
	<path class="st3" d="M396.4,494.5c0.8,5,6.1,9.2,5.6,12.9c-28.7,4.6-46,20.5-49.1,50.7c-2.2-31.1,18.2-46.7,37.9-58.8
		c-0.6-8.4,1.2-14.3,3.2-20.1c2.9,6.2,4.9,13.3,10.5,16.8c-1.9-5.3-3.2-12.3-1.7-16.8c3.6,3.3,4.2,9.7,9.6,11.2
		c5.1,1.3,3.6-3.9,7.3-4c9.4,6,21.9,8.7,21.7,24.2c-4.5-10.2-13.2-16.3-29-15.3c1.5,6.1,10.5,11.5,20.2,12.1
		C416.3,510.5,403.3,503.4,396.4,494.5z"/>
	<path class="st3" d="M407.8,337.1c1.1-1.9,3.3,1.9,4.8,2.4c-0.6-9.4-4.7-15.2-10.4-19.3c6.6-0.9,11.7,6.5,16.1,10.4
		c-0.6-3.1-2.2-5.3-4-7.2c3.5-0.8,7.1,5.2,8.9,8.9c18.6,7.7,34.4,18.1,45.1,33.8c-6.5-8.8-41.6-32.1-53.9-13.7
		c-8.6,12.9,13.5,32.5,20.2,37.8c7.4,6,16,5.8,25.8,9.7c15.8-8.9,4-34.1-6.5-40.2c26.2,4.6,35.2,64.9,8.9,79.6
		c8.6-16.3-2-29.2-16.1-34.5c-3.5-1.4-7.6-0.9-11.2-3.2c-3.7-2.4-4.8-6.6-8.9-9.6c-15.7-11.7-40.6-16.4-65.2-15.3
		c-6.3,0.3-13,2.9-17.7-1.6c6.5-5.3,21.1-2.4,32.2-3.2c2.4-1.2-2.5-1.7-3.2-2.4c5.1-2.1,14.9,0.4,20.1-1.7c-1.9-2.1-8.7,0.7-8.8-3.2
		c10.2-1.4,12.7,5,20.9,5.6c1.9-0.9-3.4-1.4-4-2.4c17.1,0.2,2.2-17.9,10.5-25.7C410.8,339.5,409.6,337.9,407.8,337.1z"/>
	<path class="st3" d="M343.4,337.3c1.2-1.4,2.4-2.6,3.2-4.2c-1.2-0.1-2.3,0.1-3.2,0.6v-10c4.8,0.2,9.1,0.6,12.1,2.1
		c-0.4,1.2-0.7-0.1-1.6,0c2.1,11.7,25.1,2.5,26.6,14.8v2.9v0.1c-10.2-15.3-11.7,9.1-21,11.3c-2.2-1.7,6.4-6.5,2.4-12.9
		c-3.8,13.6-20.7-0.1-8.1-6.5c-11.9-4-12.7,19.1-1.6,19.4c-3.7,0.4-6.6-0.7-8.9-2.7V337.3L343.4,337.3z M343.4,359.8v-2.3
		c2.1,1,4.3,1.7,6.5,2.1C347.5,360,345.3,360.1,343.4,359.8z M341,342.7c0.2-2.4,1.2-4,2.4-5.4V352c-4.3-3.7-7-10.2-9.6-15
		c-4,9.2,1.9,16.8,9.6,20.4v2.3c-9.4-1.4-14.2-10.9-16.8-19.6c-4.5,10.4,6,19,13.7,22.5c-20.3,2.1-12.6-30.8-38.7-25.7
		c4.7,2,8.7,4.8,12.9,7.2c-15.9-9.9-38.1,4.8-57.9,0c3.2-1.2,8.1,0.1,12.9-0.8c6.6-1.2,9.5-5.1,16.9-8.1c8.3-3.2,17.6-0.3,27.3-2.4
		c5.2-1.2,10.7-5.9,16.9-4.8c-3-3-8.2-3.6-11.3-6.5c5.2,2.4,15.3,1.7,24.1,1.9v10C340.4,335.3,339.1,339.4,341,342.7z"/>
	<path class="st3" d="M421.5,361.2c0.5-6.6,9.4-8.7,16.1-6.4c0.4,3.3-3.7,2.2-4.9,4C431.7,353.9,425.6,364.1,421.5,361.2z"/>
	<path class="st3" d="M341,376.4c0.1-0.9,0.8-0.4,0.8,0c8.6,4.7,26.6,1.4,39.5,2.4c18.4,1.5,31.6,9.3,45.1,14.5
		c6.3,14.1,28.5,12.2,35.4,25.8c-28-0.6-40.2-24.5-66.8-25.8c-13.5-0.6-25.5,8-41.8,4c14-1.2,23.1-7.5,38.6-7.3
		C382.3,378.1,348.5,390.5,341,376.4z"/>
	<path class="st3" d="M378,461.7c-2.2,16.6-5.3,32.3-9.6,46.7c2.2-20.6,9.4-57.6-4-74.1c-10,20.6-24,37.2-41.8,49.9
		c16.4-16.6,31.1-41.8,39.5-69.1c-8.3,3-14.6,7.8-20.2,13.6c2.3,0.6,2.1-1.2,4-0.8c-17.3,13-33.3,27.3-37.8,53.1
		c1.2-32.1,24.9-48.6,43.4-66c-23.9,11.7-46.6,24.7-54.6,52.3c-1.3-14,8.9-23.3,16.1-31.4c-15.6,6.3-31,19.9-35.4,40.2
		c2.3-34.4,31.6-48.8,59.5-60.3c-18.6,1.2-38,8.6-50.6,18.4c11.2-15.3,39.5-20.4,63.5-25.6c-11.2-1.8-21.8,3-33,1.6
		c-5.3-0.7,1.9-0.9,1.6-0.8c6.8-1.7,25-2.7,36.2-4.8c-9-1.5-19.3-1.6-27.4-4c24.3,3,49-4.4,74-4c-46.5,15.9-5.5,92.5,27.4,103
		C406.5,495.5,388.4,480.3,378,461.7z"/>
	<path class="st3" d="M188.1,471.4c5.9-3,14.4-10.3,26.6-9.7c-13.4,9.4-21.8,26.4-18.5,50c14-2.7,26.9-13.3,30.6-29
		c4,20-16.9,29.1-10.5,49.1c9.1,1,10.9-5.2,15.3-8.9c-0.3,5.3,0.7,12-0.9,16.1c11.6-3.2,3.5-26.1,17.7-26.6
		c-7.6,4.2-4.9,12.6-7.2,23.3c-1.8,8.5-9.4,10.9-15.3,16.1c-0.5-2.6,2.6-11.7-0.8-15.3c-7.6,2.9-13.5,7.4-14.5,16.9
		c-6.6-8.5-4.4-28.8,0-37.9c-6,9-10.9,19.2-10.4,34.6c-11.2-18.9-15-57.9-1.7-77.3c-7.1,4.5-10.4,12.7-12.9,21.7
		c-4.1-28-0.9-62,8.1-82C191.4,424.8,184.5,450.4,188.1,471.4z"/>
	<path class="st3" d="M261.4,545.4c20.4-7.8,9.9-46.4,31.4-53.1c-3.6,8.4-7.1,29.8,3.2,36.2c4.9-9.2,12-16.3,20.9-21.7
		c-3.9,12.1-0.4,32.3,7.2,40.2c4.5-17.6,12.7-31.3,24.2-41.8c-5.5,17.4-24.3,19.4-13.5,43.3c-21.4-1.6-23-0.6-23.6-27.9
		c-1.8-4.2-0.9,25.8-15.4,31.7c7.8-19-20.4-9.9-7.7-31.5c-12.6,15.3-5,32.7-37.1,31.2c9.1-10.2,7.1-24-2.5-32.3
		C255.4,522.5,262.1,532.3,261.4,545.4z"/>
	<g>
		<path class="st3" d="M395.8,303.9c-28.6-15.2-30-20.3-41.5-48.9c-3.7-9.2,5.1-35.5-3.2-35.5c-11.1,0-4.7,45.2-4.7,51.2
			c0,1.4-47.3-79.6-53.4-71.5c-4.2,5.5,39.5,72.9,29.3,66c-22.5-15.3-31.7-48.7-50.5-58.1c-29.6-14.7-8.6,2.2,3.5,19.8
			c62.9,92.4-0.3-1.3-63,5.1c-1.4,0.1,46.4,26.8,53.5,29.5c67.7,26.1-43.8-8.9-71.5,7.3c-26.4,15.6,28.6,6.5,34.1,6.5
			c8.4,0,61.8-3.7,31.8,2.3c-24.4,4.6-44.3,9.2-65.4,19.9c-18.9,9.2,30.4-6.5,33.2-7.4c6-1.9,14.8-1.9,21.2-2.7
			c2.3-0.5-32.3,6.9-49.8,26.3c-11.1,12.5-27.7,28.6-0.5,10.6c5.5-3.7,41-23.5,19.9-12.9c-12.5,6-29.1,32.3-34.1,45.2
			c-8.8,22.6,65-58.6,23.5-17.1c-14.3,14.3-18.4,31.3-18.4,46.1c0,27.2,7.8-14.3,12-18.4c0.9-0.9,27.6-39.2,19.8-23
			c-2.7,6-11.1,19.8-11.1,26.3c0,5,18.5-20.7,26.4-36.9c3.2-6.4-1.4-3.7-9.3,0c-12.9,6.5-19.4,13.9-5-0.4c5-5.1,15.7-15.3,7.3-15.3
			c-11.5,0-21.7,17.6-14.8,7.4c6-8.8,10.2-15.7,18.5-21.2c20.7-13.8-28.2,17.6-5.1-5.5c10.7-10.6,36.9-6.9,49.8-6.9
			c1.9,0-34.6-8.3-9.6-8.3c11.5,0,24.4,4.6,34.5,4.6c18,0-2.7-12.5-9.6-13.8c-2.3-0.5,40.5,14.3,47.4,14.3c3.7,0-15.3-29,3.7-10.2
			c16.1,16.2,10.2-0.9,11.1,0.5C364.4,291.9,395.3,303.9,395.8,303.9z"/>
		<path d="M190.9,394.8C190.9,394.8,190.8,394.8,190.9,394.8c-0.7-0.1-1.3-1.2-1.3-9.3c0-8.3,1.3-16.1,3.9-23.3
			c1.6-4.3,3.6-8.5,6-12.3c-7,6.4-13.4,11.5-15.2,10.6c-0.8-0.4-0.7-1.7,0.2-4.1c3.8-9.9,15-28.5,25.7-39c-5,2.9-9.6,5.6-11.3,6.8
			c-12.2,8.1-14.3,8.5-14.8,7.9c-0.8-1,3.3-5.6,10.1-13c1.7-1.9,3.5-3.8,5.1-5.6c6.9-7.7,17.3-14.4,30.7-20
			c7.8-3.2,14.4-5.1,17.5-5.9c-1.7,0.2-3.5,0.3-5.4,0.5c-5,0.4-10.2,0.8-14.2,2.1c-1.2,0.4-10.5,3.4-19.4,6
			c-17.8,5.2-18.1,4.4-18.3,4.1c-0.1-0.3,0.3-0.9,4.4-2.9c22.1-11.1,42.7-15.6,65.5-19.9c8.2-1.6,9-2.3,9-2.6
			c0-0.3-1.4-0.8-10.4-0.6c-6,0.1-13.6,0.4-19.7,0.7c-4.7,0.2-8.8,0.4-10.7,0.4c-1,0-3.7,0.3-7.2,0.7c-12.2,1.4-32.7,3.7-34.1-0.4
			c-0.5-1.6,1.8-3.9,7.1-7c14.8-8.7,53-2.8,75.9,0.7c9,1.4,16.8,2.6,17,1.7c0.3-1.2-15.5-7.3-21.4-9.6c-3.7-1.4-18.2-9.2-29.5-15.5
			c-6.4-3.5-12.3-6.9-16.8-9.5c-7.4-4.3-7.4-4.6-7.4-4.7c0,0,0-0.1,0.1-0.1c31.8-3.2,63.8,19.3,79.2,30.1c5.2,3.7,9,6.3,9.6,5.7
			c1.1-1.1-6.3-12-24.2-38.3l-1.6-2.4c-3.4-5-7.5-9.8-11-14.1c-4.8-5.8-8.3-9.9-7.4-11.1c0.9-1.1,5.4,0.4,15.1,5.3
			c9.4,4.7,16.5,15.5,23.9,26.9c7.5,11.6,15.3,23.6,26.6,31.2c0.6,0.4,1.1,0.6,1.3,0.4c1.2-1.1-6-14.2-12.9-26.9
			c-9.4-17.1-20-36.5-17.8-39.4c0.3-0.4,0.8-0.6,1.3-0.6c7.4,0.3,34.8,44.4,46.5,63.2c2.8,4.5,5,8,5.6,8.8c0-1.1-0.2-3.3-0.5-6.2
			c-1.1-12.1-3.3-37.3,2.3-43.4c0.8-0.9,1.8-1.4,3-1.4c0.9,0,1.7,0.3,2.3,1c2.3,2.5,1.6,9.5,0.8,16.9c-0.7,6.8-1.4,13.8,0.2,17.7
			l1,2.5c5.3,13.1,8.5,21.1,13.8,27.5c5,6.1,12,11,26.6,18.8l0.4,0.2h-0.4c-0.3,0-8.3-3.1-17-7.7c-8-4.2-18.5-10.7-23.1-17.6
			c0,0.2,0.1,0.4,0.1,0.6c0.3,1.7,0.8,4.9-0.7,5.7c-1.6,0.8-5.2-1.5-10.6-6.9c-4.7-4.7-7.4-6.8-8.2-6.3c-0.8,0.6,1,4.7,2.5,8.3
			c1.6,3.6,3.1,7,2.5,7.9c-0.1,0.2-0.3,0.2-0.5,0.2c-3.6,0-16.3-3.8-26.3-7c-4.7-1.5-10-3.3-14.2-4.7c1.2,0.6,2.3,1.3,3.4,2
			c2,1.3,6.7,4.5,6.4,6.8c-0.2,1.7-2.6,2.5-7.3,2.5c-4.9,0-10.3-1.1-16.1-2.2c-6.1-1.2-12.4-2.4-18.4-2.4c-7,0-8.6,0.7-8.6,1.2
			c-0.2,1.6,10.6,4.6,15.2,5.9c3.3,0.9,3.3,0.9,3.3,1.1c0,0.1-0.1,0.1-0.2,0.1c-2.4,0-5.3-0.1-8.4-0.3c-13.8-0.6-32.7-1.4-41.4,7.1
			c-5.9,5.9-6.6,7.8-6.2,8.4c1,1.4,10-3.3,13.8-5.3c2.7-1.4,2.7-1.4,2.8-1.3c0.1,0.2,0.1,0.2-5.3,3.8c-7.4,4.9-11.4,10.8-16.5,18.3
			c-0.7,1-1.3,1.9-2,3c-0.3,0.4-0.5,0.7-0.7,1c2.9-3.1,8.9-8.6,15.4-8.6c1.7,0,2.7,0.4,3.1,1.3c1.1,2.7-5.2,9-9.3,13.2
			c-0.4,0.4-0.7,0.7-1,1c-2,2-3.6,3.5-4.8,4.8c-1.7,1.6-2.7,2.7-3.1,3.1c0.3-0.2,0.9-0.5,1.5-1c2.2-1.4,6.3-4.1,11.3-6.7
			c0.8-0.4,1.5-0.7,2.3-1.1c4.3-2,7.1-3.4,8-2.5c0.5,0.5,0.3,1.7-0.8,3.7c-6.8,14.1-23.2,37.6-26.1,37.6c0,0-0.1,0-0.1,0
			c-0.3-0.1-0.4-0.3-0.4-0.7c0-4.9,4.7-13.9,8.2-20.6c1.2-2.3,2.2-4.3,2.9-5.8c1.7-3.4,1.5-3.8,1.4-3.8c-0.2-0.1-1.3,0.5-7.5,8.6
			c-3.8,5-8.2,11.1-10.9,14.8c-1.5,2.1-2.5,3.5-2.7,3.7c-1.5,1.5-3.6,8.1-5.5,14.5C193.7,389.8,192.1,394.8,190.9,394.8z
			 M200.1,349.3c-2.7,4.1-4.9,8.4-6.5,13c-2.6,7.2-3.9,15-3.9,23.2c0,7.4,0.6,9,1.1,9.1c0,0,0,0,0,0c1.1,0,3.2-6.9,5.1-13
			c2-6.4,4-13.1,5.6-14.6c0.1-0.2,1.2-1.6,2.7-3.6c10.4-14.5,17.6-24,18.6-23.4c0.3,0.2,0.3,0.8-1.3,4.1c-0.7,1.5-1.7,3.5-2.9,5.8
			c-3.4,6.6-8.2,15.6-8.2,20.5c0,0.3,0.1,0.5,0.2,0.5c1.1,0.2,5.5-4.9,11.1-12.9c5.9-8.4,11.5-17.8,14.8-24.6c1-1.9,1.2-3.1,0.8-3.5
			c-0.7-0.7-3.7,0.6-7.7,2.6c-0.7,0.3-1.5,0.7-2.3,1.1c-5,2.5-9.1,5.2-11.3,6.7c-1.8,1.2-1.9,1.2-2,1.1c-0.1-0.2-0.1-0.2,3.3-3.6
			c1.3-1.2,2.8-2.8,4.8-4.8c0.3-0.3,0.7-0.7,1-1c4.1-4.1,10.3-10.4,9.3-12.9c-0.3-0.7-1.3-1.1-2.9-1.1c-2.5,0-6.6,0.9-11.7,5.2
			c-2.3,2-4.1,4-4.9,4.9c-0.1,0.2-0.2,0.3-0.3,0.4c0,0.1-0.1,0.1-0.1,0.1l0,0c-0.1,0.1-0.1,0.1-0.1,0.1l-0.1,0l0-0.1c0,0,0,0,0-0.1
			l0,0c0,0,0.7-0.9,2.2-3.1c0.7-1,1.4-2,2-3c5.1-7.5,9.1-13.4,16.5-18.3c1.9-1.3,3.9-2.6,4.7-3.2c-0.5,0.2-1.2,0.6-2.1,1.1
			c-6.2,3.3-13,6.7-14,5.3c-0.7-0.9,1.4-3.8,6.2-8.6c8.7-8.7,27.7-7.8,41.6-7.2c2.9,0.1,5.6,0.2,7.9,0.3c-0.6-0.2-1.6-0.5-2.7-0.8
			c-7.5-2.1-15.6-4.5-15.3-6.1c0.1-0.6,1.1-1.4,8.8-1.4c6,0,12.3,1.2,18.4,2.4c5.8,1.1,11.2,2.2,16.1,2.2c4.5,0,6.9-0.8,7.1-2.3
			c0.3-2.6-5.9-6.8-11.3-9.3c-3.3-1.1-5.5-1.9-5.6-2.1l0-0.1l0-0.1c0-0.1,0.1,0,0.2,0c1.4,0.3,3.4,1,5.5,2c4,1.4,9.8,3.3,16,5.3
			c8.1,2.6,22.2,6.9,26,6.9c0.1,0,0.2,0,0.3-0.1c0.5-0.8-1-4.3-2.5-7.7c-1.8-4.1-3.4-7.9-2.5-8.6c0.5-0.4,2-0.1,8.4,6.3
			c5.3,5.3,8.8,7.6,10.3,6.8c1.4-0.7,0.8-3.9,0.6-5.4c-0.1-0.8-0.2-1,0-1c0.1,0,0.2,0.1,0.2,0.1c4.5,6.9,15,13.4,23,17.6
			c6.7,3.5,13,6.1,15.6,7.2c-26.5-14.2-28.8-19.9-39.2-45.7l-1-2.5c-1.6-4-0.9-11-0.2-17.8c0.7-7.4,1.4-14.3-0.8-16.7
			c-0.5-0.6-1.2-0.9-2.1-0.9c-1.1,0-2,0.4-2.8,1.3c-5.5,6-3.3,31.2-2.2,43.3c0.3,3.2,0.5,5.4,0.5,6.5v0.1l-0.1,0
			c-0.2,0.1-0.6-0.5-5.9-9c-11.7-18.8-39-62.7-46.4-63.1c-0.5,0-0.9,0.1-1.1,0.5c-2.2,2.8,8.4,22.1,17.8,39.2
			c8.8,16.1,14.2,26,12.9,27.2c-0.3,0.2-0.8,0.1-1.5-0.4c-11.3-7.6-19.1-19.6-26.6-31.2c-7.4-11.4-14.4-22.2-23.8-26.9
			c-9.3-4.6-14-6.3-14.8-5.3c-0.9,1.1,3,5.6,7.4,10.9c3.6,4.3,7.6,9.1,11,14.1l1.6,2.4c19,28,25.4,37.4,24.2,38.6
			c-0.7,0.7-3.5-1.2-9.9-5.7c-15.4-10.8-47.3-33.2-78.9-30c2.3,2,46,26.5,53.4,29.3c18.2,7,21.7,9,21.5,9.8c-0.3,1-5.8,0.2-17.2-1.6
			c-22.8-3.5-61.1-9.4-75.8-0.7c-5.1,3-7.5,5.3-7,6.8c1.3,3.9,22.5,1.5,33.8,0.2c3.6-0.4,6.2-0.7,7.2-0.7c1.8,0,5.9-0.2,10.7-0.4
			c20-0.9,30.2-1.1,30.3,0.1c0,0.3,0.1,0.9-9.1,2.8c-22.7,4.3-43.3,8.7-65.4,19.9c-4.2,2.1-4.3,2.5-4.3,2.6c0.1,0.3,2.1,0.4,18-4.2
			c8.9-2.6,18.2-5.6,19.4-6c4-1.3,9.2-1.7,14.2-2.1c2.5-0.2,4.9-0.4,7-0.7l0.1,0c0,0,0,0,0,0l0,0l0,0c0,0,0.1,0,0.1,0.1
			c0,0.1,0,0.1-0.1,0.1l0,0l0,0c0,0,0,0,0,0c-3.4,0.8-33.7,8.4-49.8,26.3c-1.6,1.8-3.4,3.8-5.1,5.6c-5.1,5.5-10.8,11.8-10.1,12.7
			c0.6,0.7,5.5-1.9,14.5-7.9c1.8-1.2,6.8-4.1,12.1-7.2c2.7-2.5,5.3-4.5,7.8-5.7c6.6-3.3,6.7-3.2,6.8-3c0.2,0.3-1.5,1.3-14.2,8.7
			c-0.1,0.1-0.2,0.1-0.3,0.2c-10.9,10.3-22.4,29.5-26.3,39.5c-0.8,2-0.9,3.2-0.5,3.7c0.3,0.3,0.8,0.3,1.5,0c3-1,9-6.2,14.3-11.1
			c2.3-3.5,5-6.7,8-9.8c12.4-12.4,12.8-12.1,12.9-12c0.1,0.1,0,0.3-0.1,0.5C219.4,329.9,209.4,340.7,200.1,349.3z M220.7,327.6
			c-0.5,0.3-2.8,2.2-12.5,11.9c-2.8,2.8-5.3,5.8-7.5,9c1.9-1.8,3.8-3.6,5.3-5.1C213.6,335.8,220,328.8,220.7,327.6z M225.1,308.4
			c-0.6,0.2-2.3,1-6.3,3c-2.2,1.1-4.6,2.8-7,5C217.5,313,223.8,309.3,225.1,308.4z"/>
	</g>
	<g>
		<path class="st3" d="M477.4,648.6c5.4-0.9,10.7-1.8,15.4-3.2l-15.4-3.2v-4c8.1,1.9,16.1,4,23.6,6.2v-68.9
			c-7.6-2.2-15.5-4.3-23.6-6.2v-4.1c9.6,2.2,18.9,4.6,27.8,7.2v27.8c17.4,6.3,35.1,12.2,53.4,17.4c-7.4,9.8-18.2,16.1-25.7,25.7
			c8.4,14.6,18,27.9,25.7,43.2c-26.4-8.6-53.1-16.9-81.2-23.8V659c25.6,5.9,49.8,13.1,73,21.3c-6.5-13.8-15.3-25.2-22.6-38
			c6.8-8,19.7-15.2,22.6-23.6c-15.9-3.7-28.7-10.4-45.2-13.4c-0.6,14.1,1.3,30.8-1.1,43.2c-9.3,1-18.9,1.9-26.7,3V648.6z
			 M453.7,652.6c7.5-1.8,15.7-2.7,23.7-4v2.8c-8,1.1-14,2.4-15.4,4.2c5.2,1.1,10.3,2.2,15.4,3.3v3.7c-9.1-2.2-18.3-4.2-27.8-6v-19.5
			c-79.8-17.4-194-15.8-275.5-1.1v20.6c-9.5,1.7-18.7,3.7-27.7,5.9v-3.7c5.2-1.4,10.3-2.8,15.4-4.2c-5-0.9-10.2-1.6-15.4-2.4v-3.8
			c7.9,1.4,15.6,3,23.6,4.2c-1.2-4.7,2.4-14.1-2-15.4c-6.6,2.2-14.3,3.5-21.6,5V638c98.7-22.5,232.6-22.7,331,0.1v4l-23.7-5
			C453.4,641.1,453.5,649.2,453.7,652.6L453.7,652.6z M477.4,565.2v4.1c-98.1-23-232.6-22.8-331-0.2v-3.9
			C245.4,542.5,378.4,542.6,477.4,565.2z M146.4,565.2v3.9c-8.5,1.9-16.8,4.1-24.7,6.4v68.9c7.9-2.3,16.2-4.4,24.7-6.3v4.1
			c-5.5,1.1-10.8,2.4-15.5,4.2c5.4,0.4,10.5,1.2,15.5,2v3.8c-9.5-1.4-19-2.7-27.8-4.8v-42.1c-16.7,2.8-29.2,9.8-45.2,13.4
			c1.9,9.5,17.1,14.3,21.6,24.6c-6.6,12.4-17.6,25.6-21.6,37c22.7-8.8,48.1-14.9,73-21.5v3.7c-28.5,6.9-55.1,15.8-82.3,23.9
			c9-14,16.8-29.1,26.8-42.1c-6.5-11.1-18.9-16.1-25.7-26.8c18.6-4.7,34.2-12.3,53.4-16.4v-28.8
			C127.6,569.8,136.8,567.3,146.4,565.2z"/>
		<path d="M54.9,693.4l5.9-9.1c3.2-4.9,6.3-10.1,9.2-15.1c5-8.4,10.2-17.1,16-25c-2.9-4-6.8-7.3-10.9-10.7c-4.8-4-9.7-8.1-13.3-13.8
			l-3-4.7l5.4-1.4c8.3-2.1,16.1-4.8,23.8-7.5c8.4-3,17.1-6,26.6-8.2v-28.6l2.9-0.8c53.3-15.7,122.3-24.3,194.3-24.3c0,0,0.1,0,0.1,0
			c72,0,141,8.6,194.4,24.3l2.9,0.8v28c18.1,6.5,34.6,11.8,50.5,16.4l5.6,1.6l-3.5,4.7c-4,5.3-8.9,9.6-13.6,13.7
			c-3.8,3.3-7.3,6.4-10.4,10c2.9,5,6,9.8,9,14.6c5.3,8.4,10.7,17.1,15.5,26.4l4.3,8.6l-9.1-3c-35.2-11.4-70.1-22.3-108.5-29.7
			l-3.2-0.6v-19.6c-73.9-15.4-182.7-15.8-267.5-1v13.9l1.8,0.3l-1.8,0.5v5.9l-3.3,0.6c-31.3,5.7-60.2,14.5-88.1,23.1
			c-7,2.2-14.3,4.4-21.5,6.6L54.9,693.4z M479,655.3c21.1,4.9,42,10.8,63.3,18c-2.9-5-6-9.9-9-14.6c-3-4.6-6.1-9.4-8.9-14.4
			l-1.4-2.4l1.8-2.1c2.8-3.3,6.5-6.4,10-9.4c3.5-3,7.2-6.1,9.6-9c-5.4-1.5-10.5-3.3-15.4-5c-6.6-2.3-12.9-4.5-19.9-6.1
			c0,3.8,0,7.8,0.1,11.7c0.2,7.8,0.3,15.7-0.5,22.8l0.4,0.1l-0.4,0.1c-0.2,1.5-0.4,3-0.7,4.4l-0.6,2.9l-2.9,0.3
			c-3.2,0.3-6.4,0.7-9.5,1C490.2,653.9,484.3,654.6,479,655.3z M79.1,621.4c1.7,2.2,4.4,4.4,7.2,6.6c4.6,3.7,9.9,7.8,12.4,13.7
			l0.8,1.8l-0.9,1.7c-2.7,5.1-6.2,10.4-9.5,15.5c-2.8,4.2-5.6,8.5-7.9,12.6c16.8-5.8,34.7-10.5,52.2-15.1c3-0.8,6.1-1.6,9.2-2.4
			c-8.4-1.2-16.9-2.5-24.8-4.4l-3.1-0.7v-1.5L114,649l0.7-0.3v-38.6c-6.9,1.5-13.2,3.8-19.7,6.1C89.8,618,84.6,619.9,79.1,621.4z
			 M151.3,645.2c1.5,0.3,3,0.6,4.5,0.8c3.3,0.6,6.7,1.3,10.1,1.8c0.1-0.7,0.1-1.5,0.2-2.2c0.1-1.1,0.2-2.6,0.2-3.8
			c-4.7,1.4-9.7,2.3-14.6,3.3C151.6,645.2,151.5,645.2,151.3,645.2z M457.5,642c0,1.8,0,3.8,0,5.6c4.3-0.8,8.7-1.5,13.1-2.1
			c0.7-0.1,1.4-0.2,2.2-0.3L457.5,642z M125.7,578.5v60.6c107.7-29.4,264.9-29.4,371.3,0v-60.6c-50.8-14.5-116.3-22.4-185.1-22.4
			c-0.2,0-0.3,0-0.5,0C242.7,556.1,176.9,564.1,125.7,578.5z"/>
	</g>
	<polygon points="238,610.4 236.7,596.6 223.9,597.8 225.1,611.5 214,612.5 210.7,575.6 221.9,574.6 223,588.3 235.9,587.2 
		234.7,573.5 245.9,572.5 249.1,609.4 	"/>
	<path d="M279.3,607.6l-1.8-6.8l-5.9,0.2v-7.9l3.5-0.1l-3-10c-0.2-0.9-0.4-1.7-0.6-2.4v-9.7l6.6-0.3l13.3,36.7L279.3,607.6z
		 M271.6,601.1l-5.2,0.2l-1.6,6.8l-12.1,0.4l11.5-37.5l7.3-0.2v9.7c-0.1-0.6-0.2-1.2-0.3-1.7H271c0,0.4-0.1,1.1-0.3,2.1
		c-0.1,0.9-1.1,5-2.7,12.3l3.6-0.1V601.1z"/>
	<path d="M315.1,607l-2.8-8c-0.4-1.4-1-2.5-1.8-3.4V586c0.9-0.2,1.6-0.6,2.2-1.1c0.9-0.9,1.4-1.9,1.4-3.2c0-1.3-0.4-2.2-1.2-3
		c-0.5-0.6-1.3-0.9-2.4-1v-7.8h0.2c5.2,0,9,0.9,11.5,2.5c2.4,1.7,3.7,4.2,3.7,7.7c0,2.5-0.7,4.7-2.2,6.4s-3.6,3-6.4,3.7v0.1
		c1.6,0.5,2.9,1.3,3.9,2.4c1.1,1.1,2,2.7,2.8,4.8l3.7,9.4H315.1z M310.5,595.6c-0.1-0.1-0.1-0.2-0.3-0.3c-0.8-0.9-1.7-1.4-2.7-1.4
		H307v13h-11.2v-37.1h14.6v7.8c-0.4-0.1-0.7-0.1-1.2-0.1H307v8.4h2c0.5,0,1,0,1.4-0.1V595.6z"/>
	<path d="M363.2,583.4c-0.1,2.5-0.9,4.8-2.2,6.6c-1.4,1.9-3.3,3.4-5.7,4.4c-2.3,0.9-4.9,1.4-7.8,1.4v-8.1c2.4-0.3,3.7-1.7,3.7-4.4
		c0.1-1.5-0.4-2.7-1.2-3.5c-0.6-0.6-1.4-1-2.5-1.2v-8.1l0.9,0.1c5.2,0.1,9,1.3,11.4,3.3c2.2,1.9,3.2,4.8,3.3,8.4v0.6
		C363.2,583.1,363.2,583.2,363.2,583.4z M347.6,595.8c-0.2,0-0.4,0-0.6,0l-3.5-0.1l-0.4,12l-11.2-0.4l1.3-37.1l14.3,0.5v8.1
		c-0.4-0.1-0.9-0.1-1.3-0.1l-2.2-0.1l-0.3,9.1l2.5,0.1c0.4,0,0.9,0,1.2,0V595.8z"/>
	<path d="M386.6,596.8l-0.9,12.8l-11.2-0.8l0.9-12.7l-9.7-25.1l12.8,0.9l3.2,11.9c0.2,0.8,0.4,1.5,0.4,2.1c0.1,0.6,0.1,1.2,0.3,1.8
		l0.1,0.1c0.4-1.6,0.6-2.8,1-3.6l4.8-11.6l11.8,0.9L386.6,596.8z"/>
	<path d="M424.4,614l-0.8-6.9l-4.6-0.6v-8l3.5,0.4l-1.3-10.4c-0.2-1.5-0.3-2.9-0.3-4.2h-0.2c-0.1,0.4-0.3,1.1-0.6,2
		c-0.1,0.4-0.5,1.3-1.1,2.8V576l10.1,1.2l7.4,38.3L424.4,614z M419,606.5l-6.4-0.8l-2.5,6.6l-12-1.4l17.2-35.3l3.7,0.4v13.2
		c-0.7,1.9-1.9,5-3.5,8.9l3.5,0.4V606.5z"/>
</g>
</svg>
