<?xml version="1.0" encoding="utf-8"?>
<!-- Generator: Adobe Illustrator 21.0.2, SVG Export Plug-In . SVG Version: 6.00 Build 0)  -->
<svg version="1.1" id="Camada_1" xmlns="http://www.w3.org/2000/svg" xmlns:xlink="http://www.w3.org/1999/xlink" x="0px" y="0px"
	 viewBox="0 0 595 842" style="enable-background:new 0 0 595 842;" xml:space="preserve">
<style type="text/css">
	.st0{fill-rule:evenodd;clip-rule:evenodd;fill:#C33739;}
	.st1{fill-rule:evenodd;clip-rule:evenodd;fill:#D07770;}
	.st2{fill-rule:evenodd;clip-rule:evenodd;fill:#FFFFFF;}
	.st3{fill-rule:evenodd;clip-rule:evenodd;}
	.st4{fill-rule:evenodd;clip-rule:evenodd;fill:#EDEEF0;}
	.st5{fill-rule:evenodd;clip-rule:evenodd;fill:#FEEE00;}
	.st6{fill:#FEEE00;}
</style>
<g>
	<path class="st0" d="M312.5,188.7C168,188.7,50.9,301.4,50.9,440.2S168,691.6,312.5,691.6S574,579,574,440.2
		S456.9,188.7,312.5,188.7z"/>
	<path d="M124.8,620.8c-50.2-48.3-77.9-112.4-77.9-180.7s27.6-132.4,77.9-180.7c50.2-48.2,116.8-74.8,187.7-74.8
		s137.6,26.6,187.7,74.8c50.2,48.3,77.9,112.4,77.9,180.7s-27.6,132.4-77.9,180.7C450,669,383.4,695.6,312.5,695.6
		S174.9,669,124.8,620.8z M54.9,440.2c0,136.4,115.5,247.4,257.6,247.4S570,576.6,570,440.2S454.5,192.7,312.5,192.7
		S54.9,303.7,54.9,440.2z"/>
</g>
<path class="st1" d="M312.5,213.2c-130.4,0-236.2,101.7-236.2,226.9c0,125.4,105.8,227,236.2,227s236.2-101.7,236.2-227
	C548.6,314.9,442.9,213.2,312.5,213.2z"/>
<path class="st0" d="M312.5,623.1c-104.8,0-190.4-82.2-190.4-183c0-100.7,85.5-183,190.4-183s190.4,82.2,190.4,183
	C502.8,541,417.3,623.1,312.5,623.1z"/>
<g>
	<path class="st2" d="M312.5,269.1c-98.3,0-178,76.6-178,171.1s79.7,171.1,178,171.1s178-76.6,178-171.1S410.8,269.1,312.5,269.1z"
		/>
	<path d="M243.2,597.9c-21.2-8.6-40.3-21-56.6-36.7c-16.4-15.7-29.2-34-38.2-54.4c-9.3-21.1-14-43.5-14-66.6s4.7-45.5,14-66.6
		c9-20.4,21.8-38.7,38.2-54.4c16.4-15.7,35.4-28.1,56.6-36.7c22-8.9,45.3-13.5,69.3-13.5s47.4,4.5,69.3,13.5
		c21.2,8.6,40.3,21,56.6,36.7c16.4,15.7,29.2,34,38.2,54.4c9.3,21.1,14,43.5,14,66.6s-4.7,45.5-14,66.6c-9,20.4-21.8,38.7-38.2,54.4
		c-16.4,15.7-35.4,28.1-56.6,36.7c-22,8.9-45.3,13.5-69.3,13.5S265.1,606.8,243.2,597.9z M243.2,282.6
		c-21.2,8.6-40.2,20.9-56.5,36.6c-16.3,15.7-29.2,34-38.1,54.3c-9.3,21.1-14,43.5-14,66.5s4.7,45.5,14,66.5
		c9,20.4,21.8,38.6,38.1,54.3s35.4,28,56.5,36.6c21.9,8.9,45.2,13.4,69.2,13.4c24,0,47.3-4.5,69.2-13.4
		c21.2-8.6,40.2-20.9,56.5-36.6c16.3-15.7,29.2-34,38.1-54.3c9.3-21.1,14-43.5,14-66.5s-4.7-45.5-14-66.5
		c-9-20.4-21.8-38.6-38.1-54.3c-16.3-15.7-35.4-28-56.5-36.6c-21.9-8.9-45.2-13.4-69.2-13.4C288.5,269.2,265.2,273.7,243.2,282.6z"
		/>
</g>
<g>
	<path class="st3" d="M433.6,469.9c46.2-6.2,43.7-21.8,57.4,20.6c5,15.6-6.2,56.7-9.4,73c-6.8,35.5-17.4,31.8-46.7,31.8l-266.3-5
		c-39.3,0-17.5-23-3.7-51.1c16.8-33.7,64.2-59.9,98.6-76.8c19.3-9.4,39.9-18.1,64.7-9.4c18.7,6.3,53.1,10.7,72.4,10.7
		C407.4,463.7,436.7,464.9,433.6,469.9z"/>
	<path d="M442.4,603.3c-2.4,0-4.9-0.1-7.5-0.1l-266.3-5c-9.4,0-22.6-1.1-28-10.3c-6.1-10.3,1.1-23.1,9.4-37.8
		c2.6-4.7,5.3-9.5,7.8-14.6c17.9-35.9,66.9-63.1,102.2-80.4c20.9-10.1,43.6-19.2,70.8-9.7c18.1,6,51.2,10.2,69.8,10.2
		c3.5,0,11.5,0.3,18.9,1c9.2,0.9,14.7,2.2,18,4.5c9.1-1.5,15.9-3.2,21.5-4.7c10.2-2.6,18.2-4.7,25.3,1.1c5.6,4.6,8.7,12.8,14.3,30.4
		c4.4,13.6-0.6,38.7-6.6,65.5c-1,4.6-1.9,8.5-2.5,11.5c-3.5,18.3-8.3,27.9-16.5,33.3c-6.8,4.4-14.8,5.1-24.6,5.1
		C446.5,603.4,444.5,603.3,442.4,603.3z M463,472.1c-6.7,1.7-15.8,4.1-28.3,5.8l-17.1,2.3l4.4-7c-6.1-0.8-15-1.4-21.5-1.4
		c-20.2,0-55.1-4.4-74.9-11.1l-0.1,0c-21.5-7.5-39.2-0.4-58.6,9c-33.2,16.3-79.2,41.6-94.9,73.1c-2.6,5.4-5.5,10.4-8.2,15.3
		c-4,7.1-10.6,19-9.5,21.9c0,0,2.2,2.4,14.3,2.4l266.3,5c2.7,0,5.3,0,7.7,0.1c10.2,0.1,17.6,0.2,21.6-2.4c4.1-2.7,7-9.7,9.6-22.9
		c0.6-3.2,1.5-7.3,2.6-11.9c3.6-16.3,10.4-46.5,7-57.1c-2.4-7.5-7-21.6-9.3-23c-0.2-0.1-0.4-0.1-0.7-0.1
		C471.3,469.9,466.7,471.1,463,472.1z"/>
</g>
<g>
	<path class="st2" d="M551.5,680.3l-96.6-27.7l-1.6-19.7c-102.5-15.1-196.4-13.6-282.1,4.2l-0.5,18.4l-96.2,24.7
		c5-16.1,13-28.2,22.6-38c-12.7-8.9-22-17.1-22.6-23.6l49.4-16.8v-26.4c112.5-33.3,250.6-36.6,379.3,0v27.2l48.3,16
		c4.4,3.9-14.4,16.4-21.6,24.6C537.1,655.7,548.8,666.8,551.5,680.3z"/>
	<path d="M451.1,655.6l-1.6-19.2c-98.8-14.3-191.1-12.9-274.5,4l-0.5,18.3L68.6,685.9l2.1-6.9c4.3-13.8,11-25.7,20.4-36.2
		c-13.7-9.9-19.9-17.2-20.5-23.8l-0.3-3.2l49.7-16.9v-26.5l2.9-0.8c119-35.2,258.1-35.2,381.5,0l2.9,0.8v27.3l46.3,15.3l0.6,0.5
		c1.3,1.2,2,2.7,2,4.5c0,4.7-5,9.3-13.9,17c-2.6,2.3-5.3,4.6-7.4,6.7c2,3.1,4.3,6.2,6.5,9.3c5.9,8.1,12,16.6,14,26.4l1.3,6.5
		L451.1,655.6z M167.3,633.9l3.1-0.6c86-17.9,181.4-19.4,283.5-4.3l3.1,0.5l1.6,20.1l86.7,24.9c-2.5-5.6-6.4-11-10.5-16.6
		c-2.9-4-6-8.2-8.5-12.5l-1.4-2.5l1.9-2.2c2.6-2.9,6.4-6.3,10.2-9.5c3.2-2.8,8-7,10.2-9.7l-48-15.9v-27.1
		c-120.3-33.7-255.3-33.7-371.3,0v26.2l-48.4,16.5c2,3.5,7.3,9.1,19.9,17.8l3.9,2.7l-3.3,3.4c-8.5,8.6-14.8,18.3-19.2,29.5l86-22.1
		L167.3,633.9z"/>
</g>
<g>
	<path class="st4" d="M269.3,278.4c-39.5,26.3-107.1,68.2-121.2,111.1c-5.1,16.2-3,25.8,3,38.4c9.6,19.7,3-18.6,37.4-18.6
		c4.5,0,24.3-15.1,28.8-17.2c18.1-9.1,7.1,3.1,7.6,3.1c57.1,28.2-18.7,89.3-1,107c6.6,6.6,20.2,5.5,34.3,19.7
		c5.5,5.5,25.8,33.8,26.3,31.8c4-16.7,3.5-15.2,8.6-4.5c7.1,14.6,20.7-9.6,20.7-19.7c0-3,2.5-8.1,2.5-11.1c0-1,3,29.8,15.1,11.6
		c6.6-9.6,11.1-38.9,11.1-19.2c0,19.7,6,24.3,12.6,37.9c5.5,11.6,11.2-18.7,15.7-23.3c8.1-8.1,15.1,24.8,43.9-4
		c14.7-14.7,14.7-1,14.7-40.5c0-25.7,10.1,26.8,10.1-18.6c0-16.7-6-36.9-6-52c0-13.1,24.3,30.2,4.5-9.6
		c-30.3-60.6,1-64.7-38.4-104.1C370.2,267.2,279.4,272.8,269.3,278.4z"/>
	<path d="M269.4,539c-5.1-6.6-10.4-13.4-12.7-15.8c-8.1-8.1-16.1-11.1-22.6-13.5c-4.7-1.7-8.8-3.2-11.7-6.2
		c-7.8-7.8-0.7-21.4,7.5-37.1c8.5-16.4,18.2-34.9,13.2-50.1c-2.6-7.8-8.7-14.1-18.8-19.1l-0.8,0L223,396c-0.6-1.1,0-2,0.7-3
		c0.6-0.9,1.1-1.6,1.4-2.2c-1.2,0.3-3.3,1.1-7.1,3c-1.5,0.7-5.2,3.2-9.2,5.9c-10.2,6.9-17.2,11.5-20.5,11.5
		c-18.4,0-24.2,11.5-27.6,18.4c-1.7,3.4-2.9,5.8-5.4,5.8c0,0,0,0,0,0c-2.4,0-4-2.5-6.1-6.7c-6.1-12.8-8.5-22.9-3.1-39.9
		c13.3-40.3,73-79.7,112.5-105.8c3.3-2.2,6.5-4.3,9.5-6.3l0.1-0.1c5.9-3.2,32.4-5.7,59-4.2c44.6,2.5,64.7,13.8,73.6,22.7
		c21.8,21.9,22.5,33.1,23.4,48.8c0.7,12.6,1.6,28.4,15.4,55.9c3.2,6.4,5.2,10.6,6.4,13.4c1.4,3.2,2.3,5.3,0.6,6.4
		c-1.8,1.2-3-0.2-5.8-3.6c-1.3-1.5-3.9-4.6-5.5-5.8c0,0,0,0,0,0.1c0,7.2,1.4,15.6,2.9,24.4c1.6,9.3,3.2,18.9,3.2,27.6
		c0,18.7-1.7,20.7-3.9,21.2c-2.6,0.7-4.2-2.3-6-5.4c-0.1-0.1-0.1-0.2-0.2-0.3c0,0.8-0.1,1.8-0.1,3.1c0,29.8,0,30.4-6.9,35
		c-2,1.4-4.7,3.2-8.4,6.9c-20.1,20.1-31.1,11.4-37.6,6.3c-4.1-3.2-5-3.5-6.3-2.2c-1.3,1.3-3.1,6.3-4.7,10.7
		c-3.5,9.6-5.8,15.5-9.6,15.7c-1.8,0.1-3.4-1.2-4.6-3.8c-1.6-3.2-3.1-5.9-4.5-8.5c-4.4-7.9-8-14.3-8.3-28.5c0,0.1,0,0.1-0.1,0.2
		c-2,6.2-4.4,14-7.4,18.4c-3.4,5.1-6.6,7.3-9.8,6.5c-3.1-0.7-5.5-4.1-7.2-10.2c-0.2,0.8-0.3,1.5-0.3,2c0,8.3-7.8,24.3-15.7,26.1
		c-2.1,0.5-5.9,0.4-8.8-5.5c-0.5-1-0.9-1.9-1.3-2.7c-0.4-0.9-0.8-1.7-1.2-2.5c-0.6,1.9-1.3,5-2.2,8.5l-0.2,0.9
		c-0.2,0.8-0.8,1.4-1.6,1.6c-0.2,0-0.4,0.1-0.6,0.1C282.6,555.8,280.8,553.7,269.4,539z M318.3,518.5c1.5,10.6,4.1,14.8,5.8,15.2
		c1.3,0.3,3.4-1.5,5.6-4.9c2.7-3.9,5.1-11.7,6.9-17.3c2.4-7.5,3.1-9.7,5.4-9.4c2.2,0.3,2.4,2.8,2.4,8.6c0,14.5,3.3,20.3,7.8,28.3
		c1.4,2.5,3,5.4,4.6,8.7c0.4,0.8,0.7,1.2,0.9,1.4c1.7-1.1,4.5-8.8,6-13c2-5.5,3.7-10.3,5.6-12.2c4-4,8.1-0.9,11.6,1.9
		c6.6,5.2,14.7,11.6,32.3-5.9c3.9-3.9,6.8-5.9,9-7.3c5.1-3.5,5.1-3.5,5.1-31.7c0-6.7,0.6-8.9,2.6-9.4c2.2-0.6,3.5,1.7,5.1,4.6
		c0.4,0.7,0.9,1.7,1.4,2.4c0.4-1.9,0.9-6.3,0.9-16.3c0-8.4-1.6-17.8-3.1-26.9c-1.5-9-2.9-17.5-2.9-25.1c0-2.4,0.7-3.8,2.2-4.4
		c1.8-0.7,3.7,0.4,6,2.7c-1-2-2.1-4.3-3.4-7c-14.1-28.2-15-44.4-15.8-57.4c-0.8-14.7-1.5-25.4-22.2-46.2
		c-16.2-16.2-51.4-20.4-71-21.6c-27.1-1.5-52,1.2-56.8,3.7c-3,2-6.2,4.1-9.4,6.2c-39.1,25.8-98.1,64.8-110.9,103.7
		c-5,15.7-2.9,24.8,2.9,36.9c1.3,2.6,2.1,3.8,2.5,4.2c0.5-0.7,1.2-2.2,1.9-3.4c3.6-7.2,10.4-20.6,31.2-20.6c2.3,0,12.7-7,18.2-10.8
		c4.4-3,7.9-5.4,9.7-6.2c7.6-3.8,11-4.5,12.7-2.5c1.6,1.9,0.1,4.5-1.3,6.6c10,5.4,16.5,12.3,19.2,20.7c5.5,16.8-4.6,36.2-13.5,53.2
		c-7.5,14.4-13.9,26.8-8.3,32.5c2.3,2.3,5.8,3.6,10.3,5.3c6.8,2.5,15.4,5.7,24.1,14.4c2.5,2.5,7.6,9.2,13.1,16.2
		c3.5,4.6,8,10.4,10.6,13.4c2.1-8.8,2.8-10.7,5-10.9c2.2-0.2,3.2,1.9,5.3,6.4c0.4,0.8,0.8,1.7,1.3,2.7c1.9,3.9,3.7,3.5,4.3,3.4
		c4.7-1.1,12.6-13.9,12.6-22.2c0-1.8,0.7-4,1.4-6.1c0.6-1.8,1.2-3.7,1.2-4.9l0-1.9l1.9-0.1c0.1,0,0.1,0,0.2,0
		C317.1,516.3,318,516.7,318.3,518.5z"/>
</g>
<path class="st2" d="M278.3,333c1.7,3.5,5.3,4.9,5.6,9.6C286.4,338.4,283.4,332.5,278.3,333z"/>
<g>
	<path class="st5" d="M283,376.6c-39.1,5.2-74.4,17.9-107.1,35.9c-4.5,2.5-17.9,18.4-21.3,15c-12.9-12.8-6.6-36-0.4-51.7
		c8.2-20.4,36.4-54.3,59.3-31.4c7.2,7.2-8.1,30.5,12.5,30.5c14.2,0,28.3-1.6,42.4-1.6C271.4,373.2,283,377.8,283,376.6z"/>
	<path class="st6" d="M154.6,427.5c-5.8-5.7-8.2-14.1-7.4-24.9c0.6-7.8,3-16.8,7-27c5.6-14,21.1-35.2,38-38.6
		c7.9-1.6,15.1,0.8,21.5,7.2c2.8,2.8,2.3,7.9,1.7,13.2c-0.6,5.4-1.2,10.9,1.8,14.2c1.8,2,4.8,3,9,3c7.1,0,14.3-0.4,21.3-0.8
		c6.9-0.4,14.1-0.8,21.2-0.8c1.3,0,4.4,1,7.5,1.9c2.2,0.7,4.6,1.4,5.9,1.6c0.4,0,0.7-0.1,1.1-0.1l0.1,0v0.1c0,0.1,0,0.2-0.1,0.2
		c-0.2,0.1-0.5,0.1-1.1,0c-36.6,5-71.2,16.7-105.9,35.7c-1.5,0.8-4.1,3.3-6.9,5.9c-4.9,4.6-10.3,9.6-13.2,9.6
		C155.4,428,154.9,427.9,154.6,427.5z M275.9,375.2c-3-0.9-6.1-1.9-7.4-1.9c-7,0-14.2,0.4-21.1,0.8c-7,0.4-14.2,0.8-21.3,0.8
		c-4.3,0-7.3-1-9.2-3.1c-3-3.3-2.4-9-1.8-14.4c0.6-5.3,1.1-10.3-1.6-13c-6.3-6.3-13.5-8.7-21.3-7.1c-16.8,3.4-32.3,24.6-37.9,38.5
		c-4,10.1-6.4,19.1-7,26.9c-0.8,10.7,1.6,19,7.3,24.7c2.2,2.2,8.9-4.1,14.3-9.1c2.9-2.7,5.4-5,6.9-5.9c34.5-18.9,69-30.6,105.4-35.6
		C280.1,376.5,278.3,375.9,275.9,375.2z"/>
</g>
<g>
	<path class="st5" d="M271.1,335.6c1.6-1.2,3.5-2.8,5.6-1.9c0.6,0.3,5.3,5,5.3,6.3c0,1.3,0.9,5,0.4,6.3c-1.3,2.5-4.8,6.9-6.6,7.8
		c-5,2.5-14.4,1.9-14.4-5.6c0-3.5,0-5.7,1.5-8.8C264.2,337.1,268.3,334.6,271.1,335.6z"/>
	<path d="M264.3,354.1c-2-1.2-3-3.2-3-5.7c0-3.4,0-5.7,1.5-8.8c1.3-2.6,5.5-5.1,8.3-4.2l0.2-0.1c1.5-1.2,3.4-2.6,5.5-1.7
		c0.7,0.3,5.4,5.1,5.4,6.4c0,0.4,0.1,1.1,0.2,1.9c0.2,1.6,0.5,3.5,0.1,4.4c-1.2,2.4-4.7,6.9-6.7,7.9c-1.6,0.8-3.8,1.3-6.1,1.3
		C267.8,355.5,265.8,355.1,264.3,354.1z M271.4,335.5l-0.3,0.2l-0.1,0c-2.7-0.9-6.8,1.5-8.1,4c-1.5,3.1-1.5,5.3-1.5,8.7
		c0,2.4,1,4.3,2.9,5.5c3.3,2,8.3,1.5,11.3,0c1.9-1,5.3-5.4,6.6-7.8c0.4-0.8,0.1-2.7-0.1-4.3c-0.1-0.8-0.2-1.5-0.2-2
		c0-1.1-4.5-5.8-5.3-6.2c-0.4-0.2-0.9-0.3-1.3-0.3C273.9,333.5,272.6,334.5,271.4,335.5z"/>
</g>
<path class="st3" d="M228.6,494.5c-0.8,5-6.1,9.2-5.6,12.9c28.7,4.6,46,20.5,49.1,50.7c2.2-31.1-18.2-46.7-37.9-58.8
	c0.6-8.4-1.2-14.3-3.2-20.1c-2.9,6.2-4.9,13.3-10.5,16.8c1.9-5.3,3.2-12.3,1.7-16.8c-3.6,3.3-4.2,9.7-9.6,11.2
	c-5.1,1.3-3.6-3.9-7.3-4c-9.4,6-21.9,8.7-21.7,24.2c4.5-10.2,13.2-16.3,29-15.3c-1.5,6.1-10.5,11.5-20.2,12.1
	C208.6,510.5,221.6,503.4,228.6,494.5z"/>
<path class="st3" d="M217.1,337.1c-1.1-1.9-3.3,1.9-4.8,2.4c0.6-9.4,4.7-15.2,10.4-19.3c-6.6-0.9-11.7,6.5-16.1,10.4
	c0.6-3.1,2.2-5.3,4-7.2c-3.5-0.8-7.1,5.2-8.9,8.9c-18.6,7.7-34.4,18.1-45.1,33.8c6.5-8.8,41.6-32.1,53.9-13.7
	c8.6,12.9-13.5,32.5-20.2,37.8c-7.4,6-16,5.8-25.8,9.7c-15.8-8.9-4-34.1,6.5-40.2c-26.2,4.6-35.2,64.9-8.9,79.6
	c-8.6-16.3,2-29.2,16.1-34.5c3.5-1.4,7.6-0.9,11.2-3.2c3.7-2.4,4.8-6.6,8.9-9.6c15.7-11.7,40.6-16.4,65.2-15.3
	c6.3,0.3,13,2.9,17.7-1.6c-6.5-5.3-21.1-2.4-32.2-3.2c-2.4-1.2,2.5-1.7,3.2-2.4c-5.1-2.1-14.9,0.4-20.1-1.7c1.9-2.1,8.7,0.7,8.8-3.2
	c-10.2-1.4-12.7,5-20.9,5.6c-1.9-0.9,3.4-1.4,4-2.4c-17.1,0.2-2.2-17.9-10.5-25.7C214.2,339.5,215.3,337.9,217.1,337.1z"/>
<path class="st3" d="M281.6,337.3V352c-2.4,2-5.3,3.2-8.9,2.7c11.1-0.3,10.3-23.3-1.6-19.4c12.6,6.4-4.2,20.1-8.1,6.5
	c-4,6.4,4.7,11.2,2.4,12.9c-9.3-2.2-10.7-26.6-21-11.3v-0.1v-2.9c1.5-12.2,24.5-3,26.6-14.8c-0.9-0.1-1.2,1.2-1.6,0
	c3-1.4,7.3-1.9,12.1-2.1v10c-0.9-0.5-2-0.8-3.2-0.6C279.1,334.7,280.4,335.9,281.6,337.3L281.6,337.3z M275.1,359.6
	c2.2-0.4,4.4-1.1,6.5-2.1v2.3C279.6,360.1,277.5,360,275.1,359.6z M281.6,333.7v-10c8.8-0.3,18.9,0.5,24.1-1.9
	c-3.1,2.9-8.4,3.5-11.3,6.5c6.3-1.1,11.7,3.7,16.9,4.8c9.6,2.1,19-0.9,27.3,2.4c7.4,3,10.3,6.9,16.9,8.1c4.8,0.9,9.6-0.4,12.9,0.8
	c-19.8,4.8-42-9.9-57.9,0c4.2-2.4,8.2-5.2,12.9-7.2c-26.1-5.1-18.4,27.8-38.7,25.7c7.6-3.5,18.1-12.2,13.7-22.5
	c-2.7,8.6-7.5,18.1-16.8,19.6v-2.3c7.7-3.6,13.6-11.2,9.6-20.4c-2.7,4.8-5.3,11.3-9.6,15v-14.8c1.2,1.4,2.2,3,2.4,5.4
	C285.8,339.4,284.5,335.3,281.6,333.7z"/>
<path class="st3" d="M203.5,361.2c-0.5-6.6-9.4-8.7-16.1-6.4c-0.4,3.3,3.7,2.2,4.9,4C193.2,353.9,199.4,364.1,203.5,361.2z"/>
<path class="st3" d="M284,376.4c-0.1-0.9-0.8-0.4-0.8,0c-8.6,4.7-26.6,1.4-39.5,2.4c-18.4,1.5-31.6,9.3-45.1,14.5
	c-6.3,14.1-28.5,12.2-35.4,25.8c28-0.6,40.2-24.5,66.8-25.8c13.5-0.6,25.5,8,41.8,4c-14-1.2-23.1-7.5-38.6-7.3
	C242.6,378.1,276.5,390.5,284,376.4z"/>
<path class="st3" d="M247,461.7c2.2,16.6,5.3,32.3,9.6,46.7c-2.2-20.6-9.4-57.6,4-74.1c10,20.6,24,37.2,41.8,49.9
	c-16.4-16.6-31.1-41.8-39.5-69.1c8.3,3,14.6,7.8,20.2,13.6c-2.3,0.6-2.1-1.2-4-0.8c17.3,13,33.3,27.3,37.8,53.1
	c-1.2-32.1-24.9-48.6-43.4-66c23.9,11.7,46.6,24.7,54.6,52.3c1.3-14-8.9-23.3-16.1-31.4c15.6,6.3,31,19.9,35.4,40.2
	c-2.3-34.4-31.6-48.8-59.5-60.3c18.6,1.2,38,8.6,50.6,18.4c-11.2-15.3-39.5-20.4-63.5-25.6c11.2-1.8,21.8,3,33,1.6
	c5.3-0.7-1.9-0.9-1.6-0.8c-6.8-1.7-25-2.7-36.2-4.8c9-1.5,19.3-1.6,27.4-4c-24.3,3-49-4.4-74-4c46.5,15.9,5.5,92.5-27.4,103
	C218.4,495.5,236.6,480.3,247,461.7z"/>
<path class="st3" d="M436.8,471.4c-5.9-3-14.4-10.3-26.6-9.7c13.4,9.4,21.8,26.4,18.5,50c-14-2.7-26.9-13.3-30.6-29
	c-4,20,16.9,29.1,10.5,49.1c-9.1,1-10.9-5.2-15.3-8.9c0.3,5.3-0.7,12,0.9,16.1c-11.6-3.2-3.5-26.1-17.7-26.6
	c7.6,4.2,4.9,12.6,7.2,23.3c1.8,8.5,9.4,10.9,15.3,16.1c0.5-2.6-2.6-11.7,0.8-15.3c7.6,2.9,13.5,7.4,14.5,16.9
	c6.6-8.5,4.4-28.8,0-37.9c6,9,10.9,19.2,10.4,34.6c11.2-18.9,15-57.9,1.7-77.3c7.1,4.5,10.4,12.7,12.9,21.7c4.1-28,0.9-62-8.1-82
	C433.6,424.8,440.5,450.4,436.8,471.4z"/>
<path class="st3" d="M363.6,545.4c-20.4-7.8-9.9-46.4-31.4-53.1c3.6,8.4,7.1,29.8-3.2,36.2c-4.9-9.2-12-16.3-20.9-21.7
	c3.9,12.1,0.4,32.3-7.2,40.2c-4.5-17.6-12.7-31.3-24.2-41.8c5.5,17.4,24.3,19.4,13.5,43.3c21.4-1.6,23-0.6,23.6-27.9
	c1.8-4.2,0.9,25.8,15.4,31.7c-7.8-19,20.4-9.9,7.7-31.5c12.6,15.3,5,32.7,37.1,31.2c-9.1-10.2-7.1-24,2.5-32.3
	C369.6,522.5,362.9,532.3,363.6,545.4z"/>
<g>
	<path class="st3" d="M229.2,303.9c28.6-15.2,30-20.3,41.5-48.9c3.7-9.2-5.1-35.5,3.2-35.5c11.1,0,4.7,45.2,4.7,51.2
		c0,1.4,47.3-79.6,53.4-71.5c4.2,5.5-39.5,72.9-29.3,66c22.5-15.3,31.7-48.7,50.5-58.1c29.6-14.7,8.6,2.2-3.5,19.8
		c-62.9,92.4,0.3-1.3,63,5.1c1.4,0.1-46.4,26.8-53.5,29.5c-67.7,26.1,43.8-8.9,71.5,7.3c26.4,15.6-28.6,6.5-34.1,6.5
		c-8.4,0-61.8-3.7-31.8,2.3c24.4,4.6,44.3,9.2,65.4,19.9c18.9,9.2-30.4-6.5-33.2-7.4c-6-1.9-14.8-1.9-21.2-2.7
		c-2.3-0.5,32.3,6.9,49.8,26.3c11.1,12.5,27.7,28.6,0.5,10.6c-5.5-3.7-41-23.5-19.9-12.9c12.5,6,29.1,32.3,34.1,45.2
		c8.8,22.6-65-58.6-23.5-17.1c14.3,14.3,18.4,31.3,18.4,46.1c0,27.2-7.8-14.3-12-18.4c-0.9-0.9-27.6-39.2-19.8-23
		c2.7,6,11.1,19.8,11.1,26.3c0,5-18.5-20.7-26.4-36.9c-3.2-6.4,1.4-3.7,9.3,0c12.9,6.5,19.4,13.9,5-0.4c-5-5.1-15.7-15.3-7.3-15.3
		c11.5,0,21.7,17.6,14.8,7.4c-6-8.8-10.2-15.7-18.5-21.2c-20.7-13.8,28.2,17.6,5.1-5.5c-10.7-10.6-36.9-6.9-49.8-6.9
		c-1.9,0,34.6-8.3,9.6-8.3c-11.5,0-24.4,4.6-34.5,4.6c-18,0,2.7-12.5,9.6-13.8c2.3-0.5-40.5,14.3-47.4,14.3c-3.7,0,15.3-29-3.7-10.2
		c-16.1,16.2-10.2-0.9-11.1,0.5C260.6,291.9,229.6,303.9,229.2,303.9z"/>
	<path d="M428.7,381.7c-2-6.4-4-13-5.5-14.5c-0.2-0.2-1.2-1.6-2.7-3.7c-2.6-3.7-7.1-9.8-10.9-14.8c-6.2-8.1-7.3-8.7-7.5-8.6
		c-0.1,0-0.3,0.4,1.4,3.8c0.7,1.5,1.7,3.5,2.9,5.8c3.5,6.6,8.2,15.7,8.2,20.6c0,0.4-0.1,0.7-0.4,0.7c0,0-0.1,0-0.1,0
		c-2.9,0-19.2-23.5-26.1-37.6c-1-2.1-1.3-3.2-0.8-3.7c0.8-0.9,3.7,0.5,8,2.5c0.7,0.3,1.5,0.7,2.3,1.1c5.1,2.5,9.1,5.2,11.3,6.7
		c0.6,0.4,1.2,0.8,1.5,1c-0.4-0.5-1.5-1.5-3.1-3.1c-1.3-1.2-2.8-2.8-4.8-4.8c-0.3-0.3-0.7-0.7-1-1c-4.1-4.2-10.4-10.5-9.3-13.2
		c0.3-0.8,1.4-1.3,3.1-1.3c6.4,0,12.5,5.5,15.4,8.6c-0.2-0.3-0.4-0.6-0.7-1c-0.7-1-1.4-2-2-3c-5.1-7.5-9.1-13.4-16.5-18.3
		c-5.4-3.6-5.4-3.7-5.3-3.8c0.1-0.1,0.1-0.2,2.8,1.3c3.8,2,12.7,6.7,13.8,5.3c0.4-0.6-0.3-2.5-6.2-8.4c-8.7-8.6-27.6-7.8-41.4-7.1
		c-3.1,0.1-6,0.3-8.4,0.3c0,0-0.2,0-0.2-0.1c0-0.2,0-0.2,3.3-1.1c4.6-1.3,15.4-4.3,15.2-5.9c-0.1-0.5-1.6-1.2-8.6-1.2
		c-5.9,0-12.3,1.2-18.4,2.4c-5.8,1.1-11.3,2.2-16.1,2.2c-4.7,0-7.1-0.8-7.3-2.5c-0.2-2.4,4.4-5.6,6.4-6.8c1.1-0.7,2.3-1.4,3.4-2
		c-4.1,1.4-9.4,3.2-14.2,4.7c-10,3.2-22.7,7-26.3,7c-0.2,0-0.4-0.1-0.5-0.2c-0.6-0.9,0.9-4.3,2.5-7.9c1.6-3.6,3.4-7.7,2.5-8.3
		c-0.7-0.5-3.5,1.6-8.2,6.3c-5.4,5.4-8.9,7.7-10.6,6.9c-1.5-0.8-1-4-0.7-5.7c0-0.2,0.1-0.4,0.1-0.6c-4.6,6.9-15.1,13.4-23.1,17.6
		c-8.7,4.6-16.7,7.7-17,7.7h-0.4l0.4-0.2c14.6-7.8,21.6-12.7,26.6-18.8c5.3-6.4,8.5-14.4,13.8-27.5l1-2.5c1.6-3.9,0.9-10.9,0.2-17.7
		c-0.7-7.4-1.4-14.4,0.8-16.9c0.6-0.6,1.3-1,2.3-1c1.1,0,2.1,0.5,3,1.4c5.6,6.1,3.4,31.3,2.3,43.4c-0.3,2.9-0.4,5.1-0.5,6.2
		c0.6-0.8,2.7-4.2,5.6-8.8c11.7-18.8,39.1-62.8,46.5-63.2c0.5,0,1,0.2,1.3,0.6c2.2,2.9-8.4,22.3-17.8,39.4
		c-7,12.7-14.2,25.8-12.9,26.9c0.2,0.2,0.6,0,1.3-0.4c11.2-7.6,19-19.6,26.6-31.2c7.4-11.4,14.5-22.2,23.9-26.9
		c9.7-4.8,14.2-6.4,15.1-5.3c1,1.2-2.5,5.4-7.4,11.1c-3.6,4.3-7.6,9.1-11,14.1l-1.6,2.4c-17.9,26.3-25.3,37.2-24.2,38.3
		c0.6,0.6,4.4-2,9.6-5.7c15.4-10.8,47.4-33.3,79.2-30.1c0.1,0,0.1,0.1,0.1,0.1c0,0.1,0.1,0.4-7.4,4.7c-4.4,2.6-10.4,5.9-16.8,9.5
		c-11.2,6.2-25.7,14-29.5,15.5c-5.9,2.3-21.7,8.4-21.4,9.6c0.2,0.8,8-0.4,17-1.7c22.9-3.5,61.1-9.4,75.9-0.7c5.3,3.1,7.6,5.4,7.1,7
		c-1.4,4.1-21.8,1.8-34.1,0.4c-3.5-0.4-6.2-0.7-7.2-0.7c-1.8,0-5.9-0.2-10.7-0.4c-6.1-0.3-13.7-0.6-19.7-0.7
		c-9-0.1-10.4,0.3-10.4,0.6c0,0.2,0.8,0.9,9,2.6c22.7,4.3,43.4,8.8,65.5,19.9c4.1,2,4.5,2.6,4.4,2.9c-0.1,0.3-0.5,1.1-18.3-4.1
		c-8.9-2.6-18.2-5.6-19.4-6c-4-1.2-9.2-1.7-14.2-2.1c-1.9-0.2-3.7-0.3-5.4-0.5c3.1,0.8,9.8,2.7,17.5,5.9c13.5,5.6,23.8,12.3,30.7,20
		c1.6,1.8,3.4,3.8,5.1,5.6c6.8,7.4,10.9,12,10.1,13c-0.5,0.6-2.6,0.2-14.8-7.9c-1.7-1.1-6.3-3.8-11.3-6.8
		c10.7,10.4,21.9,29.1,25.7,39c0.9,2.4,1,3.7,0.2,4.1c-1.8,0.9-8.2-4.2-15.2-10.6c2.5,3.9,4.5,8,6,12.3c2.6,7.2,3.9,15,3.9,23.3
		c0,8.1-0.7,9.2-1.3,9.3c0,0,0,0-0.1,0C432.9,394.8,431.2,389.8,428.7,381.7z M404.1,327.8c-0.1-0.2-0.2-0.4-0.1-0.5
		c0.1-0.1,0.5-0.4,12.9,12c3,3,5.7,6.3,8,9.8c5.3,5,11.3,10.1,14.3,11.1c0.7,0.2,1.2,0.2,1.5,0c0.5-0.5,0.3-1.7-0.5-3.7
		c-3.9-10-15.4-29.2-26.3-39.5c-0.1-0.1-0.2-0.1-0.3-0.2c-12.7-7.4-14.3-8.5-14.2-8.7c0.1-0.2,0.2-0.3,6.8,3
		c2.5,1.2,5.1,3.2,7.8,5.7c5.3,3.1,10.3,6,12.1,7.2c9,6,13.9,8.6,14.5,7.9c0.8-0.9-5-7.2-10.1-12.7c-1.7-1.9-3.5-3.8-5.1-5.6
		c-16.1-17.8-46.4-25.5-49.8-26.3c0,0,0,0,0,0l0,0l0,0c0,0-0.1,0-0.1-0.1c0-0.1,0.1-0.1,0.1-0.1l0,0l0,0c0,0,0,0,0,0l0.1,0
		c2.2,0.3,4.5,0.5,7,0.7c5,0.4,10.2,0.8,14.2,2.1c1.2,0.4,10.5,3.4,19.4,6c15.9,4.7,17.9,4.5,18,4.2c0-0.1,0-0.5-4.3-2.6
		c-22.1-11.1-42.7-15.6-65.4-19.9c-9.3-1.8-9.2-2.5-9.1-2.8c0.1-1.2,10.3-1,30.3-0.1c4.7,0.2,8.8,0.4,10.7,0.4c1,0,3.6,0.3,7.2,0.7
		c11.4,1.3,32.5,3.7,33.8-0.2c0.5-1.5-1.9-3.7-7-6.8c-14.7-8.7-52.9-2.8-75.8,0.7c-11.5,1.8-17,2.6-17.2,1.6
		c-0.2-0.8,3.3-2.8,21.5-9.8c7.3-2.8,51.1-27.3,53.4-29.3c-31.6-3.1-63.5,19.3-78.9,30c-6.3,4.4-9.2,6.4-9.9,5.7
		c-1.2-1.2,5.2-10.6,24.2-38.6l1.6-2.4c3.4-5,7.5-9.8,11-14.1c4.4-5.3,8.2-9.8,7.4-10.9c-0.8-1-5.5,0.7-14.8,5.3
		c-9.4,4.7-16.4,15.5-23.8,26.9c-7.6,11.6-15.4,23.6-26.6,31.2c-0.8,0.5-1.3,0.7-1.5,0.4c-1.3-1.2,4.1-11.1,12.9-27.2
		c9.3-17.1,19.9-36.4,17.8-39.2c-0.3-0.4-0.7-0.5-1.1-0.5c-7.3,0.3-34.7,44.3-46.4,63.1c-5.3,8.5-5.7,9.1-5.9,9l-0.1,0v-0.1
		c0-1.1,0.2-3.4,0.5-6.5c1.1-12.1,3.3-37.2-2.2-43.3c-0.8-0.9-1.8-1.3-2.8-1.3c-0.9,0-1.6,0.3-2.1,0.9c-2.2,2.4-1.5,9.4-0.8,16.7
		c0.7,6.8,1.4,13.8-0.2,17.8l-1,2.5c-10.4,25.8-12.7,31.5-39.2,45.7c2.7-1,8.9-3.7,15.6-7.2c8-4.2,18.5-10.7,23-17.6
		c0,0,0.1-0.2,0.2-0.1c0.1,0.1,0.1,0.2,0,1c-0.3,1.5-0.8,4.7,0.6,5.4c1.5,0.8,5-1.5,10.3-6.8c6.4-6.4,7.9-6.7,8.4-6.3
		c1,0.7-0.7,4.5-2.5,8.6c-1.5,3.4-3,6.9-2.5,7.7c0.1,0.1,0.2,0.1,0.3,0.1c3.7,0,17.9-4.3,26-6.9c6.2-2,12-3.9,16-5.3
		c2.1-1,4.1-1.7,5.5-2c0.1,0,0.1,0,0.2,0l0,0.1l0,0.1c-0.1,0.1-2.3,0.9-5.6,2.1c-5.3,2.5-11.5,6.8-11.3,9.3c0.1,1.5,2.6,2.3,7.1,2.3
		c4.9,0,10.3-1.1,16.1-2.2c6.1-1.2,12.4-2.4,18.4-2.4c7.8,0,8.8,0.8,8.8,1.4c0.2,1.6-7.8,4-15.3,6.1c-1.1,0.3-2.1,0.6-2.7,0.8
		c2.3,0,5-0.1,7.9-0.3c13.9-0.6,32.8-1.5,41.6,7.2c4.9,4.9,6.9,7.7,6.2,8.6c-1,1.4-7.8-2-14-5.3c-0.8-0.4-1.6-0.8-2.1-1.1
		c0.9,0.6,2.8,2,4.7,3.2c7.4,4.9,11.4,10.8,16.5,18.3c0.7,1,1.3,1.9,2,3c1.5,2.2,2.2,3.1,2.2,3.1l0,0c0,0,0,0,0,0.1l0,0.1l-0.1,0
		c0,0,0,0-0.1-0.1l0,0c0,0,0-0.1-0.1-0.1c-0.1-0.1-0.2-0.2-0.3-0.4c-0.7-0.9-2.5-2.9-4.9-4.9c-5.1-4.3-9.2-5.2-11.7-5.2
		c-1.6,0-2.6,0.4-2.9,1.1c-1.1,2.5,5.2,8.8,9.3,12.9c0.4,0.4,0.7,0.7,1,1c2,2,3.5,3.5,4.8,4.8c3.4,3.3,3.5,3.4,3.3,3.6
		c-0.1,0.1-0.2,0.1-2-1.1c-2.2-1.4-6.3-4.1-11.3-6.7c-0.8-0.4-1.5-0.7-2.3-1.1c-4.1-1.9-7-3.3-7.7-2.6c-0.4,0.4-0.1,1.6,0.8,3.5
		c3.3,6.8,9,16.2,14.8,24.6c5.6,8,10,13.2,11.1,12.9c0.1,0,0.2-0.2,0.2-0.5c0-4.8-4.7-13.9-8.2-20.5c-1.2-2.3-2.2-4.3-2.9-5.8
		c-1.6-3.3-1.6-4-1.3-4.1c1-0.6,8.2,8.9,18.6,23.4c1.5,2,2.5,3.5,2.7,3.6c1.6,1.6,3.6,8.2,5.6,14.6c1.9,6.1,4,13,5.1,13c0,0,0,0,0,0
		c0.5-0.1,1.1-1.7,1.1-9.1c0-8.2-1.3-16-3.9-23.2c-1.6-4.6-3.8-8.9-6.5-13C415.6,340.7,405.5,329.9,404.1,327.8z M419,343.4
		c1.5,1.5,3.3,3.3,5.3,5.1c-2.2-3.2-4.7-6.2-7.5-9c-9.7-9.7-12-11.6-12.5-11.9C404.9,328.8,411.3,335.8,419,343.4z M413.2,316.4
		c-2.4-2.2-4.8-3.9-7-5c-4-2-5.7-2.8-6.3-3C401.1,309.3,407.4,313,413.2,316.4z"/>
</g>
<g>
	<path class="st3" d="M147.5,651.4c-7.8-1.1-17.4-1.9-26.7-3c-2.4-12.4-0.4-29.1-1.1-43.2c-16.6,3-29.3,9.7-45.2,13.4
		c3,8.4,15.8,15.6,22.6,23.6c-7.3,12.8-16.1,24.3-22.6,38c23.3-8.2,47.4-15.4,73-21.3v3.7c-28.2,6.8-54.8,15.2-81.2,23.8
		c7.7-15.3,17.4-28.6,25.7-43.2c-7.5-9.6-18.3-15.9-25.7-25.7c18.4-5.3,36.1-11.2,53.4-17.4v-27.8c8.9-2.6,18.2-5,27.8-7.2v4.1
		c-8.1,1.9-16.1,4-23.6,6.2v68.9c7.6-2.2,15.5-4.2,23.6-6.2v4l-15.4,3.2c4.8,1.4,10,2.4,15.4,3.2V651.4z M171.2,652.6
		c0.2-3.4,0.4-11.4,0-15.4l-23.7,5v-4c98.4-22.8,232.3-22.6,331-0.1v4.1c-7.3-1.5-15-2.7-21.6-5c-4.5,1.3-0.9,10.7-2,15.4
		c8.1-1.2,15.7-2.8,23.6-4.2v3.8c-5.2,0.8-10.4,1.5-15.4,2.4c5.1,1.4,10.2,2.9,15.4,4.2v3.7c-9-2.2-18.2-4.2-27.7-5.9v-20.6
		c-81.5-14.8-195.6-16.3-275.5,1.1v19.5c-9.5,1.8-18.7,3.9-27.8,6V659c5.1-1.2,10.2-2.2,15.4-3.3c-1.4-1.9-7.4-3.2-15.4-4.2v-2.8
		C155.5,649.8,163.7,650.8,171.2,652.6L171.2,652.6z M478.5,565.2v3.9c-98.4-22.6-232.9-22.8-331,0.2v-4.1
		C246.6,542.6,379.5,542.5,478.5,565.2z M506.3,572.4v28.8c19.2,4.1,34.8,11.7,53.4,16.4c-6.8,10.7-19.2,15.7-25.7,26.8
		c9.9,13,17.8,28.2,26.8,42.1c-27.2-8.1-53.8-17-82.3-23.9v-3.7c24.9,6.6,50.3,12.7,73,21.5c-4-11.4-15-24.6-21.6-37
		c4.5-10.4,19.7-15.1,21.6-24.6c-16-3.6-28.5-10.6-45.2-13.4v42.1c-8.8,2.1-18.3,3.5-27.8,4.8v-3.8c5-0.9,10.1-1.6,15.5-2
		c-4.7-1.9-10-3.2-15.5-4.2V638c8.5,1.9,16.8,4,24.7,6.3v-68.9c-7.9-2.3-16.2-4.5-24.7-6.4v-3.9
		C488.2,567.3,497.4,569.8,506.3,572.4z"/>
	<path d="M559.7,690.3c-7.2-2.2-14.5-4.4-21.5-6.6c-27.9-8.6-56.8-17.5-88.1-23.1l-3.3-0.6v-5.9l-1.8-0.5l1.8-0.3v-13.9
		c-84.8-14.8-193.6-14.4-267.5,1V660l-3.2,0.6c-38.5,7.4-73.3,18.3-108.5,29.7l-9.1,3l4.3-8.6c4.7-9.3,10.2-18,15.5-26.4
		c3-4.8,6.1-9.6,9-14.6c-3.1-3.6-6.7-6.7-10.4-10c-4.7-4.1-9.6-8.4-13.6-13.7l-3.5-4.7l5.6-1.6c15.9-4.6,32.5-9.9,50.5-16.4v-28
		l2.9-0.8c53.4-15.7,122.5-24.3,194.4-24.3c0,0,0.1,0,0.1,0c72,0,141,8.6,194.3,24.3l2.9,0.8V598c9.5,2.2,18.2,5.3,26.6,8.2
		c7.6,2.7,15.5,5.4,23.8,7.5l5.4,1.4l-3,4.7c-3.6,5.7-8.6,9.8-13.3,13.8c-4.1,3.4-8,6.6-10.9,10.7c5.8,8,11,16.6,16,25
		c3,5,6.1,10.2,9.2,15.1l5.9,9.1L559.7,690.3z M129.9,653.4c-3.2-0.3-6.4-0.7-9.5-1l-2.9-0.3l-0.6-2.9c-0.3-1.4-0.5-2.9-0.7-4.4
		l-0.4-0.1l0.4-0.1c-0.8-7.1-0.6-15.1-0.5-22.8c0.1-3.9,0.2-7.8,0.1-11.7c-6.9,1.6-13.2,3.8-19.9,6.1c-4.9,1.7-10,3.5-15.4,5
		c2.4,3,6,6,9.6,9c3.6,3,7.2,6.1,10,9.4l1.8,2.1l-1.4,2.4c-2.8,5-5.9,9.8-8.9,14.4c-3,4.7-6.1,9.6-9,14.6
		c21.3-7.2,42.2-13.1,63.3-18C140.6,654.6,134.7,653.9,129.9,653.4z M530,616.2c-6.6-2.3-12.8-4.5-19.7-6.1v38.6l0.7,0.3l-0.7,0.1
		v1.5l-3.1,0.7c-7.9,1.9-16.4,3.2-24.8,4.4c3.1,0.8,6.2,1.6,9.2,2.4c17.5,4.6,35.4,9.3,52.2,15.1c-2.3-4.1-5.1-8.4-7.9-12.6
		c-3.3-5.1-6.8-10.3-9.5-15.5l-0.9-1.7l0.8-1.8c2.5-5.9,7.8-10.1,12.4-13.7c2.8-2.2,5.5-4.4,7.2-6.6
		C540.3,619.9,535.1,618,530,616.2z M473.2,645.2c-4.9-0.9-9.9-1.9-14.6-3.3c0,1.2,0.1,2.7,0.2,3.8c0.1,0.7,0.1,1.5,0.2,2.2
		c3.4-0.6,6.8-1.2,10.1-1.8c1.5-0.3,3-0.6,4.5-0.8C473.5,645.2,473.3,645.2,473.2,645.2z M152.2,645.2c0.7,0.1,1.4,0.2,2.2,0.3
		c4.3,0.6,8.8,1.3,13.1,2.1c0-1.8,0-3.8,0-5.6L152.2,645.2z M313.5,556.1c-0.2,0-0.3,0-0.5,0c-68.8,0-134.3,7.9-185.1,22.4v60.6
		c106.4-29.4,263.6-29.4,371.3,0v-60.6C448,564.1,382.2,556.1,313.5,556.1z"/>
</g>
<polygon points="238,610.4 236.7,596.6 223.9,597.8 225.1,611.5 214,612.5 210.7,575.6 221.9,574.6 223,588.3 235.9,587.2 
	234.7,573.5 245.9,572.5 249.1,609.4 "/>
<path d="M279.3,607.6l-1.8-6.8l-5.9,0.2v-7.9l3.5-0.1l-3-10c-0.2-0.9-0.4-1.7-0.6-2.4v-9.7l6.6-0.3l13.3,36.7L279.3,607.6z
	 M271.6,601.1l-5.2,0.2l-1.6,6.8l-12.1,0.4l11.5-37.5l7.3-0.2v9.7c-0.1-0.6-0.2-1.2-0.3-1.7H271c0,0.4-0.1,1.1-0.3,2.1
	c-0.1,0.9-1.1,5-2.7,12.3l3.6-0.1V601.1z"/>
<path d="M315.1,607l-2.8-8c-0.4-1.4-1-2.5-1.8-3.4V586c0.9-0.2,1.6-0.6,2.2-1.1c0.9-0.9,1.4-1.9,1.4-3.2c0-1.3-0.4-2.2-1.2-3
	c-0.5-0.6-1.3-0.9-2.4-1v-7.8h0.2c5.2,0,9,0.9,11.5,2.5c2.4,1.7,3.7,4.2,3.7,7.7c0,2.5-0.7,4.7-2.2,6.4s-3.6,3-6.4,3.7v0.1
	c1.6,0.5,2.9,1.3,3.9,2.4c1.1,1.1,2,2.7,2.8,4.8l3.7,9.4H315.1z M310.5,595.6c-0.1-0.1-0.1-0.2-0.3-0.3c-0.8-0.9-1.7-1.4-2.7-1.4
	H307v13h-11.2v-37.1h14.6v7.8c-0.4-0.1-0.7-0.1-1.2-0.1H307v8.4h2c0.5,0,1,0,1.4-0.1V595.6z"/>
<path d="M363.2,583.4c-0.1,2.5-0.9,4.8-2.2,6.6c-1.4,1.9-3.3,3.4-5.7,4.4c-2.3,0.9-4.9,1.4-7.8,1.4v-8.1c2.4-0.3,3.7-1.7,3.7-4.4
	c0.1-1.5-0.4-2.7-1.2-3.5c-0.6-0.6-1.4-1-2.5-1.2v-8.1l0.9,0.1c5.2,0.1,9,1.3,11.4,3.3c2.2,1.9,3.2,4.8,3.3,8.4v0.6
	C363.2,583.1,363.2,583.2,363.2,583.4z M347.6,595.8c-0.2,0-0.4,0-0.6,0l-3.5-0.1l-0.4,12l-11.2-0.4l1.3-37.1l14.3,0.5v8.1
	c-0.4-0.1-0.9-0.1-1.3-0.1l-2.2-0.1l-0.3,9.1l2.5,0.1c0.4,0,0.9,0,1.2,0V595.8z"/>
<path d="M386.6,596.8l-0.9,12.8l-11.2-0.8l0.9-12.7l-9.7-25.1l12.8,0.9l3.2,11.9c0.2,0.8,0.4,1.5,0.4,2.1c0.1,0.6,0.1,1.2,0.3,1.8
	l0.1,0.1c0.4-1.6,0.6-2.8,1-3.6l4.8-11.6l11.8,0.9L386.6,596.8z"/>
<path d="M424.4,614l-0.8-6.9l-4.6-0.6v-8l3.5,0.4l-1.3-10.4c-0.2-1.5-0.3-2.9-0.3-4.2h-0.2c-0.1,0.4-0.3,1.1-0.6,2
	c-0.1,0.4-0.5,1.3-1.1,2.8V576l10.1,1.2l7.4,38.3L424.4,614z M419,606.5l-6.4-0.8l-2.5,6.6l-12-1.4l17.2-35.3l3.7,0.4v13.2
	c-0.7,1.9-1.9,5-3.5,8.9l3.5,0.4V606.5z"/>
</svg>
