<?xml version="1.0" encoding="utf-8"?>
<!-- Generator: Adobe Illustrator 21.0.2, SVG Export Plug-In . SVG Version: 6.00 Build 0)  -->
<svg version="1.1" id="Camada_1" xmlns="http://www.w3.org/2000/svg" xmlns:xlink="http://www.w3.org/1999/xlink" x="0px" y="0px"
	 viewBox="0 0 595 842" style="enable-background:new 0 0 595 842;" xml:space="preserve">
<style type="text/css">
	.st0{fill-rule:evenodd;clip-rule:evenodd;fill:#C33739;}
	.st1{fill-rule:evenodd;clip-rule:evenodd;fill:#7961A0;}
	.st2{fill-rule:evenodd;clip-rule:evenodd;fill:#FFFFFF;}
	.st3{fill-rule:evenodd;clip-rule:evenodd;fill:#F0E5AA;}
	.st4{fill-rule:evenodd;clip-rule:evenodd;fill:#F1CF00;}
	.st5{fill:#F1CF00;}
	.st6{fill-rule:evenodd;clip-rule:evenodd;}
</style>
<g>
	<path class="st0" d="M295.6,205.1c-123.2,0-223.1,96-223.1,214.5s99.9,214.5,223.1,214.5s223.1-96,223.1-214.5
		S418.8,205.1,295.6,205.1z"/>
	<path d="M68.5,419.6c0-120.5,101.9-218.5,227.1-218.5s227.1,98,227.1,218.5S420.9,638.1,295.6,638.1S68.5,540.1,68.5,419.6z
		 M76.5,419.6c0,116.1,98.3,210.5,219.1,210.5s219.1-94.4,219.1-210.5s-98.3-210.5-219.1-210.5S76.5,303.5,76.5,419.6z"/>
</g>
<path class="st1" d="M295.6,226c-111.2,0-201.5,86.7-201.5,193.6s90.3,193.6,201.5,193.6c111.2,0,201.5-86.7,201.5-193.6
	S406.9,226,295.6,226z"/>
<path class="st0" d="M295.6,575.7c-89.4,0-162.4-70.1-162.4-156.1s72.9-156.1,162.4-156.1s162.4,70.1,162.4,156.1
	S385,575.7,295.6,575.7z"/>
<g>
	<path class="st2" d="M295.6,273.6c-83.8,0-151.8,65.4-151.8,145.9s68,145.9,151.8,145.9s151.8-65.4,151.8-145.9
		S379.4,273.6,295.6,273.6z"/>
	<path d="M236.5,554.1c-18.1-7.4-34.3-17.9-48.3-31.3c-14-13.4-24.9-29-32.6-46.4c-7.9-18-11.9-37.1-11.9-56.8
		c0-19.7,4-38.8,11.9-56.8c7.7-17.4,18.6-33,32.6-46.4c14-13.4,30.2-23.9,48.3-31.3c18.7-7.6,38.6-11.5,59.1-11.5
		s40.4,3.9,59.1,11.5c18.1,7.4,34.3,17.9,48.3,31.3c14,13.4,24.9,29,32.6,46.4c7.9,18,11.9,37.1,11.9,56.8c0,19.7-4,38.8-11.9,56.8
		c-7.7,17.4-18.6,33-32.6,46.4c-14,13.4-30.2,23.9-48.3,31.3c-18.7,7.6-38.6,11.5-59.1,11.5S255.2,561.8,236.5,554.1z M236.6,285.2
		c-18.1,7.3-34.3,17.9-48.2,31.3c-13.9,13.4-24.9,29-32.5,46.4c-7.9,18-11.9,37.1-11.9,56.8s4,38.8,11.9,56.8
		c7.6,17.4,18.6,33,32.5,46.4s30.2,23.9,48.2,31.3c18.7,7.6,38.6,11.5,59,11.5s40.3-3.9,59-11.5c18.1-7.3,34.3-17.9,48.2-31.3
		s24.9-29,32.5-46.4c7.9-18,11.9-37.1,11.9-56.8s-4-38.8-11.9-56.8c-7.6-17.4-18.6-33-32.5-46.4c-13.9-13.4-30.2-23.9-48.2-31.3
		c-18.7-7.6-38.6-11.5-59-11.5S255.3,277.6,236.6,285.2z"/>
</g>
<path class="st2" d="M178.6,484.6c-10.9-0.9-22.6,23.5-29.4,28.9c-6.7,5.3-12.7,23.2-21.7,28.9c-2.4,1.4-12.3,16.6-12.3,18.9
	c0,13.2,26-7.1,27-7.1c13.2-5.7,44.5-31.3,44.5-47.4c0-4.2-0.5-9.5-0.5-13.2c0-1.9-0.9-5.3-2.8-5.7c-0.9,0-1.4-1.4-2.4-1.9
	c-0.5,0-1.9-0.9-1.9-0.9L178.6,484.6z"/>
<path class="st2" d="M380.4,244.1c71.8,57.5,60.3,210,42.4,230.3c-21.9,25,55.6,75.3-30.4,53c-36.8-9.5-91.9-9.9-130.6-4.9
	c-27.6,3.5-64.3,3.5-88.3,17.6c-36.1,21.2-61.7,28.6-52.8,19.7C187,492.9,227.9,396.6,246.3,302
	C262.7,217.2,374.8,241.5,380.4,244.1z"/>
<g>
	<path class="st3" d="M421,496.4c-5.4,38.2-22.6,7.6-28.5-1.6c-15.6-23.7-7.6-26.4-44.7-26.4c-13.5,0-33.4,19.4-44.7,23.2
		c-24.2,8.1-6.5-10.2,0.5-21c8.1-12.4-5.9-0.5-8.6,0.6c-11.2,5.3,9.2-50-7.4-27.5c-22.7,30.2-11.9,12.4-11.9-5.4
		c0-0.5-7.6,12.4-10.2,12.4c-3.2,0,0.5-7.6,0.5-9.6c3.8-18.9-24.2,29.1-28.5,24.8c-0.6-0.6,4.3-21.6,4.3-22.7
		c0-9.1,6.4-45.1-3.2-21.5c-10.2,24.8-5.4-2.1-5.4-13.4c0-26.9-10.2,20.4-15.6,25.8c-18.3,18.4-32.3,58.2-52.3,78.1
		c-26.4,26.4-7.5,34.5,25.3,22.1c44.1-16.1,121.7-23.2,168-14c17.3,3.2,43.6,8.6,60.9,8.6c9.6,0,9.1-9.7,9.1-17.8
		C428.6,502.4,420.5,497.5,421,496.4z"/>
	<path d="M152.1,536.8c-2.6-4-2.7-11.8,11.7-26.2c10-10,18.6-25.4,27-40.2c8.3-14.8,16.1-28.7,25.3-37.9c1.8-1.8,4.8-10.9,7.1-17.5
		c4.9-14.4,6.2-17.5,9.1-17c2.2,0.4,2.9,2.7,2.9,10.2c0,2.9-0.3,6.7-0.6,10.4c-0.2,2.5-0.5,5.8-0.5,8.3c0.7-1.3,1.5-3.3,2.7-6
		c3.1-7.6,4.7-9.6,6.9-9.1c2.9,0.7,2.8,4.4,1.1,20.1c-0.5,4.6-0.9,8.9-0.9,11.3c0,0.5-0.2,1.5-1.5,7.6c-0.7,3.4-1.9,8.9-2.5,12.2
		c3-2.7,8.2-9.4,11.6-13.8c9.7-12.5,12.4-15.5,15.3-14.2c2.4,1.1,1.7,4.5,1.3,6.4c0,0.9-0.4,1.9-0.8,3.4c-0.2,0.8-0.6,2.1-0.8,3.1
		c1.3-1.4,3.5-4.3,6.4-8.7c1.6-2.4,2.1-3.1,3.6-2.7l1.4,0.4v1.5c0,5.6-1,11.2-1.8,15.3c-0.1,0.8-0.3,1.5-0.4,2.3
		c3.1-3.5,8-10.1,10.5-13.3c3.3-4.5,5.9-7.1,8.3-6c3,1.3,2.4,6,0.7,16.6c-0.8,5.1-2.3,14.5-1.2,16.4c0.1,0,0.2-0.1,0.3-0.1l0.1-0.1
		c0.5-0.2,2-1.3,3.3-2.1c4.7-3.2,7.9-5.4,9.8-3.5c1.6,1.6,0.5,4-2,8c-1.3,2.1-3,4.4-4.8,6.8c-2.7,3.7-8.3,11.3-7.7,13
		c0.1,0,1.5,1.1,9.7-1.7c4.2-1.4,10-5.3,16-9.4c9.6-6.5,20.5-13.9,29.3-13.9c29.6,0,31.7,1.7,39.2,15.4c1.8,3.2,4,7.2,7.1,12
		c0.4,0.6,0.8,1.3,1.3,2.1c3.4,5.5,11.5,18.3,16.6,17.2c1.7-0.4,4.9-3,6.9-16.5c0-0.3,0.1-0.6,0.2-1l5.7-12.1l-1.8,12.7
		c0.2,0.3,0.6,0.6,0.8,0.9c2.3,2.5,6.7,7.1,6.7,13.9l0,1.1c0,5.7,0,12.2-3.6,15.9c-1.8,1.8-4.3,2.8-7.5,2.8
		c-15.6,0-38.7-4.4-55.5-7.6c-2-0.4-3.9-0.7-5.8-1.1c-45.3-8.9-121.7-2.6-166.9,13.9c-10.2,3.9-19.2,5.8-26.1,5.8
		C158.9,541.8,154.3,540.1,152.1,536.8z M358.9,518.1c1.8,0.3,3.8,0.7,5.8,1.1c16.7,3.2,39.5,7.5,54.8,7.5c2.1,0,3.6-0.5,4.7-1.6
		c2.5-2.5,2.5-8.1,2.5-13.1l0-1.2c0-4.2-2.3-7.5-4.3-9.8c-1.9,9.8-4.9,14.9-9.3,15.8c-0.5,0.1-0.9,0.1-1.4,0.1
		c-7.4,0-14.8-11.9-19.4-19.2c-0.5-0.8-0.9-1.5-1.3-2c-3.2-4.9-5.5-9-7.3-12.2c-6.7-12-7.4-13.3-35.7-13.3c-7.5,0-17.9,7-27.1,13.2
		c-6.3,4.3-12.3,8.3-17,9.9c-8.1,2.7-12.4,2.8-14.2,0.3c-2.5-3.5,1.3-9,7.7-17.7c1.7-2.4,3.4-4.6,4.7-6.6c0.2-0.3,0.3-0.5,0.5-0.8
		c-1,0.6-1.9,1.3-2.6,1.8c-2,1.4-3.2,2.2-4,2.5c-2.1,1-3.5,0.4-4.3-0.2c-3.1-2.3-2.2-9.3-0.4-20.4c0.6-3.7,1.4-8.9,1.4-11.5
		c-0.7,0.6-1.7,1.8-3.2,3.9c-12.4,16.6-14.1,17.9-16.5,16.9c-2.2-1-1.7-3.5-0.7-8.9c0.4-2.1,0.9-4.7,1.2-7.4
		c-3.8,5.4-5.8,7.2-7.7,7.2c-1.1,0-2-0.4-2.6-1.3c-1.4-1.9-0.4-4.9,0.5-7.9c0.3-0.9,0.7-2.1,0.7-2.5l0-0.4c0.1-0.3,0.1-0.6,0.1-0.8
		c-2.4,2.4-6.5,7.6-9.6,11.7c-8.8,11.3-13,16.3-16.2,16.5c-0.9,0.1-1.7-0.2-2.3-0.9c-1-1-1.1-1.1,2.3-17.3c0.6-2.9,1.3-6.2,1.4-6.8
		c0-2.6,0.5-7,1-11.6c0.4-3.6,0.9-8.8,1.1-12.4c-0.4,0.9-0.9,2-1.4,3.3c-4.3,10.4-5.9,11.9-8.1,11.3c-2.8-0.7-2.6-4.2-1.8-15.4
		c0.3-3.6,0.6-7.3,0.6-10c0-1.4,0-2.5-0.1-3.4c-1.3,3.1-2.8,7.8-4.1,11.5c-3.4,10.1-5.8,16.8-8,19.1c-8.7,8.8-16.5,22.5-24.6,37
		c-8.5,15.1-17.3,30.7-27.7,41.1c-9.4,9.5-13.6,17.4-11.2,21.2c2.7,4.1,14.5,5.1,34.4-2.4c31.7-11.6,78.5-18.2,119.6-18.2
		C327.7,514,344.8,515.3,358.9,518.1z"/>
</g>
<g>
	<path class="st4" d="M360.4,338c0.6-1.2-3.6,8.1-3.6,9.8c0,10.2-1.2-7.9-3.5-10.2c-0.2-0.1-0.4,11.2-0.4,13.5
		c0,2.7,0.5,5.5,0.5,8.1c0,3.1-2.1-10.2-2.1-11.5c0,0-1.4-5-1.4-4c0,1.9-1,15-1.5,11.5c-0.7-5.5-7.3-18.8-11.1-22.5
		c-2-2.1,4.2,18.2,4.7,20.8c0.9,5-1.2-2.7-3-5.2c-0.3-0.3-5-5.7-5-5.5c0,7.6,6.2,10.9-4,5.8c-0.4-0.1,6,12.5,7.1,16.7
		c1.4,6,7.4,15.9,11.4,19.9c4.8,4.8,12.7-18.3,12.7-21.4C361.4,363,363.8,333.3,360.4,338z"/>
	<path class="st5" d="M348.5,385.3c-4-4-10.1-14-11.4-19.9c-0.6-2.7-3.5-8.9-5.4-13c-1.7-3.7-1.7-3.7-1.6-3.8l0.1-0.1l0.1,0
		c3.4,1.7,5.3,2.6,5.6,2.4c0.2-0.1-0.1-0.8-0.4-1.6c-0.6-1.5-1.4-3.7-1.4-6.5l0-0.1l0.1,0c0.1,0,0.2-0.1,3.9,4.2
		c0.6,0.7,1.1,1.2,1.2,1.3c0.8,1.1,1.7,3.4,2.3,5c0.2,0.6,0.5,1.3,0.7,1.6c0-0.2-0.1-0.6-0.2-1.4c-0.1-0.7-0.7-2.8-1.4-5.4
		c-2.8-10.1-4.1-15.3-3.5-15.6c0.2-0.1,0.4,0.1,0.4,0.2c3.8,3.8,10.4,17.1,11.1,22.6c0,0.2,0.1,0.4,0.1,0.4
		c0.5-0.9,1.2-10.1,1.2-11.9c0-0.1,0-0.2,0.1-0.3c0.1,0,0.3,0,1.5,4.2l0,0c0,1.2,1.4,10,1.9,11.6c0,0,0-0.1,0-0.1
		c0-1.3-0.1-2.6-0.2-3.9c-0.1-1.4-0.3-2.8-0.3-4.2c0-1.1,0-4.4,0.1-7.5c0.1-5.9,0.2-6,0.3-6l0.1,0l0.1,0.1c1.2,1.2,2.1,6.5,2.6,10.1
		c0.2,1.3,0.4,2.5,0.6,3c0-0.3,0.1-1.1,0.1-2.8c0-1.2,2.1-6.2,3.1-8.6c0.2-0.5,0.4-1,0.5-1.2l0,0c0-0.1,0.1-0.1,0.1-0.2
		c0.3-0.3,0.5-0.5,0.8-0.4c1.4,0.5,1.5,8.7,0.4,25c-0.1,0.8-0.1,1.3-0.1,1.4c0,2.5-5.7,20-10.5,22c-0.3,0.1-0.6,0.2-0.9,0.2
		C349.5,386,349,385.8,348.5,385.3z M360.5,338c-0.1,0.2-0.2,0.5-0.5,1.2c-1,2.4-3.1,7.4-3.1,8.6c0,3.2-0.1,3.2-0.3,3.2c0,0,0,0,0,0
		c-0.2,0-0.3-0.4-0.8-3.3c-0.6-3.4-1.4-8.5-2.5-9.8c-0.2,1.4-0.3,10.8-0.3,13.2c0,1.4,0.1,2.8,0.3,4.1c0.1,1.4,0.2,2.6,0.2,3.9
		c0,0.2,0,0.3,0,0.4c0,0.1,0,0.2-0.2,0.2c-0.1,0-0.3,0-1.2-5.6c-0.4-2.6-0.9-5.8-0.9-6.5c-0.4-1.5-0.9-3.2-1.2-3.8
		c0,1-0.2,3.8-0.5,6.5c-0.5,5.5-0.8,5.5-1,5.5c0,0,0,0,0,0c-0.1,0-0.2-0.2-0.3-0.7c-0.7-5.5-7.2-18.7-11.1-22.5
		c-0.1-0.1-0.2-0.1-0.2-0.1c-0.6,0.4,2.1,10.2,3.6,15.4c0.7,2.6,1.3,4.7,1.5,5.4c0.3,1.7,0.2,1.8,0.1,1.8c-0.2,0-0.3-0.1-1-1.9
		c-0.6-1.6-1.5-3.8-2.3-4.9c-0.1-0.1-0.5-0.6-1.2-1.3c-1.1-1.2-3-3.4-3.6-4c0,2.7,0.9,4.8,1.4,6.2c0.4,1,0.6,1.6,0.3,1.8
		c-0.4,0.3-1.5-0.1-5.7-2.2c0.2,0.5,0.8,1.9,1.6,3.5c1.9,4.1,4.8,10.3,5.4,13c1.3,5.9,7.4,15.8,11.3,19.8c0.6,0.6,1.3,0.8,2.1,0.5
		c4.8-2,10.4-19.3,10.4-21.8c0-0.1,0-0.6,0.1-1.5c1.4-19.9,0.6-24.4-0.2-24.8c0,0-0.1,0-0.1,0C360.8,337.6,360.6,337.8,360.5,338z"
		/>
</g>
<g>
	<path class="st6" d="M326.7,284.8c-6.8,2.4,2.7,11.7,6.3,11.5c-2.1,17.5,9.5,32.5,12.6,55.7c6.9-18.4-13.1-40.9-9.8-58
		C329,293.8,331.9,289.2,326.7,284.8z"/>
	<path class="st6" d="M249.5,358.9V378c-3.2,5.3-15.5,7.2-22.1,2.2c-1.7,63.9-40.2,113.5-76,153.4c2.1,0,4.4-5.8,0.4-5
		c-5,5.4-10.4,17.5-17.6,17.3c11.5-19.5,34-39.6,39.3-58.3c-17.9,24.6-39,54.1-55.4,75.2c2.4-2.1,4-4.6,4.8-7.7
		c-4.2,1.6-4.4,12.2-9.6,8.9c26.1-47.7,69.8-85.1,92.8-134.6c4.3-1.2,3.8,1.8,6.3-1.5c1.7-35.2,3.7-81.4,19.6-109
		c2.2,2.5-3.5,6.3,1.6,6.2c-0.9-17.4,4.7-35.8,15.9-49v28.1c-0.3,3.8-0.3,7.7,0,11.7v38.4c-1.1-1.4-2-2.4-2.4-3.1
		c-0.9-1.3-5.3-12-1.9-1.2C244.8,348.9,246.9,353.7,249.5,358.9z M249.5,354.1v-38.4c1.4,20.8,10,43.3,20.2,57.7
		c-0.8-1.6-3.5-3.1-3.5-0.8c2.2,7.3,14.5,10,11.5,18.4c-6.6-4.6-11.6-12-17.9-16.9c8,14.7,26.6,24,33.8,32.8
		c-15.8-0.6-30.2-18.9-43.4-30.5c-0.1,0.6-0.4,1.2-0.6,1.7v-19.1c1.9,3.7,4,7.7,5.5,9.8C255.9,362.9,252.2,357.5,249.5,354.1
		L249.5,354.1z M249.5,303.9c1.3-16.9,8.6-31.2,25.4-36.2c16.3-5,28,2.6,43.5,4.3c-1.6-1.2-3.5-1.7-5.6-1.9
		c4.1,1.7,9.9-6.7,13.6,0.1c13.8-6.6,19-18.7,36.8-21.8c50.7-8.8,70.2,100.9,45.5,131.2c12.2-4,22-37.1,11.8-66.5
		c12.1,13.5,6,38.2,3,51.5c6.3,2.3,4.5-11.3,8.1-14.9c3.5,3,5.1,0.4,5.5-4.8v-5c-0.6-14.5-6.3-39-10.1-47.8
		c-9-21.5-30.1-55.2-57.7-53.2c-7.1,0.5-13.7,4-17.6,4.2c-18.9,1.2-32.2-6.1-57.6,7.1c0.4,3.1,16.3-3,7.2,1.6
		c12.6,3.5,28.7-8.6,42.8-5.3c-5,8.5-20.2,17.1-30,15.3c-2.1,1.1,0.6,2.7,2.4,2.7c-1.1,3.7-8.2-1.2-9.6-4.2
		c-25.6-6.8-44.9,1.3-57.3,15.8V303.9z"/>
	<path class="st2" d="M254.9,368.7c1.3-8.1-6.4-15.4-7.9-17.7c-0.9-1.3-5.3-12-1.9-1.2C244.6,348.2,251.2,363.6,254.9,368.7z"/>
	<path class="st6" d="M384,568c2.8,1.3-2.3,9.1-3.6,12.3c18.4-14.3,20.5-53.4,42.2-73.7c2.5,14.6-4.5,40.3-12.6,56.9
		c2-1.1,1.9-3.3,4-4.2c0.8,3.1-3.9,3-1.7,6.9c10.2-9.4,27.9-40.4,26.6-61.8c-0.6-8.9-7.7-17-8.7-27.3c-1.4-13.7,6.5-32.1,4.2-49.9
		c-1.6-12.1-5.6-23-10.7-34.9c-0.6,8.9,7,43.8,5.3,60.6c-5.4-11.5-1.2-28.7-8.2-45.3c-3.8,3.9,0.1,12.2-0.4,18
		c-1.8-0.8-3.2-2.2-4.4-3.9c3.2,32,0.7,60.6-8.7,85.2c-5.5-66.5-81.3-45.4-114.6-16.8c19.9-4.6,51.8-26,72.4-22.1
		c-14.6,2.8-38,10.8-53.2,17.5c5.3,6.4,12.5-3.6,21.2-3.4c-0.8,1.7-2.3,3-4,4.2c9.3-0.3,31.3-10,43.6-8.7
		c38.4,19.9,16.2,74.9,6.8,99.5C378.1,581.6,383.8,570.9,384,568z"/>
	<path class="st6" d="M343.1,375.5c1.5,6.9,4.4,11.7,8.8,14.2c15.9-7.8,8.5-29.1,18.5-40.2c-3.2-8.4,0.6-12.7-1.9-20.7
		c15.5-3.7,26.1-10.2,20.4-26.1c7.8,0.6,11.9-1.9,15.3-6.9c-10.1-3.2-28.6,0.1-36,5.3c-19.7,13.8,2.8,59.3-13,74.8
		c-3.7,0.6-6.2-11.5-8.4-6.1C350.6,376.1,348.2,371.8,343.1,375.5z"/>
	<path class="st6" d="M269.6,319.6c2.2,5.1,9.6,1.9,14.3,3.1c-5.6,11,8,21.4,16.3,23.8c5.9-0.9,10.3-2.7,14-4.9
		c11.6,6.1,14.5,26,26.6,31.2C333.3,346.2,315,304.5,269.6,319.6z"/>
</g>
<g>
	<path class="st2" d="M499.6,624.4l-82.4-23.7l-1.4-16.8c-87.4-12.9-167.5-11.6-240.7,3.6l-0.4,15.8l-82.1,21.1
		c4.3-13.8,11.1-24.1,19.3-32.5c-10.9-7.6-18.7-14.5-19.3-20.2l42.1-14.4v-22.5c96-28.3,213.8-31.2,323.6,0v23.3l41.3,13.6
		c3.7,3.4-12.3,14-18.4,21C487.3,603.4,497.2,612.9,499.6,624.4z"/>
	<path d="M413.4,603.8l-1.3-16.4c-83.8-12-162.2-10.9-233,3.4l-0.4,15.6l-92,23.6l2.2-6.9c3.7-11.8,9.3-21.8,17.1-30.7
		c-11.4-8.4-16.7-14.6-17.2-20.4l-0.3-3.2l42.4-14.5v-22.6l2.9-0.8c101.6-29.9,220.4-29.9,325.8,0l2.9,0.8v23.4l39.3,13l0.6,0.6
		c1.2,1.1,1.9,2.6,1.8,4.3c-0.1,4.3-4.4,8.2-12,14.9c-2.1,1.8-4.2,3.7-5.9,5.3c1.6,2.5,3.4,5,5.3,7.6c5.1,7,10.3,14.2,12,22.7
		l1.3,6.5L413.4,603.8z M171.2,584.3l3.1-0.6c73.5-15.3,155-16.5,242.1-3.6l3.1,0.5l1.4,17.2l72.4,20.8c-2.1-4.3-5.1-8.5-8.3-12.8
		c-2.5-3.5-5.1-7.1-7.3-10.8l-1.4-2.5l1.9-2.2c2.2-2.5,5.5-5.4,8.7-8.2c2.4-2.1,6.1-5.3,8.1-7.5l-40.6-13.4V538
		c-102.3-28.4-216.9-28.4-315.6,0v22.3l-41,14c1.9,2.9,6.4,7.5,16.4,14.4l3.9,2.7l-3.3,3.4c-6.8,7-12.1,14.8-15.8,23.9l71.8-18.5
		L171.2,584.3z"/>
</g>
<g>
	<path class="st6" d="M154.9,599.8c-6.6-0.9-14.8-1.7-22.8-2.6c-1.9-10.5-0.3-24.8-0.9-36.8c-14.1,2.5-25.1,8.3-38.6,11.4
		c2.5,7.2,13.5,13.3,19.3,20.2c-6.3,10.9-13.8,20.7-19.3,32.5c19.8-7,40.5-13.1,62.3-18.1v3.2c-24,5.8-46.7,12.9-69.3,20.2
		c6.6-13,14.8-24.3,21.9-36.9c-6.3-8.2-15.6-13.6-21.9-21.9c15.6-4.5,30.7-9.6,45.6-14.9v-23.7c7.6-2.2,15.6-4.2,23.7-6.1v3.5
		c-6.9,1.7-13.7,3.4-20.2,5.3v58.8c6.5-1.9,13.2-3.7,20.2-5.3v3.3l-13.2,2.8c4.1,1.2,8.6,2,13.2,2.7V599.8z M175.1,600.7
		c0.2-2.9,0.4-9.7,0-13.2l-20.2,4.2v-3.3c84-19.5,198.1-19.4,282.4-0.1v3.5c-6.3-1.2-12.8-2.3-18.4-4.2c-3.9,1.2-0.8,9.2-1.7,13.2
		c6.9-1,13.4-2.4,20.2-3.5v3.2c-4.5,0.6-8.9,1.3-13.2,2c4.3,1.3,8.7,2.4,13.2,3.6v3.2c-7.7-1.9-15.6-3.6-23.7-5v-17.6
		c-69.6-12.6-166.8-13.9-235,0.9v16.7c-8.1,1.5-15.9,3.3-23.7,5.2v-3.2c4.3-1,8.7-2,13.2-2.9c-1.2-1.6-6.3-2.7-13.2-3.6v-2.4
		C161.8,598.4,168.8,599.2,175.1,600.7L175.1,600.7z M437.3,526.1v3.4c-84-19.3-198.7-19.4-282.4,0.1v-3.5
		C239.5,506.9,352.8,506.8,437.3,526.1z M461,532.3v24.6c16.3,3.5,29.7,10,45.6,14c-5.8,9.1-16.4,13.3-21.9,22.8
		c8.4,11.2,15.1,24,22.8,35.9c-23.2-7-45.9-14.5-70.1-20.4v-3.2c21.2,5.6,42.9,10.9,62.3,18.4c-3.4-9.8-12.9-21-18.4-31.6
		c3.7-8.8,16.8-12.9,18.4-21c-13.7-3-24.3-9-38.6-11.4v35.9c-7.6,1.8-15.6,3-23.7,4.1v-3.2c4.2-0.7,8.6-1.4,13.1-1.7
		c-4-1.7-8.5-2.7-13.1-3.7v-3.5c7.2,1.7,14.3,3.5,21,5.4v-58.8c-6.8-1.9-13.8-3.7-21-5.4v-3.4C445.5,528,453.4,530.1,461,532.3z"/>
	<path d="M506.3,633.5c-5.6-1.7-11.2-3.4-16.8-5.2c-24.3-7.5-49.3-15.3-76.5-20.1l-3.3-0.6v-5.1l-3.5-1l3.5-0.6V590
		c-71.9-12.5-164.1-12.2-227,0.8v16.8l-3.2,0.6c-33,6.4-62.6,15.6-92.5,25.3l-9.1,2.9l4.3-8.5c3.9-7.8,8.5-15,12.9-22
		c2.6-4.1,5.2-8.3,7.7-12.6c-2.6-2.9-5.5-5.5-8.6-8.2c-4-3.5-8.2-7.2-11.6-11.7l-3.5-4.6l5.6-1.6c13.5-3.9,27.5-8.5,42.7-13.9v-23.9
		l2.9-0.8c94.9-27.8,237.6-27.8,332,0l2.9,0.8v24.3c8,1.9,15.4,4.5,22.5,7c6.4,2.3,13.1,4.6,20,6.4l5.4,1.4l-3,4.7
		c-3.1,4.9-7.3,8.4-11.4,11.8c-3.4,2.8-6.6,5.5-9,8.8c4.9,6.8,9.3,14.2,13.6,21.3c2.5,4.2,5.1,8.5,7.7,12.6l5.8,9.1L506.3,633.5z
		 M139.5,602c-2.6-0.3-5.2-0.5-7.8-0.8l-2.9-0.3l-0.5-2.9c-0.2-1.1-0.4-2.2-0.5-3.3l-2.1-0.6l2-0.4c-0.6-5.9-0.4-12.4-0.3-18.7
		c0.1-3.2,0.1-6.4,0.1-9.5c-5.6,1.3-10.8,3.1-16.1,5c-4,1.4-8.1,2.8-12.3,4c2,2.3,4.7,4.6,7.5,6.9c3.1,2.6,6.2,5.3,8.7,8.2l1.8,2.1
		l-1.4,2.4c-2.4,4.2-5.1,8.3-7.6,12.3c-2.3,3.6-4.7,7.3-6.9,11.1c16.3-5.4,32.8-10.2,49.5-14.1C146.7,602.8,142.9,602.4,139.5,602z
		 M481,570.2c-5.3-1.9-10.4-3.7-15.9-5v31.9l2.4,1l-2.4,0.2v1.2l-3.1,0.7c-5.9,1.4-12.2,2.4-18.4,3.3c1.8,0.5,3.6,0.9,5.3,1.4
		c14.3,3.7,29,7.6,42.9,12.3c-1.7-3-3.8-6-5.9-9.2c-2.9-4.4-5.9-8.9-8.2-13.4l-0.9-1.7l0.7-1.7c2.2-5.1,6.7-8.7,10.7-11.9
		c2.1-1.7,4.1-3.3,5.5-4.9C489.3,573.2,485.1,571.7,481,570.2z M420.9,592.4c0,0.9,0.1,1.8,0.2,2.5c0,0.4,0.1,0.8,0.1,1.2
		c2.7-0.5,5.4-1,8-1.5c0.2,0,0.5-0.1,0.7-0.1C426.9,593.9,423.8,593.2,420.9,592.4z M162.2,594.4c3,0.4,6.1,0.9,9.1,1.5
		c0-1.1,0-2.3,0-3.4L162.2,594.4z M296.5,519c-0.2,0-0.3,0-0.5,0c-58.4,0-114.1,6.7-157.3,18.9v50.5c90.6-24.8,224-24.8,315.6,0
		v-50.5C410.8,525.7,354.9,519,296.5,519z"/>
</g>
<g>
	<path class="st2" d="M372.1,310c-2,0-3.6-1.5-3.6-3.4c0-1.8,1.6-3.3,3.6-3.3c2,0,3.6,1.5,3.6,3.3C375.7,308.5,374.1,310,372.1,310z
		"/>
	<path d="M368.4,306.6c0-1.9,1.7-3.4,3.7-3.4s3.7,1.5,3.7,3.4c0,2-1.6,3.5-3.7,3.5S368.4,308.6,368.4,306.6z M368.6,306.6
		c0,1.8,1.5,3.3,3.5,3.3s3.5-1.4,3.5-3.3c0-1.8-1.6-3.2-3.5-3.2C370.2,303.4,368.6,304.8,368.6,306.6z"/>
</g>
<g>
	<path class="st2" d="M293.8,328.3c-1.7,0-3.2-1.4-3.2-3s1.4-3,3.2-3c1.8,0,3.3,1.4,3.3,3S295.6,328.3,293.8,328.3z"/>
	<path d="M290.5,325.3c0-1.7,1.5-3.1,3.3-3.1c1.9,0,3.4,1.4,3.4,3.1s-1.6,3.1-3.4,3.1C292,328.4,290.5,327,290.5,325.3z
		 M290.8,325.3c0,1.6,1.4,2.9,3.1,2.9c1.7,0,3.2-1.3,3.2-2.9s-1.5-2.9-3.2-2.9C292.2,322.3,290.8,323.7,290.8,325.3z"/>
</g>
<path d="M207.9,557.8c0.2,2.1-0.2,4-1.2,5.6c-0.9,1.7-2.4,3-4.3,4c-1.9,1-4.4,1.7-7.2,1.9c-3.3,0.4-6.4,0.1-9.2-0.7L185,560
	c1.4,0.9,3,1.4,4.6,1.9c1.7,0.4,3.2,0.6,4.6,0.4c1-0.1,1.8-0.4,2.3-0.8c0.6-0.4,0.8-1,0.7-1.7c-0.1-0.5-0.2-0.9-0.6-1.3
	c-0.4-0.4-0.8-0.7-1.4-1c-0.6-0.2-1.7-0.6-3.3-1c-5.3-1.4-8.2-4.3-8.6-8.6c-0.3-3,0.6-5.6,2.7-7.7c2.1-2,5.1-3.2,9-3.7
	c1.1-0.1,2.2-0.2,3.1-0.2c0.9,0,1.7,0.1,2.5,0.1c0.8,0.1,1.9,0.2,3.2,0.4l0.9,8c-2.8-1.2-5.5-1.6-8.1-1.4c-1.1,0.1-1.9,0.4-2.5,0.9
	c-0.6,0.5-0.9,1.1-0.8,1.7c0.1,0.7,0.4,1.2,1,1.6s1.7,0.8,3.4,1.4c3.5,0.9,5.9,2.2,7.4,3.6C206.7,553.9,207.6,555.7,207.9,557.8z"/>
<path d="M239.1,550.2c0.4,5-0.4,8.9-2.5,11.6c-2.1,2.7-5.5,4.2-10.4,4.6c-4.5,0.4-8-0.6-10.5-2.8c-2.6-2.2-4-5.8-4.5-10.8l-1.5-17.3
	l9.5-0.9l1.6,17.6c0.1,2.1,0.7,3.6,1.5,4.6c0.9,1,2,1.4,3.4,1.4c1.4-0.1,2.5-0.7,3.2-1.9c0.6-1.1,0.9-2.6,0.7-4.6l-1.6-17.9l9.6-0.9
	L239.1,550.2z"/>
<polygon points="246.3,563.9 244.7,532.3 254.2,531.8 255.9,563.4 "/>
<path d="M283.8,562.3l-11.7-14.8c-0.9-1.2-1.7-2.2-2.2-3.2h-0.1c0.1,1.6,0.3,3.3,0.4,5.3l0.4,13.3l-8.8,0.3l-1.2-31.6l9-0.4
	l11.2,14.2c0.1,0.1,0.3,0.4,0.5,0.6c0.2,0.3,0.4,0.5,0.6,0.8c0.2,0.3,0.4,0.6,0.6,0.8c0.1,0.3,0.3,0.5,0.4,0.7h0.1
	c-0.1-0.6-0.2-1.8-0.3-3.4l-0.5-14.2l8.9-0.3l1.1,31.6L283.8,562.3z"/>
<path d="M328.2,546.1c0,3.2-0.6,6-2,8.5c-1.3,2.4-3.2,4.4-5.8,5.7c-2.2,1.2-4.7,1.8-7.4,2v-7.8c1.2-0.4,2.2-1.1,3-2
	c1.4-1.6,2-3.7,2-6.3c0-1.6-0.3-3-0.9-4.2c-0.6-1.2-1.5-2.2-2.7-2.9c-0.4-0.3-0.9-0.5-1.4-0.6v-7.8
	C323.2,531.1,328.2,536.2,328.2,546.1z M313,562.3c-0.4,0-0.9,0-1.2,0h-13.4v-31.7h13.1c0.5,0,1,0.1,1.5,0.1v7.8
	c-0.8-0.2-1.7-0.4-2.7-0.4h-2.4v16.7h2.7c0.9,0,1.7-0.1,2.4-0.3V562.3z"/>
<path d="M352.6,564.4l-1.1-5.9l-4.5-0.2v-6.8l3,0.1l-1.7-8.7c-0.2-1.3-0.4-2.4-0.4-3.6h-0.2c-0.1,0.4-0.2,0.9-0.4,1.7
	c-0.1,0.1-0.1,0.4-0.2,0.6v-9.3l7.3,0.4l8.6,32.2L352.6,564.4z M347,558.2l-5-0.2l-1.8,5.7l-10.4-0.5l12.6-31l4.5,0.2v9.3
	c-0.4,1.4-1.4,4.6-3,9.6l3,0.1V558.2z"/>
<path d="M383,567.4l-1.4-6.8V549c0.6-0.1,1.2-0.3,1.7-0.6c0.9-0.6,1.4-1.5,1.5-2.6c0.1-1-0.1-1.9-0.7-2.6c-0.5-0.6-1.3-1-2.5-1.2
	v-6.6l1.6,0.1c4.4,0.6,7.6,1.7,9.5,3.4c1.9,1.7,2.7,4,2.4,6.8c-0.3,2.2-1.2,3.9-2.5,5.2c-1.4,1.4-3.3,2.2-5.8,2.5v0.1
	c1.3,0.6,2.3,1.4,3,2.4c0.8,1,1.4,2.4,1.9,4.4l2.2,8.4L383,567.4z M381.5,560.6l-0.1-0.3c-0.3-1.4-0.7-2.5-1.4-3.4
	c-0.6-0.8-1.4-1.3-2.2-1.4h-0.4l-1.4,11l-9.4-1.2l3.8-31.4l11,1.4v6.6c-0.1,0-0.2-0.1-0.4-0.1l-1.9-0.2l-0.9,7.2l1.7,0.2
	c0.6,0,1.1,0,1.5-0.1V560.6z"/>
<path d="M417.2,572.6l-0.4-6l-3.7-0.6v-6.8l3,0.4l-0.8-8.9c-0.1-1.3-0.1-2.4-0.1-3.6h-0.2c-0.1,0.4-0.3,0.9-0.6,1.7
	c-0.1,0.4-0.6,1.4-1.2,3v-12l9.1,1.4l5.2,32.8L417.2,572.6z M413.1,566.1l-5.7-0.9l-2.4,5.5l-10.2-1.6l15.8-29.6l2.5,0.4v12
	c-0.7,1.7-1.7,4-3,6.8l3,0.5V566.1z"/>
</svg>
