<?xml version="1.0" encoding="utf-8"?>
<!-- Generator: Adobe Illustrator 21.0.2, SVG Export Plug-In . SVG Version: 6.00 Build 0)  -->
<svg version="1.1" id="Camada_1" xmlns="http://www.w3.org/2000/svg" xmlns:xlink="http://www.w3.org/1999/xlink" x="0px" y="0px"
	 viewBox="0 0 595 842" style="enable-background:new 0 0 595 842;" xml:space="preserve">
<style type="text/css">
	.st0{fill-rule:evenodd;clip-rule:evenodd;fill:#C33739;}
	.st1{fill-rule:evenodd;clip-rule:evenodd;fill:#7961A0;}
	.st2{fill-rule:evenodd;clip-rule:evenodd;fill:#FFFFFF;}
	.st3{fill-rule:evenodd;clip-rule:evenodd;fill:#F0E5AA;}
	.st4{fill-rule:evenodd;clip-rule:evenodd;fill:#F1CF00;}
	.st5{fill:#F1CF00;}
	.st6{fill-rule:evenodd;clip-rule:evenodd;}
</style>
<g>
	<g>
		<path class="st0" d="M295.6,205.1c123.2,0,223.1,96,223.1,214.5s-99.9,214.5-223.1,214.5S72.5,538,72.5,419.6
			S172.4,205.1,295.6,205.1z"/>
		<path d="M295.6,638.1c-125.2,0-227.1-98-227.1-218.5s101.9-218.5,227.1-218.5s227.1,98,227.1,218.5S420.9,638.1,295.6,638.1z
			 M295.6,209.1c-120.8,0-219.1,94.4-219.1,210.5s98.3,210.5,219.1,210.5s219.1-94.4,219.1-210.5S416.5,209.1,295.6,209.1z"/>
	</g>
	<path class="st1" d="M295.6,226c111.2,0,201.5,86.7,201.5,193.6s-90.3,193.6-201.5,193.6c-111.2,0-201.5-86.7-201.5-193.6
		S184.4,226,295.6,226z"/>
	<path class="st0" d="M295.6,575.7c89.4,0,162.4-70.1,162.4-156.1S385,263.5,295.6,263.5s-162.4,70.1-162.4,156.1
		S206.2,575.7,295.6,575.7z"/>
	<g>
		<path class="st2" d="M295.6,273.6c83.8,0,151.8,65.4,151.8,145.9s-68,145.9-151.8,145.9s-151.8-65.4-151.8-145.9
			S211.8,273.6,295.6,273.6z"/>
		<path d="M295.6,565.6c-20.5,0-40.4-3.9-59.1-11.5c-18.1-7.4-34.3-17.9-48.3-31.3c-14-13.4-24.9-29-32.6-46.4
			c-7.9-18-11.9-37.1-11.9-56.8c0-19.7,4-38.8,11.9-56.8c7.7-17.4,18.6-33,32.6-46.4c14-13.4,30.2-23.9,48.3-31.3
			c18.7-7.6,38.6-11.5,59.1-11.5s40.4,3.9,59.1,11.5c18.1,7.4,34.3,17.9,48.3,31.3c14,13.4,24.9,29,32.6,46.4
			c7.9,18,11.9,37.1,11.9,56.8c0,19.7-4,38.8-11.9,56.8c-7.7,17.4-18.6,33-32.6,46.4c-14,13.4-30.2,23.9-48.3,31.3
			C336,561.8,316.1,565.6,295.6,565.6z M295.6,273.7c-20.5,0-40.3,3.9-59,11.5c-18.1,7.3-34.3,17.9-48.2,31.3
			c-13.9,13.4-24.9,29-32.5,46.4c-7.9,18-11.9,37.1-11.9,56.8s4,38.8,11.9,56.8c7.6,17.4,18.6,33,32.5,46.4s30.2,23.9,48.2,31.3
			c18.7,7.6,38.6,11.5,59,11.5s40.3-3.9,59-11.5c18.1-7.3,34.3-17.9,48.2-31.3s24.9-29,32.5-46.4c7.9-18,11.9-37.1,11.9-56.8
			s-4-38.8-11.9-56.8c-7.6-17.4-18.6-33-32.5-46.4c-13.9-13.4-30.2-23.9-48.2-31.3C336,277.6,316.1,273.7,295.6,273.7z"/>
	</g>
	<path class="st2" d="M412.6,484.6c10.9-0.9,22.6,23.5,29.4,28.9c6.7,5.3,12.7,23.2,21.7,28.9c2.4,1.4,12.3,16.6,12.3,18.9
		c0,13.2-26-7.1-27-7.1c-13.2-5.7-44.5-31.3-44.5-47.4c0-4.2,0.5-9.5,0.5-13.2c0-1.9,0.9-5.3,2.8-5.7c0.9,0,1.4-1.4,2.4-1.9
		c0.5,0,1.9-0.9,1.9-0.9L412.6,484.6z"/>
	<path class="st2" d="M210.8,244.1c-71.8,57.5-60.3,210-42.4,230.3c21.9,25-55.6,75.3,30.4,53c36.8-9.5,91.9-9.9,130.6-4.9
		c27.6,3.5,64.3,3.5,88.3,17.6c36.1,21.2,61.7,28.6,52.8,19.7C404.2,492.9,363.3,396.6,344.9,302
		C328.5,217.2,216.4,241.5,210.8,244.1z"/>
	<g>
		<path class="st3" d="M170.2,496.4c5.4,38.2,22.6,7.6,28.5-1.6c15.6-23.7,7.6-26.4,44.7-26.4c13.5,0,33.4,19.4,44.7,23.2
			c24.2,8.1,6.5-10.2-0.5-21c-8.1-12.4,5.9-0.5,8.6,0.6c11.2,5.3-9.2-50,7.4-27.5c22.7,30.2,11.9,12.4,11.9-5.4
			c0-0.5,7.6,12.4,10.2,12.4c3.2,0-0.5-7.6-0.5-9.6c-3.8-18.9,24.2,29.1,28.5,24.8c0.6-0.6-4.3-21.6-4.3-22.7
			c0-9.1-6.4-45.1,3.2-21.5c10.2,24.8,5.4-2.1,5.4-13.4c0-26.9,10.2,20.4,15.6,25.8c18.3,18.4,32.3,58.2,52.3,78.1
			c26.4,26.4,7.5,34.5-25.3,22.1c-44.1-16.1-121.7-23.2-168-14c-17.3,3.2-43.6,8.6-60.9,8.6c-9.6,0-9.1-9.7-9.1-17.8
			C162.6,502.4,170.7,497.5,170.2,496.4z"/>
		<path d="M426,541.8c-6.9,0-15.8-1.9-26.1-5.8c-45.2-16.5-121.6-22.9-166.9-13.9c-1.8,0.3-3.8,0.7-5.8,1.1
			c-16.8,3.2-39.9,7.6-55.5,7.6c-3.2,0-5.7-0.9-7.5-2.8c-3.7-3.7-3.7-10.2-3.6-15.9l0-1.1c0-6.8,4.3-11.4,6.7-13.9
			c0.3-0.3,0.6-0.7,0.8-0.9l-1.8-12.7l5.7,12.1c0.2,0.3,0.2,0.7,0.2,1c2,13.5,5.1,16.2,6.9,16.5c5.1,1.1,13.1-11.8,16.6-17.2
			c0.5-0.8,0.9-1.5,1.3-2.1c3.2-4.8,5.4-8.8,7.1-12c7.6-13.6,9.7-15.4,39.2-15.4c8.8,0,19.7,7.4,29.3,13.9c6.1,4.1,11.8,8,16,9.4
			c8.2,2.7,9.7,1.7,9.7,1.7c0.6-1.7-5-9.3-7.7-13c-1.8-2.4-3.5-4.7-4.8-6.8c-2.6-4-3.7-6.4-2-8c1.9-1.9,5.1,0.2,9.8,3.5
			c1.3,0.9,2.8,1.9,3.3,2.1l0.1,0.1c0.1,0.1,0.3,0.1,0.3,0.1c1.1-1.9-0.4-11.3-1.2-16.4c-1.7-10.6-2.3-15.3,0.7-16.6
			c2.5-1,5,1.5,8.3,6c2.5,3.3,7.4,9.9,10.5,13.3c-0.1-0.7-0.3-1.5-0.4-2.3c-0.8-4.1-1.8-9.7-1.8-15.3v-1.5l1.4-0.4
			c1.5-0.4,2,0.3,3.6,2.7c2.9,4.4,5.1,7.3,6.4,8.7c-0.2-1-0.6-2.3-0.8-3.1c-0.5-1.6-0.8-2.6-0.8-3.4c-0.4-1.9-1-5.3,1.3-6.4
			c2.8-1.3,5.6,1.7,15.3,14.2c3.4,4.4,8.6,11.1,11.6,13.8c-0.6-3.3-1.8-8.8-2.5-12.2c-1.3-6.1-1.5-7.1-1.5-7.6
			c0-2.3-0.5-6.7-0.9-11.3c-1.6-15.6-1.7-19.4,1.1-20.1c2.3-0.6,3.8,1.5,6.9,9.1c1.1,2.7,2,4.6,2.7,6c-0.1-2.5-0.3-5.8-0.5-8.3
			c-0.3-3.7-0.6-7.5-0.6-10.4c0-7.4,0.7-9.8,2.9-10.2c2.9-0.5,4.2,2.6,9.1,17c2.2,6.7,5.3,15.8,7.1,17.5c9.1,9.2,17,23.1,25.3,37.9
			c8.4,14.9,17,30.2,27,40.2c14.4,14.4,14.3,22.2,11.7,26.2C437,540.1,432.4,541.8,426,541.8z M281.8,514c41,0,87.9,6.7,119.6,18.2
			c19.9,7.5,31.8,6.5,34.4,2.4c2.5-3.8-1.7-11.7-11.2-21.2c-10.4-10.4-19.2-26-27.7-41.1c-8.2-14.5-15.9-28.2-24.6-37
			c-2.2-2.2-4.6-9-8-19.1c-1.3-3.8-2.8-8.5-4.1-11.5c0,0.9-0.1,2-0.1,3.4c0,2.7,0.3,6.4,0.6,10c0.9,11.2,1,14.8-1.8,15.4
			c-2.2,0.5-3.8-0.9-8.1-11.3c-0.6-1.4-1-2.5-1.4-3.3c0.2,3.6,0.7,8.8,1.1,12.4c0.5,4.6,1,9,1,11.6c0.1,0.6,0.8,3.9,1.4,6.8
			c3.5,16.2,3.4,16.3,2.3,17.3c-0.6,0.6-1.4,0.9-2.3,0.9c-3.2-0.2-7.4-5.2-16.2-16.5c-3.1-4.1-7.2-9.3-9.6-11.7
			c0,0.2,0.1,0.5,0.1,0.8l0,0.4c0,0.4,0.4,1.6,0.7,2.5c0.9,3,1.8,6,0.5,7.9c-0.6,0.8-1.5,1.3-2.6,1.3c-1.9,0-3.9-1.8-7.7-7.2
			c0.4,2.7,0.8,5.2,1.2,7.4c1,5.5,1.5,7.9-0.7,8.9c-2.4,1-4-0.3-16.5-16.9c-1.5-2.1-2.6-3.2-3.2-3.9c-0.1,2.5,0.8,7.8,1.4,11.5
			c1.8,11.1,2.7,18.1-0.4,20.4c-0.8,0.6-2.2,1.1-4.3,0.2c-0.9-0.4-2-1.2-4-2.5c-0.7-0.5-1.7-1.1-2.6-1.8c0.2,0.2,0.3,0.5,0.5,0.8
			c1.3,2,2.9,4.2,4.7,6.6c6.4,8.7,10.2,14.2,7.7,17.7c-1.8,2.5-6.1,2.4-14.2-0.3c-4.7-1.6-10.7-5.6-17-9.9
			c-9.2-6.2-19.5-13.2-27.1-13.2c-28.4,0-29.1,1.3-35.7,13.3c-1.8,3.3-4.1,7.3-7.3,12.2c-0.4,0.6-0.8,1.3-1.3,2
			c-4.6,7.3-12.1,19.2-19.4,19.2c-0.5,0-0.9,0-1.4-0.1c-4.4-0.9-7.4-6-9.3-15.8c-2,2.3-4.3,5.5-4.3,9.8l0,1.2c0,4.9,0,10.5,2.5,13.1
			c1.1,1.1,2.6,1.6,4.7,1.6c15.3,0,38.1-4.3,54.8-7.5c2-0.4,3.9-0.7,5.8-1.1C246.4,515.3,263.6,514,281.8,514z"/>
	</g>
	<g>
		<path class="st4" d="M230.9,338c-0.6-1.2,3.6,8.1,3.6,9.8c0,10.2,1.2-7.9,3.5-10.2c0.2-0.1,0.4,11.2,0.4,13.5
			c0,2.7-0.5,5.5-0.5,8.1c0,3.1,2.1-10.2,2.1-11.5c0,0,1.4-5,1.4-4c0,1.9,1,15,1.5,11.5c0.7-5.5,7.3-18.8,11.1-22.5
			c2-2.1-4.2,18.2-4.7,20.8c-0.9,5,1.2-2.7,3-5.2c0.3-0.3,5-5.7,5-5.5c0,7.6-6.2,10.9,4,5.8c0.4-0.1-6,12.5-7.1,16.7
			c-1.4,6-7.4,15.9-11.4,19.9c-4.8,4.8-12.7-18.3-12.7-21.4C229.9,363,227.4,333.3,230.9,338z"/>
		<path class="st5" d="M241.2,386c-0.3,0-0.6-0.1-0.9-0.2c-4.8-2-10.5-19.5-10.5-22c0-0.1,0-0.6-0.1-1.4c-1.1-16.3-1-24.5,0.4-25
			c0.2-0.1,0.5,0,0.8,0.4c0.1,0,0.1,0.1,0.1,0.2l0,0c0.1,0.2,0.3,0.7,0.5,1.2c1,2.4,3.1,7.4,3.1,8.6c0,1.7,0,2.5,0.1,2.8
			c0.1-0.5,0.3-1.7,0.6-3c0.6-3.5,1.5-8.9,2.6-10.1l0.1-0.1l0.1,0c0.1,0,0.2,0.1,0.3,6c0.1,3.1,0.1,6.4,0.1,7.5
			c0,1.4-0.1,2.8-0.3,4.2c-0.1,1.4-0.2,2.6-0.2,3.9c0,0,0,0.1,0,0.1c0.5-1.7,1.9-10.5,1.9-11.6l0,0c1.1-4.2,1.3-4.2,1.5-4.2
			c0.1,0,0.1,0.2,0.1,0.3c0,1.8,0.7,11,1.2,11.9c0-0.1,0.1-0.2,0.1-0.4c0.7-5.5,7.3-18.8,11.1-22.6c0.1-0.1,0.2-0.3,0.4-0.2
			c0.6,0.4-0.7,5.5-3.5,15.6c-0.7,2.6-1.3,4.7-1.4,5.4c-0.1,0.7-0.2,1.1-0.2,1.4c0.2-0.3,0.4-1,0.7-1.6c0.6-1.6,1.5-3.9,2.3-5
			c0.1-0.1,0.6-0.6,1.2-1.3c3.7-4.3,3.8-4.2,3.9-4.2l0.1,0l0,0.1c0,2.9-0.9,5.1-1.4,6.5c-0.3,0.8-0.6,1.4-0.4,1.6
			c0.3,0.3,2.2-0.7,5.6-2.4l0.1,0l0.1,0.1c0.1,0.1,0.1,0.1-1.6,3.8c-1.9,4.1-4.8,10.2-5.4,13c-1.3,5.9-7.4,15.9-11.4,19.9
			C242.2,385.8,241.7,386,241.2,386z M230.2,337.6C230.2,337.6,230.2,337.6,230.2,337.6c-0.9,0.3-1.7,4.9-0.3,24.8
			c0.1,0.8,0.1,1.4,0.1,1.5c0,2.5,5.7,19.8,10.4,21.8c0.8,0.3,1.5,0.2,2.1-0.5c4-4,10-13.9,11.3-19.8c0.7-2.8,3.5-8.9,5.4-13
			c0.7-1.6,1.4-3,1.6-3.5c-4.2,2.1-5.3,2.6-5.7,2.2c-0.3-0.2-0.1-0.8,0.3-1.8c0.5-1.4,1.4-3.5,1.4-6.2c-0.6,0.6-2.5,2.8-3.6,4
			c-0.6,0.7-1.1,1.2-1.2,1.3c-0.8,1.1-1.6,3.3-2.3,4.9c-0.7,1.8-0.8,2-1,1.9c-0.1,0-0.2-0.1,0.1-1.8c0.1-0.7,0.7-2.8,1.5-5.4
			c1.5-5.2,4.2-15,3.6-15.4c0,0,0,0-0.2,0.1c-3.8,3.8-10.3,17-11.1,22.5c-0.1,0.5-0.1,0.7-0.3,0.7c0,0,0,0,0,0c-0.2,0-0.4,0-1-5.5
			c-0.2-2.6-0.4-5.5-0.5-6.5c-0.2,0.6-0.7,2.3-1.2,3.8c0,0.7-0.5,3.8-0.9,6.5c-0.9,5.6-1.1,5.6-1.2,5.6c-0.1,0-0.1-0.1-0.2-0.2
			c0-0.1,0-0.2,0-0.4c0-1.3,0.1-2.6,0.2-3.9c0.1-1.4,0.3-2.7,0.3-4.1c0-2.4-0.1-11.8-0.3-13.2c-1.1,1.3-1.9,6.4-2.5,9.8
			c-0.5,2.9-0.6,3.3-0.8,3.3c0,0,0,0,0,0c-0.2,0-0.3,0-0.3-3.2c0-1.2-2.1-6.2-3.1-8.6c-0.3-0.7-0.5-1.1-0.5-1.2
			C230.6,337.8,230.4,337.6,230.2,337.6z"/>
	</g>
	<g>
		<path class="st6" d="M264.5,284.8c6.8,2.4-2.7,11.7-6.3,11.5c2.1,17.5-9.5,32.5-12.6,55.7c-6.9-18.4,13.1-40.9,9.8-58
			C262.3,293.8,259.3,289.2,264.5,284.8z"/>
		<path class="st6" d="M346.2,349.8c3.3-10.8-1.1-0.1-1.9,1.2c-0.4,0.6-1.4,1.7-2.4,3.1v-38.4c0.3-4,0.3-7.8,0-11.7v-28.1
			c11.2,13.2,16.8,31.6,15.9,49c5,0.1-0.6-3.7,1.6-6.2c15.9,27.6,17.9,73.8,19.6,109c2.5,3.3,2,0.4,6.3,1.5
			c23,49.5,66.7,86.9,92.8,134.6c-5.3,3.3-5.5-7.3-9.6-8.9c0.8,3.1,2.4,5.6,4.8,7.7c-16.3-21-37.5-50.6-55.4-75.2
			c5.3,18.7,27.8,38.8,39.3,58.3c-7.3,0.2-12.6-11.9-17.6-17.3c-4-0.7-1.7,5,0.4,5c-35.8-39.8-74.3-89.4-76-153.4
			c-6.6,5-18.9,3.1-22.1-2.2v-19.1C344.4,353.7,346.5,348.9,346.2,349.8z M341.8,354.1c-2.7,3.5-6.4,8.9-5.5,14.6
			c1.5-2.1,3.6-6,5.5-9.8V378c-0.3-0.5-0.6-1.1-0.6-1.7c-13.2,11.7-27.6,29.9-43.4,30.5c7.1-8.8,25.8-18.1,33.8-32.8
			c-6.3,5-11.3,12.3-17.9,16.9c-3-8.4,9.3-11.2,11.5-18.4c0-2.3-2.7-0.8-3.5,0.8c10.2-14.4,18.8-36.9,20.2-57.7V354.1L341.8,354.1z
			 M341.8,275.9c-12.4-14.5-31.8-22.6-57.3-15.8c-1.4,3.1-8.5,8-9.6,4.2c1.8,0.1,4.5-1.6,2.4-2.7c-9.8,1.9-25.1-6.8-30-15.3
			c14.1-3.3,30.2,8.8,42.8,5.3c-9.1-4.5,6.8,1.5,7.2-1.6c-25.4-13.2-38.7-5.9-57.6-7.1c-3.9-0.2-10.5-3.7-17.6-4.2
			c-27.6-1.9-48.7,31.8-57.7,53.2c-3.7,8.9-9.4,33.3-10.1,47.8v5c0.4,5.3,1.9,7.8,5.5,4.8c3.6,3.6,1.8,17.2,8.1,14.9
			c-3-13.3-9.1-38,3-51.5c-10.2,29.4-0.4,62.4,11.8,66.5c-24.7-30.3-5.2-140,45.5-131.2c17.8,3.1,23,15.3,36.8,21.8
			c3.7-6.8,9.5,1.6,13.6-0.1c-2.1,0.3-4,0.8-5.6,1.9c15.5-1.7,27.1-9.3,43.5-4.3c16.8,5,24.1,19.3,25.4,36.2V275.9z"/>
		<path class="st2" d="M336.3,368.7c-1.3-8.1,6.4-15.4,7.9-17.7c0.9-1.3,5.3-12,1.9-1.2C346.7,348.2,340,363.6,336.3,368.7z"/>
		<path class="st6" d="M207.2,568c-2.8,1.3,2.3,9.1,3.6,12.3c-18.4-14.3-20.5-53.4-42.2-73.7c-2.5,14.6,4.5,40.3,12.6,56.9
			c-2-1.1-1.9-3.3-4-4.2c-0.8,3.1,3.9,3,1.7,6.9c-10.2-9.4-27.9-40.4-26.6-61.8c0.6-8.9,7.7-17,8.7-27.3c1.4-13.7-6.5-32.1-4.2-49.9
			c1.6-12.1,5.6-23,10.7-34.9c0.6,8.9-7,43.8-5.3,60.6c5.4-11.5,1.2-28.7,8.2-45.3c3.8,3.9-0.1,12.2,0.4,18c1.8-0.8,3.2-2.2,4.4-3.9
			c-3.2,32-0.7,60.6,8.7,85.2c5.5-66.5,81.3-45.4,114.6-16.8c-19.9-4.6-51.8-26-72.4-22.1c14.6,2.8,38,10.8,53.2,17.5
			c-5.3,6.4-12.5-3.6-21.2-3.4c0.8,1.7,2.3,3,4,4.2c-9.3-0.3-31.3-10-43.6-8.7c-38.4,19.9-16.2,74.9-6.8,99.5
			C213.2,581.6,207.4,570.9,207.2,568z"/>
		<path class="st6" d="M248.1,375.5c-1.5,6.9-4.4,11.7-8.8,14.2c-15.9-7.8-8.5-29.1-18.5-40.2c3.2-8.4-0.6-12.7,1.9-20.7
			c-15.5-3.7-26.1-10.2-20.4-26.1c-7.8,0.6-11.9-1.9-15.3-6.9c10.1-3.2,28.6,0.1,36,5.3c19.7,13.8-2.8,59.3,13,74.8
			c3.7,0.6,6.2-11.5,8.4-6.1C240.7,376.1,243.1,371.8,248.1,375.5z"/>
		<path class="st6" d="M321.7,319.6c-2.2,5.1-9.6,1.9-14.3,3.1c5.6,11-8,21.4-16.3,23.8c-5.9-0.9-10.3-2.7-14-4.9
			c-11.6,6.1-14.5,26-26.6,31.2C258,346.2,276.3,304.5,321.7,319.6z"/>
	</g>
	<g>
		<path class="st2" d="M91.6,624.4l82.4-23.7l1.4-16.8c87.4-12.9,167.5-11.6,240.7,3.6l0.4,15.8l82.1,21.1
			c-4.3-13.8-11.1-24.1-19.3-32.5c10.9-7.6,18.7-14.5,19.3-20.2l-42.1-14.4v-22.5c-96-28.3-213.8-31.2-323.6,0v23.3l-41.3,13.6
			c-3.7,3.4,12.3,14,18.4,21C104,603.4,94,612.9,91.6,624.4z"/>
		<path d="M86.4,630.1l1.3-6.5c1.7-8.5,7-15.7,12-22.7c1.9-2.6,3.7-5.1,5.3-7.6c-1.7-1.7-3.8-3.5-5.9-5.3c-7.6-6.7-12-10.7-12-14.9
			c0-1.6,0.6-3.2,1.8-4.3l0.6-0.6l39.3-13v-23.4l2.9-0.8c105.4-29.9,224.2-29.9,325.8,0l2.9,0.8v22.6l42.4,14.5l-0.3,3.2
			c-0.6,5.8-5.8,12-17.2,20.4c7.8,8.8,13.4,18.9,17.1,30.7l2.2,6.9l-92-23.6l-0.4-15.6c-70.9-14.3-149.2-15.4-233-3.4l-1.3,16.4
			L86.4,630.1z M420.4,600.2l71.8,18.5c-3.8-9.1-9-16.9-15.8-23.9l-3.3-3.4l3.9-2.7c10-6.9,14.5-11.5,16.4-14.4l-41-14v-22.3
			c-98.6-28.4-213.3-28.4-315.6,0v23.1l-40.6,13.4c2,2.2,5.6,5.4,8.1,7.5c3.2,2.8,6.5,5.6,8.7,8.2l1.9,2.2l-1.4,2.5
			c-2.2,3.8-4.8,7.3-7.3,10.8c-3.1,4.3-6.2,8.5-8.3,12.8l72.4-20.8l1.4-17.2l3.1-0.5c87.1-12.8,168.6-11.6,242.1,3.6l3.1,0.6
			L420.4,600.2z"/>
	</g>
	<g>
		<path class="st6" d="M436.3,597.3c4.6-0.7,9.1-1.5,13.2-2.7l-13.2-2.8v-3.3c6.9,1.6,13.7,3.4,20.2,5.3v-58.8
			c-6.5-1.9-13.2-3.6-20.2-5.3v-3.5c8.1,1.9,16.1,3.9,23.7,6.1V556c14.8,5.3,30,10.4,45.6,14.9c-6.3,8.3-15.6,13.7-21.9,21.9
			c7.1,12.5,15.3,23.8,21.9,36.9c-22.5-7.3-45.2-14.5-69.3-20.2v-3.2c21.7,5,42.5,11.2,62.3,18.1c-5.5-11.7-13-21.5-19.3-32.5
			c5.8-6.8,16.8-13,19.3-20.2c-13.5-3.1-24.5-8.9-38.6-11.4c-0.6,12,1.1,26.3-0.9,36.8c-8,0.9-16.2,1.7-22.8,2.6V597.3z
			 M416.2,600.7c6.3-1.5,13.3-2.3,20.2-3.4v2.4c-6.8,0.9-12,2-13.2,3.6c4.5,0.9,8.9,1.9,13.2,2.9v3.2c-7.8-1.9-15.6-3.7-23.7-5.2
			v-16.7c-68.2-14.8-165.5-13.5-235-0.9v17.6c-8.1,1.4-16,3.2-23.7,5v-3.2c4.5-1.2,8.9-2.3,13.2-3.6c-4.3-0.7-8.7-1.4-13.2-2v-3.2
			c6.8,1.2,13.2,2.5,20.2,3.5c-0.9-4,2.2-12-1.7-13.2c-5.6,1.9-12.1,3-18.4,4.2v-3.5c84.2-19.2,198.4-19.4,282.4,0.1v3.3l-20.2-4.2
			C415.8,591,415.9,597.8,416.2,600.7L416.2,600.7z M436.3,526.2v3.5c-83.7-19.6-198.4-19.4-282.4-0.1v-3.4
			C238.5,506.8,351.8,506.9,436.3,526.2z M153.9,526.1v3.4c-7.3,1.7-14.3,3.5-21,5.4v58.8c6.8-1.9,13.8-3.7,21-5.4v3.5
			c-4.6,1-9.1,2-13.1,3.7c4.5,0.4,8.9,1,13.1,1.7v3.2c-8.1-1.2-16.1-2.3-23.7-4.1v-35.9c-14.3,2.4-24.9,8.4-38.6,11.4
			c1.6,8.1,14.7,12.2,18.4,21c-5.5,10.6-15,21.8-18.4,31.6c19.4-7.5,41-12.7,62.3-18.4v3.2c-24.3,5.9-46.9,13.4-70.1,20.4
			c7.6-12,14.3-24.8,22.8-35.9c-5.5-9.5-16.1-13.8-21.9-22.8c15.8-4,29.2-10.6,45.6-14v-24.6C137.9,530.1,145.8,528,153.9,526.1z"/>
		<path d="M74.6,636.6l5.8-9.1c2.6-4.1,5.2-8.4,7.7-12.6c4.3-7.1,8.6-14.5,13.6-21.3c-2.4-3.3-5.6-6-9-8.8
			c-4.1-3.4-8.3-6.9-11.4-11.8l-3-4.7l5.4-1.4c7-1.8,13.6-4.1,20-6.4c7.1-2.5,14.5-5.1,22.5-7v-24.3l2.9-0.8
			c94.4-27.8,237.1-27.8,332,0l2.9,0.8v23.9c15.2,5.4,29.2,10,42.7,13.9l5.6,1.6l-3.5,4.6c-3.4,4.5-7.6,8.2-11.6,11.7
			c-3.1,2.7-6.1,5.3-8.6,8.2c2.5,4.3,5.2,8.5,7.7,12.6c4.4,7,9,14.2,12.9,22l4.3,8.5l-9.1-2.9c-29.9-9.7-59.5-18.9-92.5-25.3
			l-3.2-0.6v-16.8c-62.9-13-155.1-13.3-227-0.8v10.8l3.5,0.6l-3.5,1v5.1l-3.3,0.6c-27.2,4.9-52.3,12.6-76.5,20.1
			c-5.6,1.7-11.2,3.5-16.8,5.2L74.6,636.6z M440.9,603.2c16.7,4,33.2,8.7,49.5,14.1c-2.2-3.8-4.6-7.5-6.9-11.1
			c-2.5-4-5.2-8.1-7.6-12.3l-1.4-2.4l1.8-2.1c2.4-2.9,5.6-5.6,8.7-8.2c2.7-2.3,5.5-4.6,7.5-6.9c-4.3-1.2-8.4-2.6-12.3-4
			c-5.4-1.9-10.6-3.7-16.1-5c0,3.1,0,6.3,0.1,9.5c0.1,6.4,0.3,12.9-0.3,18.7l2,0.4l-2.1,0.6c-0.1,1.1-0.3,2.3-0.5,3.3l-0.5,2.9
			l-2.9,0.3c-2.6,0.3-5.2,0.6-7.8,0.8C448.4,602.4,444.5,602.8,440.9,603.2z M97.5,574.4c1.4,1.6,3.4,3.2,5.5,4.9
			c4,3.2,8.5,6.8,10.7,11.9l0.7,1.7l-0.9,1.7c-2.3,4.5-5.3,9-8.2,13.4c-2.1,3.2-4.1,6.3-5.9,9.2c13.8-4.7,28.5-8.6,42.9-12.3
			c1.8-0.5,3.5-0.9,5.3-1.4c-6.2-0.9-12.5-2-18.4-3.3l-3.1-0.7v-1.2l-2.4-0.2l2.4-1v-31.9c-5.6,1.3-10.6,3.1-15.9,5
			C106.2,571.7,102,573.2,97.5,574.4z M161.3,594.5c0.2,0,0.5,0.1,0.7,0.1c2.6,0.5,5.3,1,8,1.5c0-0.4,0.1-0.8,0.1-1.2
			c0.1-0.7,0.2-1.7,0.2-2.5C167.4,593.2,164.4,593.9,161.3,594.5z M419.9,592.4c0,1.1,0,2.3,0,3.4c3-0.6,6.1-1,9.1-1.5L419.9,592.4z
			 M136.9,537.9v50.5c91.6-24.8,224.9-24.8,315.6,0v-50.5c-43.2-12.2-98.9-18.9-157.3-18.9c-0.2,0-0.3,0-0.5,0
			C236.3,519,180.5,525.7,136.9,537.9z"/>
	</g>
	<g>
		<path class="st2" d="M219.2,310c2,0,3.6-1.5,3.6-3.4c0-1.8-1.6-3.3-3.6-3.3c-2,0-3.6,1.5-3.6,3.3C215.6,308.5,217.1,310,219.2,310
			z"/>
		<path d="M219.2,310.1c-2.1,0-3.7-1.5-3.7-3.5c0-1.9,1.7-3.4,3.7-3.4s3.7,1.5,3.7,3.4C222.9,308.6,221.2,310.1,219.2,310.1z
			 M219.2,303.4c-1.9,0-3.5,1.4-3.5,3.2c0,1.8,1.5,3.3,3.5,3.3s3.5-1.4,3.5-3.3C222.7,304.8,221.1,303.4,219.2,303.4z"/>
	</g>
	<g>
		<path class="st2" d="M297.4,328.3c1.7,0,3.2-1.4,3.2-3s-1.4-3-3.2-3c-1.8,0-3.3,1.4-3.3,3S295.6,328.3,297.4,328.3z"/>
		<path d="M297.4,328.4c-1.9,0-3.4-1.4-3.4-3.1s1.6-3.1,3.4-3.1c1.8,0,3.3,1.4,3.3,3.1C300.7,327,299.2,328.4,297.4,328.4z
			 M297.4,322.3c-1.7,0-3.2,1.3-3.2,2.9s1.5,2.9,3.2,2.9c1.7,0,3.1-1.3,3.1-2.9S299.1,322.3,297.4,322.3z"/>
	</g>
	<path d="M207.9,557.8c0.2,2.1-0.2,4-1.2,5.6c-0.9,1.7-2.4,3-4.3,4c-1.9,1-4.4,1.7-7.2,1.9c-3.3,0.4-6.4,0.1-9.2-0.7L185,560
		c1.4,0.9,3,1.4,4.6,1.9c1.7,0.4,3.2,0.6,4.6,0.4c1-0.1,1.8-0.4,2.3-0.8c0.6-0.4,0.8-1,0.7-1.7c-0.1-0.5-0.2-0.9-0.6-1.3
		c-0.4-0.4-0.8-0.7-1.4-1c-0.6-0.2-1.7-0.6-3.3-1c-5.3-1.4-8.2-4.3-8.6-8.6c-0.3-3,0.6-5.6,2.7-7.7c2.1-2,5.1-3.2,9-3.7
		c1.1-0.1,2.2-0.2,3.1-0.2c0.9,0,1.7,0.1,2.5,0.1c0.8,0.1,1.9,0.2,3.2,0.4l0.9,8c-2.8-1.2-5.5-1.6-8.1-1.4c-1.1,0.1-1.9,0.4-2.5,0.9
		c-0.6,0.5-0.9,1.1-0.8,1.7c0.1,0.7,0.4,1.2,1,1.6s1.7,0.8,3.4,1.4c3.5,0.9,5.9,2.2,7.4,3.6C206.7,553.9,207.6,555.7,207.9,557.8z"
		/>
	<path d="M239.1,550.2c0.4,5-0.4,8.9-2.5,11.6c-2.1,2.7-5.5,4.2-10.4,4.6c-4.5,0.4-8-0.6-10.5-2.8c-2.6-2.2-4-5.8-4.5-10.8
		l-1.5-17.3l9.5-0.9l1.6,17.6c0.1,2.1,0.7,3.6,1.5,4.6c0.9,1,2,1.4,3.4,1.4c1.4-0.1,2.5-0.7,3.2-1.9c0.6-1.1,0.9-2.6,0.7-4.6
		l-1.6-17.9l9.6-0.9L239.1,550.2z"/>
	<polygon points="246.3,563.9 244.7,532.3 254.2,531.8 255.9,563.4 	"/>
	<path d="M283.8,562.3l-11.7-14.8c-0.9-1.2-1.7-2.2-2.2-3.2h-0.1c0.1,1.6,0.3,3.3,0.4,5.3l0.4,13.3l-8.8,0.3l-1.2-31.6l9-0.4
		l11.2,14.2c0.1,0.1,0.3,0.4,0.5,0.6c0.2,0.3,0.4,0.5,0.6,0.8c0.2,0.3,0.4,0.6,0.6,0.8c0.1,0.3,0.3,0.5,0.4,0.7h0.1
		c-0.1-0.6-0.2-1.8-0.3-3.4l-0.5-14.2l8.9-0.3l1.1,31.6L283.8,562.3z"/>
	<path d="M328.2,546.1c0,3.2-0.6,6-2,8.5c-1.3,2.4-3.2,4.4-5.8,5.7c-2.2,1.2-4.7,1.8-7.4,2v-7.8c1.2-0.4,2.2-1.1,3-2
		c1.4-1.6,2-3.7,2-6.3c0-1.6-0.3-3-0.9-4.2c-0.6-1.2-1.5-2.2-2.7-2.9c-0.4-0.3-0.9-0.5-1.4-0.6v-7.8
		C323.2,531.1,328.2,536.2,328.2,546.1z M313,562.3c-0.4,0-0.9,0-1.2,0h-13.4v-31.7h13.1c0.5,0,1,0.1,1.5,0.1v7.8
		c-0.8-0.2-1.7-0.4-2.7-0.4h-2.4v16.7h2.7c0.9,0,1.7-0.1,2.4-0.3V562.3z"/>
	<path d="M352.6,564.4l-1.1-5.9l-4.5-0.2v-6.8l3,0.1l-1.7-8.7c-0.2-1.3-0.4-2.4-0.4-3.6h-0.2c-0.1,0.4-0.2,0.9-0.4,1.7
		c-0.1,0.1-0.1,0.4-0.2,0.6v-9.3l7.3,0.4l8.6,32.2L352.6,564.4z M347,558.2l-5-0.2l-1.8,5.7l-10.4-0.5l12.6-31l4.5,0.2v9.3
		c-0.4,1.4-1.4,4.6-3,9.6l3,0.1V558.2z"/>
	<path d="M383,567.4l-1.4-6.8V549c0.6-0.1,1.2-0.3,1.7-0.6c0.9-0.6,1.4-1.5,1.5-2.6c0.1-1-0.1-1.9-0.7-2.6c-0.5-0.6-1.3-1-2.5-1.2
		v-6.6l1.6,0.1c4.4,0.6,7.6,1.7,9.5,3.4c1.9,1.7,2.7,4,2.4,6.8c-0.3,2.2-1.2,3.9-2.5,5.2c-1.4,1.4-3.3,2.2-5.8,2.5v0.1
		c1.3,0.6,2.3,1.4,3,2.4c0.8,1,1.4,2.4,1.9,4.4l2.2,8.4L383,567.4z M381.5,560.6l-0.1-0.3c-0.3-1.4-0.7-2.5-1.4-3.4
		c-0.6-0.8-1.4-1.3-2.2-1.4h-0.4l-1.4,11l-9.4-1.2l3.8-31.4l11,1.4v6.6c-0.1,0-0.2-0.1-0.4-0.1l-1.9-0.2l-0.9,7.2l1.7,0.2
		c0.6,0,1.1,0,1.5-0.1V560.6z"/>
	<path d="M417.2,572.6l-0.4-6l-3.7-0.6v-6.8l3,0.4l-0.8-8.9c-0.1-1.3-0.1-2.4-0.1-3.6h-0.2c-0.1,0.4-0.3,0.9-0.6,1.7
		c-0.1,0.4-0.6,1.4-1.2,3v-12l9.1,1.4l5.2,32.8L417.2,572.6z M413.1,566.1l-5.7-0.9l-2.4,5.5l-10.2-1.6l15.8-29.6l2.5,0.4v12
		c-0.7,1.7-1.7,4-3,6.8l3,0.5V566.1z"/>
</g>
</svg>
