<?xml version="1.0" encoding="utf-8"?>
<!-- Generator: Adobe Illustrator 21.0.2, SVG Export Plug-In . SVG Version: 6.00 Build 0)  -->
<svg version="1.1" id="Camada_1" xmlns="http://www.w3.org/2000/svg" xmlns:xlink="http://www.w3.org/1999/xlink" x="0px" y="0px"
	 viewBox="0 0 595 842" style="enable-background:new 0 0 595 842;" xml:space="preserve">
<style type="text/css">
	.st0{fill-rule:evenodd;clip-rule:evenodd;fill:#C33739;}
	.st1{fill-rule:evenodd;clip-rule:evenodd;}
	.st2{fill-rule:evenodd;clip-rule:evenodd;fill:#84B9AE;}
	.st3{fill-rule:evenodd;clip-rule:evenodd;fill:#FFFFFF;}
	.st4{fill-rule:evenodd;clip-rule:evenodd;fill:#915D44;}
	.st5{fill-rule:evenodd;clip-rule:evenodd;fill:#F1CF00;}
	.st6{fill:#F1CF00;}
	.st7{fill:#050006;}
</style>
<g>
	<path class="st0" d="M331.4,170.7c-125.2,0-226.8,97.6-226.8,218c0,120.3,101.6,217.9,226.8,217.9S558.2,509,558.2,388.7
		C558.2,268.3,456.6,170.7,331.4,170.7z"/>
	<path d="M100.6,388.7c0-122.4,103.5-222,230.8-222c127.3,0,230.8,99.6,230.8,222c0,122.4-103.5,221.9-230.8,221.9
		C204.1,610.6,100.6,511.1,100.6,388.7z M108.6,388.7c0,118,99.9,213.9,222.8,213.9c122.9,0,222.8-96,222.8-213.9
		c0-118-99.9-214-222.8-214C208.6,174.7,108.6,270.7,108.6,388.7z"/>
</g>
<path class="st1" d="M308.7,444.4c-8.4,12.4-12.1,29.5-23.4,39c-8.8-3.9-9.9-15.6-13.7-24.4c-6,14.5-5.6,35.4-19.5,42
	c-6.9-2.8-5.8-13.8-5.8-23.4c-11,19.2-16.7,57.7-3.9,79c12.1-25.3,24.2-50.6,29.2-82.9c9.2,13.5,0.2,37.2,0,53.7
	C289.5,505.3,301.2,477,308.7,444.4z"/>
<path class="st2" d="M331.4,191.8c-113,0-204.8,88.1-204.8,196.8c0,108.6,91.7,196.8,204.8,196.8s204.8-88.1,204.8-196.8
	C536.2,280,444.4,191.8,331.4,191.8z"/>
<path class="st0" d="M331.4,547.3c-90.9,0-165.1-71.3-165.1-158.6c0-87.4,74.2-158.7,165.1-158.7c90.9,0,165.1,71.3,165.1,158.7
	C496.5,476,422.3,547.3,331.4,547.3z"/>
<g>
	<path class="st3" d="M331.4,240.3c-85.2,0-154.4,66.5-154.4,148.4c0,81.9,69.2,148.3,154.4,148.3s154.4-66.5,154.4-148.3
		C485.8,306.8,416.6,240.3,331.4,240.3z"/>
	<path d="M271.3,525.4c-18.4-7.5-34.9-18.2-49.1-31.8c-14.2-13.6-25.3-29.5-33.1-47.2c-8.1-18.3-12.2-37.7-12.2-57.8
		c0-20,4.1-39.5,12.2-57.8c7.8-17.7,18.9-33.6,33.1-47.2c14.2-13.6,30.7-24.3,49.1-31.8c19-7.7,39.3-11.7,60.1-11.7
		c20.8,0,41.1,3.9,60.1,11.7c18.4,7.5,34.9,18.2,49.1,31.8c14.2,13.6,25.3,29.5,33.1,47.2c8.1,18.3,12.2,37.8,12.2,57.8
		c0,20-4.1,39.5-12.2,57.8c-7.8,17.7-18.9,33.5-33.1,47.2c-14.2,13.6-30.7,24.3-49.1,31.8c-19,7.7-39.3,11.7-60.1,11.7
		S290.4,533.2,271.3,525.4z M271.4,252.1c-18.4,7.5-34.9,18.2-49,31.8c-14.2,13.6-25.3,29.5-33.1,47.1
		c-8.1,18.3-12.1,37.7-12.1,57.7c0,20,4.1,39.4,12.1,57.7c7.8,17.6,18.9,33.5,33.1,47.1c14.2,13.6,30.7,24.3,49,31.8
		c19,7.7,39.2,11.7,60,11.7s41-3.9,60-11.7c18.4-7.5,34.9-18.2,49-31.8c14.2-13.6,25.3-29.5,33.1-47.1c8.1-18.3,12.1-37.7,12.1-57.7
		c0-20-4.1-39.4-12.1-57.7c-7.8-17.7-18.9-33.5-33.1-47.1c-14.2-13.6-30.7-24.3-49-31.8c-19-7.7-39.2-11.7-60-11.7
		S290.4,244.3,271.4,252.1z"/>
</g>
<g>
	<path class="st3" d="M484,519.4c22.6-8.7,23.3-13.1,16.8-23.3c-19-28.5-14.6-39.5-11.7-42.3c16.8-16.9-29.2-72.7-48.2-85.4
		c-8.7-5.8-75.9-25.6-77.3-28.5c-10.2-21.2,74.2-5.2,72.2-19.7c-8.9-64.3-14.5-32.3-26.7-54.3c-39-70.6-160.3-61.1-206.9-0.5
		c-1.2,1.5-2.8,2.8-3.2,4.7c-14,55.6-8.4,171.5,6.1,201.2c3.6,7.2-17.5,18.3-17.5,35.1c0,5.1,1.4,45.3,6.6,40.2
		c0,0,12.5-38,17.6-32.9c18.9,19,4.4,40.9,26.3,8.1c7.3-10.9,37.9-49.7,42.3-35.1c1.4,4.4,3.7,11.7,7.3,4.4
		c11-21.9,9.5-15.3,9.5,0.7c0,34.3,22-34.3,22-10.2c0,66.2,66.4,36.6,72.2,30.7C425.3,477.5,453.4,498.1,484,519.4z"/>
	<path d="M192.2,548.7c-1.8-0.8-3.9-3-5.5-20.8c-0.8-9.2-1.1-19-1.1-21.6c0-9.9,6.6-17.7,11.9-24c3.5-4.1,6.8-8.1,5.8-10.2
		c-14.6-29.8-20.6-145.7-6.3-202.5c0.4-1.8,1.6-3.1,2.6-4.3c0.3-0.4,0.7-0.8,1-1.1c25.5-33.1,75-53,123.3-49.3
		c39.2,2.9,70.9,21.2,86.9,50.1c3.9,7,6.9,7.9,9.7,8.8c7.2,2.1,11.6,5.3,17.2,46.2c0.2,1.5-0.2,3-1.2,4.2c-4,4.7-18,5-34.2,5.3
		c-15.2,0.3-34.1,0.7-37.2,5.8c-0.4,0.6-0.7,1.6,0.1,3.5c2.5,1.6,18.5,7,32.6,11.7c19.4,6.5,39.4,13.1,44.1,16.3
		c8.3,5.5,20.9,18.5,31.3,32.2c7.3,9.6,19.9,28,21.3,42.3c0.6,6-0.8,10.7-4.1,14c-0.9,0.9-8.3,9.5,12,39.8c3,4.7,4.7,8.6,3.5,12.4
		c-1.6,4.7-7.3,8.5-21.2,13.9l-1,0.4l-2.6-1.8c-30.2-21-56.3-39.1-88.4-6.3c-2.9,3-21.3,12.3-39.3,12.3c-5.3,0-10.5-0.8-15.3-2.8
		c-13.9-5.7-21-19.7-21-41.6c0-1,0-1.7-0.1-2.3c-1.6,2.1-4,6.4-5.7,9.5c-5.5,10-8.8,15.6-12.5,14.7c-2.6-0.7-3.7-4-3.7-11.7
		c0-1.9,0-3.7,0-5.3c0-1.8,0-3.8,0-5.3c-1.9,3.2-4.7,8.6-5.8,10.8c-0.9,1.9-2.5,4.4-5,4.2c-3.2-0.2-4.6-4.6-5.9-8.5l-0.1-0.4
		c-0.5-1.7-1.2-1.8-1.5-1.8c-6.9-1-28.3,24-37.2,37.4c-10.3,15.4-12.1,18.2-15,17.7c-2.2-0.4-2.8-2.6-3.7-5.9
		c-1.3-4.6-3.4-12.2-10.4-19.4c-3,1.7-9.8,17.6-14.5,31.9l-0.1,0.5l-0.3,0.3c-0.8,0.8-1.6,1-2.3,1
		C192.8,549,192.4,548.8,192.2,548.7z M213.2,512.2c7.9,8,10.2,16.4,11.6,21.4c0.2,0.8,0.5,1.8,0.7,2.4c1.8-1.9,5.5-7.5,10.8-15.4
		c3-4.5,10.4-14.4,18.7-23.4c15.4-16.8,20.7-16,22.5-15.7c1.6,0.2,3.7,1.2,4.7,4.6l0.1,0.3c0.5,1.4,1.5,4.6,2.3,5.6
		c0.2-0.3,0.6-0.8,1.1-1.8c7-13.9,8.5-15.6,10.9-15c2.5,0.6,2.5,3.6,2.4,11.4c0,1.6,0,3.3,0,5.2c0,4.8,0.5,6.8,0.7,7.6
		c1.9-1.5,5.6-8.3,7.9-12.4c5.1-9.3,7.5-13.3,10.5-12.5c2.4,0.6,2.7,3.8,2.7,7.2c0,20.1,6.2,32.9,18.5,37.9c19,7.8,47-5.4,50.3-8.7
		c34.5-35.3,63.2-15.3,93.6,5.8l0.9,0.6c11.5-4.5,16.8-7.8,17.9-11c0.7-2-0.2-4.5-3-9c-21-31.5-14-42.3-11.4-44.9
		c2.4-2.4,3.4-6.1,2.9-10.8c-2.2-22.1-35-61-50.9-71.6c-4.3-2.9-25-9.8-43.2-15.9c-29-9.7-33.9-11.6-34.8-13.4
		c-1.4-2.9-1.4-5.5-0.1-7.7c4.3-7,21.9-7.3,40.5-7.7c12.7-0.2,28.4-0.5,31.3-3.9c0.3-0.3,0.4-0.6,0.3-1
		c-5.6-40.3-9.7-41.5-14.4-42.9c-3.3-1-7.4-2.2-12.1-10.7c-15.3-27.7-45.8-45.2-83.7-48c-47-3.5-95.2,15.7-119.8,47.8
		c-0.4,0.5-0.8,0.9-1.2,1.4c-0.8,0.9-1.5,1.7-1.7,2.6c-6.4,25.2-9.2,66.2-7.6,109.7c1.5,41.6,6.7,76.1,13.6,90
		c2.2,4.4-1.7,9.1-6.3,14.5c-4.9,5.8-11,13-11,21.4c0,8.8,1.4,30.4,3.5,37.1c3.7-10.9,11.1-30.8,16.8-32.2c0.3-0.1,0.6-0.1,0.8-0.1
		C211.6,511.1,212.5,511.5,213.2,512.2z"/>
</g>
<g>
	<path class="st4" d="M489.8,513.1c31.6,10.2,0-33.6-1-36c-3.2-9.6,4.9-21.8,2.9-25.8c-0.5-1-10.7-10.3-2.9-10.3
		c1.5,0-43.3-30.1-58.4-31.5c-28.7-2.4,31.2,29.6-14.6,22.8c-29.7-4.4,4.9,34.1-9.2,23.3s-7.8,0-7.8,16.6c0,11.7-22.9-53-26.8-22.9
		c-1,8.8-9.6,22.9-13.1,8.8c-10.7-41.3-15-9.3-32.1,7.8c-18.5,18.5,3-24.3-14.6-4.4c-21.9,25.3,1-16.1-17-7.3
		c-34.6,17,9.7-31.7-5.9-16.6l-28.2,26.8c-20.9,19.9,6.8-32.1-11.7-18c-21.4,16.1-18,32.6-18,0.9c0-23.3-26.8,45.8-22.9,21.9
		c3.9-23.3-19.9,19-19.9,31.7c0,7.3,93-1.4,112.9-1.4c41.4,0,75.4-22.4,114.3-9.8C427.5,493.6,489.3,507.3,489.8,513.1z"/>
	<path d="M488.6,516.9l-2.5-0.8l-0.1-1.5c-5.5-3.8-36.5-11.8-51.7-15.7c-9.1-2.3-16.2-4.2-19.6-5.3c-22.3-7.2-43.2-2.4-65.3,2.8
		c-15.2,3.5-30.8,7.2-47.8,7.2c-5.7,0-17.7,0.7-31.7,1.6c-61.2,3.8-79.2,3.7-83.6-0.5c-1-1-1.6-2.3-1.6-3.6
		c0-10.3,13.9-38.5,20.7-41.9c1.8-0.9,3.8-0.8,5.4,0.3c0.8,0.6,1.3,1.3,1.7,2.2c0.4-0.7,0.8-1.4,1.1-2c8.9-16.4,12.5-22.1,17.6-20.8
		c4.4,1.1,4.4,6.6,4.4,8.7c0,2.6,0,4.9-0.1,6.8c2.8-3.3,6.5-7.1,11.6-11c1.8-1.3,6.5-4.9,10.4-2.4c4.3,2.8,2.8,9.2,1,17.2
		c-0.3,1.3-0.7,2.8-0.9,4.3c0.3-0.3,0.6-0.5,0.9-0.9l28.2-26.8c3.3-3.2,5.8-5.6,8.8-3.1c2.9,2.5,1.1,5.2-1.7,9.3
		c-4.1,6-6.6,10.2-7.6,12.7c1.4-0.4,3.7-1.2,7.4-3c1.6-0.8,6.3-3.1,10.1-0.4c3.5,2.5,3.4,7.2,3,11.6c0.8-0.8,1.6-1.8,2.7-3
		c3.8-4.4,7.6-8.1,11.5-6.3c3.8,1.8,3.1,6.4,2.5,10.9c0,0.2-0.1,0.4-0.1,0.5c0.3-0.3,0.6-0.6,0.9-0.9c4.8-4.8,8.5-10.8,11.8-16.2
		c4.7-7.7,8.5-13.7,14.1-12.9c5.3,0.8,8.6,6.8,12.9,23.2c0.3,1.1,0.5,1.8,0.8,2.3c1.6-1.7,4-6.3,4.5-10.7c0.4-2.9,1.4-10.5,6.9-11.5
		c6.2-1.1,11.4,6.9,18.6,20.6c-0.5-4.7-0.4-8.1,2.6-9.9c1.7-1,3.5-0.9,5.4-0.2c-2.2-5.4-3.6-11.4-0.5-15.7c2.7-3.7,7.7-5,15.2-3.8
		c7.9,1.2,11.4,1,12.9,0.7c-0.9-1.7-3.2-4.3-4.6-6c-4.2-4.9-8.1-9.5-5.8-13.9c2-3.9,7.4-4,11.9-3.6c6.9,0.7,19.2,6.2,36.5,16.5
		c7.7,4.6,13.8,8.6,16.8,10.6c7.9,5.3,8.9,6.1,8.8,8.6l-0.2,3.8h-1.1c0.5,0.7,1.2,1.4,2,2.3c0.9,1,1.4,1.5,1.7,2.2
		c1.6,3.1,0.5,6.8-1,11.6c-1.4,4.5-3,10.2-1.8,14.5c0.2,0.4,0.8,1.3,1.3,2.1c9.7,15.1,17.8,30.2,12.1,37.6c-2.1,2.7-5.2,3.5-8.2,3.5
		C494,518.7,490.3,517.5,488.6,516.9z M487.6,452.7c-2.9-3.2-6.9-7.6-5.4-11.8c-10.9-7.5-41.4-26.4-52.1-27.5
		c-1.2-0.1-2.2-0.1-2.9-0.1c1,1.4,2.5,3.2,3.6,4.5c4.3,5.1,8.8,10.4,6.1,15.3c-2.4,4.3-8.4,5.1-21.7,3.2c-5.1-0.8-7.1,0-7.6,0.6
		c-1.6,2.2,2.7,10.8,4.1,13.7c2.2,4.4,3.7,7.6,0.8,10c-2.9,2.4-6.4-0.2-8.4-1.7c-1-0.8-1.9-1.4-2.6-1.9c0.1,0.8,0.2,1.7,0.3,2.5
		c0.4,3.5,0.9,7.8,0.9,12.8c0,4-2.4,5-3.4,5.3c-4,1-5.7-2.4-11-12.4c-2.6-5-8.3-15.9-11.6-19.1c-0.2,0.8-0.5,1.9-0.8,3.8
		c-0.7,6.3-5.5,17.9-12.4,18.3c-2.8,0.2-6.6-1.2-8.5-9c-3.2-12.2-5.3-15.9-6.2-17c-1.5,1.3-4.2,5.6-6.2,8.9
		c-3.4,5.5-7.5,12.2-13,17.7c-3.7,3.7-7.9,7.4-11.9,5.4c-3.4-1.7-3.4-5.6-2.8-9.7c-6.6,7.6-10.2,10.6-13.9,9
		c-3.7-1.7-3.2-6.1-2.7-10.3c0.2-1.5,0.5-4.5,0.4-6c-0.4,0.1-1,0.3-1.7,0.7c-7.1,3.5-14.2,6.1-17.8,1.9c-1.3-1.5-1.7-3.4-1.4-5.5
		l-13.9,13.2c-3.8,3.6-8.2,7.3-12.1,5c-4.3-2.4-2.9-8.5-1.1-16.1c0.4-1.9,1.1-4.6,1.4-6.8c0,0-0.1,0.1-0.1,0.1
		c-8.1,6.1-12.4,12.3-14.8,15.6c-1.7,2.5-3.5,5-6.7,4c-3.3-1.1-3.2-3.7-3.1-10.7c0-1.9,0.1-4.4,0.1-7.4c-2.3,3.7-5,8.7-6.9,12.2
		c-6.6,12.2-8.9,16.4-13.2,14.9c-2.6-0.9-3.2-3.3-3.1-5.7c-4.6,7.6-10.3,19.9-11.4,26.5c9.7,2.2,52.8-0.4,76.6-1.9
		c14.1-0.9,26.2-1.6,32.2-1.6c16.1,0,31.3-3.5,46-7c23.2-5.4,45.1-10.5,69.6-2.6c3.2,1.1,10.6,3,19.1,5.2
		c39.9,10.3,52.6,14.5,56.3,18.7c5.8,1.7,7.1,0.6,7.1,0.5c0,0,1.5-2.3-3.1-11.9c-3-6.3-7.2-12.9-9.4-16.4c-1.3-2-1.7-2.7-1.9-3.2
		l-0.1-0.3c-2.2-6.7-0.1-13.9,1.6-19.6c0.6-1.9,1.3-4.5,1.4-5.6C487.9,453,487.8,452.9,487.6,452.7z M410.8,453.7L410.8,453.7
		L410.8,453.7z M488,452.8L488,452.8L488,452.8z"/>
</g>
<g>
	<path class="st3" d="M538.7,596.9l-83.8-24.1l-1.4-17c-88.8-13.1-170.3-11.8-244.7,3.6l-0.4,16.1l-83.4,21.5
		c4.4-14,11.3-24.5,19.7-33c-11.1-7.6-19.1-14.8-19.7-20.4l42.8-14.6V506c97.6-28.9,217.3-31.8,328.9,0v23.6l41.9,13.8
		c3.8,3.4-12.5,14.3-18.7,21.4C526.2,575.5,536.3,585.2,538.7,596.9z"/>
	<path d="M451.1,575.9l-1.3-16.6c-85.2-12.3-164.9-11.1-237,3.4l-0.4,15.9l-93.3,24l2.1-6.9c3.7-11.9,9.4-22.1,17.4-31.2
		c-11.5-8.4-17-14.9-17.6-20.7l-0.3-3.2l43.1-14.7V503l2.9-0.8c103.2-30.5,223.8-30.5,331.1,0l2.9,0.8v23.7l39.9,13.2l0.6,0.5
		c1.2,1.1,1.9,2.6,1.9,4.3c0,4.3-4.4,8.4-12.2,15.2c-2.1,1.8-4.3,3.7-6,5.4c1.6,2.5,3.4,4.9,5.2,7.4c5.2,7.2,10.6,14.6,12.4,23.4
		l1.3,6.5L451.1,575.9z M204.9,556.1l3.1-0.6c74.7-15.5,157.5-16.7,246.1-3.6l3.1,0.5l1.4,17.4l73.8,21.2c-2.2-4.5-5.4-8.9-8.7-13.5
		c-2.5-3.4-5.1-7-7.2-10.6l-1.5-2.5l1.9-2.2c2.3-2.6,5.6-5.5,8.8-8.3c2.5-2.2,6.3-5.5,8.3-7.8l-41.3-13.6V509
		c-104.1-29-220.7-29-320.9,0v22.7l-41.7,14.2c1.8,2.9,6.3,7.5,16.8,14.7l3.9,2.7l-3.3,3.4c-7.1,7.2-12.4,15.3-16.2,24.5l73.2-18.8
		L204.9,556.1z"/>
</g>
<g>
	<path class="st1" d="M188.4,571.9c-6.8-0.9-15.1-1.7-23.2-2.6c-2.1-10.7-0.4-25.3-0.9-37.4c-14.4,2.5-25.4,8.4-39.2,11.6
		c2.6,7.3,13.8,13.5,19.7,20.4c-6.4,11.2-14,21.1-19.7,33c20.2-7.1,41.2-13.4,63.4-18.5v3.2c-24.5,5.9-47.6,13.2-70.5,20.6
		c6.7-13.2,15.1-24.8,22.3-37.4c-6.5-8.4-15.9-13.8-22.3-22.3c15.9-4.6,31.3-9.7,46.4-15.1v-24.1c7.7-2.2,15.8-4.3,24.1-6.2v3.5
		c-7.1,1.7-14,3.5-20.5,5.4v59.7c6.6-1.9,13.5-3.7,20.5-5.3v3.4l-13.4,2.9c4.2,1.2,8.7,2,13.4,2.7V571.9z M208.9,572.8
		c0.2-2.9,0.4-9.9,0-13.4l-20.4,4.3v-3.4c85.3-19.8,201.4-19.7,287-0.1v3.6c-6.4-1.3-13-2.4-18.7-4.4c-3.9,1.2-0.8,9.4-1.8,13.4
		c7.1-1,13.7-2.4,20.5-3.6v3.3c-4.5,0.6-9,1.4-13.4,2.1c4.5,1.2,8.9,2.4,13.4,3.7v3.2c-7.8-1.9-15.8-3.6-24-5.1v-17.9
		c-70.7-12.8-169.6-14.1-238.9,0.9v17c-8.2,1.6-16.2,3.3-24,5.3v-3.2c4.4-1,8.9-2,13.3-3c-1.2-1.6-6.4-2.7-13.3-3.6v-2.5
		C195.3,570.4,202.5,571.3,208.9,572.8L208.9,572.8z M475.4,497v3.5c-85.3-19.7-202-19.7-287,0.1V497
		C274.3,477.5,389.5,477.4,475.4,497z M499.5,503.2v25c16.7,3.5,30.2,10.2,46.4,14.3c-5.9,9.3-16.7,13.6-22.2,23.2
		c8.6,11.4,15.3,24.5,23.2,36.6c-23.6-7.1-46.7-14.8-71.4-20.7v-3.2c21.6,5.7,43.6,11,63.3,18.6c-3.4-10-13.1-21.4-18.7-32.1
		c3.9-9,17.1-13.2,18.7-21.4c-13.8-3.1-24.7-9.2-39.2-11.6v36.5c-7.6,1.8-15.8,3-24,4.2v-3.3c4.3-0.7,8.7-1.4,13.4-1.7
		c-4-1.7-8.6-2.7-13.4-3.7v-3.6c7.3,1.7,14.5,3.5,21.4,5.5V506c-6.8-2-14-3.9-21.4-5.5V497C483.7,498.9,491.8,501,499.5,503.2z"/>
	<path d="M545.6,606.1c-5.9-1.8-11.7-3.6-17.5-5.4c-24.5-7.6-49.9-15.4-77.4-20.4l-3.3-0.6v-5.1l-3.4-0.9l3.4-0.6v-11.2
		c-73.1-12.7-166.9-12.4-230.9,0.8v17.1l-3.2,0.6c-34,6.5-65.1,16.3-94.1,25.7l-9.1,3l4.3-8.6c4-8,8.7-15.4,13.3-22.6
		c2.6-4.1,5.3-8.3,7.8-12.6c-2.6-3-5.7-5.6-8.8-8.4c-4.1-3.6-8.3-7.3-11.8-11.9l-3.5-4.6l5.6-1.6c13.9-4,28.1-8.6,43.5-14.1v-24.3
		l2.9-0.8c96.3-28.2,241.4-28.2,337.4,0l2.9,0.8V525c8.2,2,15.7,4.6,23,7.1c6.5,2.3,13.3,4.6,20.3,6.4l5.4,1.4l-3,4.7
		c-3.2,5-7.5,8.6-11.7,12.1c-3.4,2.8-6.6,5.5-9.1,8.8c4.8,6.7,9.1,13.9,13.3,20.9c2.7,4.5,5.5,9.2,8.4,13.7l5.9,9.2L545.6,606.1z
		 M172.8,574.1c-2.6-0.3-5.3-0.6-8-0.8l-2.9-0.3l-0.6-2.9c-0.2-1.1-0.4-2.3-0.5-3.4l-2-0.6l1.9-0.4c-0.6-6.1-0.5-12.8-0.4-19.4
		c0.1-3.1,0.1-6.4,0.1-9.5c-5.8,1.3-11,3.2-16.6,5.1c-4,1.4-8.2,2.9-12.6,4.1c2,2.3,4.9,4.8,7.7,7.1c3.1,2.6,6.3,5.3,8.8,8.2
		l1.8,2.1l-1.4,2.4c-2.5,4.3-5.1,8.5-7.7,12.5c-2.5,3.9-4.9,7.6-7.2,11.5c16.8-5.7,33.6-10.5,50.7-14.5
		C180.2,574.9,176.3,574.4,172.8,574.1z M520,541.8c-5.5-2-10.8-3.8-16.6-5.1v32.5l2.5,1l-2.5,0.2v1.1l-3.1,0.7
		c-6.1,1.5-12.6,2.5-19,3.5c1.7,0.4,3.4,0.9,5,1.3c14.9,3.9,30.2,7.9,44.5,12.8c-1.8-3.2-4-6.4-6.1-9.6c-2.9-4.4-6-9-8.3-13.5
		l-0.9-1.7l0.8-1.8c2.3-5.2,6.9-8.9,10.9-12.1c2.1-1.7,4.2-3.4,5.7-5C528.4,544.8,524.1,543.3,520,541.8z M458.7,564.2
		c0,0.9,0.1,1.9,0.2,2.6c0,0.4,0.1,0.9,0.1,1.3c2.8-0.5,5.6-1,8.3-1.5c0.3-0.1,0.6-0.1,1-0.2C465,565.8,461.8,565.1,458.7,564.2z
		 M195.4,566.3c3.2,0.5,6.5,1,9.6,1.5c0-1.2,0-2.4,0-3.6L195.4,566.3z M332.3,489.7c-0.2,0-0.3,0-0.5,0c-59.4,0-116,6.8-159.9,19.3
		v51.4c92.1-25.2,227.8-25.2,320.9,0V509C448.5,496.6,391.7,489.7,332.3,489.7z"/>
</g>
<path class="st3" d="M320.4,277.6c-1.6,6-11.8,4.5-12.7-0.9c-0.4-4.2,2.3-5.5,2.9-8.8c-3.4-0.7-5.2-3-8.8-1
	c-14,26.9,39.5,18.1,16.6,3C320.1,271.4,320.8,273.9,320.4,277.6z"/>
<g>
	<path class="st5" d="M429.9,288.6c-1.3-5.6-49.5-60.2-52.1-18.6c-0.8,12,4.5,21.9,4.5,34.6c0,14.2-77.6-9.2-77.6,11.6
		c0,6.8,19.7,10.7,16.6,13.8c-15.6,15.6,60.6,0.5,66.2,0.5h16.9c21.9,0,16.2,4.1,13.5-14.9C416.4,303,419.4,294.9,429.9,288.6z"/>
	<path class="st6" d="M319.4,334.4c-0.6-1.2,0.1-2.7,1.9-4.5c0.2-0.2,0.3-0.5,0.3-0.7c-0.2-1.1-2.9-2.4-6-3.9
		c-4.9-2.3-10.9-5.2-10.9-9c0-2,0.7-3.7,2.2-5.1c6.3-5.8,24.6-4.3,42.3-2.9c14.5,1.2,28.3,2.3,32.1-1.3c0.7-0.7,1.1-1.4,1.1-2.4
		c0-6-1.2-11.5-2.4-16.7c-1.3-6-2.6-11.6-2.2-17.9c0.6-9.8,3.8-15.1,9.6-15.6c8.4-0.7,20.3,9.1,26.6,15.1c9,8.5,15.7,17.1,16.1,19.1
		l0,0.1l-0.1,0c-10.1,6.1-13.5,13.9-11.8,26.8c0.6,4.5,1.4,7.6,2,9.9c0.7,2.7,1,4.1,0.4,4.8c-0.7,0.8-2.5,0.7-6.4,0.6
		c-2.3-0.1-5.5-0.3-9.6-0.3h-16.9c-1.2,0-5.3,0.6-10.9,1.5c-12.8,2-32.9,5-45.6,5C324.9,337.1,320.4,336.4,319.4,334.4z
		 M414.2,330.6c3.7,0.2,5.6,0.3,6.2-0.5c0.5-0.7,0.2-2.1-0.4-4.6c-0.6-2.3-1.4-5.5-2-9.9c-1.8-13,1.6-20.8,11.8-27
		c-0.3-1.1-2.2-3.8-4.9-7.1c-3.2-3.9-7.2-8.1-11.1-11.8c-6.3-5.9-18.1-15.7-26.4-15c-5.6,0.5-8.8,5.6-9.4,15.3
		c-0.4,6.3,0.8,11.9,2.2,17.9c1.2,5.3,2.4,10.7,2.4,16.8c0,1-0.4,1.8-1.1,2.5c-3.9,3.6-17.7,2.5-32.3,1.3
		c-16.8-1.3-35.9-2.9-42.1,2.8c-1.4,1.3-2.1,2.9-2.1,4.9c0,3.7,6,6.5,10.8,8.9c3.3,1.6,6,2.9,6.2,4.1c0.1,0.3-0.1,0.6-0.3,0.9
		c-1.8,1.8-2.4,3.2-1.9,4.3c2.9,5.8,38.2,0.4,57.1-2.5c5.7-0.9,9.8-1.5,11-1.5h16.9C408.7,330.3,411.9,330.5,414.2,330.6z"/>
</g>
<path class="st3" d="M314.6,269.8c-2.7,3,3.4,3,2.9,6.8C319.6,275.1,319,268,314.6,269.8z"/>
<path class="st1" d="M258,278.6c-1.8,4.5,11,10.9,14.6,16.6c-15.8,0.1-24.6-6.6-37.1-9.7c10,8.9,23.1,14.5,36.1,20.4
	c-11.9,2.4-29,2.7-42,1c10.5,4.8,25.8,4.8,38.1,7.8c-9.9,9.6-27.9,11.2-45.9,12.7c12.5,5.4,32.7,5.7,47.8,3
	c4.1-14.1,18.4-18.1,28.3-26.4c-8.3-1.8-18.1-7.3-15.6-16.6C272.9,285.7,264.2,283.4,258,278.6z"/>
<path class="st1" d="M398.4,281.5c-6.3,1.5-9.3,6.3-8.8,14.7c2.9-3.3,4-8.4,7.8-10.7c1.3,0.6,1.8,2.1,1.9,3.9
	C401.5,288,400.5,281.8,398.4,281.5z"/>
<path class="st1" d="M353.1,389.8c-19.9,12.3-36.1,28.2-38.1,58.5c4.2,0.4,9.1-5,12.7-8.8C339.1,427.3,348.1,408.6,353.1,389.8z"/>
<path class="st1" d="M373,384c-4.6,24.7,6,42.6,20.4,51.6C392.7,412.4,382.9,398.1,373,384z"/>
<path class="st1" d="M363.3,394.7c-10.8,17.9-6,47.2,1.9,64.3C373.6,440.9,367.3,412.4,363.3,394.7z"/>
<path class="st1" d="M375.9,423.9c-6.7,14.8,0.3,31.1,7.8,40C388.5,449.3,380.9,434.8,375.9,423.9z"/>
<path class="st1" d="M383.3,370.2c5.3,20.7,18.6,33.5,38.1,40C417.2,392.3,400.7,378.2,383.3,370.2z"/>
<path class="st1" d="M370.1,331.6v29.6c-20.4-10.4-33.9,14.5-42.8,28.7c0.1-6.4,3-15.2,1.9-19.5c-14.8,16.1-25.8,36-38.1,54.6
	c3.4-18.7,10.4-39,15.6-52.6c-16.8-0.5-25.3,12.4-35.1,15.6c5.6-10.4,15.6-21.5,21.5-28.3c-15.8,2.1-31.5,9.5-41.9,13.6
	c16.6-18.5,29.4-40.8,53.6-51.7c-1.9-3-4.8-4.9-4.9-9.7c14-11.9,49-8.8,70.2-4.3v5.7c-11.6-1-23.9-1.8-36-2.4
	c-9.8-0.4-21.4-4.3-27.4,3c5.6,9,20.7,7.5,32.2,6.8c9.8-0.6,20.6-1.9,31.2-2.4v9.3c-16.6,1.9-33.3,6.2-46.7,8.7
	C337.4,335.4,353.5,333,370.1,331.6L370.1,331.6z M370.1,272.7c-16.6-18.2-50.2-26.5-71.1-36.1c17.3,2.9,37,8.5,50.7,11.7
	c-8.9-5.1-19.7-8.4-29.2-12.7c18.1,3.3,35.4,7.6,49.7,14.7V272.7L370.1,272.7z M370.1,227c-1.6-0.7-3.2-1.4-4.9-2.2
	c-19.7-8.7-34.6-13.3-59.4-11.7c-40.8,2.7-71.1,24.2-95.7,41c0.3,1.1,1.9,0.6,2,1.9c-3.8,2.7-7.9,5.1-11.7,7.8
	c0.2,1,1.9,0.6,1.9,1.9c-2.7,2.8-5.3,5.7-7.8,8.8c1.7-0.7,12.1-9.2,19.5-10.7c-0.4-1.4-2.4-0.9-4-1c-0.6-4.2,8.8-6.8,16.6-5.8
	c2.9,4-4.6,4.8-4.9,8.8c11.1,0.2,17.7,5,23.4,10.7c1.7-4.3-3.2-10.4-5.8-13.7c1.9,1.7,7.3-0.1,8.8,1.9c-0.9-8.2-14.8-11.8-24.4-14.6
	c4.2-5,14.5-3.7,23.4-3.9c-3.4-2.2-8.1-3-12.7-4c20.2-19.6,71.9-31.4,105.4-16.6c0.2-3.2-7.8-6.5-11.7-8.8c9.2,0.3,24.2,4.1,38,9.8
	c1.2,0.4,2.5,1,3.9,1.7V227z M416.9,332.2c-13.5-6.6-30.2-6.8-46.9-4.8v-9.3c9.9-0.6,19.7-0.5,28.3,1.4c-0.9-1.8-7.3-3-4.9-4.9
	c5.3,3.9,12.2,6,20.5,6.8c-0.6-4.2-3.5-6.2-4.9-9.7c7.1,1.1,12.3,9.1,16.6,9.7c6.8-19.7,4.9-42.6-10.7-47.8
	c-3.2,7.6-4.9,16.6-10.8,21.5c3.5-7.6,4.8-17.4,9.8-23.4c16.3,5.8,29.8,26.9,31.3,51.8v9.5c-0.1,0.4-0.1,0.8-0.1,1.2
	c-0.9,10.9-2.8,23.5-10.7,29.3c-0.3-7.8-1.9-20.2-6.8-26.4c0.1,1.7-1,2.3-3,1.9c-11.2-6-42.2-12.2-52.7-0.9
	c19.7,6.3,48.7,8.5,55.7,24.3c-10.3-5.6-23-8.9-36.1-11.7c6.6,7.1,13.2,14.2,16.6,24.4c-10.9-5.8-20.2-13-34.2-15.6v3.9
	c-1.3-0.9-2.6-1.7-3.9-2.3v-29.6C385.7,330.3,401.8,329.8,416.9,332.2L416.9,332.2z M370.1,228.6c14.7,6.9,35.6,22.1,12.7,29.4
	c-3.9-2.9-8.1-5.5-12.7-7.7v22.3c5.3,5.8,8.8,12.5,9.8,20.5c0.6,5.3,1,13.2-4,15.6c-1.8-0.4-3.7-0.9-5.8-1.4v5.7
	c5,0.4,9.9,0.9,14.6,1.5c6.3-11.8-17.1-51.8,1.9-57.5c9.8-3,16.3,5.5,22.5,8.8c-0.7-21-19.3-30.2-39-38.9V228.6z"/>
<path class="st1" d="M351.6,271.8c-10.7-16-40.6-21.2-65.4-26.4c1.8,3.7,7.9,3.1,9.7,6.8c-7.3,3.7-15.8,6.3-21.5,11.7
	C295,257.6,334.9,257.9,351.6,271.8z"/>
<path class="st1" d="M316.3,293.9c-1.4,0.3-3,0.4-4.7,0.4c-14.4-0.7-23.8-16.3-33.2-22.5c-2.5-0.8-5.5-1-6.8-3
	c8.5-2.9,18.9-3.9,28.3-5.8c-1.7-0.6-4-0.5-4.8-1.9c5.8,2.7,13.5,3.5,21.2,4.3v4.2c-0.5-0.1-1.1,0-1.7,0.3c-1.8,1.9,0.2,2.7,1.7,4
	v7.5c-3.5,0.7-8-1.2-8.6-4.6c-0.4-4.2,2.3-5.5,2.9-8.8c-3.4-0.7-5.2-3-8.8-1c-7.7,15,5.3,18.9,14.5,16.8V293.9z M320.4,277.6
	c-0.6,2.2-2.2,3.3-4.1,3.7v-7.5c0.7,0.7,1.4,1.6,1.2,2.9c1.8-1.4,1.7-6.7-1.2-7.1v-4.2c7.8,0.9,15.7,1.7,21.7,4.5
	c4,9.6,15.8,16.1,16.6,26.9v2.2c0,0.1,0,0.1,0,0.1c-4.5-6.8-9.9-12.8-18.5-15.6c-7.7,3.5-12.5,9-19.7,10.4v-10.2
	c7.3-1.7,12.3-7.1,2.2-13.9C320.1,271.4,320.8,273.9,320.4,277.6z"/>
<path class="st1" d="M399.4,303c-1.7,0.5-10,7.3-8.8,10.7C393.9,310.5,396.7,306.8,399.4,303z"/>
<path class="st1" d="M231.1,357.9c-11.3,18.2-21,55.2-14.6,87.8c14.3-15.9,18.4-42,40-50.7c-12.3,20.2-19,54.4-23.4,85.8
	c28.1-15.8,48.5-39.4,54.6-77c-7.1,8.7-13.5,22.8-27.3,21.5c-8.9-12.2,2.6-31.5,7.8-41.9c-11.7,2.2-19.7,16.8-36.1,17.6
	C224.1,391.9,229.8,369.8,231.1,357.9z"/>
<path class="st1" d="M442.3,368.4c12,17.3,27.8,39.2,54.6,44.9C479.9,397,461.3,382.6,442.3,368.4z"/>
<g>
	<path class="st5" d="M421,280.6c21.9,18.4,21.5,46.5,15,77.3c6-24.3-17.9-37.2-69.3-39.6l31.2-6.4L421,280.6z"/>
	<path class="st6" d="M435.8,357.9c0.2-0.8,0.3-1.6,0.5-2.4c1.1-6.6-0.2-12.4-3.8-17.2c-4.3-5.8-12.1-10.4-23.1-13.7
		c-10.9-3.3-25.4-5.3-42.9-6.2l-0.9,0l32-6.6l23.1-31.3l0.1-0.1l0.1,0.1c10.3,8.6,16.2,19.8,18.2,34.1c1.6,11.2,0.7,24.3-2.7,40.9
		c-0.1,0.8-0.3,1.6-0.5,2.4L435.8,357.9z M398,312L398,312l-30.5,6.3c17.2,0.9,31.3,2.9,42.1,6.1c11.1,3.3,18.9,7.9,23.2,13.7
		c3.1,4.2,4.5,9.1,4.1,14.6c2.9-15.3,3.6-27.5,2.1-38.1c-2-14.2-7.9-25.3-18-33.9L398,312z"/>
</g>
<path class="st1" d="M216.9,290.3c-9.3-2.8-19.9,1.7-27.3,4c-0.1,2.1,3.5,0.4,4.9,0.9c-3,3.6-5.6,7.4-6.8,12.7
	C195.3,299.9,204.5,293.4,216.9,290.3z"/>
<path class="st1" d="M223.8,282.5c1.2-2.4-6-5-4.9-10.7c-8.1,0-28,4.2-26.4,8.8C201.4,274.6,216.3,276.9,223.8,282.5z"/>
<path class="st1" d="M200.4,280.5c-4.4-0.8-10.4,5.2-13.7,8.8c1.5,0.9,5.8-1.3,9.8-1.9c8.5-1.5,12.6,0.3,0-1.9
	C196.6,282.6,198.7,281.8,200.4,280.5z"/>
<path class="st1" d="M210.1,303.9c-9.6,0.2-22,6-25.3,15.6c1.2,1.8,5-2.1,6.8-3c-0.5,5.7-6.3,14.6-6.8,23.5c2.5-0.4,3-3,5.8-3
	c-2.1,4.4-4,9-4.8,14.6c-0.1,4.4,2.8-1.3,4.8-0.9c-3.8,6.8-6,15.5-6.8,25.3c3.3-1.3,3.5-5.7,6.8-6.8c-5,15.8-3.9,37.7-3.9,58.5
	c2.4-3,4-6.9,4.9-11.6c0.5,10.2-2.4,27.1,0,39.9c2.2-2.3,3.5-5.5,6.8-6.8c1.8,2.2-1.2,7.9,0,12.7c3.5-4.7,5.8-10.4,11.7-12.7
	c-10.2,2.6-11.1-9.4-7.8-18.6c-2.3,2.2-3.1,6-4.9,8.8c-2.2-9.1-0.3-22.4-0.9-33.1c-0.1-4.5-2.2,1.2-4,1c5.7-20.4,16-36.1,28.3-49.8
	c-8.1,3.2-18.1,13.1-26.3,19.5c3-7.8,6.4-15,11.7-20.5c-4.4-1.7-9.6,4-13.7,5.8c1.6-8.8,5.8-15,11.7-19.5c-1.7-2.2-7.4-0.4-10.7-0.9
	c1.3-7.5,8.6-17.4,14.6-23.4c-3.7-0.4-10,4.8-13.6,7.8C195.8,318.9,203.3,309.2,210.1,303.9z"/>
<path class="st7" d="M280.2,534.7l-1.7-5.8l-5.2,0.3v-6.9l3-0.1l-2.7-8.6c-0.1-0.4-0.3-0.9-0.4-1.3v-9.3l5.3-0.3l12.1,31.6
	L280.2,534.7L280.2,534.7z M273.3,499.9v-7.2l7.8-0.4l-7.6,7.6H273.3z M273.3,529.2l-4.4,0.2l-1.2,6l-10.5,0.6l9.4-32.7l6.7-0.4v9.3
	c-0.2-0.8-0.4-1.6-0.5-2.2h-0.2c0,0.4-0.1,0.9-0.2,1.8c-0.1,0.8-0.9,4.4-2.2,10.7l3.1-0.1V529.2L273.3,529.2z M273.3,492.7v7.2
	l-6.6,0.4l6.3-7.6H273.3z"/>
<path class="st7" d="M322.7,531c-1.2,0.7-3,1.4-5.4,1.9c-2.4,0.6-4.8,0.9-6.9,0.9c-5.6,0.1-10-1.2-13-4c-3.2-2.7-4.8-6.7-4.8-11.8
	c-0.1-3.4,0.6-6.4,2.2-9.1s3.7-4.8,6.3-6.2c2.8-1.4,6.1-2.2,9.9-2.2c2.8,0,5.8,0.3,9,1.1l0.1,8.4c-1.5-0.6-3-1.1-4.3-1.3
	c-1.4-0.3-2.9-0.4-4.5-0.4c-2.7,0.1-4.8,0.9-6.3,2.5c-1.5,1.7-2.3,3.8-2.2,6.6c0.1,2.7,0.7,4.8,2.1,6.3c1.4,1.5,3.2,2.2,5.6,2.2
	c1.1,0,1.9-0.1,2.4-0.2l-0.1-4.6l-6.2,0.1l-0.1-7.3l15.9-0.3L322.7,531z"/>
<path class="st7" d="M356,518.5c0,5.1-1.2,9-3.5,11.5c-2.4,2.4-6,3.7-10.9,3.7c-4.6,0-8.1-1.3-10.4-3.7c-2.4-2.5-3.6-6.3-3.6-11.4
	V501h9.8v18c0,2.1,0.4,3.7,1.2,4.8c0.7,1.2,1.9,1.7,3.3,1.7s2.5-0.6,3.3-1.6c0.7-1.1,1.2-2.6,1.2-4.7V501h9.7V518.5z"/>
<polygon class="st7" points="362,533.8 363.7,501.7 373.4,502.2 371.7,534.3 "/>
<path class="st7" d="M398.2,536.6l-0.9-6l-4.2-0.4v-6.9l3.1,0.3l-1.5-8.9c-0.2-1.3-0.3-2.5-0.3-3.6l-0.3-0.1c0,0.4-0.2,0.9-0.4,1.8
	c-0.1,0.2-0.3,0.8-0.6,1.7v-10.5l8.1,0.6l7.6,33L398.2,536.6z M393,530.2l-5.3-0.4l-2,5.8l-10.4-0.9l13.8-31l4,0.4v10.5
	c-0.6,1.7-1.6,4.5-3,8.6l3,0.2V530.2z"/>
</svg>
