<?xml version="1.0" encoding="utf-8"?>
<!-- Generator: Adobe Illustrator 21.0.2, SVG Export Plug-In . SVG Version: 6.00 Build 0)  -->
<svg version="1.1" id="Camada_1" xmlns="http://www.w3.org/2000/svg" xmlns:xlink="http://www.w3.org/1999/xlink" x="0px" y="0px"
	 viewBox="0 0 595 842" style="enable-background:new 0 0 595 842;" xml:space="preserve">
<style type="text/css">
	.st0{fill-rule:evenodd;clip-rule:evenodd;fill:#C33739;}
	.st1{fill-rule:evenodd;clip-rule:evenodd;}
	.st2{fill-rule:evenodd;clip-rule:evenodd;fill:#84B9AE;}
	.st3{fill-rule:evenodd;clip-rule:evenodd;fill:#FFFFFF;}
	.st4{fill-rule:evenodd;clip-rule:evenodd;fill:#915D44;}
	.st5{fill-rule:evenodd;clip-rule:evenodd;fill:#F1CF00;}
	.st6{fill:#F1CF00;}
	.st7{fill:#050006;}
</style>
<g>
	<g>
		<path class="st0" d="M331.4,170.7c125.2,0,226.8,97.6,226.8,218c0,120.3-101.6,217.9-226.8,217.9S104.6,509,104.6,388.7
			C104.6,268.3,206.2,170.7,331.4,170.7z"/>
		<path d="M331.4,610.6c-127.3,0-230.8-99.6-230.8-221.9c0-122.4,103.5-222,230.8-222c127.3,0,230.8,99.6,230.8,222
			C562.2,511.1,458.7,610.6,331.4,610.6z M331.4,174.7c-122.9,0-222.8,96-222.8,214c0,118,99.9,213.9,222.8,213.9
			c122.9,0,222.8-96,222.8-213.9C554.2,270.7,454.3,174.7,331.4,174.7z"/>
	</g>
	<path class="st1" d="M354.2,444.4c8.4,12.4,12.1,29.5,23.4,39c8.8-3.9,9.9-15.6,13.7-24.4c6,14.5,5.6,35.4,19.5,42
		c6.9-2.8,5.8-13.8,5.8-23.4c11,19.2,16.7,57.7,3.9,79c-12.1-25.3-24.2-50.6-29.2-82.9c-9.2,13.5-0.2,37.2,0,53.7
		C373.3,505.3,361.6,477,354.2,444.4z"/>
	<path class="st2" d="M331.4,191.8c113,0,204.8,88.1,204.8,196.8c0,108.6-91.7,196.8-204.8,196.8s-204.8-88.1-204.8-196.8
		C126.6,280,218.4,191.8,331.4,191.8z"/>
	<path class="st0" d="M331.4,547.3c90.9,0,165.1-71.3,165.1-158.6c0-87.4-74.2-158.7-165.1-158.7c-90.9,0-165.1,71.3-165.1,158.7
		C166.3,476,240.5,547.3,331.4,547.3z"/>
	<g>
		<path class="st3" d="M331.4,240.3c85.2,0,154.4,66.5,154.4,148.4c0,81.9-69.2,148.3-154.4,148.3S177,470.6,177,388.7
			C177,306.8,246.2,240.3,331.4,240.3z"/>
		<path d="M331.4,537.1c-20.8,0-41.1-3.9-60.1-11.7c-18.4-7.5-34.9-18.2-49.1-31.8c-14.2-13.6-25.3-29.5-33.1-47.2
			c-8.1-18.3-12.2-37.7-12.2-57.8c0-20,4.1-39.5,12.2-57.8c7.8-17.7,18.9-33.6,33.1-47.2c14.2-13.6,30.7-24.3,49.1-31.8
			c19-7.7,39.3-11.7,60.1-11.7c20.8,0,41.1,3.9,60.1,11.7c18.4,7.5,34.9,18.2,49.1,31.8c14.2,13.6,25.3,29.5,33.1,47.2
			c8.1,18.3,12.2,37.8,12.2,57.8c0,20-4.1,39.5-12.2,57.8c-7.8,17.7-18.9,33.5-33.1,47.2c-14.2,13.6-30.7,24.3-49.1,31.8
			C372.5,533.2,352.2,537.1,331.4,537.1z M331.4,240.4c-20.8,0-41,3.9-60,11.7c-18.4,7.5-34.9,18.2-49,31.8
			c-14.2,13.6-25.3,29.5-33.1,47.1c-8.1,18.3-12.1,37.7-12.1,57.7c0,20,4.1,39.4,12.1,57.7c7.8,17.6,18.9,33.5,33.1,47.1
			c14.2,13.6,30.7,24.3,49,31.8c19,7.7,39.2,11.7,60,11.7s41-3.9,60-11.7c18.4-7.5,34.9-18.2,49-31.8c14.2-13.6,25.3-29.5,33.1-47.1
			c8.1-18.3,12.1-37.7,12.1-57.7c0-20-4.1-39.4-12.1-57.7c-7.8-17.7-18.9-33.5-33.1-47.1c-14.2-13.6-30.7-24.3-49-31.8
			C372.4,244.3,352.2,240.4,331.4,240.4z"/>
	</g>
	<g>
		<path class="st3" d="M178.8,519.4c-22.6-8.7-23.3-13.1-16.8-23.3c19-28.5,14.6-39.5,11.7-42.3c-16.8-16.9,29.2-72.7,48.2-85.4
			c8.7-5.8,75.9-25.6,77.3-28.5c10.2-21.2-74.2-5.2-72.2-19.7c8.9-64.3,14.5-32.3,26.7-54.3c39-70.6,160.3-61.1,206.9-0.5
			c1.2,1.5,2.8,2.8,3.2,4.7c14,55.6,8.4,171.5-6.1,201.2c-3.6,7.2,17.5,18.3,17.5,35.1c0,5.1-1.4,45.3-6.6,40.2
			c0,0-12.5-38-17.6-32.9c-18.9,19-4.4,40.9-26.3,8.1c-7.3-10.9-37.9-49.7-42.3-35.1c-1.4,4.4-3.7,11.7-7.3,4.4
			c-11-21.9-9.5-15.3-9.5,0.7c0,34.3-22-34.3-22-10.2c0,66.2-66.4,36.6-72.2,30.7C237.5,477.5,209.4,498.1,178.8,519.4z"/>
		<path d="M469.5,549c-0.6,0-1.5-0.2-2.3-1l-0.3-0.3l-0.1-0.5c-4.7-14.3-11.5-30.2-14.5-31.9c-7,7.2-9.1,14.8-10.4,19.4
			c-0.9,3.3-1.5,5.5-3.7,5.9c-2.9,0.5-4.7-2.3-15-17.7c-8.9-13.4-30.4-38.4-37.2-37.4c-0.3,0-1,0.2-1.5,1.8l-0.1,0.4
			c-1.3,3.9-2.7,8.3-5.9,8.5c-2.5,0.2-4-2.3-5-4.2c-1.1-2.2-3.8-7.6-5.8-10.8c0,1.6,0,3.5,0,5.3c0,1.6,0,3.4,0,5.3
			c0,7.8-1,11-3.7,11.7c-3.7,1-7-4.7-12.5-14.7c-1.7-3.1-4.1-7.5-5.7-9.5c-0.1,0.5-0.1,1.3-0.1,2.3c0,21.9-7.1,35.9-21,41.6
			c-4.8,2-10.1,2.8-15.3,2.8c-18,0-36.4-9.4-39.3-12.3c-32.2-32.8-58.2-14.7-88.4,6.3l-2.6,1.8l-1-0.4c-13.9-5.4-19.7-9.1-21.2-13.9
			c-1.2-3.8,0.5-7.7,3.5-12.4c20.2-30.3,12.9-38.9,12-39.8c-3.3-3.3-4.7-8-4.1-14c1.4-14.4,14-32.7,21.3-42.3
			c10.4-13.7,23-26.6,31.3-32.2c4.8-3.2,24.8-9.9,44.1-16.3c14.1-4.7,30.1-10.1,32.6-11.7c0.9-1.9,0.5-2.9,0.1-3.5
			c-3.1-5.1-22-5.5-37.2-5.8c-16.2-0.3-30.2-0.6-34.2-5.3c-1-1.2-1.4-2.6-1.2-4.2c5.6-40.9,10-44.1,17.2-46.2
			c2.9-0.8,5.8-1.7,9.7-8.8c16-28.9,47.6-47.1,86.9-50.1c48.3-3.6,97.9,16.2,123.3,49.3c0.3,0.4,0.6,0.8,1,1.1
			c1,1.2,2.2,2.5,2.6,4.3c14.4,56.8,8.3,172.7-6.3,202.5c-1,2.1,2.3,6,5.8,10.2c5.3,6.3,11.9,14.1,11.9,24c0,2.6-0.3,12.4-1.1,21.6
			c-1.6,17.8-3.6,20.1-5.5,20.8C470.4,548.8,470,549,469.5,549z M452.1,511.1c0.3,0,0.6,0,0.8,0.1c5.6,1.3,13.1,21.3,16.8,32.2
			c2.1-6.7,3.5-28.3,3.5-37.1c0-8.5-6.1-15.7-11-21.4c-4.6-5.4-8.5-10.1-6.3-14.5c6.8-13.9,12-48.4,13.6-90
			c1.6-43.5-1.2-84.5-7.6-109.7c-0.2-0.9-0.9-1.7-1.7-2.6c-0.4-0.4-0.8-0.9-1.2-1.4c-24.7-32.1-72.8-51.3-119.8-47.8
			c-37.9,2.8-68.4,20.4-83.7,48c-4.7,8.5-8.8,9.7-12.1,10.7c-4.8,1.4-8.9,2.6-14.4,42.9c-0.1,0.4,0,0.7,0.3,1
			c2.9,3.4,18.6,3.7,31.3,3.9c18.6,0.4,36.3,0.7,40.5,7.7c1.3,2.2,1.3,4.8-0.1,7.7c-0.9,1.9-5.8,3.8-34.8,13.4
			c-18.2,6.1-38.9,13-43.2,15.9c-15.8,10.6-48.7,49.5-50.9,71.6c-0.5,4.7,0.5,8.3,2.9,10.8c2.6,2.5,9.6,13.4-11.4,44.9
			c-2.8,4.4-3.7,7-3,9c1.1,3.2,6.4,6.5,17.9,11l0.9-0.6c30.4-21.1,59-41.1,93.6-5.8c3.2,3.3,31.3,16.5,50.3,8.7
			c12.3-5,18.5-17.8,18.5-37.9c0-3.4,0.3-6.6,2.7-7.2c3.1-0.8,5.4,3.3,10.5,12.5c2.3,4.2,6,10.9,7.9,12.4c0.3-0.8,0.7-2.7,0.7-7.6
			c0-1.9,0-3.6,0-5.2c-0.1-7.9-0.1-10.8,2.4-11.4c2.4-0.6,3.9,1.1,10.9,15c0.5,1,0.9,1.6,1.1,1.8c0.8-1,1.9-4.2,2.3-5.6l0.1-0.3
			c1-3.3,3.1-4.3,4.7-4.6c1.7-0.3,7.1-1,22.5,15.7c8.3,9,15.7,19,18.7,23.4c5.3,7.9,9.1,13.6,10.8,15.4c0.2-0.7,0.5-1.6,0.7-2.4
			c1.4-5,3.7-13.4,11.6-21.4C450.4,511.5,451.2,511.1,452.1,511.1z"/>
	</g>
	<g>
		<path class="st4" d="M173,513.1c-31.6,10.2,0-33.6,1-36c3.2-9.6-4.9-21.8-2.9-25.8c0.5-1,10.7-10.3,2.9-10.3
			c-1.5,0,43.3-30.1,58.4-31.5c28.7-2.4-31.2,29.6,14.6,22.8c29.7-4.4-4.9,34.1,9.2,23.3s7.8,0,7.8,16.6c0,11.7,22.9-53,26.8-22.9
			c1,8.8,9.6,22.9,13.1,8.8c10.7-41.3,15-9.3,32.1,7.8c18.5,18.5-3-24.3,14.6-4.4c21.9,25.3-1-16.1,17-7.3
			c34.6,17-9.7-31.7,5.9-16.6l28.2,26.8c20.9,19.9-6.8-32.1,11.7-18c21.4,16.1,18,32.6,18,0.9c0-23.3,26.8,45.8,22.9,21.9
			c-3.9-23.3,19.9,19,19.9,31.7c0,7.3-93-1.4-112.9-1.4c-41.4,0-75.4-22.4-114.3-9.8C235.4,493.6,173.5,507.3,173,513.1z"/>
		<path d="M165.2,518.7c-3.1,0-6.2-0.8-8.2-3.5c-5.7-7.4,2.4-22.4,12.1-37.6c0.5-0.8,1-1.6,1.3-2.1c1.3-4.3-0.4-9.9-1.8-14.5
			c-1.4-4.7-2.5-8.5-1-11.6c0.3-0.6,0.8-1.2,1.7-2.2c0.8-0.9,1.5-1.6,2-2.3h-1.1l-0.2-3.8c-0.1-2.5,0.9-3.3,8.8-8.6
			c3-2,9.1-6,16.8-10.6c17.3-10.3,29.6-15.8,36.5-16.5c4.5-0.4,9.9-0.3,11.9,3.6c2.3,4.4-1.7,9-5.8,13.9c-1.5,1.7-3.7,4.4-4.6,6
			c1.5,0.3,5,0.5,12.9-0.7c7.5-1.1,12.5,0.1,15.2,3.8c3.1,4.3,1.7,10.3-0.5,15.7c1.9-0.7,3.7-0.8,5.4,0.2c3.1,1.8,3.1,5.2,2.6,9.9
			c7.3-13.7,12.4-21.7,18.6-20.6c5.6,1,6.6,8.6,6.9,11.5c0.5,4.4,2.9,9,4.5,10.7c0.2-0.5,0.5-1.2,0.8-2.3
			c4.2-16.4,7.6-22.4,12.9-23.2c5.7-0.8,9.4,5.2,14.1,12.9c3.3,5.4,7,11.4,11.8,16.2c0.3,0.3,0.6,0.6,0.9,0.9c0-0.2-0.1-0.4-0.1-0.5
			c-0.7-4.5-1.3-9.1,2.5-10.9c3.9-1.8,7.6,2,11.5,6.3c1,1.2,1.9,2.2,2.7,3c-0.5-4.4-0.5-9.1,3-11.6c3.8-2.7,8.5-0.4,10.1,0.4
			c3.7,1.8,6,2.6,7.4,3c-1-2.5-3.5-6.7-7.6-12.7c-2.8-4.1-4.6-6.8-1.7-9.3c3-2.5,5.6,0,8.8,3.1l28.2,26.8c0.3,0.3,0.6,0.6,0.9,0.9
			c-0.3-1.5-0.7-3-0.9-4.3c-1.9-8.1-3.3-14.5,1-17.2c3.9-2.5,8.6,1.1,10.4,2.4c5.1,3.8,8.9,7.7,11.6,11c0-2-0.1-4.3-0.1-6.8
			c0-2.1,0-7.6,4.4-8.7c5.1-1.3,8.7,4.3,17.6,20.8c0.4,0.7,0.7,1.3,1.1,2c0.4-0.9,0.9-1.6,1.7-2.2c1.5-1.1,3.5-1.2,5.4-0.3
			c6.8,3.4,20.7,31.6,20.7,41.9c0,1.4-0.6,2.7-1.6,3.6c-4.4,4.2-22.4,4.3-83.6,0.5c-13.9-0.9-26-1.6-31.7-1.6
			c-17,0-32.7-3.7-47.8-7.2c-22.1-5.2-43-10-65.3-2.8c-3.4,1.1-10.6,3-19.6,5.3c-15.2,3.9-46.2,11.9-51.7,15.7l-0.1,1.5l-2.5,0.8
			C172.5,517.5,168.9,518.7,165.2,518.7z M174.8,453.1c0,1.1,0.8,3.7,1.4,5.6c1.7,5.7,3.8,12.8,1.6,19.6l-0.1,0.3
			c-0.2,0.6-0.6,1.2-1.9,3.2c-2.3,3.5-6.5,10.1-9.4,16.4c-4.5,9.6-3.1,11.9-3.1,11.9c0,0,1.3,1.1,7.1-0.5
			c3.7-4.1,16.4-8.4,56.3-18.7c8.6-2.2,16-4.1,19.1-5.2c24.5-7.9,46.4-2.8,69.6,2.6c14.7,3.4,29.9,7,46,7c5.9,0,18.1,0.7,32.2,1.6
			c23.8,1.5,66.9,4.1,76.6,1.9c-1.1-6.7-6.8-19-11.4-26.5c0.1,2.4-0.5,4.8-3.1,5.7c-4.4,1.5-6.6-2.6-13.2-14.9
			c-1.9-3.5-4.6-8.5-6.9-12.2c0,3,0.1,5.5,0.1,7.4c0.1,7,0.2,9.6-3.1,10.7c-3.2,1-5-1.5-6.7-4c-2.3-3.3-6.6-9.5-14.8-15.6
			c0,0-0.1-0.1-0.1-0.1c0.3,2.1,1,4.8,1.4,6.8c1.7,7.6,3.1,13.6-1.1,16.1c-4,2.3-8.4-1.4-12.1-5l-13.9-13.2c0.3,2.2-0.1,4-1.4,5.5
			c-3.7,4.2-10.7,1.6-17.8-1.9c-0.8-0.4-1.3-0.6-1.7-0.7c-0.2,1.5,0.2,4.5,0.4,6c0.5,4.3,1.1,8.7-2.7,10.3c-3.8,1.7-7.4-1.4-13.9-9
			c0.5,4.1,0.5,8-2.8,9.7c-4,2-8.2-1.7-11.9-5.4c-5.4-5.4-9.6-12.2-13-17.7c-2-3.3-4.7-7.6-6.2-8.9c-0.9,1.1-3.1,4.7-6.2,17
			c-1.9,7.7-5.7,9.2-8.5,9c-6.9-0.4-11.7-12-12.4-18.3c-0.2-1.8-0.5-3-0.8-3.8c-3.3,3.2-9,14.1-11.6,19.1c-5.2,10-7,13.4-11,12.4
			c-1-0.3-3.4-1.3-3.4-5.3c0-4.9,0.5-9.3,0.9-12.8c0.1-0.8,0.2-1.7,0.3-2.5c-0.7,0.5-1.5,1.1-2.6,1.9c-2,1.6-5.5,4.2-8.4,1.7
			c-2.9-2.4-1.3-5.6,0.8-10c1.4-2.8,5.7-11.5,4.1-13.7c-0.4-0.6-2.5-1.4-7.6-0.6c-13.3,2-19.4,1.1-21.7-3.2
			c-2.7-4.9,1.8-10.1,6.1-15.3c1.1-1.3,2.6-3.1,3.6-4.5c-0.7,0-1.6,0-2.9,0.1c-10.7,1-41.2,19.9-52.1,27.5c1.4,4.1-2.5,8.5-5.4,11.8
			C175.1,452.9,174.9,453,174.8,453.1z M252,453.7L252,453.7L252,453.7z M174.8,452.8L174.8,452.8L174.8,452.8z"/>
	</g>
	<g>
		<path class="st3" d="M124.1,596.9l83.8-24.1l1.4-17c88.8-13.1,170.3-11.8,244.7,3.6l0.4,16.1l83.4,21.5c-4.4-14-11.3-24.5-19.7-33
			c11.1-7.6,19.1-14.8,19.7-20.4l-42.8-14.6V506c-97.6-28.9-217.3-31.8-328.9,0v23.6l-41.9,13.8c-3.8,3.4,12.5,14.3,18.7,21.4
			C136.6,575.5,126.5,585.2,124.1,596.9z"/>
		<path d="M118.9,602.6l1.3-6.5c1.8-8.7,7.2-16.2,12.4-23.4c1.8-2.5,3.6-5,5.2-7.4c-1.8-1.7-3.9-3.6-6-5.4
			c-7.8-6.8-12.2-10.9-12.2-15.2c0-1.7,0.7-3.2,1.9-4.3l0.6-0.5l39.9-13.2V503l2.9-0.8c107.3-30.5,228-30.5,331.1,0l2.9,0.8v22.9
			l43.1,14.7l-0.3,3.2c-0.6,5.8-6.1,12.3-17.6,20.7c8,9.1,13.7,19.4,17.4,31.2l2.1,6.9l-93.3-24l-0.4-15.9
			c-72.1-14.5-151.8-15.6-237-3.4l-1.3,16.6L118.9,602.6z M458.2,572.3l73.2,18.8c-3.8-9.2-9.1-17.3-16.2-24.5l-3.3-3.4l3.9-2.7
			c10.4-7.2,14.9-11.8,16.8-14.7l-41.7-14.2V509c-100.2-29-216.8-29-320.9,0v23.5l-41.3,13.6c2,2.3,5.8,5.6,8.3,7.8
			c3.2,2.8,6.6,5.7,8.8,8.3l1.9,2.2l-1.5,2.5c-2.2,3.7-4.7,7.2-7.2,10.6c-3.3,4.6-6.5,9-8.7,13.5l73.8-21.2l1.4-17.4l3.1-0.5
			c88.6-13.1,171.3-11.8,246.1,3.6l3.1,0.6L458.2,572.3z"/>
	</g>
	<g>
		<path class="st1" d="M474.4,569.3c4.7-0.7,9.2-1.5,13.4-2.7l-13.4-2.9v-3.4c7.1,1.7,13.9,3.5,20.5,5.3V506
			c-6.6-1.9-13.5-3.7-20.5-5.4V497c8.4,1.9,16.4,4,24.1,6.2v24.1c15,5.4,30.5,10.5,46.4,15.1c-6.4,8.5-15.8,13.9-22.3,22.3
			c7.2,12.7,15.6,24.2,22.3,37.4c-22.9-7.4-46-14.7-70.5-20.6v-3.2c22.2,5.1,43.2,11.4,63.4,18.5c-5.6-12-13.2-21.9-19.7-33
			c5.9-6.9,17.1-13.2,19.7-20.4c-13.8-3.2-24.8-9.1-39.2-11.6c-0.6,12.2,1.2,26.7-0.9,37.4c-8.1,0.9-16.4,1.7-23.2,2.6V569.3z
			 M454,572.8c6.4-1.5,13.5-2.4,20.4-3.5v2.5c-6.9,0.9-12.1,2-13.3,3.6c4.5,0.9,8.9,1.9,13.3,3v3.2c-7.8-1.9-15.8-3.7-24-5.3v-17
			c-69.3-15-168.2-13.7-238.9-0.9v17.9c-8.2,1.5-16.2,3.2-24,5.1v-3.2c4.5-1.2,8.9-2.4,13.4-3.7c-4.4-0.7-8.9-1.4-13.4-2.1v-3.3
			c6.8,1.2,13.5,2.6,20.5,3.6c-1-4,2.1-12.2-1.8-13.4c-5.7,2-12.3,3.1-18.7,4.4v-3.6c85.6-19.5,201.7-19.7,287,0.1v3.4l-20.4-4.3
			C453.6,562.9,453.7,569.9,454,572.8L454,572.8z M474.4,497v3.5c-85-19.9-201.7-19.8-287-0.1V497
			C273.3,477.4,388.5,477.5,474.4,497z M187.4,497v3.5c-7.3,1.7-14.5,3.5-21.4,5.5v59.7c6.8-1.9,14-3.7,21.4-5.5v3.6
			c-4.8,0.9-9.4,2-13.4,3.7c4.7,0.4,9.1,1,13.4,1.7v3.3c-8.2-1.2-16.4-2.4-24-4.2v-36.5c-14.5,2.4-25.4,8.5-39.2,11.6
			c1.6,8.2,14.8,12.4,18.7,21.4c-5.6,10.7-15.3,22.1-18.7,32.1c19.7-7.6,41.7-13,63.3-18.6v3.2c-24.7,6-47.7,13.6-71.4,20.7
			c7.8-12.1,14.6-25.2,23.2-36.6c-5.5-9.6-16.3-13.9-22.2-23.2c16.1-4.1,29.7-10.7,46.4-14.3v-25C171.1,501,179.1,498.9,187.4,497z"
			/>
		<path d="M106.8,609.2l5.9-9.2c2.9-4.4,5.7-9.1,8.4-13.7c4.2-7,8.5-14.2,13.3-20.9c-2.4-3.3-5.7-6-9.1-8.8
			c-4.2-3.5-8.5-7.1-11.7-12.1l-3-4.7l5.4-1.4c7.1-1.8,13.8-4.2,20.3-6.4c7.3-2.6,14.8-5.2,23-7.1v-24.8l2.9-0.8
			c96-28.2,241.1-28.2,337.4,0l2.9,0.8v24.3c15.3,5.5,29.6,10.1,43.5,14.1l5.6,1.6l-3.5,4.6c-3.5,4.6-7.7,8.3-11.8,11.9
			c-3.2,2.8-6.2,5.4-8.8,8.4c2.5,4.3,5.2,8.5,7.8,12.6c4.5,7.2,9.2,14.6,13.3,22.6l4.3,8.6l-9.1-3c-29-9.4-60.1-19.2-94.1-25.7
			l-3.2-0.6v-17.1c-64-13.2-157.8-13.5-230.9-0.8v11.2l3.4,0.6l-3.4,0.9v5.1l-3.3,0.6c-27.5,5-52.9,12.8-77.4,20.4
			c-5.8,1.8-11.7,3.6-17.5,5.4L106.8,609.2z M478.8,575.3c17.1,4.1,33.8,8.9,50.7,14.5c-2.2-3.9-4.7-7.6-7.2-11.5
			c-2.6-4-5.2-8.2-7.7-12.5l-1.4-2.4l1.8-2.1c2.5-2.9,5.7-5.6,8.8-8.2c2.8-2.4,5.7-4.8,7.7-7.1c-4.4-1.2-8.5-2.7-12.6-4.1
			c-5.5-1.9-10.8-3.8-16.6-5.1c0,3.1,0.1,6.3,0.1,9.5c0.1,6.6,0.3,13.3-0.4,19.4l1.9,0.4l-2,0.6c-0.1,1.2-0.3,2.3-0.5,3.4l-0.6,2.9
			l-2.9,0.3c-2.6,0.3-5.3,0.6-8,0.8C486.5,574.4,482.6,574.9,478.8,575.3z M129.9,546.1c1.4,1.7,3.5,3.3,5.7,5
			c4.1,3.2,8.6,6.9,10.9,12.1l0.8,1.8l-0.9,1.7c-2.4,4.5-5.4,9.1-8.3,13.5c-2.1,3.2-4.3,6.5-6.1,9.6c14.3-4.9,29.6-8.9,44.5-12.8
			c1.7-0.4,3.3-0.9,5-1.3c-6.4-1-12.9-2-19-3.5l-3.1-0.7v-1.1l-2.5-0.2l2.5-1v-32.5c-5.8,1.3-11,3.2-16.6,5.1
			C138.7,543.3,134.4,544.8,129.9,546.1z M194.6,566.4c0.3,0.1,0.6,0.1,1,0.2c2.7,0.5,5.5,1,8.3,1.5c0-0.4,0.1-0.9,0.1-1.3
			c0.1-0.7,0.2-1.7,0.2-2.6C201,565.1,197.8,565.8,194.6,566.4z M457.7,564.3c0,1.2,0,2.4,0,3.6c3.2-0.6,6.4-1.1,9.6-1.5
			L457.7,564.3z M170,509v51.4c93.1-25.3,228.8-25.3,320.9,0V509C447,496.5,390.4,489.7,331,489.7c-0.2,0-0.3,0-0.5,0
			C271.1,489.7,214.3,496.6,170,509z"/>
	</g>
	<path class="st3" d="M342.4,277.6c1.6,6,11.8,4.5,12.7-0.9c0.4-4.2-2.3-5.5-2.9-8.8c3.4-0.7,5.2-3,8.8-1c14,26.9-39.5,18.1-16.6,3
		C342.7,271.4,342,273.9,342.4,277.6z"/>
	<g>
		<path class="st5" d="M232.9,288.6c1.3-5.6,49.5-60.2,52.1-18.6c0.8,12-4.5,21.9-4.5,34.6c0,14.2,77.6-9.2,77.6,11.6
			c0,6.8-19.7,10.7-16.6,13.8c15.6,15.6-60.6,0.5-66.2,0.5h-16.9c-21.9,0-16.2,4.1-13.5-14.9C246.4,303,243.4,294.9,232.9,288.6z"/>
		<path class="st6" d="M331.7,337.1c-12.7,0-32.9-3.1-45.6-5c-5.7-0.9-9.8-1.5-10.9-1.5h-16.9c-4.1,0-7.3,0.1-9.6,0.3
			c-3.9,0.2-5.7,0.3-6.4-0.6c-0.6-0.7-0.3-2.1,0.4-4.8c0.6-2.3,1.4-5.4,2-9.9c1.8-12.9-1.6-20.7-11.8-26.8l-0.1,0l0-0.1
			c0.5-2,7.1-10.7,16.1-19.1c6.3-5.9,18.1-15.7,26.6-15.1c5.7,0.5,9,5.7,9.6,15.6c0.4,6.3-0.8,12-2.2,17.9
			c-1.2,5.3-2.4,10.7-2.4,16.7c0,0.9,0.3,1.7,1.1,2.4c3.8,3.5,17.6,2.4,32.1,1.3c17.7-1.4,36-2.9,42.3,2.9c1.4,1.3,2.2,3,2.2,5.1
			c0,3.8-6,6.7-10.9,9c-3.1,1.5-5.9,2.8-6,3.9c0,0.2,0,0.5,0.3,0.7c1.9,1.9,2.5,3.4,1.9,4.5C342.4,336.4,338,337.1,331.7,337.1z
			 M258.3,330.3h16.9c1.2,0,5.3,0.6,11,1.5c18.9,2.9,54.1,8.3,57.1,2.5c0.5-1.1-0.1-2.5-1.9-4.3c-0.3-0.3-0.4-0.6-0.3-0.9
			c0.2-1.2,2.8-2.5,6.2-4.1c4.8-2.3,10.8-5.2,10.8-8.9c0-2-0.7-3.6-2.1-4.9c-6.2-5.7-25.3-4.2-42.1-2.8c-14.6,1.2-28.4,2.3-32.3-1.3
			c-0.7-0.7-1.1-1.5-1.1-2.5c0-6.1,1.2-11.5,2.4-16.8c1.3-5.9,2.6-11.6,2.2-17.9c-0.6-9.7-3.7-14.9-9.4-15.3
			c-8.3-0.7-20.1,9.1-26.4,15c-3.9,3.7-7.9,7.9-11.1,11.8c-2.8,3.3-4.6,6-4.9,7.1c10.2,6.2,13.6,14,11.8,27c-0.6,4.5-1.4,7.6-2,9.9
			c-0.6,2.6-1,4-0.4,4.6c0.6,0.7,2.5,0.7,6.2,0.5C251,330.5,254.1,330.3,258.3,330.3z"/>
	</g>
	<path class="st3" d="M348.3,269.8c2.7,3-3.4,3-2.9,6.8C343.2,275.1,343.8,268,348.3,269.8z"/>
	<path class="st1" d="M404.8,278.6c1.8,4.5-11,10.9-14.6,16.6c15.8,0.1,24.6-6.6,37.1-9.7c-10,8.9-23.1,14.5-36.1,20.4
		c11.9,2.4,29,2.7,42,1c-10.5,4.8-25.8,4.8-38.1,7.8c9.9,9.6,27.9,11.2,45.9,12.7c-12.5,5.4-32.7,5.7-47.8,3
		c-4.1-14.1-18.4-18.1-28.3-26.4c8.3-1.8,18.1-7.3,15.6-16.6C389.9,285.7,398.7,283.4,404.8,278.6z"/>
	<path class="st1" d="M264.4,281.5c6.3,1.5,9.3,6.3,8.8,14.7c-2.9-3.3-4-8.4-7.8-10.7c-1.3,0.6-1.8,2.1-1.9,3.9
		C261.3,288,262.3,281.8,264.4,281.5z"/>
	<path class="st1" d="M309.7,389.8c19.9,12.3,36.1,28.2,38.1,58.5c-4.2,0.4-9.1-5-12.7-8.8C323.7,427.3,314.7,408.6,309.7,389.8z"/>
	<path class="st1" d="M289.8,384c4.6,24.7-6,42.6-20.4,51.6C270.1,412.4,279.9,398.1,289.8,384z"/>
	<path class="st1" d="M299.5,394.7c10.8,17.9,6,47.2-1.9,64.3C289.2,440.9,295.6,412.4,299.5,394.7z"/>
	<path class="st1" d="M286.9,423.9c6.7,14.8-0.3,31.1-7.8,40C274.3,449.3,281.9,434.8,286.9,423.9z"/>
	<path class="st1" d="M279.5,370.2c-5.3,20.7-18.6,33.5-38.1,40C245.7,392.3,262.1,378.2,279.5,370.2z"/>
	<path class="st1" d="M292.7,331.6c16.6,1.4,32.7,3.8,46.7,4.5c-13.4-2.5-30.1-6.8-46.7-8.7v-9.3c10.6,0.6,21.4,1.9,31.2,2.4
		c11.5,0.6,26.6,2.2,32.2-6.8c-6-7.3-17.6-3.4-27.4-3c-12.1,0.6-24.4,1.4-36,2.4v-5.7c21.2-4.5,56.2-7.6,70.2,4.3
		c-0.1,4.8-3,6.7-4.9,9.7c24.2,10.9,37.1,33.2,53.6,51.7c-10.4-4.1-26.1-11.5-41.9-13.6c5.8,6.8,15.8,17.9,21.5,28.3
		c-9.9-3.2-18.4-16.1-35.1-15.6c5.3,13.6,12.2,33.9,15.6,52.6c-12.2-18.6-23.3-38.4-38.1-54.6c-1.1,4.3,1.8,13.1,1.9,19.5
		c-8.9-14.2-22.4-39-42.8-28.7V331.6L292.7,331.6z M292.7,272.7v-22.3c14.3-7.1,31.5-11.4,49.7-14.7c-9.6,4.3-20.4,7.6-29.2,12.7
		c13.7-3.2,33.4-8.9,50.7-11.7C342.9,246.2,309.3,254.5,292.7,272.7L292.7,272.7z M292.7,228.6c1.4-0.7,2.7-1.3,3.9-1.7
		c13.8-5.7,28.8-9.5,38-9.8c-3.9,2.3-12,5.6-11.7,8.8c33.6-14.8,85.2-3,105.4,16.6c-4.5,1-9.3,1.8-12.7,4c8.9,0.1,19.2-1.1,23.4,3.9
		c-9.6,2.8-23.5,6.4-24.4,14.6c1.5-2,6.8-0.3,8.8-1.9c-2.6,3.3-7.5,9.4-5.8,13.7c5.7-5.7,12.3-10.5,23.4-10.7
		c-0.3-4-7.8-4.8-4.9-8.8c7.8-1,17.2,1.7,16.6,5.8c-1.5,0.1-3.6-0.4-4,1c7.4,1.5,17.8,10,19.5,10.7c-2.4-3.1-5-6-7.8-8.8
		c0-1.3,1.7-0.9,1.9-1.9c-3.8-2.7-7.9-5.1-11.7-7.8c0.1-1.3,1.7-0.9,2-1.9c-24.6-16.8-54.9-38.2-95.7-41c-24.8-1.7-39.7,3-59.4,11.7
		c-1.7,0.7-3.3,1.4-4.9,2.2V228.6z M245.9,332.2c15.2-2.4,31.2-1.9,46.9-0.6v29.6c-1.3,0.6-2.6,1.4-3.9,2.3v-3.9
		c-14,2.6-23.3,9.9-34.2,15.6c3.5-10.2,10-17.4,16.6-24.4c-13.1,2.8-25.8,6-36.1,11.7c6.9-15.8,35.9-18.1,55.7-24.3
		c-10.5-11.2-41.5-5.1-52.7,0.9c-1.9,0.4-3-0.2-3-1.9c-5,6.1-6.6,18.5-6.8,26.4c-7.9-5.8-9.9-18.4-10.7-29.3c0-0.4,0-0.8-0.1-1.2
		v-9.5c1.5-24.8,15-45.9,31.3-51.8c5,6,6.3,15.8,9.8,23.4c-5.9-4.8-7.6-13.8-10.8-21.5c-15.6,5.2-17.5,28.2-10.7,47.8
		c4.3-0.6,9.6-8.6,16.6-9.7c-1.4,3.5-4.3,5.5-4.9,9.7c8.4-0.8,15.3-3,20.5-6.8c2.4,1.9-4,3.1-4.9,4.9c8.6-1.9,18.4-2,28.3-1.4v9.3
		C276,325.4,259.4,325.7,245.9,332.2L245.9,332.2z M292.7,227c-19.7,8.7-38.3,17.9-39,38.9c6.2-3.2,12.7-11.8,22.5-8.8
		c19.1,5.8-4.4,45.7,1.9,57.5c4.7-0.6,9.6-1.1,14.6-1.5v-5.7c-2.1,0.4-4,0.9-5.8,1.4c-5-2.4-4.5-10.3-4-15.6
		c1-8.1,4.5-14.8,9.8-20.5v-22.3c-4.5,2.2-8.8,4.8-12.7,7.7c-23-7.3-2-22.5,12.7-29.4V227z"/>
	<path class="st1" d="M311.2,271.8c10.7-16,40.6-21.2,65.4-26.4c-1.8,3.7-7.9,3.1-9.7,6.8c7.3,3.7,15.8,6.3,21.5,11.7
		C367.8,257.6,327.9,257.9,311.2,271.8z"/>
	<path class="st1" d="M346.5,283.7c9.2,2,22.2-1.9,14.5-16.8c-3.6-2-5.4,0.3-8.8,1c0.6,3.3,3.2,4.5,2.9,8.8c-0.6,3.5-5,5.3-8.6,4.6
		v-7.5c1.5-1.3,3.5-2,1.7-4c-0.6-0.3-1.2-0.4-1.7-0.3v-4.2c7.7-0.9,15.4-1.7,21.2-4.3c-0.8,1.4-3.1,1.4-4.8,1.9
		c9.4,1.9,19.8,3,28.3,5.8c-1.3,1.9-4.3,2.2-6.8,3c-9.4,6.2-18.8,21.7-33.2,22.5c-1.7,0.1-3.2-0.1-4.7-0.4V283.7z M344.4,269.8
		c-10.2,6.8-5.2,12.2,2.2,13.9v10.2c-7.3-1.4-12-6.8-19.7-10.4c-8.6,2.7-14,8.7-18.5,15.6c0,0,0-0.1,0-0.1v-2.2
		c0.7-10.9,12.5-17.3,16.6-26.9c6-2.8,13.8-3.6,21.7-4.5v4.2c-2.8,0.4-3,5.8-1.2,7.1c-0.2-1.3,0.4-2.2,1.2-2.9v7.5
		c-1.9-0.4-3.5-1.5-4.1-3.7C342,273.9,342.7,271.4,344.4,269.8z"/>
	<path class="st1" d="M263.4,303c1.7,0.5,10,7.3,8.8,10.7C268.9,310.5,266.1,306.8,263.4,303z"/>
	<path class="st1" d="M431.7,357.9c11.3,18.2,21,55.2,14.6,87.8c-14.3-15.9-18.4-42-40-50.7c12.3,20.2,19,54.4,23.4,85.8
		c-28.1-15.8-48.5-39.4-54.6-77c7.1,8.7,13.5,22.8,27.3,21.5c8.9-12.2-2.6-31.5-7.8-41.9c11.7,2.2,19.7,16.8,36.1,17.6
		C438.8,391.9,433,369.8,431.7,357.9z"/>
	<path class="st1" d="M220.5,368.4c-12,17.3-27.8,39.2-54.6,44.9C182.9,397,201.5,382.6,220.5,368.4z"/>
	<g>
		<path class="st5" d="M241.8,280.6c-21.9,18.4-21.5,46.5-15,77.3c-6-24.3,17.9-37.2,69.3-39.6l-31.2-6.4L241.8,280.6z"/>
		<path class="st6" d="M226.8,358c-0.2-0.8-0.4-1.6-0.5-2.4c-3.4-16.7-4.2-29.7-2.7-40.9c2-14.3,7.9-25.4,18.2-34.1l0.1-0.1l0.1,0.1
			l23.1,31.3l32,6.6l-0.9,0c-17.5,0.8-32,2.9-42.9,6.2c-11,3.3-18.8,7.9-23.1,13.7c-3.6,4.8-4.9,10.6-3.8,17.2
			c0.2,0.8,0.3,1.6,0.5,2.4L226.8,358z M241.8,280.8c-10.2,8.6-16.1,19.7-18,33.9c-1.5,10.5-0.8,22.7,2.1,38.1
			c-0.4-5.5,1-10.4,4.1-14.6c4.3-5.8,12.1-10.4,23.2-13.7c10.8-3.2,24.9-5.3,42.1-6.1l-30.5-6.2l0,0L241.8,280.8z"/>
	</g>
	<path class="st7" d="M280.2,534.7l-1.7-5.8l-5.2,0.3v-6.9l3-0.1l-2.7-8.6c-0.1-0.4-0.3-0.9-0.4-1.3v-9.3l5.3-0.3l12.1,31.6
		L280.2,534.7L280.2,534.7z M273.3,499.9v-7.2l7.8-0.4l-7.6,7.6H273.3z M273.3,529.2l-4.4,0.2l-1.2,6l-10.5,0.6l9.4-32.7l6.7-0.4
		v9.3c-0.2-0.8-0.4-1.6-0.5-2.2h-0.2c0,0.4-0.1,0.9-0.2,1.8c-0.1,0.8-0.9,4.4-2.2,10.7l3.1-0.1V529.2L273.3,529.2z M273.3,492.7v7.2
		l-6.6,0.4l6.3-7.6H273.3z"/>
	<path class="st7" d="M322.7,531c-1.2,0.7-3,1.4-5.4,1.9c-2.4,0.6-4.8,0.9-6.9,0.9c-5.6,0.1-10-1.2-13-4c-3.2-2.7-4.8-6.7-4.8-11.8
		c-0.1-3.4,0.6-6.4,2.2-9.1s3.7-4.8,6.3-6.2c2.8-1.4,6.1-2.2,9.9-2.2c2.8,0,5.8,0.3,9,1.1l0.1,8.4c-1.5-0.6-3-1.1-4.3-1.3
		c-1.4-0.3-2.9-0.4-4.5-0.4c-2.7,0.1-4.8,0.9-6.3,2.5c-1.5,1.7-2.3,3.8-2.2,6.6c0.1,2.7,0.7,4.8,2.1,6.3c1.4,1.5,3.2,2.2,5.6,2.2
		c1.1,0,1.9-0.1,2.4-0.2l-0.1-4.6l-6.2,0.1l-0.1-7.3l15.9-0.3L322.7,531z"/>
	<path class="st7" d="M356,518.5c0,5.1-1.2,9-3.5,11.5c-2.4,2.4-6,3.7-10.9,3.7c-4.6,0-8.1-1.3-10.4-3.7c-2.4-2.5-3.6-6.3-3.6-11.4
		V501h9.8v18c0,2.1,0.4,3.7,1.2,4.8c0.7,1.2,1.9,1.7,3.3,1.7s2.5-0.6,3.3-1.6c0.7-1.1,1.2-2.6,1.2-4.7V501h9.7V518.5z"/>
	<polygon class="st7" points="362,533.8 363.7,501.7 373.4,502.2 371.7,534.3 	"/>
	<path class="st7" d="M398.2,536.6l-0.9-6l-4.2-0.4v-6.9l3.1,0.3l-1.5-8.9c-0.2-1.3-0.3-2.5-0.3-3.6l-0.3-0.1c0,0.4-0.2,0.9-0.4,1.8
		c-0.1,0.2-0.3,0.8-0.6,1.7v-10.5l8.1,0.6l7.6,33L398.2,536.6z M393,530.2l-5.3-0.4l-2,5.8l-10.4-0.9l13.8-31l4,0.4v10.5
		c-0.6,1.7-1.6,4.5-3,8.6l3,0.2V530.2z"/>
	<path class="st1" d="M445.9,290.3c9.3-2.8,19.9,1.7,27.3,4c0.1,2.1-3.5,0.4-4.9,0.9c3,3.6,5.6,7.4,6.8,12.7
		C467.5,299.9,458.3,293.4,445.9,290.3z"/>
	<path class="st1" d="M439,282.5c-1.2-2.4,6-5,4.9-10.7c8.1,0,28,4.2,26.4,8.8C461.4,274.6,446.5,276.9,439,282.5z"/>
	<path class="st1" d="M462.4,280.5c4.4-0.8,10.4,5.2,13.7,8.8c-1.5,0.9-5.8-1.3-9.8-1.9c-8.5-1.5-12.6,0.3,0-1.9
		C466.3,282.6,464.1,281.8,462.4,280.5z"/>
	<path class="st1" d="M452.7,303.9c9.6,0.2,22,6,25.3,15.6c-1.2,1.8-5-2.1-6.8-3c0.5,5.7,6.3,14.6,6.8,23.5c-2.5-0.4-3-3-5.8-3
		c2.1,4.4,4,9,4.8,14.6c0.1,4.4-2.8-1.3-4.8-0.9c3.8,6.8,6,15.5,6.8,25.3c-3.3-1.3-3.5-5.7-6.8-6.8c5,15.8,3.9,37.7,3.9,58.5
		c-2.4-3-4-6.9-4.9-11.6c-0.5,10.2,2.4,27.1,0,39.9c-2.2-2.3-3.5-5.5-6.8-6.8c-1.8,2.2,1.2,7.9,0,12.7c-3.5-4.7-5.8-10.4-11.7-12.7
		c10.2,2.6,11.1-9.4,7.8-18.6c2.3,2.2,3.1,6,4.9,8.8c2.2-9.1,0.3-22.4,0.9-33.1c0.1-4.5,2.2,1.2,4,1c-5.7-20.4-16-36.1-28.3-49.8
		c8.1,3.2,18.1,13.1,26.3,19.5c-3-7.8-6.4-15-11.7-20.5c4.4-1.7,9.6,4,13.7,5.8c-1.6-8.8-5.8-15-11.7-19.5c1.7-2.2,7.4-0.4,10.7-0.9
		c-1.3-7.5-8.6-17.4-14.6-23.4c3.7-0.4,10,4.8,13.6,7.8C467,318.9,459.5,309.2,452.7,303.9z"/>
</g>
</svg>
