<?xml version="1.0" encoding="utf-8"?>
<!-- Generator: Adobe Illustrator 21.0.2, SVG Export Plug-In . SVG Version: 6.00 Build 0)  -->
<svg version="1.1" id="Camada_1" xmlns="http://www.w3.org/2000/svg" xmlns:xlink="http://www.w3.org/1999/xlink" x="0px" y="0px"
	 viewBox="0 0 595 842" style="enable-background:new 0 0 595 842;" xml:space="preserve">
<style type="text/css">
	.st0{fill-rule:evenodd;clip-rule:evenodd;fill:#C33739;}
	.st1{fill-rule:evenodd;clip-rule:evenodd;fill:#D78F68;}
	.st2{fill-rule:evenodd;clip-rule:evenodd;fill:#FFFFFF;}
	.st3{fill-rule:evenodd;clip-rule:evenodd;fill:#BF9262;}
	.st4{fill-rule:evenodd;clip-rule:evenodd;fill:#F1CF00;}
	.st5{fill-rule:evenodd;clip-rule:evenodd;fill:#FEF48A;}
	.st6{fill-rule:evenodd;clip-rule:evenodd;}
</style>
<g>
	<g>
		<path class="st0" d="M320.2,193.3c133.6,0,241.9,104.2,241.9,232.5c0,128.4-108.4,232.6-241.9,232.6S78.4,554.1,78.4,425.8
			C78.4,297.5,186.7,193.3,320.2,193.3z"/>
		<path d="M320.2,662.3c-135.6,0-245.8-106.1-245.8-236.6c0-130.4,110.3-236.5,245.8-236.5c135.6,0,245.9,106.1,245.9,236.5
			C566.2,556.2,455.8,662.3,320.2,662.3z M320.2,197.3c-131.1,0-237.8,102.5-237.8,228.5c0,126,106.7,228.6,237.8,228.6
			c131.2,0,237.9-102.5,237.9-228.6C558.2,299.8,451.4,197.3,320.2,197.3z"/>
	</g>
	<path class="st1" d="M320.2,215.9c120.6,0,218.4,94,218.4,209.9c0,115.9-97.8,210-218.4,210c-120.5,0-218.4-94-218.4-210
		C101.9,309.9,199.7,215.9,320.2,215.9z"/>
	<path class="st0" d="M320.2,595c97,0,176-76,176-169.3c0-93.2-79.1-169.2-176-169.2c-96.9,0-176,76-176,169.2
		C144.2,519,223.3,595,320.2,595z"/>
	<g>
		<path class="st2" d="M320.2,267.6c90.9,0,164.6,70.8,164.6,158.2c0,87.4-73.7,158.3-164.6,158.3s-164.6-70.8-164.6-158.3
			C155.7,338.4,229.4,267.6,320.2,267.6z"/>
		<path d="M320.2,584.1c-22.2,0-43.8-4.2-64.1-12.4c-19.6-8-37.2-19.4-52.4-33.9c-15.1-14.5-27-31.5-35.3-50.3
			c-8.6-19.5-12.9-40.3-12.9-61.6c0-21.4,4.4-42.1,12.9-61.6c8.3-18.8,20.2-35.8,35.3-50.3c15.1-14.5,32.7-26,52.4-33.9
			c20.3-8.3,41.9-12.4,64.1-12.4s43.8,4.2,64.1,12.4c19.6,8,37.2,19.4,52.4,33.9c15.1,14.5,27,31.5,35.3,50.3
			c8.6,19.5,12.9,40.2,12.9,61.6c0,21.4-4.4,42.1-12.9,61.6c-8.3,18.9-20.2,35.8-35.3,50.3c-15.1,14.5-32.7,26-52.4,33.9
			C364,579.9,342.5,584.1,320.2,584.1z M320.2,267.7c-22.2,0-43.7,4.2-64,12.4c-19.6,8-37.2,19.4-52.3,33.9
			c-15.1,14.5-27,31.4-35.3,50.2c-8.6,19.5-12.9,40.2-12.9,61.5c0,21.3,4.4,42.1,12.9,61.6c8.3,18.8,20.1,35.7,35.3,50.3
			c15.1,14.5,32.7,25.9,52.3,33.9c20.3,8.2,41.8,12.4,64,12.4s43.7-4.2,64-12.4c19.6-8,37.2-19.4,52.3-33.9
			c15.1-14.5,27-31.4,35.3-50.3c8.6-19.5,12.9-40.2,12.9-61.6c0-21.3-4.4-42-12.9-61.5c-8.3-18.8-20.1-35.7-35.3-50.2
			c-15.1-14.5-32.7-25.9-52.3-33.9C364,271.9,342.4,267.7,320.2,267.7z"/>
	</g>
	<path class="st3" d="M218.4,305.3c-38.5,32.2-46.9,55.9-44.4,92.7c1.4,22.2,3,45.9,3,67.3c0,36,13.8-14.5,13.8,9.9
		c0,41.4-1.6,20.7,16.1,7.7c10.7-8.4-26.1,94.2,9.9,39.8c16.1-23.8,9.1,27.4,14.6,10.7c1.5-4.8,133.6-10.3,137.4-6.3
		c8.3,8.6,31.8-43.3,33.3-36.4c8.4,36-7.8,42.6,12.2,9c3.7-6.2,2.3-26.1,0.8-33c-0.8-5.3,7.6,20.7,10.7,13.8
		c2.3-5.4-0.8-27.6,3.8-13.8c6.1,18.4,9.9,40,16.8,3.9c8.6-45.2-12.4-43.9-33.7-71.9c-22.2-29.2,20.7-42.9,39.8-23.8
		c9.9,9.9,5.5,21.2,9.1,19.7c31.2-12.5,26.5-106.9-91-151.5c-11.3-4.3-45.2-19.9-52.8-19.9c-6.1,0,0.7,11,1.6,14.8
		c0.6,3.1-58.1-3.9-72,2.8c-6.8,3.2-24.5,4.6-11.5,7.6c4.6,0.8,17.6,10,17.6,10c-6.1-6.1-38.3,16.1-43.6,21.5
		c-20.7,20.7-10.7,10.7-2.3,10.7c0,0-6.9,7.6-7.7,7.6c-14.5,11.4-20.8,17.1-1.5,9.9C205.8,305.6,217.1,308.2,218.4,305.3z"/>
	<g>
		<path class="st4" d="M348.4,363.3c5-11.6-2.5-15.9,17.1-14.5c58.1,4.1,63.2-3.1,61.6-63c-0.3-8.4-7.6-14.2,3.5-7
			c18.3,12.2,30.2,40.1,41.5,57.2c9.9,14.8,6.1,30,1.2,44.7c-1.2,3.8-5.5,12.2-9,14.5c0,0-7.6-17.3-10.4-20.9
			c-9.9-12.7-45.5-2.7-54.3-3c-9.9-0.3-20.3-1.4-29.3-1.4c-3.5,0-8.7-2.3-11.6-3.2C357.4,366.5,348.4,363.6,348.4,363.3z"/>
		<path d="M464.2,395.4l-0.1-0.1c-0.1-0.2-7.7-17.3-10.4-20.9c-7.3-9.4-29-6.2-43.3-4.1c-4.8,0.7-8.7,1.3-10.9,1.2
			c-4.3-0.1-8.8-0.4-13.1-0.7c-5.7-0.4-11.1-0.7-16.2-0.7c-2.6,0-6.1-1.2-8.9-2.3c-1-0.4-1.9-0.7-2.7-0.9c-0.1,0-10.3-3.1-10.3-3.6
			l0,0c1.4-3.3,1.8-6.1,2.1-8.3c0.8-5.3,1-7.3,15.1-6.3c15.9,1.1,26,1.2,33.7,0.4c8.7-1,14.7-3.2,18.8-7.2c8.7-8.4,9.9-24.8,9-56.1
			c-0.1-3.2-1.2-6-2-7.8c-0.6-1.4-0.9-2.2-0.5-2.4c0.4-0.3,1.7,0.3,6.1,3.2c13.4,9,23.4,26.4,32.2,41.7c3.2,5.6,6.3,11,9.3,15.5
			c9.9,14.9,6,30.3,1.2,44.8c-1.2,3.8-5.6,12.2-9,14.6L464.2,395.4z M433.7,367.8c8.6,0,16.4,1.5,20.2,6.5
			c2.7,3.4,9.7,19.2,10.4,20.8c3.4-2.5,7.7-10.7,8.9-14.4c4.8-14.4,8.6-29.8-1.2-44.6c-3-4.6-6.1-9.9-9.3-15.5
			c-8.8-15.3-18.8-32.7-32.1-41.6c-2.9-1.9-5.5-3.5-5.8-3.2c-0.2,0.2,0.2,1.1,0.6,2.2c0.7,1.9,1.9,4.7,2,7.9
			c0.9,31.4-0.3,47.8-9.1,56.3c-4.2,4-10.2,6.3-18.9,7.2c-7.7,0.9-17.8,0.7-33.7-0.4c-13.9-1-14.1,0.8-14.9,6.1
			c-0.3,2.2-0.7,4.9-2.1,8.2c0.7,0.5,8.9,3.2,10.1,3.4c0.8,0.2,1.7,0.6,2.7,0.9c2.8,1,6.3,2.2,8.9,2.2c5.1,0,10.5,0.4,16.2,0.7
			c4.3,0.3,8.8,0.6,13.1,0.7c2.2,0.1,6-0.5,10.8-1.2C417.2,369.1,425.8,367.8,433.7,367.8z"/>
	</g>
	<g>
		<path class="st5" d="M352.8,310.8c-5.8,0-7.3,9-7.3,13c0,14.5,33.4,21.5,33.4,11.9c0-3.2,1.7-6.9,1.7-11
			c0-1.7-14.5-11.6-16.6-12.2c-2-0.6-6.4-2-8.4-2.9C352.8,308.2,348.1,310.2,352.8,310.8z"/>
		<path d="M371,340.2c-10.2,0-25.6-6.5-25.6-16.4c0-3.5,1.2-12.2,6.5-13.1c-0.7-0.2-1.1-0.4-1.2-0.7c0-0.1,0-0.3,0.2-0.5
			c0.7-0.6,3.1-0.9,4.8-0.1c2,0.8,6.4,2.3,8.4,2.9c1,0.3,5.1,2.8,9.1,5.7c2.3,1.6,7.6,5.5,7.6,6.6c0,2.2-0.5,4.3-1,6.2
			c-0.4,1.7-0.8,3.3-0.8,4.8c0,1.5-0.8,2.7-2.3,3.4C375.3,339.8,373.3,340.2,371,340.2z M353.3,309.2c-1,0-1.9,0.2-2.3,0.5
			c-0.1,0.1-0.2,0.2-0.1,0.3c0,0.1,0.3,0.4,1.9,0.6l0,0.2c-5.9,0-7.2,9.3-7.2,12.9c0,9.7,15.3,16.2,25.3,16.2c2.3,0,4.3-0.4,5.7-1.1
			c1.5-0.7,2.2-1.8,2.2-3.3c0-1.5,0.4-3.1,0.8-4.8c0.5-2,0.9-4,0.9-6.2c0-0.7-2.9-3.2-7.5-6.4c-4-2.8-8-5.4-9-5.6
			c-2-0.6-6.4-2-8.4-2.9C354.9,309.4,354.1,309.2,353.3,309.2z"/>
	</g>
	<path class="st6" d="M426.6,278.4c5.6,34.3,12.2,79.4-51.8,72.1c-6.6-0.6-25.2-2.1-25.3,6.9c-0.1,13,39.4,12.9,51.4,8.7
		c-10.9-1.5-23.8-1.2-31.4-6c30.3,7.8,91.2-7.5,91.5,33.1c-3.2-15.5-12.6-26.6-31.4-24.4c-14.8,1.7-23.1,15.5-13,29.6
		c6,8.4,16.1,15.8,22.6,26.9c11.2,19.1,18.4,53.9,0.9,72.4c-2.4-10.9-4.5-22.2-11.3-28.8c0.9,11.7-1.4,20.2-3.5,28.8
		c-2.7-4.6-3.2-11.4-5.3-16.6c-2.3,29.7-15.4,48.5-29.6,66.2c2.8-13.2,11.5-32.5,6.9-53.1c-12.4,23.9-27.1,45.4-56.6,52.3
		c5.6-10.9,11.3-21.8,14.8-34.8c-3.2-0.8-5.3,6.9-10.5,7c-0.1-3.6-0.1-7.1,0.9-9.6c2-1.6-1,4.8,0,7.8c6-2.7,8.1-9.3,11.3-14.8
		c2.2,14.1-4.8,26.6-8.7,37.4c26.3-8.9,35.9-34.3,48.7-56.6c6.6,6.4,8.3,21.6,6.1,34c9.1-12.7,11.1-32.5,10.4-54.9
		c4.3,2.2,5.9,7,9.6,9.6c-0.1-6,0-11.7,0.9-16.6c7.8,8.1,14.6,17.3,17.4,30.5c12.7-25.2-2.1-60.4-16.6-74.8c3.5,6.6,8,12.2,9.6,20.8
		c-6.4-8.7-10.4-19.8-19.2-26.1c2.3,5.3,5.3,14.3,2.6,21.7c-3-7.7-5.3-16.1-8.7-23.4c2.4,14.4,3.1,39.3-5.3,50.5
		c-1.4-13.7,2.3-35.4-2.6-47.9c-4,8.9-2.9,22.6-11.3,26.9c-0.6-10.7,2.4-21.4,0-31.2c-10.4,14.8-12.9,37.6-18.3,57.4
		c-1.9-19.6,0.7-42.1,7.8-55.7c-7.6,4.9-11.2,21.2-16.5,31.2c-4.5-8.4,1.9-18.9,3.5-26.9c-9.6,13.6-16.1,30.4-18.3,51.3
		c-3.7-5-1.9-15.6-3.5-22.6c-10.7,10.4-13.5,28.8-20,43.6c3.2-47.2,19.2-88.8,54-107.1c-14.1,1.5-43-9.3-30.5-22.6
		c10.3-11,50.8,2.7,68-8.7c11-7.4,5.3-51.6,4.7-73.8c18.1,14.3,59.9,55.1,58.9,87.7c0.1,11.3-6,26.9-12.2,34.8
		c-1.2,1.5-5.3,8.7-7,3.5c0.9,0,0.6,1,0.9,1.7c9.4-11.4,17.1-25.8,14.8-44.4C473.7,326.3,440.3,291.8,426.6,278.4z"/>
	<g>
		<path class="st2" d="M99.2,647.9l89.4-25.7L190,604c94.8-14,181.7-12.6,260.9,3.9l0.4,17.1l89,22.9c-4.6-15-12-26.1-20.9-35.2
			c11.7-8.2,20.3-15.8,20.9-21.9l-45.6-15.6v-24.3c-104-30.7-231.8-33.8-350.8,0v25.2l-44.6,14.7c-4,3.7,13.3,15.3,19.9,22.8
			C112.5,625.1,101.7,635.4,99.2,647.9z"/>
		<path d="M94,653.6l1.3-6.5c1.8-9.2,7.5-17,13-24.6c2.1-2.9,4.1-5.6,5.8-8.4c-1.9-1.9-4.3-3.9-6.6-5.9c-8.2-7.2-12.9-11.5-13-16
			c0-1.7,0.7-3.2,1.9-4.4l0.6-0.6l42.7-14.1v-25.3l2.9-0.8c114.3-32.5,243-32.5,353,0l2.9,0.8v24.5l45.9,15.6l-0.3,3.1
			c-0.6,6.2-6.3,12.9-18.8,22.1c8.6,9.7,14.8,20.7,18.7,33.4l2.1,6.8l-98.9-25.4l-0.4-16.9c-76.9-15.6-162.1-16.8-253.3-3.7
			l-1.4,17.7L94,653.6z M455.2,621.9l78.8,20.3c-4-10-9.8-18.8-17.5-26.7l-3.3-3.4l3.9-2.7c11.2-7.9,16.1-12.9,18.1-16.1l-44.6-15.2
			v-24.2c-107-31-231.6-31-342.8,0V579l-44.2,14.5c2,2.4,6.3,6.2,9.1,8.7c3.4,3,7,6.1,9.3,8.8l1.9,2.2l-1.4,2.5
			c-2.3,4-5.1,7.9-7.8,11.6c-3.6,5-7.1,9.8-9.4,14.7l79.4-22.8l1.5-18.6l3.2-0.5c94.5-13.9,182.8-12.6,262.3,3.9l3.1,0.6
			L455.2,621.9z"/>
	</g>
	<g>
		<path class="st6" d="M472.8,618.5c5-0.8,9.8-1.7,14.3-3l-14.3-3v-3.6c7.5,1.7,14.8,3.6,21.8,5.6v-63.6c-7-2.1-14.3-4-21.8-5.8
			v-3.7c8.9,2,17.4,4.2,25.6,6.6v25.7c16.1,5.8,32.5,11.2,49.5,16.1c-6.8,9-16.8,14.8-23.8,23.8c7.7,13.5,16.6,25.8,23.8,40
			c-24.4-7.9-49-15.7-75.1-22v-3.5c23.6,5.5,46,12.1,67.5,19.7c-5.9-12.7-14-23.3-20.9-35.2c6.3-7.4,18.2-14,20.9-21.9
			c-14.7-3.4-26.5-9.6-41.8-12.3c-0.6,13,1.2,28.4-0.9,39.9c-8.6,1-17.6,1.8-24.7,2.8V618.5z M450.9,622.2
			c6.8-1.7,14.5-2.5,21.9-3.7v2.7c-7.4,1-13,2.2-14.3,3.9c4.8,0.9,9.5,2,14.3,3.1v3.5c-8.4-2-17-4-25.7-5.6v-18.1
			c-73.9-16-179.4-14.6-254.7-0.9v19c-8.8,1.6-17.4,3.5-25.7,5.5V628c4.8-1.3,9.6-2.6,14.3-3.9c-4.7-0.9-9.4-1.5-14.3-2.2v-3.5
			c7.3,1.2,14.4,2.7,21.9,3.8c-1.1-4.3,2.2-13-1.9-14.3c-6.1,2.1-13.2,3.2-20,4.6v-3.7c91.4-20.8,215.1-21,306.1,0.1v3.6l-21.9-4.6
			C450.6,611.6,450.7,619.1,450.9,622.2L450.9,622.2z M472.8,541.4v3.7C382.1,524,257.7,524,166.7,545v-3.7
			C258.3,520.4,381.2,520.4,472.8,541.4z M166.7,541.3v3.7c-7.8,1.8-15.5,3.7-22.8,5.9v63.6c7.3-2.1,15-4,22.8-5.8v3.7
			c-5,1-9.9,2.2-14.3,4c5,0.4,9.7,1.1,14.3,1.9v3.5c-8.7-1.3-17.5-2.5-25.6-4.5v-39c-15.5,2.5-27.1,9.1-41.8,12.3
			c1.7,8.9,15.8,13.2,19.9,22.8c-6,11.4-16.3,23.6-19.9,34.3c21-8.1,44.4-13.8,67.5-19.9v3.5c-26.4,6.4-50.9,14.5-76,22.1
			c8.3-13,15.6-26.9,24.7-39c-5.9-10.2-17.5-14.8-23.8-24.7c17.2-4.4,31.7-11.4,49.5-15.2V548C149.2,545.6,157.8,543.4,166.7,541.3z
			"/>
		<path d="M81.5,660.5l5.8-9.1c2.9-4.5,5.7-9.2,8.4-13.7c4.6-7.8,9.4-15.8,14.8-23.3c-2.6-3.6-6.2-6.5-9.9-9.6
			c-4.4-3.7-9-7.5-12.4-12.8l-3-4.7l5.3-1.4c7.5-1.9,14.7-4.4,21.7-6.9c7.9-2.7,16-5.6,24.8-7.7V545l2.9-0.8
			c102.2-30.2,256.9-30.2,359.7,0l2.9,0.8v25.9c16.8,6,32,10.9,46.6,15.1l5.6,1.6l-3.5,4.6c-3.7,4.9-8.2,8.8-12.5,12.6
			c-3.4,3-6.7,5.9-9.5,9.1c2.7,4.6,5.5,9.1,8.3,13.5c4.8,7.7,9.9,15.7,14.2,24.3l4.3,8.6l-9.1-3c-30.7-10-63.7-20.3-100.3-27.5
			l-3.2-0.6v-18.1c-68.4-14.2-168.7-14.5-246.7-0.8v12.4l2.6,0.5l-2.6,0.7v5.4l-3.3,0.6c-29.2,5.3-56,13.6-82,21.6
			c-6.3,1.9-12.8,4-19.3,5.9L81.5,660.5z M475.8,624.8c19.1,4.5,37.7,9.8,56.3,16.1c-2.5-4.4-5.3-8.7-8.1-13.1
			c-2.7-4.2-5.5-8.5-8.1-13l-1.4-2.4l1.8-2.1c2.6-3.1,6-6,9.3-8.7c3.1-2.7,6.4-5.4,8.5-8c-4.8-1.3-9.3-2.9-13.7-4.5
			c-6-2.1-11.8-4.1-18.1-5.6c0,3.4,0.1,6.9,0.1,10.4c0.2,7.1,0.3,14.4-0.4,20.9l1.3,0.3l-1.4,0.4c-0.2,1.3-0.3,2.6-0.6,3.8l-0.5,2.9
			l-2.9,0.3c-2.9,0.3-5.8,0.6-8.6,0.9C485.1,623.7,480.3,624.2,475.8,624.8z M104.9,593.5c1.6,1.9,3.9,3.8,6.4,5.8
			c4.3,3.4,9.1,7.3,11.5,12.8l0.7,1.7l-0.9,1.7c-2.5,4.8-5.7,9.7-8.9,14.4c-2.4,3.6-4.8,7.3-6.9,10.9c15.6-5.4,32.4-9.8,48.6-14
			c2-0.5,4-1,6-1.6c-7.3-1.1-14.6-2.3-21.5-3.9l-3.1-0.7v-1.3l-1.7-0.1l1.7-0.7v-35.2c-6.2,1.4-11.9,3.4-17.8,5.5
			C114.6,590.5,109.9,592.1,104.9,593.5z M172.9,615.4c0.9,0.2,1.8,0.3,2.7,0.5c2.9,0.5,5.8,1.1,8.8,1.6c0-0.6,0.1-1.1,0.2-1.7
			c0.1-0.9,0.2-2.1,0.2-3.1C180.9,613.8,176.9,614.6,172.9,615.4z M454.7,612.8c0,1.5,0,3,0,4.5c3.9-0.7,7.9-1.3,11.9-1.9
			c0.1,0,0.1,0,0.2,0L454.7,612.8z M147.8,553.9v55.4c99.4-27,244.4-27,342.8,0v-55.4c-46.9-13.3-107.5-20.6-171-20.6
			c-0.1,0-0.2,0-0.4,0C255.8,533.3,195.1,540.6,147.8,553.9z"/>
	</g>
	<path class="st6" d="M298.6,254.7c-9.6,2.5-17.1,7.3-24.4,12.2c4.7,2.2,15.1-0.8,17.4,1.7h-4.3c-7.6,1.1-15.2,2.2-22.7,3.5
		C273.4,263.8,282,255.3,298.6,254.7z"/>
	<path class="st6" d="M390,271.3c9.3,1.7,21.2,8.4,21.7,21.8c-13.6-5.8-23.5-15.4-41.8-16.6c10.5-4.7,22.2,2.2,30.5,5.2
		C399.2,276.1,394.4,273.8,390,271.3z"/>
	<path class="st6" d="M420.5,324.4c-3.8,14.8-33.7,19.7-56.6,17.4c9.6-1.4,17.8-7,14.8-18.3c-4.5,0.2-5.2,6.8-11.3,7
		c-10.7,0.4-13.9-14.9-1.7-17.4c-10.3-5.6-20.8,2-18.3,14.8c-6.6-18.1-35.4-14-48.7-25.3c11.8,5.9,25.1-0.6,38.3-2.6
		c35.5-5.4,38.4,34.6,74.9,28.7C415.3,328.2,417.8,327.3,420.5,324.4z"/>
	<path class="st6" d="M440.6,300.9c1.6-2.2,0.6,5.7,0.9,7.8C439.8,310.9,440.8,303,440.6,300.9z"/>
	<path class="st6" d="M233.3,466.4c-5.4,0.6-2.7,9.5-5.3,13c-8.1-11.4-11.5-27.4-15.7-42.7c-10,5.7-13.5,17.8-20,27
		c-1.4-22.1-4.9-52,4.4-67.8c-8.6,1.3-12.7,14.5-15.7,24.3c-2.6-17.4-0.1-37.2,5.2-49.6c-5.1,1.5-9.4,11.4-15.6,14.8
		c2.7-6.6,3.6-14.9,6.9-20.9c-3-1.8-5.7,4.1-9.6,4.3c4.5-21.3,14.3-37.3,26.1-51.3c-6.1,2.2-12.5,4.4-20,5.2
		c7.6-10.4,15.6-20.4,25.3-28.7c-0.6-0.9-2-0.9-1.7-2.6c11.4-15,24.4-28.5,44.4-34.8c-12.7-2-24-0.1-37.5-0.9
		c28.7-15.6,65.2-25.5,107.1-25.2c-5.2-3-11.7-4.7-18.2-6.1c19.3-6.6,39.9,1.8,57.4,9.6c34,15,83.2,26.8,89.8,65.3
		c-9.1-31.6-37.4-40.6-68.8-52.3c-17.8-6.6-35.1-15.6-52.3-19.2c1.4,2.4,7.3,7.8,10.4,11.4c-2.6,2.2-6.9-1.2-10.4-0.9
		c-2.5,1.7,8,6,3.5,7c-23-12.2-62.4-6.2-84.5,2.7c11.6,1.4,23,3,29.7,9.6c-22.8,2.5-39.5,11-52.3,23.5c9.6-1.2,19.1-2.4,29.6-2.6
		c-19.4,7.6-39.5,14.5-50.5,30.5c6.5-2.6,14-4.1,23.5-3.5c-15.4,12.2-29.2,26-37.4,45.3c5.4-2.1,10.7-4.3,17.4-5.2
		c-4,5.3-8.7,9.9-12.2,15.7c4.5-1.6,9.7-2.5,14.8-3.5c-6.9,10.2-13,21.3-14.8,36.6c4.3-0.6,10.4-7.1,17.4-7.8
		c-3.5,16.7-12.7,38.2-7.8,63.6c4.9-7.3,9.6-14.9,19.2-17.4c1.7,15.9,7.8,27.6,11.3,41.8c3-3.2,1.6-10.7,7.8-10.5
		c2.7,9.8,3.8,21.2,11.3,26.1C240.5,491.1,235.1,474.7,233.3,466.4z"/>
	<path class="st6" d="M242,311.4c12,1,24.9,1.2,30.5,8.7c-10.9-4.9-33.7-5-49.6-1.7c12.3-11.6,38.9-22,64.4-16.6
		c2.5,0.5,8.6,1.4,6.1,1.7C272.4,302.4,256.5,306.2,242,311.4z"/>
	<path class="st6" d="M220.2,354.9c13.8-7.2,32-9.8,48-14.8c-6.9,5.9-16.3,9.3-22.7,15.7c3.2-1.4,7.8-1.4,11.3-2.6
		c0.6,4.8-9.5,10-14.8,14.8c-6,5.4-11.2,12.2-15.7,17.4c17.4-4.3,38.7-12.4,61-14.8c-18.5,9.6-36.2,20.2-48,36.6
		c4.5-10.7,17.1-20.7,27.1-28.7c-18.9,4.6-36.1,10.9-52.3,18.3c3.7-12.8,16.9-23.8,26.1-34c-4.2,0.5-8.1,1.2-13.1,0.9
		c4.3-4.5,9.6-7.8,14-12.2c-11.9,2.4-19.7,8.8-33.1,9.6c13.3-11.9,23.9-22.7,38.3-29.7c13-6.2-5.1,5.2-8.7,7.8
		C230.8,344.3,224.3,348.9,220.2,354.9z"/>
	<path class="st6" d="M434.4,340.1c1.2-3.6,8.9-4.9,9.6,0c-3,4.5-19.1,12.5-8.7,3.5C435.2,342.2,435.7,340.2,434.4,340.1z"/>
	<path class="st6" d="M299.4,449.6c-3.8,11.4-9.9,32.2-6.9,50.5c-5.2-0.1-5.4-5-8.7-7c-4.1,6.6-4.8,16.7-6,26.1
		c-3.5-3.5-7.1-6.9-8.7-12.2c-5.3,3.4-3.5,15.8-2.7,22.7c-7.8-7.6-17.6-22.3-16.5-33.1c1.8,10.1,6.4,17.4,12.2,23.5
		c0.1-9.1,2-16.6,7.8-20c0.5,4.4,3.2,6.7,4.3,10.4c3.2-7.9,4.1-18,8.7-24.4c2.8,1.2,3.9,4.2,5.3,7
		C289.9,476.5,292.5,460.8,299.4,449.6z"/>
	<g>
		<path class="st6" d="M173.8,374.9c-5.4,12,1.2,115.1,8,112.8c9.6-3.3,13-48.6,8.4,7.8c-1.6,19.4,6.8-2.2,14-9.3
			c6.8-6.9-13.8,62.3,1.5,49.2c10.3-8.7,23.7-30.8,23.7,0c0,0.9,2.8-8.1,0.9-18.6c-2.5-13.4-23.7,14.6-25.8,16.8
			c0,0,0.9-15,1.9-15.8c3.7-3.7,1.2-26.5,2.5-32.4c3-13.5-14.5,6.6-16.5,10.7c-1.2,2.5,0.1-4.7,0.5-10.3c0.2-3.7,0-14.2,0-18.8
			c0-6.6-12.2,14.5-12,14.3c1.7-3.7,0.3-29.9-0.6-34.1C175.7,426.8,180.9,376.7,173.8,374.9z"/>
		<path d="M202.6,537c-0.3,0-0.6-0.1-0.9-0.2c-3.7-2.1-0.8-19.2,1.6-32.9c1.6-9,3.1-17.6,1.9-18.2c-0.2-0.1-0.6,0.2-0.8,0.4
			c-2.4,2.4-4.9,6.3-7.1,9.8c-2.8,4.4-5,7.8-6.3,7.4c-1-0.3-1.2-2.9-0.8-8l0.3-4.2c1.3-16.1,1.9-23,1.6-23.7
			c-0.2,0.3-0.7,1.7-1.1,3.3c-1.7,5.4-4.7,15.5-9.1,17c-0.4,0.1-0.7,0-1.1-0.4c-3.3-3.7-6.4-30.1-7.9-54.6
			c-1.5-24.5-1.8-51.9,0.9-57.9l0-0.1l0.1,0c4.1,1.1,4.2,16.8,4.3,34.9c0.1,14,0.2,28.4,2.2,37.2c0.9,4,2.2,27.5,0.9,33.3
			c3.5-5.8,9.1-14.8,11.1-14.8c0.1,0,0.1,0,0.1,0c0.4,0.1,0.6,0.5,0.6,1.4c0,1.4,0,3.3,0,5.4c0,4.8,0.1,10.8,0,13.4
			c-0.1,2-0.4,4.2-0.6,6.1c-0.2,2-0.5,4.1-0.4,4.5c0,0,0.1-0.2,0.2-0.4c1.5-3.1,12.7-16.4,16.1-15.2c1,0.3,1.2,1.9,0.6,4.6
			c-0.5,2.2-0.5,7-0.4,12.1c0.1,8.4,0.2,18-2.1,20.4c-0.7,0.7-1.5,11.1-1.8,15.5c0.4-0.4,0.9-1.1,1.7-2c4.9-5.8,16.3-19.5,21.6-18.1
			c1.3,0.3,2.1,1.5,2.5,3.6c1.8,10.1-0.6,18.6-0.9,18.8l-0.1,0l-0.1,0c-0.1,0-0.1-0.1-0.1-0.2c0-9.4-1.2-14.5-3.8-15.5
			c-3.2-1.3-8.2,4-13.1,9.1c-2.2,2.3-4.5,4.7-6.7,6.6C204.5,536.5,203.4,537,202.6,537z M205.1,485.5c0.1,0,0.2,0,0.2,0.1
			c1.2,0.6,0.1,7.4-1.8,18.4c-2.4,13.6-5.3,30.6-1.7,32.6c0.9,0.5,2.2,0,3.9-1.4c2.1-1.8,4.4-4.2,6.6-6.5c5.1-5.4,10-10.5,13.3-9.1
			c2.6,1,3.9,6.1,3.9,15.3c0.6-1.8,2.3-9.3,0.7-18.2c-0.4-2-1.2-3.1-2.4-3.4c-5.2-1.4-17,12.7-21.4,18c-0.9,1.1-1.6,1.9-1.9,2.2
			l-0.2,0.2l0-0.3c0.1-1.5,1-15,1.9-15.9c2.3-2.3,2.2-11.8,2.1-20.2c-0.1-5.1-0.1-9.9,0.4-12.1c0.6-2.6,0.4-4.1-0.4-4.4
			c-3.2-1.1-14.4,12.1-15.8,15.1c-0.2,0.5-0.3,0.6-0.5,0.6c-0.3-0.1-0.2-1,0.2-4.8c0.2-1.9,0.5-4.1,0.6-6.1c0.2-2.6,0.1-8.6,0-13.4
			c0-2.1,0-4,0-5.4c0-0.5-0.1-1.1-0.4-1.1c-1.2-0.3-5.4,5.3-11.3,15.2c-0.1,0.1-0.1,0.2-0.2,0.3c0,0,0,0,0,0l0,0
			c-0.1,0.1-0.1,0.1-0.1,0.1l-0.1,0l0-0.1c1.7-3.7,0.3-29.9-0.7-34.1c-2-8.8-2.1-23.2-2.2-37.2c-0.1-17.2-0.3-33.4-4.1-34.7
			c-1.9,4.4-2.9,23.9-0.8,57.7c1.5,24.5,4.5,50.9,7.8,54.5c0.3,0.3,0.6,0.4,0.9,0.4c4.3-1.5,7.3-11.5,9-16.9
			c0.9-2.9,1.1-3.5,1.4-3.5c0.5,0.1,0.2,3.5-1.4,24l-0.3,4.2c-0.4,4.9-0.2,7.5,0.7,7.7c1.1,0.4,3.5-3.3,6-7.3
			c2.2-3.5,4.8-7.5,7.2-9.8C204.5,485.7,204.8,485.5,205.1,485.5z"/>
	</g>
	<path d="M258.7,584.7l-1.9-6.2l-5.7,0.4v-7.4l3.3-0.2l-3.1-9.1c-0.1-0.2-0.1-0.5-0.2-0.7v-10.6l5.3-0.4l13.5,33.4L258.7,584.7
		L258.7,584.7z M251.1,547.5V540l7.8-0.6L251.1,547.5z M251.1,579l-4.5,0.3l-1.2,6.4l-11.2,0.8l9.4-35.1l7.5-0.5v10.6
		c-0.3-1.1-0.6-2.1-0.7-3h-0.2c0,0.4-0.1,1-0.2,1.9c-0.1,0.9-0.9,4.8-2.1,11.5l3.2-0.3V579L251.1,579z M251.1,540v7.5l-0.2,0.2
		l-7.2,0.5l6.6-8.1L251.1,540z"/>
	<path d="M306.1,565.5c0.1,5.3-1.4,9.8-4.8,13.3l9.4,8.4l-13,0.4l-4.5-4.2c-1.3,0.3-2.6,0.5-4,0.5c-0.1,0.1-0.3,0.1-0.4,0.1v-8.9
		c0.1,0,0.2,0,0.4,0c1.9-0.1,3.3-0.9,4.5-2.5c1.1-1.7,1.6-3.7,1.4-6.4c-0.1-2.9-0.7-5-1.8-6.6c-1.2-1.6-2.7-2.4-4.5-2.3v-8.8
		c3.2-0.1,6,0.5,8.6,1.9c2.6,1.4,4.7,3.4,6.2,6C305.1,559,305.9,562.1,306.1,565.5z M288.9,584c-3.1,0-5.8-0.6-8.4-1.9
		c-2.7-1.4-4.8-3.3-6.4-5.9c-1.5-2.6-2.4-5.5-2.5-8.9c-0.1-3.5,0.6-6.7,1.9-9.5c1.4-2.9,3.4-5.1,6-6.7c2.6-1.7,5.6-2.5,9-2.6h0.4
		v8.8h-0.1c-2,0.1-3.6,0.9-4.7,2.5c-1.1,1.6-1.6,3.8-1.5,6.7c0.1,2.7,0.7,4.9,1.9,6.5c1.2,1.4,2.6,2.1,4.4,2.2V584z"/>
	<path d="M341.5,566.9c0,5.5-1.2,9.6-3.7,12.2c-2.5,2.7-6.4,4-11.7,4c-4.9,0-8.6-1.3-11.2-4c-2.5-2.7-3.7-6.7-3.7-12v-18.9h10.4
		v19.2c0,2.2,0.4,3.9,1.2,5.1c0.9,1.2,2,1.7,3.5,1.7c1.6,0,2.7-0.5,3.5-1.7c0.9-1.1,1.2-2.7,1.2-5v-19.4h10.4V566.9z"/>
	<polygon points="347.9,583.2 349,548.9 359.4,549.2 358.2,583.5 	"/>
	<polygon points="365,583.7 366.8,549.5 377.1,550 375.8,576.2 387.6,576.8 387.1,584.9 	"/>
	<path d="M412.9,588.1l-0.8-6.5l-4.4-0.4v-7.4l3.2,0.4l-1.4-9.5c-0.1-1.4-0.3-2.7-0.3-4H409c-0.1,0.4-0.2,1-0.5,1.9
		c-0.1,0.3-0.4,1.1-0.8,2.2v-11.7l8.9,0.9l7.5,35.3L412.9,588.1z M407.7,581.2l-5.8-0.6l-2.3,6.1l-11.1-1.2l15.3-32.9l3.9,0.4v11.7
		c-0.7,1.8-1.8,4.8-3.3,8.6l3.3,0.4V581.2z"/>
</g>
</svg>
