<?xml version="1.0" encoding="utf-8"?>
<!-- Generator: Adobe Illustrator 21.0.2, SVG Export Plug-In . SVG Version: 6.00 Build 0)  -->
<svg version="1.1" id="Camada_1" xmlns="http://www.w3.org/2000/svg" xmlns:xlink="http://www.w3.org/1999/xlink" x="0px" y="0px"
	 viewBox="0 0 595 842" style="enable-background:new 0 0 595 842;" xml:space="preserve">
<style type="text/css">
	.st0{fill-rule:evenodd;clip-rule:evenodd;fill:#C33739;}
	.st1{fill-rule:evenodd;clip-rule:evenodd;fill:#D78F68;}
	.st2{fill-rule:evenodd;clip-rule:evenodd;fill:#FFFFFF;}
	.st3{fill-rule:evenodd;clip-rule:evenodd;fill:#BF9262;}
	.st4{fill-rule:evenodd;clip-rule:evenodd;fill:#F1CF00;}
	.st5{fill-rule:evenodd;clip-rule:evenodd;fill:#FEF48A;}
	.st6{fill-rule:evenodd;clip-rule:evenodd;}
</style>
<g>
	<path class="st0" d="M320.3,193.3c-133.6,0-241.9,104.2-241.9,232.5c0,128.4,108.4,232.6,241.9,232.6s241.8-104.2,241.8-232.6
		C562.2,297.5,453.9,193.3,320.3,193.3z"/>
	<path d="M74.4,425.8c0-130.4,110.3-236.5,245.9-236.5c135.6,0,245.8,106.1,245.8,236.5c0,130.4-110.3,236.6-245.8,236.6
		C184.7,662.3,74.4,556.2,74.4,425.8z M82.4,425.8c0,126,106.7,228.6,237.9,228.6c131.1,0,237.8-102.5,237.8-228.6
		c0-126-106.7-228.5-237.8-228.5C189.1,197.3,82.4,299.8,82.4,425.8z"/>
</g>
<path class="st1" d="M320.3,215.9c-120.6,0-218.4,94-218.4,209.9c0,115.9,97.8,210,218.4,210c120.5,0,218.4-94,218.4-210
	C538.7,309.9,440.8,215.9,320.3,215.9z"/>
<path class="st0" d="M320.3,595c-97,0-176-76-176-169.3c0-93.2,79.1-169.2,176-169.2c96.9,0,176,76,176,169.2
	C496.4,519,417.2,595,320.3,595z"/>
<g>
	<path class="st2" d="M320.3,267.6c-90.9,0-164.6,70.8-164.6,158.2c0,87.4,73.7,158.3,164.6,158.3s164.6-70.8,164.6-158.3
		C484.9,338.4,411.2,267.6,320.3,267.6z"/>
	<path d="M256.2,571.7c-19.6-8-37.2-19.4-52.4-33.9c-15.1-14.5-27-31.5-35.3-50.3c-8.6-19.5-12.9-40.3-12.9-61.6
		c0-21.4,4.4-42.1,12.9-61.6c8.3-18.8,20.2-35.8,35.3-50.3c15.1-14.5,32.7-26,52.4-33.9c20.3-8.3,41.9-12.4,64.1-12.4
		s43.8,4.2,64.1,12.4c19.6,8,37.2,19.4,52.4,33.9c15.1,14.5,27,31.5,35.3,50.3c8.6,19.5,12.9,40.2,12.9,61.6
		c0,21.4-4.4,42.1-12.9,61.6c-8.3,18.9-20.2,35.8-35.3,50.3c-15.1,14.5-32.7,26-52.4,33.9c-20.3,8.3-41.9,12.4-64.1,12.4
		S276.5,579.9,256.2,571.7z M256.3,280.1c-19.6,8-37.2,19.4-52.3,33.9c-15.1,14.5-27,31.4-35.3,50.2c-8.6,19.5-12.9,40.2-12.9,61.5
		c0,21.3,4.4,42.1,12.9,61.6c8.3,18.8,20.1,35.7,35.3,50.3c15.1,14.5,32.7,25.9,52.3,33.9c20.3,8.2,41.8,12.4,64,12.4
		s43.7-4.2,64-12.4c19.6-8,37.2-19.4,52.3-33.9c15.1-14.5,27-31.4,35.3-50.3c8.6-19.5,12.9-40.2,12.9-61.6c0-21.3-4.4-42-12.9-61.5
		c-8.3-18.8-20.1-35.7-35.3-50.2c-15.1-14.5-32.7-25.9-52.3-33.9c-20.3-8.2-41.8-12.4-64-12.4S276.6,271.9,256.3,280.1z"/>
</g>
<path class="st3" d="M422.2,305.3c38.5,32.2,46.9,55.9,44.4,92.7c-1.4,22.2-3,45.9-3,67.3c0,36-13.8-14.5-13.8,9.9
	c0,41.4,1.6,20.7-16.1,7.7c-10.7-8.4,26.1,94.2-9.9,39.8c-16.1-23.8-9.1,27.4-14.6,10.7c-1.5-4.8-133.6-10.3-137.4-6.3
	c-8.3,8.6-31.8-43.3-33.3-36.4c-8.4,36,7.8,42.6-12.2,9c-3.7-6.2-2.3-26.1-0.8-33c0.8-5.3-7.6,20.7-10.7,13.8
	c-2.3-5.4,0.8-27.6-3.8-13.8c-6.1,18.4-9.9,40-16.8,3.9c-8.6-45.2,12.4-43.9,33.7-71.9c22.2-29.2-20.7-42.9-39.8-23.8
	c-9.9,9.9-5.5,21.2-9.1,19.7c-31.2-12.5-26.5-106.9,91-151.5c11.3-4.3,45.2-19.9,52.8-19.9c6.1,0-0.7,11-1.6,14.8
	c-0.6,3.1,58.1-3.9,72,2.8c6.8,3.2,24.5,4.6,11.5,7.6c-4.6,0.8-17.6,10-17.6,10c6.1-6.1,38.3,16.1,43.6,21.5
	c20.7,20.7,10.7,10.7,2.3,10.7c0,0,6.9,7.6,7.7,7.6c14.5,11.4,20.8,17.1,1.5,9.9C434.8,305.6,423.5,308.2,422.2,305.3z"/>
<g>
	<path class="st4" d="M292.2,363.3c-5-11.6,2.5-15.9-17.1-14.5c-58.1,4.1-63.2-3.1-61.6-63c0.3-8.4,7.6-14.2-3.5-7
		c-18.3,12.2-30.2,40.1-41.5,57.2c-9.9,14.8-6.1,30-1.2,44.7c1.2,3.8,5.5,12.2,9,14.5c0,0,7.6-17.3,10.4-20.9
		c9.9-12.7,45.5-2.7,54.3-3c9.9-0.3,20.3-1.4,29.3-1.4c3.5,0,8.7-2.3,11.6-3.2C283.2,366.5,292.2,363.6,292.2,363.3z"/>
	<path d="M176.3,395.3c-3.5-2.4-7.8-10.8-9-14.6c-4.8-14.5-8.7-29.9,1.2-44.8c3-4.6,6.1-9.9,9.3-15.5c8.8-15.3,18.8-32.7,32.2-41.7
		c4.4-2.9,5.7-3.5,6.1-3.2c0.3,0.3,0,1-0.5,2.4c-0.7,1.9-1.8,4.7-2,7.8c-0.9,31.3,0.3,47.7,9,56.1c4.1,3.9,10.1,6.2,18.8,7.2
		c7.7,0.8,17.8,0.7,33.7-0.4c14.1-1,14.3,1,15.1,6.3c0.3,2.2,0.7,4.9,2.1,8.3l0,0c0,0.5-10.2,3.6-10.3,3.6c-0.8,0.2-1.7,0.6-2.7,0.9
		c-2.8,1-6.3,2.3-8.9,2.3c-5,0-10.4,0.4-16.2,0.7c-4.3,0.3-8.8,0.6-13.1,0.7c-2.2,0.1-6-0.5-10.9-1.2c-14.3-2.1-36-5.3-43.3,4.1
		c-2.8,3.5-10.3,20.7-10.4,20.9l-0.1,0.1L176.3,395.3z M230.2,370.1c4.8,0.7,8.6,1.3,10.8,1.2c4.3-0.1,8.8-0.4,13.1-0.7
		c5.7-0.4,11.1-0.7,16.2-0.7c2.6,0,6.1-1.2,8.9-2.2c1-0.4,1.9-0.7,2.7-0.9c1.2-0.3,9.4-3,10.1-3.4c-1.4-3.3-1.8-6.1-2.1-8.2
		c-0.8-5.3-1-7.1-14.9-6.1c-15.9,1.1-26,1.2-33.7,0.4c-8.7-1-14.7-3.3-18.9-7.2c-8.8-8.4-9.9-24.9-9.1-56.3c0.1-3.2,1.2-6,2-7.9
		c0.4-1.1,0.8-2,0.6-2.2c-0.4-0.3-3,1.3-5.8,3.2c-13.4,8.9-23.3,26.3-32.1,41.6c-3.2,5.6-6.3,11-9.3,15.5c-9.9,14.8-6,30.2-1.2,44.6
		c1.2,3.7,5.4,12,8.9,14.4c0.7-1.5,7.7-17.4,10.4-20.8c3.9-5,11.6-6.5,20.2-6.5C214.8,367.8,223.3,369.1,230.2,370.1z"/>
</g>
<g>
	<path class="st5" d="M287.8,310.8c5.8,0,7.3,9,7.3,13c0,14.5-33.4,21.5-33.4,11.9c0-3.2-1.7-6.9-1.7-11c0-1.7,14.5-11.6,16.6-12.2
		c2-0.6,6.4-2,8.4-2.9C287.8,308.2,292.5,310.2,287.8,310.8z"/>
	<path d="M263.8,339.1c-1.5-0.8-2.3-1.9-2.3-3.4c0-1.5-0.4-3.1-0.8-4.8c-0.5-2-1-4-1-6.2c0-1.1,5.3-5,7.6-6.6c4-2.8,8.1-5.4,9.1-5.7
		c2-0.6,6.4-2,8.4-2.9c1.7-0.8,4.1-0.5,4.8,0.1c0.2,0.2,0.2,0.4,0.2,0.5c-0.1,0.3-0.5,0.5-1.2,0.7c5.3,0.9,6.5,9.6,6.5,13.1
		c0,9.9-15.4,16.4-25.6,16.4C267.2,340.2,265.2,339.8,263.8,339.1z M284.9,309.7c-2,0.9-6.4,2.3-8.4,2.9c-1,0.3-5,2.8-9,5.6
		c-4.6,3.3-7.5,5.7-7.5,6.4c0,2.2,0.5,4.2,0.9,6.2c0.4,1.7,0.8,3.3,0.8,4.8c0,1.4,0.7,2.5,2.2,3.3c1.4,0.7,3.3,1.1,5.7,1.1
		c10.1,0,25.3-6.5,25.3-16.2c0-3.6-1.3-12.9-7.2-12.9l0-0.2c1.6-0.2,1.9-0.5,1.9-0.6c0-0.1,0-0.2-0.1-0.3c-0.3-0.3-1.2-0.5-2.3-0.5
		C286.5,309.2,285.7,309.4,284.9,309.7z"/>
</g>
<path class="st6" d="M214,278.4c-5.6,34.3-12.2,79.4,51.8,72.1c6.6-0.6,25.2-2.1,25.3,6.9c0.1,13-39.4,12.9-51.4,8.7
	c10.9-1.5,23.8-1.2,31.4-6c-30.3,7.8-91.2-7.5-91.5,33.1c3.2-15.5,12.6-26.6,31.4-24.4c14.8,1.7,23.1,15.5,13,29.6
	c-6,8.4-16.1,15.8-22.6,26.9c-11.2,19.1-18.4,53.9-0.9,72.4c2.4-10.9,4.5-22.2,11.3-28.8c-0.9,11.7,1.4,20.2,3.5,28.8
	c2.7-4.6,3.2-11.4,5.3-16.6c2.3,29.7,15.4,48.5,29.6,66.2c-2.8-13.2-11.5-32.5-6.9-53.1c12.4,23.9,27.1,45.4,56.6,52.3
	c-5.6-10.9-11.3-21.8-14.8-34.8c3.2-0.8,5.3,6.9,10.5,7c0.1-3.6,0.1-7.1-0.9-9.6c-2-1.6,1,4.8,0,7.8c-6-2.7-8.1-9.3-11.3-14.8
	c-2.2,14.1,4.8,26.6,8.7,37.4c-26.3-8.9-35.9-34.3-48.7-56.6c-6.6,6.4-8.3,21.6-6.1,34c-9.1-12.7-11.1-32.5-10.4-54.9
	c-4.3,2.2-5.9,7-9.6,9.6c0.1-6,0-11.7-0.9-16.6c-7.8,8.1-14.6,17.3-17.4,30.5c-12.7-25.2,2.1-60.4,16.6-74.8
	c-3.5,6.6-8,12.2-9.6,20.8c6.4-8.7,10.4-19.8,19.2-26.1c-2.3,5.3-5.3,14.3-2.6,21.7c3-7.7,5.3-16.1,8.7-23.4
	c-2.4,14.4-3.1,39.3,5.3,50.5c1.4-13.7-2.3-35.4,2.6-47.9c4,8.9,2.9,22.6,11.3,26.9c0.6-10.7-2.4-21.4,0-31.2
	c10.4,14.8,12.9,37.6,18.3,57.4c1.9-19.6-0.7-42.1-7.8-55.7c7.6,4.9,11.2,21.2,16.5,31.2c4.5-8.4-1.9-18.9-3.5-26.9
	c9.6,13.6,16.1,30.4,18.3,51.3c3.7-5,1.9-15.6,3.5-22.6c10.7,10.4,13.5,28.8,20,43.6c-3.2-47.2-19.2-88.8-54-107.1
	c14.1,1.5,43-9.3,30.5-22.6c-10.3-11-50.8,2.7-68-8.7c-11-7.4-5.3-51.6-4.7-73.8c-18.1,14.3-59.9,55.1-58.9,87.7
	c-0.1,11.3,6,26.9,12.2,34.8c1.2,1.5,5.3,8.7,7,3.5c-0.9,0-0.6,1-0.9,1.7c-9.4-11.4-17.1-25.8-14.8-44.4
	C166.9,326.3,200.3,291.8,214,278.4z"/>
<g>
	<path class="st2" d="M541.4,647.9L452,622.2l-1.4-18.1c-94.8-14-181.7-12.6-260.9,3.9l-0.4,17.1l-89,22.9c4.6-15,12-26.1,20.9-35.2
		c-11.7-8.2-20.3-15.8-20.9-21.9l45.6-15.6v-24.3c104-30.7,231.8-33.8,350.8,0v25.2l44.6,14.7c4,3.7-13.3,15.3-19.9,22.8
		C528,625.1,538.8,635.4,541.4,647.9z"/>
	<path d="M448.2,625.3l-1.4-17.7c-91.2-13.1-176.3-11.9-253.3,3.7l-0.4,16.9l-98.9,25.4l2.1-6.8c3.9-12.7,10-23.7,18.7-33.4
		c-12.6-9.2-18.3-15.9-18.8-22.1L96,588l45.9-15.6v-24.5l2.9-0.8c110-32.5,238.7-32.5,353,0l2.9,0.8v25.3l42.7,14.1l0.6,0.6
		c1.2,1.1,1.9,2.7,1.9,4.4c0,4.5-4.7,8.8-13,16c-2.3,2-4.7,4.1-6.6,5.9c1.8,2.8,3.8,5.5,5.8,8.4c5.5,7.6,11.2,15.4,13,24.6l1.3,6.5
		L448.2,625.3z M185.7,604.7l3.1-0.6c79.5-16.5,167.8-17.9,262.3-3.9l3.2,0.5l1.5,18.6l79.4,22.8c-2.3-4.9-5.8-9.7-9.4-14.7
		c-2.7-3.7-5.5-7.6-7.8-11.6l-1.4-2.5l1.9-2.2c2.4-2.7,5.9-5.8,9.3-8.8c2.8-2.5,7.1-6.2,9.1-8.7L492.7,579v-25.1
		c-111.2-31-235.7-31-342.8,0v24.2l-44.6,15.2c1.9,3.2,6.9,8.3,18.1,16.1l3.9,2.7l-3.3,3.4c-7.7,7.9-13.5,16.7-17.5,26.7l78.8-20.3
		L185.7,604.7z"/>
</g>
<g>
	<path class="st6" d="M167.8,621.2c-7.1-1-16.1-1.8-24.7-2.8c-2.2-11.4-0.4-26.9-0.9-39.9c-15.3,2.7-27.1,8.9-41.8,12.3
		c2.7,7.8,14.6,14.5,20.9,21.9c-6.8,11.9-15,22.5-20.9,35.2c21.5-7.6,43.8-14.3,67.5-19.7v3.5c-26.1,6.3-50.7,14-75.1,22
		c7.1-14.1,16.1-26.4,23.8-40c-6.9-8.9-16.9-14.8-23.8-23.8c17-4.9,33.4-10.4,49.5-16.1V548c8.2-2.4,16.8-4.6,25.6-6.6v3.7
		c-7.5,1.8-14.8,3.7-21.8,5.8v63.6c7-2,14.3-3.9,21.8-5.6v3.6l-14.3,3c4.5,1.3,9.3,2.2,14.3,3V621.2z M189.6,622.2
		c0.2-3.1,0.4-10.6,0-14.3l-21.9,4.6v-3.6c91.1-21.1,214.8-21,306.1-0.1v3.7c-6.8-1.4-13.9-2.5-20-4.6c-4.1,1.2-0.8,9.9-1.9,14.3
		c7.5-1.1,14.5-2.6,21.9-3.8v3.5c-4.8,0.7-9.6,1.4-14.3,2.2c4.7,1.3,9.4,2.6,14.3,3.9v3.5c-8.4-2-16.9-3.9-25.7-5.5v-19
		c-75.3-13.7-180.9-15-254.7,0.9V626c-8.7,1.7-17.3,3.6-25.7,5.6v-3.5c4.8-1.1,9.5-2.2,14.3-3.1c-1.3-1.7-6.8-2.9-14.3-3.9v-2.7
		C175.2,619.7,182.8,620.5,189.6,622.2L189.6,622.2z M473.9,541.3v3.7c-91-21-215.4-21-306.1,0.1v-3.7
		C259.4,520.4,382.3,520.4,473.9,541.3z M499.5,548v26.6c17.8,3.7,32.3,10.8,49.5,15.2c-6.3,9.9-17.9,14.5-23.8,24.7
		c9.1,12.1,16.4,26.1,24.7,39c-25.1-7.6-49.7-15.7-76-22.1V628c23,6,46.5,11.7,67.5,19.9c-3.6-10.7-14-22.8-19.9-34.3
		c4.1-9.6,18.3-14,19.9-22.8c-14.8-3.2-26.4-9.8-41.8-12.3v39c-8.1,1.9-16.9,3.2-25.6,4.5v-3.5c4.5-0.8,9.3-1.5,14.3-1.9
		c-4.3-1.8-9.2-3-14.3-4v-3.7c7.8,1.7,15.5,3.7,22.8,5.8v-63.6c-7.3-2.2-15-4.1-22.8-5.9v-3.7C482.8,543.4,491.3,545.6,499.5,548z"
		/>
	<path d="M548.8,657.4c-6.5-1.9-13-4-19.3-5.9c-26-8-52.8-16.3-82-21.6l-3.3-0.6v-5.4l-2.6-0.7l2.6-0.5v-12.4
		c-78-13.7-178.4-13.3-246.7,0.8v18.1l-3.2,0.6c-36.6,7.1-69.6,17.5-100.3,27.5l-9.1,3l4.3-8.6c4.3-8.6,9.3-16.5,14.2-24.3
		c2.8-4.4,5.6-8.9,8.3-13.5c-2.8-3.2-6.1-6.1-9.5-9.1c-4.3-3.8-8.8-7.7-12.5-12.6l-3.5-4.6l5.6-1.6c14.6-4.2,29.8-9.1,46.6-15.1V545
		l2.9-0.8c102.8-30.2,257.4-30.2,359.7,0l2.9,0.8v26.4c8.8,2.1,16.9,4.9,24.8,7.7c6.9,2.4,14.1,4.9,21.7,6.9l5.3,1.4l-3,4.7
		c-3.4,5.3-8,9.1-12.4,12.8c-3.7,3.1-7.2,6-9.9,9.6c5.4,7.4,10.2,15.5,14.8,23.3c2.7,4.6,5.5,9.3,8.4,13.7l5.8,9.1L548.8,657.4z
		 M151.2,623.3c-2.9-0.3-5.8-0.6-8.6-0.9l-2.9-0.3l-0.5-2.9c-0.2-1.2-0.4-2.5-0.6-3.8l-1.4-0.4l1.3-0.3c-0.7-6.5-0.5-13.8-0.4-20.9
		c0.1-3.4,0.2-7,0.1-10.4c-6.3,1.4-12.1,3.5-18.1,5.6c-4.4,1.5-8.9,3.1-13.7,4.5c2.2,2.6,5.4,5.4,8.5,8c3.3,2.8,6.7,5.6,9.3,8.7
		l1.8,2.1l-1.4,2.4c-2.6,4.5-5.4,8.8-8.1,13c-2.8,4.4-5.6,8.7-8.1,13.1c18.6-6.3,37.2-11.6,56.3-16.1
		C160.3,624.2,155.5,623.7,151.2,623.3z M521.4,588.8c-5.9-2.1-11.6-4.1-17.8-5.5v35.2l1.7,0.7l-1.7,0.1v1.3l-3.1,0.7
		c-6.8,1.6-14.2,2.8-21.5,3.9c2,0.5,4,1,6,1.6c16.3,4.2,33,8.6,48.6,14c-2-3.6-4.5-7.2-6.9-10.9c-3.1-4.7-6.4-9.6-8.9-14.4l-0.9-1.7
		l0.7-1.7c2.4-5.5,7.2-9.4,11.5-12.8c2.5-2,4.8-3.8,6.4-5.8C530.6,592.1,525.9,590.5,521.4,588.8z M455.8,612.7c0,1,0.1,2.2,0.2,3.1
		c0.1,0.6,0.1,1.1,0.2,1.7c3-0.5,5.9-1.1,8.8-1.6c0.9-0.2,1.8-0.3,2.7-0.5C463.7,614.6,459.6,613.8,455.8,612.7z M173.8,615.4
		c0.1,0,0.1,0,0.2,0c3.9,0.6,8,1.2,11.9,1.9c0-1.5,0-3,0-4.5L173.8,615.4z M321.3,533.3c-0.1,0-0.2,0-0.4,0
		c-63.5,0-124,7.3-171,20.6v55.4c98.3-27,243.4-27,342.8,0v-55.4C445.5,540.6,384.7,533.3,321.3,533.3z"/>
</g>
<path class="st6" d="M342,254.7c9.6,2.5,17.1,7.3,24.4,12.2c-4.7,2.2-15.1-0.8-17.4,1.7h4.3c7.6,1.1,15.2,2.2,22.7,3.5
	C367.1,263.8,358.6,255.3,342,254.7z"/>
<path class="st6" d="M250.6,271.3c-9.3,1.7-21.2,8.4-21.7,21.8c13.6-5.8,23.5-15.4,41.8-16.6c-10.5-4.7-22.2,2.2-30.5,5.2
	C241.4,276.1,246.2,273.8,250.6,271.3z"/>
<path class="st6" d="M220.1,324.4c3.8,14.8,33.7,19.7,56.6,17.4c-9.6-1.4-17.8-7-14.8-18.3c4.5,0.2,5.2,6.8,11.3,7
	c10.7,0.4,13.9-14.9,1.7-17.4c10.3-5.6,20.8,2,18.3,14.8c6.6-18.1,35.4-14,48.7-25.3c-11.8,5.9-25.1-0.6-38.3-2.6
	c-35.5-5.4-38.4,34.6-74.9,28.7C225.3,328.2,222.8,327.3,220.1,324.4z"/>
<path class="st6" d="M200,300.9c-1.6-2.2-0.6,5.7-0.9,7.8C200.8,310.9,199.7,303,200,300.9z"/>
<path class="st6" d="M407.3,466.4c5.4,0.6,2.7,9.5,5.3,13c8.1-11.4,11.5-27.4,15.7-42.7c10,5.7,13.5,17.8,20,27
	c1.4-22.1,4.9-52-4.4-67.8c8.6,1.3,12.7,14.5,15.7,24.3c2.6-17.4,0.1-37.2-5.2-49.6c5.1,1.5,9.4,11.4,15.6,14.8
	c-2.7-6.6-3.6-14.9-6.9-20.9c3-1.8,5.7,4.1,9.6,4.3c-4.5-21.3-14.3-37.3-26.1-51.3c6.1,2.2,12.5,4.4,20,5.2
	c-7.6-10.4-15.6-20.4-25.3-28.7c0.6-0.9,2-0.9,1.7-2.6c-11.4-15-24.4-28.5-44.4-34.8c12.7-2,24-0.1,37.5-0.9
	c-28.7-15.6-65.2-25.5-107.1-25.2c5.2-3,11.7-4.7,18.2-6.1c-19.3-6.6-39.9,1.8-57.4,9.6c-34,15-83.2,26.8-89.8,65.3
	c9.1-31.6,37.4-40.6,68.8-52.3c17.8-6.6,35.1-15.6,52.3-19.2c-1.4,2.4-7.3,7.8-10.4,11.4c2.6,2.2,6.9-1.2,10.4-0.9
	c2.5,1.7-8,6-3.5,7c23-12.2,62.4-6.2,84.5,2.7c-11.6,1.4-23,3-29.7,9.6c22.8,2.5,39.5,11,52.3,23.5c-9.6-1.2-19.1-2.4-29.6-2.6
	c19.4,7.6,39.5,14.5,50.5,30.5c-6.5-2.6-14-4.1-23.5-3.5c15.4,12.2,29.2,26,37.4,45.3c-5.4-2.1-10.7-4.3-17.4-5.2
	c4,5.3,8.7,9.9,12.2,15.7c-4.5-1.6-9.7-2.5-14.8-3.5c6.9,10.2,13,21.3,14.8,36.6c-4.3-0.6-10.4-7.1-17.4-7.8
	c3.5,16.7,12.7,38.2,7.8,63.6c-4.9-7.3-9.6-14.9-19.2-17.4c-1.7,15.9-7.8,27.6-11.3,41.8c-3-3.2-1.6-10.7-7.8-10.5
	c-2.7,9.8-3.8,21.2-11.3,26.1C400.1,491.1,405.4,474.7,407.3,466.4z"/>
<path class="st6" d="M398.6,311.4c-12,1-24.9,1.2-30.5,8.7c10.9-4.9,33.7-5,49.6-1.7c-12.3-11.6-38.9-22-64.4-16.6
	c-2.5,0.5-8.6,1.4-6.1,1.7C368.1,302.4,384,306.2,398.6,311.4z"/>
<path class="st6" d="M420.4,354.9c-13.8-7.2-32-9.8-48-14.8c6.9,5.9,16.3,9.3,22.7,15.7c-3.2-1.4-7.8-1.4-11.3-2.6
	c-0.6,4.8,9.5,10,14.8,14.8c6,5.4,11.2,12.2,15.7,17.4c-17.4-4.3-38.7-12.4-61-14.8c18.5,9.6,36.2,20.2,48,36.6
	c-4.5-10.7-17.1-20.7-27.1-28.7c18.9,4.6,36.1,10.9,52.3,18.3c-3.7-12.8-16.9-23.8-26.1-34c4.2,0.5,8.1,1.2,13.1,0.9
	c-4.3-4.5-9.6-7.8-14-12.2c11.9,2.4,19.7,8.8,33.1,9.6c-13.3-11.9-23.9-22.7-38.3-29.7c-13-6.2,5.1,5.2,8.7,7.8
	C409.8,344.3,416.2,348.9,420.4,354.9z"/>
<path class="st6" d="M206.1,340.1c-1.2-3.6-8.9-4.9-9.6,0c3,4.5,19.1,12.5,8.7,3.5C205.3,342.2,204.8,340.2,206.1,340.1z"/>
<path class="st6" d="M341.1,449.6c3.8,11.4,9.9,32.2,6.9,50.5c5.2-0.1,5.4-5,8.7-7c4.1,6.6,4.8,16.7,6,26.1
	c3.5-3.5,7.1-6.9,8.7-12.2c5.3,3.4,3.5,15.8,2.7,22.7c7.8-7.6,17.6-22.3,16.5-33.1c-1.8,10.1-6.4,17.4-12.2,23.5
	c-0.1-9.1-2-16.6-7.8-20c-0.5,4.4-3.2,6.7-4.3,10.4c-3.2-7.9-4.1-18-8.7-24.4c-2.8,1.2-3.9,4.2-5.3,7
	C350.7,476.5,348.1,460.8,341.1,449.6z"/>
<g>
	<path class="st6" d="M466.8,374.9c5.4,12-1.2,115.1-8,112.8c-9.6-3.3-13-48.6-8.4,7.8c1.6,19.4-6.8-2.2-14-9.3
		c-6.8-6.9,13.8,62.3-1.5,49.2c-10.3-8.7-23.7-30.8-23.7,0c0,0.9-2.8-8.1-0.9-18.6c2.5-13.4,23.7,14.6,25.8,16.8
		c0,0-0.9-15-1.9-15.8c-3.7-3.7-1.2-26.5-2.5-32.4c-3-13.5,14.5,6.6,16.5,10.7c1.2,2.5-0.1-4.7-0.5-10.3c-0.2-3.7,0-14.2,0-18.8
		c0-6.6,12.2,14.5,12,14.3c-1.7-3.7-0.3-29.9,0.6-34.1C464.8,426.8,459.6,376.7,466.8,374.9z"/>
	<path d="M434.7,535.4c-2.1-1.8-4.4-4.2-6.7-6.6c-4.8-5.1-9.9-10.3-13.1-9.1c-2.6,1-3.8,6.1-3.8,15.5c0,0,0,0.1-0.1,0.2l-0.1,0
		l-0.1,0c-0.3-0.3-2.7-8.7-0.9-18.8c0.4-2.1,1.2-3.3,2.5-3.6c5.3-1.4,16.7,12.3,21.6,18.1c0.8,0.9,1.3,1.6,1.7,2
		c-0.3-4.4-1.1-14.8-1.8-15.5c-2.3-2.3-2.2-11.9-2.1-20.4c0.1-5.1,0.1-9.8-0.4-12.1c-0.6-2.7-0.4-4.3,0.6-4.6
		c3.4-1.2,14.6,12.1,16.1,15.2c0.1,0.3,0.2,0.4,0.2,0.4c0.1-0.4-0.1-2.5-0.4-4.5c-0.2-1.9-0.5-4.1-0.6-6.1c-0.2-2.6-0.1-8.6,0-13.4
		c0-2.1,0-4,0-5.4c0-0.8,0.2-1.2,0.6-1.4c0,0,0.1,0,0.1,0c2,0,7.6,9,11.1,14.8c-1.3-5.8,0-29.4,0.9-33.3c2-8.8,2.1-23.2,2.2-37.2
		c0.1-18.2,0.3-33.8,4.3-34.9l0.1,0l0,0.1c2.7,5.9,2.4,33.3,0.9,57.9c-1.5,24.6-4.5,51-7.9,54.6c-0.4,0.4-0.7,0.5-1.1,0.4
		c-4.4-1.5-7.5-11.6-9.1-17c-0.5-1.6-0.9-3-1.1-3.3c-0.3,0.7,0.3,7.7,1.6,23.7l0.3,4.2c0.4,5.1,0.2,7.6-0.8,8
		c-1.3,0.4-3.5-3-6.3-7.4c-2.2-3.5-4.8-7.4-7.1-9.8c-0.3-0.3-0.6-0.5-0.8-0.4c-1.2,0.6,0.3,9.1,1.9,18.2c2.4,13.7,5.3,30.7,1.6,32.9
		c-0.3,0.2-0.6,0.2-0.9,0.2C437.1,537,436,536.5,434.7,535.4z M436.4,486c2.4,2.4,4.9,6.3,7.2,9.8c2.5,3.9,4.9,7.7,6,7.3
		c0.8-0.3,1.1-2.9,0.7-7.7l-0.3-4.2c-1.7-20.5-1.9-23.9-1.4-24c0.3-0.1,0.5,0.6,1.4,3.5c1.6,5.4,4.7,15.4,9,16.9
		c0.3,0.1,0.6,0,0.9-0.4c3.3-3.6,6.3-30,7.8-54.5c2.1-33.8,1.1-53.2-0.8-57.7c-3.8,1.2-4,17.5-4.1,34.7c-0.1,14-0.2,28.4-2.2,37.2
		c-0.9,4.2-2.4,30.3-0.7,34.1l0,0.1l-0.1,0c-0.1,0-0.1,0-0.1-0.1l0,0c0,0,0,0,0,0c0-0.1-0.1-0.1-0.2-0.3c-5.8-9.8-10-15.5-11.3-15.2
		c-0.3,0.1-0.4,0.7-0.4,1.1c0,1.4,0,3.3,0,5.4c0,4.8-0.1,10.8,0,13.4c0.1,2,0.4,4.2,0.6,6.1c0.4,3.8,0.5,4.7,0.2,4.8
		c-0.1,0-0.3-0.1-0.5-0.6c-1.5-3.1-12.6-16.2-15.8-15.1c-0.9,0.3-1,1.8-0.4,4.4c0.5,2.3,0.5,7.1,0.4,12.1
		c-0.1,8.4-0.2,17.9,2.1,20.2c0.9,0.9,1.8,14.4,1.9,15.9l0,0.3l-0.2-0.2c-0.3-0.3-1-1.1-1.9-2.2c-4.4-5.3-16.2-19.4-21.4-18
		c-1.2,0.3-2,1.5-2.4,3.4c-1.6,8.9,0.2,16.5,0.7,18.2c0-9.3,1.3-14.3,3.9-15.3c3.3-1.3,8.2,3.7,13.3,9.1c2.2,2.3,4.5,4.7,6.6,6.5
		c1.7,1.5,3,1.9,3.9,1.4c3.6-2,0.7-19-1.7-32.6c-1.9-11-3-17.8-1.8-18.4c0.1,0,0.1-0.1,0.2-0.1C435.8,485.5,436,485.7,436.4,486z"/>
</g>
<path d="M258.7,584.7l-1.9-6.2l-5.7,0.4v-7.4l3.3-0.2l-3.1-9.1c-0.1-0.2-0.1-0.5-0.2-0.7v-10.6l5.3-0.4l13.5,33.4L258.7,584.7
	L258.7,584.7z M251.1,547.5V540l7.8-0.6L251.1,547.5z M251.1,579l-4.5,0.3l-1.2,6.4l-11.2,0.8l9.4-35.1l7.5-0.5v10.6
	c-0.3-1.1-0.6-2.1-0.7-3h-0.2c0,0.4-0.1,1-0.2,1.9c-0.1,0.9-0.9,4.8-2.1,11.5l3.2-0.3V579L251.1,579z M251.1,540v7.5l-0.2,0.2
	l-7.2,0.5l6.6-8.1L251.1,540z"/>
<path d="M306.1,565.5c0.1,5.3-1.4,9.8-4.8,13.3l9.4,8.4l-13,0.4l-4.5-4.2c-1.3,0.3-2.6,0.5-4,0.5c-0.1,0.1-0.3,0.1-0.4,0.1v-8.9
	c0.1,0,0.2,0,0.4,0c1.9-0.1,3.3-0.9,4.5-2.5c1.1-1.7,1.6-3.7,1.4-6.4c-0.1-2.9-0.7-5-1.8-6.6c-1.2-1.6-2.7-2.4-4.5-2.3v-8.8
	c3.2-0.1,6,0.5,8.6,1.9c2.6,1.4,4.7,3.4,6.2,6C305.1,559,305.9,562.1,306.1,565.5z M288.9,584c-3.1,0-5.8-0.6-8.4-1.9
	c-2.7-1.4-4.8-3.3-6.4-5.9c-1.5-2.6-2.4-5.5-2.5-8.9c-0.1-3.5,0.6-6.7,1.9-9.5c1.4-2.9,3.4-5.1,6-6.7c2.6-1.7,5.6-2.5,9-2.6h0.4v8.8
	h-0.1c-2,0.1-3.6,0.9-4.7,2.5c-1.1,1.6-1.6,3.8-1.5,6.7c0.1,2.7,0.7,4.9,1.9,6.5c1.2,1.4,2.6,2.1,4.4,2.2V584z"/>
<path d="M341.5,566.9c0,5.5-1.2,9.6-3.7,12.2c-2.5,2.7-6.4,4-11.7,4c-4.9,0-8.6-1.3-11.2-4c-2.5-2.7-3.7-6.7-3.7-12v-18.9h10.4v19.2
	c0,2.2,0.4,3.9,1.2,5.1c0.9,1.2,2,1.7,3.5,1.7c1.6,0,2.7-0.5,3.5-1.7c0.9-1.1,1.2-2.7,1.2-5v-19.4h10.4V566.9z"/>
<polygon points="347.9,583.2 349,548.9 359.4,549.2 358.2,583.5 "/>
<polygon points="365,583.7 366.8,549.5 377.1,550 375.8,576.2 387.6,576.8 387.1,584.9 "/>
<path d="M412.9,588.1l-0.8-6.5l-4.4-0.4v-7.4l3.2,0.4l-1.4-9.5c-0.1-1.4-0.3-2.7-0.3-4H409c-0.1,0.4-0.2,1-0.5,1.9
	c-0.1,0.3-0.4,1.1-0.8,2.2v-11.7l8.9,0.9l7.5,35.3L412.9,588.1z M407.7,581.2l-5.8-0.6l-2.3,6.1l-11.1-1.2l15.3-32.9l3.9,0.4v11.7
	c-0.7,1.8-1.8,4.8-3.3,8.6l3.3,0.4V581.2z"/>
</svg>
