<?xml version="1.0" encoding="utf-8"?>
<!-- Generator: Adobe Illustrator 21.0.2, SVG Export Plug-In . SVG Version: 6.00 Build 0)  -->
<svg version="1.1" id="Camada_1" xmlns="http://www.w3.org/2000/svg" xmlns:xlink="http://www.w3.org/1999/xlink" x="0px" y="0px"
	 viewBox="0 0 595 842" style="enable-background:new 0 0 595 842;" xml:space="preserve">
<style type="text/css">
	.st0{fill-rule:evenodd;clip-rule:evenodd;fill:#C33739;}
	.st1{fill-rule:evenodd;clip-rule:evenodd;fill:#E6B32F;}
	.st2{fill-rule:evenodd;clip-rule:evenodd;fill:#FFFFFF;}
	.st3{fill:#FFFFFF;}
	.st4{fill-rule:evenodd;clip-rule:evenodd;fill:#5D5C51;}
	.st5{fill-rule:evenodd;clip-rule:evenodd;}
	.st6{fill-rule:evenodd;clip-rule:evenodd;fill:#CBB36D;}
	.st7{fill-rule:evenodd;clip-rule:evenodd;fill:#FEF48A;}
	.st8{fill-rule:evenodd;clip-rule:evenodd;fill:#FEFCDD;}
</style>
<g>
	<path class="st0" d="M288.3,196.2c-133.6,0-241.9,104.1-241.9,232.5s108.4,232.5,241.9,232.5s241.9-104.1,241.9-232.5
		S421.8,196.2,288.3,196.2z"/>
	<path d="M42.4,428.7c0-130.4,110.3-236.5,245.9-236.5c135.6,0,245.9,106.1,245.9,236.5S423.9,665.2,288.3,665.2
		C152.7,665.2,42.4,559.1,42.4,428.7z M50.4,428.7c0,126,106.7,228.5,237.9,228.5c131.2,0,237.9-102.5,237.9-228.5
		S419.5,200.2,288.3,200.2C157.1,200.2,50.4,302.7,50.4,428.7z"/>
</g>
<path class="st1" d="M288.3,218.8c-120.6,0-218.4,94-218.4,209.9c0,115.9,97.8,209.9,218.4,209.9s218.4-94,218.4-209.9
	C506.7,312.9,408.9,218.8,288.3,218.8z"/>
<path class="st0" d="M288.3,597.9c-96.9,0-176-76-176-169.2s79.1-169.2,176-169.2s176,76,176,169.2S385.2,597.9,288.3,597.9z"/>
<g>
	<path class="st2" d="M288.3,270.5c-90.9,0-164.6,70.8-164.6,158.2S197.4,587,288.3,587s164.6-70.9,164.6-158.3
		S379.1,270.5,288.3,270.5z"/>
	<path class="st3" d="M224.2,574.6c-19.6-8-37.2-19.4-52.4-34c-15.1-14.5-27-31.5-35.3-50.3c-8.6-19.5-12.9-40.3-12.9-61.6
		s4.4-42.1,12.9-61.6c8.3-18.8,20.2-35.8,35.3-50.3s32.7-26,52.4-33.9c20.3-8.3,41.9-12.4,64.1-12.4s43.8,4.2,64.1,12.4
		c19.6,8,37.2,19.4,52.4,33.9c15.1,14.5,27,31.5,35.3,50.3c8.6,19.5,12.9,40.2,12.9,61.6s-4.4,42.1-12.9,61.6
		c-8.3,18.9-20.2,35.8-35.3,50.3c-15.1,14.5-32.7,26-52.4,34c-20.3,8.3-41.9,12.5-64.1,12.5S244.5,582.9,224.2,574.6z M224.3,283.1
		c-19.6,8-37.2,19.4-52.3,33.9c-15.1,14.5-27,31.4-35.3,50.2c-8.6,19.5-12.9,40.2-12.9,61.5c0,21.3,4.4,42,12.9,61.5
		c8.3,18.8,20.1,35.7,35.3,50.3c15.1,14.5,32.7,25.9,52.3,33.9c20.3,8.3,41.8,12.4,64,12.4s43.7-4.2,64-12.4
		c19.6-8,37.2-19.4,52.3-33.9c15.1-14.5,27-31.4,35.3-50.3c8.6-19.5,12.9-40.2,12.9-61.5c0-21.3-4.4-42-12.9-61.5
		c-8.3-18.8-20.1-35.7-35.3-50.2c-15.1-14.5-32.7-25.9-52.3-33.9c-20.3-8.2-41.8-12.4-64-12.4S244.5,274.8,224.3,283.1z"/>
</g>
<g>
	<path class="st4" d="M385.6,442.4c42.7-5.8,40.4-20.2,53.1,19c4.7,14.4-5.8,52.5-8.6,67.5c-6.3,32.9-16.1,29.4-43.2,29.4
		l-246.2-4.6c-36.4,0-1.7-18.5-3.5-47.3C132.4,431,256,321.8,288.2,426.8c5.3,17.4,49,9.8,66.9,9.8
		C361.4,436.6,388.6,437.8,385.6,442.4z"/>
	<path d="M393.8,566.4c-2.2,0-4.5-0.1-6.9-0.1l-246.3-4.6c-9.4,0-18.7-1-22.8-7.8c-4.2-6.9-0.2-14.5,3.7-21.8
		c3.9-7.4,8.4-15.8,7.8-25.2c-1.6-25.3,9.6-55.1,30.8-82c20.6-26.1,46.9-44.2,70.4-48.5c14.5-2.6,27.9-0.1,38.9,7.4
		c11.9,8.1,20.8,21.8,26.6,40.6c0.8,2.5,5.9,4.5,13.6,5.3c9.5,1,21.5,0.2,31.2-0.5c5.6-0.4,10.4-0.7,14.4-0.7c3.3,0,10.6,0.3,17.5,1
		c8.4,0.9,13.5,2.1,16.7,4.2c8.2-1.3,14.5-3,19.6-4.3c9.6-2.5,17.1-4.5,23.9,1.1c5.3,4.4,8.2,12,13.4,28.3
		c4.1,12.6-0.5,35.9-6.1,60.6c-1,4.3-1.8,8.1-2.3,10.9c-3.3,17.1-7.8,26.2-15.5,31.2c-6.4,4.2-13.9,4.8-23.1,4.8
		C397.5,566.4,395.7,566.4,393.8,566.4z M413,445c-6.2,1.6-14.6,3.8-26.3,5.4l-17.1,2.3l4.3-6.8c-5.8-0.7-13.7-1.2-18.8-1.2
		c-3.4,0-8.2,0.3-13.3,0.7c-23.3,1.6-55.1,3.8-61.2-16.1c-8.8-28.7-24.7-41.1-47.3-37c-19.8,3.6-42.4,19.5-60.7,42.6
		c-18.5,23.4-28.7,50-27.4,71.1c0.9,14-5.2,25.4-9.6,33.7c-0.9,1.8-2.1,3.9-2.8,5.6c1.5,0.3,4,0.5,7.9,0.5l246.3,4.6
		c2.5,0,4.8,0,7.1,0.1c9.3,0.1,16.1,0.2,19.6-2.1c3.6-2.3,6.3-9,8.6-20.9c0.6-3.1,1.4-6.9,2.4-11.3c3.3-14.9,9.5-42.6,6.4-52.2
		c-2.2-6.7-6.1-19-8.3-20.9C421.4,442.8,416.9,443.9,413,445z"/>
</g>
<path class="st5" d="M167.5,406.8c-1.7,0.9-3.4,1.7-5.3,2.4c-3.4,17.9-8.7,33.9-10.4,53.6c5.8-5.6,10.2-12.5,15.6-18.5v5.9
	c-15.6,19.9-24.8,46.4-42.5,64.3c20.2-36.3,28.4-84.6,37.2-132.2c1.7-3,3.5-1.2,5.3-0.4v4.9c-4.6,2.5-5.8,8.5-5.3,16.1
	c1.7-0.9,3.6-1.7,5.3-2.6V406.8z M172.5,388.6c-2.4,0.3-3.7-0.5-4.1-2.1c-0.4,0.1-0.6,0.3-0.9,0.4v-4.9c1.2,0.6,2.2,0.6,3-1.7
	c8.9-27.3,15.6-58.9,39.3-82.7c22.8-22.8,75.7-45.4,119.1-45.2v5.3c-22.1,1.8-46.9,10-69.5,17.1c-44.4,14-70.4,53-80.6,99.2
	c9.9-8.1,12.5-23.4,22.8-31c8.9-2.7,2.6,9.9,10.4,8.3c13.2-9.8,12.8-33.3,28.9-45.4c10.3-7.8,61.4-21,84.7-24.8
	c1.2-0.1,2.3-0.3,3.5-0.3v6.6c-1.1-0.1-2.2-0.1-3.5-0.1c-1,4,1.1,6.6,3.5,7.4v14.5c-8.5-2.7-14-8.4-13.8-19.9
	c-8.9,13.1,2.4,21.9,13.8,22.7v25.8c-10.3,9.1-13,25.8-22,36.2c-14.2-6.4-21.7,7.4-35.1,8.3c0.5-14.7,27.6-20.5,28.9-41.3
	c6.3-1.5,4-1.5,10.3,0c3-3.2,2.8-9.6,6.3-12.5c-2.7-7.4-6.8-0.6-12.5-4.1c-1.4-6.3,2.2-7.6,2.1-12.4c-9,3.4-14,10.7-22.8,14.5
	c0.3-7.3,5.9-9.3,6.2-16.6c-14.7,5.9-31.5,9.7-45.4,16.6c-5.8,16.3-15.3,28.7-26.9,39.2c0.9-6.6,4-11.2,4.1-18.6
	c-6,3-8,9.9-12.4,14.5c-4.8-0.9-5.5-9.1-10.4-4.2c-8.5,18.6-14.5,39.6-31.9,49.2v-6.3C171.1,398.4,173.7,395.5,172.5,388.6
	L172.5,388.6z M167.5,450.3c1.6-2.1,3.3-4.1,5-6c3.8,4.5,6.3,10.2,10.4,14.5c21.6-13.5,37.3-33,76.5-28.9c-1.1-3.1-3.1-5.2-4.2-8.3
	c26.1-7.6,42,11.3,53.7,24.8c5.4,0.6,5.3-4.3,6.2-8.3c4.9,3.9,9.4,8.1,13.8,12.5v-11.2c-4.7-5.2-9.7-10-15.8-13.8
	c-7.7-2.2-6.7,4.4-10.3,6.3c-13.3-15.6-43.7-31.5-70.2-20.6c0.6,4.8,7.1,3.8,6.2,10.2c-25.3,0.9-40.3,12.1-55.8,22.8
	c-5.8,0.9-1.9-7.7-6.2-8.3c-3.5,2.4-6.5,5.2-9.2,8.4V450.3z M328.8,252.5c20.7,0.1,39.3,5.3,51.3,18.3v5.6
	c-11.8-16.3-30.4-20.3-51.3-18.6V252.5L328.8,252.5z M328.8,280.8c12.9-0.1,24.6,10.7,33.8,12.7c6.1,0.5-8.3,7.7,0,10.4
	c6-5.8,12.7-10.7,17.6-17.6v6.5c-10.3,8.5-17.4,33.1-30,35.9c13,0.1,22.5-3.6,30-9.1v9.3c-9.1,0.1-18.6,2.7-23.8,6
	c5.3,8.4,13.6,9.4,23.8,9.1v19c-10.4-13.9-26.2-23-44.4-15.6c0.6-4.9,3.2-7.8,2.1-14.5c-3.6,1.2-6.6,2.9-9,5.1v-25.8
	c10.7,0.7,21.3-5.8,15.2-22.7c-3,8.1-4.5,17.5-12.5,20.7c-0.9-0.2-1.9-0.5-2.7-0.8v-14.5c2.6,0.9,5.5-0.6,4.8-5.3
	c-1.2-1.1-2.9-1.7-4.8-1.9V280.8L328.8,280.8z M354.3,467.1v-18.6c13.2-0.9,18.4,6.1,25.8,11v11.6c-6.4-1.6-11.5-3.9-15.5-10.2
	c-3.2,9.2-4,20.9-12.4,24.8c-6.1-13.5-14-25-23.5-35v-11.2C337.2,448.8,344.4,459.3,354.3,467.1z M380.2,270.8
	c3.8,4,6.9,8.9,9.3,14.5c2.7,1.1,5.5,2.5,8.3,4.2v6c-7.2-7.1-12.7-6.7-17.6-2.7v-6.5c1.2-1.6,2.2-3.3,3.1-5.2
	c-0.9-1.7-2-3.3-3.1-4.8V270.8L380.2,270.8z M380.2,319.5c7.1-5.2,12.4-12,17.6-19v9.9c-0.7,0.5-1.4,1.1-2.1,1.7
	c0.4,2.9,1.2,5.5,2.1,7.8v12.9c-4.5-3-10.9-4.2-17.6-4.1V319.5L380.2,319.5z M380.2,343.9c5.4-0.2,11.3-0.8,17.6-0.9v4.5
	c-4.3,1.1-8.9,1.9-12.4,3.9c0.5,15.4,6.7,25.1,12.4,35.4v10.5c-1,0.2-1.9,0.6-2.1,1.7c0.4,2,1.2,4,2.1,6v7.4
	c-4.9-7.8-10.7-14.8-12.4-25.8c0.9-3.1,2.7,0.8,6.2,0c-2.1-8.1-6-16.4-11.4-23.6V343.9L380.2,343.9z M380.2,459.5
	c2.2,1.4,4.5,2.7,7.2,3.5c0.4-6.5-1.4-15.2,2.1-18.6c4.2-0.2,6.3,1.5,8.3,3.5v26.9c-6.7-1.7-12.5-2.5-17.6-3.7V459.5L380.2,459.5z
	 M393.6,427.8c-0.2-2.3,1.7-2.4,4.1-2.2v9.6C396.2,432.8,394.8,430.4,393.6,427.8z M397.7,289.5c0.7,0.4,1.4,0.9,2.1,1.3v6.9
	c-0.7-0.8-1.4-1.5-2.1-2.2V289.5L397.7,289.5z M397.7,300.5v9.9c0.7-0.5,1.4-0.9,2.1-1.2v-11.5C399.1,298.6,398.4,299.6,397.7,300.5
	L397.7,300.5z M397.7,320c0.6,1.6,1.3,3,2.1,4.4v10.2c-0.6-0.6-1.4-1.2-2.1-1.7V320L397.7,320z M397.7,343c0.7,0,1.4,0,2.1,0v4
	c-0.7,0.1-1.4,0.4-2.1,0.5V343L397.7,343z M397.7,386.7c0.7,1.3,1.4,2.6,2.1,3.9v6.3c-0.6,0.1-1.4,0.2-2.1,0.4V386.7L397.7,386.7z
	 M397.7,405c0.6,1.2,1.3,2.5,2.1,3.7v7.1c-0.6-1.2-1.4-2.3-2.1-3.5V405L397.7,405z M397.7,425.6c0.6,0.1,1.4,0.1,2.1,0.2v12.5
	c-0.7-1-1.4-2.1-2.1-3.1V425.6L397.7,425.6z M399.8,449.9v13v12.4c-0.7-0.1-1.4-0.4-2.1-0.6v-26.9
	C398.4,448.5,399.1,449.2,399.8,449.9z M399.8,290.8c22.2,14.4,44.6,44.9,22.7,68.9c-5.4-5-5.6-15-14.4-16.6c-2.2,1.9-5.1,3-8.3,3.9
	v-4c1.4,0,2.7,0,4.1,0.1c-0.4-3.6-1.9-6.5-4.1-8.6v-10.2c6.6,12,18.9,18.4,26.9,29.1c6.1-19.7-9.6-53.2-26.9-44.3v-11.5V290.8
	L399.8,290.8z M399.8,390.6c0.7,1.4,1.4,2.7,2,4.2c0,1.4-0.9,1.8-2,2.1V390.6L399.8,390.6z M412.2,440.2
	c13.7,12.4,19.9,31.2,21,52.1v14.9c-1.6,30.6-12.2,63-25.1,83.9c4.8-27.5,12.5-52.3,10.3-86.8c-0.6-6.4,6,5.3,6.2-2
	c-0.3-21.1-6-36.6-24.8-39.3v-13c1.9,1.8,4.2,3.2,8.3,2.7c-2.2-5.5-5.3-9.9-8.3-14.4v-12.5c1.6,0.2,3.1,0.4,4.1-0.1
	c-1-3.7-2.4-6.8-4.1-9.9v-7.1C406.6,420,418.4,431,412.2,440.2z"/>
<g>
	<path class="st2" d="M509.4,650.8L420,625.1l-1.4-18.2c-94.8-13.9-181.6-12.5-260.9,4l-0.4,17.1l-89,22.8c4.6-14.9,12-26.1,21-35.1
		c-11.8-8.2-20.4-15.8-21-21.9l45.6-15.6v-24.4c104.1-30.7,231.8-33.8,350.8,0V579l44.7,14.8c4,3.6-13.3,15.2-20,22.8
		C496.1,627.9,506.8,638.3,509.4,650.8z"/>
	<path d="M416.2,628.2l-1.4-17.8c-91.2-13.1-176.4-11.8-253.3,3.7l-0.4,16.9l-98.9,25.4l2.1-6.8c3.9-12.7,10.1-23.7,18.7-33.3
		c-12.6-9.2-18.3-15.9-18.9-22.1L64,591l45.9-15.6v-24.5l2.9-0.8c110.2-32.5,238.9-32.5,353,0l2.9,0.8v25.3l42.8,14.1l0.6,0.6
		c1.3,1.1,1.9,2.7,1.9,4.4c0,4.5-4.7,8.8-12.9,15.9c-2.3,2-4.7,4.1-6.7,6c1.7,2.7,3.7,5.4,5.7,8.2c5.5,7.6,11.3,15.5,13.2,24.7
		l1.3,6.5L416.2,628.2z M153.7,607.6l3.1-0.6c79.5-16.5,167.8-17.9,262.3-4l3.2,0.5l1.5,18.6l79.4,22.8c-2.3-5-5.8-9.8-9.5-14.8
		c-2.7-3.7-5.4-7.5-7.7-11.4l-1.5-2.5l1.9-2.2c2.4-2.7,6-5.9,9.4-8.9c2.8-2.4,7-6.1,9.1-8.6l-44.2-14.6v-25.1
		c-111-31-235.6-31-342.8,0v24.3l-44.6,15.2c1.9,3.2,6.9,8.3,18.2,16.1l3.9,2.7l-3.3,3.4c-7.7,7.8-13.5,16.6-17.5,26.6l78.8-20.2
		L153.7,607.6z"/>
</g>
<g>
	<path class="st5" d="M135.8,624.1c-7.2-0.9-16.1-1.8-24.8-2.7c-2.2-11.4-0.4-26.9-0.9-40c-15.3,2.7-27.1,9-41.8,12.4
		c2.7,7.8,14.6,14.5,21,21.9c-6.8,11.9-15,22.4-21,35.1c21.5-7.6,43.9-14.2,67.5-19.7v3.5c-26.1,6.3-50.7,14-75.2,22
		c7.2-14.1,16.1-26.4,23.8-40c-6.8-8.9-16.9-14.8-23.8-23.8c17-4.9,33.4-10.4,49.5-16.2V551c8.2-2.4,16.8-4.7,25.7-6.7v3.8
		c-7.6,1.7-14.8,3.7-21.9,5.7v63.7c7.1-2,14.3-3.9,21.9-5.7v3.7l-14.3,3c4.4,1.4,9.3,2.2,14.3,3V624.1z M157.6,625.1
		c0.2-3.1,0.4-10.6,0-14.3l-21.8,4.6v-3.7c91-21.1,214.8-21,306.1-0.1v3.8c-6.8-1.4-13.8-2.5-19.9-4.6c-4.2,1.2-0.9,9.9-1.9,14.3
		c7.5-1.1,14.5-2.6,21.9-3.9v3.6c-4.8,0.6-9.6,1.4-14.3,2.2c4.7,1.4,9.5,2.7,14.3,3.9v3.5c-8.4-2.1-16.9-3.9-25.7-5.5v-19
		c-75.3-13.7-180.8-15.1-254.7,0.9V629c-8.7,1.7-17.3,3.5-25.6,5.6v-3.5c4.7-1.1,9.4-2.2,14.3-3.2c-1.4-1.7-6.8-2.9-14.3-3.9v-2.6
		C143.1,622.6,150.8,623.5,157.6,625.1L157.6,625.1z M441.9,544.3v3.6c-91-20.9-215.4-21-306.1,0.2v-3.8
		C227.4,523.4,350.3,523.3,441.9,544.3z M467.6,551v26.6c17.7,3.8,32.3,10.9,49.4,15.3c-6.3,9.9-17.9,14.5-23.8,24.7
		c9.1,12.1,16.4,26.1,24.8,39c-25.2-7.6-49.8-15.8-76.1-22.1v-3.5c23,6.1,46.5,11.7,67.5,19.9c-3.7-10.6-14-22.8-20-34.2
		c4.1-9.6,18.3-14,20-22.8c-14.8-3.3-26.4-9.8-41.8-12.4v39c-8.1,1.9-16.9,3.2-25.7,4.5v-3.6c4.6-0.8,9.3-1.4,14.3-1.8
		c-4.3-1.8-9.2-3-14.3-4v-3.8c7.8,1.8,15.5,3.7,22.8,5.8v-63.7c-7.3-2.1-15-4-22.8-5.9v-3.6C450.7,546.3,459.3,548.5,467.6,551z"/>
	<path d="M516.8,660.4c-6.2-1.9-12.5-3.8-18.6-5.7c-26.2-8.1-53.3-16.5-82.8-21.8l-3.3-0.6v-5.5l-2.5-0.7l2.5-0.4v-12.3
		c-78.2-13.7-178.5-13.3-246.7,0.8v18.1l-3.2,0.6c-36,6.9-69.3,17.4-100.3,27.5l-9.2,3l4.4-8.6c4.3-8.5,9.3-16.4,14.1-24.1
		c2.8-4.4,5.6-9,8.4-13.6c-2.8-3.3-6.1-6.1-9.6-9.2c-4.3-3.8-8.8-7.7-12.5-12.6l-3.5-4.6l5.6-1.6c14.9-4.3,30.2-9.3,46.6-15.2V548
		l2.9-0.8c102.8-30.1,257.4-30.1,359.7,0l2.9,0.8v26.4c8.7,2.1,16.8,4.9,24.6,7.7c7,2.5,14.2,5,21.8,6.9l5.3,1.4l-3,4.7
		c-3.4,5.3-8,9.1-12.4,12.8c-3.7,3.1-7.2,6-9.9,9.6c5.3,7.3,10,15.2,14.6,22.9c2.8,4.7,5.7,9.5,8.7,14.1l5.9,9.1L516.8,660.4z
		 M119.4,626.2c-2.9-0.3-5.9-0.6-8.8-0.9l-2.9-0.3l-0.5-2.9c-0.2-1.3-0.4-2.6-0.6-4l-1.1-0.3l1-0.2c-0.7-6.5-0.5-13.8-0.4-20.9
		c0.1-3.5,0.2-7,0.1-10.4c-6.3,1.5-12,3.5-18,5.6c-4.4,1.6-9,3.1-13.8,4.5c2.2,2.7,5.4,5.4,8.6,8.1c3.3,2.8,6.7,5.6,9.3,8.7l1.8,2.1
		l-1.4,2.4c-2.6,4.6-5.5,9-8.2,13.2c-2.8,4.3-5.5,8.5-8,12.9c18.8-6.3,37.3-11.6,56.1-16C128.2,627.2,123.5,626.7,119.4,626.2z
		 M489.4,591.8c-5.9-2.1-11.6-4.1-17.8-5.5v35.3l1.5,0.6l-1.5,0.1v1.3l-3.1,0.7c-6.9,1.6-14.3,2.8-21.5,3.8c2.3,0.6,4.7,1.2,7,1.8
		c15.9,4.2,32.3,8.4,47.6,13.7c-2-3.5-4.5-7.2-6.9-10.8c-3.1-4.7-6.3-9.6-8.9-14.4l-0.9-1.7l0.8-1.8c2.4-5.5,7.3-9.4,11.6-12.9
		c2.4-1.9,4.8-3.8,6.4-5.7C498.6,595,493.9,593.4,489.4,591.8z M423.7,615.6c0,1,0.1,2.3,0.2,3.1c0.1,0.6,0.1,1.1,0.1,1.7
		c3.1-0.5,6.1-1.1,9-1.6c0.9-0.2,1.7-0.3,2.6-0.5C431.7,617.6,427.6,616.7,423.7,615.6z M141.7,618.3c0.2,0,0.3,0,0.5,0.1
		c3.9,0.6,7.8,1.1,11.6,1.9c0-1.5,0.1-3,0-4.5L141.7,618.3z M289.3,536.2c-0.2,0-0.3,0-0.5,0c-63.5,0-124,7.3-170.9,20.6v55.4
		c98.2-27,243.3-27,342.8,0v-55.4C413.4,543.5,352.7,536.2,289.3,536.2z"/>
</g>
<path class="st6" d="M178.7,374.1c9.9-8.1,12.5-23.4,22.8-31c8.9-2.7,2.6,9.9,10.4,8.3c13.2-9.8,12.8-33.3,28.9-45.4
	c10.3-7.8,61.4-21,84.7-24.8c14.3-2.3,27.2,10.2,37.2,12.4c6.1,0.5-8.3,7.7,0,10.4c7.3-7.1,15.9-13,20.7-22.8
	c-22.6-39.7-77.9-20.7-123.9-6.2C214.9,289,188.9,327.9,178.7,374.1z"/>
<path class="st2" d="M325.4,287.3c-2.1,8.4,9.6,11,8.3,2.1C331.8,287.8,329,287.2,325.4,287.3z"/>
<path class="st2" d="M315.1,289.4c-17.1,25.4,41.6,34.8,28.9,0c-3,8.1-4.5,17.5-12.5,20.7C321.5,307.7,314.7,302.1,315.1,289.4z"/>
<path class="st7" d="M383.2,308.9v8.1c-8,6.9-18.1,11.7-33,11.6c13.8-3,21-32.3,33-37.8v9c-0.9,0.1-1.5-0.4-2.1-2.2
	c-4.1,2.7-4.6,9.1-6.2,14.5C378.1,311.4,380.9,310.4,383.2,308.9z M383.2,290.8c4.6-2.2,9.9-0.8,16.6,6.8
	c-5.1,6.9-10.2,13.8-16.6,19.4v-8.1c4-2.4,6.9-6.1,8.3-11.2c-3.6-1.9-6.3,1.8-8.3,2.2V290.8z"/>
<path class="st5" d="M391.5,297.7c-5.1-2.7-8.6,6-10.4,0c-4.1,2.7-4.6,9.1-6.2,14.5C383.5,310.3,389.3,305.8,391.5,297.7z"/>
<path class="st7" d="M395.6,312.2c3.2,21,20.8,27.4,31,41.3C433.3,332.2,414.4,294.8,395.6,312.2z"/>
<path class="st8" d="M290.2,310.1c-14.7,5.9-31.5,9.7-45.4,16.6c-5.8,16.3-15.3,28.7-26.9,39.2c0.9-6.6,4-11.2,4.1-18.6
	c-6,3-8,9.9-12.4,14.5c-4.8-0.9-5.5-9.1-10.4-4.2c-9.3,20.4-15.6,43.6-37.2,51.7c-3.4,17.9-8.7,33.9-10.4,53.6
	c8.8-8.5,14.5-19.9,24.8-26.9c4.2,0.6,0.4,9.1,6.2,8.3c15.5-10.7,30.5-21.8,55.8-22.8c0.9-6.4-5.6-5.4-6.2-10.2
	c26.5-10.9,56.9,5,70.2,20.6c3.6-1.9,2.6-8.4,10.3-6.3c17.1,10.5,25.8,29.3,41.3,41.4v-18.6c17-1.2,20.8,10.9,33,14.5
	c0.4-6.5-1.4-15.2,2.1-18.6c9.5-0.5,8.6,9.4,18.6,8.3c-3.7-9.5-10.4-15.9-14.5-24.8c-0.4-4.5,7.3-0.9,10.3-2.1
	c-4.1-15.1-16.1-22.4-18.6-39.2c0.9-3.1,2.7,0.8,6.2,0c-6.2-23.7-28.2-50.4-55.8-39.2c0.6-4.9,3.2-7.8,2.1-14.5
	c-18.3,5.8-19.9,28.4-31,41.3c-14.2-6.4-21.7,7.4-35.1,8.3c0.5-14.7,27.6-20.5,28.9-41.3c6.3-1.5,4-1.5,10.3,0
	c3-3.2,2.8-9.6,6.3-12.5c-2.7-7.4-6.8-0.6-12.5-4.1c-1.4-6.3,2.2-7.6,2.1-12.4c-9,3.4-14,10.7-22.8,14.5
	C284.3,319.3,289.9,317.3,290.2,310.1z"/>
<path class="st7" d="M356.4,334.8c9,14.2,26.8,7.3,47.5,8.3C402.1,323.9,368.1,327.1,356.4,334.8z"/>
<path class="st2" d="M168.4,386.5c-5.4,2.2-6.8,8.4-6.2,16.6c5.5-2.7,12.1-4.5,10.3-14.5C170.1,388.9,168.8,388.1,168.4,386.5z"/>
<path class="st5" d="M410.1,473.3c-6.8,9-2.2,29.5-8.3,39.2C424.4,520.4,412.6,486.6,410.1,473.3z"/>
<path class="st5" d="M297.4,462.1c-8.4,5.4-2.2,25.3-8.3,33c-4.9-12.3-11.2-23.2-18.5-33c-2.7,17.1,12.9,33.8,20.6,47.5
	C302,503.2,300.7,476.2,297.4,462.1z"/>
<path d="M230.2,585.3l-1.9-6.2l-5.7,0.4v-7.4l3.2-0.2l-3-9.1c-0.1-0.2-0.1-0.5-0.2-0.7v-10.6l5.3-0.4l13.5,33.4L230.2,585.3z
	 M222.6,579.6l-4.5,0.3l-1.2,6.4l-11.2,0.8l9.4-35.1l7.5-0.5v10.6c-0.4-1.1-0.6-2.1-0.7-3.1l-0.3,0.1c0,0.4-0.1,1-0.1,1.9
	c-0.1,0.9-0.9,4.8-2.2,11.4l3.3-0.2V579.6z"/>
<path d="M271.1,582.7c-2.8,1.2-6,1.7-9.7,1.9s-6.8-0.4-9.6-1.7c-2.7-1.3-4.8-3.2-6.3-5.8c-1.5-2.5-2.3-5.5-2.4-8.9
	c-0.1-3.6,0.5-6.8,1.9-9.7c1.5-2.9,3.6-5.1,6.4-6.8s6.1-2.5,9.8-2.7c3-0.1,5.9,0.1,8.7,0.8l0.3,9.5c-0.9-0.5-2.1-0.9-3.5-1.2
	c-1.4-0.2-2.7-0.4-4-0.3c-2.8,0.1-5,0.9-6.6,2.7c-1.6,1.7-2.3,3.8-2.2,6.6c0.1,2.7,1,4.8,2.7,6.4c1.7,1.5,3.9,2.2,6.6,2.2
	c2.5-0.1,5-0.9,7.6-2.2L271.1,582.7z"/>
<path d="M298.1,583.2l-1.5-6.3h-5.2v-7.3h3.2l-2.4-9.4c-0.4-1.4-0.6-2.7-0.7-3.8h-0.1v-7.5h6.8l11.1,34.3H298.1z M291.4,576.8h-5.1
	l-1.6,6.3h-11.2l11.9-34.3h6v7.5h-0.1c-0.1,0.4-0.1,1-0.4,1.9c-0.2,0.9-1.2,4.7-2.9,11.3h3.3V576.8z"/>
<path d="M343.7,568.6c-0.2,5.5-1.6,9.6-4.2,12.2c-2.6,2.5-6.6,3.7-11.8,3.6c-4.8-0.2-8.5-1.7-10.9-4.4c-2.4-2.8-3.6-6.8-3.4-12.2
	l0.6-18.8l10.4,0.4l-0.6,19.2c-0.1,2.2,0.3,3.9,1.1,5.1s1.9,1.8,3.5,1.9c1.5,0.1,2.7-0.4,3.6-1.5c0.9-1.1,1.3-2.7,1.4-4.9l0.6-19.4
	l10.4,0.4L343.7,568.6z"/>
<path d="M371,587.3l-0.9-6.4l-4.5-0.4v-7.3l3.2,0.3l-1.5-9.5c-0.2-1.4-0.4-2.7-0.4-3.9l-0.3-0.1c-0.1,0.4-0.2,1-0.5,1.9
	c-0.1,0.3-0.3,0.9-0.6,1.8v-11.2l8.6,0.7l8.1,35.2L371,587.3L371,587.3z M365.5,546.4V541c1.3,0.2,2.4,0.8,3.5,1.7
	c0.4,0.3,0.9,0.6,1.2,0.9c0.4,0.3,0.9,0.4,1.3,0.5c0.6,0,1-0.1,1.4-0.6c0.4-0.4,0.6-1.1,0.7-2.1l4.2,0.4c-0.2,2.6-0.9,4.5-1.9,5.8
	c-1.1,1.4-2.5,1.9-4.3,1.7c-1.4-0.1-2.7-0.6-4-1.5c-0.5-0.4-0.9-0.7-1.4-1C366,546.6,365.8,546.5,365.5,546.4z M365.5,580.4
	l-5.7-0.5l-2.2,6.2l-11.2-1l14.8-33.1l4.2,0.4v11.2c-0.6,1.8-1.7,4.9-3.2,9.2l3.2,0.3V580.4L365.5,580.4z M365.5,541v5.3
	c-0.2-0.1-0.4-0.1-0.7-0.1c-0.6-0.1-1.1,0.1-1.5,0.6c-0.4,0.4-0.6,1.2-0.6,2l-4.2-0.4c0.2-2.7,0.9-4.7,2-6c1.1-1.2,2.4-1.8,4.2-1.7
	C365,541,365.2,541,365.5,541z"/>
</svg>
