<?xml version="1.0" encoding="utf-8"?>
<!-- Generator: Adobe Illustrator 21.0.2, SVG Export Plug-In . SVG Version: 6.00 Build 0)  -->
<svg version="1.1" id="Camada_1" xmlns="http://www.w3.org/2000/svg" xmlns:xlink="http://www.w3.org/1999/xlink" x="0px" y="0px"
	 viewBox="0 0 595 842" style="enable-background:new 0 0 595 842;" xml:space="preserve">
<style type="text/css">
	.st0{fill-rule:evenodd;clip-rule:evenodd;fill:#C33739;}
	.st1{fill-rule:evenodd;clip-rule:evenodd;fill:#E6B32F;}
	.st2{fill-rule:evenodd;clip-rule:evenodd;fill:#FFFFFF;}
	.st3{fill:#FFFFFF;}
	.st4{fill-rule:evenodd;clip-rule:evenodd;fill:#5D5C51;}
	.st5{fill-rule:evenodd;clip-rule:evenodd;}
	.st6{fill-rule:evenodd;clip-rule:evenodd;fill:#CBB36D;}
	.st7{fill-rule:evenodd;clip-rule:evenodd;fill:#FEF48A;}
	.st8{fill-rule:evenodd;clip-rule:evenodd;fill:#FEFCDD;}
	.st9{fill:#201F20;}
</style>
<g>
	<g>
		<path class="st0" d="M288.3,196.2c133.6,0,241.9,104.1,241.9,232.5S421.8,661.2,288.3,661.2S46.4,557.1,46.4,428.7
			S154.7,196.2,288.3,196.2z"/>
		<path d="M288.3,665.2c-135.6,0-245.9-106.1-245.9-236.5s110.3-236.5,245.9-236.5c135.6,0,245.9,106.1,245.9,236.5
			S423.9,665.2,288.3,665.2z M288.3,200.2c-131.2,0-237.9,102.5-237.9,228.5s106.7,228.5,237.9,228.5
			c131.2,0,237.9-102.5,237.9-228.5S419.5,200.2,288.3,200.2z"/>
	</g>
	<path class="st1" d="M288.3,218.8c120.6,0,218.4,94,218.4,209.9c0,115.9-97.8,209.9-218.4,209.9s-218.4-94-218.4-209.9
		C69.9,312.9,167.7,218.8,288.3,218.8z"/>
	<path class="st0" d="M288.3,597.9c96.9,0,176-76,176-169.2s-79.1-169.2-176-169.2s-176,76-176,169.2S191.4,597.9,288.3,597.9z"/>
	<g>
		<path class="st2" d="M288.3,270.5c90.9,0,164.6,70.8,164.6,158.2S379.1,587,288.3,587s-164.6-70.9-164.6-158.3
			S197.4,270.5,288.3,270.5z"/>
		<path class="st3" d="M288.3,587.1c-22.2,0-43.8-4.2-64.1-12.5c-19.6-8-37.2-19.4-52.4-34c-15.1-14.5-27-31.5-35.3-50.3
			c-8.6-19.5-12.9-40.3-12.9-61.6s4.4-42.1,12.9-61.6c8.3-18.8,20.2-35.8,35.3-50.3c15.1-14.5,32.7-26,52.4-33.9
			c20.3-8.3,41.9-12.4,64.1-12.4s43.8,4.2,64.1,12.4c19.6,8,37.2,19.4,52.4,33.9s27,31.5,35.3,50.3c8.6,19.5,12.9,40.2,12.9,61.6
			s-4.4,42.1-12.9,61.6c-8.3,18.9-20.2,35.8-35.3,50.3c-15.1,14.5-32.7,26-52.4,34C332.1,582.9,310.5,587.1,288.3,587.1z
			 M288.3,270.6c-22.2,0-43.7,4.2-64,12.4c-19.6,8-37.2,19.4-52.3,33.9c-15.1,14.5-27,31.4-35.3,50.2c-8.6,19.5-12.9,40.2-12.9,61.5
			c0,21.3,4.4,42,12.9,61.5c8.3,18.8,20.1,35.7,35.3,50.3c15.1,14.5,32.7,25.9,52.3,33.9c20.3,8.3,41.8,12.4,64,12.4
			s43.7-4.2,64-12.4c19.6-8,37.2-19.4,52.3-33.9c15.1-14.5,27-31.4,35.3-50.3c8.6-19.5,12.9-40.2,12.9-61.5c0-21.3-4.4-42-12.9-61.5
			c-8.3-18.8-20.1-35.7-35.3-50.2c-15.1-14.5-32.7-25.9-52.3-33.9C332,274.8,310.5,270.6,288.3,270.6z"/>
	</g>
	<g>
		<path class="st4" d="M190.9,442.4c-42.7-5.8-40.4-20.2-53.1,19c-4.7,14.4,5.8,52.5,8.6,67.5c6.3,32.9,16.1,29.4,43.2,29.4
			l246.2-4.6c36.4,0,1.7-18.5,3.5-47.3c4.8-75.4-118.8-184.6-151.1-79.6c-5.3,17.4-49,9.8-66.9,9.8
			C215.1,436.6,188,437.8,190.9,442.4z"/>
		<path d="M177.2,566.4c-9.1,0-16.7-0.6-23.1-4.8c-7.7-5.1-12.2-14.1-15.5-31.2c-0.5-2.8-1.4-6.5-2.3-10.9
			c-5.5-24.7-10.2-48-6.1-60.6c5.3-16.3,8.1-24,13.4-28.3c6.8-5.6,14.3-3.6,23.9-1.1c5.2,1.3,11.4,3,19.6,4.3
			c3.2-2.1,8.3-3.3,16.7-4.2c6.9-0.7,14.3-1,17.5-1c4,0,8.8,0.3,14.4,0.7c9.7,0.7,21.7,1.5,31.2,0.5c7.7-0.8,12.8-2.8,13.6-5.3
			c5.8-18.8,14.7-32.5,26.6-40.6c11-7.5,24.4-10,38.9-7.4c23.5,4.3,49.8,22.4,70.4,48.5c21.2,26.8,32.4,56.7,30.8,82
			c-0.6,9.5,3.8,17.8,7.8,25.2c3.9,7.3,7.9,14.9,3.7,21.8c-4.1,6.8-13.4,7.8-22.8,7.8l-246.3,4.6c-2.5,0-4.8,0-6.9,0.1
			C180.9,566.4,179,566.4,177.2,566.4z M153.8,443c-2.2,1.9-6.2,14.2-8.3,20.9c-3.1,9.5,3.1,37.3,6.4,52.2c1,4.4,1.9,8.3,2.4,11.3
			c2.3,11.9,5,18.5,8.6,20.9c3.6,2.3,10.3,2.2,19.6,2.1c2.2,0,4.6-0.1,7.1-0.1l246.3-4.6c3.9,0,6.4-0.2,7.9-0.5
			c-0.8-1.7-1.9-3.9-2.8-5.6c-4.4-8.3-10.5-19.8-9.6-33.7c1.3-21.1-8.9-47.6-27.4-71.1c-18.2-23.1-40.9-39-60.7-42.6
			c-22.6-4.1-38.5,8.3-47.3,37c-6.1,19.9-37.9,17.7-61.2,16.1c-5.1-0.3-9.9-0.7-13.3-0.7c-5.1,0-13,0.5-18.8,1.2l4.3,6.8l-17.1-2.3
			c-11.6-1.6-20.1-3.8-26.3-5.4C159.6,443.9,155.2,442.8,153.8,443z"/>
	</g>
	<path class="st5" d="M409.1,400.5c1.7,0.9,3.5,1.7,5.3,2.6c0.6-7.6-0.6-13.6-5.3-16.1v-4.9c1.7-0.8,3.6-2.7,5.3,0.4
		c8.9,47.6,17.1,95.9,37.2,132.2c-17.6-17.9-26.9-44.4-42.5-64.3v-5.9c5.4,6,9.9,12.9,15.6,18.5c-1.7-19.7-7-35.7-10.4-53.6
		c-1.9-0.7-3.6-1.5-5.3-2.4V400.5z M404.1,388.6c-1.2,6.8,1.4,9.8,5,11.9v6.3c-17.4-9.6-23.4-30.7-31.9-49.2
		c-4.8-5-5.5,3.2-10.4,4.2c-4.4-4.5-6.4-11.5-12.4-14.5c0.1,7.4,3.2,12,4.1,18.6c-11.5-10.5-21.1-23-26.9-39.2
		c-13.8-6.8-30.7-10.7-45.4-16.6c0.3,7.3,5.9,9.2,6.2,16.6c-8.7-3.7-13.8-11.1-22.8-14.5c-0.1,4.8,3.5,6,2.1,12.4
		c-5.6,3.5-9.7-3.3-12.5,4.1c3.5,2.8,3.2,9.2,6.3,12.5c6.3-1.5,4-1.5,10.3,0c1.2,20.8,28.4,26.6,28.9,41.3
		c-13.3-0.9-20.9-14.7-35.1-8.3c-9-10.4-11.7-27.1-22-36.2v-25.8c11.3-0.8,22.6-9.6,13.8-22.7c0.3,11.5-5.3,17.1-13.8,19.9v-14.5
		c2.4-0.8,4.5-3.5,3.5-7.4c-1.2,0-2.4,0-3.5,0.1v-6.6c1.2,0,2.3,0.1,3.5,0.3c23.3,3.8,74.4,17,84.7,24.8
		c16.1,12.2,15.6,35.6,28.9,45.4c7.8,1.6,1.4-10.9,10.4-8.3c10.3,7.6,12.9,22.9,22.8,31c-10.2-46.2-36.2-85.2-80.6-99.2
		c-22.5-7.1-47.4-15.3-69.5-17.1v-5.3c43.4-0.1,96.3,22.4,119.1,45.2c23.8,23.8,30.4,55.4,39.3,82.7c0.8,2.3,1.8,2.3,3,1.7v4.9
		c-0.3-0.1-0.6-0.3-0.9-0.4C407.7,388.1,406.4,388.9,404.1,388.6L404.1,388.6z M409.1,444.4c-2.7-3.2-5.7-6-9.2-8.4
		c-4.2,0.6-0.4,9.1-6.2,8.3c-15.5-10.7-30.5-21.8-55.8-22.8c-0.9-6.4,5.6-5.4,6.2-10.2c-26.5-10.9-56.9,5-70.2,20.6
		c-3.6-1.9-2.6-8.4-10.3-6.3c-6.1,3.7-11.2,8.6-15.8,13.8v11.2c4.3-4.5,8.9-8.6,13.8-12.5c0.9,4,0.8,8.9,6.2,8.3
		c11.7-13.5,27.6-32.5,53.7-24.8c-1.1,3.1-3.1,5.2-4.2,8.3c39.2-4,54.9,15.4,76.5,28.9c4-4.3,6.6-10,10.4-14.5c1.7,1.9,3.5,3.9,5,6
		V444.4z M247.7,252.5v5.3c-21-1.7-39.5,2.3-51.3,18.6v-5.6C208.4,257.8,227,252.5,247.7,252.5L247.7,252.5z M247.7,280.8v6.6
		c-1.9,0.3-3.6,0.9-4.8,1.9c-0.7,4.8,2.2,6.3,4.8,5.3v14.5c-0.9,0.3-1.8,0.6-2.7,0.8c-7.9-3.2-9.5-12.5-12.5-20.7
		c-6.1,16.9,4.5,23.4,15.2,22.7v25.8c-2.4-2.2-5.4-4-9-5.1c-1.2,6.7,1.4,9.6,2.1,14.5c-18.2-7.4-34,1.7-44.4,15.6v-19
		c10.2,0.4,18.5-0.7,23.8-9.1c-5.1-3.4-14.6-5.9-23.8-6v-9.3c7.5,5.5,16.9,9.2,30,9.1c-12.6-2.7-19.7-27.4-30-35.9v-6.5
		c4.9,6.8,11.6,11.8,17.6,17.6c8.3-2.7-6.1-9.9,0-10.4C223.2,291.5,234.9,280.8,247.7,280.8L247.7,280.8z M247.7,439.4v11.2
		c-9.4,10-17.4,21.5-23.5,35c-8.4-4-9.1-15.6-12.4-24.8c-4,6.3-9.1,8.6-15.5,10.2v-11.6c7.4-4.9,12.7-11.9,25.8-11v18.6
		C232.2,459.3,239.4,448.8,247.7,439.4z M196.4,270.8v5.6c-1.1,1.4-2.2,3-3.1,4.8c0.9,1.9,1.9,3.6,3.1,5.2v6.5
		c-4.8-4-10.4-4.4-17.6,2.7v-6c2.8-1.7,5.6-3.1,8.3-4.2C189.5,279.6,192.6,274.8,196.4,270.8L196.4,270.8z M196.4,319.5v9.3
		c-6.6-0.1-13,1.1-17.6,4.1V320c0.9-2.4,1.7-5,2.1-7.8c-0.7-0.6-1.4-1.2-2.1-1.7v-9.9C184,307.5,189.4,314.3,196.4,319.5
		L196.4,319.5z M196.4,343.9v19c-5.3,7.2-9.3,15.6-11.4,23.6c3.5,0.8,5.3-3.1,6.2,0c-1.7,11.1-7.5,18-12.4,25.8V405
		c0.9-2,1.7-4,2.1-6c-0.2-1.1-1.1-1.4-2.1-1.7v-10.5c5.7-10.2,11.9-19.9,12.4-35.4c-3.5-1.9-8.1-2.8-12.4-3.9V343
		C185.1,343.1,191,343.7,196.4,343.9L196.4,343.9z M196.4,459.5v11.6c-5,1.2-10.9,1.9-17.6,3.7v-26.9c1.9-2,4.1-3.7,8.3-3.5
		c3.5,3.4,1.7,12.1,2.1,18.6C191.9,462.1,194.2,460.9,196.4,459.5L196.4,459.5z M178.8,435.1v-9.6c2.4-0.2,4.3-0.1,4.1,2.2
		C181.8,430.4,180.4,432.8,178.8,435.1z M178.8,289.5v6c-0.6,0.7-1.4,1.4-2.1,2.2v-6.9C177.5,290.3,178.1,289.9,178.8,289.5
		L178.8,289.5z M178.8,300.5c-0.7-0.9-1.4-1.9-2.1-2.8v11.5c0.7,0.4,1.4,0.7,2.1,1.2V300.5L178.8,300.5z M178.8,320v12.9
		c-0.7,0.5-1.4,1-2.1,1.7v-10.2C177.5,323,178.3,321.6,178.8,320L178.8,320z M178.8,343v4.5c-0.7-0.1-1.4-0.4-2.1-0.5v-4
		C177.5,343,178.1,343,178.8,343L178.8,343z M178.8,386.7v10.5c-0.6-0.1-1.4-0.2-2.1-0.4v-6.3C177.5,389.3,178.1,388,178.8,386.7
		L178.8,386.7z M178.8,405v7.4c-0.7,1.2-1.4,2.3-2.1,3.5v-7.1C177.5,407.5,178.3,406.2,178.8,405L178.8,405z M178.8,425.6v9.6
		c-0.6,1-1.4,2.1-2.1,3.1v-12.5C177.5,425.7,178.2,425.6,178.8,425.6L178.8,425.6z M178.8,447.9v26.9c-0.6,0.2-1.4,0.4-2.1,0.6
		v-12.4v-13C177.5,449.2,178.1,448.5,178.8,447.9z M176.8,290.8v6.9v11.5c-17.2-8.9-33,24.6-26.9,44.3c7.9-10.7,20.2-17.1,26.9-29.1
		v10.2c-2.2,2.1-3.7,5-4.1,8.6c1.4-0.1,2.7-0.1,4.1-0.1v4c-3.2-0.9-6-2-8.3-3.9c-8.8,1.5-9,11.6-14.4,16.6
		C132.1,335.6,154.6,305.2,176.8,290.8L176.8,290.8z M176.8,390.6v6.3c-1.1-0.3-2-0.7-2-2.1C175.4,393.4,176,392,176.8,390.6
		L176.8,390.6z M176.8,408.7v7.1c-1.7,3-3.1,6.2-4.1,9.9c1,0.4,2.5,0.3,4.1,0.1v12.5c-3,4.5-6.1,8.9-8.3,14.4
		c4.1,0.4,6.4-0.9,8.3-2.7v13c-18.7,2.7-24.5,18.2-24.8,39.3c0.2,7.3,6.8-4.4,6.2,2c-2.2,34.6,5.5,59.3,10.3,86.8
		c-12.9-20.9-23.5-53.3-25.1-83.9v-14.9c1.2-20.9,7.3-39.7,21-52.1C158.2,431,169.9,420,176.8,408.7z"/>
	<g>
		<path class="st2" d="M67.2,650.8l89.4-25.6l1.4-18.2c94.8-13.9,181.6-12.5,260.9,4l0.4,17.1l89,22.8c-4.6-14.9-12-26.1-21-35.1
			c11.8-8.2,20.4-15.8,21-21.9l-45.6-15.6v-24.4c-104.1-30.7-231.8-33.8-350.8,0V579l-44.7,14.8c-4,3.6,13.3,15.2,20,22.8
			C80.5,627.9,69.8,638.3,67.2,650.8z"/>
		<path d="M61.9,656.4l1.3-6.5c1.9-9.2,7.6-17.1,13.2-24.7c2-2.8,4-5.5,5.7-8.2c-1.9-1.9-4.3-4-6.7-6c-8.2-7.2-12.9-11.5-12.9-15.9
			c0-1.7,0.7-3.2,1.9-4.4l0.6-0.6l42.8-14.1v-25.3l2.9-0.8c114.1-32.5,242.8-32.5,353,0l2.9,0.8v24.5l45.9,15.6l-0.3,3.1
			c-0.6,6.2-6.3,12.9-18.9,22.1c8.7,9.7,14.8,20.7,18.7,33.3l2.1,6.8l-98.9-25.4l-0.4-16.9c-76.9-15.5-162.1-16.8-253.3-3.7
			l-1.4,17.8L61.9,656.4z M423.3,624.8L502,645c-4-10-9.8-18.8-17.5-26.6l-3.3-3.4l3.9-2.7c11.3-7.8,16.2-12.9,18.2-16.1l-44.6-15.2
			v-24.3c-107.2-30.9-231.8-30.9-342.8,0v25.1l-44.2,14.6c2,2.4,6.3,6.1,9.1,8.6c3.5,3,7,6.1,9.4,8.9l1.9,2.2l-1.5,2.5
			c-2.3,3.9-5.1,7.7-7.7,11.4c-3.7,5-7.2,9.9-9.5,14.8l79.4-22.8l1.5-18.6l3.2-0.5c94.6-13.9,182.8-12.5,262.3,4l3.1,0.6
			L423.3,624.8z"/>
	</g>
	<g>
		<path class="st5" d="M440.8,621.5c5-0.8,9.9-1.7,14.3-3l-14.3-3v-3.7c7.6,1.8,14.8,3.7,21.9,5.7v-63.7c-7.1-2-14.3-4-21.9-5.7
			v-3.8c8.9,2,17.5,4.2,25.7,6.7v25.6c16.1,5.8,32.5,11.3,49.5,16.2c-6.8,9-16.9,14.8-23.8,23.8c7.7,13.5,16.6,25.8,23.8,40
			c-24.5-8-49.1-15.7-75.2-22v-3.5c23.6,5.5,46.1,12.1,67.5,19.7c-6-12.7-14.1-23.3-21-35.1c6.3-7.4,18.2-14,21-21.9
			c-14.7-3.4-26.5-9.6-41.8-12.4c-0.6,13,1.2,28.5-0.9,40c-8.6,0.9-17.6,1.8-24.8,2.7V621.5z M419,625.1c6.8-1.7,14.5-2.5,21.8-3.7
			v2.6c-7.4,1-12.9,2.2-14.3,3.9c4.8,1,9.6,2.1,14.3,3.2v3.5c-8.4-2.1-16.9-4-25.6-5.6v-18.1c-73.9-16.1-179.4-14.6-254.7-0.9v19
			c-8.8,1.6-17.4,3.4-25.7,5.5v-3.5c4.8-1.2,9.6-2.5,14.3-3.9c-4.7-0.8-9.4-1.5-14.3-2.2v-3.6c7.3,1.3,14.4,2.8,21.9,3.9
			c-1.1-4.3,2.2-13-1.9-14.3c-6.1,2.1-13.1,3.2-19.9,4.6v-3.8c91.3-20.8,215.1-21,306.1,0.1v3.7l-21.8-4.6
			C418.5,614.6,418.7,622,419,625.1L419,625.1z M440.8,544.3v3.8c-90.6-21.2-215.1-21.1-306.1-0.2v-3.6
			C226.3,523.3,349.2,523.4,440.8,544.3z M134.7,544.3v3.6c-7.8,1.9-15.5,3.8-22.8,5.9v63.7c7.3-2.1,15-4,22.8-5.8v3.8
			c-5,1-9.9,2.2-14.3,4c5,0.4,9.6,1,14.3,1.8v3.6c-8.8-1.3-17.6-2.6-25.7-4.5v-39c-15.5,2.6-27,9.1-41.8,12.4
			c1.7,8.8,15.9,13.2,20,22.8c-6,11.4-16.3,23.6-20,34.2c21-8.1,44.5-13.8,67.5-19.9v3.5c-26.4,6.3-50.9,14.5-76.1,22.1
			c8.4-13,15.6-26.9,24.8-39c-5.9-10.2-17.5-14.8-23.8-24.7c17.1-4.4,31.7-11.4,49.4-15.3V551C117.3,548.5,125.8,546.3,134.7,544.3z
			"/>
		<path d="M49.4,663.5l5.9-9.1c3-4.6,5.9-9.5,8.7-14.1c4.6-7.7,9.3-15.6,14.6-22.9c-2.6-3.6-6.2-6.5-9.9-9.6
			c-4.4-3.7-9-7.5-12.4-12.8l-3-4.7l5.3-1.4c7.6-1.9,14.8-4.5,21.8-6.9c7.8-2.7,15.9-5.6,24.6-7.7V548l2.9-0.8
			c102.3-30.2,256.9-30.2,359.7,0l2.9,0.8v25.8c16.4,5.9,31.6,10.9,46.6,15.2l5.6,1.6l-3.5,4.6c-3.7,4.9-8.2,8.8-12.5,12.6
			c-3.5,3-6.8,5.9-9.6,9.2c2.7,4.6,5.6,9.2,8.4,13.6c4.8,7.7,9.8,15.6,14.1,24.1l4.4,8.6l-9.2-3c-31-10.1-64.3-20.5-100.3-27.5
			l-3.2-0.6v-18.1c-68.3-14.2-168.6-14.5-246.7-0.8v12.3l2.5,0.4l-2.5,0.7v5.5l-3.3,0.6c-29.4,5.3-56.5,13.7-82.8,21.8
			c-6.1,1.9-12.4,3.8-18.6,5.7L49.4,663.5z M444,627.7c18.8,4.4,37.3,9.7,56.1,16c-2.5-4.3-5.2-8.5-8-12.9
			c-2.7-4.3-5.6-8.7-8.2-13.2l-1.4-2.4l1.8-2.1c2.6-3.1,6-5.9,9.3-8.7c3.2-2.7,6.4-5.4,8.6-8.1c-4.8-1.4-9.4-3-13.8-4.5
			c-6-2.1-11.7-4.1-18-5.6c0,3.4,0.1,6.9,0.1,10.4c0.2,7.1,0.3,14.4-0.4,20.9l1,0.2l-1.1,0.3c-0.2,1.4-0.4,2.7-0.6,4l-0.5,2.9
			l-2.9,0.3c-2.9,0.3-5.9,0.6-8.8,0.9C453.1,626.7,448.3,627.2,444,627.7z M72.9,596.4c1.6,1.9,3.9,3.8,6.4,5.7
			c4.3,3.4,9.2,7.3,11.6,12.9l0.8,1.8l-0.9,1.7c-2.5,4.8-5.8,9.7-8.9,14.4c-2.4,3.6-4.8,7.3-6.9,10.8c15.3-5.3,31.7-9.6,47.6-13.7
			c2.3-0.6,4.7-1.2,7-1.8c-7.3-1.1-14.6-2.2-21.5-3.8l-3.1-0.7v-1.3l-1.5-0.1l1.5-0.6v-35.3c-6.2,1.4-11.9,3.4-17.8,5.5
			C82.6,593.4,77.9,595,72.9,596.4z M140.9,618.3c0.9,0.2,1.7,0.3,2.6,0.5c2.9,0.6,6,1.1,9,1.6c0-0.6,0.1-1.1,0.1-1.7
			c0.1-0.9,0.2-2.1,0.2-3.1C149,616.7,144.9,617.6,140.9,618.3z M422.7,615.8c0,1.5,0,3,0,4.5c3.8-0.7,7.8-1.3,11.6-1.9
			c0.2,0,0.3,0,0.5-0.1L422.7,615.8z M115.9,556.8v55.4c99.5-27,244.6-27,342.8,0v-55.4c-46.9-13.3-107.4-20.6-170.9-20.6
			c-0.2,0-0.3,0-0.5,0C223.9,536.2,163.2,543.5,115.9,556.8z"/>
	</g>
	<path class="st6" d="M397.9,374.1c-9.9-8.1-12.5-23.4-22.8-31c-8.9-2.7-2.6,9.9-10.4,8.3c-13.2-9.8-12.8-33.3-28.9-45.4
		c-10.3-7.8-61.4-21-84.7-24.8c-14.3-2.3-27.2,10.2-37.2,12.4c-6.1,0.5,8.3,7.7,0,10.4c-7.3-7.1-15.9-13-20.7-22.8
		c22.6-39.7,77.9-20.7,123.9-6.2C361.6,289,387.6,327.9,397.9,374.1z"/>
	<path class="st2" d="M251.2,287.3c2.1,8.4-9.6,11-8.3,2.1C244.7,287.8,247.6,287.2,251.2,287.3z"/>
	<path class="st2" d="M261.5,289.4c17.1,25.4-41.6,34.8-28.9,0c3,8.1,4.5,17.5,12.5,20.7C255,307.7,261.9,302.1,261.5,289.4z"/>
	<path class="st7" d="M201.6,312.2c-1.6-5.3-2.1-11.7-6.2-14.5c-0.6,1.8-1.2,2.3-2.1,2.2v-9c12,5.5,19.2,34.8,33,37.8
		c-14.9,0.1-25.1-4.7-33-11.6v-8.1C195.7,310.4,198.4,311.4,201.6,312.2z M193.3,299.8c-1.9-0.4-4.7-4-8.3-2.2
		c1.4,5.1,4.2,8.8,8.3,11.2v8.1c-6.4-5.5-11.4-12.5-16.6-19.4c6.7-7.6,12-9,16.6-6.8V299.8z"/>
	<path class="st5" d="M185,297.7c5.1-2.7,8.6,6,10.4,0c4.1,2.7,4.6,9.1,6.2,14.5C193.1,310.3,187.3,305.8,185,297.7z"/>
	<path class="st7" d="M180.9,312.2c-3.2,21-20.8,27.4-31,41.3C143.3,332.2,162.2,294.8,180.9,312.2z"/>
	<path class="st8" d="M286.3,310.1c14.7,5.9,31.5,9.7,45.4,16.6c5.8,16.3,15.3,28.7,26.9,39.2c-0.9-6.6-4-11.2-4.1-18.6
		c6,3,8,9.9,12.4,14.5c4.8-0.9,5.5-9.1,10.4-4.2c9.3,20.4,15.6,43.6,37.2,51.7c3.4,17.9,8.7,33.9,10.4,53.6
		c-8.8-8.5-14.5-19.9-24.8-26.9c-4.2,0.6-0.4,9.1-6.2,8.3c-15.5-10.7-30.5-21.8-55.8-22.8c-0.9-6.4,5.6-5.4,6.2-10.2
		c-26.5-10.9-56.9,5-70.2,20.6c-3.6-1.9-2.6-8.4-10.3-6.3c-17.1,10.5-25.8,29.3-41.3,41.4v-18.6c-17-1.2-20.8,10.9-33,14.5
		c-0.4-6.5,1.4-15.2-2.1-18.6c-9.5-0.5-8.6,9.4-18.6,8.3c3.7-9.5,10.4-15.9,14.5-24.8c0.4-4.5-7.3-0.9-10.3-2.1
		c4.1-15.1,16.1-22.4,18.6-39.2c-0.9-3.1-2.7,0.8-6.2,0c6.2-23.7,28.2-50.4,55.8-39.2c-0.6-4.9-3.2-7.8-2.1-14.5
		c18.3,5.8,19.9,28.4,31,41.3c14.2-6.4,21.7,7.4,35.1,8.3c-0.5-14.7-27.6-20.5-28.9-41.3c-6.3-1.5-4-1.5-10.3,0
		c-3-3.2-2.8-9.6-6.3-12.5c2.7-7.4,6.8-0.6,12.5-4.1c1.4-6.3-2.2-7.6-2.1-12.4c9,3.4,14,10.7,22.8,14.5
		C292.2,319.3,286.6,317.3,286.3,310.1z"/>
	<path class="st7" d="M220.2,334.8c-9,14.2-26.8,7.3-47.5,8.3C174.4,323.9,208.5,327.1,220.2,334.8z"/>
	<path class="st2" d="M408.2,386.5c5.4,2.2,6.8,8.4,6.2,16.6c-5.5-2.7-12.1-4.5-10.3-14.5C406.4,388.9,407.7,388.1,408.2,386.5z"/>
	<path class="st5" d="M166.5,473.3c6.8,9,2.2,29.5,8.3,39.2C152.1,520.4,164,486.6,166.5,473.3z"/>
	<path class="st5" d="M279.2,462.1c8.4,5.4,2.2,25.3,8.3,33c4.9-12.3,11.2-23.2,18.5-33c2.7,17.1-12.9,33.8-20.6,47.5
		C274.5,503.2,275.9,476.2,279.2,462.1z"/>
	<path class="st9" d="M230.2,585.3l-1.9-6.2l-5.7,0.4v-7.4l3.2-0.2l-3-9.1c-0.1-0.2-0.1-0.5-0.2-0.7v-10.6l5.3-0.4l13.5,33.4
		L230.2,585.3z M222.6,579.6l-4.5,0.3l-1.2,6.4l-11.2,0.8l9.4-35.1l7.5-0.5v10.6c-0.4-1.1-0.6-2.1-0.7-3.1l-0.3,0.1
		c0,0.4-0.1,1-0.1,1.9c-0.1,0.9-0.9,4.8-2.2,11.4l3.3-0.2V579.6z"/>
	<path class="st9" d="M271.1,582.7c-2.8,1.2-6,1.7-9.7,1.9s-6.8-0.4-9.6-1.7c-2.7-1.3-4.8-3.2-6.3-5.8c-1.5-2.5-2.3-5.5-2.4-8.9
		c-0.1-3.6,0.5-6.8,1.9-9.7c1.5-2.9,3.6-5.1,6.4-6.8s6.1-2.5,9.8-2.7c3-0.1,5.9,0.1,8.7,0.8l0.3,9.5c-0.9-0.5-2.1-0.9-3.5-1.2
		c-1.4-0.2-2.7-0.4-4-0.3c-2.8,0.1-5,0.9-6.6,2.7c-1.6,1.7-2.3,3.8-2.2,6.6c0.1,2.7,1,4.8,2.7,6.4c1.7,1.5,3.9,2.2,6.6,2.2
		c2.5-0.1,5-0.9,7.6-2.2L271.1,582.7z"/>
	<path class="st9" d="M298.1,583.2l-1.5-6.3h-5.2v-7.3h3.2l-2.4-9.4c-0.4-1.4-0.6-2.7-0.7-3.8h-0.1v-7.5h6.8l11.1,34.3H298.1z
		 M291.4,576.8h-5.1l-1.6,6.3h-11.2l11.9-34.3h6v7.5h-0.1c-0.1,0.4-0.1,1-0.4,1.9c-0.2,0.9-1.2,4.7-2.9,11.3h3.3V576.8z"/>
	<path class="st9" d="M343.7,568.6c-0.2,5.5-1.6,9.6-4.2,12.2c-2.6,2.5-6.6,3.7-11.8,3.6c-4.8-0.2-8.5-1.7-10.9-4.4
		c-2.4-2.8-3.6-6.8-3.4-12.2l0.6-18.8l10.4,0.4l-0.6,19.2c-0.1,2.2,0.3,3.9,1.1,5.1s1.9,1.8,3.5,1.9c1.5,0.1,2.7-0.4,3.6-1.5
		c0.9-1.1,1.3-2.7,1.4-4.9l0.6-19.4l10.4,0.4L343.7,568.6z"/>
	<path class="st9" d="M371,587.3l-0.9-6.4l-4.5-0.4v-7.3l3.2,0.3l-1.5-9.5c-0.2-1.4-0.4-2.7-0.4-3.9l-0.3-0.1
		c-0.1,0.4-0.2,1-0.5,1.9c-0.1,0.3-0.3,0.9-0.6,1.8v-11.2l8.6,0.7l8.1,35.2L371,587.3L371,587.3z M365.5,546.4V541
		c1.3,0.2,2.4,0.8,3.5,1.7c0.4,0.3,0.9,0.6,1.2,0.9c0.4,0.3,0.9,0.4,1.3,0.5c0.6,0,1-0.1,1.4-0.6c0.4-0.4,0.6-1.1,0.7-2.1l4.2,0.4
		c-0.2,2.6-0.9,4.5-1.9,5.8c-1.1,1.4-2.5,1.9-4.3,1.7c-1.4-0.1-2.7-0.6-4-1.5c-0.5-0.4-0.9-0.7-1.4-1
		C366,546.6,365.8,546.5,365.5,546.4z M365.5,580.4l-5.7-0.5l-2.2,6.2l-11.2-1l14.8-33.1l4.2,0.4v11.2c-0.6,1.8-1.7,4.9-3.2,9.2
		l3.2,0.3V580.4L365.5,580.4z M365.5,541v5.3c-0.2-0.1-0.4-0.1-0.7-0.1c-0.6-0.1-1.1,0.1-1.5,0.6c-0.4,0.4-0.6,1.2-0.6,2l-4.2-0.4
		c0.2-2.7,0.9-4.7,2-6c1.1-1.2,2.4-1.8,4.2-1.7C365,541,365.2,541,365.5,541z"/>
	<path d="M230.2,585.3l-1.9-6.2l-5.7,0.4v-7.4l3.2-0.2l-3-9.1c-0.1-0.2-0.1-0.5-0.2-0.7v-10.6l5.3-0.4l13.5,33.4L230.2,585.3z
		 M222.6,579.6l-4.5,0.3l-1.2,6.4l-11.2,0.8l9.4-35.1l7.5-0.5v10.6c-0.4-1.1-0.6-2.1-0.7-3.1l-0.3,0.1c0,0.4-0.1,1-0.1,1.9
		c-0.1,0.9-0.9,4.8-2.2,11.4l3.3-0.2V579.6z"/>
	<path d="M271.1,582.7c-2.8,1.2-6,1.7-9.7,1.9s-6.8-0.4-9.6-1.7c-2.7-1.3-4.8-3.2-6.3-5.8c-1.5-2.5-2.3-5.5-2.4-8.9
		c-0.1-3.6,0.5-6.8,1.9-9.7c1.5-2.9,3.6-5.1,6.4-6.8s6.1-2.5,9.8-2.7c3-0.1,5.9,0.1,8.7,0.8l0.3,9.5c-0.9-0.5-2.1-0.9-3.5-1.2
		c-1.4-0.2-2.7-0.4-4-0.3c-2.8,0.1-5,0.9-6.6,2.7c-1.6,1.7-2.3,3.8-2.2,6.6c0.1,2.7,1,4.8,2.7,6.4c1.7,1.5,3.9,2.2,6.6,2.2
		c2.5-0.1,5-0.9,7.6-2.2L271.1,582.7z"/>
	<path d="M298.1,583.2l-1.5-6.3h-5.2v-7.3h3.2l-2.4-9.4c-0.4-1.4-0.6-2.7-0.7-3.8h-0.1v-7.5h6.8l11.1,34.3H298.1z M291.4,576.8h-5.1
		l-1.6,6.3h-11.2l11.9-34.3h6v7.5h-0.1c-0.1,0.4-0.1,1-0.4,1.9c-0.2,0.9-1.2,4.7-2.9,11.3h3.3V576.8z"/>
	<path d="M343.7,568.6c-0.2,5.5-1.6,9.6-4.2,12.2c-2.6,2.5-6.6,3.7-11.8,3.6c-4.8-0.2-8.5-1.7-10.9-4.4c-2.4-2.8-3.6-6.8-3.4-12.2
		l0.6-18.8l10.4,0.4l-0.6,19.2c-0.1,2.2,0.3,3.9,1.1,5.1s1.9,1.8,3.5,1.9c1.5,0.1,2.7-0.4,3.6-1.5c0.9-1.1,1.3-2.7,1.4-4.9l0.6-19.4
		l10.4,0.4L343.7,568.6z"/>
	<path d="M371,587.3l-0.9-6.4l-4.5-0.4v-7.3l3.2,0.3l-1.5-9.5c-0.2-1.4-0.4-2.7-0.4-3.9l-0.3-0.1c-0.1,0.4-0.2,1-0.5,1.9
		c-0.1,0.3-0.3,0.9-0.6,1.8v-11.2l8.6,0.7l8.1,35.2L371,587.3L371,587.3z M365.5,546.4V541c1.3,0.2,2.4,0.8,3.5,1.7
		c0.4,0.3,0.9,0.6,1.2,0.9c0.4,0.3,0.9,0.4,1.3,0.5c0.6,0,1-0.1,1.4-0.6c0.4-0.4,0.6-1.1,0.7-2.1l4.2,0.4c-0.2,2.6-0.9,4.5-1.9,5.8
		c-1.1,1.4-2.5,1.9-4.3,1.7c-1.4-0.1-2.7-0.6-4-1.5c-0.5-0.4-0.9-0.7-1.4-1C366,546.6,365.8,546.5,365.5,546.4z M365.5,580.4
		l-5.7-0.5l-2.2,6.2l-11.2-1l14.8-33.1l4.2,0.4v11.2c-0.6,1.8-1.7,4.9-3.2,9.2l3.2,0.3V580.4L365.5,580.4z M365.5,541v5.3
		c-0.2-0.1-0.4-0.1-0.7-0.1c-0.6-0.1-1.1,0.1-1.5,0.6c-0.4,0.4-0.6,1.2-0.6,2l-4.2-0.4c0.2-2.7,0.9-4.7,2-6c1.1-1.2,2.4-1.8,4.2-1.7
		C365,541,365.2,541,365.5,541z"/>
</g>
</svg>
