<?xml version="1.0" encoding="utf-8"?>
<!-- Generator: Adobe Illustrator 21.0.2, SVG Export Plug-In . SVG Version: 6.00 Build 0)  -->
<svg version="1.1" id="Camada_1" xmlns="http://www.w3.org/2000/svg" xmlns:xlink="http://www.w3.org/1999/xlink" x="0px" y="0px"
	 viewBox="0 0 595 842" style="enable-background:new 0 0 595 842;" xml:space="preserve">
<style type="text/css">
	.st0{fill-rule:evenodd;clip-rule:evenodd;fill:#C33739;}
	.st1{fill-rule:evenodd;clip-rule:evenodd;fill:#2B6D37;}
	.st2{fill-rule:evenodd;clip-rule:evenodd;fill:#FFFFFF;}
	.st3{fill-rule:evenodd;clip-rule:evenodd;}
	.st4{fill-rule:evenodd;clip-rule:evenodd;fill:#956433;}
	.st5{fill:#956433;}
	.st6{fill-rule:evenodd;clip-rule:evenodd;fill:#E2AE74;}
	.st7{fill:#E2AE74;}
	.st8{fill-rule:evenodd;clip-rule:evenodd;fill:#E6B32F;}
	.st9{fill:#FFFFFF;}
	.st10{fill:#FEEE00;}
	.st11{fill:#050006;}
</style>
<g>
	<g>
		<path class="st0" d="M318.2,202.7c115.8,0,209.7,90.3,209.7,201.6S434,605.9,318.2,605.9c-115.8,0-209.7-90.3-209.7-201.6
			S202.4,202.7,318.2,202.7z"/>
		<path d="M318.2,609.9c-117.8,0-213.7-92.2-213.7-205.6s95.8-205.6,213.7-205.6c117.9,0,213.7,92.2,213.7,205.6
			S436,609.9,318.2,609.9z M318.2,206.7c-113.4,0-205.7,88.6-205.7,197.6s92.3,197.6,205.7,197.6c113.4,0,205.7-88.6,205.7-197.6
			S431.6,206.7,318.2,206.7z"/>
	</g>
	<path class="st1" d="M316.6,222.3c104.5,0,189.4,81.5,189.4,182c0,100.4-84.8,181.9-189.4,181.9c-104.5,0-189.3-81.5-189.3-181.9
		C127.3,303.8,212.1,222.3,316.6,222.3z"/>
	<path class="st0" d="M318.2,551c84.1,0,152.6-65.9,152.6-146.7s-68.5-146.7-152.6-146.7c-84,0-152.6,66-152.6,146.7
		S234.1,551,318.2,551z"/>
	<g>
		<path class="st2" d="M318.2,267.2c78.8,0,142.8,61.4,142.8,137.2S397,541.5,318.2,541.5c-78.8,0-142.7-61.4-142.7-137.2
			S239.4,267.2,318.2,267.2z"/>
		<path d="M318.2,541.6c-19.3,0-38-3.6-55.6-10.8c-17-6.9-32.3-16.8-45.4-29.4c-13.1-12.6-23.4-27.3-30.6-43.6
			c-7.5-16.9-11.2-34.9-11.2-53.4s3.8-36.5,11.2-53.4c7.2-16.3,17.5-31,30.6-43.6c13.1-12.6,28.4-22.5,45.4-29.4
			c17.6-7.2,36.3-10.8,55.6-10.8c19.3,0,38,3.6,55.6,10.8c17,6.9,32.3,16.8,45.4,29.4c13.1,12.6,23.4,27.3,30.6,43.6
			c7.5,16.9,11.2,34.9,11.2,53.4s-3.8,36.5-11.2,53.4c-7.2,16.3-17.5,31-30.6,43.6c-13.1,12.6-28.4,22.5-45.4,29.4
			C356.2,538,337.4,541.6,318.2,541.6z M318.2,267.3c-19.2,0-37.9,3.6-55.5,10.8c-17,6.9-32.2,16.8-45.3,29.4
			C204.2,320,194,334.7,186.8,351c-7.4,16.9-11.2,34.8-11.2,53.3s3.8,36.4,11.2,53.3c7.2,16.3,17.5,31,30.6,43.6
			c13.1,12.6,28.3,22.5,45.3,29.4c17.6,7.1,36.2,10.8,55.5,10.8c19.3,0,37.9-3.6,55.5-10.8c17-6.9,32.2-16.8,45.3-29.4
			c13.1-12.6,23.4-27.2,30.6-43.6c7.4-16.9,11.2-34.8,11.2-53.3s-3.8-36.4-11.2-53.3c-7.2-16.3-17.5-31-30.6-43.6
			c-13.1-12.6-28.4-22.5-45.3-29.4C356.1,270.9,337.4,267.3,318.2,267.3z"/>
	</g>
	<g>
		<path class="st2" d="M182.6,503.2c-0.7,29,14,25.5,37.5,25.5l213.4-4c31.5,0,14-18.5,3-41c-13.5-27-51.5-48-79-61.5
			c-15.6-7.5-30.9-5.6-52.1-7.5C239,408.8,185.1,400.9,182.6,503.2z"/>
		<path d="M207.4,536.8c-10.2,0-19-0.9-25.3-7.3c-5.4-5.5-7.8-13.9-7.5-26.5c1-39.8,9.9-66.7,27.1-82.1
			c23.9-21.3,60.2-18.1,98.6-14.7l5.9,0.5c5.6,0.5,10.7,0.7,15.7,0.9c14.1,0.6,26.3,1.1,39.1,7.3c28.5,14,68.1,35.9,82.7,65.1
			c2,4,4.1,7.8,6.2,11.6c6.9,12.2,12.8,22.8,7.5,31.9c-4.7,8.1-15.8,9.1-23.8,9.1l-213.5,4c-2.4,0-4.6,0-6.8,0.1
			C211.3,536.8,209.4,536.8,207.4,536.8z M259.1,419.7c-19.1,0-35.3,2.9-46.7,13.1c-13.8,12.3-20.9,35.4-21.8,70.6v0
			c-0.2,9.6,1.4,13.4,2.9,14.8c2.8,2.8,10.6,2.7,19.6,2.5c2.2,0,4.6-0.1,7-0.1l213.5-4c6.3,0,9-0.8,9.9-1.3
			c-0.3-3.1-4.6-10.7-7.5-15.9c-2.2-3.9-4.5-8-6.6-12.3c-12.4-24.8-48.9-44.9-75.3-57.8c-9.8-4.7-19.9-5.2-32.8-5.7
			c-5.2-0.2-10.5-0.5-16.4-1l-5.9-0.5C284.7,420.9,271.3,419.7,259.1,419.7z"/>
	</g>
	<g>
		<path class="st2" d="M126.5,596.8l77.5-22.2l1.2-15.8c82.2-12.1,157.5-10.9,226.2,3.4l0.4,14.8l77.1,19.9
			c-4-13-10.4-22.7-18.1-30.5c10.2-7.1,17.6-13.7,18.1-18.9l-39.5-13.5v-21.1c-90.3-26.6-201-29.4-304.2,0v21.8l-38.7,12.8
			c-3.5,3.2,11.6,13.2,17.4,19.8C138.1,577,128.7,586,126.5,596.8z"/>
		<path d="M121.2,602.5l1.3-6.5c1.7-8.1,6.6-14.9,11.5-21.5c1.7-2.3,3.3-4.5,4.8-6.8c-1.6-1.6-3.6-3.3-5.5-5
			c-7.2-6.3-11.3-10-11.3-14.1c0-1.6,0.6-3.1,1.8-4.2l0.6-0.6l36.8-12.2v-21.9l2.9-0.8c99.1-28.2,210.8-28.2,306.4,0l2.9,0.8V531
			l39.8,13.6l-0.3,3.1c-0.5,5.4-5.4,11.3-16.1,19.2c7.3,8.2,12.5,17.7,15.9,28.7l2.1,6.9l-87-22.4l-0.4-14.6
			c-66.5-13.4-140-14.4-218.6-3.2l-1.2,15.3L121.2,602.5z M435.8,573.8l66.8,17.2c-3.5-8.3-8.3-15.6-14.6-21.9l-3.3-3.4l3.9-2.7
			c9.3-6.5,13.4-10.6,15.2-13.2l-38.3-13.1v-21c-92.6-26.7-200.2-26.7-296.2,0v21.7L131.3,550c1.9,2,5.1,4.8,7.2,6.7
			c3,2.7,6.2,5.4,8.3,7.8l1.9,2.2l-1.4,2.5c-2,3.5-4.5,6.8-6.8,10c-2.9,3.9-5.6,7.7-7.6,11.6l67.4-19.3l1.3-16.2l3.2-0.5
			c81.9-12.1,158.5-10.9,227.6,3.4l3.1,0.6L435.8,573.8z"/>
	</g>
	<g>
		<path class="st3" d="M450.4,571.4c4.3-0.6,8.6-1.4,12.4-2.5l-12.4-2.7v-3.1c6.6,1.5,12.9,3.2,19,4.9v-55.2c-6.1-1.8-12.5-3.5-19-5
			v-3.3c7.7,1.8,15.1,3.7,22.2,5.8v22.2c14,5,28.2,9.7,42.9,14c-6,7.8-14.6,12.9-20.6,20.7c6.6,11.7,14.4,22.4,20.6,34.6
			c-21.2-6.9-42.6-13.6-65.2-19.1v-3c20.5,4.7,40,10.4,58.5,17.1c-5.2-11.1-12.2-20.2-18.1-30.5c5.5-6.4,15.8-12.2,18.1-18.9
			c-12.7-3-23-8.4-36.3-10.7c-0.5,11.3,1.1,24.7-0.8,34.6c-7.5,0.8-15.2,1.5-21.5,2.4V571.4z M431.5,574.6c6-1.4,12.5-2.2,18.9-3.2
			v2.3c-6.4,0.9-11.2,1.9-12.4,3.4c4.2,0.9,8.4,1.8,12.4,2.7v3c-7.3-1.7-14.7-3.4-22.2-4.8v-15.7c-64.1-13.9-155.5-12.7-220.9-0.8
			v16.5c-7.6,1.4-15,3-22.2,4.7v-3c4.2-1.1,8.3-2.2,12.4-3.3c-4-0.7-8.2-1.4-12.4-1.9v-3.1c6.3,1.1,12.5,2.4,19,3.4
			c-0.9-3.7,1.9-11.3-1.7-12.4c-5.3,1.8-11.4,2.8-17.4,4v-3.3c79.2-18.1,186.5-18.1,265.4,0.1v3.1l-18.9-4
			C431.1,565.4,431.3,571.9,431.5,574.6L431.5,574.6z M450.4,504.5v3.3c-78.6-18.4-186.5-18.3-265.4-0.1v-3.2
			C264.4,486.3,371,486.4,450.4,504.5z M185,504.5v3.2c-6.8,1.6-13.4,3.2-19.8,5.1V568c6.4-1.8,13-3.5,19.8-5v3.3
			c-4.3,0.9-8.6,1.9-12.4,3.4c4.3,0.4,8.4,0.9,12.4,1.6v3.1c-7.6-1.1-15.2-2.2-22.2-3.9v-33.8c-13.4,2.2-23.5,7.8-36.3,10.7
			c1.5,7.6,13.8,11.4,17.4,19.8c-5.3,9.9-14.2,20.4-17.4,29.7c18.2-7.1,38.6-12,58.5-17.3v3c-22.8,5.5-44.1,12.7-66,19.2
			c7.2-11.2,13.5-23.3,21.5-33.8c-5.1-8.9-15.1-12.9-20.6-21.5c14.9-3.7,27.4-9.9,42.8-13.2v-23C169.9,508.1,177.3,506.3,185,504.5z
			"/>
		<path d="M109.9,608.8l5.8-9.1c2.5-3.9,5-8,7.3-12c4-6.6,8-13.5,12.6-19.8c-2.2-3-5.2-5.4-8.2-8c-3.9-3.2-7.9-6.6-10.9-11.2l-3-4.7
			l5.4-1.4c6.6-1.7,13-3.9,19.1-6c6.6-2.3,13.4-4.7,20.7-6.5v-22.8l2.9-0.8c88.9-26.2,223.1-26.2,312.1,0l2.9,0.8v22.4
			c13.6,4.9,26.7,9.1,40,12.9l5.6,1.6l-3.5,4.6c-3.3,4.3-7.1,7.7-10.9,11c-2.9,2.5-5.6,4.9-8,7.6c2.3,4,4.8,7.9,7.2,11.7
			c4.1,6.6,8.4,13.4,12.1,20.7l4.3,8.6l-9.2-3c-26.7-8.7-55.3-17.7-86.9-23.8l-3.2-0.6v-15.8c-59-12.2-145.4-12.4-212.9-0.7v9.9
			l4.1,0.7l-4.1,1.2v4.8l-3.3,0.6c-25.3,4.5-48.6,11.8-71.2,18.7c-5.5,1.7-11,3.4-16.6,5.1L109.9,608.8z M456.1,577
			c15.1,3.6,30,7.9,44.6,12.8c-2-3.5-4.2-6.9-6.4-10.3c-2.3-3.6-4.7-7.3-6.9-11.1l-1.4-2.5l1.8-2.2c2.3-2.7,5.2-5.2,8.1-7.6
			c2.5-2.1,5-4.2,6.8-6.3c-3.9-1.1-7.6-2.4-11.2-3.7c-5-1.7-9.8-3.4-15-4.7c0,2.8,0.1,5.6,0.1,8.4c0.1,6,0.3,12.1-0.3,17.7l2.7,0.6
			l-2.9,0.8c-0.1,1-0.3,2-0.5,3l-0.5,2.9l-2.9,0.3c-2.3,0.2-4.6,0.5-6.9,0.7C462.5,576.3,459.3,576.6,456.1,577z M132.4,550
			c1.3,1.4,3.1,2.8,4.9,4.2c3.8,3,8.1,6.4,10.2,11.4l0.8,1.8l-0.9,1.7c-2.2,4.1-4.9,8.3-7.6,12.3c-1.8,2.8-3.7,5.6-5.4,8.4
			c13.1-4.4,27-8.1,40.5-11.6c1-0.3,2.1-0.5,3.1-0.8c-5.5-0.8-11-1.8-16.2-3l-3.1-0.7v-1l-3.3-0.3l3.3-1.3v-29.5
			c-5.1,1.2-9.9,2.9-14.8,4.6C140.3,547.5,136.5,548.8,132.4,550z M193.3,568.7c2.2,0.4,4.5,0.8,6.7,1.2c0-0.3,0.1-0.6,0.1-0.9
			c0.1-0.6,0.1-1.3,0.2-2C198,567.7,195.6,568.2,193.3,568.7z M435.3,567.1c0,0.9,0,1.7,0,2.6c2.3-0.4,4.6-0.8,7-1.1L435.3,567.1z
			 M169.2,515.8v46.9c86.1-23.2,211.1-23.2,296.2,0v-46.9c-40.6-11.5-92.9-17.8-147.7-17.8c-0.1,0-0.2,0-0.4,0
			C262.6,498,210.1,504.3,169.2,515.8z"/>
	</g>
	<g>
		<path class="st4" d="M258.8,287.7c-52.8,17.4-34.7,74.7-34.7,111.3c0,5.8-32.8,86.8-24.5,78.5c9-9,21.9-25.1,21.9-4.5
			c0,10.3,9,1.3,11.6-2.6c3.2-5.1,7.7,9.6,27.6,0c2.6-1.2,38.5-8.4,39.8-6.4c7.1,10.3,5.8-3.2,24.5-3.2c1.9,0,10.9,3.9,14.2,4.5
			c21.2,5.1-14.8-27.1,3.2-18c20.6,10.3,25.1,22.5,15.5-6.5c-3.9-12.9,25.7,11.6,25.7,5.2c0-12.2,5.2-61.7,14.2-80.4
			c4.5-9.6,36.6-35.4,21.2-50.8c-7.1-7.1-14.8-38.6-32.8-2.5C341.1,402.3,301.9,287.7,258.8,287.7z"/>
		<path class="st5" d="M198.7,478.2c-0.1,0-0.2,0-0.2-0.1c-1.8-1.2,5.1-20.7,15.1-48.1c5.6-15.4,10.5-28.8,10.5-31
			c0-7.1-0.7-15-1.4-23.3c-1.4-16.7-3.1-35.6,1-51.6c4.7-18.3,16.2-30.3,35.2-36.5l0,0c15.5,0,30.8,15.1,45.5,29.7
			c7.9,7.8,16.1,15.9,24.2,21.5c9,6.3,17,8.7,24.4,7.5c11.8-1.9,22.6-13.1,33.1-34.2c5.6-11.3,10.7-16.9,15.5-17
			c5.4-0.2,9.3,6.6,12.8,12.5c1.7,2.8,3.2,5.5,4.7,7c5,5.1,5.5,11.6,1.5,20c-3.5,7.2-9.7,14.5-14.7,20.4c-3.7,4.3-6.8,8-8,10.6
			c-9,18.7-14.2,68.1-14.2,80.4c0,0.5-0.2,0.8-0.5,1c-1.5,0.9-6.3-1.7-11.3-4.5c-5.6-3.1-11.9-6.5-13.7-5.1
			c-0.6,0.5-0.7,1.6-0.2,3.3c4.3,12.9,5.6,17.2,4.5,18c-0.8,0.6-2.7-0.7-6.2-3.1c-3.3-2.3-7.9-5.4-13.9-8.3
			c-2.9-1.4-4.5-1.9-4.9-1.4c-0.7,0.7,1.4,3.8,3.5,7c3.1,4.6,6.5,9.8,5,12c-0.8,1.2-3,1.4-6.7,0.5c-1.5-0.3-4.3-1.3-7-2.3
			c-3-1.1-6.2-2.2-7.2-2.2c-9,0-13.3,3.2-16.2,5.2c-1.6,1.2-2.8,2-4.1,1.8c-1.2-0.2-2.5-1.4-4.2-3.9c-0.5-0.8-7.7,0-19.3,2.1
			c-9.2,1.6-19.1,3.8-20.4,4.4c-12.7,6.2-19.2,2.4-23.1,0.2c-2.2-1.3-3.4-2-4.5-0.2c-1.7,2.5-6.9,8.2-9.8,7.3c-1.3-0.4-2-2-2-4.8
			c0-5.6-1-8.9-3-9.7c-3.6-1.4-9.9,5.1-15.5,10.9c-1.1,1.2-2.2,2.3-3.3,3.4C199.3,478,199,478.2,198.7,478.2z M258.8,287.9
			c-18.9,6.2-30.4,18.1-35,36.4c-4.1,16-2.4,34.9-1,51.5c0.7,8.3,1.4,16.2,1.4,23.3c0,2.3-4.9,15.6-10.5,31.1
			c-7.6,20.8-17,46.7-15.2,47.9c0.2,0.1,0.5-0.1,1-0.5c1.1-1.1,2.1-2.2,3.3-3.4c5.6-5.8,12-12.5,15.7-11c2.1,0.8,3.1,4.1,3.1,9.9
			c0,2.7,0.6,4.2,1.8,4.6c2.6,0.8,7.6-4.2,9.6-7.2c1.2-1.9,2.6-1.1,4.8,0.1c3.8,2.2,10.2,5.9,22.9-0.2c1.3-0.6,11.1-2.7,20.4-4.4
			c7-1.2,18.7-3.2,19.5-2c1.7,2.4,2.9,3.6,4.1,3.8c1.2,0.2,2.4-0.6,4-1.8c2.9-2.1,7.3-5.3,16.3-5.3c1.1,0,4.1,1.1,7.3,2.3
			c2.7,1,5.4,2,6.9,2.3c3.5,0.8,5.7,0.7,6.4-0.4c1.5-2.1-2.1-7.5-5-11.8c-2.4-3.5-4.2-6.4-3.5-7.2c0.5-0.6,2.2-0.1,5.2,1.4
			c6,3,10.5,6.1,13.9,8.4c3.2,2.2,5.3,3.6,6,3.1c1.1-0.8-0.7-6.3-4.5-17.8c-0.5-1.8-0.5-3,0.2-3.6c1.9-1.6,8.1,1.8,14,5
			c5,2.7,9.7,5.3,11.1,4.5c0.3-0.2,0.4-0.4,0.4-0.8c0-12.3,5.2-61.7,14.2-80.5c1.2-2.6,4.4-6.3,8-10.6
			c10.3-12.2,24.5-28.8,13.2-40.1c-1.5-1.5-3.1-4.2-4.8-7c-3.4-5.8-7.3-12.4-12.4-12.4c-0.1,0-0.1,0-0.2,0
			c-4.7,0.2-9.7,5.7-15.3,16.9c-10.6,21.1-21.5,32.3-33.3,34.3c-7.5,1.2-15.5-1.2-24.6-7.6c-8.1-5.6-16.3-13.7-24.2-21.5
			C289.5,302.9,274.3,287.9,258.8,287.9z"/>
	</g>
	<g>
		<polygon class="st6" points="349.6,374.8 385.1,361.6 404.8,364.1 408.7,348.2 413.1,331.4 417.4,312.9 407.4,297.2 386.2,312.2 
			384.7,330.7 365.4,346.9 337.9,377 		"/>
		<path class="st7" d="M337.6,377.1l0.2-0.2l27.5-30l19.3-16.3l1.5-18.4l0,0l21.3-15.1l0.1,0.1l10.1,15.7l0,0l-4.4,18.6l-4.3,16.8
			l-3.9,15.9l-0.1,0l-19.7-2.4l-35.5,13.2L337.6,377.1z M386.3,312.3l-1.5,18.4L365.5,347l-27.3,29.8l11.4-2.1l35.5-13.2l0,0
			l19.6,2.4l3.9-15.7l4.3-16.8l4.4-18.5l-10-15.6L386.3,312.3z"/>
	</g>
	<g>
		<g>
			<polygon class="st3" points="385.9,386.2 374.8,425.6 379.1,446.6 395.8,464.5 427.2,476.2 400.1,456.5 388.4,440.5 408.2,450.3 
				389.7,426.8 388.4,404.1 			"/>
			<path d="M427.9,476.6l-32.2-12L379,446.6l0,0l-4.3-21l0,0l11.2-39.9l2.5,18.4l1.3,22.7l18.8,23.8l-19.8-9.9l11.5,15.7
				L427.9,476.6z M395.8,464.4l30.7,11.5L400,456.6l-12-16.4l19.8,9.8l-18.2-23.1l0,0l-1.3-22.8l-2.4-17.3l-10.9,38.9l4.3,20.9
				L395.8,464.4z"/>
		</g>
		<g>
			<polygon class="st3" points="206.4,378.8 215.6,418.3 212,439.2 198.1,457.1 171.9,468.8 194.5,449.1 204.3,433 187.8,442.9 
				203.3,419.5 204.3,396.7 			"/>
			<path d="M171.2,469.2l23.2-20.2l9.6-15.7l-16.5,9.9l15.7-23.8l1-22.8l2.2-18.5l9.4,40.1l0,0l-3.6,21l-13.9,17.9L171.2,469.2z
				 M204.6,432.7l-10,16.5l-22.1,19.3l25.6-11.4l13.9-17.8l3.6-20.9l-9.1-38.8l-2,17.2l-1,22.8l0,0l-15.2,23L204.6,432.7z"/>
		</g>
	</g>
	<g>
		<path class="st3" d="M255.7,358.9c2.9,37.1,35.4,35.9,44.6,1.8c0.7-25.9-9.4-42-32.6-46.5c-26.7,2-41.3,23.3-40.1,58.5
			c3.9,48.4,21.6,78.6,44.3,102.2c-35-16.7-63.4-44.8-68.7-113.8c0.8-36.6,13.2-68.4,44.7-92.2c25.3-18.9,56.2-25.8,93-20.7
			c36.7,5.1,55,19.7,62.6,31.8c7.6,12.2,5,23-7.8,32.8c-4.2,1.6-6.7,5-6.9,11c3.3,8.9,1.7,14.3-5,16.1
			c-20.4,9.6-37.6,30.4-52.6,58.5c-28.1,24-51.8,28.1-70.4,8.3C253.1,395.5,250.8,380,255.7,358.9z"/>
		<path d="M280.9,481.5l-9.9-4.7c-20.6-9.8-35.3-21.9-46.3-38c-13.4-19.5-21.1-44.8-23.5-77.5l0-0.1l0-0.1
			c0.9-40.6,15.8-71.3,45.5-93.8c25.6-19.1,57.4-26.2,94.5-21.1c41.5,5.8,57.9,23,64.1,32.7c8.2,13.1,5.4,25-8.3,35.4l-0.2,0.2
			l-0.3,0.1c-3.6,1.4-5.4,4.2-5.6,8.8c2,5.5,2.2,9.8,0.5,13.1c-1.3,2.5-3.6,4.3-6.9,5.2c-18.8,8.9-35.6,27.8-51.5,57.6l-0.2,0.3
			l-0.3,0.2c-16.6,14.2-31.7,21.3-45,21.3c-10.5,0-19.9-4.4-28.2-13.2l-0.2-0.2c-8.3-12.2-10.1-28.9-5.3-49.5l2.9-12.7l1,13
			c1.2,15,7.6,24.8,16.8,25.7c11.5,1.1,20.4-11.7,23.8-24c0.6-25.5-9.4-40-30.7-44.2c-25.3,2-39.2,22.6-38,56.5
			c3.4,41.7,16.8,72.8,43.7,100.9L280.9,481.5z M205.2,361.1c2.4,31.9,9.9,56.5,22.8,75.4c8.8,12.8,20,23,34.9,31.5
			c-22.6-26.7-34.2-56.5-37.3-95.2c-1.3-36.5,14-58.6,41.9-60.7l0.3,0l0.3,0c23.5,4.5,35,20.8,34.2,48.5l0,0.2l-0.1,0.2
			c-5.4,20.1-18,28.1-28.1,27.2c-7-0.7-14.7-5.9-18.4-18.2c-1.8,14.5,0.4,26.1,6.6,35.3c17.3,18.2,39.3,15.5,67.3-8.3
			c16.3-30.5,33.7-49.8,53.3-59.1l0.3-0.1c2.3-0.6,3.8-1.7,4.5-3.2c1.1-2.3,0.9-5.7-0.8-10.3l-0.1-0.4l0-0.4
			c0.2-6.4,2.9-10.7,7.9-12.7c11.8-9,14.1-18.8,7.1-29.9c-5.7-9.2-21.3-25.4-61.2-30.9c-36-4.9-66.8,1.9-91.6,20.4
			C220.4,292.3,206,321.9,205.2,361.1z"/>
	</g>
	<g>
		<path class="st8" d="M413,306c13.8,20.2-0.2,33.1-20,50.3c10.2,0.1,18.6,2.3,24.8,7.5l0.9,4l6,0.6c5.3,5.9,7.3,15.9,7.2,28.7
			C450.9,365.6,452.5,338.6,413,306z"/>
		<path d="M429.8,404.4l0.1-7.3c0.1-12.8-1.9-21.6-6.2-26.8l-6.7-0.7l-1.1-4.7c-5.4-4.3-12.9-6.5-23-6.6l-5.3-0.1l4-3.4
			c21-18.1,32.2-29.3,19.7-47.6l-8-11.7l10.9,9c19.3,15.9,29.8,31.4,32.1,47.2c2,13.9-2,28.6-12.8,46.4L429.8,404.4z M420.3,365.8
			l5.4,0.6l0.5,0.6c4.4,4.9,6.9,12.4,7.5,22.8c13.4-24.9,14.8-48-14.3-75.5c5,15.7-6.8,27.4-21.4,40.2c8.9,0.8,15.8,3.3,21,7.7
			l0.5,0.4L420.3,365.8z"/>
	</g>
	<g>
		<path class="st8" d="M349.6,374.8c15.2-9.7,67.8-26.7,65.7-1.9l5.6-0.5c3.7,1.7,6,4.5,7.1,8.2c-9.7,4.8-25.1,3.1-41.5-2.4
			C378.7,373.1,366,372.3,349.6,374.8z"/>
		<path d="M413.8,385.4c-9.5,0-19.8-2.6-28-5.4l-0.2-0.1l-0.2-0.1c-7-4.5-18.9-5.6-35.5-3.1l-9.3,1.4l7.9-5.1
			c12.4-7.9,49-20.8,63-12.3c3.6,2.2,5.5,5.5,5.7,9.9l3.9-0.4l0.5,0.2c4.2,2,7,5.2,8.2,9.5l0.5,1.6l-1.5,0.7
			C424.5,384.6,419.3,385.4,413.8,385.4z M387.4,376.4c16.1,5.4,29.5,6.5,38.2,3.2c-1-2.2-2.6-3.9-5-5.1l-7.4,0.7l0.2-2.4
			c0.3-4-0.9-6.8-3.8-8.5c-9.4-5.7-33.7,0.5-49.5,7.4C372.1,370.9,381.1,372.4,387.4,376.4z"/>
	</g>
	<g>
		<path class="st2" d="M387.6,300.5c-4.3,7.3-2,2.7-12.4,7.5c-1.2,6.1,0.5,12.6,4.8,19.5c-9.1-1.1-16.6,1.2-23.6,5.2
			c-6.3,3-13.3,3.1-20.7,1.4c-9.1-4-17.9-11.2-26.3-22.5c6.5-6.5,13.8-11.2,21.8-14l-5.2,7.8c7.4-0.7,14-0.2,19.2,2.2
			c-4.1-0.4-7.5,0.8-10.1,3.4c0.8,5.3,3.7,8.1,7.9,8.9c4,0.4,7.2-1.2,9.5-5c1.4-2.7,2.8-1.1,1.1-4.6c3,2.3,2.8,1.5,2.1,7
			c-1.7,4.5-4.6,7.3-8.7,8.4c-3.9,0.6-7.8,0.1-11.7-2.6c-2.5-3-3.8-6.5-3.4-10.6l-6.6,3.7c1.2,5.6,4.2,10.4,9.8,13.8
			c6.6,2.4,13.2,2.2,19.8-0.4c5.8-4.8,9.1-11.2,8.6-20.1l-3.2-7.8C375.9,303.4,378.8,310.6,387.6,300.5z"/>
		<path class="st9" d="M344.7,337.2c-3,0-6.2-0.4-9.5-1.2l-0.3-0.1c-9.7-4.2-18.8-12-27.1-23.2l-1-1.4l1.2-1.2
			c6.7-6.7,14.3-11.6,22.6-14.4l5.6-1.9l-6.2,9.4c6.5-0.2,11.8,0.6,16.2,2.6l4,1.8l-2.1-4.2l6.8,5.3c0.3,0.2,0.6,0.4,0.8,0.6
			c2.8,2.1,2.8,3,2.2,7.2l-0.2,1.3l-0.1,0.2c-2,5.1-5.4,8.3-10.1,9.6l-0.2,0c-4.9,0.8-9.2-0.1-13.2-2.9l-0.2-0.2l-0.2-0.2
			c-2.2-2.6-3.4-5.5-3.8-8.5l-2.4,1.3c1.3,4.7,4,8.3,8.4,11c5.8,2.1,11.8,1.9,17.9-0.4c5.5-4.6,8-10.4,7.6-17.9l-4.3-10.6l3.4,0.4
			c5.3,0.6,9.2,1.8,12.3,2.8c6.2,1.9,8.2,2.5,13.3-3.2l3.2,2.3c-2.7,4.5-3.3,5.2-6.2,5.8c-1.2,0.2-2.9,0.6-6.1,2
			c-0.7,5.2,0.8,10.8,4.7,17.1l2.2,3.5l-4.1-0.5c-7.7-0.9-14.8,0.7-22.4,4.9l-0.1,0.1C353.4,336.3,349.3,337.2,344.7,337.2z
			 M363.5,304.1l2,4.8l0,0.3c0.5,8.3-2.1,15.1-7.8,20.4c6.3-3.2,12.4-4.6,18.7-4.5c-3.3-6.3-4.3-12.1-3.2-17.6l0.2-0.8
			c-0.6-0.2-1.2-0.4-1.8-0.5C369.4,305.6,366.7,304.7,363.5,304.1z M312,311.7c5.9,7.6,12.1,13.5,18.7,17.5
			c-3.8-3.3-6.3-7.6-7.4-12.7l-0.3-1.4l11.3-6.2l0,0.2c0.7-0.6,1.5-1.2,2.3-1.7c-3-0.3-6.5-0.3-10.4,0.1l-4.2,0.4l3.9-5.8
			C321,304.4,316.3,307.7,312,311.7z M336.7,321.5c3,2,6.2,2.7,9.9,2.1c3.3-0.9,5.7-3.2,7.2-6.9l0-0.1c-2.7,4-6.4,5.7-10.9,5.2
			l-0.2,0c-4.4-0.9-7.4-3.6-8.8-7.8C333.8,316.7,334.8,319.2,336.7,321.5z M343.4,317.9c3.3,0.3,5.6-1,7.5-4c0.5-0.9,1-1.4,1.4-1.8
			c-0.1-0.2-0.2-0.5-0.4-0.9l-0.5-1.1l-6.3-0.6c-3.1-0.3-5.7,0.4-7.7,2.1C338.1,315.2,340,317.2,343.4,317.9z"/>
	</g>
	<g>
		<path class="st8" d="M344.2,328.2c8.2,0,14.9-6.3,14.9-13.9s-6.7-13.9-14.9-13.9c-8.2,0-14.9,6.3-14.9,13.9S336,328.2,344.2,328.2
			z"/>
		<path class="st10" d="M344.2,328.3c-8.3,0-15-6.3-15-14s6.7-14,15-14c8.3,0,15,6.3,15,14S352.5,328.3,344.2,328.3z M344.2,300.5
			c-8.2,0-14.8,6.2-14.8,13.8s6.6,13.8,14.8,13.8c8.2,0,14.8-6.2,14.8-13.8S352.4,300.5,344.2,300.5z"/>
	</g>
	<g>
		<polygon class="st3" points="404.1,313.7 399.9,318.8 398.8,324.2 401.6,327.6 405.6,325.7 406.4,320.6 405.4,317.3 406.4,314.3 
					"/>
		<path d="M401.6,327.7l-2.9-3.4l1.1-5.5l4.2-5.2l2.5,0.6l-1,3l0.9,3.3l0,0l-0.7,5.2L401.6,327.7z M398.9,324.2l2.7,3.2l3.9-1.8
			l0.7-5l-0.9-3.3l0.9-2.9l-2.1-0.5l-4.1,5L398.9,324.2z"/>
	</g>
	<g>
		<polygon class="st2" points="329.3,315.6 339.5,310.7 347.9,307.9 350.7,307.3 334.4,303.9 324.3,309.1 		"/>
		<path class="st9" d="M329.3,315.7l-5.2-6.7l0.1-0.1l10.1-5.3l16.9,3.5l-3.3,0.8l-8.4,2.8L329.3,315.7z M324.4,309.2l4.9,6.3
			l10.1-4.9l8.4-2.8l2.3-0.5l-15.8-3.3L324.4,309.2z"/>
	</g>
	<g>
		<path class="st3" d="M344.5,320.7c4,0,7.1-3.2,7.1-7.1s-3.2-7.1-7.1-7.1c-3.9,0-7.1,3.2-7.1,7.1S340.6,320.7,344.5,320.7z"/>
		<path d="M344.5,320.8c-4,0-7.2-3.2-7.2-7.2s3.2-7.2,7.2-7.2c4,0,7.2,3.2,7.2,7.2S348.5,320.8,344.5,320.8z M344.5,306.7
			c-3.8,0-6.9,3.1-6.9,6.9s3.1,6.9,6.9,6.9c3.9,0,7-3.1,7-6.9S348.4,306.7,344.5,306.7z"/>
	</g>
	<path class="st11" d="M267,540.7c-2.4,1.2-5.2,1.8-8.4,2.1c-3.1,0.3-5.9-0.1-8.3-1.1c-2.4-1-4.3-2.6-5.8-4.7
		c-1.4-2.2-2.2-4.7-2.4-7.6c-0.3-3.1,0.1-6,1.3-8.5c1.2-2.6,2.9-4.6,5.3-6.2c2.3-1.5,5.1-2.4,8.4-2.7c2.5-0.2,5-0.1,7.5,0.3l0.7,8.3
		c-0.9-0.4-1.9-0.7-3-0.9c-1.2-0.1-2.4-0.2-3.5-0.1c-2.4,0.2-4.2,1.1-5.5,2.6c-1.3,1.6-1.8,3.5-1.6,5.9c0.1,2.4,1,4.2,2.6,5.4
		c1.5,1.2,3.4,1.8,5.8,1.6c2.2-0.2,4.3-0.9,6.4-2.2L267,540.7z"/>
	<path class="st11" d="M290.4,540.5l-1.6-5.4l-4.9,0.2v-6.3l2.9-0.1l-2.5-8c-0.1-0.4-0.2-0.9-0.4-1.2V511l5-0.3l11.2,29.2
		L290.4,540.5z M284,535.3l-4,0.2l-1.1,5.5l-9.7,0.5l8.7-30.2l6.1-0.3v8.6c-0.1-0.7-0.3-1.4-0.4-2.1h-0.2c0,0.4-0.1,0.9-0.1,1.7
		c-0.1,0.8-0.8,4.1-2,9.9l2.8-0.1V535.3z"/>
	<path class="st11" d="M329.6,525.8c0,4.8-1.1,8.4-3.3,10.7c-2.2,2.3-5.5,3.5-10.1,3.5c-4.2,0-7.4-1.2-9.6-3.5
		c-2.2-2.3-3.3-5.8-3.3-10.5v-16.3h9.1v16.6c0,1.9,0.4,3.4,1.1,4.4c0.6,1.1,1.7,1.6,3,1.6c1.4,0,2.4-0.5,3.1-1.4c0.6-1,1-2.4,1-4.3
		v-16.8h9.1V525.8z"/>
	<path class="st11" d="M350.6,539.7l-2.1-6.4c-0.4-1-0.7-1.9-1.2-2.5v-8c0.6-0.1,1.2-0.4,1.7-0.9c0.8-0.6,1.2-1.5,1.2-2.5
		s-0.3-1.8-0.9-2.4c-0.4-0.4-1.1-0.7-1.9-0.9v-6.3h0.3c4.2,0.1,7.3,0.9,9.2,2.2c1.9,1.4,3,3.5,2.9,6.2c-0.1,2-0.6,3.7-1.8,5.1
		c-1.2,1.4-3,2.3-5.3,2.9v0.1c1.3,0.4,2.3,1,3.1,1.9c0.9,0.9,1.6,2.2,2.2,3.9l2.8,7.6L350.6,539.7z M347.2,530.8
		c-0.1-0.2-0.3-0.4-0.4-0.5c-0.6-0.7-1.4-1.1-2.2-1.1h-0.3l-0.2,10.4l-9-0.1l0.6-29.7l11.6,0.1v6.3c-0.3,0-0.6-0.1-0.9-0.1h-1.9
		l-0.1,6.8l1.7,0.1c0.4,0,0.8-0.1,1.2-0.1V530.8z"/>
	<path class="st11" d="M364.2,540.5l2-29.7l18.6,1.3l-0.5,7l-9.6-0.6l-0.3,4.3l8.9,0.6l-0.4,7l-9-0.6l-0.3,4.4l10.2,0.7l-0.5,7
		L364.2,540.5L364.2,540.5z M377.3,508.9l-6.3-0.4l6.7-6.2l7.4,0.5L377.3,508.9z"/>
</g>
</svg>
