<?xml version="1.0" encoding="utf-8"?>
<!-- Generator: Adobe Illustrator 21.0.2, SVG Export Plug-In . SVG Version: 6.00 Build 0)  -->
<svg version="1.1" id="Camada_1" xmlns="http://www.w3.org/2000/svg" xmlns:xlink="http://www.w3.org/1999/xlink" x="0px" y="0px"
	 viewBox="0 0 595 842" style="enable-background:new 0 0 595 842;" xml:space="preserve">
<style type="text/css">
	.st0{fill-rule:evenodd;clip-rule:evenodd;fill:#C33739;}
	.st1{fill-rule:evenodd;clip-rule:evenodd;fill:#2B6D37;}
	.st2{fill-rule:evenodd;clip-rule:evenodd;fill:#FFFFFF;}
	.st3{fill-rule:evenodd;clip-rule:evenodd;}
	.st4{fill-rule:evenodd;clip-rule:evenodd;fill:#956433;}
	.st5{fill:#956433;}
	.st6{fill-rule:evenodd;clip-rule:evenodd;fill:#E2AE74;}
	.st7{fill:#E2AE74;}
	.st8{fill-rule:evenodd;clip-rule:evenodd;fill:#E6B32F;}
	.st9{fill:#FFFFFF;}
	.st10{fill:#FEEE00;}
	.st11{fill:#050006;}
</style>
<g>
	<path class="st0" d="M318.2,202.7c-115.8,0-209.7,90.3-209.7,201.6s93.9,201.6,209.7,201.6c115.8,0,209.7-90.3,209.7-201.6
		S434,202.7,318.2,202.7z"/>
	<path d="M104.5,404.3c0-113.4,95.9-205.6,213.7-205.6c117.8,0,213.7,92.2,213.7,205.6S436,609.9,318.2,609.9
		C200.4,609.9,104.5,517.7,104.5,404.3z M112.5,404.3c0,109,92.3,197.6,205.7,197.6c113.4,0,205.7-88.6,205.7-197.6
		s-92.3-197.6-205.7-197.6C204.8,206.7,112.5,295.4,112.5,404.3z"/>
</g>
<path class="st1" d="M319.8,222.3c-104.5,0-189.4,81.5-189.4,182c0,100.4,84.8,181.9,189.4,181.9c104.5,0,189.3-81.5,189.3-181.9
	C509.1,303.8,424.3,222.3,319.8,222.3z"/>
<path class="st0" d="M318.2,551c-84.1,0-152.6-65.9-152.6-146.7s68.5-146.7,152.6-146.7c84,0,152.6,66,152.6,146.7
	S402.3,551,318.2,551z"/>
<g>
	<path class="st2" d="M318.2,267.2c-78.8,0-142.8,61.4-142.8,137.2s63.9,137.2,142.8,137.2c78.8,0,142.7-61.4,142.7-137.2
		S397,267.2,318.2,267.2z"/>
	<path d="M262.6,530.8c-17-6.9-32.3-16.8-45.4-29.4c-13.1-12.6-23.4-27.3-30.6-43.6c-7.5-16.9-11.2-34.9-11.2-53.4
		s3.8-36.5,11.2-53.4c7.2-16.3,17.5-31,30.6-43.6c13.1-12.6,28.4-22.5,45.4-29.4c17.6-7.2,36.3-10.8,55.6-10.8
		c19.3,0,38,3.6,55.6,10.8c17,6.9,32.3,16.8,45.4,29.4c13.1,12.6,23.4,27.3,30.6,43.6c7.5,16.9,11.2,34.9,11.2,53.4
		s-3.8,36.5-11.2,53.4c-7.2,16.3-17.5,31-30.6,43.6c-13.1,12.6-28.4,22.5-45.4,29.4c-17.6,7.2-36.3,10.8-55.6,10.8
		C298.9,541.6,280.2,538,262.6,530.8z M262.7,278c-17,6.9-32.2,16.8-45.3,29.4C204.3,320,194,334.7,186.8,351
		c-7.4,16.9-11.2,34.8-11.2,53.3s3.8,36.4,11.2,53.3c7.2,16.3,17.5,31,30.6,43.6c13.1,12.6,28.4,22.5,45.3,29.4
		c17.6,7.1,36.3,10.8,55.5,10.8c19.2,0,37.9-3.6,55.5-10.8c17-6.9,32.2-16.8,45.3-29.4c13.1-12.6,23.4-27.2,30.6-43.6
		c7.4-16.9,11.2-34.8,11.2-53.3s-3.8-36.4-11.2-53.3c-7.2-16.3-17.5-31-30.6-43.6c-13.1-12.6-28.3-22.5-45.3-29.4
		c-17.6-7.1-36.2-10.8-55.5-10.8C299,267.3,280.3,270.9,262.7,278z"/>
</g>
<g>
	<path class="st2" d="M453.8,503.2c0.7,29-14,25.5-37.5,25.5l-213.4-4c-31.5,0-14-18.5-3-41c13.5-27,51.5-48,79-61.5
		c15.6-7.5,30.9-5.6,52.1-7.5C397.4,408.8,451.3,400.9,453.8,503.2z"/>
	<path d="M423.1,536.7c-2.2,0-4.4-0.1-6.8-0.1l-213.5-4c-8,0-19.1-1-23.8-9.1c-5.3-9.1,0.6-19.7,7.5-31.9c2.1-3.7,4.3-7.6,6.2-11.6
		c14.6-29.2,54.1-51.2,82.7-65.1c12.8-6.2,25-6.7,39.1-7.3c5-0.2,10.2-0.4,15.7-0.9l5.9-0.5c38.4-3.4,74.7-6.7,98.6,14.7
		c17.3,15.4,26.1,42.3,27.1,82.1c0.3,12.6-2.1,21-7.5,26.5c-6.4,6.4-15.2,7.3-25.3,7.3C427,536.8,425.1,536.8,423.1,536.7z
		 M337.5,422.1l-5.9,0.5c-5.9,0.5-11.3,0.8-16.4,1c-12.9,0.6-23,1-32.8,5.7c-26.4,12.9-62.9,33-75.3,57.8c-2.1,4.3-4.4,8.4-6.6,12.3
		c-2.9,5.2-7.2,12.8-7.5,15.9c0.9,0.4,3.6,1.3,9.9,1.3l213.5,4c2.4,0,4.7,0,7,0.1c9,0.1,16.8,0.3,19.6-2.5c1.4-1.5,3.1-5.2,2.9-14.8
		v0c-0.9-35.2-8-58.3-21.8-70.6c-11.4-10.2-27.6-13.1-46.7-13.1C365.1,419.7,351.7,420.9,337.5,422.1z"/>
</g>
<g>
	<path class="st2" d="M509.9,596.8l-77.5-22.2l-1.2-15.8c-82.2-12.1-157.5-10.9-226.2,3.4l-0.4,14.8l-77.1,19.9
		c4-13,10.4-22.7,18.1-30.5c-10.2-7.1-17.6-13.7-18.1-18.9l39.5-13.5v-21.1c90.3-26.6,201-29.4,304.2,0v21.8l38.7,12.8
		c3.5,3.2-11.6,13.2-17.4,19.8C498.3,577,507.7,586,509.9,596.8z"/>
	<path d="M428.6,577.7l-1.2-15.3c-78.6-11.3-152.1-10.2-218.6,3.2l-0.4,14.6l-87,22.4l2.1-6.9c3.4-11.1,8.7-20.5,15.9-28.7
		c-10.7-7.9-15.6-13.7-16.1-19.2l-0.3-3.1L163,531v-21.2l2.9-0.8c95.6-28.2,207.3-28.2,306.4,0l2.9,0.8v21.9l36.8,12.2l0.6,0.6
		c1.2,1.1,1.8,2.6,1.8,4.2c0,4.1-4.1,7.8-11.3,14.1c-1.9,1.7-3.9,3.4-5.5,5c1.5,2.2,3.1,4.5,4.8,6.8c4.8,6.6,9.8,13.4,11.5,21.5
		l1.3,6.5L428.6,577.7z M201,558.9l3.1-0.6c69.1-14.3,145.7-15.5,227.6-3.4l3.2,0.5l1.3,16.2l67.4,19.3c-2-3.9-4.7-7.7-7.6-11.6
		c-2.3-3.2-4.8-6.5-6.8-10l-1.4-2.5l1.9-2.2c2.1-2.4,5.3-5.2,8.3-7.8c2.2-1.9,5.4-4.7,7.2-6.7l-37.9-12.5v-21.7
		c-96-26.7-203.6-26.7-296.2,0v21l-38.3,13.1c1.8,2.6,5.9,6.8,15.2,13.2l3.9,2.7l-3.3,3.4c-6.3,6.4-11.2,13.6-14.6,21.9l66.8-17.2
		L201,558.9z"/>
</g>
<g>
	<path class="st3" d="M186,573.7c-6.3-0.9-14-1.6-21.5-2.4c-1.9-9.9-0.3-23.3-0.8-34.6c-13.3,2.4-23.5,7.8-36.3,10.7
		c2.4,6.8,12.7,12.5,18.1,18.9c-6,10.3-13,19.4-18.1,30.5c18.6-6.6,38-12.4,58.5-17.1v3c-22.6,5.5-44,12.2-65.2,19.1
		c6.2-12.2,14-22.9,20.6-34.6c-6-7.8-14.6-12.8-20.6-20.7c14.7-4.2,28.9-8.9,42.9-14v-22.2c7.1-2.1,14.5-4,22.2-5.8v3.3
		c-6.6,1.5-12.9,3.2-19,5V568c6.1-1.7,12.5-3.4,19-4.9v3.1l-12.4,2.7c3.8,1.1,8.1,1.9,12.4,2.5V573.7z M204.9,574.6
		c0.2-2.7,0.4-9.2,0-12.4l-18.9,4v-3.1c78.9-18.3,186.2-18.2,265.4-0.1v3.3c-5.9-1.2-12-2.2-17.4-4c-3.6,1.1-0.7,8.6-1.7,12.4
		c6.6-0.9,12.7-2.3,19-3.4v3.1c-4.2,0.6-8.4,1.2-12.4,1.9c4.1,1.2,8.2,2.2,12.4,3.3v3c-7.3-1.7-14.7-3.3-22.2-4.7v-16.5
		c-65.4-11.9-156.8-13.1-220.9,0.8v15.7c-7.6,1.4-15,3.1-22.2,4.8v-3c4-0.9,8.2-1.9,12.4-2.7c-1.2-1.4-6-2.5-12.4-3.4v-2.3
		C192.4,572.4,198.9,573.2,204.9,574.6L204.9,574.6z M451.4,504.5v3.2c-78.9-18.1-186.8-18.2-265.4,0.1v-3.3
		C265.4,486.4,371.9,486.3,451.4,504.5z M473.6,510.3v23c15.4,3.3,27.9,9.4,42.8,13.2c-5.5,8.6-15.5,12.6-20.6,21.5
		c7.9,10.5,14.3,22.6,21.5,33.8c-21.8-6.6-43.1-13.7-66-19.2v-3c19.9,5.3,40.3,10.2,58.5,17.3c-3.2-9.2-12.1-19.8-17.4-29.7
		c3.6-8.4,15.8-12.2,17.4-19.8c-12.8-2.9-22.9-8.5-36.3-10.7v33.8c-7.1,1.7-14.7,2.8-22.2,3.9v-3.1c4-0.6,8.1-1.2,12.4-1.6
		c-3.7-1.5-8.1-2.5-12.4-3.4v-3.3c6.8,1.6,13.4,3.2,19.8,5v-55.2c-6.4-1.9-13-3.5-19.8-5.1v-3.2
		C459.1,506.3,466.5,508.1,473.6,510.3z"/>
	<path d="M516.2,605.6c-5.5-1.7-11.1-3.4-16.6-5.1c-22.6-7-45.9-14.2-71.2-18.7l-3.3-0.6v-4.8l-4.1-1.2l4.1-0.7v-9.9
		c-67.5-11.8-153.9-11.5-212.9,0.7v15.8l-3.2,0.6c-31.6,6.1-60.3,15.1-86.9,23.8l-9.2,3l4.3-8.6c3.7-7.3,8-14.1,12.1-20.7
		c2.4-3.8,4.9-7.7,7.2-11.7c-2.4-2.7-5.1-5.1-8-7.6c-3.8-3.3-7.7-6.7-10.9-11l-3.5-4.6l5.6-1.6c13.3-3.8,26.4-8.1,40-12.9v-22.4
		l2.9-0.8c89.1-26.2,223.3-26.2,312.1,0l2.9,0.8v22.8c7.4,1.8,14.1,4.2,20.7,6.5c6.1,2.1,12.5,4.4,19.1,6l5.4,1.4l-3,4.7
		c-3,4.7-7,8-10.9,11.2c-3.1,2.6-6,5-8.2,8c4.6,6.3,8.6,13.2,12.6,19.8c2.4,4,4.8,8.1,7.3,12l5.8,9.1L516.2,605.6z M171,576
		c-2.3-0.2-4.6-0.5-6.9-0.7l-2.9-0.3l-0.5-2.9c-0.2-1-0.3-2-0.5-3l-2.9-0.8l2.7-0.6c-0.6-5.6-0.4-11.7-0.3-17.7
		c0.1-2.8,0.1-5.6,0.1-8.4c-5.2,1.2-10,2.9-15,4.7c-3.6,1.3-7.3,2.5-11.2,3.7c1.8,2.1,4.4,4.2,6.8,6.3c2.9,2.4,5.8,4.9,8.1,7.6
		l1.8,2.2l-1.4,2.5c-2.2,3.8-4.6,7.5-6.9,11.1c-2.2,3.5-4.4,6.9-6.4,10.3c14.6-4.9,29.5-9.1,44.6-12.8
		C177.1,576.6,173.9,576.3,171,576z M492.4,546.2c-4.9-1.8-9.7-3.4-14.8-4.6V571l3.3,1.3l-3.3,0.3v1l-3.1,0.7
		c-5.2,1.2-10.7,2.2-16.2,3c1,0.3,2.1,0.5,3.1,0.8c13.5,3.5,27.5,7.2,40.5,11.6c-1.6-2.8-3.5-5.6-5.4-8.4c-2.7-4-5.4-8.2-7.6-12.3
		l-0.9-1.7l0.8-1.8c2.1-4.9,6.4-8.3,10.2-11.4c1.8-1.5,3.6-2.9,4.9-4.2C499.9,548.8,496.1,547.5,492.4,546.2z M436.2,567.1
		c0,0.7,0.1,1.4,0.2,2c0,0.3,0.1,0.6,0.1,0.9c2.3-0.4,4.5-0.8,6.7-1.2C440.8,568.2,438.4,567.7,436.2,567.1z M194.2,568.6
		c2.3,0.3,4.7,0.7,7,1.1c0-0.9,0-1.8,0-2.6L194.2,568.6z M319,498c-0.1,0-0.2,0-0.4,0c-54.8,0-107.1,6.3-147.7,17.8v46.9
		c85.1-23.2,210.1-23.2,296.2,0v-46.9C426.3,504.3,373.8,498,319,498z"/>
</g>
<g>
	<path class="st4" d="M377.6,287.7c52.8,17.4,34.7,74.7,34.7,111.3c0,5.8,32.8,86.8,24.5,78.5c-9-9-21.9-25.1-21.9-4.5
		c0,10.3-9,1.3-11.6-2.6c-3.2-5.1-7.7,9.6-27.6,0c-2.6-1.2-38.5-8.4-39.8-6.4c-7.1,10.3-5.8-3.2-24.5-3.2c-1.9,0-10.9,3.9-14.2,4.5
		c-21.2,5.1,14.8-27.1-3.2-18c-20.6,10.3-25.1,22.5-15.5-6.5c3.9-12.9-25.7,11.6-25.7,5.2c0-12.2-5.2-61.7-14.2-80.4
		c-4.5-9.6-36.6-35.4-21.2-50.8c7.1-7.1,14.8-38.6,32.8-2.5C295.3,402.3,334.5,287.7,377.6,287.7z"/>
	<path class="st5" d="M436.7,477.6c-1.1-1.1-2.1-2.2-3.3-3.4c-5.6-5.8-11.9-12.4-15.5-10.9c-2,0.8-3,4.1-3,9.7c0,2.8-0.7,4.4-2,4.8
		c-2.9,0.9-8.2-4.8-9.8-7.3c-1.1-1.8-2.3-1.1-4.5,0.2c-3.9,2.2-10.3,6-23.1-0.2c-1.3-0.6-11.2-2.7-20.4-4.4
		c-11.6-2.1-18.8-2.8-19.3-2.1c-1.7,2.5-3,3.7-4.2,3.9c-1.3,0.2-2.5-0.6-4.1-1.8c-2.9-2.1-7.2-5.2-16.2-5.2c-1,0-4.2,1.1-7.2,2.2
		c-2.7,1-5.5,2-7,2.3c-3.6,0.9-5.8,0.7-6.7-0.5c-1.5-2.2,1.9-7.4,5-12c2.1-3.2,4.1-6.2,3.5-7c-0.4-0.5-2.1,0-4.9,1.4
		c-5.9,3-10.5,6.1-13.9,8.3c-3.5,2.4-5.4,3.7-6.2,3.1c-1.1-0.9,0.2-5.1,4.5-18c0.5-1.7,0.5-2.8-0.2-3.3c-1.8-1.5-8.1,2-13.7,5.1
		c-5.1,2.8-9.8,5.4-11.3,4.5c-0.3-0.2-0.5-0.5-0.5-1c0-12.3-5.2-61.7-14.2-80.4c-1.2-2.5-4.3-6.3-8-10.6c-5-5.9-11.2-13.2-14.7-20.4
		c-4.1-8.4-3.6-14.9,1.5-20c1.5-1.5,3.1-4.2,4.7-7c3.5-6,7.4-12.7,12.8-12.5c4.8,0.2,9.8,5.7,15.5,17c10.5,21.1,21.4,32.2,33.1,34.2
		c7.4,1.2,15.4-1.2,24.4-7.5c8.1-5.6,16.3-13.7,24.2-21.5c14.7-14.6,30-29.7,45.5-29.7l0,0c19,6.2,30.5,18.2,35.2,36.5
		c4.1,16,2.5,34.9,1,51.6c-0.7,8.3-1.4,16.2-1.4,23.3c0,2.2,4.9,15.6,10.5,31c10,27.4,16.9,47,15.1,48.1c-0.1,0-0.1,0.1-0.2,0.1
		C437.4,478.2,437.1,478,436.7,477.6z M332.2,317.5c-7.9,7.8-16.1,15.9-24.2,21.5c-9.1,6.3-17.1,8.8-24.6,7.6
		c-11.8-1.9-22.7-13.2-33.3-34.3c-5.6-11.2-10.6-16.8-15.3-16.9c-0.1,0-0.1,0-0.2,0c-5.2,0-9,6.6-12.4,12.4c-1.7,2.8-3.2,5.5-4.8,7
		c-11.2,11.3,2.9,27.9,13.2,40.1c3.7,4.3,6.8,8,8,10.6c9,18.7,14.2,68.2,14.2,80.5c0,0.4,0.1,0.7,0.4,0.8c1.4,0.8,6.1-1.8,11.1-4.5
		c5.9-3.2,12.1-6.6,14-5c0.7,0.6,0.8,1.7,0.2,3.6c-3.8,11.4-5.6,17-4.5,17.8c0.7,0.5,2.8-0.9,6-3.1c3.3-2.3,7.9-5.4,13.9-8.4
		c3-1.5,4.7-2,5.2-1.4c0.8,0.9-1.1,3.7-3.5,7.2c-2.9,4.3-6.4,9.7-5,11.8c0.8,1.1,2.9,1.2,6.4,0.4c1.5-0.3,4.3-1.3,6.9-2.3
		c3.2-1.2,6.2-2.3,7.3-2.3c9,0,13.4,3.2,16.3,5.3c1.6,1.2,2.7,2,4,1.8c1.2-0.2,2.4-1.4,4.1-3.8c0.8-1.2,12.6,0.7,19.5,2
		c9.3,1.7,19.1,3.8,20.4,4.4c12.6,6.1,19,2.4,22.9,0.2c2.2-1.3,3.6-2.1,4.8-0.1c2,3,6.9,8,9.6,7.2c1.2-0.4,1.8-1.9,1.8-4.6
		c0-5.8,1-9.1,3.1-9.9c3.7-1.5,10.1,5.1,15.7,11c1.1,1.2,2.2,2.3,3.3,3.4c0.5,0.5,0.8,0.6,1,0.5c1.8-1.2-7.6-27.1-15.2-47.9
		c-5.6-15.5-10.5-28.8-10.5-31.1c0-7.1,0.7-15,1.4-23.3c1.4-16.7,3.1-35.6-1-51.5c-4.7-18.2-16.1-30.1-35-36.4
		C362.1,287.9,346.9,302.9,332.2,317.5z"/>
</g>
<g>
	<polygon class="st6" points="286.8,374.8 251.3,361.6 231.5,364.1 227.7,348.2 223.3,331.4 218.9,312.9 229,297.2 250.2,312.2 
		251.7,330.7 271,346.9 298.5,377 	"/>
	<path class="st7" d="M286.7,374.9l-35.5-13.2l-19.7,2.4l-0.1,0l-3.9-15.9l-4.3-16.8l-4.4-18.6l0,0l10.1-15.7l0.1-0.1l21.3,15.1l0,0
		l1.5,18.4l19.3,16.3l27.5,30l0.2,0.2L286.7,374.9z M229.1,297.3l-10,15.6l4.4,18.5l4.3,16.8l3.9,15.7l19.6-2.4l0,0l35.5,13.2
		l11.4,2.1L270.9,347l-19.3-16.3l-1.5-18.4L229.1,297.3z"/>
</g>
<g>
	<g>
		<polygon class="st3" points="250.5,386.2 261.6,425.6 257.2,446.6 240.6,464.5 209.2,476.2 236.3,456.5 248,440.5 228.2,450.3 
			246.7,426.8 248,404.1 		"/>
		<path d="M236.2,456.4l11.5-15.7l-19.8,9.9l18.8-23.8l1.3-22.7l2.5-18.4l11.2,39.9l0,0l-4.3,21l0,0l-16.7,17.9l-32.2,12
			L236.2,456.4z M257.1,446.5l4.3-20.9l-10.9-38.9l-2.4,17.3l-1.3,22.8l0,0L228.6,450l19.8-9.8l-12,16.4l-26.5,19.3l30.7-11.5
			L257.1,446.5z"/>
	</g>
	<g>
		<polygon class="st3" points="430,378.8 420.8,418.3 424.4,439.2 438.3,457.1 464.5,468.8 441.9,449.1 432.1,433 448.6,442.9 
			433.1,419.5 432.1,396.7 		"/>
		<path d="M438.2,457.2l-13.9-17.9l-3.6-21l0,0l9.4-40.1l2.2,18.5l1,22.8l15.7,23.8l-16.5-9.9l9.6,15.7l23.2,20.2L438.2,457.2z
			 M448.2,442.6l-15.2-23l0,0l-1-22.8l-2-17.2l-9.1,38.8l3.6,20.9l13.9,17.8l25.6,11.4l-22.1-19.3l-10-16.5L448.2,442.6z"/>
	</g>
</g>
<g>
	<path class="st3" d="M380.7,358.9c-2.9,37.1-35.4,35.9-44.6,1.8c-0.7-25.9,9.4-42,32.6-46.5c26.7,2,41.3,23.3,40.1,58.5
		c-3.9,48.4-21.6,78.6-44.3,102.2c35-16.7,63.4-44.8,68.7-113.8c-0.8-36.6-13.2-68.4-44.7-92.2c-25.3-18.9-56.2-25.8-93-20.7
		c-36.7,5.1-55,19.7-62.6,31.8s-5,23,7.8,32.8c4.2,1.6,6.7,5,6.9,11c-3.3,8.9-1.7,14.3,5,16.1c20.4,9.6,37.6,30.4,52.6,58.5
		c28.1,24,51.8,28.1,70.4,8.3C383.2,395.5,385.6,380,380.7,358.9z"/>
	<path d="M363.1,473.6c26.9-28.1,40.4-59.2,43.7-100.9c1.2-33.8-12.7-54.4-38-56.5c-21.3,4.2-31.4,18.7-30.7,44.2
		c3.4,12.4,12.3,25.1,23.8,24c9.2-0.9,15.6-10.7,16.8-25.7l1-13l2.9,12.7c4.8,20.6,3,37.2-5.3,49.5l-0.2,0.2
		c-8.3,8.8-17.7,13.2-28.2,13.2c-13.3,0-28.4-7.1-45-21.3l-0.3-0.2l-0.2-0.3c-15.9-29.8-32.7-48.7-51.5-57.6c-3.3-1-5.6-2.7-6.9-5.2
		c-1.7-3.3-1.5-7.6,0.5-13.1c-0.3-4.7-2-7.5-5.6-8.8l-0.3-0.1l-0.2-0.2c-13.8-10.4-16.6-22.3-8.3-35.4c6.1-9.7,22.6-27,64.1-32.7
		c37.1-5.1,68.9,2,94.5,21.1c29.7,22.5,44.6,53.2,45.5,93.8l0,0.1l0,0.1c-2.5,32.6-10.2,58-23.5,77.5c-11,16.1-25.7,28.1-46.3,38
		l-9.9,4.7L363.1,473.6z M387.3,270.6c-24.7-18.4-55.5-25.3-91.6-20.4c-39.9,5.6-55.5,21.7-61.2,30.9c-7,11.1-4.7,20.9,7.1,29.9
		c5,2,7.7,6.3,7.9,12.7l0,0.4l-0.1,0.4c-1.7,4.6-2,8-0.8,10.3c0.8,1.5,2.3,2.6,4.5,3.2l0.3,0.1c19.6,9.2,37,28.6,53.3,59.1
		c28,23.8,50,26.5,67.3,8.3c6.2-9.2,8.4-20.8,6.6-35.3c-3.7,12.3-11.4,17.6-18.4,18.2c-10.1,0.9-22.7-7.1-28.1-27.2l-0.1-0.2l0-0.2
		c-0.8-27.7,10.8-44,34.2-48.5l0.3,0l0.3,0c27.9,2.1,43.2,24.2,41.9,60.7c-3.1,38.7-14.7,68.5-37.3,95.2
		c14.9-8.5,26.1-18.7,34.9-31.5c12.9-18.9,20.4-43.6,22.8-75.4C430.3,321.9,416,292.3,387.3,270.6z"/>
</g>
<g>
	<path class="st8" d="M223.4,306c-13.8,20.2,0.2,33.1,20,50.3c-10.2,0.1-18.6,2.3-24.8,7.5l-0.9,4l-6,0.6
		c-5.3,5.9-7.3,15.9-7.2,28.7C185.5,365.6,183.9,338.6,223.4,306z"/>
	<path d="M202.8,398.1C192,380.3,188,365.6,190,351.7c2.3-15.8,12.8-31.3,32.1-47.2l10.9-9l-8,11.7c-12.5,18.3-1.3,29.5,19.7,47.6
		l4,3.4l-5.3,0.1c-10.1,0.1-17.6,2.3-23,6.6l-1.1,4.7l-6.7,0.7c-4.3,5.2-6.3,14-6.2,26.8l0.1,7.3L202.8,398.1z M216.9,362.6l0.5-0.4
		c5.2-4.4,12.1-6.9,21-7.7C223.8,341.7,212,330,217,314.3c-29.1,27.5-27.7,50.7-14.3,75.5c0.7-10.5,3.1-18,7.5-22.8l0.5-0.6l5.4-0.6
		L216.9,362.6z"/>
</g>
<g>
	<path class="st8" d="M286.8,374.8c-15.2-9.7-67.8-26.7-65.7-1.9l-5.6-0.5c-3.7,1.7-6,4.5-7.1,8.2c9.7,4.8,25.1,3.1,41.5-2.4
		C257.7,373.1,270.4,372.3,286.8,374.8z"/>
	<path d="M207.5,382.4l-1.5-0.7l0.5-1.6c1.2-4.3,4-7.5,8.2-9.5l0.5-0.2l3.9,0.4c0.2-4.4,2.2-7.7,5.7-9.9c14-8.5,50.7,4.4,63,12.3
		l7.9,5.1l-9.3-1.4c-16.6-2.5-28.5-1.4-35.5,3.1l-0.2,0.1l-0.2,0.1c-8.2,2.8-18.5,5.4-28,5.4C217.1,385.4,211.9,384.6,207.5,382.4z
		 M276.3,371.6c-15.7-6.9-40.1-13-49.5-7.4c-2.9,1.7-4.1,4.5-3.8,8.5l0.2,2.4l-7.4-0.7c-2.3,1.2-4,2.9-5,5.1
		c8.6,3.3,22,2.2,38.2-3.2C255.3,372.4,264.2,370.9,276.3,371.6z"/>
</g>
<g>
	<path class="st2" d="M248.8,300.5c4.3,7.3,2,2.7,12.4,7.5c1.2,6.1-0.5,12.6-4.8,19.5c9.1-1.1,16.6,1.2,23.6,5.2
		c6.3,3,13.3,3.1,20.7,1.4c9.1-4,17.9-11.2,26.3-22.5c-6.5-6.5-13.8-11.2-21.8-14l5.2,7.8c-7.4-0.7-14-0.2-19.2,2.2
		c4.1-0.4,7.5,0.8,10.1,3.4c-0.8,5.3-3.7,8.1-7.9,8.9c-4,0.4-7.2-1.2-9.5-5c-1.4-2.7-2.8-1.1-1.1-4.6c-3,2.3-2.8,1.5-2.1,7
		c1.7,4.5,4.6,7.3,8.7,8.4c3.9,0.6,7.8,0.1,11.7-2.6c2.5-3,3.8-6.5,3.4-10.6l6.6,3.7c-1.2,5.6-4.2,10.4-9.8,13.8
		c-6.6,2.4-13.2,2.2-19.8-0.4c-5.8-4.8-9.1-11.2-8.6-20.1l3.2-7.8C260.5,303.4,257.6,310.6,248.8,300.5z"/>
	<path class="st9" d="M279.2,334.5l-0.1-0.1c-7.6-4.3-14.7-5.9-22.4-4.9l-4.1,0.5l2.2-3.5c3.9-6.3,5.5-11.9,4.7-17.1
		c-3.2-1.4-5-1.8-6.1-2c-2.9-0.6-3.5-1.3-6.2-5.8l3.2-2.3c5.1,5.8,7.1,5.2,13.3,3.2c3.1-1,7-2.2,12.3-2.8l3.4-0.4l-4.3,10.6
		c-0.3,7.5,2.1,13.3,7.6,17.9c6.1,2.3,12.1,2.4,17.9,0.4c4.3-2.7,7.1-6.3,8.4-11l-2.4-1.3c-0.4,3-1.6,5.9-3.8,8.5l-0.2,0.2l-0.2,0.2
		c-4,2.8-8.3,3.8-13.2,2.9l-0.2,0c-4.7-1.2-8.1-4.5-10.1-9.6l-0.1-0.2l-0.2-1.3c-0.6-4.1-0.6-5.1,2.2-7.2c0.2-0.2,0.5-0.4,0.8-0.6
		l6.8-5.3l-2.1,4.2l4-1.8c4.4-2,9.7-2.8,16.2-2.6l-6.2-9.4l5.6,1.9c8.3,2.9,15.9,7.7,22.6,14.4l1.2,1.2l-1,1.4
		c-8.3,11.2-17.4,19-27.1,23.2l-0.3,0.1c-3.4,0.8-6.5,1.2-9.5,1.2C287.1,337.2,283,336.3,279.2,334.5z M264.8,306.2
		c-0.6,0.2-1.2,0.4-1.8,0.5l0.2,0.8c1.1,5.6,0.1,11.4-3.2,17.6c6.4-0.1,12.5,1.3,18.7,4.5c-5.6-5.3-8.2-12.1-7.8-20.4l0-0.3l2-4.8
		C269.7,304.7,267,305.6,264.8,306.2z M310.5,301.9l3.9,5.8l-4.2-0.4c-3.9-0.4-7.3-0.4-10.4-0.1c0.8,0.5,1.6,1,2.3,1.7l0-0.2
		l11.3,6.2l-0.3,1.4c-1.1,5.1-3.5,9.4-7.4,12.7c6.6-4,12.8-9.9,18.7-17.5C320.1,307.7,315.4,304.4,310.5,301.9z M302.6,314
		c-1.4,4.2-4.4,6.9-8.8,7.8l-0.2,0c-4.6,0.5-8.3-1.2-10.9-5.2l0,0.1c1.5,3.7,3.9,6,7.2,6.9c3.7,0.6,7-0.1,9.9-2.1
		C301.6,319.2,302.5,316.7,302.6,314z M299.1,311.7c-2.1-1.7-4.6-2.4-7.7-2.1l-6.3,0.6l-0.5,1.1c-0.2,0.4-0.3,0.7-0.4,0.9
		c0.4,0.4,0.9,0.9,1.4,1.8c1.8,3.1,4.2,4.3,7.5,4C296.3,317.2,298.3,315.2,299.1,311.7z"/>
</g>
<g>
	<path class="st8" d="M292.2,328.2c-8.2,0-14.9-6.3-14.9-13.9s6.7-13.9,14.9-13.9c8.2,0,14.9,6.3,14.9,13.9S300.4,328.2,292.2,328.2
		z"/>
	<path class="st10" d="M277.2,314.3c0-7.7,6.7-14,15-14c8.3,0,15,6.3,15,14s-6.7,14-15,14C283.9,328.3,277.2,322,277.2,314.3z
		 M277.4,314.3c0,7.6,6.6,13.8,14.8,13.8c8.2,0,14.8-6.2,14.8-13.8s-6.6-13.8-14.8-13.8C284,300.5,277.4,306.7,277.4,314.3z"/>
</g>
<g>
	<polygon class="st3" points="232.3,313.7 236.5,318.8 237.6,324.2 234.8,327.6 230.8,325.7 230,320.6 231,317.3 230,314.3 	"/>
	<path d="M230.7,325.8l-0.7-5.2l0,0l0.9-3.3l-1-3l2.5-0.6l4.2,5.2l1.1,5.5l-2.9,3.4L230.7,325.8z M236.4,318.9l-4.1-5l-2.1,0.5
		l0.9,2.9l-0.9,3.3l0.7,5l3.9,1.8l2.7-3.2L236.4,318.9z"/>
</g>
<g>
	<polygon class="st2" points="307.1,315.6 296.9,310.7 288.5,307.9 285.7,307.3 302,303.9 312.1,309.1 	"/>
	<path class="st9" d="M296.9,310.8l-8.4-2.8l-3.3-0.8l16.9-3.5l10.1,5.3l0.1,0.1l-5.2,6.7L296.9,310.8z M302,304l-15.8,3.3l2.3,0.5
		l8.4,2.8l10.1,4.9l4.9-6.3L302,304z"/>
</g>
<g>
	<path class="st3" d="M291.9,320.7c-4,0-7.1-3.2-7.1-7.1s3.2-7.1,7.1-7.1c3.9,0,7.1,3.2,7.1,7.1S295.8,320.7,291.9,320.7z"/>
	<path d="M284.6,313.7c0-4,3.2-7.2,7.2-7.2c4,0,7.2,3.2,7.2,7.2s-3.2,7.2-7.2,7.2C287.9,320.8,284.6,317.6,284.6,313.7z
		 M284.9,313.7c0,3.8,3.1,6.9,7,6.9c3.8,0,6.9-3.1,6.9-6.9s-3.1-6.9-6.9-6.9C288,306.7,284.9,309.8,284.9,313.7z"/>
</g>
<path class="st11" d="M267,540.7c-2.4,1.2-5.2,1.8-8.4,2.1c-3.1,0.3-5.9-0.1-8.3-1.1c-2.4-1-4.3-2.6-5.8-4.7
	c-1.4-2.2-2.2-4.7-2.4-7.6c-0.3-3.1,0.1-6,1.3-8.5c1.2-2.6,2.9-4.6,5.3-6.2c2.3-1.5,5.1-2.4,8.4-2.7c2.5-0.2,5-0.1,7.5,0.3l0.7,8.3
	c-0.9-0.4-1.9-0.7-3-0.9c-1.2-0.1-2.4-0.2-3.5-0.1c-2.4,0.2-4.2,1.1-5.5,2.6c-1.3,1.6-1.8,3.5-1.6,5.9c0.1,2.4,1,4.2,2.6,5.4
	c1.5,1.2,3.4,1.8,5.8,1.6c2.2-0.2,4.3-0.9,6.4-2.2L267,540.7z"/>
<path class="st11" d="M290.4,540.5l-1.6-5.4l-4.9,0.2v-6.3l2.9-0.1l-2.5-8c-0.1-0.4-0.2-0.9-0.4-1.2V511l5-0.3l11.2,29.2
	L290.4,540.5z M284,535.3l-4,0.2l-1.1,5.5l-9.7,0.5l8.7-30.2l6.1-0.3v8.6c-0.1-0.7-0.3-1.4-0.4-2.1h-0.2c0,0.4-0.1,0.9-0.1,1.7
	c-0.1,0.8-0.8,4.1-2,9.9l2.8-0.1V535.3z"/>
<path class="st11" d="M329.6,525.8c0,4.8-1.1,8.4-3.3,10.7c-2.2,2.3-5.5,3.5-10.1,3.5c-4.2,0-7.4-1.2-9.6-3.5
	c-2.2-2.3-3.3-5.8-3.3-10.5v-16.3h9.1v16.6c0,1.9,0.4,3.4,1.1,4.4c0.6,1.1,1.7,1.6,3,1.6c1.4,0,2.4-0.5,3.1-1.4c0.6-1,1-2.4,1-4.3
	v-16.8h9.1V525.8z"/>
<path class="st11" d="M350.6,539.7l-2.1-6.4c-0.4-1-0.7-1.9-1.2-2.5v-8c0.6-0.1,1.2-0.4,1.7-0.9c0.8-0.6,1.2-1.5,1.2-2.5
	s-0.3-1.8-0.9-2.4c-0.4-0.4-1.1-0.7-1.9-0.9v-6.3h0.3c4.2,0.1,7.3,0.9,9.2,2.2c1.9,1.4,3,3.5,2.9,6.2c-0.1,2-0.6,3.7-1.8,5.1
	c-1.2,1.4-3,2.3-5.3,2.9v0.1c1.3,0.4,2.3,1,3.1,1.9c0.9,0.9,1.6,2.2,2.2,3.9l2.8,7.6L350.6,539.7z M347.2,530.8
	c-0.1-0.2-0.3-0.4-0.4-0.5c-0.6-0.7-1.4-1.1-2.2-1.1h-0.3l-0.2,10.4l-9-0.1l0.6-29.7l11.6,0.1v6.3c-0.3,0-0.6-0.1-0.9-0.1h-1.9
	l-0.1,6.8l1.7,0.1c0.4,0,0.8-0.1,1.2-0.1V530.8z"/>
<path class="st11" d="M364.2,540.5l2-29.7l18.6,1.3l-0.5,7l-9.6-0.6l-0.3,4.3l8.9,0.6l-0.4,7l-9-0.6l-0.3,4.4l10.2,0.7l-0.5,7
	L364.2,540.5L364.2,540.5z M377.3,508.9l-6.3-0.4l6.7-6.2l7.4,0.5L377.3,508.9z"/>
</svg>
