<?xml version="1.0" encoding="utf-8"?>
<!-- Generator: Adobe Illustrator 21.0.2, SVG Export Plug-In . SVG Version: 6.00 Build 0)  -->
<svg version="1.1" id="Camada_1" xmlns="http://www.w3.org/2000/svg" xmlns:xlink="http://www.w3.org/1999/xlink" x="0px" y="0px"
	 viewBox="0 0 595 842" style="enable-background:new 0 0 595 842;" xml:space="preserve">
<style type="text/css">
	.st0{fill-rule:evenodd;clip-rule:evenodd;fill:#303C8C;}
	.st1{fill-rule:evenodd;clip-rule:evenodd;fill:#B64745;}
	.st2{fill-rule:evenodd;clip-rule:evenodd;fill:#FFFFFF;}
	.st3{fill-rule:evenodd;clip-rule:evenodd;}
	.st4{fill-rule:evenodd;clip-rule:evenodd;fill:#F1D7A6;}
	.st5{fill-rule:evenodd;clip-rule:evenodd;fill:#FEEE00;}
	.st6{fill-rule:evenodd;clip-rule:evenodd;fill:#F1CF00;}
</style>
<g>
	<g>
		<path class="st0" d="M310.8,132.2c135.7,0,245.8,105.8,245.8,236.3c0,130.4-110.1,236.2-245.8,236.2S65,498.8,65,368.5
			C65,238,175.1,132.2,310.8,132.2z"/>
		<path d="M310.8,608.6C173.1,608.6,61,500.9,61,368.5C61,236,173.1,128.2,310.8,128.2S560.6,236,560.6,368.5
			C560.6,500.9,448.6,608.6,310.8,608.6z M310.8,136.2C177.5,136.2,69,240.4,69,368.5c0,128,108.5,232.2,241.8,232.2
			s241.8-104.1,241.8-232.2C552.6,240.4,444.1,136.2,310.8,136.2z"/>
	</g>
	<path class="st1" d="M310.8,155.1c122.5,0,221.9,95.5,221.9,213.3c0,117.7-99.4,213.2-221.9,213.2c-122.5,0-221.9-95.5-221.9-213.2
		C88.9,250.7,188.3,155.1,310.8,155.1z"/>
	<path class="st0" d="M310.8,540.3c98.5,0,178.9-77.3,178.9-171.9c0-94.8-80.4-172-178.9-172S132,273.7,132,368.5
		C132,463.1,212.3,540.3,310.8,540.3z"/>
	<g>
		<path class="st2" d="M310.8,207.6c92.4,0,167.3,72,167.3,160.8c0,88.7-74.9,160.7-167.3,160.7c-92.3,0-167.3-72-167.3-160.7
			C143.6,279.6,218.5,207.6,310.8,207.6z"/>
		<path d="M310.8,529.3c-22.6,0-44.5-4.3-65.1-12.6c-19.9-8.1-37.8-19.7-53.2-34.5c-15.4-14.8-27.4-32-35.9-51.1
			c-8.7-19.8-13.2-40.9-13.2-62.6c0-21.7,4.4-42.8,13.2-62.7c8.4-19.2,20.5-36.4,35.9-51.2c15.4-14.8,33.3-26.4,53.2-34.5
			c20.6-8.4,42.5-12.6,65.1-12.6c22.6,0,44.5,4.3,65.1,12.6c19.9,8.1,37.8,19.7,53.2,34.5c15.4,14.8,27.4,32,35.9,51.2
			c8.7,19.8,13.2,40.9,13.2,62.7c0,21.7-4.4,42.8-13.2,62.6c-8.4,19.1-20.5,36.3-35.9,51.1c-15.4,14.8-33.3,26.4-53.2,34.5
			C355.3,525,333.4,529.3,310.8,529.3z M310.8,207.7c-22.5,0-44.4,4.2-65,12.6c-19.9,8.1-37.8,19.7-53.1,34.4
			c-15.4,14.8-27.4,32-35.8,51.1c-8.7,19.8-13.1,40.9-13.1,62.6c0,21.7,4.4,42.7,13.1,62.5c8.4,19.1,20.5,36.3,35.8,51
			c15.4,14.8,33.2,26.3,53.1,34.4c20.6,8.4,42.5,12.6,65,12.6c22.6,0,44.5-4.2,65.1-12.6c19.9-8.1,37.8-19.7,53.1-34.4
			c15.3-14.8,27.4-31.9,35.8-51c8.7-19.8,13.1-40.8,13.1-62.5c0-21.7-4.4-42.8-13.1-62.6c-8.4-19.1-20.5-36.3-35.8-51.1
			c-15.3-14.8-33.2-26.4-53.1-34.4C355.3,212,333.4,207.7,310.8,207.7z"/>
	</g>
	<g>
		<path class="st3" d="M344.2,332.7c29.5,23.6,233.1,193.5,77.3,157.7c-48.1-11-101.4-9.3-153.5-9.3c-38.2,0-81,15.8-108.9,15.8
			c-37.3,0-40.8-128.4,13-145.2c37.2-12.1,62.3,1.2,95.9,10.2C286.5,367,327.4,333.7,344.2,332.7z"/>
		<path d="M159,505c-16.9,0-29.7-17.4-34.1-46.6c-3.3-21.7-1.5-46.7,4.9-67c7.9-25.2,21.7-41.5,39.9-47.2c32.4-10.5,56.5-3.1,82,4.7
			c5.9,1.8,12,3.7,18.3,5.4c7.6,2,26-8,39.5-15.3c13.6-7.4,25.3-13.8,34.3-14.3l3.1-0.2l2.4,1.9c1.8,1.4,44.1,35.4,81.8,73
			c18.8,18.7,33,35,42.4,48.4c13.2,18.9,17,32.4,12.1,42.6c-9,18.5-41.9,13.3-65.9,7.8c-41.5-9.5-88-9.3-133-9.1
			c-6.2,0-12.5,0-18.7,0c-19.8,0-40.8,4.4-61.1,8.7C189.3,501.5,172.7,505,159,505z M201.5,355c-8.4,0-17.2,1.3-27,4.5
			c-9.1,2.9-21.6,11.5-29.5,36.8c-5.7,18.1-7.3,40.4-4.3,59.8c3,19.7,10.4,33,18.3,33c12,0,27.8-3.3,44.5-6.8c20.1-4.2,43-9,64.4-9
			c6.2,0,12.4,0,18.6,0c45.9-0.2,93.4-0.4,136.7,9.5c34.3,7.9,46.3,4.2,47.9,0.8c0.7-1.5,5.4-16.1-51.4-72.6
			c-32.2-32-67.7-61.4-77.8-69.6c-6,1.6-15.9,7-24.8,11.9c-18.4,10-37.5,20.4-51.3,16.7c-6.6-1.8-12.9-3.7-18.9-5.5
			C230.8,359.3,216.9,355,201.5,355z"/>
	</g>
	<g>
		<path class="st2" d="M86.2,594L177,568l1.4-18.5c96.3-14.2,184.5-12.7,265.1,4l0.4,17.4l90.4,23.3c-4.7-15.2-12.2-26.6-21.2-35.8
			c12-8.3,20.7-16,21.2-22.2L488,520.2v-24.8c-105.8-31.2-235.5-34.3-356.4,0v25.6l-45.4,15c-4.1,3.7,13.5,15.5,20.3,23.2
			C99.7,570.8,88.8,581.3,86.2,594z"/>
		<path d="M80.9,599.7l1.3-6.5c1.9-9.3,7.7-17.3,13.3-25c2.1-2.9,4.1-5.6,5.9-8.4c-1.9-1.9-4.4-4-6.7-6.1
			c-8.4-7.3-13.1-11.7-13.1-16.2c0-1.7,0.7-3.3,1.9-4.4l0.6-0.6l43.5-14.3v-25.8l2.9-0.8c116-33,246.8-33,358.6,0l2.9,0.8v24.9
			l46.6,15.9l-0.3,3.1c-0.6,6.3-6.4,13.1-19.2,22.4c8.8,9.8,15,21,19,34l2.1,6.8l-100.2-25.8l-0.4-17.2
			c-78.3-15.8-164.9-17.1-257.4-3.7l-1.4,18.1L80.9,599.7z M447.9,567.7l80.2,20.6c-4.1-10.3-10-19.3-17.8-27.2l-3.3-3.4l3.9-2.7
			c11.5-8,16.5-13.1,18.5-16.4L484,523.1v-24.6c-108.9-31.4-235.5-31.4-348.4,0V524l-45,14.8c2.1,2.5,6.5,6.3,9.4,8.8
			c3.5,3,7.1,6.2,9.5,8.9l1.9,2.2l-1.5,2.5c-2.4,4-5.2,7.9-7.9,11.7c-3.7,5.1-7.3,10-9.7,15.2l80.9-23.2l1.5-18.9l3.2-0.5
			c95.9-14.1,185.5-12.8,266.5,4l3.1,0.6L447.9,567.7z"/>
	</g>
	<g>
		<path class="st3" d="M465.8,564.2c5-0.8,9.9-1.7,14.5-3l-14.5-3.1v-3.7c7.6,1.8,15,3.7,22.2,5.8v-64.7c-7.1-2.1-14.5-4-22.2-5.8
			v-3.9c9,2.1,17.7,4.3,26.1,6.8v26.1c16.3,5.9,33,11.4,50.3,16.4c-7,9.2-17.1,15.1-24.2,24.2c7.8,13.8,16.9,26.3,24.2,40.5
			c-24.8-8.1-49.9-15.9-76.3-22.3V574c24,5.5,46.7,12.3,68.5,20c-6-13-14.3-23.7-21.2-35.8c6.4-7.5,18.5-14.3,21.2-22.2
			c-14.9-3.5-26.9-9.8-42.5-12.6c-0.6,13.2,1.2,28.9-0.9,40.6c-8.8,0.9-17.9,1.8-25.1,2.8V564.2z M443.6,568
			c7-1.7,14.8-2.6,22.2-3.7v2.7c-7.6,1-13.2,2.2-14.5,4c4.9,1,9.7,2.1,14.5,3.2v3.5c-8.6-2-17.2-4-26.1-5.7v-18.4
			c-75.1-16.3-182.2-14.8-258.8-0.9v19.3c-8.9,1.7-17.6,3.5-26.1,5.5v-3.5c4.8-1.3,9.7-2.6,14.5-3.9c-4.8-0.9-9.6-1.6-14.5-2.3V564
			c7.4,1.3,14.6,2.9,22.2,4c-1.2-4.4,2.3-13.2-1.9-14.5c-6.3,2.2-13.4,3.3-20.3,4.7v-3.8c92.8-21.2,218.5-21.3,311,0.1v3.7
			l-22.2-4.7C443.2,557.2,443.4,564.8,443.6,568L443.6,568z M465.8,485.8v3.9c-92.2-21.6-218.6-21.5-311-0.2v-3.7
			C247.8,464.5,372.7,464.6,465.8,485.8z M154.8,485.8v3.7c-8,1.9-15.8,3.8-23.2,6v64.7c7.4-2.1,15.2-4.1,23.2-5.9v3.8
			c-5.1,1.1-10.2,2.2-14.5,4c5,0.4,9.8,1.1,14.5,1.9v3.6c-8.9-1.3-17.9-2.5-26.1-4.5v-39.7c-15.8,2.7-27.5,9.2-42.6,12.6
			c1.7,8.9,16.1,13.5,20.3,23.2c-6.1,11.6-16.6,24-20.3,34.8c21.3-8.3,45.2-14,68.6-20.2v3.5c-26.8,6.6-51.7,14.8-77.3,22.5
			c8.5-13.1,15.8-27.3,25.1-39.6c-6-10.4-17.7-15-24.1-25.1c17.4-4.4,32.2-11.6,50.3-15.4v-27.1
			C137.1,490.1,145.8,487.8,154.8,485.8z"/>
		<path d="M68.2,606.7l5.9-9.1c3.1-4.8,6.1-9.8,9-14.7c4.6-7.7,9.3-15.6,14.6-22.9c-2.7-3.7-6.3-6.7-10-9.8
			c-4.5-3.7-9.2-7.6-12.6-13l-3-4.7l5.4-1.4c7.7-1.9,15.1-4.5,22.2-7c7.9-2.8,16.1-5.6,25.1-7.7v-26.9l2.9-0.8
			c104-30.6,261.1-30.6,365.4,0l2.9,0.8v26.2c16.8,6,32.4,11.1,47.4,15.4l5.6,1.6l-3.5,4.6c-3.8,5-8.4,9-12.8,12.9
			c-3.5,3.1-6.8,6-9.7,9.2c2.8,4.7,5.7,9.4,8.6,13.9c4.9,7.8,10,15.8,14.3,24.4l4.4,8.6l-9.2-3c-31.4-10.2-65.2-20.8-102-27.9
			l-3.2-0.6v-18.4c-69.4-14.4-171.4-14.7-250.8-0.8v12.8l2.3,0.4l-2.3,0.7v5.4l-3.3,0.6c-29.6,5.4-56.8,13.8-83.1,21.9
			c-6.5,2-13.2,4.1-19.8,6L68.2,606.7z M468.6,570.6c19.3,4.5,38.3,9.9,57.6,16.4c-2.6-4.6-5.4-9-8.4-13.6
			c-2.7-4.2-5.5-8.6-8.2-13.2l-1.4-2.5l1.8-2.1c2.6-3.1,6.1-6,9.4-8.8c3.2-2.7,6.6-5.5,8.8-8.3c-4.9-1.4-9.6-3-14.1-4.6
			c-6.1-2.1-12-4.2-18.4-5.7c0,3.6,0,7.4,0.1,11c0.2,7.1,0.3,14.4-0.4,20.9l1,0.2l-1.1,0.3c-0.2,1.3-0.3,2.7-0.6,3.9l-0.5,2.9
			l-3,0.3c-2.7,0.3-5.4,0.6-8.1,0.9C478.9,569.4,473.5,569.9,468.6,570.6z M91.9,538.8c1.6,2,4,3.9,6.6,5.9c4.4,3.5,9.3,7.4,11.7,13
			l0.8,1.8l-0.9,1.7c-2.6,4.8-5.8,9.8-9,14.5c-2.5,3.8-5,7.6-7.1,11.3c15.8-5.5,32.7-9.9,49.1-14.1c2.3-0.6,4.6-1.2,6.9-1.8
			c-7.5-1.1-15.1-2.3-22.1-3.9l-3.1-0.7v-1.5l-1.4-0.1l1.4-0.6v-35.8c-6.4,1.5-12.2,3.5-18.3,5.7C101.8,535.7,97,537.3,91.9,538.8z
			 M160.8,561.1c1,0.2,2,0.4,3,0.6c3,0.6,6,1.1,9.1,1.6c0-0.6,0.1-1.2,0.2-1.9c0.1-0.9,0.2-2.2,0.2-3.2
			C169.2,559.4,165,560.2,160.8,561.1z M447.4,558.3c0,1.5,0,3.2,0,4.7c4-0.8,8.1-1.4,12.2-2c0.2,0,0.4-0.1,0.6-0.1L447.4,558.3z
			 M135.6,498.5v56.4c101.1-27.5,248.6-27.5,348.4,0v-56.4c-47.7-13.5-109.3-21-173.8-21c-0.1,0-0.2,0-0.4,0
			C245.3,477.5,183.6,485,135.6,498.5z"/>
	</g>
	<path class="st4" d="M371.9,214.4c-0.8-1.4,0.2-0.9,0.3-1c1.2-3.8-0.2-7.1-3.4-7.3c-0.1,0-0.3,0-0.4,0v-12.6
		c5.6,2.2,10.7,4.9,15,8.2c-4.6,7.8-8.4,15.1-12.2,23.4c-0.9,0.1-1.9,0.2-2.8,0.4v-5.9C369.7,218.1,370.7,216.2,371.9,214.4z
		 M368.3,206.2c-6.5,0.1-4,10.4-2.5,15.6c1-0.5,1.8-1.2,2.5-2.1v5.9c-5.2,0.8-9.8,2.2-13.7,4.2c-0.9,0.8-0.7,2.5-1.5,3.4
		c-15.6-0.6-31,0.1-44,3.2c-6,1.4-11.9,3.8-17.6,6c-3.2,1.2-6.3,2.4-9.4,3.5v-31.5c8.3,1.2,17.5,0.3,24.3-2.4
		c3.2-1.2,5.5-3.1,8.3-4.8c-1,0.6,2.7-1.3,2.7-1.9c-10.6-4.5-22.5-7.6-35.3-9.8v-29.7c18.3,3.5,31.2,11.7,43.8,22.2
		c15.7-0.8,30.4,1.1,42.4,5.6V206.2L368.3,206.2z M282.2,355.2v-76.4c1.4-0.5,3-0.9,4.5-1.4c-2.6,13.9,8,18.4,16.5,22.9
		c21.7,11.4,42.8,26,51,51.8c5.3,16.3,4.3,36.3-1.7,50.3c-5.9,13.8-14.8,24.3-26.2,32c3-14-2.1-27.2-7.6-37.2
		c-4.2-7.6-9-13.8-14.3-19.9C297.4,369.3,289.9,362,282.2,355.2L282.2,355.2z M282.2,271.8c6.3-2.5,13.5-4.4,20.4-6.3
		c17.1-4.6,35.9-6.7,50.1-13.8c-1.2-4-0.9-9.8-0.7-13.9c-11.9-0.3-23.9,0.6-33.6,2.2c-3.7,0.6-7,1.9-10,2.2c0.1,0-0.9-1.1-0.2,0
		c-8.4,2.7-16.7,6.7-26.1,9.9V271.8L282.2,271.8z M282.2,209.4c6.1,0.4,12.7-0.6,18-2.5c-3-2.2-7.1-3-11.1-4.1
		c-2.2-0.6-4.5-1.3-6.9-1.9V209.4z M282.2,165.7v29.7c-11.2-1.9-23-3.2-35.4-3.8c1.8,3.3,5.8,3.9,10.9,4.6
		c8.5,1.2,16.8,2.7,24.4,4.7v8.5c-4.8-0.3-9.4-1.4-12.7-3.7c-1.9-1.3-2.7-3.7-5.8-3.1c2.3,6.8,9.9,10.6,18.6,11.9v31.5
		c-2.7,0.9-5.5,1.8-8.1,2.6c-12.2,3.5-29.4,3-40.8-0.7c-11.9-3.8-21.3-12.2-20.7-26.3c0.2-6.8,2.7-12.2,5-18c-1.5-0.5-2.4,1.8-3.1,3
		c-3.3,5.6-6,12.7-5.1,22.1c1.8,18.9,21.3,27.2,42.6,28.2c11.5,0.6,21.3-1.7,30.2-4.7v19.8c-8.8,3.5-16.3,8.4-20.5,16.5
		c2.4,0.2,3.7-2,5.5-3.1c4.4-2.7,9.5-4.7,15-6.4v76.4c-4.7-4.1-9.4-8.1-14.3-12c-13.2-10.7-27.2-20-39.4-31.1
		c-20-18.2-39.6-44.3-40.3-81.6c0-0.3,0-0.5,0-0.7v-2.3c0.3-26.6,12.5-41.8,32.1-51.9c15.4-8,36.4-13.6,58.1-10.4
		C279.6,165.3,280.9,165.5,282.2,165.7z"/>
	<g>
		<path class="st5" d="M271.1,206.7c3.4,2.1,15.6,5.1,19.5,3.2c1.2-0.6,4-1.3,5.2-1.7c2.2-0.7,8.6-1.3,3-3.6
			c-6.2-2.4-12.1-5.9-19.9-5.9c-1.4,0-3.6,0.2-5-0.1c-1.1-0.4-0.9,0.6-0.9,1.3C273,200.6,268.5,206.5,271.1,206.7z"/>
		<path d="M287,210.6c-5.2,0-13.2-2.1-15.9-3.8c-0.4,0-0.7-0.2-0.8-0.4c-0.5-0.9,0.8-3.2,1.8-4.9c0.4-0.7,0.8-1.5,0.8-1.7
			c0-0.1,0-0.2,0-0.2c0-0.5,0-0.9,0.3-1.1c0.2-0.1,0.4-0.1,0.8,0c1,0.3,2.5,0.2,3.7,0.2c0.4,0,0.8,0,1.2,0c6.2,0,11.2,2.2,16,4.3
			c1.3,0.5,2.6,1.1,3.9,1.6c1.7,0.7,2.4,1.2,2.4,1.8c-0.1,0.8-1.9,1.2-3.7,1.6c-0.6,0.1-1.2,0.3-1.7,0.4c-0.4,0.2-1.1,0.4-1.9,0.6
			c-1.2,0.4-2.6,0.8-3.3,1.1C289.8,210.4,288.5,210.6,287,210.6z M273.5,198.6c-0.1,0-0.2,0-0.2,0.1c-0.2,0.1-0.2,0.6-0.2,1
			c0,0.1,0,0.2,0,0.2c0,0.2-0.3,0.8-0.9,1.8c-0.9,1.5-2.2,3.8-1.7,4.6c0.1,0.2,0.3,0.3,0.6,0.3l0.1,0c3.5,2.2,15.5,5.1,19.4,3.2
			c0.7-0.4,2.1-0.8,3.3-1.1c0.7-0.2,1.4-0.4,1.9-0.6c0.4-0.1,1-0.3,1.7-0.4c1.5-0.3,3.4-0.8,3.5-1.4c0-0.3-0.3-0.8-2.2-1.6
			c-1.3-0.5-2.6-1.1-3.9-1.6c-4.8-2.1-9.8-4.3-16-4.3c-0.3,0-0.8,0-1.2,0c-1.3,0-2.8,0.1-3.8-0.2
			C273.8,198.6,273.6,198.6,273.5,198.6z"/>
	</g>
	<path class="st3" d="M263.6,202.6c3.2-0.6,3.9,1.8,5.8,3.1c7.7,5.2,21.3,4.5,30.7,1.2c-3-2.2-7.1-3-11.1-4.1
		c-9.4-2.8-20.2-5-31.3-6.6c-5.1-0.7-9.1-1.3-10.9-4.6c26.6,1.5,50.9,5.3,70.6,13.6c0,0.6-3.7,2.6-2.7,1.9c-2.7,1.7-5.1,3.6-8.3,4.8
		C292.5,217.6,268,215.7,263.6,202.6z"/>
	<g>
		<path class="st6" d="M325.9,187.9c-8.2,7.1,31.9,19.4-0.8,32.3c-32,12.7-51.6,25.1-88.8,25.1c-21,0-2.2,10.2,2.3,10.2
			c8.1,0,22,3.8,33.4,3.8c14,0,24.1-2.3,37.5-4.4c5.1-0.8-9.5,5.5-11.7,10.1c-3.7,7.3,21.2-3.7,28.2-4.9c35.7-5.8,43-14.5,56.8-49.2
			C392.4,186.9,327.4,183.1,325.9,187.9z"/>
		<path d="M299.7,269.5c-1.6,0-2.7-0.4-3.4-1.2c-0.5-0.6-1.3-2-0.2-4.2c0.9-2,3.3-4,6.4-6c-0.2,0-0.4,0.1-0.5,0.1
			c-10,1.7-18.6,3.1-29.9,3.1c-6.3,0-13.4-1.2-19.7-2.2c-5.2-0.8-10.1-1.6-13.7-1.6c-3.2,0-14.1-4.6-14.1-9.4c0-1,0.5-2.9,3.5-3.9
			c1.9-0.6,4.6-0.9,8.2-0.9c29.4,0,47.4-7.7,70.1-17.5c5.7-2.4,11.5-4.9,17.9-7.5c7.1-2.8,11.2-5.8,11.7-8.7c0.6-3.4-3.4-7.2-7-10.6
			c-3.4-3.2-6.4-6-6.3-9.1c0-0.9,0.3-2.1,1.5-3.3c0.8-1.2,2.5-1.7,3.9-2c9.6-1.9,44.1,0.8,54.5,13.4c3.3,4,4,8.6,2,13.6
			c-13.9,34.9-21.4,44.5-58.3,50.5c-2,0.3-5.8,1.6-9.8,3C308.2,267.9,303,269.5,299.7,269.5z M310.2,252.9c0.8,0,1.9,0.2,2.3,1.4
			c0.7,1.8-0.8,2.7-4.2,4.9c-2.5,1.6-7.1,4.4-8.4,6.4c3-0.1,10.9-2.8,15.4-4.3c4.4-1.5,8.2-2.8,10.5-3.1c35.1-5.7,41.8-14.2,55.3-48
			c1.8-4.5,0.6-8.3-3.6-11.7c-12.5-10-45.1-11.7-49.7-9.5l0,0.1l-0.4,0.4c-0.4,0.4-0.4,0.6-0.4,0.7c0,1.3,2.8,3.9,5,6.1
			c4.3,4.1,9.3,8.7,8.2,14.2c-0.9,4.5-5.4,8.2-14.2,11.6c-6.3,2.5-12.2,5-17.8,7.4c-22.3,9.6-41.5,17.8-71.7,17.8
			c-5.3,0-7.1,0.7-7.7,1c1,1.8,7.5,5.2,10,5.2c3.9,0,9,0.8,14.3,1.7c6.1,1,13.1,2.1,19.1,2.1c11,0,19.4-1.4,29.2-3.1
			c2.6-0.4,5.2-0.9,8-1.3C309.5,252.9,309.8,252.9,310.2,252.9z"/>
	</g>
	<path class="st6" d="M357,233.4c1.4-2.2,4.4-2.7,7.1-3.4c2.7-0.6,6-1.2,9.3-1.2c4.2-8.9,8.1-17.6,13.6-25.8
		c14.4,0,26.4,3,34.8,10.9c6.1,5.9,11.7,15.4,12.6,25.8c0.9,10.5-2.5,19.3-6.8,26c0.4-8.4-5.9-13.3-11.2-16.8
		C400.6,238.9,380,235.5,357,233.4z"/>
	<path class="st6" d="M424.9,269.2c0.4-5.3-2.2-10.7-6.8-12.5c-20.5,4.2-44.5,0.8-61.3-4.6c-1.7-3.7-2.2-9.5-0.9-14.1
		c4.5-0.1,9.1,0.6,13.6,0.8c3.5,0.1,12.7,1.7,18.2,2.9c5.5,1.2,11,2.4,16.1,4.4c0.5,0.1-0.3-0.9,0.2-0.2
		C413,250.2,429.1,255.2,424.9,269.2z"/>
	<path class="st2" d="M287.1,464.8c4.5-10.3,8.3-21,7.6-34.6c-1.2-22.2-19.9-33.5-43.1-33c-7.4,0.1-14.5,1.8-20.9,2.7
		c-0.4-12,7.5-16,15.3-19.9c-15.4-1.9-25.4,4.3-34.5,10.4c-0.1-7.8,5.5-9.9,11.2-11.9c-7.8-3.8-21.2-2.7-28.9,0.5
		c-3.8,1.6-6.8,4-10,5.1c0.5-6,6.3-11.2,11.4-14.4c-9.8-1.9-17.8,3.7-23.6,8.1c-4-6.4-10.2-13.8-19.9-13.1c-5.3,0.4-8.1,3.5-11.9,6
		c1.6-38.1,27.2-52.2,64.9-54.2c0.6,0.1-0.3-0.9,0.3-0.2c0.3-0.1,1.1,0.2,1.2,0.2c2.9,0,8.4-1.2,11.9-0.2c1.2,0.3,3.5,2.7,5.1,4.1
		c24,21,54,38.2,74.7,61.8c2.4,2.2,5.2,5.2,7.4,8c0.6,0.7,1.1,2.7,2.2,1.9c-0.1,1.6,1.3,2.9,2.2,4.1c6.3,8.9,13.9,21.5,12,37.4
		c-1,7.8-4.1,11.4-8.8,16.1C306.1,456.4,296.7,461.8,287.1,464.8z"/>
	<path class="st3" d="M438,239.1v4.2v0.1c-0.5,7.1-2.8,13.7-5.6,18.7c-2.8,5-5.9,9.8-10.2,13.6c2.2-5.8,1.2-15.8-4.3-16.6
		c-1.6-0.2-4.5,0.9-7.1,1.4c-6.3,1.2-12.9,1.7-19.5,1.7v-3.9c9,0.5,18.2,0.1,26.8-1.7c4.6,1.7,7.2,7.2,6.8,12.5
		c4.2-14-11.9-19-20.9-23.3c-0.5-0.7,0.3,0.4-0.2,0.2c-4-1.6-8.1-2.7-12.5-3.6v-3.7c9.3,2.3,17.7,5.5,25.1,10.2
		c5.3,3.5,11.6,8.4,11.2,16.8c4.2-6.7,7.6-15.5,6.8-26c-0.9-10.4-6.5-19.9-12.6-25.8c-7.5-7.1-17.9-10.3-30.5-10.8v-3.8
		c1-0.1,2-0.2,3-0.2c13.5,0.6,24.7,5.3,31.6,13.2C431.9,219.1,437.4,228.5,438,239.1z M391.3,199.3v3.8c-1.4-0.1-2.9-0.1-4.3-0.1
		c-5.5,8.1-9.4,16.8-13.6,25.8c-1.4,0-2.8,0.1-4.1,0.3v-3.7c0.6-0.1,1.2-0.1,1.9-0.2c3.7-8.3,7.6-15.6,12.2-23.4
		c-4-3.1-8.8-5.8-14-7.8v-3.8c4.2,1.6,8.1,3.5,11.6,5.6c2,1.2,4.2,3.4,5.8,3.7C388.1,199.6,389.7,199.5,391.3,199.3L391.3,199.3z
		 M391.3,238.7v3.7c-1.2-0.3-2.4-0.5-3.6-0.8c-5.5-1.2-14.7-2.8-18.2-2.9h-0.2v-4C377,235.7,384.4,236.9,391.3,238.7L391.3,238.7z
		 M391.3,258.4v3.9c-7.6-0.1-15.3-1-22-2.3v-4.5C376.2,256.9,383.7,257.9,391.3,258.4z M312.8,449.7c4.7-4.7,7.8-8.3,8.8-16.1
		c1.9-15.8-5.7-28.5-12-37.4c-0.9-1.2-2.2-2.5-2.2-4.1c-1.2,0.8-1.7-1.2-2.2-1.9c-2.2-2.8-5-5.8-7.4-8
		c-12.1-13.8-27.4-25.4-42.8-36.9v-12c4.3,3.2,8.6,6.6,12.8,9.9c12.8,10.4,25.3,21.2,36.4,34.1c5.3,6.2,10.2,12.3,14.3,19.9
		c5.5,9.9,10.6,23.1,7.6,37.2c11.4-7.8,20.3-18.3,26.2-32c6-14,7-34.1,1.7-50.3c-8.3-25.8-29.3-40.4-51-51.8
		c-8.5-4.5-19.1-9-16.5-22.9c-7.1,2.2-13.9,4.4-19.4,7.8c-1.8,1.1-3.2,3.3-5.5,3.1c7.4-14,24.2-18.2,41-22.8
		c17.1-4.6,35.9-6.7,50.1-13.8c-1.2-4-0.9-9.8-0.7-13.9c-11.9-0.3-23.9,0.6-33.6,2.2c-3.7,0.6-7,1.9-10,2.2c0.1,0-0.9-1.1-0.2,0
		c-15.6,4.9-31.2,14.7-53.1,14.7v-6c6.6,0,13.3-0.7,18.9-2.3c5.8-1.7,11.6-3.8,17.5-6.1c5.8-2.2,11.6-4.6,17.6-6
		c13-3.1,28.4-3.7,44-3.2c0.8-0.9,0.6-2.6,1.5-3.4c4.1-2.2,9.1-3.6,14.6-4.4v3.7c-1.8,0.2-3.6,0.6-5.2,0.9c-2.7,0.6-5.7,1.2-7.1,3.4
		c4.2,0.4,8.3,0.9,12.2,1.4v4c-4.5-0.1-9-0.9-13.4-0.8c-1.2,4.6-0.7,10.4,0.9,14.1c3.8,1.2,8,2.4,12.5,3.3v4.5
		c-2.7-0.5-5.2-1.1-7.6-1.7c-2-0.6-5.7-2.4-7.6-2.2c-1.6,0.1-4.8,2.2-7.1,3.2c-2.5,1.1-5.2,2.4-7.3,3.2c-10.3,4-20.7,6.2-32.1,9.5
		c-4.8,1.4-12.4,3.2-13.3,7.5c-1.4,6.9,4.3,9.1,8.2,10.9c26.6,13.2,53.1,31.5,60.8,64.4c2.2,9.5,2.6,21,1.2,30.2
		c-4,26.4-18.6,42.6-36.7,54.9c-1.7,1.2-3.7,1.8-5.3,3.2c-1.5,1.3-2.8,3.3-4.1,4.8c-10.4,12-21.8,19.2-39.3,24.6
		c5.7-12.8,15.9-34.4,8.5-51.7c-0.9-2.1-2.4-3.9-2.7-5.8c-3.3-2.4-5.9-5.8-10.2-8c-4.2-2.2-9.4-3.3-15-3.9c-1.6-0.2-3.1-0.3-4.6-0.3
		v-5.3c21.5,0.6,38.4,11.9,39.6,33c0.7,13.5-3.1,24.3-7.6,34.6C296.7,461.8,306.1,456.4,312.8,449.7L312.8,449.7z M369.3,190.1v3.8
		c-12.2-4.8-27.2-6.8-43.3-6c-13.4-11.2-27.2-19.9-47.5-22.8c-8-1.2-15.8-1.2-23.3-0.3v-7.3c2.1-0.2,4.2-0.5,6.3-0.6h4.4
		c2.3,0.5,6.8,0.7,9.9,1.2c19.6,2.7,34.1,10.7,46.2,20.9c2.7,2.2,4.2,4.7,6,5.1c2.5,0.6,5.8-0.1,8.8,0
		C348.9,184.5,359.8,186.6,369.3,190.1z M255.1,345.3c-10.9-8.1-22-16.2-31.9-24.9c-1.7-1.4-4-3.8-5.1-4.1c-3.5-0.9-9,0.2-11.9,0.2
		c-0.1,0-0.9-0.3-1.2-0.2c-0.6-0.7,0.3,0.4-0.3,0.2c-37.7,2-63.3,16.1-64.9,54.2c3.8-2.5,6.6-5.7,11.9-6c9.7-0.7,16,6.7,19.9,13.1
		c5.8-4.4,13.8-9.9,23.6-8.1c-5.1,3.2-10.9,8.4-11.4,14.4c3.2-1.2,6.2-3.5,10-5.1c7.7-3.2,21.1-4.3,28.9-0.5
		c-5.7,1.9-11.3,4.1-11.2,11.9c9.1-6.1,19.1-12.3,34.5-10.4c-7.8,4-15.6,7.9-15.3,19.9c6.4-0.9,13.5-2.5,20.9-2.7c1.2,0,2.3,0,3.5,0
		v5.3c-10.4-0.2-20.4,2.2-28.7,3.9c-2.1-7.8,0.8-15.6,4.6-19.9c1-1.1,2.7-2.2,2.4-3.1c-8,2.3-14.2,5.8-19.4,10.7
		c-1.7,1.6-3,4-5.3,4.6c-2.7-6.3-0.5-13.5,2.7-17c0.9-1.1,2.7-1.8,2.4-2.7c-15.9-1-23.8,6.6-31.3,13.3c-1,0.9-2.7,2.9-3.7,2.2
		c-0.7-10.6,2.1-16.1,7.1-21.4c-7,2-10.8,7.2-15.6,11.4c-2.9-6.5-5.8-12.8-11.9-15.6c-7.5-3.3-13,1.2-16.8,5.1
		c-1.7,1.8-3,3.9-4.6,5.1c-0.4-3.5-0.7-6.8-0.7-10v-2.4c0.3-19.4,7.6-33.3,19.9-42c10.7-7.6,25.9-12.7,44-12.2
		c0.7,0,0.7,0.5,1.7,0.5c-0.7,0,1-0.5,1.4-0.5c4.8-0.1,8.5,0.9,12.2,1c-10.6-11.4-21.2-24.4-28.2-40.9c-6.7-15.9-11.4-37.1-7.5-59
		c0.8-4.5,2.2-8.9,3.9-12.9c10.9-26.9,37.9-39.2,71.5-43.3v7.3c-13,1.5-25,5.6-34.8,10.7c-20.3,10.5-32.7,26.4-32.1,54.9
		c0.7,37.4,20.3,63.4,40.3,81.6c8.3,7.6,17.4,14.3,26.6,21.2V345.3L255.1,345.3z M255.1,250.8c-7.8,0-15.7-1.1-21.9-3
		c-11.9-3.8-21.3-12.2-20.7-26.3c0.2-6.8,2.7-12.2,5-18c-1.5-0.5-2.4,1.8-3.1,3c-3.3,5.6-6,12.7-5.1,22.1
		c1.8,18.9,21.3,27.2,42.6,28.2c1,0.1,2.1,0.1,3.2,0.1V250.8z"/>
	<path class="st3" d="M365.8,221.7c-1.6-5.3-4-16,3-15.6c3.2,0.2,4.5,3.5,3.4,7.3c-0.1,0.1-1.1-0.4-0.3,1
		C370.1,217.1,368.7,220.1,365.8,221.7z"/>
	<g>
		<path class="st3" d="M270.3,208.1c3.6,0,6.6-2.7,6.6-5.9c0-3.3-3-6-6.6-6s-6.5,2.7-6.5,6C263.8,205.4,266.7,208.1,270.3,208.1z"/>
		<path d="M270.3,208.2c-3.6,0-6.6-2.7-6.6-6c0-3.4,3-6.1,6.6-6.1c3.7,0,6.7,2.7,6.7,6.1C276.9,205.5,274,208.2,270.3,208.2z
			 M270.3,196.3c-3.5,0-6.4,2.6-6.4,5.9c0,3.2,2.9,5.8,6.4,5.8c3.6,0,6.4-2.6,6.4-5.8C276.7,199,273.8,196.3,270.3,196.3z"/>
	</g>
	<g>
		<path class="st2" d="M269.3,202.3c1.2,0,2.1-0.9,2.1-1.9s-0.9-1.9-2.1-1.9c-1.1,0-2,0.9-2,1.9S268.3,202.3,269.3,202.3z"/>
		<path d="M269.3,202.4c-1.2,0-2.1-0.9-2.1-2.1s1-2.1,2.1-2.1c1.2,0,2.2,0.9,2.2,2.1S270.6,202.4,269.3,202.4z M269.3,198.5
			c-1,0-1.9,0.8-1.9,1.8s0.9,1.8,1.9,1.8c1.1,0,2-0.8,2-1.8S270.4,198.5,269.3,198.5z"/>
	</g>
	<rect x="325.3" y="251.9" width="0.2" height="0.4"/>
	<path d="M232.3,529.1l-2.1-6.3l-5.9,0.5v-7.5l3.3-0.3l-3.2-9.3l-0.1-0.1v-11.4l5-0.4l14.3,33.8L232.3,529.1z M224.3,523.3l-4.5,0.4
		l-1.1,6.6l-11.3,1l8.9-35.8l7.9-0.7v11.4c-0.4-1.3-0.7-2.5-0.9-3.7l-0.3,0.1c0,0.4-0.1,1-0.1,1.9c-0.1,0.9-0.8,4.8-1.9,11.7
		l3.3-0.3V523.3z"/>
	<path d="M277.4,515.9c0.1,3.5-1,6.1-3.3,8.1c-2.4,1.9-5.8,3-10.2,3.1l-2.8,0.1v-7.1h0.6c1.4-0.1,2.6-0.4,3.4-1.1
		c0.8-0.7,1.2-1.6,1.2-2.7c-0.1-1-0.4-1.8-1.2-2.4c-0.7-0.6-1.7-0.9-2.9-0.9l-1.1,0.1v-7.1c1-0.1,1.9-0.4,2.5-1
		c0.8-0.6,1.1-1.4,1.1-2.4c-0.1-1.8-1.3-2.7-3.6-3v-7.1h0.5c9.3-0.3,14,2.3,14.2,7.9c0.1,1.2-0.2,2.4-0.8,3.4
		c-0.5,1.1-1.4,1.9-2.5,2.7c-1.2,0.9-2.4,1.4-3.9,1.7v0.1c1.7,0.1,3.2,0.6,4.5,1.4c1.3,0.7,2.4,1.7,3.1,2.8
		C277,513.5,277.3,514.7,277.4,515.9z M261.1,527.2l-13.1,0.4l-1.2-34.8l14.3-0.5v7.1c-0.5,0-1-0.1-1.6,0l-1.9,0.1l0.2,6.6l3-0.1
		c0.1,0,0.2-0.1,0.3-0.1v7.1l-3.1,0.1l0.3,7.1l2.8-0.1V527.2z"/>
	<path d="M312.8,509.9c0,5.6-1.3,9.7-3.9,12.5c-2.5,2.7-6.5,4.1-11.7,4.1c-5,0-8.7-1.4-11.3-4.1s-3.9-6.8-3.9-12.2v-19.2h10.6v19.5
		c0,2.2,0.4,4,1.3,5.2c0.8,1.2,2,1.8,3.6,1.8c1.4,0,2.7-0.6,3.5-1.7c0.9-1.2,1.3-2.8,1.3-5v-19.7h10.6V509.9z"/>
	<polygon points="337.4,499.5 337,526.1 326.4,526 326.8,499.4 317.1,499.1 317.2,490.9 347.4,491.5 347.2,499.7 	"/>
	<path d="M369.1,528.3l-2.1-7.7c-0.1-0.7-0.4-1.4-0.6-1.9v-10.4c0.7-0.1,1.4-0.4,1.9-0.9c0.9-0.7,1.4-1.7,1.4-2.9
		c0.1-1.2-0.2-2.1-0.9-2.8c-0.6-0.6-1.4-1-2.5-1.2v-7.3l1.1,0.1c4.8,0.4,8.4,1.4,10.6,3.1c2.2,1.8,3.2,4.2,3,7.4
		c-0.2,2.4-1,4.4-2.4,5.9c-1.5,1.5-3.6,2.5-6.3,3.1v0.1c1.4,0.6,2.7,1.4,3.5,2.5c0.9,1.1,1.7,2.6,2.3,4.7l2.8,9.1L369.1,528.3z
		 M366.3,518.6c-0.3-0.6-0.6-1.2-1.1-1.7c-0.7-0.9-1.5-1.4-2.4-1.4h-0.4l-0.9,12.2L351,527l2.4-34.8l12.9,0.9v7.3
		c-0.2,0-0.5,0-0.7-0.1l-2.2-0.1l-0.6,8l1.9,0.1c0.6,0.1,1.1,0.1,1.6-0.1V518.6z"/>
	<polygon points="384.5,529.7 388.8,495.1 410.3,497.8 409.3,505.9 398.2,504.5 397.6,509.6 408,510.9 407,519 396.6,517.7 
		395.9,522.8 407.9,524.3 406.9,532.4 	"/>
	<path class="st3" d="M262.6,382.7c-10.2-6.8-29.1-18.1-47.8-20c1.4-5.1,6.3-4.1,9.1-6.8c-5.5-5.8-15.2-9-24-12.8
		c4.3-2.4,8.6-5.1,14.3-5.3c-1.9-6-14.5-7.6-21.6-8.5c9.6-5.6,26.6-11.5,36.9-7.6c-10.4-0.8-18.7,1.8-26.3,5.8
		c8.9,2.6,15.8,6.3,17.6,13c-4.5-0.6-7.5,1.3-11.4,1.5c7,5.2,16.6,8.7,21.7,15c-1.9,2.4-5.2,2.7-8.2,3.3
		C238.7,366.2,253.5,372.8,262.6,382.7z"/>
</g>
</svg>
