<?xml version="1.0" encoding="utf-8"?>
<!-- Generator: Adobe Illustrator 21.0.2, SVG Export Plug-In . SVG Version: 6.00 Build 0)  -->
<svg version="1.1" id="Camada_1" xmlns="http://www.w3.org/2000/svg" xmlns:xlink="http://www.w3.org/1999/xlink" x="0px" y="0px"
	 viewBox="0 0 595 842" style="enable-background:new 0 0 595 842;" xml:space="preserve">
<style type="text/css">
	.st0{fill-rule:evenodd;clip-rule:evenodd;fill:#303C8C;}
	.st1{fill-rule:evenodd;clip-rule:evenodd;fill:#B64745;}
	.st2{fill-rule:evenodd;clip-rule:evenodd;fill:#FFFFFF;}
	.st3{fill-rule:evenodd;clip-rule:evenodd;}
	.st4{fill-rule:evenodd;clip-rule:evenodd;fill:#F1D7A6;}
	.st5{fill-rule:evenodd;clip-rule:evenodd;fill:#FEEE00;}
	.st6{fill-rule:evenodd;clip-rule:evenodd;fill:#F1CF00;}
</style>
<path class="st0" d="M310.8,132.2C175.1,132.2,65,238,65,368.5c0,130.4,110.1,236.2,245.8,236.2s245.8-105.8,245.8-236.2
	C556.6,238,446.5,132.2,310.8,132.2z"/>
<path d="M61,368.5C61,236,173.1,128.2,310.8,128.2S560.6,236,560.6,368.5c0,132.4-112.1,240.2-249.8,240.2S61,500.9,61,368.5z
	 M69,368.5c0,128,108.5,232.2,241.8,232.2s241.8-104.1,241.8-232.2c0-128.1-108.5-232.3-241.8-232.3S69,240.4,69,368.5z"/>
<path class="st1" d="M310.8,155.1c-122.5,0-221.9,95.5-221.9,213.3c0,117.7,99.4,213.2,221.9,213.2c122.5,0,221.9-95.5,221.9-213.2
	C532.7,250.7,433.3,155.1,310.8,155.1z"/>
<path class="st0" d="M310.8,540.3c-98.5,0-178.9-77.3-178.9-171.9c0-94.8,80.4-172,178.9-172s178.8,77.3,178.8,172
	C489.7,463.1,409.3,540.3,310.8,540.3z"/>
<path class="st2" d="M310.8,207.6c-92.4,0-167.3,72-167.3,160.8c0,88.7,74.9,160.7,167.3,160.7c92.3,0,167.3-72,167.3-160.7
	C478.1,279.6,403.1,207.6,310.8,207.6z"/>
<path d="M245.7,516.6c-19.9-8.1-37.8-19.7-53.2-34.5c-15.4-14.8-27.4-32-35.9-51.1c-8.7-19.8-13.2-40.9-13.2-62.6
	c0-21.7,4.4-42.8,13.2-62.7c8.4-19.2,20.5-36.4,35.9-51.2c15.4-14.8,33.3-26.4,53.2-34.5c20.6-8.4,42.6-12.6,65.1-12.6
	c22.6,0,44.5,4.3,65.1,12.6c19.9,8.1,37.8,19.7,53.2,34.5c15.4,14.8,27.5,32,35.9,51.2c8.7,19.8,13.2,40.9,13.2,62.7
	c0,21.7-4.4,42.8-13.2,62.6c-8.4,19.1-20.5,36.3-35.9,51.1c-15.4,14.8-33.3,26.4-53.2,34.5c-20.6,8.4-42.5,12.6-65.1,12.6
	C288.2,529.3,266.3,525,245.7,516.6z M245.8,220.3c-19.9,8.1-37.8,19.7-53.1,34.4c-15.4,14.8-27.4,32-35.8,51.1
	c-8.7,19.8-13.1,40.9-13.1,62.6c0,21.7,4.4,42.7,13.1,62.5c8.4,19.1,20.5,36.3,35.8,51c15.4,14.8,33.2,26.3,53.1,34.4
	c20.6,8.4,42.5,12.6,65.1,12.6c22.5,0,44.4-4.2,65-12.6c19.9-8.1,37.8-19.7,53.1-34.4c15.4-14.8,27.4-31.9,35.8-51
	c8.7-19.8,13.1-40.8,13.1-62.5c0-21.7-4.4-42.8-13.1-62.6c-8.4-19.1-20.5-36.3-35.8-51.1c-15.4-14.8-33.2-26.4-53.1-34.4
	c-20.6-8.4-42.5-12.6-65-12.6C288.2,207.7,266.4,212,245.8,220.3z"/>
<path class="st3" d="M277.4,332.7c-29.5,23.6-233.1,193.5-77.3,157.7c48.1-11,101.4-9.3,153.5-9.3c38.2,0,81,15.8,108.9,15.8
	c37.3,0,40.8-128.4-13-145.2c-37.2-12.1-62.3,1.2-95.9,10.2C335.2,367,294.2,333.7,277.4,332.7z"/>
<path d="M414.8,497.8c-20.3-4.3-41.3-8.7-61.1-8.7c-6.2,0-12.5,0-18.7,0c-45-0.2-91.6-0.4-133,9.1c-24,5.5-56.9,10.7-65.9-7.8
	c-4.9-10.2-1.1-23.7,12.1-42.6c9.3-13.4,23.6-29.7,42.4-48.4c37.8-37.6,80.1-71.5,81.8-73l2.4-1.9l3.1,0.2
	c8.9,0.5,20.7,6.9,34.3,14.3c13.5,7.3,31.9,17.3,39.5,15.3c6.3-1.7,12.4-3.6,18.3-5.4c25.5-7.9,49.6-15.3,82-4.7
	c18.2,5.7,32,22,39.9,47.2c6.3,20.3,8.2,45.3,4.9,67c-4.4,29.2-17.2,46.6-34.1,46.6C448.9,505,432.3,501.5,414.8,497.8z
	 M374.6,364.2c-6,1.9-12.3,3.8-18.9,5.5c-13.7,3.7-32.8-6.7-51.3-16.7c-8.9-4.8-18.8-10.2-24.8-11.9c-10.1,8.2-45.6,37.5-77.8,69.6
	c-56.8,56.5-52.1,71.2-51.4,72.6c1.6,3.4,13.6,7.1,47.9-0.8c43.3-9.9,90.7-9.7,136.7-9.5c6.2,0,12.4,0,18.6,0
	c21.4,0,44.3,4.8,64.4,9c16.7,3.5,32.5,6.8,44.5,6.8c7.9,0,15.3-13.3,18.3-33c3-19.4,1.3-41.7-4.3-59.8
	c-7.9-25.2-20.3-33.9-29.5-36.8c-9.8-3.2-18.6-4.5-27-4.5C404.8,355,390.8,359.3,374.6,364.2z"/>
<path class="st2" d="M535.5,594L444.6,568l-1.4-18.5c-96.3-14.2-184.5-12.7-265.1,4l-0.4,17.4L87.3,594
	c4.7-15.2,12.2-26.6,21.2-35.8c-12-8.3-20.7-16-21.2-22.2l46.4-15.8v-24.8c105.8-31.2,235.5-34.3,356.4,0v25.6l45.4,15
	c4.1,3.7-13.5,15.5-20.3,23.2C521.9,570.8,532.9,581.3,535.5,594z"/>
<path d="M440.8,571l-1.4-18.1c-92.5-13.3-179.1-12.1-257.4,3.7l-0.4,17.2L81.3,599.7l2.1-6.8c4-13,10.2-24.2,19-34
	c-12.8-9.3-18.6-16.1-19.2-22.4l-0.3-3.1l46.6-15.9v-24.9l2.9-0.8c111.9-33,242.6-33,358.6,0l2.9,0.8v25.8l43.5,14.3l0.6,0.6
	c1.3,1.1,2,2.7,1.9,4.4c0,4.5-4.8,8.9-13.1,16.2c-2.4,2.1-4.8,4.2-6.7,6.1c1.8,2.8,3.8,5.6,5.9,8.4c5.6,7.7,11.4,15.6,13.3,25
	l1.3,6.5L440.8,571z M174.1,550.2l3.1-0.6c81-16.8,170.6-18.1,266.5-4l3.2,0.5l1.5,18.9l80.9,23.2c-2.4-5.1-5.9-10-9.7-15.2
	c-2.7-3.8-5.6-7.6-7.9-11.7l-1.5-2.5l1.9-2.2c2.4-2.8,6-5.9,9.5-8.9c2.9-2.5,7.3-6.4,9.4-8.8L486,524v-25.5
	c-112.9-31.5-239.5-31.5-348.4,0v24.6l-45.3,15.5c1.9,3.3,6.9,8.4,18.5,16.4l3.9,2.7l-3.3,3.4c-7.8,8-13.7,16.9-17.8,27.2l80.2-20.6
	L174.1,550.2z"/>
<path class="st3" d="M155.8,566.9c-7.3-1-16.3-1.9-25.1-2.8c-2.2-11.7-0.3-27.4-0.9-40.6c-15.6,2.8-27.6,9.1-42.5,12.6
	c2.7,7.9,14.8,14.7,21.2,22.2c-7,12.1-15.2,22.8-21.2,35.8c21.8-7.7,44.6-14.5,68.5-20v3.5c-26.4,6.4-51.5,14.3-76.3,22.3
	c7.3-14.3,16.3-26.8,24.2-40.5c-7.1-9.1-17.2-15-24.2-24.2c17.3-5,33.9-10.5,50.3-16.4v-26.1c8.4-2.4,17.1-4.7,26.1-6.8v3.9
	c-7.6,1.7-15,3.7-22.2,5.8v64.7c7.1-2,14.5-4,22.2-5.8v3.7l-14.5,3.1c4.5,1.3,9.4,2.2,14.5,3V566.9z M178,568
	c0.2-3.2,0.4-10.8,0-14.5l-22.2,4.7v-3.7c92.5-21.5,218.2-21.3,311-0.1v3.8c-6.9-1.4-14-2.5-20.3-4.7c-4.2,1.3-0.8,10.2-1.9,14.5
	c7.6-1.1,14.8-2.7,22.2-4v3.6c-4.9,0.7-9.7,1.4-14.5,2.3c4.8,1.3,9.6,2.6,14.5,3.9v3.5c-8.5-2-17.1-3.9-26.1-5.5v-19.3
	c-76.6-13.9-183.7-15.3-258.8,0.9v18.4c-8.9,1.7-17.6,3.7-26.1,5.7V574c4.8-1.1,9.6-2.2,14.5-3.2c-1.4-1.7-7-3-14.5-4v-2.7
	C163.3,565.4,171.1,566.2,178,568L178,568z M466.8,485.8v3.7c-92.4-21.2-218.9-21.4-311,0.2v-3.9
	C248.9,464.6,373.8,464.5,466.8,485.8z M492.9,492.6v27.1c18.1,3.8,32.8,11,50.3,15.4c-6.4,10.1-18.1,14.8-24.1,25.1
	c9.3,12.3,16.6,26.5,25.1,39.6c-25.6-7.6-50.5-15.9-77.3-22.5v-3.5c23.4,6.3,47.3,12,68.6,20.2c-3.7-10.8-14.2-23.2-20.3-34.8
	c4.2-9.7,18.6-14.3,20.3-23.2c-15-3.4-26.8-9.9-42.6-12.6v39.7c-8.2,1.9-17.1,3.2-26.1,4.5V564c4.7-0.8,9.4-1.4,14.5-1.9
	c-4.3-1.8-9.4-3-14.5-4v-3.8c8,1.8,15.8,3.8,23.2,5.9v-64.7c-7.4-2.2-15.2-4.1-23.2-6v-3.7C475.8,487.8,484.6,490.1,492.9,492.6z"/>
<path d="M543,603.6c-6.6-2-13.3-4-19.8-6c-26.3-8.1-53.6-16.5-83.1-21.9l-3.3-0.6v-5.4l-2.3-0.7l2.3-0.4v-12.8
	c-79.5-13.9-181.4-13.6-250.8,0.8v18.4l-3.2,0.6c-36.8,7.1-70.5,17.7-102,27.9l-9.2,3l4.4-8.6c4.4-8.6,9.4-16.6,14.3-24.4
	c2.9-4.5,5.8-9.2,8.6-13.9c-2.9-3.3-6.2-6.2-9.7-9.2c-4.4-3.9-9-7.9-12.8-12.9l-3.5-4.6l5.6-1.6c15-4.3,30.5-9.4,47.4-15.4v-26.2
	l2.9-0.8c104.3-30.6,261.4-30.6,365.4,0l2.9,0.8v26.9c8.9,2.1,17.1,5,25.1,7.7c7.1,2.5,14.5,5.1,22.2,7l5.4,1.4l-3,4.7
	c-3.4,5.4-8.1,9.3-12.6,13c-3.8,3.1-7.4,6.1-10,9.8c5.3,7.3,10,15.2,14.6,22.9c2.9,4.9,5.9,9.9,9,14.7l5.9,9.1L543,603.6z
	 M138.4,568.9c-2.7-0.3-5.4-0.6-8.1-0.9l-3-0.3l-0.5-2.9c-0.2-1.3-0.4-2.6-0.6-3.9l-1.1-0.3l1-0.2c-0.7-6.5-0.5-13.8-0.4-20.9
	c0.1-3.7,0.2-7.4,0.1-11c-6.4,1.5-12.2,3.5-18.4,5.7c-4.5,1.6-9.2,3.2-14.1,4.6c2.2,2.7,5.5,5.5,8.8,8.3c3.3,2.8,6.7,5.7,9.4,8.8
	l1.8,2.1l-1.4,2.5c-2.6,4.5-5.4,8.9-8.2,13.2c-2.9,4.6-5.8,9-8.4,13.6c19.3-6.5,38.3-11.9,57.6-16.4
	C148.1,569.9,142.8,569.4,138.4,568.9z M515.2,534c-6.1-2.2-11.9-4.2-18.3-5.7v35.8l1.4,0.6l-1.4,0.1v1.5l-3.1,0.7
	c-7.1,1.6-14.7,2.8-22.1,3.9c2.3,0.6,4.6,1.2,6.9,1.8c16.4,4.3,33.3,8.7,49.1,14.1c-2.1-3.7-4.6-7.5-7.1-11.3
	c-3.1-4.8-6.4-9.7-9-14.5l-0.9-1.7l0.8-1.8c2.4-5.6,7.3-9.5,11.7-13c2.5-2,5-3.9,6.6-5.9C524.6,537.3,519.8,535.7,515.2,534z
	 M448.3,558.2c0,1,0.1,2.3,0.2,3.2c0.1,0.6,0.1,1.2,0.2,1.9c3.1-0.5,6.1-1.1,9.1-1.6c1-0.2,2-0.4,3-0.6
	C456.7,560.2,452.4,559.4,448.3,558.2z M161.5,561c0.2,0,0.4,0.1,0.6,0.1c4,0.6,8.2,1.2,12.2,2c0-1.5,0-3.2,0-4.7L161.5,561z
	 M311.8,477.5c-0.1,0-0.2,0-0.4,0c-64.5,0-126.1,7.4-173.8,21v56.4c99.8-27.4,247.3-27.4,348.4,0v-56.4
	C438,485,376.3,477.5,311.8,477.5z"/>
<path class="st4" d="M253.3,219.6v5.9c-0.9-0.1-1.9-0.3-2.8-0.4c-3.7-8.3-7.6-15.6-12.2-23.4c4.3-3.3,9.4-6,15-8.2v12.6
	c-0.1,0-0.3,0-0.4,0c-3.2,0.2-4.5,3.5-3.4,7.3c0.1,0.1,1.1-0.4,0.3,1C250.9,216.2,251.9,218.1,253.3,219.6z M253.3,206.2v-12.6
	c12-4.5,26.7-6.4,42.4-5.6c12.5-10.5,25.5-18.8,43.8-22.2v29.7c-12.8,2.2-24.7,5.3-35.3,9.8c0,0.6,3.7,2.6,2.7,1.9
	c2.7,1.7,5.1,3.6,8.3,4.8c6.8,2.7,16.1,3.7,24.3,2.4v31.5c-3.1-1.1-6.2-2.3-9.4-3.5c-5.8-2.2-11.6-4.6-17.6-6
	c-13-3.1-28.4-3.7-44-3.2c-0.8-0.9-0.6-2.6-1.5-3.4c-3.9-2.1-8.5-3.5-13.7-4.2v-5.9c0.7,0.9,1.5,1.6,2.5,2.1
	C257.3,216.5,259.8,206.2,253.3,206.2L253.3,206.2z M339.5,355.2c-7.7,6.8-15.2,14.1-22.2,22.1c-5.3,6.2-10.2,12.3-14.3,19.9
	c-5.5,9.9-10.6,23.1-7.6,37.2c-11.4-7.8-20.3-18.3-26.2-32c-6-14-7-34.1-1.7-50.3c8.3-25.8,29.3-40.4,51-51.8
	c8.5-4.5,19.1-9,16.5-22.9c1.5,0.5,3,0.9,4.5,1.4V355.2L339.5,355.2z M339.5,271.8V252c-9.4-3.2-17.6-7.2-26.1-9.9
	c0.6-1.1-0.3,0-0.2,0c-3-0.3-6.3-1.6-10-2.2c-9.6-1.6-21.7-2.5-33.6-2.2c0.2,4.1,0.5,9.9-0.7,13.9c14.2,7.1,33,9.2,50.1,13.8
	C326,267.4,333.1,269.3,339.5,271.8L339.5,271.8z M339.5,200.9c-2.4,0.6-4.7,1.2-6.9,1.9c-4,1.2-8.1,1.9-11.1,4.1
	c5.3,1.9,11.9,2.9,18,2.5V200.9z M343.2,165.1c21.7-3.2,42.7,2.4,58.1,10.4c19.6,10.1,31.8,25.3,32.1,51.9v2.3c0,0.2,0,0.4,0,0.7
	c-0.7,37.4-20.3,63.4-40.3,81.6c-12.2,11.1-26.2,20.4-39.4,31.1c-4.8,3.9-9.6,7.8-14.3,12v-76.4c5.5,1.7,10.6,3.7,15,6.4
	c1.8,1.1,3.2,3.3,5.5,3.1c-4.2-8.1-11.7-13-20.5-16.5V252c8.9,3,18.7,5.3,30.2,4.7c21.2-0.9,40.8-9.3,42.6-28.2
	c0.9-9.4-1.8-16.5-5.1-22.1c-0.6-1.2-1.6-3.5-3.1-3c2.3,5.8,4.8,11.2,5,18c0.6,14.1-8.8,22.5-20.7,26.3c-11.4,3.7-28.6,4.2-40.8,0.7
	c-2.7-0.8-5.4-1.7-8.1-2.6v-31.5c8.7-1.3,16.3-5.1,18.6-11.9c-3.2-0.6-3.9,1.8-5.8,3.1c-3.4,2.3-7.9,3.5-12.7,3.7v-8.5
	c7.6-1.9,15.9-3.5,24.4-4.7c5.1-0.7,9.1-1.3,10.9-4.6c-12.3,0.6-24.2,1.9-35.4,3.8v-29.7C340.7,165.5,342,165.3,343.2,165.1z"/>
<path class="st5" d="M350.5,206.7c-3.4,2.1-15.6,5.1-19.5,3.2c-1.2-0.6-4-1.3-5.2-1.7c-2.2-0.7-8.6-1.3-3-3.6
	c6.2-2.4,12.1-5.9,19.9-5.9c1.4,0,3.6,0.2,5-0.1c1.1-0.4,0.9,0.6,0.9,1.3C348.6,200.6,353.2,206.5,350.5,206.7z"/>
<path d="M330.9,210c-0.7-0.4-2.1-0.8-3.3-1.1c-0.7-0.2-1.4-0.4-1.9-0.6c-0.4-0.1-1-0.3-1.7-0.4c-1.8-0.4-3.6-0.8-3.7-1.6
	c0-0.5,0.7-1.1,2.4-1.8c1.3-0.5,2.6-1.1,3.9-1.6c4.9-2.1,9.9-4.3,16-4.3c0.3,0,0.8,0,1.2,0c1.2,0,2.7,0.1,3.7-0.2
	c0.4-0.1,0.6-0.1,0.8,0c0.3,0.2,0.3,0.7,0.3,1.1c0,0.1,0,0.2,0,0.2c0,0.2,0.4,0.9,0.8,1.7c1,1.6,2.3,3.9,1.8,4.9
	c-0.1,0.3-0.4,0.4-0.8,0.4c-2.8,1.7-10.7,3.8-15.9,3.8C333.1,210.6,331.8,210.4,330.9,210z M347.7,198.6c-1,0.3-2.5,0.2-3.8,0.2
	c-0.4,0-0.8,0-1.2,0c-6.1,0-11.1,2.2-16,4.3c-1.3,0.6-2.6,1.1-3.9,1.6c-1.9,0.8-2.2,1.3-2.2,1.6c0.1,0.6,2,1.1,3.5,1.4
	c0.6,0.1,1.2,0.3,1.7,0.4c0.4,0.2,1.1,0.4,1.9,0.6c1.2,0.4,2.6,0.8,3.3,1.1c3.9,1.8,15.9-1.1,19.4-3.2l0.1,0c0.3,0,0.5-0.1,0.6-0.3
	c0.5-0.8-0.9-3.1-1.7-4.6c-0.6-1-0.9-1.5-0.9-1.8c0-0.1,0-0.2,0-0.2c0-0.4,0-0.8-0.2-1c-0.1,0-0.1-0.1-0.2-0.1
	C348,198.6,347.9,198.6,347.7,198.6z"/>
<path class="st3" d="M358,202.6c-3.2-0.6-3.9,1.8-5.8,3.1c-7.7,5.2-21.3,4.5-30.7,1.2c3-2.2,7.1-3,11.1-4.1c9.4-2.8,20.2-5,31.3-6.6
	c5.1-0.7,9.1-1.3,10.9-4.6c-26.6,1.5-50.9,5.3-70.6,13.6c0,0.6,3.7,2.6,2.7,1.9c2.7,1.7,5.1,3.6,8.3,4.8
	C329.2,217.6,353.6,215.7,358,202.6z"/>
<path class="st6" d="M295.7,187.9c8.2,7.1-31.9,19.4,0.8,32.3c32,12.7,51.6,25.1,88.8,25.1c21,0,2.2,10.2-2.3,10.2
	c-8.1,0-22,3.8-33.4,3.8c-14,0-24.1-2.3-37.5-4.4c-5.1-0.8,9.5,5.5,11.7,10.1c3.7,7.3-21.2-3.7-28.2-4.9
	c-35.7-5.8-43-14.5-56.8-49.2C229.2,186.9,294.2,183.1,295.7,187.9z"/>
<path d="M305.1,265c-4-1.4-7.9-2.6-9.8-3c-36.9-6-44.5-15.5-58.3-50.5c-2-4.9-1.3-9.6,2-13.6c10.4-12.5,44.9-15.2,54.5-13.4
	c1.4,0.3,3.1,0.8,3.9,2c1.2,1.2,1.5,2.4,1.5,3.3c0.1,3.1-2.9,5.9-6.3,9.1c-3.6,3.4-7.7,7.2-7,10.6c0.6,2.9,4.6,5.9,11.7,8.7
	c6.4,2.5,12.2,5.1,17.9,7.5c22.8,9.8,40.7,17.5,70.1,17.5c3.7,0,6.4,0.3,8.2,0.9c3.1,1,3.5,2.9,3.5,3.9c0,4.9-10.9,9.4-14.1,9.4
	c-3.6,0-8.5,0.8-13.7,1.6c-6.3,1-13.4,2.2-19.7,2.2c-11.3,0-19.9-1.4-29.9-3.1c-0.2,0-0.4-0.1-0.5-0.1c3.1,2,5.5,4,6.4,6
	c1.1,2.2,0.4,3.5-0.2,4.2c-0.7,0.8-1.8,1.2-3.4,1.2C318.7,269.5,313.4,267.9,305.1,265z M312.3,252.9c2.8,0.4,5.4,0.9,8,1.3
	c9.8,1.6,18.3,3.1,29.2,3.1c6,0,12.9-1.1,19.1-2.1c5.4-0.9,10.4-1.7,14.3-1.7c2.5,0,9-3.5,10-5.2c-0.5-0.3-2.3-1-7.7-1
	c-30.2,0-49.5-8.3-71.7-17.8c-5.6-2.4-11.5-4.9-17.8-7.4c-8.8-3.5-13.3-7.2-14.2-11.6c-1.1-5.5,3.9-10.2,8.2-14.2
	c2.3-2.1,5.1-4.8,5-6.1c0-0.1,0-0.3-0.4-0.7L294,189l0-0.1c-4.6-2.2-37.2-0.5-49.7,9.5c-4.2,3.4-5.4,7.2-3.6,11.7
	c13.4,33.8,20.1,42.3,55.3,48c2.3,0.4,6.1,1.7,10.5,3.1c4.5,1.5,12.4,4.2,15.4,4.3c-1.3-2-5.9-4.8-8.4-6.4c-3.5-2.2-4.9-3-4.2-4.9
	c0.4-1.2,1.5-1.4,2.3-1.4C311.8,252.9,312.1,252.9,312.3,252.9z"/>
<path class="st6" d="M264.6,233.4c-1.4-2.2-4.4-2.7-7.1-3.4c-2.7-0.6-6-1.2-9.3-1.2c-4.2-8.9-8.1-17.6-13.6-25.8
	c-14.4,0-26.4,3-34.8,10.9c-6.1,5.9-11.7,15.4-12.6,25.8c-0.9,10.5,2.5,19.3,6.8,26c-0.4-8.4,5.9-13.3,11.2-16.8
	C221,238.9,241.6,235.5,264.6,233.4z"/>
<path class="st6" d="M196.8,269.2c-0.4-5.3,2.2-10.7,6.8-12.5c20.5,4.2,44.5,0.8,61.3-4.6c1.7-3.7,2.2-9.5,0.9-14.1
	c-4.5-0.1-9.1,0.6-13.6,0.8c-3.5,0.1-12.7,1.7-18.2,2.9c-5.5,1.2-11,2.4-16.1,4.4c-0.5,0.1,0.3-0.9-0.2-0.2
	C208.6,250.2,192.5,255.2,196.8,269.2z"/>
<path class="st2" d="M334.5,464.8c-4.5-10.3-8.3-21-7.6-34.6c1.2-22.2,19.9-33.5,43.1-33c7.4,0.1,14.5,1.8,20.9,2.7
	c0.4-12-7.5-16-15.3-19.9c15.4-1.9,25.4,4.3,34.5,10.4c0.1-7.8-5.5-9.9-11.2-11.9c7.8-3.8,21.2-2.7,28.9,0.5c3.8,1.6,6.8,4,10,5.1
	c-0.5-6-6.3-11.2-11.4-14.4c9.8-1.9,17.8,3.7,23.6,8.1c4-6.4,10.2-13.8,19.9-13.1c5.3,0.4,8.1,3.5,11.9,6
	c-1.6-38.1-27.2-52.2-64.9-54.2c-0.6,0.1,0.3-0.9-0.3-0.2c-0.3-0.1-1.1,0.2-1.2,0.2c-2.9,0-8.4-1.2-11.9-0.2
	c-1.2,0.3-3.5,2.7-5.1,4.1c-24,21-54,38.2-74.7,61.8c-2.4,2.2-5.2,5.2-7.4,8c-0.6,0.7-1.1,2.7-2.2,1.9c0.1,1.6-1.3,2.9-2.2,4.1
	c-6.3,8.9-13.9,21.5-12,37.4c1,7.8,4.1,11.4,8.8,16.1C315.6,456.4,324.9,461.8,334.5,464.8z"/>
<path class="st3" d="M195.8,212.3c6.9-7.8,18.1-12.6,31.6-13.2c0.9,0,1.9,0.1,3,0.2v3.8c-12.5,0.5-23,3.7-30.5,10.8
	c-6.1,5.9-11.7,15.4-12.6,25.8c-0.9,10.5,2.5,19.3,6.8,26c-0.4-8.4,5.9-13.3,11.2-16.8c7.3-4.7,15.8-7.9,25.1-10.2v3.7
	c-4.3,0.9-8.5,2-12.5,3.6c-0.5,0.1,0.3-0.9-0.2-0.2c-9,4.3-25.1,9.4-20.9,23.3c-0.4-5.3,2.2-10.7,6.8-12.5
	c8.6,1.7,17.8,2.2,26.8,1.7v3.9c-6.6,0.1-13.2-0.4-19.5-1.7c-2.6-0.5-5.5-1.7-7.1-1.4c-5.5,0.7-6.5,10.7-4.3,16.6
	c-4.3-3.8-7.4-8.6-10.2-13.6c-2.8-5-5.1-11.6-5.6-18.7v-0.1v-4.2C184.2,228.5,189.7,219.1,195.8,212.3z M230.3,199.3
	c1.6,0.1,3.2,0.3,4.6,0.1c1.6-0.3,3.8-2.4,5.8-3.7c3.5-2.2,7.4-4,11.6-5.6v3.8c-5.3,2.1-10,4.8-14,7.8c4.6,7.8,8.4,15.1,12.2,23.4
	c0.6,0.1,1.2,0.1,1.9,0.2v3.7c-1.3-0.2-2.7-0.3-4.1-0.3c-4.2-8.9-8.1-17.6-13.6-25.8c-1.4,0-2.9,0.1-4.3,0.1V199.3L230.3,199.3z
	 M230.3,238.7c6.9-1.8,14.3-3,22-4v4h-0.2c-3.5,0.1-12.7,1.7-18.2,2.9c-1.2,0.3-2.4,0.5-3.6,0.8V238.7L230.3,238.7z M252.4,255.4
	v4.5c-6.8,1.3-14.4,2.2-22,2.3v-3.9C238,257.9,245.4,256.9,252.4,255.4z M308.8,449.7c6.8,6.8,16.1,12.2,25.7,15.1
	c-4.5-10.3-8.3-21-7.6-34.6c1.2-21.1,18.1-32.3,39.6-33v5.3c-1.5,0-3,0.1-4.6,0.3c-5.6,0.6-10.9,1.7-15,3.9c-4.3,2.2-6.9,5.6-10.2,8
	c-0.3,1.9-1.7,3.7-2.7,5.8c-7.4,17.3,2.8,38.9,8.5,51.7c-17.5-5.4-28.9-12.5-39.3-24.6c-1.3-1.5-2.6-3.5-4.1-4.8
	c-1.6-1.4-3.7-2-5.3-3.2c-18.1-12.2-32.8-28.5-36.7-54.9c-1.4-9.2-1-20.7,1.2-30.2c7.6-32.9,34.2-51.3,60.8-64.4
	c3.9-1.9,9.6-4,8.2-10.9c-0.9-4.2-8.6-6.1-13.3-7.5c-11.4-3.3-21.8-5.5-32.1-9.5c-2.1-0.8-4.8-2.1-7.3-3.2c-2.3-0.9-5.5-3-7.1-3.2
	c-1.9-0.1-5.5,1.7-7.6,2.2c-2.4,0.6-4.9,1.2-7.6,1.7v-4.5c4.5-0.9,8.6-2.1,12.5-3.3c1.7-3.7,2.2-9.5,0.9-14.1
	c-4.4-0.1-8.9,0.6-13.4,0.8v-4c4-0.5,8.1-0.9,12.2-1.4c-1.4-2.2-4.4-2.7-7.1-3.4c-1.6-0.4-3.4-0.7-5.2-0.9v-3.7
	c5.5,0.8,10.5,2.2,14.6,4.4c0.9,0.8,0.7,2.5,1.5,3.4c15.6-0.6,31,0.1,44,3.2c6,1.4,11.9,3.8,17.6,6c5.9,2.3,11.7,4.5,17.5,6.1
	c5.6,1.6,12.3,2.3,18.9,2.3v6c-21.9,0-37.5-9.8-53.1-14.7c0.6-1.1-0.3,0-0.2,0c-3-0.3-6.3-1.6-10-2.2c-9.6-1.6-21.7-2.5-33.6-2.2
	c0.2,4.1,0.5,9.9-0.7,13.9c14.2,7.1,33,9.2,50.1,13.8c16.8,4.6,33.6,8.8,41,22.8c-2.4,0.2-3.7-2-5.5-3.1c-5.5-3.5-12.4-5.7-19.4-7.8
	c2.6,13.9-8,18.4-16.5,22.9c-21.7,11.4-42.8,26-51,51.8c-5.3,16.3-4.3,36.3,1.7,50.3c5.9,13.8,14.8,24.3,26.2,32
	c-3-14,2.1-27.2,7.6-37.2c4.2-7.6,9-13.8,14.3-19.9c11.2-12.9,23.6-23.7,36.4-34.1c4.2-3.4,8.5-6.7,12.8-9.9v12
	c-15.4,11.4-30.7,23-42.8,36.9c-2.4,2.2-5.2,5.2-7.4,8c-0.6,0.7-1.1,2.7-2.2,1.9c0.1,1.6-1.3,2.9-2.2,4.1
	c-6.3,8.9-13.9,21.5-12,37.4C301,441.4,304.1,445,308.8,449.7L308.8,449.7z M285,184.1c3-0.1,6.3,0.6,8.8,0c1.9-0.4,3.4-2.9,6-5.1
	c12-10.2,26.6-18.1,46.2-20.9c3.2-0.5,7.6-0.7,9.9-1.2h4.4c2.1,0.1,4.2,0.4,6.3,0.6v7.3c-7.5-0.9-15.3-0.9-23.3,0.3
	c-20.3,2.9-34.1,11.6-47.5,22.8c-16.1-0.8-31.2,1.2-43.3,6v-3.8C261.8,186.6,272.7,184.5,285,184.1z M366.5,345.3v-12
	c9.1-6.9,18.3-13.6,26.6-21.2c20-18.2,39.6-44.3,40.3-81.6c0.6-28.5-11.8-44.4-32.1-54.9c-9.8-5.1-21.7-9.2-34.8-10.7v-7.3
	c33.6,4.1,60.6,16.4,71.5,43.3c1.7,4,3.1,8.4,3.9,12.9c4,22-0.8,43.1-7.5,59c-7,16.5-17.6,29.5-28.2,40.9c3.7-0.1,7.3-1.1,12.2-1
	c0.4,0,2.2,0.5,1.4,0.5c1,0,1-0.5,1.7-0.5c18.1-0.5,33.3,4.5,44,12.2c12.2,8.8,19.6,22.6,19.9,42v2.4c0,3.2-0.3,6.6-0.7,10
	c-1.7-1.2-2.9-3.3-4.6-5.1c-3.7-3.9-9.3-8.4-16.8-5.1c-6.1,2.7-9,9.1-11.9,15.6c-4.8-4.2-8.6-9.4-15.6-11.4c5,5.3,7.8,10.8,7.1,21.4
	c-0.9,0.6-2.7-1.3-3.7-2.2c-7.5-6.8-15.4-14.3-31.3-13.3c-0.3,0.9,1.4,1.6,2.4,2.7c3.2,3.5,5.3,10.7,2.7,17c-2.4-0.6-3.6-3-5.3-4.6
	c-5.3-4.9-11.4-8.4-19.4-10.7c-0.3,0.9,1.4,2,2.4,3.1c3.8,4.4,6.7,12.2,4.6,19.9c-8.4-1.7-18.4-4.1-28.7-3.9v-5.3c1.2,0,2.3,0,3.5,0
	c7.4,0.1,14.5,1.8,20.9,2.7c0.4-12-7.5-16-15.3-19.9c15.4-1.9,25.4,4.3,34.5,10.4c0.1-7.8-5.5-9.9-11.2-11.9
	c7.8-3.8,21.2-2.7,28.9,0.5c3.8,1.6,6.8,4,10,5.1c-0.5-6-6.3-11.2-11.4-14.4c9.8-1.9,17.8,3.7,23.6,8.1c4-6.4,10.2-13.8,19.9-13.1
	c5.3,0.4,8.1,3.5,11.9,6c-1.6-38.1-27.2-52.2-64.9-54.2c-0.6,0.1,0.3-0.9-0.3-0.2c-0.3-0.1-1.1,0.2-1.2,0.2c-2.9,0-8.4-1.2-11.9-0.2
	c-1.2,0.3-3.5,2.7-5.1,4.1C388.5,329.1,377.5,337.2,366.5,345.3L366.5,345.3z M366.5,256.9c1.1,0,2.2-0.1,3.2-0.1
	c21.2-0.9,40.8-9.3,42.6-28.2c0.9-9.4-1.8-16.5-5.1-22.1c-0.6-1.2-1.6-3.5-3.1-3c2.3,5.8,4.8,11.2,5,18c0.6,14.1-8.8,22.5-20.7,26.3
	c-6.2,1.9-14,3-21.9,3V256.9z"/>
<path class="st3" d="M255.8,221.7c1.6-5.3,4-16-3-15.6c-3.2,0.2-4.5,3.5-3.4,7.3c0.1,0.1,1.1-0.4,0.3,1
	C251.6,217.1,252.9,220.1,255.8,221.7z"/>
<path class="st3" d="M351.4,208.1c-3.6,0-6.6-2.7-6.6-5.9c0-3.3,3-6,6.6-6s6.5,2.7,6.5,6C357.8,205.4,355,208.1,351.4,208.1z"/>
<path d="M344.7,202.2c0-3.4,3-6.1,6.7-6.1c3.6,0,6.6,2.7,6.6,6.1c0,3.3-3,6-6.6,6C347.7,208.2,344.7,205.5,344.7,202.2z
	 M344.9,202.2c0,3.2,2.9,5.8,6.4,5.8c3.5,0,6.4-2.6,6.4-5.8c0-3.2-2.9-5.9-6.4-5.9C347.8,196.3,344.9,199,344.9,202.2z"/>
<path class="st2" d="M352.3,202.3c-1.2,0-2.1-0.9-2.1-1.9s0.9-1.9,2.1-1.9c1.1,0,2,0.9,2,1.9S353.4,202.3,352.3,202.3z"/>
<path d="M350.1,200.3c0-1.1,1-2.1,2.2-2.1c1.2,0,2.1,0.9,2.1,2.1s-1,2.1-2.1,2.1C351.1,202.4,350.1,201.5,350.1,200.3z M350.3,200.3
	c0,1,0.9,1.8,2,1.8c1,0,1.9-0.8,1.9-1.8s-0.9-1.8-1.9-1.8C351.2,198.5,350.3,199.3,350.3,200.3z"/>
<rect x="296.2" y="251.9" width="0.2" height="0.4"/>
<path class="st3" d="M359,382.7c10.2-6.8,29.1-18.1,47.8-20c-1.4-5.1-6.3-4.1-9.1-6.8c5.5-5.8,15.2-9,24-12.8
	c-4.3-2.4-8.6-5.1-14.3-5.3c1.9-6,14.5-7.6,21.6-8.5c-9.6-5.6-26.6-11.5-36.9-7.6c10.4-0.8,18.7,1.8,26.3,5.8
	c-8.9,2.6-15.8,6.3-17.6,13c4.5-0.6,7.5,1.3,11.4,1.5c-7,5.2-16.6,8.7-21.7,15c1.9,2.4,5.2,2.7,8.2,3.3
	C383,366.2,368.1,372.8,359,382.7z"/>
<g>
	<path d="M232.3,529.1l-2.1-6.3l-5.9,0.5v-7.5l3.3-0.3l-3.2-9.3l-0.1-0.1v-11.4l5-0.4l14.3,33.8L232.3,529.1z M224.3,523.3l-4.5,0.4
		l-1.1,6.6l-11.3,1l8.9-35.8l7.9-0.7v11.4c-0.4-1.3-0.7-2.5-0.9-3.7l-0.3,0.1c0,0.4-0.1,1-0.1,1.9c-0.1,0.9-0.8,4.8-1.9,11.7
		l3.3-0.3V523.3z"/>
	<path d="M277.4,515.9c0.1,3.5-1,6.1-3.3,8.1c-2.4,1.9-5.8,3-10.2,3.1l-2.8,0.1v-7.1h0.6c1.4-0.1,2.6-0.4,3.4-1.1
		c0.8-0.7,1.2-1.6,1.2-2.7c-0.1-1-0.4-1.8-1.2-2.4c-0.7-0.6-1.7-0.9-2.9-0.9l-1.1,0.1v-7.1c1-0.1,1.9-0.4,2.5-1
		c0.8-0.6,1.1-1.4,1.1-2.4c-0.1-1.8-1.3-2.7-3.6-3v-7.1h0.5c9.3-0.3,14,2.3,14.2,7.9c0.1,1.2-0.2,2.4-0.8,3.4
		c-0.5,1.1-1.4,1.9-2.5,2.7c-1.2,0.9-2.4,1.4-3.9,1.7v0.1c1.7,0.1,3.2,0.6,4.5,1.4c1.3,0.7,2.4,1.7,3.1,2.8
		C277,513.5,277.3,514.7,277.4,515.9z M261.1,527.2l-13.1,0.4l-1.2-34.8l14.3-0.5v7.1c-0.5,0-1-0.1-1.6,0l-1.9,0.1l0.2,6.6l3-0.1
		c0.1,0,0.2-0.1,0.3-0.1v7.1l-3.1,0.1l0.3,7.1l2.8-0.1V527.2z"/>
	<path d="M312.8,509.9c0,5.6-1.3,9.7-3.9,12.5c-2.5,2.7-6.5,4.1-11.7,4.1c-5,0-8.7-1.4-11.3-4.1s-3.9-6.8-3.9-12.2v-19.2h10.6v19.5
		c0,2.2,0.4,4,1.3,5.2c0.8,1.2,2,1.8,3.6,1.8c1.4,0,2.7-0.6,3.5-1.7c0.9-1.2,1.3-2.8,1.3-5v-19.7h10.6V509.9z"/>
	<polygon points="337.4,499.5 337,526.1 326.4,526 326.8,499.4 317.1,499.1 317.2,490.9 347.4,491.5 347.2,499.7 	"/>
	<path d="M369.1,528.3l-2.1-7.7c-0.1-0.7-0.4-1.4-0.6-1.9v-10.4c0.7-0.1,1.4-0.4,1.9-0.9c0.9-0.7,1.4-1.7,1.4-2.9
		c0.1-1.2-0.2-2.1-0.9-2.8c-0.6-0.6-1.4-1-2.5-1.2v-7.3l1.1,0.1c4.8,0.4,8.4,1.4,10.6,3.1c2.2,1.8,3.2,4.2,3,7.4
		c-0.2,2.4-1,4.4-2.4,5.9c-1.5,1.5-3.6,2.5-6.3,3.1v0.1c1.4,0.6,2.7,1.4,3.5,2.5c0.9,1.1,1.7,2.6,2.3,4.7l2.8,9.1L369.1,528.3z
		 M366.3,518.6c-0.3-0.6-0.6-1.2-1.1-1.7c-0.7-0.9-1.5-1.4-2.4-1.4h-0.4l-0.9,12.2L351,527l2.4-34.8l12.9,0.9v7.3
		c-0.2,0-0.5,0-0.7-0.1l-2.2-0.1l-0.6,8l1.9,0.1c0.6,0.1,1.1,0.1,1.6-0.1V518.6z"/>
	<polygon points="384.5,529.7 388.8,495.1 410.3,497.8 409.3,505.9 398.2,504.5 397.6,509.6 408,510.9 407,519 396.6,517.7 
		395.9,522.8 407.9,524.3 406.9,532.4 	"/>
</g>
</svg>
