<?xml version="1.0" encoding="utf-8"?>
<!-- Generator: Adobe Illustrator 21.0.2, SVG Export Plug-In . SVG Version: 6.00 Build 0)  -->
<svg version="1.1" id="Camada_1" xmlns="http://www.w3.org/2000/svg" xmlns:xlink="http://www.w3.org/1999/xlink" x="0px" y="0px"
	 viewBox="0 0 595 842" style="enable-background:new 0 0 595 842;" xml:space="preserve">
<style type="text/css">
	.st0{fill-rule:evenodd;clip-rule:evenodd;fill:#303C8C;}
	.st1{fill-rule:evenodd;clip-rule:evenodd;fill:#2B6D37;}
	.st2{fill-rule:evenodd;clip-rule:evenodd;fill:#FFFFFF;}
	.st3{fill-rule:evenodd;clip-rule:evenodd;}
	.st4{fill-rule:evenodd;clip-rule:evenodd;fill:#D68500;}
	.st5{fill-rule:evenodd;clip-rule:evenodd;fill:#EDEEF0;}
	.st6{fill:#EDEEF0;}
	.st7{fill-rule:evenodd;clip-rule:evenodd;fill:#5B5B5F;}
	.st8{fill:#5B5B5F;}
	.st9{fill-rule:evenodd;clip-rule:evenodd;fill:#FEEE00;}
</style>
<g>
	<g>
		<path class="st0" d="M309.9,232.9c111.6,0,202.1,87,202.1,194.2c0,107.3-90.5,194.3-202.1,194.3c-111.5,0-202-87-202-194.3
			C107.8,319.9,198.4,232.9,309.9,232.9z"/>
		<path d="M309.9,625.3c-113.6,0-206-88.9-206-198.3c0-109.3,92.4-198.2,206-198.2c113.6,0,206.1,88.9,206.1,198.2
			C516,536.4,423.5,625.3,309.9,625.3z M309.9,236.9c-109.2,0-198,85.3-198,190.2c0,104.9,88.8,190.3,198,190.3
			C419.1,617.3,508,532,508,427.1C508,322.2,419.1,236.9,309.9,236.9z"/>
	</g>
	<path class="st1" d="M309.9,251.7c100.7,0,182.4,78.6,182.4,175.3c0,96.8-81.7,175.4-182.4,175.4c-100.7,0-182.4-78.6-182.4-175.4
		C127.5,330.3,209.2,251.7,309.9,251.7z"/>
	<path class="st0" d="M309.9,568.4c81,0,147.1-63.5,147.1-141.3s-66.1-141.3-147.1-141.3c-80.9,0-147,63.5-147,141.3
		S229,568.4,309.9,568.4z"/>
	<g>
		<path class="st2" d="M309.4,297.2c75.2,0,136.2,59.2,136.2,132.1c0,73-61,132.2-136.2,132.2c-75.2,0-136.2-59.2-136.2-132.2
			C173.2,356.4,234.3,297.2,309.4,297.2z"/>
		<path d="M309.4,561.6c-18.4,0-36.2-3.5-53-10.4c-16.2-6.7-30.8-16.2-43.3-28.4c-12.5-12.2-22.4-26.3-29.2-42.1
			c-7.1-16.3-10.7-33.6-10.7-51.5c0-17.8,3.6-35.2,10.7-51.5c6.9-15.7,16.7-29.9,29.2-42c12.5-12.1,27.1-21.7,43.3-28.3
			c16.8-6.9,34.7-10.4,53-10.4c0,0,0,0,0,0c18.4,0,36.3,3.5,53.1,10.4c16.2,6.7,30.8,16.2,43.3,28.3c12.5,12.1,22.3,26.3,29.2,42
			c7.1,16.3,10.7,33.6,10.7,51.5c0,17.9-3.6,35.2-10.7,51.5c-6.9,15.8-16.7,29.9-29.2,42.1s-27.1,21.7-43.3,28.4
			C345.7,558.1,327.9,561.6,309.4,561.6z M309.4,297.3c-18.4,0-36.2,3.5-53,10.4c-16.2,6.7-30.8,16.2-43.3,28.3
			c-12.5,12.1-22.3,26.2-29.2,42c-7.1,16.3-10.7,33.6-10.7,51.4c0,17.8,3.6,35.1,10.7,51.4c6.9,15.7,16.7,29.9,29.2,42
			c12.5,12.1,27.1,21.7,43.3,28.3c16.8,6.9,34.6,10.4,53,10.4c18.4,0,36.2-3.5,53-10.4c16.2-6.7,30.8-16.2,43.3-28.3
			c12.5-12.1,22.3-26.3,29.2-42c7.1-16.3,10.7-33.6,10.7-51.4c0-17.8-3.6-35.1-10.7-51.4c-6.9-15.7-16.7-29.8-29.2-42
			c-12.5-12.1-27.1-21.6-43.3-28.3C345.7,300.8,327.8,297.3,309.4,297.3z"/>
	</g>
	<g>
		<path class="st3" d="M337.3,400.4c24.3,19.4,191.6,159,63.5,129.7c-39.5-9.1-83.4-7.6-126.2-7.6c-31.3,0-66.5,13-89.5,13
			c-30.7,0-33.5-105.6,10.7-119.4c30.7-9.9,51.3,1.1,78.8,8.4C289.9,428.6,323.6,401.2,337.3,400.4z"/>
		<path d="M185.1,543.5c-14.7,0-25.7-14.8-29.4-39.5c-2.7-18-1.2-38.9,4-55.7c6.6-21.2,18.3-35,33.7-39.8c27-8.7,46.9-2.6,68,3.8
			c4.9,1.5,10,3.1,15.3,4.4c5.8,1.5,21.3-6.9,31.6-12.5c11.3-6.1,21-11.4,28.6-11.8l3.1-0.2l2.4,1.9c1.5,1.2,36.4,29.3,67.4,60.1
			c38.3,38.1,52.2,61.7,45.1,76.4c-7.7,16-33.9,12.2-55.8,7.2c-33.9-7.8-72-7.6-108.9-7.5c-5.2,0-10.4,0-15.5,0
			c-16,0-33.2,3.6-49.8,7.1C210.2,540.6,196.5,543.5,185.1,543.5z M220,420.1c-6.8,0-13.9,1-21.7,3.6c-21.8,6.8-31.5,46.5-26.8,77.8
			c2.7,17.8,9,25.9,13.6,25.9c9.8,0,22.7-2.7,36.4-5.6c16.6-3.5,35.4-7.4,53.1-7.4c5.1,0,10.3,0,15.5,0c37.8-0.2,76.9-0.3,112.5,7.9
			c33.7,7.7,37.8,1.5,37.8,1.4c0.2-0.4,4.8-11.5-42-58.1c-25.7-25.6-54.2-49.3-63.3-56.6c-4.8,1.5-12.7,5.8-19.3,9.4
			c-15.5,8.4-31.4,17.1-43.3,13.9c-5.5-1.5-10.8-3.1-15.8-4.6C243.6,423.6,232.3,420.1,220,420.1z"/>
	</g>
	<g>
		<path class="st2" d="M125.2,612.6l74.7-21.5l1.2-15.2c79.1-11.7,151.7-10.5,217.9,3.2l0.4,14.3l74.3,19.2
			c-3.9-12.5-10-21.8-17.5-29.4c9.9-6.9,17-13.2,17.5-18.3l-38.1-13v-20.3c-87-25.7-193.6-28.3-293,0v21l-37.4,12.3
			c-3.3,3,11.2,12.7,16.7,19.1C136.4,593.5,127.4,602.1,125.2,612.6z"/>
		<path d="M120,618.3l1.3-6.5c1.6-7.9,6.4-14.4,11.1-20.8c1.6-2.2,3.1-4.3,4.5-6.4c-1.5-1.5-3.4-3.1-5.3-4.8
			c-6.9-6.1-10.9-9.7-10.9-13.7c0-1.6,0.6-3.1,1.8-4.1l0.6-0.6l35.4-11.7v-21.2l2.9-0.8c95.6-27.2,203.2-27.2,295.3,0l2.9,0.8v20.4
			l38.4,13.1l-0.3,3.2c-0.5,5.2-5.2,10.9-15.5,18.5c7,8,12,17,15.3,27.6l2.1,6.8l-84.2-21.7l-0.4-14.1
			c-63.9-12.8-134.7-13.9-210.3-3l-1.2,14.8L120,618.3z M423.3,590.3l64,16.5c-3.3-7.9-7.9-14.7-14-20.8l-3.3-3.4l3.9-2.7
			c8.7-6.1,12.7-10.1,14.5-12.6l-36.8-12.6v-20.2c-89.1-25.7-192.6-25.7-285,0v20.9l-36.4,12c1.8,1.9,4.7,4.5,6.7,6.3
			c2.9,2.6,6,5.2,8,7.6l1.9,2.2l-1.4,2.5c-2,3.3-4.3,6.6-6.5,9.7c-2.7,3.7-5.3,7.3-7.2,10.9l64.5-18.5l1.3-15.6l3.1-0.5
			c79-11.6,152.8-10.5,219.3,3.3l3.1,0.6L423.3,590.3z"/>
	</g>
	<g>
		<path class="st3" d="M437.3,588.1c4.2-0.6,8.2-1.4,11.9-2.4l-11.9-2.5v-3c6.3,1.4,12.4,3,18.3,4.8v-53.2c-5.9-1.7-12-3.3-18.3-4.8
			v-3.2c7.4,1.7,14.5,3.5,21.5,5.5v21.5c13.4,4.9,27.1,9.4,41.3,13.5c-5.7,7.5-14,12.4-19.8,19.9c6.4,11.3,13.9,21.5,19.8,33.3
			c-20.4-6.6-41-13.1-62.7-18.4v-2.9c19.7,4.6,38.4,10.2,56.4,16.5c-5-10.7-11.7-19.5-17.5-29.4c5.3-6.2,15.3-11.8,17.5-18.3
			c-12.2-2.8-22.1-8.1-34.9-10.4c-0.5,10.9,1,23.8-0.8,33.4c-7.2,0.8-14.7,1.4-20.7,2.3V588.1z M419,591.2
			c5.8-1.4,12.1-2.2,18.3-3.1v2.2c-6.2,0.9-10.8,1.8-12,3.2c4,0.8,8,1.7,12,2.6v2.9c-7-1.7-14.2-3.2-21.5-4.7v-15.1
			c-61.7-13.3-149.8-12.2-212.8-0.8v15.9c-7.3,1.3-14.5,2.9-21.5,4.5V596c4-1.1,7.9-2.2,11.9-3.2c-3.9-0.6-7.9-1.3-11.9-1.9v-3
			c6.1,1.1,12,2.3,18.2,3.2c-0.9-3.6,1.9-10.9-1.6-12c-5,1.8-10.9,2.7-16.6,3.9v-3.2c76.2-17.4,179.6-17.5,255.7,0.1v3l-18.3-3.9
			C418.7,582.3,418.9,588.6,419,591.2L419,591.2z M437.3,523.6v3.2c-75.7-17.7-179.7-17.6-255.7-0.1v-3
			C258.1,506.1,360.8,506.2,437.3,523.6z M181.6,523.6v3c-6.6,1.5-13,3.2-19.1,5v53.2c6.1-1.8,12.5-3.4,19.1-4.9v3.2
			c-4.2,0.9-8.4,1.8-12,3.3c4.2,0.3,8.1,0.9,12,1.5v3c-7.3-1-14.7-2.1-21.5-3.7v-32.6c-13,2.2-22.6,7.6-35,10.4
			c1.4,7.3,13.3,11,16.7,19.1c-5,9.5-13.6,19.7-16.7,28.6c17.6-6.8,37.2-11.5,56.4-16.6v2.9c-22,5.4-42.6,12.2-63.6,18.5
			c7-10.8,13-22.5,20.7-32.5c-5-8.6-14.6-12.5-19.9-20.7c14.4-3.7,26.5-9.6,41.3-12.7v-22.2C167,527.1,174.2,525.3,181.6,523.6z"/>
		<path d="M108.8,624.3l5.9-9.1c2.5-3.9,5-8,7.3-11.9c3.7-6.2,7.5-12.6,11.8-18.6c-2.1-2.8-5-5.2-7.9-7.6
			c-3.7-3.1-7.6-6.3-10.5-10.8l-3-4.7l5.4-1.4c6.3-1.6,12.4-3.7,18.2-5.8c6.4-2.2,13-4.5,20.1-6.3v-22.1l2.9-0.8
			c85.6-25.2,215-25.2,300.8,0l2.9,0.8v21.6c12.7,4.6,25.6,8.8,38.4,12.5l5.6,1.6l-3.5,4.6c-3.1,4.1-6.9,7.4-10.5,10.6
			c-2.7,2.4-5.4,4.7-7.6,7.3c2.2,3.7,4.5,7.3,6.7,10.9c4.1,6.4,8.2,13.1,11.8,20.3l4.3,8.6l-9.1-3c-24.4-7.9-52.9-16.9-83.7-22.9
			l-3.2-0.6v-15.2c-56.8-11.6-139.9-11.9-204.8-0.7v9.3l4.3,0.8l-4.3,1.2v4.6l-3.3,0.6c-24.6,4.5-47.3,11.5-69.2,18.2
			c-5.1,1.6-10.2,3.2-15.4,4.7L108.8,624.3z M443.6,593.5c14,3.4,27.8,7.4,41.8,12c-1.9-3.3-4-6.5-6.1-9.8
			c-2.2-3.4-4.4-6.9-6.6-10.5l-1.4-2.4l1.8-2.2c2.2-2.6,5.1-5,7.9-7.4c2.3-1.9,4.6-3.9,6.4-5.8c-3.7-1.1-7.2-2.3-10.6-3.5
			c-4.7-1.7-9.2-3.2-14.1-4.4c0,2.6,0.1,5.3,0.1,8c0.1,5.7,0.3,11.6-0.3,16.9l3.1,0.7l-3.2,0.9c-0.1,0.9-0.3,1.9-0.4,2.8l-0.5,2.9
			l-3,0.3c-2.3,0.2-4.6,0.5-6.8,0.7C449.1,592.9,446.4,593.2,443.6,593.5z M131.2,567.5c1.2,1.3,2.8,2.5,4.5,3.9
			c3.7,2.9,7.9,6.3,9.9,11.1l0.7,1.7l-0.9,1.7c-2.1,4-4.8,8-7.3,11.9c-1.7,2.6-3.4,5.1-4.9,7.7c12.4-4.2,25.6-7.6,38.4-11
			c0.8-0.2,1.7-0.4,2.5-0.7c-5-0.8-10.1-1.6-14.9-2.7l-3.1-0.7v-1l-3.6-0.3l3.6-1.5v-28.1c-4.8,1.2-9.3,2.7-14,4.4
			C138.7,565.1,135.1,566.4,131.2,567.5z M190.2,585.5c1.8,0.3,3.7,0.7,5.6,1c0-0.2,0-0.4,0.1-0.7c0-0.5,0.1-1.1,0.2-1.7
			C194.2,584.6,192.2,585,190.2,585.5z M422.9,584.1c0,0.7,0,1.4,0,2.2c1.9-0.3,3.8-0.7,5.7-0.9L422.9,584.1z M166.6,534.6v44.9
			c82.8-22.3,203-22.3,285,0v-44.9c-39.1-11-89.4-17.1-142.2-17.1c-0.1,0-0.2,0-0.4,0C256.4,517.6,205.9,523.6,166.6,534.6z"/>
	</g>
	<g>
		<path class="st3" d="M309,289.1c3,0,5.3-2.2,5.3-4.9s-2.4-4.8-5.3-4.8s-5.3,2.2-5.3,4.8S306.1,289.1,309,289.1z"/>
		<path d="M309,289.2c-3,0-5.4-2.2-5.4-5c0-2.7,2.4-4.9,5.4-4.9c3,0,5.4,2.2,5.4,4.9C314.5,287,312,289.2,309,289.2z M309,279.5
			c-2.9,0-5.2,2.1-5.2,4.7c0,2.6,2.3,4.8,5.2,4.8c2.9,0,5.2-2.1,5.2-4.8C314.2,281.6,311.9,279.5,309,279.5z"/>
	</g>
	<g>
		<path class="st2" d="M308.2,284.3c0.9,0,1.7-0.7,1.7-1.6c0-0.9-0.8-1.6-1.7-1.6c-0.9,0-1.7,0.7-1.7,1.6
			C306.6,283.6,307.4,284.3,308.2,284.3z"/>
		<path d="M308.2,284.4c-0.9,0-1.8-0.8-1.8-1.7s0.8-1.7,1.8-1.7c1,0,1.8,0.8,1.8,1.7S309.2,284.4,308.2,284.4z M308.2,281.2
			c-0.8,0-1.5,0.7-1.5,1.5s0.7,1.5,1.5,1.5c0.9,0,1.6-0.7,1.6-1.5S309.1,281.2,308.2,281.2z"/>
	</g>
	<path class="st3" d="M225.6,374.6c15.5-7.1,48-5.8,54.1,6.7c-27.9,0.6-44.9,11.9-54.7,30.5c4.3-18.8,23.1-28.4,42.6-34.1
		c-24.3-7.7-54.4,0.4-60.8,20.1c1.5-13.1,11-23.5,19.4-31.6c-13.3-0.4-23,6.2-29.8,10.4c5.8-17.6,18.1-28.6,40.2-29.8
		c-11.2,4.5-23.2,8.4-29.2,18.2c7.6-4,22.2-3.7,32.2-1.8C235,366.9,228.5,369,225.6,374.6z"/>
	<g>
		<path class="st4" d="M328.3,377.3c0,12,65.3,24,78.9,24c9.5,0,22.3,0,22.3,10.3c0,4.2,2.5,7.8,2.5,12.7c0,8.3,5.8-14,5.8-16.1
			c0-17.7,10.3-27.2-5.8-43.3c-7.1-7.1-18.6-14.1-26.9-18.2c-22.3-11.2-8.2,22.3-31,22.3C368.3,369,322.5,371.5,328.3,377.3z"/>
		<path d="M432.4,426.3c-0.3,0-0.4-0.4-0.4-0.5c-0.1-0.3-0.1-0.8-0.1-1.4c0-2.5-0.7-4.7-1.3-6.9c-0.6-2-1.2-3.9-1.2-5.9
			c0-10.2-12.8-10.2-22.2-10.2c-13.7,0-78.9-12-79-24c-0.5-0.5-0.6-1-0.4-1.5c2-4.9,40.4-7,46.4-7c11,0,13.3-7.8,15.3-14.6
			c1.3-4.2,2.4-8.1,5.5-9.5c2.4-1,5.7-0.4,10.1,1.8c8,4,19.8,11.1,27,18.2c11.3,11.3,9.6,19.2,7.6,29.2c-0.9,4.3-1.8,8.8-1.8,14.2
			c0,0.9-1,5.4-2.2,9.6C434.7,421.7,433.2,426.3,432.4,426.3z M397.6,344.5c-0.9,0-1.7,0.2-2.4,0.5c-3,1.3-4.2,5.2-5.4,9.3
			c-2.1,6.9-4.4,14.8-15.6,14.8c-5.2,0-44.2,2.1-46.2,6.8c-0.2,0.4,0,0.8,0.4,1.3l0,0v0c0,5,12.2,10.8,34.3,16.4
			c17.7,4.4,37.7,7.5,44.5,7.5c9.5,0,22.4,0,22.4,10.4c0,2,0.6,3.9,1.2,5.8c0.7,2.1,1.3,4.4,1.3,6.9c0,0.6,0,1.1,0.1,1.4
			c0.1,0.3,0.1,0.4,0.2,0.4c0.4,0,1.4-2.1,3.1-8.2c1.2-4.2,2.2-8.7,2.2-9.6c0-5.4,0.9-9.9,1.8-14.2c2-10,3.6-17.8-7.5-29
			c-7.1-7.1-18.9-14.2-26.9-18.2C402.1,345.3,399.6,344.5,397.6,344.5z"/>
	</g>
	<path class="st3" d="M405.6,360.7c0.4,4.8-6.3,7.5-10.9,9.1C395,366.3,399.8,356.6,405.6,360.7z"/>
	<path class="st3" d="M299.2,293.1c5.9,3.7,11,8.1,11.6,17.1c-5-10-13.1-16.9-26.7-18.3c17.5-8.1,38,2.5,48,11.6
		C324.4,299.1,314.3,291.9,299.2,293.1z"/>
	<path class="st3" d="M244.5,307.1c7.3,1.8,14,4.2,16.4,10.9c-5.8-6.8-19.8-9.1-31.6-6c7.3-9.5,30.2-14.9,46.8-9.1
		c-0.4-0.1,3.7,1.2,1.2,0.6C266,300.9,252.3,302.5,244.5,307.1z"/>
	<path class="st3" d="M281,319.9c5.8,3.5,12.3,6.3,14,14c-6.4-7.6-15.3-12.7-30.4-11.5c10.6-11.2,41.8-6,49.2,0.6
		C304.8,319,292.2,316.8,281,319.9z"/>
	<path class="st3" d="M222,327.2c9.2,1.6,15,6.6,17.6,14.6c-6.5-7.5-20.2-12.2-34.1-8.5c9.4-11.7,35.7-18,52.9-9.1
		C248.9,321.4,230.2,321.6,222,327.2z"/>
	<path class="st3" d="M266.4,340c7.1,2.4,12.5,6.6,14.6,14c-6.3-8.1-15.4-13.4-31-12.2c11.5-9.8,37-7.3,49.2,0
		C292.3,339.7,276.3,335.6,266.4,340z"/>
	<path class="st2" d="M347.2,335.7c-6.3,4.2-1.5,21.5,9.1,15.3C349.5,363.4,328.7,341.5,347.2,335.7z"/>
	<path class="st3" d="M289.5,397.2c3.1-3.5,15.7-6.2,23.7-3c-15-0.1-23.5,6.5-27.4,17.6c-5.8-23,8.5-39.7,26.1-45.1
		C300.2,372.7,291.2,381.2,289.5,397.2z"/>
	<path class="st3" d="M225.1,392.9c-3.2,7.5-8.8,21-5.5,33.3c3-6.3,7.3-11.2,14.5-13.2c-6.6,5.5-14.5,15-14,29.7
		C210.8,428.5,216.9,403.8,225.1,392.9z"/>
	<path class="st3" d="M260.9,398.4c-4.2,7-11.7,18.9-9.7,32.2c3.7-5.5,7.7-10.5,16.4-10.9c-10.2,5-16.6,13.8-18.2,27.4
		C242.1,428.4,251.7,408.3,260.9,398.4z"/>
	<path class="st3" d="M307.1,409.9c-4.9,4.7-12.1,16.1-7.3,27.3c3.2-5.3,12.5-7.3,20.1-4.8c-11.6,1.2-19.2,6.3-19.5,18.9
		C289.4,439.9,293.6,415.1,307.1,409.9z"/>
	<g>
		<path class="st5" d="M271.9,272.2c-24.2,18.6-46.1,21.5-67.5,25.1c-12.4,2.2,25.1-0.8,0.6,11.7c-16.3,8.4,5.6,2.5-23.9,33.8
			c-0.9,1,23.9-13.5,8,2.4c-12.3,12.3-25.2,30.7-15.3,50.4c1.2,3,6.7-25.8,6.7-1.9c0,37.4,16,72.4,40,96.3
			c6.1,6.1-1.9-21.5,13.5-6.2c36.9,36.9,9.2-23.9,32.5,11.1c16,24.6,20.9,0.6,39.2,3c13.5,1.9,26.4,5,41.7,5c5,0,9.9-24.6,9.9-29.5
			c0-4.9,14.1,9.9,14.1,14.2c0,14.7,9.8,14.7,9.8-0.6c0-25.8,8,17.2,8-10.4c0-8-1.2-6.1,3.1-1.9c18.4,18.4,1.4-24.3-0.9-29.9
			c-3.1-7.6-12.8-38.4-16.4-45.3c-3.2-6.1-32.1-6.7-42.9-15c-22.9-17.6,31.5-10.1,50.3-13.5c12.7-2.4,10.4-42.4,5.5-47.3
			c-19-19-41.8-39.9-70-49.1c-3-0.6,0.6,10.8-1.2,9.2c-9.1-8.1-20.7-12.2-33.7-14.1c-4.4-0.6,0.2,1.8,1.9,2.4
			C293,275.4,280.1,277.2,271.9,272.2z"/>
		<path class="st6" d="M280,506.2c-3.9,0-8.1-2.7-13.7-11.2c-5.4-8.1-8.4-11.6-9.7-11.2c-0.9,0.2-1,2.2-1.1,4.4c-0.2,3.1-0.5,7-3,8
			c-3.2,1.2-9.3-2.8-18.7-12.2c-3.6-3.6-6.2-5.1-7.8-4.5c-1.9,0.7-2.2,4.1-2.5,7c-0.2,2.3-0.4,4.3-1.3,4.6c-0.5,0.2-1.1-0.1-1.8-0.9
			c-12.1-12.1-22.1-27-29-43.2c-7.3-17.1-11-35-11-53.2c0-7.7-0.6-9.4-1.1-9.5c0,0,0,0,0,0c-0.8,0-2.1,3.8-3,6.6
			c-1.1,3.2-1.7,5.1-2.3,5.1c0,0,0,0,0,0c-0.1,0-0.2-0.1-0.3-0.3c-7.8-15.5-2.6-32.5,15.4-50.5c5-5,5.6-6.6,5.2-7.1
			c-0.8-1.2-7.9,2.4-11,3.9c-2.2,1.1-2.2,1.1-2.3,1c0,0,0-0.1,0-0.2c16.9-17.9,16.9-23.6,16.9-26.7c0-2.4,0-3.4,7-7.1
			c5.9-3,8.7-5.4,8.4-7.1c-0.4-2.1-5.8-2.8-9-3.2c-2.1-0.3-2.6-0.3-2.6-0.6c0-0.2,0.2-0.4,2.7-0.8c1.1-0.2,2.3-0.4,3.4-0.6
			c20.2-3.4,41.2-7,64-24.5l0.1,0l0.1,0c5.5,3.4,13.1,3.7,15,2.5c0.3-0.2,0.4-0.4,0.4-0.6c0-0.3-0.4-0.9-2.6-1.8
			c-0.5-0.2-4-1.8-3.8-2.5c0.1-0.2,0.3-0.4,2-0.2c14.4,2.1,25.4,6.8,33.8,14.1c0.1,0.1,0.2,0.1,0.3,0.1c0.3-0.1,0.1-1.8-0.1-3.2
			c-0.3-2.4-0.7-5.2,0.2-6c0.2-0.2,0.5-0.3,0.8-0.2c12.8,4.2,25.4,11,38.5,20.9c11.9,9,22.6,19.3,31.5,28.2
			c3.6,3.6,5.8,25.6,1.8,38.5c-1.7,5.4-4.2,8.4-7.4,9c-5.7,1-14.5,1.1-23.8,1.1c-14.9,0-30.4,0.1-31.9,4.6c-0.6,1.8,1.2,4.4,5.4,7.6
			c5.5,4.2,15.8,6.4,24.9,8.4c8.9,1.9,16.5,3.6,18.1,6.6c2.2,4.2,6.6,17.2,10.5,28.6c2.5,7.4,4.7,13.7,5.9,16.7
			c0.1,0.3,12.9,31.3,8.3,34.4c-1.3,0.9-3.8-0.5-7.7-4.4c-1.3-1.3-2.1-2.4-2.6-3c-0.2-0.2-0.4-0.5-0.5-0.6c0,0.2,0,0.6,0,1.2
			c0,0.9,0.1,2.3,0.1,4.2c0,8.4-0.7,9.6-1.4,9.8c-0.9,0.2-1.9-1.9-2.9-4c-0.9-1.9-2-4-2.6-3.8c-0.7,0.2-1.1,3-1.1,8.5
			c0,8-2.6,11.7-5.1,11.7c-2.4,0-4.9-3.5-4.9-11c0-1.6-2.2-5.1-5.6-8.9c-3.2-3.6-6.4-6.2-7.7-6.2c-0.2,0-0.4,0.1-0.5,0.2
			c-0.1,0.1-0.2,0.4-0.2,0.7c0,2.6-1.3,10-3.1,16.7c-1.6,5.9-4.1,13-6.9,13c-11.1,0-21.1-1.6-30.7-3.2c-3.6-0.6-7.3-1.2-11-1.7
			c-7-0.9-12.1,2-16.5,4.6C285.9,504.6,283,506.2,280,506.2z M256.8,483.5c1.1,0,3.2,1.7,9.7,11.4c9.8,15,15.4,11.8,22.5,7.6
			c4.5-2.6,9.6-5.6,16.7-4.6c3.7,0.5,7.4,1.1,11,1.7c9.6,1.6,19.6,3.2,30.7,3.2c2.1,0,4.4-4.6,6.7-12.8c1.8-6.6,3.1-14.1,3.1-16.6
			c0-0.4,0.1-0.6,0.2-0.8c0.1-0.2,0.4-0.3,0.6-0.3c1.6,0,5.1,3.1,7.9,6.2c2.6,2.9,5.6,7,5.6,9c0,7.4,2.4,10.8,4.7,10.8
			c2.3,0,4.9-3.6,4.9-11.5c0-7.5,0.7-8.6,1.3-8.7c0.8-0.2,1.8,1.7,2.8,3.9c0.9,1.8,1.9,3.9,2.6,3.9c0,0,0,0,0.1,0
			c0.8-0.2,1.2-3.4,1.2-9.6c0-2-0.1-3.3-0.1-4.2c-0.1-1.1-0.1-1.4,0.1-1.4c0.2-0.1,0.3,0.1,0.7,0.7c0.5,0.6,1.3,1.7,2.6,3
			c3.7,3.7,6.2,5.1,7.4,4.3c3.7-2.5-4.8-25.4-8.4-34.1c-1.2-3-3.4-9.3-5.9-16.7c-3.9-11.4-8.3-24.4-10.5-28.6
			c-1.5-2.9-9.1-4.6-17.9-6.5c-9.1-2-19.4-4.2-25-8.4c-4.3-3.3-6.1-5.9-5.4-7.8c1.6-4.6,17.1-4.7,32.1-4.7c9.3,0,18-0.1,23.7-1.1
			c3.2-0.6,5.6-3.6,7.3-8.9c4-12.8,1.8-34.7-1.8-38.3c-8.9-8.9-19.6-19.2-31.5-28.2c-13.1-9.9-25.6-16.7-38.4-20.9
			c-0.3-0.1-0.5,0-0.6,0.1c-0.8,0.7-0.4,3.5-0.1,5.8c0.3,2.1,0.4,3.2,0,3.4c-0.2,0.1-0.4-0.1-0.5-0.1c-8.3-7.3-19.3-12-33.6-14.1
			c-1.6-0.2-1.7,0-1.7,0c-0.1,0.4,2.2,1.7,3.6,2.2c1.7,0.7,2.6,1.3,2.7,2c0,0.2-0.1,0.5-0.5,0.8c-1.9,1.2-9.6,0.9-15.1-2.5
			c-22.9,17.6-43.8,21.1-64.1,24.5c-1.2,0.2-2.3,0.4-3.4,0.6c-1.9,0.3-2.4,0.5-2.5,0.6c0.2,0.1,1.3,0.3,2.4,0.4
			c3.5,0.4,8.8,1.1,9.2,3.4c0.3,1.8-2.5,4.2-8.5,7.3c-6.9,3.6-6.9,4.5-6.9,6.9c0,3.1,0,8.9-16.7,26.6c0.4-0.2,1-0.5,1.8-0.9
			c5-2.5,10.3-5,11.2-3.8c0.6,0.8-1.1,3.2-5.2,7.4c-17.9,17.9-23.1,34.8-15.3,50.3c0.1,0.1,0.1,0.2,0.1,0.2c0.4,0,1.3-2.7,2.1-4.9
			c1.4-4.1,2.3-6.7,3.2-6.7c0,0,0,0,0.1,0c0.6,0.1,1.2,1.3,1.2,9.7c0,18.2,3.7,36,11,53.1c6.9,16.1,16.9,31.1,28.9,43.1
			c0.7,0.7,1.2,1,1.6,0.8c0.8-0.3,1-2.3,1.2-4.4c0.3-3,0.6-6.5,2.6-7.2c1.7-0.6,4.4,0.9,8.1,4.6c9.3,9.3,15.4,13.3,18.5,12.1
			c2.4-0.9,2.6-4.7,2.8-7.8c0.2-2.4,0.3-4.3,1.3-4.6C256.6,483.5,256.7,483.5,256.8,483.5z"/>
	</g>
	<path class="st3" d="M299.1,406.7c-9.8,15.4-18.7,49.7-10.3,74.2c-15.1-13.5-26.7-30.4-27.9-57.7c-4,8.4-5,22.7-3.1,33.4
		c-14.3-7.6-22.1-21.6-25.5-40c4.6,10.4,9.1,21.2,17,28.5c4.8-12.3,5-28.9,14.6-36.4c0.6,19.4,6.2,33.8,12.7,47.4
		C282.4,437.7,286.8,418.2,299.1,406.7z"/>
	<g>
		<path class="st7" d="M392.2,339.7c-6.3,0-13,0.6-18-2.4c-8.1-5.5-20.4-13.6-31-13.6c-9.3,0-21.1,1.2-29.7,1.2
			c-3.7,0-16.7,9.3-16.7,14.3c0,2.4-3.7,6.8,0,6.8c6.2,0,10.5-5.6,4.9,6.2c-0.6,1.9-1.9,16.7,0,13c2.5-5,3.7-8.7,6.8-11.8
			c5-5,3.7-0.6,3.7,5c0,0,5-3.7,8.1-4.3c6.2-1.9,13,0.6,17.4,3.1c5,3.1,27.9,3.7,30.4-1.3c0-0.6,12.4-6.2,14.3-8.1
			C382.8,347.1,392.8,340.3,392.2,339.7z"/>
		<path class="st8" d="M301.1,365.8C301.1,365.8,301,365.8,301.1,365.8c-0.6-0.2-0.7-2.4-0.4-6.5c0.2-3.1,0.6-6.4,0.8-7.3
			c2.2-4.7,2.9-6.7,2.5-7.2c-0.3-0.3-1.2-0.1-2.4,0.3c-1.3,0.4-3,0.9-4.9,0.9c-0.8,0-1.3-0.2-1.5-0.6c-0.5-0.8,0-2.1,0.6-3.5
			c0.4-1,0.8-2.1,0.8-2.9c0-2.2,2.6-5.6,7-9.1c3.9-3.1,8-5.3,9.8-5.3c4.2,0,9.1-0.3,14.3-0.6c5.2-0.3,10.7-0.6,15.4-0.6
			c9.9,0,21.3,6.9,31.1,13.6c4.2,2.6,9.8,2.5,15.2,2.5c0.9,0,1.9,0,2.8,0h0l0,0c0,0,0.1,0.1,0,0.2c-0.1,0.7-3.7,3.4-7.8,6.4
			c-1.1,0.8-2,1.5-2.2,1.6c-1.1,1.1-5.3,3.2-9,5.1c-2.5,1.3-5.1,2.6-5.2,2.9l0,0c-0.5,1.1-2,1.9-4.3,2.6c-7.2,2-22.2,1.3-26.3-1.2
			c-2.2-1.3-9.9-5.3-17.3-3.1c-3,0.6-8,4.3-8,4.3l-0.2,0.1v-0.2c0-1,0-2,0.1-2.9c0.1-2.2,0.2-3.9-0.5-4.1c-0.5-0.2-1.5,0.5-3.2,2.1
			c-2.3,2.3-3.6,5-5.1,8.3c-0.5,1.1-1.1,2.3-1.7,3.5C301.6,365.5,301.3,365.8,301.1,365.8z M303.5,344.5c0.3,0,0.5,0.1,0.6,0.2
			c0.5,0.6-0.1,2.5-2.4,7.4c-0.6,2-1.4,13.1-0.6,13.5c0,0,0.1,0,0.4-0.5c0.6-1.2,1.2-2.4,1.7-3.5c1.6-3.4,2.8-6,5.2-8.4
			c1.8-1.8,2.8-2.4,3.4-2.2c0.8,0.3,0.7,2,0.6,4.3c0,0.8-0.1,1.7-0.1,2.6c0.9-0.7,5.1-3.7,7.9-4.2c7.4-2.2,15.2,1.8,17.4,3.1
			c3.7,2.3,18.4,3.4,26.1,1.2c2.2-0.6,3.6-1.4,4.1-2.4c0.1-0.3,1.3-1,5.3-3c3.5-1.8,7.9-4,8.9-5.1c0.2-0.2,1-0.8,2.2-1.7
			c2.3-1.7,7.6-5.5,7.7-6.2c-0.9,0-1.8,0-2.7,0c-5.4,0.1-11,0.2-15.3-2.5c-9.8-6.7-21.1-13.6-31-13.6c-4.7,0-10.1,0.3-15.4,0.6
			c-5.2,0.3-10.1,0.6-14.3,0.6c-1.8,0-5.9,2.2-9.7,5.2c-4.3,3.4-6.9,6.8-6.9,8.9c0,0.9-0.4,1.9-0.9,3c-0.5,1.3-1.1,2.6-0.6,3.3
			c0.2,0.3,0.7,0.5,1.4,0.5c1.8,0,3.5-0.5,4.8-0.9C302.4,344.7,303,344.5,303.5,344.5z"/>
	</g>
	<g>
		<path class="st9" d="M349.7,344.6l8.6,6c-1.9,2.9-5.2,4.6-8.6,4.6c-5.8,0-10.5-4.8-10.5-10.6s4.8-10.5,10.5-10.5V344.6z"/>
		<path d="M349.7,355.3c-5.9,0-10.6-4.8-10.6-10.7c0-5.9,4.8-10.6,10.6-10.6h0.1v10.6l8.7,6l-0.1,0.1
			C356.5,353.6,353.2,355.3,349.7,355.3z M349.6,334.2c-5.7,0.1-10.3,4.7-10.3,10.4c0,5.8,4.7,10.5,10.4,10.5c3.4,0,6.6-1.7,8.5-4.5
			l-8.6-5.9V334.2z"/>
	</g>
	<path class="st3" d="M356.4,351c-3.5,1.9-6.3,1.5-8.3-0.1v-21.2c14.1,4.2,24.4,17,43.6,14c3.7-18.8-17.3-33.8-29.2-42
		c-4.7-3.2-9.5-6.1-14.3-8.8v-8.6c14.5,7.2,28.4,15.8,37.4,25.9c5.8,6.5,11.8,15,10.4,26.7c14.8,11.3,43.4,22.1,46.2,48v8.6v0.1
		v10.4c-2.1,10.4-6.5,18.6-12.2,25.5c2.7-7.8,7.7-16.1,7.9-27.4c6.6-30.7-17.6-48.2-41.4-55.9c-3.3,9.1-2.4,17.7-9.7,22.5
		c-9,5.9-24.8,3.4-38.7,3.7v-2.8c10.5-0.9,21.5-1.3,30.2-2.1c8.1-0.8,11.8-11.1,13.4-19.5c-12.2,3.7-25.4,10.4-40.2,8.6
		c-1.2-0.1-2.3-0.4-3.4-0.7v-1.4C351.2,355.3,354.4,354.6,356.4,351L356.4,351z M348.1,450.5c1.9-8.8,3.5-17.7,3.4-28.5
		c10.3,9.8,10.7,29.4,12.2,48.1c4.4-14.6,2.5-34.9-1.2-46.9c4.8,10.1,7.6,22.1,10.4,34.1c4.4-21.3-10.7-39.3-3.1-56.4
		c16.4,2.2,32.8,4.5,51.8,4.2c7.4,2.8,9.1,13.6,8.5,22.4c6.3-10.5,1.4-21.2-5.5-26.1c-15.6-10.9-53-16.8-73.6-18.9
		c20.8,6.1,42.7,11.2,62,18.9c-24.4-1.4-46.7-5-64.8-12.8V450.5z M348.1,350.9c-4.3-3.5-5.1-12.3-0.9-15.2
		c-13.1,4.2-6.6,16.3,0.9,18.6v1.4c-15.3-4.8-13.5-26-34.3-21.8c7.1-4.8,18.6-6.6,28.6-5.5c2,0.2,4,0.6,5.8,1.2V350.9L348.1,350.9z
		 M348.1,284.3c-14.7-7.3-30.1-13.4-42.3-18.5h-0.6c1.8,2.9,4.2,5,4.8,9.1c-10.8-5.5-25.3-10.1-41.9-7.9c3.5,1.4,7.6,2.2,9.8,4.8
		c-11.1,0-19.9,3.5-28,7.9c-5.5,3-11.3,9.3-15.8,9.7c-16.3,1.7-30.7,3.3-42,12.8c4.3-0.8,13-1.5,16.4,0.6c-13.5,5.2-21.8,15.5-31,25
		c4.2-1.4,10.6-5.6,17-6.7c0.6,2-2.5,4.2-4.2,6c-6.6,6.9-12.6,15.1-15.8,24.3c2.9-0.6,6.5-5.7,10.9-6.7c-7.9,9.1-14.5,19.6-17,34.1
		v9.8c1.9,6.4,3.5,13,8.5,16.4c-1.1-4.8-1.2-13.2,1.8-15.8c-0.4,37.1,6.3,67,24.3,85.7c-5.9-14.1-9.5-36.1-5.5-54.6
		c3.4,21.5,14.5,38.6,29.8,46.2c-16.9-12-24-34-27.9-59c-8.5,6.6-6.4,23.5-8.6,36.4c-6.6-17.9-5.7-43.2-6.6-66.8
		c-4.9,3.2-8.6,7.6-11.6,12.7c-2.7-21,16.2-40.3,27.4-50.5c1.2-1.1,4.8-2,3.7-4.2c-7.2,0.9-12.7,3.5-18.9,5.5
		c7.3-9.4,14.9-18.7,24.3-26.1c-4.9-0.4-8.4,0.5-11.6,1.8c5.1-7.7,15.3-10.3,22.5-15.8c-2.9-2-7.6-2-10.9-3.6
		c8.7-1.7,20.8-6,29.8-1.9c10.2-13.1,32.7-22.2,55.9-16.4c0.1-4.3-6.7-5-6.7-7.3c11.4,3.5,21.5,8.4,30.4,14.6c2-1.9-1-6,0-6.7
		c9.4,3.7,19.5,8.1,29.4,13.7V284.3L348.1,284.3z M348.1,369.5v2.8c-7.7,0.1-14.8,1.1-19.7,4.8c5.8,4.6,12.5,8.4,19.7,11.5v61.9
		c-0.5,2.2-1,4.5-1.5,6.8c-0.9-12.7-0.7-26.4-4.2-36.4c-12.7,9.6-11.2,38.5-9.1,59c-11.3-23.8-16.3-72.3,1.8-92.4
		c-5.1-3.8-13.7-4.2-15.8-10.9C326.1,372.4,336.9,370.5,348.1,369.5z"/>
	<path class="st3" d="M334,502.2c0.8-0.8,24.3,27.7,23-37.1c10.7,4.5,14.5,17.1,21,26.8c1.5-7.4,4-13.8,4.2-22.8
		c2.6,1.8,3,6.4,5.3,8.5c0.6-5.8,1.8-10.9,2.2-17c1.8,0.9,3.7,7.8,4.8,5.2c-1.6-24.8-6.3-45.6-13.9-63.1
		c17.6,15.6,13,59.5,23.5,82.7c1.5,3.3,4.6,5.5,5.3,8.5c-9.4-2.7-12.7-12.8-17.6-20.9c-1.2,5-1.4,11.3-2.2,17
		c-2.7-3-4.2-7.4-5.9-11.7c-1,13.1-4.2,27-10.2,31.9c1.2-9.2-0.5-17.8-3.7-24.1c-2.2-4.4-6.3-9.6-9.1-9.1
		C367.8,490.3,356,529.5,334,502.2z"/>
	<path d="M255.9,557.5c-1.1,0.7-2.6,1.4-4.7,2.1c-2.2,0.6-4.2,1.1-6,1.3c-5,0.4-9-0.5-12-2.7c-3-2.3-4.6-5.7-5-10.2
		c-0.2-3,0.2-5.8,1.4-8.2c1.2-2.4,3-4.5,5.3-5.9c2.4-1.4,5.3-2.3,8.7-2.6c2.4-0.2,5.1-0.1,8,0.4l0.7,7.6c-1.4-0.5-2.7-0.8-3.9-0.9
		c-1.3-0.1-2.6-0.1-4,0c-2.4,0.2-4.2,1.1-5.5,2.6c-1.3,1.6-1.8,3.6-1.6,6c0.2,2.4,0.9,4.2,2.2,5.4c1.3,1.3,3,1.8,5.1,1.6
		c1-0.1,1.7-0.1,2.2-0.4l-0.4-4l-5.5,0.4l-0.6-6.5l14.1-1.2L255.9,557.5z"/>
	<path d="M278.8,558.2l-1.4-5.2l-4.5,0.1V547l2.7-0.1l-2.3-7.7c-0.1-0.6-0.4-1.3-0.4-1.9v-7.5l5-0.1l10.3,28.3L278.8,558.2z
		 M272.8,553.1l-4,0.1l-1.2,5.3l-9.4,0.3l8.9-28.9l5.7-0.2v7.5c-0.1-0.4-0.2-0.9-0.2-1.2h-0.2c0,0.3-0.1,0.9-0.2,1.6
		c-0.1,0.7-0.9,3.9-2.1,9.5l2.7-0.1V553.1z"/>
	<path d="M307.9,557.7h-9.6l-9.3-28.7h9.3l4.3,17.6c0.4,1.4,0.6,2.5,0.6,3.2h0.2c0.1-0.9,0.3-2,0.6-3.3l4.2-17.6h9L307.9,557.7z"/>
	
		<rect x="310.5" y="539.2" transform="matrix(1.758522e-02 -0.9998 0.9998 1.758522e-02 -224.296 858.7004)" width="28.7" height="8.6"/>
	<path d="M352.5,559.2l-0.9-5.3l-4-0.2v-6.1l2.7,0.1l-1.6-7.9c-0.2-1.2-0.4-2.2-0.4-3.2H348c0,0.3-0.1,0.9-0.4,1.6
		c0,0.1-0.1,0.3-0.1,0.6v-8.4l6.6,0.4l7.8,29.1L352.5,559.2L352.5,559.2z M347.5,525.6V521c0.7,0.3,1.4,0.6,2,1.1
		c0.4,0.3,0.7,0.5,1.1,0.7c0.4,0.2,0.7,0.3,1.2,0.4c0.4,0,0.8-0.1,1.1-0.6c0.4-0.4,0.5-0.9,0.6-1.7l3.5,0.1c-0.1,2.2-0.6,3.9-1.4,5
		c-0.9,1.2-2,1.7-3.5,1.6c-1.2-0.1-2.3-0.4-3.4-1.2C348.2,526.1,347.8,525.9,347.5,525.6z M347.5,553.6l-4.5-0.2l-1.7,5.2l-9.3-0.5
		l11.4-28.1l4.1,0.2v8.4c-0.4,1.2-1.3,4.2-2.7,8.7l2.7,0.1V553.6L347.5,553.6z M347.5,521v4.7l-0.2-0.1c-0.4-0.3-0.7-0.4-1.2-0.4
		c-0.5-0.1-0.9,0.1-1.2,0.6c-0.4,0.4-0.5,0.9-0.6,1.7l-3.5-0.2c0.1-2.2,0.6-4,1.5-5c0.9-1.1,2-1.6,3.5-1.5
		C346.5,520.7,347,520.8,347.5,521z"/>
	<path d="M394.1,549.1c-0.3,2.9-1.2,5.3-2.7,7.4c-1.5,2.2-3.5,3.7-5.8,4.7c-1.8,0.7-3.7,1.1-5.8,1.1v-7.4c0.7-0.1,1.4-0.2,1.9-0.6
		c0.9-0.5,1.6-1.2,2.2-2.2c0.6-1.1,0.9-2.3,1.2-3.8c0.3-2.4,0.1-4.2-0.7-5.7c-0.7-1.4-1.9-2.3-3.4-2.5c-0.4,0-0.8,0-1.2,0v-7.4
		c0.7,0,1.4,0.1,2.1,0.1c2.7,0.4,5.1,1.2,7.1,2.7c2,1.4,3.5,3.4,4.3,5.8C394.3,543.6,394.5,546.3,394.1,549.1z M379.8,562.3
		c-0.6,0-1.2-0.1-1.9-0.1c-2.7-0.4-5-1.2-7.1-2.7c-2-1.4-3.5-3.4-4.5-5.7c-0.9-2.4-1.2-4.9-0.9-7.6c0.4-3,1.3-5.5,2.8-7.6
		c1.5-2.2,3.5-3.7,5.8-4.7c1.8-0.8,3.7-1.2,5.8-1.2v7.4c-1.2,0.1-2.2,0.6-3.1,1.5c-1.2,1.2-1.8,3-2.1,5.3c-0.3,2.4-0.1,4.2,0.7,5.6
		c0.8,1.4,2,2.2,3.6,2.4c0.3,0,0.6,0,0.9,0V562.3z"/>
</g>
</svg>
