<?xml version="1.0" encoding="utf-8"?>
<!-- Generator: Adobe Illustrator 21.0.2, SVG Export Plug-In . SVG Version: 6.00 Build 0)  -->
<svg version="1.1" id="Camada_1" xmlns="http://www.w3.org/2000/svg" xmlns:xlink="http://www.w3.org/1999/xlink" x="0px" y="0px"
	 viewBox="0 0 595 842" style="enable-background:new 0 0 595 842;" xml:space="preserve">
<style type="text/css">
	.st0{fill-rule:evenodd;clip-rule:evenodd;fill:#303C8C;}
	.st1{fill-rule:evenodd;clip-rule:evenodd;fill:#2B6D37;}
	.st2{fill-rule:evenodd;clip-rule:evenodd;fill:#FFFFFF;}
	.st3{fill-rule:evenodd;clip-rule:evenodd;}
	.st4{fill-rule:evenodd;clip-rule:evenodd;fill:#D68500;}
	.st5{fill-rule:evenodd;clip-rule:evenodd;fill:#EDEEF0;}
	.st6{fill:#EDEEF0;}
	.st7{fill-rule:evenodd;clip-rule:evenodd;fill:#5B5B5F;}
	.st8{fill:#5B5B5F;}
	.st9{fill-rule:evenodd;clip-rule:evenodd;fill:#FEEE00;}
</style>
<g>
	<path class="st0" d="M310,232.9c-111.6,0-202.1,87-202.1,194.2c0,107.3,90.5,194.3,202.1,194.3c111.5,0,202-87,202-194.3
		C512,319.9,421.5,232.9,310,232.9z"/>
	<path d="M103.8,427.1c0-109.3,92.5-198.2,206.1-198.2c113.6,0,206,88.9,206,198.2c0,109.3-92.4,198.3-206,198.3
		C196.3,625.3,103.8,536.4,103.8,427.1z M111.8,427.1c0,104.9,88.9,190.3,198.1,190.3c109.2,0,198-85.3,198-190.3
		c0-104.9-88.8-190.2-198-190.2C200.7,236.9,111.8,322.2,111.8,427.1z"/>
</g>
<path class="st1" d="M310,251.7c-100.7,0-182.4,78.6-182.4,175.3c0,96.8,81.7,175.4,182.4,175.4c100.7,0,182.4-78.6,182.4-175.4
	C492.3,330.3,410.6,251.7,310,251.7z"/>
<path class="st0" d="M310,568.4c-81,0-147.1-63.5-147.1-141.3S229,285.7,310,285.7c80.9,0,147,63.5,147,141.3S390.9,568.4,310,568.4
	z"/>
<g>
	<path class="st2" d="M310.4,297.2c-75.2,0-136.2,59.2-136.2,132.1c0,73,61,132.2,136.2,132.2c75.2,0,136.2-59.2,136.2-132.2
		C446.6,356.4,385.6,297.2,310.4,297.2z"/>
	<path d="M257.3,551.2c-16.2-6.7-30.8-16.2-43.3-28.4s-22.4-26.3-29.2-42.1c-7.1-16.3-10.7-33.6-10.7-51.5
		c0-17.8,3.6-35.2,10.7-51.5c6.9-15.7,16.7-29.9,29.2-42c12.5-12.1,27.1-21.7,43.3-28.3c16.8-6.9,34.7-10.4,53.1-10.4c0,0,0,0,0,0
		c18.4,0,36.2,3.5,53,10.4c16.2,6.7,30.8,16.2,43.3,28.3c12.5,12.1,22.4,26.3,29.2,42c7.1,16.3,10.7,33.6,10.7,51.5
		c0,17.9-3.6,35.2-10.7,51.5c-6.9,15.8-16.7,29.9-29.2,42.1c-12.5,12.1-27.1,21.7-43.3,28.4c-16.8,6.9-34.6,10.4-53,10.4
		C292,561.6,274.1,558.1,257.3,551.2z M257.4,307.7c-16.2,6.7-30.8,16.2-43.3,28.3c-12.5,12.1-22.3,26.2-29.2,42
		c-7.1,16.3-10.7,33.6-10.7,51.4c0,17.8,3.6,35.1,10.7,51.4c6.9,15.7,16.7,29.9,29.2,42c12.5,12.1,27.1,21.7,43.3,28.3
		c16.8,6.9,34.6,10.4,53,10.4c18.4,0,36.2-3.5,53-10.4c16.2-6.7,30.8-16.2,43.3-28.3c12.5-12.1,22.3-26.3,29.2-42
		c7.1-16.3,10.7-33.6,10.7-51.4c0-17.8-3.6-35.1-10.7-51.4c-6.9-15.7-16.7-29.8-29.2-42c-12.5-12.1-27.1-21.6-43.3-28.3
		c-16.8-6.9-34.6-10.4-53-10.4C292,297.3,274.2,300.8,257.4,307.7z"/>
</g>
<g>
	<path class="st3" d="M282.5,400.4c-24.3,19.4-191.6,159-63.5,129.7c39.5-9.1,83.4-7.6,126.2-7.6c31.3,0,66.5,13,89.5,13
		c30.7,0,33.5-105.6-10.7-119.4c-30.7-9.9-51.3,1.1-78.8,8.4C330,428.6,296.3,401.2,282.5,400.4z"/>
	<path d="M395.1,537.6c-16.6-3.5-33.8-7.1-49.8-7.1c-5.2,0-10.3,0-15.5,0c-36.9-0.1-75-0.3-108.9,7.5c-21.9,5-48,8.7-55.8-7.2
		c-7.1-14.7,6.8-38.3,45.1-76.4c30.9-30.8,65.9-58.9,67.4-60.1l2.4-1.9l3.1,0.2c7.6,0.4,17.3,5.7,28.6,11.8
		c10.3,5.6,25.8,14,31.6,12.5c5.3-1.4,10.4-2.9,15.3-4.4c21.1-6.4,41-12.5,68-3.8c15.4,4.8,27.1,18.6,33.7,39.8
		c5.3,16.9,6.8,37.7,4,55.7c-3.8,24.7-14.8,39.5-29.4,39.5C423.3,543.5,409.6,540.6,395.1,537.6z M363.1,427.6
		c-5.1,1.5-10.3,3.1-15.8,4.6c-11.9,3.2-27.9-5.5-43.3-13.9c-6.6-3.6-14.5-7.8-19.3-9.4c-9,7.4-37.6,31-63.3,56.6
		c-46.8,46.6-42.2,57.6-42,58.1c0,0.1,4.1,6.3,37.8-1.4c35.7-8.2,74.7-8,112.5-7.9c5.2,0,10.3,0,15.5,0c17.7,0,36.5,4,53.1,7.4
		c13.7,2.9,26.6,5.6,36.4,5.6c4.7,0,10.9-8.1,13.6-25.9c4.8-31.4-5-71.1-26.8-77.8c-7.9-2.6-15-3.6-21.7-3.6
		C387.5,420.1,376.2,423.6,363.1,427.6z"/>
</g>
<g>
	<path class="st2" d="M494.6,612.6L420,591.2l-1.2-15.2c-79.1-11.7-151.7-10.5-217.9,3.2l-0.4,14.3l-74.3,19.2
		c3.9-12.5,10-21.8,17.5-29.4c-9.9-6.9-17-13.2-17.5-18.3l38.1-13v-20.3c87-25.7,193.6-28.3,293,0v21l37.4,12.3
		c3.3,3-11.2,12.7-16.7,19.1C483.5,593.5,492.5,602.1,494.6,612.6z"/>
	<path d="M416.2,594.2l-1.2-14.8c-75.6-10.8-146.3-9.8-210.3,3l-0.4,14.1l-84.2,21.7l2.1-6.8c3.3-10.6,8.3-19.6,15.3-27.6
		c-10.3-7.6-14.9-13.3-15.5-18.5l-0.3-3.2l38.4-13.1v-20.4l2.9-0.8c92.1-27.2,199.7-27.2,295.3,0l2.9,0.8v21.2l35.4,11.7l0.6,0.6
		c1.2,1.1,1.8,2.5,1.8,4.1c0,4-4,7.6-10.9,13.7c-1.8,1.6-3.7,3.3-5.3,4.8c1.4,2.1,2.9,4.2,4.5,6.4c4.6,6.4,9.5,13,11.1,20.8l1.3,6.5
		L416.2,594.2z M196.9,575.9l3.1-0.6c66.6-13.8,140.4-14.9,219.3-3.3l3.1,0.5l1.3,15.6l64.5,18.5c-1.9-3.6-4.5-7.2-7.2-10.9
		c-2.3-3.1-4.6-6.3-6.5-9.7l-1.4-2.5l1.9-2.2c2.1-2.4,5.1-5,8-7.6c2-1.8,4.9-4.3,6.7-6.3l-36.4-12v-20.9c-92.4-25.7-196-25.7-285,0
		v20.2l-36.8,12.6c1.8,2.5,5.8,6.5,14.5,12.6l3.9,2.7l-3.3,3.4c-6,6.1-10.6,12.9-14,20.8l64-16.5L196.9,575.9z"/>
</g>
<g>
	<path class="st3" d="M182.5,590.3c-6-0.9-13.5-1.5-20.7-2.3c-1.8-9.6-0.3-22.5-0.8-33.4c-12.8,2.3-22.7,7.6-34.9,10.4
		c2.2,6.5,12.2,12.1,17.5,18.3c-5.8,9.9-12.5,18.7-17.5,29.4c17.9-6.3,36.6-11.9,56.4-16.5v2.9c-21.7,5.3-42.3,11.7-62.7,18.4
		c5.9-11.8,13.4-22,19.8-33.3c-5.8-7.5-14.1-12.4-19.8-19.9c14.1-4.1,27.9-8.6,41.3-13.5v-21.5c6.9-2,14-3.8,21.5-5.5v3.2
		c-6.3,1.5-12.4,3.1-18.3,4.8v53.2c5.9-1.7,12-3.3,18.3-4.8v3l-11.9,2.5c3.7,1.1,7.7,1.8,11.9,2.4V590.3z M200.8,591.2
		c0.1-2.6,0.3-8.9,0-12l-18.3,3.9v-3c76-17.6,179.4-17.5,255.7-0.1v3.2c-5.7-1.2-11.6-2.1-16.6-3.9c-3.5,1.1-0.7,8.4-1.6,12
		c6.3-0.9,12.1-2.2,18.2-3.2v3c-4,0.6-8,1.2-11.9,1.9c4,1.1,7.9,2.2,11.9,3.2v2.9c-7-1.7-14.1-3.2-21.5-4.5v-15.9
		c-62.9-11.4-151.1-12.5-212.8,0.8v15.1c-7.3,1.4-14.5,3-21.5,4.7v-2.9c4-0.9,7.9-1.8,12-2.6c-1.2-1.4-5.8-2.4-12-3.2v-2.2
		C188.7,589,195,589.8,200.8,591.2L200.8,591.2z M438.2,523.6v3c-76-17.5-179.9-17.6-255.7,0.1v-3.2
		C259,506.2,361.7,506.1,438.2,523.6z M459.6,529.2v22.2c14.8,3.2,26.9,9.1,41.3,12.7c-5.3,8.2-14.9,12.1-19.9,20.7
		c7.6,10.1,13.7,21.7,20.7,32.5c-21-6.3-41.5-13.1-63.6-18.5V596c19.2,5.1,38.9,9.8,56.4,16.6c-3.1-8.9-11.7-19.1-16.7-28.6
		c3.4-8.1,15.3-11.7,16.7-19.1c-12.4-2.7-22-8.2-35-10.4v32.6c-6.8,1.6-14.1,2.7-21.5,3.7v-3c3.9-0.6,7.8-1.2,12-1.5
		c-3.6-1.5-7.7-2.4-12-3.3v-3.2c6.6,1.5,13,3.1,19.1,4.9v-53.2c-6.1-1.8-12.5-3.5-19.1-5v-3C445.6,525.3,452.8,527.1,459.6,529.2z"
		/>
	<path d="M500.6,621.2c-5.1-1.5-10.3-3.1-15.4-4.7c-21.9-6.8-44.6-13.8-69.2-18.2l-3.3-0.6v-4.6l-4.3-1.2l4.3-0.8v-9.3
		c-64.9-11.2-147.9-10.9-204.8,0.7v15.2l-3.2,0.6c-30.8,6-59.3,15-83.7,22.9l-9.1,3l4.3-8.6c3.6-7.2,7.8-13.9,11.8-20.3
		c2.2-3.5,4.5-7.2,6.7-10.9c-2.3-2.6-4.9-4.9-7.6-7.3c-3.6-3.2-7.4-6.5-10.5-10.6l-3.5-4.6l5.6-1.6c12.8-3.7,25.7-7.9,38.4-12.5
		v-21.6l2.9-0.8c85.9-25.2,215.2-25.2,300.8,0l2.9,0.8v22.1c7.1,1.7,13.7,4,20.1,6.3c5.8,2,11.9,4.2,18.2,5.8l5.4,1.4l-3,4.7
		c-2.9,4.5-6.7,7.7-10.5,10.8c-2.9,2.4-5.8,4.8-7.9,7.6c4.3,5.9,8.1,12.4,11.8,18.6c2.4,4,4.8,8,7.3,11.9l5.9,9.1L500.6,621.2z
		 M168.2,592.7c-2.3-0.2-4.6-0.5-6.8-0.7l-3-0.3l-0.5-2.9c-0.2-0.9-0.3-1.8-0.4-2.8l-3.2-0.9l3.1-0.7c-0.5-5.3-0.4-11.2-0.3-16.9
		c0.1-2.6,0.1-5.3,0.1-8c-4.9,1.2-9.4,2.8-14.1,4.4c-3.4,1.2-6.9,2.4-10.6,3.5c1.7,1.9,4.1,3.9,6.4,5.8c2.8,2.3,5.6,4.8,7.9,7.4
		l1.8,2.2l-1.4,2.4c-2.1,3.6-4.4,7.1-6.6,10.5c-2.1,3.3-4.2,6.5-6.1,9.8c13.9-4.6,27.7-8.6,41.8-12
		C173.5,593.2,170.7,592.9,168.2,592.7z M477.6,563.9c-4.7-1.7-9.1-3.2-14-4.4v28.1l3.6,1.5l-3.6,0.3v1l-3.1,0.7
		c-4.8,1.1-9.8,2-14.9,2.7c0.9,0.2,1.7,0.4,2.5,0.7c12.8,3.4,26,6.8,38.4,11c-1.5-2.5-3.2-5.1-4.9-7.7c-2.6-3.9-5.2-7.9-7.3-11.9
		l-0.9-1.7l0.7-1.7c2-4.8,6.2-8.2,9.9-11.1c1.7-1.3,3.3-2.6,4.5-3.9C484.8,566.4,481.1,565.1,477.6,563.9z M423.8,584.1
		c0,0.6,0.1,1.2,0.2,1.7c0,0.2,0,0.4,0.1,0.7c1.9-0.3,3.8-0.7,5.6-1C427.6,585,425.7,584.6,423.8,584.1z M191.3,585.3
		c1.9,0.3,3.8,0.6,5.7,0.9c0-0.7,0-1.4,0-2.2L191.3,585.3z M310.7,517.5c-0.1,0-0.2,0-0.4,0c-52.8,0-103.1,6.1-142.2,17.1v44.9
		c82-22.3,202.3-22.3,285,0v-44.9C413.9,523.6,363.5,517.6,310.7,517.5z"/>
</g>
<g>
	<path class="st3" d="M310.8,289.1c-3,0-5.3-2.2-5.3-4.9s2.4-4.8,5.3-4.8s5.3,2.2,5.3,4.8S313.8,289.1,310.8,289.1z"/>
	<path d="M305.4,284.2c0-2.7,2.4-4.9,5.4-4.9c3,0,5.4,2.2,5.4,4.9c0,2.8-2.4,5-5.4,5C307.8,289.2,305.4,287,305.4,284.2z
		 M305.6,284.2c0,2.6,2.3,4.8,5.2,4.8c2.9,0,5.2-2.1,5.2-4.8c0-2.6-2.3-4.7-5.2-4.7C307.9,279.5,305.6,281.6,305.6,284.2z"/>
</g>
<g>
	<path class="st2" d="M311.6,284.3c-0.9,0-1.7-0.7-1.7-1.6c0-0.9,0.8-1.6,1.7-1.6c0.9,0,1.7,0.7,1.7,1.6
		C313.3,283.6,312.5,284.3,311.6,284.3z"/>
	<path d="M309.8,282.7c0-0.9,0.8-1.7,1.8-1.7c0.9,0,1.8,0.8,1.8,1.7s-0.8,1.7-1.8,1.7C310.6,284.4,309.8,283.6,309.8,282.7z
		 M310,282.7c0,0.8,0.7,1.5,1.6,1.5c0.8,0,1.5-0.7,1.5-1.5s-0.7-1.5-1.5-1.5C310.7,281.2,310,281.9,310,282.7z"/>
</g>
<path class="st3" d="M394.2,374.6c-15.5-7.1-48-5.8-54.1,6.7c27.9,0.6,44.9,11.9,54.7,30.5c-4.3-18.8-23.1-28.4-42.6-34.1
	c24.3-7.7,54.4,0.4,60.8,20.1c-1.5-13.1-11-23.5-19.4-31.6c13.3-0.4,23,6.2,29.8,10.4c-5.8-17.6-18.1-28.6-40.2-29.8
	c11.2,4.5,23.2,8.4,29.2,18.2c-7.6-4-22.2-3.7-32.2-1.8C384.8,366.9,391.3,369,394.2,374.6z"/>
<g>
	<path class="st4" d="M291.5,377.3c0,12-65.3,24-78.9,24c-9.5,0-22.3,0-22.3,10.3c0,4.2-2.5,7.8-2.5,12.7c0,8.3-5.8-14-5.8-16.1
		c0-17.7-10.3-27.2,5.8-43.3c7.1-7.1,18.6-14.1,26.9-18.2c22.3-11.2,8.2,22.3,31,22.3C251.5,369,297.4,371.5,291.5,377.3z"/>
	<path d="M184.1,417.9c-1.2-4.2-2.2-8.7-2.2-9.6c0-5.3-0.9-9.8-1.8-14.2c-2-10-3.7-17.9,7.6-29.2c7.1-7.1,19-14.3,27-18.2
		c4.5-2.2,7.8-2.8,10.1-1.8c3.1,1.3,4.3,5.3,5.5,9.5c2.1,6.9,4.4,14.6,15.3,14.6c6,0,44.4,2.1,46.4,7c0.2,0.5,0.1,1-0.4,1.5
		c-0.2,12-65.3,24-79,24c-9.4,0-22.2,0-22.2,10.2c0,2-0.6,3.9-1.2,5.9c-0.7,2.1-1.3,4.3-1.3,6.9c0,0.6,0,1.1-0.1,1.4
		c0,0.1-0.1,0.5-0.4,0.5C186.6,426.3,185.2,421.7,184.1,417.9z M214.7,346.8c-8,3.9-19.8,11.1-26.9,18.2c-11.2,11.2-9.6,19.1-7.5,29
		c0.9,4.4,1.8,8.9,1.8,14.2c0,0.9,1,5.4,2.2,9.6c1.7,6.1,2.7,8.2,3.1,8.2c0,0,0.1-0.1,0.2-0.4c0.1-0.3,0.1-0.8,0.1-1.4
		c0-2.6,0.7-4.8,1.3-6.9c0.6-2,1.2-3.8,1.2-5.8c0-10.4,13-10.4,22.4-10.4c6.8,0,26.8-3.1,44.5-7.5c22.1-5.5,34.3-11.3,34.3-16.4v0
		l0,0c0.4-0.4,0.6-0.9,0.4-1.3c-2-4.7-41-6.8-46.2-6.8c-11.1,0-13.5-7.9-15.6-14.8c-1.2-4.1-2.4-8-5.4-9.3c-0.7-0.3-1.5-0.5-2.4-0.5
		C220.2,344.5,217.8,345.3,214.7,346.8z"/>
</g>
<path class="st3" d="M214.2,360.7c-0.4,4.8,6.3,7.5,10.9,9.1C224.8,366.3,220,356.6,214.2,360.7z"/>
<path class="st3" d="M320.7,293.1c-5.9,3.7-11,8.1-11.6,17.1c5-10,13.1-16.9,26.7-18.3c-17.5-8.1-38,2.5-48,11.6
	C295.4,299.1,305.5,291.9,320.7,293.1z"/>
<path class="st3" d="M375.3,307.1c-7.3,1.8-14,4.2-16.4,10.9c5.8-6.8,19.8-9.1,31.6-6c-7.3-9.5-30.2-14.9-46.8-9.1
	c0.4-0.1-3.7,1.2-1.2,0.6C353.9,300.9,367.6,302.5,375.3,307.1z"/>
<path class="st3" d="M338.8,319.9c-5.8,3.5-12.3,6.3-14,14c6.4-7.6,15.3-12.7,30.4-11.5c-10.6-11.2-41.8-6-49.2,0.6
	C315,319,327.7,316.8,338.8,319.9z"/>
<path class="st3" d="M397.9,327.2c-9.2,1.6-15,6.6-17.6,14.6c6.5-7.5,20.2-12.2,34.1-8.5c-9.4-11.7-35.7-18-52.9-9.1
	C370.9,321.4,389.7,321.6,397.9,327.2z"/>
<path class="st3" d="M353.4,340c-7.1,2.4-12.5,6.6-14.6,14c6.3-8.1,15.4-13.4,31-12.2c-11.5-9.8-37-7.3-49.2,0
	C327.5,339.7,343.5,335.6,353.4,340z"/>
<path class="st2" d="M272.6,335.7c6.3,4.2,1.5,21.5-9.1,15.3C270.4,363.4,291.1,341.5,272.6,335.7z"/>
<path class="st3" d="M330.3,397.2c-3.1-3.5-15.7-6.2-23.7-3c15-0.1,23.5,6.5,27.4,17.6c5.8-23-8.5-39.7-26.1-45.1
	C319.6,372.7,328.7,381.2,330.3,397.2z"/>
<path class="st3" d="M394.8,392.9c3.2,7.5,8.8,21,5.5,33.3c-3-6.3-7.3-11.2-14.5-13.2c6.6,5.5,14.5,15,14,29.7
	C409,428.5,402.9,403.8,394.8,392.9z"/>
<path class="st3" d="M358.9,398.4c4.2,7,11.7,18.9,9.7,32.2c-3.7-5.5-7.7-10.5-16.4-10.9c10.2,5,16.6,13.8,18.2,27.4
	C377.7,428.4,368.1,408.3,358.9,398.4z"/>
<path class="st3" d="M312.8,409.9c4.9,4.7,12.1,16.1,7.3,27.3c-3.2-5.3-12.5-7.3-20.1-4.8c11.6,1.2,19.2,6.3,19.5,18.9
	C330.4,439.9,326.2,415.1,312.8,409.9z"/>
<g>
	<path class="st5" d="M347.9,272.2c24.2,18.6,46.1,21.5,67.5,25.1c12.4,2.2-25.1-0.8-0.6,11.7c16.3,8.4-5.6,2.5,23.9,33.8
		c0.9,1-23.9-13.5-8,2.4c12.3,12.3,25.2,30.7,15.3,50.4c-1.2,3-6.7-25.8-6.7-1.9c0,37.4-16,72.4-40,96.3c-6.1,6.1,1.9-21.5-13.5-6.2
		c-36.9,36.9-9.2-23.9-32.5,11.1c-16,24.6-20.9,0.6-39.2,3c-13.5,1.9-26.4,5-41.7,5c-5,0-9.9-24.6-9.9-29.5
		c0-4.9-14.1,9.9-14.1,14.2c0,14.7-9.8,14.7-9.8-0.6c0-25.8-8,17.2-8-10.4c0-8,1.2-6.1-3.1-1.9c-18.4,18.4-1.4-24.3,0.9-29.9
		c3.1-7.6,12.8-38.4,16.4-45.3c3.2-6.1,32.1-6.7,42.9-15c22.9-17.6-31.5-10.1-50.3-13.5c-12.7-2.4-10.4-42.4-5.5-47.3
		c19-19,41.8-39.9,70-49.1c3-0.6-0.6,10.8,1.2,9.2c9.1-8.1,20.7-12.2,33.7-14.1c4.4-0.6-0.2,1.8-1.9,2.4
		C326.8,275.4,339.7,277.2,347.9,272.2z"/>
	<path class="st6" d="M330.7,502.7c-4.5-2.6-9.5-5.5-16.5-4.6c-3.7,0.5-7.4,1.1-11,1.7c-9.6,1.6-19.6,3.2-30.7,3.2
		c-2.8,0-5.3-7.1-6.9-13c-1.8-6.6-3.1-14.1-3.1-16.7c0-0.3-0.1-0.5-0.2-0.7c-0.1-0.1-0.3-0.2-0.5-0.2c-1.3,0-4.5,2.5-7.7,6.2
		c-3.4,3.8-5.6,7.3-5.6,8.9c0,7.6-2.6,11-4.9,11c-2.4,0-5.1-3.7-5.1-11.7c0-5.5-0.4-8.3-1.1-8.5c-0.6-0.2-1.7,2-2.6,3.8
		c-1.1,2.2-2.1,4.2-2.9,4c-0.6-0.1-1.4-1.4-1.4-9.8c0-2,0.1-3.3,0.1-4.2c0-0.6,0.1-1,0-1.2c-0.1,0.1-0.3,0.3-0.5,0.6
		c-0.5,0.6-1.3,1.7-2.6,3c-3.8,3.8-6.3,5.3-7.7,4.4c-4.6-3.1,8.2-34,8.3-34.4c1.2-2.9,3.4-9.3,5.9-16.7c3.9-11.5,8.3-24.4,10.5-28.6
		c1.6-3,9.2-4.7,18.1-6.6c9.1-2,19.4-4.2,24.9-8.4c4.2-3.2,6-5.8,5.4-7.6c-1.5-4.5-17-4.5-31.9-4.6c-9.3,0-18.1-0.1-23.8-1.1
		c-3.3-0.6-5.8-3.6-7.4-9c-4-12.9-1.7-34.9,1.8-38.5c8.9-8.9,19.6-19.3,31.5-28.2c13.1-9.9,25.7-16.7,38.5-20.9
		c0.3-0.1,0.6,0,0.8,0.2c0.9,0.8,0.5,3.5,0.2,6c-0.2,1.4-0.4,3.1-0.1,3.2c0,0,0.1,0,0.3-0.1c8.4-7.4,19.4-12,33.8-14.1
		c1.6-0.2,1.9,0,2,0.2c0.2,0.7-3.3,2.3-3.8,2.5c-2.2,0.9-2.5,1.5-2.6,1.8c0,0.2,0.1,0.4,0.4,0.6c1.9,1.1,9.4,0.9,15-2.5l0.1,0l0.1,0
		c22.9,17.6,43.8,21.1,64,24.5c1.2,0.2,2.3,0.4,3.4,0.6c2.5,0.4,2.7,0.6,2.7,0.8c0,0.3-0.5,0.3-2.6,0.6c-3.2,0.4-8.6,1.1-9,3.2
		c-0.3,1.7,2.5,4.1,8.4,7.1c7,3.6,7,4.6,7,7.1c0,3.1,0,8.9,16.9,26.7c0.1,0.1,0.1,0.2,0,0.2c-0.1,0.1-0.1,0.1-2.3-1
		c-3-1.5-10.1-5-11-3.9c-0.4,0.5,0.3,2.1,5.2,7.1c18,18,23.2,35,15.4,50.5c-0.1,0.2-0.2,0.3-0.3,0.3c0,0,0,0,0,0
		c-0.5,0-1.2-1.8-2.3-5.1c-0.9-2.8-2.2-6.6-3-6.6c0,0,0,0,0,0c-0.5,0.1-1.1,1.8-1.1,9.5c0,18.2-3.7,36.1-11,53.2
		c-6.9,16.2-16.9,31.1-29,43.2c-0.8,0.8-1.4,1.1-1.8,0.9c-0.9-0.3-1.1-2.3-1.3-4.6c-0.3-3-0.6-6.4-2.5-7c-1.6-0.6-4.3,0.9-7.8,4.5
		c-9.4,9.4-15.5,13.4-18.7,12.2c-2.5-0.9-2.8-4.8-3-8c-0.2-2.2-0.3-4.2-1.1-4.4c-1.3-0.3-4.3,3.1-9.7,11.2
		c-5.5,8.5-9.8,11.2-13.7,11.2C336.8,506.2,333.9,504.6,330.7,502.7z M363.3,483.6c1,0.3,1.1,2.2,1.3,4.6c0.2,3.1,0.5,6.9,2.8,7.8
		c3.1,1.2,9.2-2.8,18.5-12.1c3.7-3.7,6.4-5.2,8.1-4.6c2,0.7,2.3,4.2,2.6,7.2c0.2,2.1,0.4,4.1,1.2,4.4c0.4,0.1,0.9-0.1,1.6-0.8
		c12.1-12.1,22.1-27,28.9-43.1c7.3-17.1,11-35,11-53.1c0-8.4,0.7-9.6,1.2-9.7c0,0,0,0,0.1,0c0.9,0,1.8,2.7,3.2,6.7
		c0.7,2.2,1.7,4.9,2.1,4.9c0,0,0.1,0,0.1-0.2c7.8-15.4,2.6-32.4-15.3-50.3c-4.1-4.1-5.8-6.5-5.2-7.4c0.9-1.2,6.3,1.3,11.2,3.8
		c0.7,0.4,1.4,0.7,1.8,0.9c-16.7-17.7-16.7-23.5-16.7-26.6c0-2.3,0-3.3-6.9-6.9c-6.1-3.1-8.9-5.5-8.5-7.3c0.4-2.3,5.7-3,9.2-3.4
		c1.1-0.1,2.2-0.3,2.4-0.4c-0.1-0.1-0.6-0.3-2.5-0.6c-1.1-0.2-2.3-0.4-3.4-0.6c-20.2-3.4-41.2-7-64.1-24.5
		c-5.6,3.4-13.3,3.6-15.1,2.5c-0.4-0.3-0.5-0.6-0.5-0.8c0.1-0.6,1-1.3,2.7-2c1.4-0.6,3.7-1.9,3.6-2.2c0,0-0.1-0.3-1.7,0
		c-14.3,2.1-25.3,6.7-33.6,14.1c-0.1,0.1-0.3,0.3-0.5,0.1c-0.4-0.2-0.3-1.3,0-3.4c0.3-2.3,0.6-5.1-0.1-5.8c-0.2-0.2-0.4-0.2-0.6-0.1
		c-12.8,4.2-25.3,11-38.4,20.9c-11.9,9-22.6,19.3-31.5,28.2c-3.5,3.5-5.7,25.4-1.8,38.3c1.6,5.3,4.1,8.3,7.3,8.9
		c5.7,1,14.4,1.1,23.7,1.1c15,0,30.5,0.1,32.1,4.7c0.7,2-1.1,4.5-5.4,7.8c-5.5,4.2-15.9,6.5-25,8.4c-8.8,1.9-16.4,3.5-17.9,6.5
		c-2.2,4.2-6.6,17.1-10.5,28.6c-2.5,7.4-4.7,13.7-5.9,16.7c-3.6,8.6-12.1,31.6-8.4,34.1c1.2,0.8,3.7-0.6,7.4-4.3
		c1.3-1.3,2.1-2.4,2.6-3c0.4-0.5,0.5-0.7,0.7-0.7c0.2,0.1,0.2,0.3,0.1,1.4c0,0.9-0.1,2.2-0.1,4.2c0,6.2,0.4,9.4,1.2,9.6
		c0,0,0,0,0.1,0c0.7,0,1.7-2.1,2.6-3.9c1.1-2.2,2-4.1,2.8-3.9c0.6,0.1,1.3,1.2,1.3,8.7c0,7.9,2.5,11.5,4.9,11.5
		c2.3,0,4.7-3.4,4.7-10.8c0-2,3-6.2,5.6-9c2.8-3.1,6.3-6.2,7.9-6.2c0.3,0,0.5,0.1,0.6,0.3c0.1,0.2,0.2,0.5,0.2,0.8
		c0,2.5,1.3,10,3.1,16.6c2.3,8.3,4.6,12.8,6.7,12.8c11.1,0,21.1-1.6,30.7-3.2c3.6-0.6,7.3-1.2,11-1.7c7.1-0.9,12.2,2,16.7,4.6
		c7.1,4.1,12.7,7.4,22.5-7.6c6.4-9.7,8.6-11.4,9.7-11.4C363.1,483.5,363.2,483.5,363.3,483.6z"/>
</g>
<path class="st3" d="M320.8,406.7c9.8,15.4,18.7,49.7,10.3,74.2c15.1-13.5,26.7-30.4,27.9-57.7c4,8.4,5,22.7,3.1,33.4
	c14.3-7.6,22.1-21.6,25.5-40c-4.6,10.4-9.1,21.2-17,28.5c-4.8-12.3-5-28.9-14.6-36.4c-0.6,19.4-6.2,33.8-12.7,47.4
	C337.5,437.7,333.1,418.2,320.8,406.7z"/>
<g>
	<path class="st7" d="M227.7,339.7c6.3,0,13,0.6,18-2.4c8.1-5.5,20.4-13.6,31-13.6c9.3,0,21.1,1.2,29.7,1.2
		c3.7,0,16.7,9.3,16.7,14.3c0,2.4,3.7,6.8,0,6.8c-6.2,0-10.5-5.6-4.9,6.2c0.6,1.9,1.9,16.7,0,13c-2.5-5-3.7-8.7-6.8-11.8
		c-5-5-3.7-0.6-3.7,5c0,0-5-3.7-8.1-4.3c-6.2-1.9-13,0.6-17.4,3.1c-5,3.1-27.9,3.7-30.4-1.3c0-0.6-12.4-6.2-14.3-8.1
		C237,347.1,227.1,340.3,227.7,339.7z"/>
	<path class="st8" d="M318.1,365.2c-0.6-1.2-1.2-2.4-1.7-3.5c-1.6-3.3-2.8-6-5.1-8.3c-1.6-1.6-2.7-2.3-3.2-2.1
		c-0.6,0.3-0.6,2-0.5,4.1c0,0.9,0.1,1.9,0.1,2.9v0.2l-0.2-0.1c0,0-5-3.7-8-4.3c-7.3-2.2-15.1,1.8-17.3,3.1
		c-4.1,2.5-19.1,3.2-26.3,1.2c-2.3-0.6-3.7-1.5-4.3-2.6l0,0c-0.1-0.3-2.7-1.6-5.2-2.9c-3.7-1.9-7.9-4.1-9-5.1
		c-0.2-0.2-1.1-0.8-2.2-1.6c-4.1-3-7.7-5.7-7.8-6.4c0-0.1,0-0.1,0-0.2l0,0h0c0.9,0,1.9,0,2.8,0c5.4,0.1,10.9,0.2,15.2-2.5
		c9.8-6.7,21.2-13.6,31.1-13.6c4.7,0,10.2,0.3,15.4,0.6c5.2,0.3,10.1,0.6,14.3,0.6c1.8,0,6,2.2,9.8,5.3c4.4,3.5,7,6.9,7,9.1
		c0,0.8,0.4,1.9,0.8,2.9c0.6,1.4,1.1,2.7,0.6,3.5c-0.3,0.4-0.8,0.6-1.5,0.6c-1.9,0-3.5-0.5-4.9-0.9c-1.2-0.3-2.1-0.6-2.4-0.3
		c-0.4,0.5,0.2,2.5,2.5,7.2c0.3,0.8,0.6,4.2,0.8,7.3c0.3,4.1,0.1,6.2-0.4,6.4c0,0-0.1,0-0.1,0C318.5,365.8,318.3,365.5,318.1,365.2z
		 M318.3,344.9c1.3,0.4,3,0.9,4.8,0.9c0.7,0,1.1-0.2,1.4-0.5c0.4-0.7-0.1-2-0.6-3.3c-0.4-1-0.9-2.1-0.9-3c0-2.1-2.6-5.5-6.9-8.9
		c-3.8-3-7.9-5.2-9.7-5.2c-4.2,0-9.2-0.3-14.3-0.6c-5.2-0.3-10.7-0.6-15.4-0.6c-9.9,0-21.2,6.9-31,13.6c-4.3,2.7-9.9,2.6-15.3,2.5
		c-0.9,0-1.8,0-2.7,0c0.1,0.7,5.4,4.5,7.7,6.2c1.2,0.9,2.1,1.5,2.2,1.7c1,1,5.4,3.3,8.9,5.1c4,2.1,5.2,2.7,5.3,3
		c0.5,1,1.9,1.8,4.1,2.4c7.7,2.2,22.4,1.1,26.1-1.2c2.2-1.3,10-5.3,17.4-3.1c2.8,0.5,7,3.5,7.9,4.2c0-0.9,0-1.8-0.1-2.6
		c-0.1-2.3-0.2-4,0.6-4.3c0.6-0.3,1.6,0.4,3.4,2.2c2.3,2.3,3.6,5,5.2,8.4c0.5,1.1,1.1,2.2,1.7,3.5c0.3,0.6,0.4,0.5,0.4,0.5
		c0.8-0.3,0-11.5-0.6-13.5c-2.4-4.9-3-6.8-2.4-7.4c0.1-0.2,0.4-0.2,0.6-0.2C316.8,344.5,317.5,344.7,318.3,344.9z"/>
</g>
<g>
	<path class="st9" d="M270.1,344.6l-8.6,6c1.9,2.9,5.2,4.6,8.6,4.6c5.8,0,10.5-4.8,10.5-10.6s-4.8-10.5-10.5-10.5V344.6z"/>
	<path d="M261.4,350.7L261.4,350.7l8.6-6.1V334h0.1c5.9,0,10.6,4.8,10.6,10.6c0,5.9-4.8,10.7-10.6,10.7
		C266.6,355.3,263.4,353.6,261.4,350.7z M270.2,344.7l-8.6,5.9c1.9,2.8,5.1,4.5,8.5,4.5c5.7,0,10.4-4.7,10.4-10.5
		c0-5.7-4.6-10.3-10.3-10.4V344.7z"/>
</g>
<path class="st3" d="M263.4,351c2,3.6,5.2,4.3,8.3,3.4v1.4c-1.1,0.3-2.2,0.6-3.4,0.7c-14.8,1.9-27.9-4.9-40.2-8.6
	c1.6,8.4,5.3,18.7,13.4,19.5c8.7,0.8,19.7,1.2,30.2,2.1v2.8c-13.8-0.3-29.7,2.2-38.7-3.7c-7.3-4.8-6.4-13.4-9.7-22.5
	c-23.8,7.7-48,25.2-41.4,55.9c0.2,11.3,5.2,19.6,7.9,27.4c-5.7-6.9-10.1-15-12.2-25.5v-10.4v-0.1v-8.6c2.8-25.8,31.5-36.6,46.2-48
	c-1.4-11.7,4.5-20.2,10.4-26.7c9.1-10.2,22.9-18.7,37.4-25.9v8.6c-4.8,2.7-9.6,5.6-14.3,8.8c-12,8.1-32.9,23.2-29.2,42
	c19.2,3,29.4-9.7,43.6-14v21.2C269.7,352.5,266.9,352.9,263.4,351L263.4,351z M271.7,388.6c-18.1,7.8-40.4,11.4-64.8,12.8
	c19.3-7.6,41.2-12.7,62-18.9c-20.6,2-58,8-73.6,18.9c-6.8,4.8-11.7,15.6-5.5,26.1c-0.6-8.8,1.1-19.6,8.5-22.4
	c18.9,0.3,35.4-2,51.8-4.2c7.6,17.1-7.5,35.1-3.1,56.4c2.8-12,5.6-24,10.4-34.1c-3.7,12-5.6,32.3-1.2,46.9
	c1.5-18.6,1.9-38.3,12.2-48.1c-0.1,10.8,1.5,19.7,3.4,28.5V388.6z M271.7,350.9v-21.2c1.8-0.6,3.7-1,5.8-1.2
	c10-1.1,21.5,0.6,28.6,5.5c-20.9-4.2-19,17.1-34.3,21.8v-1.4c7.4-2.3,14-14.5,0.9-18.6C276.8,338.6,276,347.4,271.7,350.9
	L271.7,350.9z M271.7,284.3v8.6c9.9-5.5,20-10,29.4-13.7c1,0.7-2,4.8,0,6.7c8.9-6.2,18.9-11.1,30.4-14.6c0,2.3-6.8,3-6.7,7.3
	c23.3-5.8,45.7,3.3,55.9,16.4c9-4.2,21.1,0.1,29.8,1.9c-3.3,1.6-8.1,1.6-10.9,3.6c7.3,5.5,17.4,8.1,22.5,15.8
	c-3.2-1.3-6.7-2.2-11.6-1.8c9.4,7.4,17,16.7,24.3,26.1c-6.2-1.9-11.7-4.6-18.9-5.5c-1.1,2.2,2.5,3.2,3.7,4.2
	c11.2,10.2,30.1,29.5,27.4,50.5c-3-5.1-6.7-9.5-11.6-12.7c-0.9,23.6-0.1,48.9-6.6,66.8c-2.2-12.9-0.1-29.9-8.6-36.4
	c-4,25-11,46.9-27.9,59c15.3-7.6,26.4-24.6,29.8-46.2c4,18.6,0.4,40.5-5.5,54.6c18-18.6,24.8-48.6,24.3-85.7c3,2.6,2.9,11,1.8,15.8
	c5-3.4,6.6-10,8.5-16.4v-9.8c-2.5-14.5-9.1-24.9-17-34.1c4.5,1,8.1,6.1,10.9,6.7c-3.2-9.2-9.3-17.4-15.8-24.3c-1.7-1.8-4.8-4-4.2-6
	c6.4,1.1,12.8,5.3,17,6.7c-9.1-9.5-17.5-19.8-31-25c3.4-2.1,12.1-1.4,16.4-0.6c-11.3-9.5-25.6-11.2-42-12.8
	c-4.5-0.4-10.4-6.8-15.8-9.7c-8.1-4.4-16.9-7.9-28-7.9c2.2-2.7,6.3-3.5,9.8-4.8c-16.6-2.2-31.1,2.4-41.9,7.9c0.6-4.1,3-6.3,4.8-9.1
	H314C301.8,270.9,286.4,276.9,271.7,284.3L271.7,284.3z M300.6,376.5c-2.2,6.8-10.7,7.1-15.8,10.9c18.1,20.1,13.1,68.5,1.8,92.4
	c2.1-20.4,3.6-49.3-9.1-59c-3.5,10.1-3.4,23.8-4.2,36.4c-0.5-2.2-1-4.5-1.5-6.8v-61.9c7.3-3.1,13.9-6.9,19.7-11.5
	c-4.9-3.7-12-4.8-19.7-4.8v-2.8C283,370.5,293.8,372.4,300.6,376.5z"/>
<path class="st3" d="M285.8,502.2c-0.8-0.8-24.3,27.7-23-37.1c-10.7,4.5-14.5,17.1-21,26.8c-1.5-7.4-4-13.8-4.2-22.8
	c-2.6,1.8-3,6.4-5.3,8.5c-0.6-5.8-1.8-10.9-2.2-17c-1.8,0.9-3.7,7.8-4.8,5.2c1.6-24.8,6.3-45.6,13.9-63.1
	c-17.6,15.6-13,59.5-23.5,82.7c-1.5,3.3-4.6,5.5-5.3,8.5c9.4-2.7,12.7-12.8,17.6-20.9c1.2,5,1.4,11.3,2.2,17c2.7-3,4.2-7.4,5.9-11.7
	c1,13.1,4.2,27,10.2,31.9c-1.2-9.2,0.5-17.8,3.7-24.1c2.2-4.4,6.3-9.6,9.1-9.1C252.1,490.3,263.9,529.5,285.8,502.2z"/>
<path d="M255.9,557.5c-1.1,0.7-2.6,1.4-4.7,2.1c-2.2,0.6-4.2,1.1-6,1.3c-5,0.4-9-0.5-12-2.7c-3-2.3-4.6-5.7-5-10.2
	c-0.2-3,0.2-5.8,1.4-8.2c1.2-2.4,3-4.5,5.3-5.9c2.4-1.4,5.3-2.3,8.7-2.6c2.4-0.2,5.1-0.1,8,0.4l0.7,7.6c-1.4-0.5-2.7-0.8-3.9-0.9
	c-1.3-0.1-2.6-0.1-4,0c-2.4,0.2-4.2,1.1-5.5,2.6c-1.3,1.6-1.8,3.6-1.6,6c0.2,2.4,0.9,4.2,2.2,5.4c1.3,1.3,3,1.8,5.1,1.6
	c1-0.1,1.7-0.1,2.2-0.4l-0.4-4l-5.5,0.4l-0.6-6.5l14.1-1.2L255.9,557.5z"/>
<path d="M278.8,558.2l-1.4-5.2l-4.5,0.1V547l2.7-0.1l-2.3-7.7c-0.1-0.6-0.4-1.3-0.4-1.9v-7.5l5-0.1l10.3,28.3L278.8,558.2z
	 M272.8,553.1l-4,0.1l-1.2,5.3l-9.4,0.3l8.9-28.9l5.7-0.2v7.5c-0.1-0.4-0.2-0.9-0.2-1.2h-0.2c0,0.3-0.1,0.9-0.2,1.6
	c-0.1,0.7-0.9,3.9-2.1,9.5l2.7-0.1V553.1z"/>
<path d="M307.9,557.7h-9.6l-9.3-28.7h9.3l4.3,17.6c0.4,1.4,0.6,2.5,0.6,3.2h0.2c0.1-0.9,0.3-2,0.6-3.3l4.2-17.6h9L307.9,557.7z"/>
<rect x="310.5" y="539.2" transform="matrix(1.758522e-02 -0.9998 0.9998 1.758522e-02 -224.296 858.7004)" width="28.7" height="8.6"/>
<path d="M352.5,559.2l-0.9-5.3l-4-0.2v-6.1l2.7,0.1l-1.6-7.9c-0.2-1.2-0.4-2.2-0.4-3.2H348c0,0.3-0.1,0.9-0.4,1.6
	c0,0.1-0.1,0.3-0.1,0.6v-8.4l6.6,0.4l7.8,29.1L352.5,559.2L352.5,559.2z M347.5,525.6V521c0.7,0.3,1.4,0.6,2,1.1
	c0.4,0.3,0.7,0.5,1.1,0.7c0.4,0.2,0.7,0.3,1.2,0.4c0.4,0,0.8-0.1,1.1-0.6c0.4-0.4,0.5-0.9,0.6-1.7l3.5,0.1c-0.1,2.2-0.6,3.9-1.4,5
	c-0.9,1.2-2,1.7-3.5,1.6c-1.2-0.1-2.3-0.4-3.4-1.2C348.2,526.1,347.8,525.9,347.5,525.6z M347.5,553.6l-4.5-0.2l-1.7,5.2l-9.3-0.5
	l11.4-28.1l4.1,0.2v8.4c-0.4,1.2-1.3,4.2-2.7,8.7l2.7,0.1V553.6L347.5,553.6z M347.5,521v4.7l-0.2-0.1c-0.4-0.3-0.7-0.4-1.2-0.4
	c-0.5-0.1-0.9,0.1-1.2,0.6c-0.4,0.4-0.5,0.9-0.6,1.7l-3.5-0.2c0.1-2.2,0.6-4,1.5-5c0.9-1.1,2-1.6,3.5-1.5
	C346.5,520.7,347,520.8,347.5,521z"/>
<path d="M394.1,549.1c-0.3,2.9-1.2,5.3-2.7,7.4c-1.5,2.2-3.5,3.7-5.8,4.7c-1.8,0.7-3.7,1.1-5.8,1.1v-7.4c0.7-0.1,1.4-0.2,1.9-0.6
	c0.9-0.5,1.6-1.2,2.2-2.2c0.6-1.1,0.9-2.3,1.2-3.8c0.3-2.4,0.1-4.2-0.7-5.7c-0.7-1.4-1.9-2.3-3.4-2.5c-0.4,0-0.8,0-1.2,0v-7.4
	c0.7,0,1.4,0.1,2.1,0.1c2.7,0.4,5.1,1.2,7.1,2.7c2,1.4,3.5,3.4,4.3,5.8C394.3,543.6,394.5,546.3,394.1,549.1z M379.8,562.3
	c-0.6,0-1.2-0.1-1.9-0.1c-2.7-0.4-5-1.2-7.1-2.7c-2-1.4-3.5-3.4-4.5-5.7c-0.9-2.4-1.2-4.9-0.9-7.6c0.4-3,1.3-5.5,2.8-7.6
	c1.5-2.2,3.5-3.7,5.8-4.7c1.8-0.8,3.7-1.2,5.8-1.2v7.4c-1.2,0.1-2.2,0.6-3.1,1.5c-1.2,1.2-1.8,3-2.1,5.3c-0.3,2.4-0.1,4.2,0.7,5.6
	c0.8,1.4,2,2.2,3.6,2.4c0.3,0,0.6,0,0.9,0V562.3z"/>
</svg>
